<svg xmlns="http://www.w3.org/2000/svg" xmlns:xlink="http://www.w3.org/1999/xlink" viewBox="0 0 210.771 187.975">
  <defs>
    <style>
      .cls-1, .cls-52 {
        fill: none;
      }

      .cls-2 {
        clip-path: url(#clip-path);
      }

      .cls-3 {
        fill: #f14224;
      }

      .cls-4 {
        fill: #f14324;
      }

      .cls-5 {
        fill: #f14424;
      }

      .cls-6 {
        fill: #f14524;
      }

      .cls-7 {
        fill: #f14624;
      }

      .cls-8 {
        fill: #f14724;
      }

      .cls-9 {
        fill: #f14824;
      }

      .cls-10 {
        fill: #f14924;
      }

      .cls-11 {
        fill: #f14a24;
      }

      .cls-12 {
        fill: #f14b24;
      }

      .cls-13 {
        fill: #f14c24;
      }

      .cls-14 {
        fill: #f14d24;
      }

      .cls-15 {
        fill: #f14e24;
      }

      .cls-16 {
        fill: #f14f24;
      }

      .cls-17 {
        fill: #f15024;
      }

      .cls-18 {
        fill: #f15124;
      }

      .cls-19 {
        fill: #f15224;
      }

      .cls-20 {
        fill: #f15424;
      }

      .cls-21 {
        fill: #f15524;
      }

      .cls-22 {
        fill: #f15624;
      }

      .cls-23 {
        fill: #f15824;
      }

      .cls-24 {
        fill: #f15924;
      }

      .cls-25 {
        fill: #f15a24;
      }

      .cls-26 {
        fill: #f15c24;
      }

      .cls-27 {
        fill: #f15d24;
      }

      .cls-28 {
        fill: #f15f24;
      }

      .cls-29 {
        fill: #f16024;
      }

      .cls-30 {
        fill: #f16224;
      }

      .cls-31 {
        fill: #f16424;
      }

      .cls-32 {
        fill: #f16524;
      }

      .cls-33 {
        fill: #f16724;
      }

      .cls-34 {
        fill: #f16924;
      }

      .cls-35 {
        fill: #f16a24;
      }

      .cls-36 {
        fill: #f16c24;
      }

      .cls-37 {
        fill: #f16e24;
      }

      .cls-38 {
        fill: #f17024;
      }

      .cls-39 {
        fill: url(#linear-gradient);
      }

      .cls-40 {
        fill: #f4d9bd;
      }

      .cls-41 {
        fill: #ced7d8;
      }

      .cls-41, .cls-42, .cls-43 {
        stroke: #ea175b;
      }

      .cls-41, .cls-42, .cls-43, .cls-51, .cls-52, .cls-54 {
        stroke-miterlimit: 10;
      }

      .cls-42 {
        fill: url(#radial-gradient);
      }

      .cls-43 {
        fill: url(#radial-gradient-2);
      }

      .cls-44 {
        fill: #f4e45d;
      }

      .cls-45 {
        fill: #83b77b;
      }

      .cls-46 {
        fill: #56c72d;
      }

      .cls-47 {
        fill: #698864;
      }

      .cls-48 {
        fill: #81d44b;
      }

      .cls-49 {
        fill: #c7dd6f;
      }

      .cls-50 {
        fill: #83b716;
      }

      .cls-51, .cls-55 {
        fill: #f2f2f2;
      }

      .cls-51 {
        stroke: #f2f2f2;
      }

      .cls-51, .cls-52, .cls-54 {
        stroke-width: 3px;
      }

      .cls-52 {
        stroke: #343f3c;
      }

      .cls-53 {
        fill: #b9c458;
      }

      .cls-54 {
        fill: #c20037;
        stroke: #c20037;
      }

      .cls-56 {
        fill: #ccc;
      }
    </style>
    <clipPath id="clip-path">
      <path class="cls-1" d="M204.475,100.554c-.34.92-.69,1.82-1.04,2.7a143.213,143.213,0,0,1-7.26,14.97c-19.76,36.45-55.45,49.61-66.35,53.16L5.645,90.414c3.61-12.28,13.14-38.09,37.74-59.65,1.15-1,2.52-2.2,4.12-3.55,2.3-1.93,5.07-4.15,8.3-6.46.78-.56,1.58-1.12,2.42-1.68,12.02-8.19,29.48-16.85,51.51-17.53a89.04,89.04,0,0,1,20.77,1.79,114.768,114.768,0,0,1,13.15,3.59c11.46,3.72,53.38,17.33,63.48,53.06C211.405,75.084,208.625,89.3,204.475,100.554Z"/>
    </clipPath>
    <linearGradient id="linear-gradient" x1="3.895" y1="86.517" x2="210.761" y2="86.517" gradientUnits="userSpaceOnUse">
      <stop offset="0.396" stop-color="#f14224"/>
      <stop offset="0.568" stop-color="#f14624"/>
      <stop offset="0.755" stop-color="#f15324"/>
      <stop offset="0.948" stop-color="#f16924"/>
      <stop offset="1" stop-color="#f17024"/>
    </linearGradient>
    <radialGradient id="radial-gradient" cx="88.395" cy="93.809" r="20.249" gradientTransform="translate(0.745 -3.099) scale(0.989 1.028)" gradientUnits="userSpaceOnUse">
      <stop offset="0" stop-color="#fff"/>
      <stop offset="0.335" stop-color="#fdfeff"/>
      <stop offset="0.507" stop-color="#f5fbff"/>
      <stop offset="0.642" stop-color="#e8f7ff"/>
      <stop offset="0.695" stop-color="#e0f4ff"/>
    </radialGradient>
    <radialGradient id="radial-gradient-2" cx="61.337" cy="71.481" r="20.263" gradientTransform="matrix(0.086, -0.985, -1.189, -0.103, 194.493, 186.677)" xlink:href="#radial-gradient"/>
  </defs>
  <g id="rainbow">
    <g>
      <g class="cls-2">
        <rect class="cls-3" x="5.645" y="1.294" width="80.569" height="170.09"/>
        <rect class="cls-3" x="86.214" y="1.294" width="2.675" height="170.09"/>
        <rect class="cls-3" x="88.889" y="1.294" width="2.675" height="170.09"/>
        <rect class="cls-3" x="91.564" y="1.294" width="2.675" height="170.09"/>
        <rect class="cls-3" x="94.239" y="1.294" width="2.675" height="170.09"/>
        <rect class="cls-3" x="96.914" y="1.294" width="2.675" height="170.09"/>
        <rect class="cls-4" x="99.59" y="1.294" width="2.675" height="170.09"/>
        <rect class="cls-4" x="102.265" y="1.294" width="2.675" height="170.09"/>
        <rect class="cls-4" x="104.94" y="1.294" width="2.675" height="170.09"/>
        <rect class="cls-5" x="107.615" y="1.294" width="2.675" height="170.09"/>
        <rect class="cls-5" x="110.29" y="1.294" width="2.675" height="170.09"/>
        <rect class="cls-6" x="112.965" y="1.294" width="2.675" height="170.09"/>
        <rect class="cls-6" x="115.641" y="1.294" width="2.675" height="170.09"/>
        <rect class="cls-7" x="118.316" y="1.294" width="2.675" height="170.09"/>
        <rect class="cls-7" x="120.991" y="1.294" width="2.675" height="170.09"/>
        <rect class="cls-8" x="123.666" y="1.294" width="2.675" height="170.09"/>
        <rect class="cls-9" x="126.341" y="1.294" width="2.675" height="170.09"/>
        <rect class="cls-10" x="129.016" y="1.294" width="2.675" height="170.09"/>
        <rect class="cls-10" x="131.691" y="1.294" width="2.675" height="170.09"/>
        <rect class="cls-11" x="134.367" y="1.294" width="2.675" height="170.09"/>
        <rect class="cls-12" x="137.042" y="1.294" width="2.675" height="170.09"/>
        <rect class="cls-13" x="139.717" y="1.294" width="2.675" height="170.09"/>
        <rect class="cls-14" x="142.392" y="1.294" width="2.675" height="170.09"/>
        <rect class="cls-15" x="145.067" y="1.294" width="2.675" height="170.09"/>
        <rect class="cls-16" x="147.742" y="1.294" width="2.675" height="170.09"/>
        <rect class="cls-17" x="150.418" y="1.294" width="2.675" height="170.09"/>
        <rect class="cls-18" x="153.093" y="1.294" width="2.675" height="170.09"/>
        <rect class="cls-19" x="155.768" y="1.294" width="2.675" height="170.09"/>
        <rect class="cls-20" x="158.443" y="1.294" width="2.675" height="170.09"/>
        <rect class="cls-21" x="161.118" y="1.294" width="2.675" height="170.09"/>
        <rect class="cls-22" x="163.793" y="1.294" width="2.675" height="170.09"/>
        <rect class="cls-23" x="166.469" y="1.294" width="2.675" height="170.09"/>
        <rect class="cls-24" x="169.144" y="1.294" width="2.675" height="170.09"/>
        <rect class="cls-25" x="171.819" y="1.294" width="2.675" height="170.09"/>
        <rect class="cls-26" x="174.494" y="1.294" width="2.675" height="170.09"/>
        <rect class="cls-27" x="177.169" y="1.294" width="2.675" height="170.09"/>
        <rect class="cls-28" x="179.844" y="1.294" width="2.675" height="170.09"/>
        <rect class="cls-29" x="182.519" y="1.294" width="2.675" height="170.09"/>
        <rect class="cls-30" x="185.195" y="1.294" width="2.675" height="170.09"/>
        <rect class="cls-31" x="187.87" y="1.294" width="2.675" height="170.09"/>
        <rect class="cls-32" x="190.545" y="1.294" width="2.675" height="170.09"/>
        <rect class="cls-33" x="193.22" y="1.294" width="2.675" height="170.09"/>
        <rect class="cls-34" x="195.895" y="1.294" width="2.675" height="170.09"/>
        <rect class="cls-35" x="198.57" y="1.294" width="2.675" height="170.09"/>
        <rect class="cls-36" x="201.246" y="1.294" width="2.675" height="170.09"/>
        <rect class="cls-37" x="203.921" y="1.294" width="2.675" height="170.09"/>
        <rect class="cls-38" x="206.596" y="1.294" width="2.675" height="170.09"/>
        <rect class="cls-38" x="209.271" y="1.294" width="2.134" height="170.09"/>
      </g>
      <path class="cls-39" d="M208.575,59.574c-6.84-24.22-28.53-42.41-64.45-54.08a118.8,118.8,0,0,0-13.32-3.63,90.954,90.954,0,0,0-21.12-1.82c-18.21.56-35.8,6.55-52.29,17.78-.86.57-1.67,1.14-2.46,1.71-2.78,1.98-5.52,4.12-8.4,6.53-1.38,1.17-2.6,2.23-3.65,3.14l-.49.43a124.078,124.078,0,0,0-13.13,13.4q-1.65,1.95-3.16,3.92a130.617,130.617,0,0,0-21.9,43.04l-.31,1.07,125.11,81.58.6.39.69-.22a128.643,128.643,0,0,0,37.65-19.61c.33-.25.65-.5.97-.75A109.64,109.64,0,0,0,186,135.944c.72-.87,1.44-1.77,2.14-2.68a103.238,103.238,0,0,0,9.36-14.33l.09-.16a142.3,142.3,0,0,0,7.24-14.96c.36-.9.71-1.81,1.06-2.74C211.305,86.384,212.215,72.414,208.575,59.574Zm-5.51,40.46c-.33.91-.68,1.8-1.02,2.66a139.95,139.95,0,0,1-7.1,14.65l-.09.17a102.444,102.444,0,0,1-7.08,11.25v.01c-.83,1.14-1.67,2.24-2.54,3.33a105.993,105.993,0,0,1-17.22,17.25c-.43.34-.86.67-1.28,1.01a125.289,125.289,0,0,1-36.69,19.37L7.405,89.774a126.837,126.837,0,0,1,25.5-46.38q2.085-2.415,4.41-4.79c2.2-2.27,4.55-4.52,7.05-6.71l.49-.42c1.04-.91,2.25-1.96,3.61-3.11,2.82-2.36,5.5-4.45,8.21-6.39.77-.55,1.56-1.1,2.39-1.66,16.03-10.92,33.09-16.73,50.72-17.27a88.309,88.309,0,0,1,20.42,1.76,112.647,112.647,0,0,1,12.99,3.55c34.91,11.33,55.94,28.84,62.5,52.04a55.237,55.237,0,0,1,2.06,15.12A70.7,70.7,0,0,1,203.065,100.034Z"/>
    </g>
    <g id="Layer_7" data-name="Layer 7">
      <path class="cls-40" d="M176.175,106.484a47.3,47.3,0,0,1-2.07,10.76c-1.06,3.5-2.35,6.91-3.51,10.35a59.124,59.124,0,0,0-2.75,10.51,32.3,32.3,0,0,0,.08,10.79c.03.15.06.31.09.46a18.629,18.629,0,0,0,.9,3.1c-.32.25-.64.5-.97.75a19.232,19.232,0,0,1-1.21-2.84c-.14-.38-.26-.77-.37-1.16a31.35,31.35,0,0,1-.86-11.44c.73-7.76,3.78-14.62,5.72-21.38a47.169,47.169,0,0,0,2.14-10.07,32.946,32.946,0,0,0-.69-10.07,37.561,37.561,0,0,0-10.09-18.2l.18-.24a33.806,33.806,0,0,1,12.18,17.8A32.773,32.773,0,0,1,176.175,106.484Z"/>
      <path class="cls-40" d="M187.775,128.764v.01c-.01.24,0,.49.01.73a36.228,36.228,0,0,0,.35,3.76c-.7.91-1.42,1.81-2.14,2.68-.13-.46-.23-.92-.32-1.39-.18-.81-.32-1.63-.44-2.45s-.2-1.65-.27-2.48a52.72,52.72,0,0,1,.42-9.77c.47-3.17,1.04-6.25,1.59-9.27.3-1.5.57-3,.8-4.49.21-1.48.4-2.96.54-4.44.48-5.91.14-11.96-2.87-17.5l.24-.18a22.021,22.021,0,0,1,4.04,8.41,35.663,35.663,0,0,1,.95,9.32c-.11,6.27-1.54,12.39-2.32,18.54A52.82,52.82,0,0,0,187.775,128.764Z"/>
      <path class="cls-40" d="M115.205,43.864l-.21.22a57.326,57.326,0,0,0-24.82-11.31,73.024,73.024,0,0,0-26.96-.07,87.076,87.076,0,0,0-13.19,3.45,123.734,123.734,0,0,0-12.77,5.13q-2.19,1.02-4.35,2.11c-2.29,1.13-4.55,2.33-6.8,3.56q1.515-1.965,3.16-3.92c2.27-1.34,4.57-2.63,6.91-3.85.38-.2.76-.39,1.14-.58a95.053,95.053,0,0,1,25.36-8.85,67.993,67.993,0,0,1,28.05.72A51.25,51.25,0,0,1,115.205,43.864Z"/>
      <path class="cls-40" d="M145.6,64.548C140.054,59.69,134.89,54.5,129.864,49.2c-2.55-2.615-4.96-5.379-7.431-8.032-2.42-2.689-4.823-5.331-7.39-7.726A49.485,49.485,0,0,0,97.678,22.264c-6.568-2.584-13.67-4.169-20.8-6.018l.033-.3c7.249.779,14.539,1.788,21.512,4.079A48.263,48.263,0,0,1,108.43,24.54a49.138,49.138,0,0,1,8.683,6.729c2.643,2.541,5.081,5.275,7.459,8.046l7.09,8.344,14.169,16.694Z"/>
    </g>
    <g id="Layer_2" data-name="Layer 2">
      <path class="cls-41" d="M99.114,106.838l12.6-19.707a21.018,21.018,0,0,0,5.024,4.194,20.511,20.511,0,0,1,2.777,1.819A18.105,18.105,0,0,1,122,95.538Z"/>
      <path class="cls-42" d="M92.286,107.1l-27.24-28.16a.074.074,0,0,1-.021-.036c-.087-.358,2.841-1.369,4.068-1.737a22.533,22.533,0,0,1,7.292-.819,63.743,63.743,0,0,1,15.379,2.47,73.515,73.515,0,0,1,7.242,2.32c7.562,2.874,11.343,4.311,12.115,7.03.406,1.43.043,3.193-7.27,12.267-3.3,4.09-6.213,7.444-8.435,9.921Z"/>
      <path class="cls-43" d="M99.125,113.359l30.221,29.967a.088.088,0,0,0,.04.024c.407.122,1.83-2.693,2.361-3.879a21.324,21.324,0,0,0,1.579-7.182c.376-3.827.989-7.777.734-11.632-.352-5.308-2.506-10.21-4.924-14.866-1.616-3.113-2.687-8.1-6.48-9.3a3.978,3.978,0,0,0-.642-.16c-1.633-.246-4.433.59-14.179,6.171-5.016,2.872-9.149,5.442-12.206,7.406Z"/>
      <rect class="cls-44" x="69.542" y="118.992" width="52.173" height="42.381" rx="0.615" transform="translate(127.133 -26.561) rotate(45)"/>
      <rect class="cls-45" x="60.428" y="93.937" width="27.391" height="24.923" rx="0.38" transform="translate(96.946 -21.25) rotate(45)"/>
      <rect class="cls-46" x="52.133" y="79.583" width="17.958" height="17.958" rx="0.38" transform="translate(80.522 -17.274) rotate(45)"/>
      <rect class="cls-47" x="45.78" y="143.377" width="38.531" height="21.618" transform="translate(128.077 -0.834) rotate(45)"/>
      <path class="cls-48" d="M68.879,142.539h-30.8a3.324,3.324,0,0,1-3.324-3.323V110.27a1.713,1.713,0,0,1,.757-1.427,2.161,2.161,0,0,1,1.6-.175c2.216.48,31.643,14.516,35.638,16.423Z"/>
      <rect class="cls-49" x="42.406" y="106.9" width="35.568" height="13.848" rx="0.733" transform="translate(50.408 -14.562) rotate(23.513)"/>
      <path class="cls-50" d="M66.977,99.541a.787.787,0,0,1-.4,1.114c-3.19,1.245-14.053,6.483-14.981,6.914q-4.332,2.01-8.612,4.127c-1.071.532-2.532,1.728-3.771,1.376-1.108-.315-1.839-1.4-2.613-2.174a34.581,34.581,0,0,1-3.561-4.122c-2.168-2.993-4-6.788-2.994-10.571l.378-.486L56.167,80.857a.439.439,0,0,1,.6.16Z"/>
    </g>
    <path class="cls-51" d="M139.005,64.974c-35.67-30.12-90.53-35.85-123.08,2.81A45.515,45.515,0,0,0,7.4,84.274a58.631,58.631,0,0,0-1.44,27.12c.19.97.37,1.68.46,2.07,2.43,9.91,8.76,35.73,24.79,50,10.48,9.33,27.69,10.49,62.09,12.79,12.58.84,27.2.93,36.53-4.87a128.92,128.92,0,0,0,17.59-14.61c.79-.83,1.53-1.65,1.53-1.65a81.28,81.28,0,0,0,6.41-8.16C174.765,118.444,163.815,85.924,139.005,64.974Zm-13.83,82.22c-.31.35-.63.69-.96,1.03-11.74,12.21-32.35,15.47-48.3,11.79a38.4,38.4,0,0,1-21.32-12.88c-6.85-7.94-15.91-15.46-18.62-26.01-.12-.44-.21-.87-.29-1.3a36.524,36.524,0,0,1,.9-16.97,28.261,28.261,0,0,1,5.34-10.32c3.29-3.91,7.64-5.22,11.76-7.87,5.54-3.58,9.32-7.96,16.21-9.07C106.915,69.594,158.075,110.274,125.175,147.194Z"/>
    <path class="cls-52" d="M36.58,102.849A28.564,28.564,0,0,1,41.921,92.53c3.292-3.909,7.641-5.212,11.759-7.868,5.546-3.575,9.325-7.957,16.21-9.072,37.023-6,88.188,34.688,55.282,71.6q-.468.525-.956,1.033c-11.744,12.208-32.348,15.474-48.3,11.795A38.454,38.454,0,0,1,54.594,147.13c-6.853-7.938-15.91-15.458-18.622-26.011-.113-.44-.208-.867-.292-1.294A36.728,36.728,0,0,1,36.58,102.849Z"/>
    <path class="cls-53" d="M204.475,100.554c-.34.92-.69,1.82-1.04,2.7a127.481,127.481,0,0,0-47.49-26.85,79.938,79.938,0,0,0-17.12-29.53c-13.4-14.48-30.5-21.49-46.76-24.57a135.013,135.013,0,0,0-36.26-1.55c.78-.56,1.58-1.12,2.42-1.68Q94.36,11.2,130.505,3.334a114.768,114.768,0,0,1,13.15,3.59c11.46,3.72,53.38,17.33,63.48,53.06C211.405,75.084,208.625,89.3,204.475,100.554Z"/>
    <path class="cls-54" d="M204.475,100.554c-3.05-5.17-6.13-10.31-9.12-15.49-18.29-31.59-50.95-54.45-86.8-61.15a101.381,101.381,0,0,0-16.49-1.61c-14.55-.29-29.83,2-44.56,4.91,2.3-1.93,5.07-4.15,8.3-6.46.78-.56,1.58-1.12,2.42-1.68,12.02-8.19,29.48-16.85,51.51-17.53a89.04,89.04,0,0,1,20.77,1.79,114.768,114.768,0,0,1,13.15,3.59c11.46,3.72,53.38,17.33,63.48,53.06C211.405,75.084,208.625,89.3,204.475,100.554Z"/>
  </g>
  <g id="rice">
    <ellipse class="cls-55" cx="35.077" cy="167.303" rx="5.574" ry="14.808" transform="translate(-114.132 83.892) rotate(-48.953)"/>
    <ellipse class="cls-55" cx="53.252" cy="171.384" rx="5.574" ry="14.808" transform="translate(-119.587 123.063) rotate(-57.12)"/>
    <ellipse class="cls-55" cx="67.076" cy="174.432" rx="5.574" ry="14.808" transform="translate(-115.827 136.066) rotate(-57.12)"/>
    <ellipse class="cls-55" cx="12.861" cy="94.848" rx="5.574" ry="14.808" transform="matrix(0.543, -0.84, 0.84, 0.543, -73.775, 54.157)"/>
    <ellipse class="cls-55" cx="125.321" cy="171.532" rx="5.574" ry="14.808" transform="translate(-51.004 290.014) rotate(-87.748)"/>
    <ellipse class="cls-55" cx="137.396" cy="164.845" rx="14.808" ry="5.574" transform="translate(-59.065 78.505) rotate(-26.465)"/>
    <path class="cls-55" d="M155.268,145.706c4.619,1.941,3.917,4.787,2.724,7.625s-2.425,4.593-7.044,2.652-7.4-5.816-6.2-8.654S150.649,143.764,155.268,145.706Z"/>
    <path class="cls-55" d="M160.374,135.178c4.619,1.941,3.917,4.787,2.724,7.625s-2.425,4.594-7.044,2.652-7.4-5.816-6.2-8.654S155.755,133.236,160.374,135.178Z"/>
    <path class="cls-55" d="M163.879,122.992c4.619,1.942,3.917,4.788,2.724,7.626s-2.425,4.593-7.044,2.652-7.4-5.816-6.2-8.654S159.26,121.051,163.879,122.992Z"/>
    <path class="cls-55" d="M76.051,41.107c0-5.01,2.9-5.466,5.974-5.466S87.2,36.1,87.2,41.107s-2.5,9.072-5.575,9.072S76.051,46.118,76.051,41.107Z"/>
    <path class="cls-55" d="M64.368,40.479c0-5.01,2.5-7.267,5.574-7.267s5.574,2.257,5.574,7.267-2.5,9.072-5.574,9.072S64.368,45.49,64.368,40.479Z"/>
    <path class="cls-55" d="M51.776,41.969c0-5.01,2.895-5.466,5.974-5.466s5.174.456,5.174,5.466-2.495,9.073-5.574,9.073S51.776,46.98,51.776,41.969Z"/>
    <path class="cls-55" d="M132.276,59.193c3.376-3.7,5.823-2.088,8.1-.013s3.516,3.823.14,7.525-7.957,5.022-10.232,2.947S128.9,62.9,132.276,59.193Z"/>
    <path class="cls-55" d="M121.968,51.81c3.376-3.7,5.823-2.088,8.1-.014s3.517,3.823.14,7.526-7.956,5.021-10.231,2.947S118.592,55.512,121.968,51.81Z"/>
    <path class="cls-55" d="M10.2,126.834c-4.8,1.45-6.07-1.19-6.961-4.137s-1.061-5.084,3.736-6.534,9.406-.236,10.3,2.71S14.994,125.384,10.2,126.834Z"/>
    <path class="cls-55" d="M12.978,138.2c-4.8,1.45-6.07-1.19-6.961-4.137s-1.061-5.085,3.735-6.535,9.406-.236,10.3,2.711S17.774,136.75,12.978,138.2Z"/>
    <path class="cls-55" d="M18.048,149.822c-4.8,1.449-6.07-1.19-6.961-4.137s-1.061-5.085,3.735-6.535,9.406-.236,10.3,2.711S22.844,148.372,18.048,149.822Z"/>
    <ellipse class="cls-55" cx="109.199" cy="176.67" rx="5.574" ry="14.808" transform="matrix(0.148, -0.989, 0.989, 0.148, -81.684, 258.526)"/>
    <ellipse class="cls-55" cx="90.512" cy="179.653" rx="5.574" ry="14.808" transform="translate(-104.524 228.934) rotate(-77.441)"/>
  </g>
  <g id="rice_shadows" data-name="rice shadows">
    <path class="cls-56" d="M34.358,173.787a32.423,32.423,0,0,1,3.988,1.066c.617.152,1.174.372,1.756.481a13.4,13.4,0,0,0,1.7.361c.578.14,1.185.215,1.806.313.643.151.865.123,1.055.186.171.044.594-.216.851-.667a2.733,2.733,0,0,0,.443-1.741l.161-.118a2.77,2.77,0,0,1,.439,2.018,2.629,2.629,0,0,1-1.023,1.815,3.159,3.159,0,0,1-2.056.383,18.435,18.435,0,0,1-2.037-.223,12.745,12.745,0,0,1-3.841-1.418,25.036,25.036,0,0,1-3.365-2.3Z"/>
    <path class="cls-56" d="M64.119,173.524a1.964,1.964,0,0,1,1.625.685,4.312,4.312,0,0,1,.843,1.612,9.1,9.1,0,0,1,.279,1.683,5.839,5.839,0,0,1-.108,1.831,3.247,3.247,0,0,1-.57,1.189,3.367,3.367,0,0,1-1.044.86,5.312,5.312,0,0,1-2.1.575A11,11,0,0,1,61.3,181.9c-.545-.066-1.094-.13-1.628-.245a19.755,19.755,0,0,1-3.066-1.006,21.9,21.9,0,0,1-2.747-1.476,30.533,30.533,0,0,1-4.814-3.765l.081-.183c3.647,1.563,7.095,3.679,10.97,4.477a14.148,14.148,0,0,0,2.9.378,2.163,2.163,0,0,0,2.269-1.256,8.582,8.582,0,0,0,.265-2.89,3.565,3.565,0,0,0-.38-1.378,1.725,1.725,0,0,0-1.08-.832Z"/>
    <path class="cls-56" d="M78.231,177.317a2.546,2.546,0,0,1,1.914,1.5,3.828,3.828,0,0,1,.192,2.7,4.46,4.46,0,0,1-1.7,2.333,5.218,5.218,0,0,1-2.756.881,5.914,5.914,0,0,1-1.4-.193,6.341,6.341,0,0,1-.65-.208,4.586,4.586,0,0,1-.457-.223c-.592-.342-1.2-.629-1.769-1.03a13.3,13.3,0,0,1-3.193-2.737l.081-.183,3.673,1.452,1.835.726a4.229,4.229,0,0,0,1.853.4,3.338,3.338,0,0,0,3.04-1.849,2.778,2.778,0,0,0-.773-3.406Z"/>
    <path class="cls-56" d="M102.165,178.345a5.664,5.664,0,0,1,1.9.571,3.576,3.576,0,0,1,1.584,1.637,4.162,4.162,0,0,1,.266,2.429,5.388,5.388,0,0,1-.948,2.185,5.27,5.27,0,0,1-1.8,1.634,8.413,8.413,0,0,1-2.115.848,17.068,17.068,0,0,1-4.054.326,20.351,20.351,0,0,1-3.93-.55c-1.244-.338-2.436-.675-3.576-1.094-2.269-.754-4.886-1.664-6.713-3.534l.1-.174a24.232,24.232,0,0,0,6.961,2.176,34.8,34.8,0,0,0,7.211,1.178,16.209,16.209,0,0,0,3.624-.175,5.17,5.17,0,0,0,3.086-1.651,3.577,3.577,0,0,0,.877-3.279,4.232,4.232,0,0,0-2.558-2.345Z"/>
    <path class="cls-56" d="M16.906,150.024a4.213,4.213,0,0,1-3.672.6,5.311,5.311,0,0,1-3.137-2.508,5.926,5.926,0,0,1-.762-3.768,4.155,4.155,0,0,1,1.915-3.17l.179.088a6.41,6.41,0,0,0,.4,5.846,5.15,5.15,0,0,0,2.117,2.086,6.662,6.662,0,0,0,2.958.629Z"/>
    <path class="cls-56" d="M10.323,138.7a4.848,4.848,0,0,1-3.334-.748,6.164,6.164,0,0,1-2.37-2.57,5.069,5.069,0,0,1-.35-3.8A3.466,3.466,0,0,1,6.881,129.1l.143.139a4.494,4.494,0,0,0-1.178,2.532,4.868,4.868,0,0,0,.567,2.729A8.53,8.53,0,0,0,8.1,136.8a10.37,10.37,0,0,0,2.313,1.713Z"/>
    <path class="cls-56" d="M7.234,127.244a4.07,4.07,0,0,1-3.607-.611,4.936,4.936,0,0,1-1.4-1.386,13.374,13.374,0,0,1-.814-1.7,6.089,6.089,0,0,1-.065-3.734,3.474,3.474,0,0,1,2.71-2.57l.127.154A4.125,4.125,0,0,0,2.921,120a7.013,7.013,0,0,0,.4,2.937l.562,1.383a5.441,5.441,0,0,0,.88,1.19,6.029,6.029,0,0,0,2.526,1.54Z"/>
    <path class="cls-56" d="M123.2,177.027a1.712,1.712,0,0,1,1.1.883,2.962,2.962,0,0,1,.343,1.484,3.171,3.171,0,0,1-.519,1.6,4.18,4.18,0,0,1-1.175,1.13,5.977,5.977,0,0,1-1.2.648c-.385.174-.776.32-1.169.466a18.2,18.2,0,0,1-2.413.554,15.964,15.964,0,0,1-4.815-.117,12.962,12.962,0,0,1-4.533-1.629l.022-.2a37.36,37.36,0,0,0,9.054-.035,16.343,16.343,0,0,0,4.351-1.1,2.33,2.33,0,0,0,1.372-1.568,1.849,1.849,0,0,0-.53-1.956Z"/>
    <path class="cls-56" d="M135.7,168.649a2.9,2.9,0,0,1,2.812.2,4.883,4.883,0,0,1,2.1,2.2,3.265,3.265,0,0,1,.27,1.985,3.838,3.838,0,0,1-.948,1.876,5.865,5.865,0,0,1-1.292,1.014c-.414.247-.755.44-1.147.643a20.554,20.554,0,0,1-2.4.935,14.627,14.627,0,0,1-2.518.506,11.031,11.031,0,0,1-5.091-.508l-.011-.2a24.09,24.09,0,0,0,9.136-2.527,8.07,8.07,0,0,0,2-1.2,1.863,1.863,0,0,0,.5-2.031,4.575,4.575,0,0,0-1.3-1.9,2.685,2.685,0,0,0-2.087-.8Z"/>
    <path class="cls-56" d="M3.882,85.7A8.989,8.989,0,0,0,1.6,86.922a1.67,1.67,0,0,0-.58,1.648A10.837,10.837,0,0,0,1.748,90.9c.334.816.723,1.655,1.019,2.6l-.079.062A20.717,20.717,0,0,1,1.07,91.293,7.638,7.638,0,0,1,.024,88.7,2.6,2.6,0,0,1,.213,87.29a2.461,2.461,0,0,1,.964-1.036,5.632,5.632,0,0,1,2.7-.659Z"/>
  </g>
  <g id="inner_rice" data-name="inner rice">
    <path class="cls-56" d="M33.142,85.745c-1.813-.639-3.451-.494-5.457-1.062a7.389,7.389,0,0,1-2.963-1.617,5.008,5.008,0,0,1-1.632-3.719,4.948,4.948,0,0,1,1.941-3.6,5.768,5.768,0,0,1,3.435-1.192,7.131,7.131,0,0,1,3.115.735,10.707,10.707,0,0,1,2.433,1.665l-.07.188a11.679,11.679,0,0,0-5.3-1.026,4.557,4.557,0,0,0-2.4,1.062,3.122,3.122,0,0,0-1.162,2.24,3.179,3.179,0,0,0,.983,2.33,6.9,6.9,0,0,0,2.226,1.48c1.653.715,3.56,1.089,4.98,2.367Z"/>
    <path class="cls-56" d="M98.946,66.371A6.736,6.736,0,0,1,98,64.1a5.218,5.218,0,0,1,.118-2.73,4.008,4.008,0,0,1,2.342-2.466,4.069,4.069,0,0,1,1.857-.228,5.046,5.046,0,0,1,1.66.5,5.647,5.647,0,0,1,2.216,2.221,5.348,5.348,0,0,1,.508,1.484,4.743,4.743,0,0,1,.072,1.41,7.629,7.629,0,0,1-2,4.5l-.193-.053A13.161,13.161,0,0,0,105.2,64.4a4.42,4.42,0,0,0-.62-2.031,3.965,3.965,0,0,0-1.534-1.426,2.441,2.441,0,0,0-3.512,1.109,8.128,8.128,0,0,0-.392,4.3Z"/>
    <path class="cls-56" d="M19.511,118.74a6.221,6.221,0,0,0,.782,3.943,5.371,5.371,0,0,0,1.048,1.31A3.7,3.7,0,0,0,23.973,125a5.415,5.415,0,0,0,1.656-.283,6.2,6.2,0,0,0,3.2-2.432l.2.028a5.291,5.291,0,1,1-9.685-3.682Z"/>
    <path class="cls-56" d="M36.623,144.054c1.445.925,2.932,1.192,4.462,2.562a5.145,5.145,0,0,1,1.552,2.985,4.193,4.193,0,0,1-.188,1.969,3.617,3.617,0,0,1-1.434,1.845,3.841,3.841,0,0,1-2.137.553,4.956,4.956,0,0,1-1.707-.354,12.1,12.1,0,0,1-2.343-1.325,13.486,13.486,0,0,1-3.673-3.607l.109-.167a40.28,40.28,0,0,0,4.257,2.364,19.977,19.977,0,0,0,2.225.946,2.577,2.577,0,0,0,2.2-.1,2,2,0,0,0,.815-1.956,3.9,3.9,0,0,0-.875-2.134c-1.015-1.228-2.522-2.053-3.429-3.475Z"/>
    <path class="cls-56" d="M138.247,144.794a4.892,4.892,0,0,0,3.251-.786,4.14,4.14,0,0,0,.976-.876,2.7,2.7,0,0,0,.618-1.938,4.2,4.2,0,0,0-.3-1.281,4.883,4.883,0,0,0-2.211-2.51l-.005-.2a4.293,4.293,0,0,1,3.473,1.767,3.99,3.99,0,0,1-2.069,6.538,4.293,4.293,0,0,1-3.857-.553Z"/>
    <path class="cls-56" d="M145.481,110.619a3.341,3.341,0,0,1-.745-2.41,4.964,4.964,0,0,1,.931-2.522,4.524,4.524,0,0,1,.934-1.026,9.189,9.189,0,0,1,1.066-.771,4.709,4.709,0,0,1,1.464-.574,2.674,2.674,0,0,1,1.087,0,2.4,2.4,0,0,1,.517.18,2.953,2.953,0,0,1,1.06.893,4.48,4.48,0,0,1,.311.522l.157.453a3.762,3.762,0,0,1,.171.825,4.629,4.629,0,0,1,.043.721,3.076,3.076,0,0,1-.034.66,9.433,9.433,0,0,1-.573,2.33,9.791,9.791,0,0,1-2.48,3.873l-.183-.08a23.714,23.714,0,0,0,1.12-4.091,12.962,12.962,0,0,0,.237-2.1,3.41,3.41,0,0,0-.382-1.937c-.065-.15-.208-.2-.314-.3a.617.617,0,0,0-.405-.031,3.752,3.752,0,0,0-.953.338,5.75,5.75,0,0,0-1.692,1.189,4.073,4.073,0,0,0-1.144,3.8Z"/>
    <path class="cls-56" d="M136.383,86.039a6.044,6.044,0,0,1-1.172-2.3,3.82,3.82,0,0,1,.539-3.08,3.438,3.438,0,0,1,1.439-1.223,4.739,4.739,0,0,1,1.783-.4,5.767,5.767,0,0,1,3.108,1,5.458,5.458,0,0,1,1.979,2.637,6.349,6.349,0,0,1,.213,2.893,8.708,8.708,0,0,1-2.242,4.53l-.191-.06a16.053,16.053,0,0,0,.861-4.485,4.405,4.405,0,0,0-1.767-3.878,4.019,4.019,0,0,0-2.042-.753,2.33,2.33,0,0,0-1.941.762,3.056,3.056,0,0,0-.679,2.054,10.2,10.2,0,0,0,.307,2.259Z"/>
    <path class="cls-56" d="M109.809,168.645a4.2,4.2,0,0,0,3.022.721,2.532,2.532,0,0,0,2.43-2.781,4.176,4.176,0,0,0-1.129-2.9l.052-.193a3.756,3.756,0,0,1,2.6,2.628,3.587,3.587,0,0,1-4.2,4.814,3.754,3.754,0,0,1-2.956-2.216Z"/>
    <path class="cls-56" d="M63.183,63.2A8.081,8.081,0,0,1,58.6,60.118a5.936,5.936,0,0,1-.782-1.3,6.7,6.7,0,0,1-.511-1.592,4.356,4.356,0,0,1,.186-2.014,3.8,3.8,0,0,1,1.366-1.887,4.638,4.638,0,0,1,1.053-.49,6.331,6.331,0,0,1,.921-.178,6.681,6.681,0,0,1,1.588,0,12.219,12.219,0,0,1,2.706.659,17.769,17.769,0,0,1,4.644,2.523l-.044.2c-1.652-.382-3.266-.861-4.916-1.18a17.064,17.064,0,0,0-2.482-.32A4.039,4.039,0,0,0,60,54.96a2.262,2.262,0,0,0-.82,2.068,6.434,6.434,0,0,0,.792,2.316A11.7,11.7,0,0,0,63.3,63.031Z"/>
  </g>
  <g id="sesame_seeds" data-name="sesame seeds">
    <path class="cls-40" d="M167.2,33.1c-2.653.21-3.751-1-3.877-2.6s.766-2.968,3.42-3.178c2.17-.172,4.157,1.616,4.809,2.273a.387.387,0,0,1,.039.5C171.047,30.845,169.366,32.924,167.2,33.1Z"/>
    <path class="cls-40" d="M155.368,17.105c2.017,1.737,1.927,3.371.882,4.585s-2.648,1.545-4.665-.192c-1.65-1.42-1.778-4.091-1.771-5.016a.387.387,0,0,1,.331-.383C151.058,15.954,153.718,15.684,155.368,17.105Z"/>
    <path class="cls-40" d="M136.157,23.057c-2.545.78-3.88-.167-4.349-1.7s.105-3.064,2.649-3.844c2.081-.639,4.409.676,5.188,1.176a.388.388,0,0,1,.148.484C139.429,20.025,138.238,22.419,136.157,23.057Z"/>
    <path class="cls-40" d="M102.826,9.428c2.366,1.22,2.658,2.831,1.924,4.254s-2.216,2.118-4.581.9c-1.935-1-2.681-3.566-2.889-4.467a.389.389,0,0,1,.232-.45C98.367,9.31,100.892,8.43,102.826,9.428Z"/>
    <path class="cls-40" d="M84.48,11.729c.57-2.6,2.051-3.3,3.615-2.955s2.618,1.6,2.048,4.2c-.466,2.126-2.754,3.509-3.572,3.941a.387.387,0,0,1-.494-.108C85.515,16.068,84.014,13.856,84.48,11.729Z"/>
    <path class="cls-40" d="M120.784,9.869c-2.581-.65-3.232-2.153-2.841-3.7S119.62,3.6,122.2,4.248c2.111.532,3.421,2.863,3.828,3.693a.388.388,0,0,1-.124.491C125.153,8.971,122.9,10.4,120.784,9.869Z"/>
  </g>
</svg>
