<svg xmlns="http://www.w3.org/2000/svg" xmlns:xlink="http://www.w3.org/1999/xlink" viewBox="0 0 110.18 102.72">
  <defs>
    <style>
      .cls-1 {
        isolation: isolate;
      }

      .cls-2 {
        fill: #f2f2f2;
      }

      .cls-3 {
        fill: #343f3c;
      }

      .cls-4 {
        fill: url(#radial-gradient);
      }

      .cls-5 {
        fill: #ff6d47;
      }

      .cls-6 {
        mix-blend-mode: luminosity;
      }

      .cls-7 {
        fill: #d8d3bc;
      }

      .cls-8 {
        fill: url(#radial-gradient-2);
      }

      .cls-9 {
        fill: url(#radial-gradient-3);
      }

      .cls-10 {
        fill: #ccc;
      }

      .cls-11 {
        fill: #e6e6e6;
        opacity: 0.45;
        mix-blend-mode: multiply;
      }
    </style>
    <radialGradient id="radial-gradient" cx="52.557" cy="25.548" r="18.709" gradientUnits="userSpaceOnUse">
      <stop offset="0" stop-color="#ffaf9c"/>
      <stop offset="0.223" stop-color="#ffab97"/>
      <stop offset="0.499" stop-color="#ff9e88"/>
      <stop offset="0.801" stop-color="#ff8a6f"/>
      <stop offset="1" stop-color="#ff795a"/>
    </radialGradient>
    <radialGradient id="radial-gradient-2" cx="66.727" cy="30.861" r="10.222" gradientUnits="userSpaceOnUse">
      <stop offset="0" stop-color="#d1e8b2"/>
      <stop offset="0.157" stop-color="#cee6ac"/>
      <stop offset="0.359" stop-color="#c4e29c"/>
      <stop offset="0.585" stop-color="#b4da82"/>
      <stop offset="0.827" stop-color="#9ecf5e"/>
      <stop offset="1" stop-color="#8cc63f"/>
    </radialGradient>
    <radialGradient id="radial-gradient-3" cx="49.232" cy="40.626" r="8.656" xlink:href="#radial-gradient-2"/>
  </defs>
  <g class="cls-1">
    <g id="Layer_5" data-name="Layer 5">
      <path class="cls-2" d="M110.18,28.86a15.627,15.627,0,0,1-1,5.48c-2.52,6.84-9.65,12.82-19.63,17.02-.42.18-.84.35-1.27.52a91.438,91.438,0,0,1-33.19,5.84,91.494,91.494,0,0,1-33.2-5.84c-.43-.17-.85-.34-1.26-.52C10.65,47.16,3.51,41.18,1,34.34a15.627,15.627,0,0,1-1-5.48C0,12.95,24.71,0,55.09,0S110.18,12.95,110.18,28.86Z"/>
    </g>
    <g id="Layer_1" data-name="Layer 1">
      <path class="cls-3" d="M108.54,21.89C104.39,13.14,92.58,5.95,77.08,2.4A99.25,99.25,0,0,0,55.09,0C24.71,0,0,12.95,0,28.86H1C1,13.5,25.26,1,55.09,1A101.483,101.483,0,0,1,71.98,2.39c16.75,2.84,29.91,9.8,34.96,18.53a15.7,15.7,0,0,1,2.24,7.94h1A15.879,15.879,0,0,0,108.54,21.89Z"/>
      <path class="cls-3" d="M110.18,28.86v45c0,15.92-24.72,28.86-55.09,28.86S0,89.78,0,73.86v-45H1c0,.12,0,.24.01.36C1.22,38,9.35,45.81,21.89,50.84c.44.18.89.35,1.34.52a91.661,91.661,0,0,0,31.86,5.36,91.661,91.661,0,0,0,31.86-5.36c.45-.17.9-.34,1.33-.52,12.71-5.1,20.9-13.06,20.9-21.98Z"/>
    </g>
    <g id="Layer_2" data-name="Layer 2">
      <path class="cls-4" d="M73.688,17.074,66.66,21.759l-.624.424L56.409,28.6l-.5.334H55.9L47.708,34.41l-.491.323L37.11,41.471c-5.745-5.712-7.162-13.364-4.127-19.823a1.527,1.527,0,0,1,.145-.312A18.677,18.677,0,0,1,38.6,14.765,23.631,23.631,0,0,1,44.941,11.3h.011c.1-.034.2-.078.3-.112a28.977,28.977,0,0,1,19.589.3c.134.045.268.1.4.157A25.2,25.2,0,0,1,73.688,17.074Z"/>
      <g id="Layer_3" data-name="Layer 3">
        <polygon class="cls-5" points="73.693 17.074 73.693 23.604 43.463 44.427 37.114 41.475 73.693 17.074"/>
      </g>
      <g class="cls-6">
        <path class="cls-7" d="M48.131,36.819c-.067,1.172-.267,2.265-.356,3.391l-.09.012c-.067-1.138.056-2.265,0-3.392a5.01,5.01,0,0,0-.468-2.1,3.6,3.6,0,0,0-.647-.982,19.173,19.173,0,0,0-5.221-4.216,32.909,32.909,0,0,1-5.511-3.916,15.432,15.432,0,0,1-2.855-3.971,1.527,1.527,0,0,1,.145-.312c.312.468.635.937.981,1.383a13.389,13.389,0,0,0,2.175,2.432A37.387,37.387,0,0,0,41.8,28.832a18.371,18.371,0,0,1,5.288,4.518,5.781,5.781,0,0,1,.625,1.06,3.032,3.032,0,0,1,.223.6A6.267,6.267,0,0,1,48.131,36.819Z"/>
      </g>
      <g class="cls-6">
        <path class="cls-7" d="M60.715,32.725l-.09.011a.426.426,0,0,0-.033-.111,1.958,1.958,0,0,0-.2-.625,4.347,4.347,0,0,0-2.075-1.841,12.348,12.348,0,0,0-1.673-.713,2.255,2.255,0,0,1-.736-.514H55.9l-.012-.011a9.13,9.13,0,0,1-.658-.647,20.157,20.157,0,0,1-3.469-6.4,28.131,28.131,0,0,0-3.224-6.515,23.36,23.36,0,0,0-3.581-4.06c.1-.034.2-.078.3-.112.447.335.87.692,1.294,1.049a22.648,22.648,0,0,1,2.521,2.755,26.42,26.42,0,0,1,3.47,6.582,20.854,20.854,0,0,0,3.168,6.269,7.952,7.952,0,0,0,.58.636l.123.123a1.283,1.283,0,0,0,.446.346c.234.122.535.211.848.379.267.134.546.279.814.446a4.684,4.684,0,0,1,2.019,2.086,2.5,2.5,0,0,1,.167.692A.883.883,0,0,1,60.715,32.725Z"/>
      </g>
      <g class="cls-6">
        <path class="cls-7" d="M72.6,23.667l-.3-.033-.636-.056c-.424-.056-.837-.123-1.249-.212-.447-.078-.9-.156-1.339-.268a7.267,7.267,0,0,1-1.026-.323,3.039,3.039,0,0,1-1.384-1.016,2.008,2.008,0,0,1-.178-.3,9.958,9.958,0,0,1-.926-2.2,11.572,11.572,0,0,1-.569-4.741c.056-.826.2-1.674.257-2.555v-.323c-.134-.056-.268-.112-.4-.157-.1.982-.357,1.964-.5,2.934a11.4,11.4,0,0,0,.424,5.087,10.572,10.572,0,0,0,1.06,2.343,2.478,2.478,0,0,0,.212.334A3.425,3.425,0,0,0,67.843,23.4c.234.067.48.134.725.179a13.89,13.89,0,0,0,1.807.234,12.215,12.215,0,0,0,1.283.034l.636-.012.323-.022a.188.188,0,0,0,.168-.123C72.785,23.589,72.629,23.511,72.6,23.667Zm.011,0,.078-.022C72.673,23.712,72.695,23.645,72.606,23.667Z"/>
      </g>
    </g>
    <g id="Layer_4" data-name="Layer 4">
      <path class="cls-8" d="M74.991,23.925c2.27,2.663,2.837,6.646,3.7,9.885.588,2.221-2.854,4.385-4.3,5.417-1.614,1.15-4.984,4.369-6.976,2.987-1.642-1.139-3.18-2.435-4.827-3.583-2.08-1.451-6-2.769-3.176-5.645,2.955-3.009,6.051-5.749,8.781-8.985,1.724-2.043,3.827-2.847,6.05-.851A8.213,8.213,0,0,1,74.991,23.925Z"/>
      <path class="cls-9" d="M41.658,44.726c1.528,2.618,4.623,4.219,7.026,5.847,1.647,1.115,4.4-1.08,5.658-1.969,1.4-.99,5-2.826,4.435-4.85-.462-1.668-1.081-3.295-1.55-4.97-.591-2.115-.55-5.7-3.707-4.21-3.3,1.556-6.43,3.3-9.856,4.612-2.163.825-3.421,2.315-2.424,4.7A6.949,6.949,0,0,0,41.658,44.726Z"/>
    </g>
    <g id="Layer_6" data-name="Layer 6">
      <g>
        <path class="cls-2" d="M89.266,19.271c.112-.233,1.634-3.317,3.576-3.487a1.93,1.93,0,0,1,1.348.287,1.969,1.969,0,0,1,.691,1.268c.39,1.949-2.179,4.434-2.377,4.621"/>
        <path class="cls-10" d="M89.221,19.249a6.233,6.233,0,0,1,1.546-3.217,3.453,3.453,0,0,1,1.809-1.069,2.686,2.686,0,0,1,2.314.519,2.564,2.564,0,0,1,.686,1.064,3.468,3.468,0,0,1,.193,1.092,3.8,3.8,0,0,1-.611,1.956,6.671,6.671,0,0,1-2.62,2.4l-.069-.073a10.066,10.066,0,0,0,1.98-2.669,3.4,3.4,0,0,0,.381-1.58,2.1,2.1,0,0,0-.6-1.445,1.773,1.773,0,0,0-1.506-.335,2.943,2.943,0,0,0-1.436.732,9.025,9.025,0,0,0-1.974,2.665Z"/>
      </g>
      <g>
        <path class="cls-2" d="M74.305,21.806c.569-.9,1.311-1.892,2.376-1.951a2.339,2.339,0,0,1,2.09,1.437,6.879,6.879,0,0,1,.486,2.627"/>
        <path class="cls-10" d="M74.263,21.779a3.294,3.294,0,0,1,1.042-2.172A2.429,2.429,0,0,1,76.66,19a2.665,2.665,0,0,1,1.514.346,3.3,3.3,0,0,1,1.018.994,3.218,3.218,0,0,1,.455,1.25,4.191,4.191,0,0,1-.34,2.325l-.1,0a8.647,8.647,0,0,0-.31-2.1A2.774,2.774,0,0,0,77.67,20.21a1.747,1.747,0,0,0-1.929.054,5.211,5.211,0,0,0-1.394,1.569Z"/>
      </g>
      <g>
        <path class="cls-2" d="M86.865,39.742a6.771,6.771,0,0,1-.136-2.835,2.587,2.587,0,0,1,1.1-1.632,2.057,2.057,0,0,1,1.692-.2,3.05,3.05,0,0,1,1.661,1.656c.355.73.521,1.547.916,2.254"/>
        <path class="cls-10" d="M86.816,39.751a4.65,4.65,0,0,1-.779-3.018,3.244,3.244,0,0,1,.722-1.678,2.757,2.757,0,0,1,3.7-.461,3.458,3.458,0,0,1,1.118,1.391,9.533,9.533,0,0,1,.558,2.979l-.087.049c-.478-.847-.637-1.823-1.143-2.621a2.341,2.341,0,0,0-2.261-1.3A2.248,2.248,0,0,0,86.8,36.916a6.691,6.691,0,0,0,.111,2.816Z"/>
      </g>
      <g>
        <path class="cls-2" d="M99.555,28.9a2.717,2.717,0,0,1,2.595-1.712.733.733,0,0,1,.559.186.771.771,0,0,1,.151.361,5.737,5.737,0,0,1-.84,4.442"/>
        <path class="cls-10" d="M99.508,28.88a2.347,2.347,0,0,1,1.341-2.171,3.14,3.14,0,0,1,1.38-.377,1.47,1.47,0,0,1,1.144.46,1.524,1.524,0,0,1,.318.591c.045.155.06.236.084.347a4.954,4.954,0,0,1-.2,2.53,3.61,3.61,0,0,1-1.515,1.943l-.082-.057a5.657,5.657,0,0,0,.814-4.232,1.067,1.067,0,0,0-.153-.48.61.61,0,0,0-.444-.161,2.866,2.866,0,0,0-1.067.173A2.518,2.518,0,0,0,99.6,28.913Z"/>
      </g>
      <g>
        <path class="cls-2" d="M78.089,5.991a5,5,0,0,1,.027-1.814A1.691,1.691,0,0,1,79.3,2.91a1.7,1.7,0,0,1,1.758,1.059,4.983,4.983,0,0,1,.3,2.175"/>
        <path class="cls-10" d="M78.039,6a2.875,2.875,0,0,1-.533-2.248,2.327,2.327,0,0,1,.7-1.238A2.086,2.086,0,0,1,79.782,2,2.413,2.413,0,0,1,81.8,3.9a3.212,3.212,0,0,1-.392,2.242h-.1a5.426,5.426,0,0,0-.243-1.965,1.8,1.8,0,0,0-1.389-1.187,1.426,1.426,0,0,0-1.427,1.029,4.409,4.409,0,0,0-.107,1.964Z"/>
      </g>
      <g>
        <path class="cls-2" d="M37.641,4.194a3.113,3.113,0,0,1,.292-2.4,2.252,2.252,0,0,1,1.808-.726,4.152,4.152,0,0,1,3.831,2.8"/>
        <path class="cls-10" d="M37.592,4.2a3.49,3.49,0,0,1-.512-1.214,2.258,2.258,0,0,1,.211-1.517A2.419,2.419,0,0,1,38.578.388a3.792,3.792,0,0,1,1.511-.2A4.084,4.084,0,0,1,42.642,1.4a3.174,3.174,0,0,1,.978,2.46l-.1.031a4.1,4.1,0,0,0-3.514-2.7,2.24,2.24,0,0,0-2.07.734,3.2,3.2,0,0,0-.249,2.268Z"/>
      </g>
      <g>
        <path class="cls-2" d="M54.285,6.419a2.836,2.836,0,0,1,.724-2.628,1.948,1.948,0,0,1,2.431.391,4.653,4.653,0,0,1,1.054,2.426"/>
        <path class="cls-10" d="M54.235,6.423a2.762,2.762,0,0,1-.369-2.329,2.112,2.112,0,0,1,.953-1.182,2.443,2.443,0,0,1,1.523-.261,2.945,2.945,0,0,1,1.293.582,2.784,2.784,0,0,1,.8,1.073A3.352,3.352,0,0,1,58.543,6.6l-.1.019a5.591,5.591,0,0,0-.682-1.9,2.256,2.256,0,0,0-1.577-1.083,1.45,1.45,0,0,0-1.61.8,3.916,3.916,0,0,0-.241,1.977Z"/>
      </g>
      <g>
        <path class="cls-2" d="M22.454,24.545c-.784-1.04-2-2.894-3.543-2.169-3.294,1.548-.143,4.822,1.842,5.692"/>
        <path class="cls-10" d="M22.414,24.575a10.392,10.392,0,0,0-2.386-1.545.9.9,0,0,0-.8.148,2.051,2.051,0,0,0-.749.657c-.256.34-.063,1.128.426,1.911a12.738,12.738,0,0,0,1.869,2.276l-.04.092a7.123,7.123,0,0,1-2.437-1.87,4.065,4.065,0,0,1-.782-1.343,1.941,1.941,0,0,1,.1-1.56,2.878,2.878,0,0,1,1.2-1.008,1.7,1.7,0,0,1,1.546-.02,6.674,6.674,0,0,1,2.138,2.2Z"/>
      </g>
      <g>
        <path class="cls-2" d="M18.11,41.692a3.043,3.043,0,0,1,2.957-2.875.692.692,0,0,1,.5.158.735.735,0,0,1,.157.394,6.83,6.83,0,0,1-.937,4.756"/>
        <path class="cls-10" d="M18.06,41.691a2.737,2.737,0,0,1,.791-2.8,3.354,3.354,0,0,1,1.416-.837,3.213,3.213,0,0,1,.868-.114,1.689,1.689,0,0,1,.646.123,1.341,1.341,0,0,1,.69.667,3.023,3.023,0,0,1,.182.913,5.218,5.218,0,0,1,.021.739,5.668,5.668,0,0,1-.257,1.44,4.522,4.522,0,0,1-1.586,2.332l-.084-.053a6.772,6.772,0,0,0,.9-2.416,6.15,6.15,0,0,0-.082-2.539c-.145-.327-.705-.242-1.085-.173a2.962,2.962,0,0,0-1.141.539,2.929,2.929,0,0,0-1.176,2.183Z"/>
      </g>
      <g>
        <path class="cls-2" d="M7.809,32.6a5.287,5.287,0,0,0-3.266-1.09.622.622,0,0,0-.466.145.623.623,0,0,0-.109.453,5.705,5.705,0,0,0,3.188,4.833"/>
        <path class="cls-10" d="M7.778,32.637A9.233,9.233,0,0,0,5.3,32.275l-.569.029a1.515,1.515,0,0,0-.234.031c-.037.01.02.039.163-.056a.479.479,0,0,0,.182-.268c0-.018.006.077.019.172a5.265,5.265,0,0,0,.086.542A7.5,7.5,0,0,0,5.7,34.849a10.541,10.541,0,0,0,1.478,2.044l-.042.091a5.813,5.813,0,0,1-3.174-4.072,5.535,5.535,0,0,1-.076-.667.782.782,0,0,1,.171-.693,1.078,1.078,0,0,1,.7-.123,5.734,5.734,0,0,1,.666.067,5.356,5.356,0,0,1,2.421,1.062Z"/>
      </g>
      <g>
        <path class="cls-2" d="M32.225,49.834a3.548,3.548,0,0,0-2.909,2.457,2.071,2.071,0,0,0,.165,1.741,2.544,2.544,0,0,0,2.651.656,8.61,8.61,0,0,0,2.614-1"/>
        <path class="cls-10" d="M32.231,49.883A4.289,4.289,0,0,0,30.4,51.7a2.075,2.075,0,0,0-.188,1.808c.114.321.878.54,1.719.5a23.312,23.312,0,0,0,2.791-.356l.05.086a8.64,8.64,0,0,1-2.695,1.042,3.973,3.973,0,0,1-1.463.037,1.829,1.829,0,0,1-1.251-.781,2.646,2.646,0,0,1,.4-2.8,3.618,3.618,0,0,1,2.457-1.448Z"/>
      </g>
      <g>
        <path class="cls-2" d="M59.9,52.042a1.624,1.624,0,0,1,2.087-2.215c1.015.427,1.322,1.708,1.36,2.808"/>
        <path class="cls-10" d="M59.853,52.064A1.665,1.665,0,0,1,59.5,49.9a2.23,2.23,0,0,1,2.346-1.048,2.308,2.308,0,0,1,1.784,1.731,2.815,2.815,0,0,1-.238,2.049l-.1,0a4.7,4.7,0,0,0-.377-1.729,1.771,1.771,0,0,0-1.257-1.074,1.569,1.569,0,0,0-1.53.544,1.612,1.612,0,0,0-.188,1.642Z"/>
      </g>
      <g>
        <path class="cls-2" d="M73.705,47.569a1.6,1.6,0,0,0,3.076-.62,3.245,3.245,0,0,0-1.315-2.137"/>
        <path class="cls-10" d="M73.751,47.55a1.721,1.721,0,0,0,1.373.291.922.922,0,0,0,.373-.208.971.971,0,0,0,.27-.312.856.856,0,0,0,.16-.349,1.253,1.253,0,0,0,.011-.512c-.064-.425-.322-.962-.506-1.612l.068-.073a5.036,5.036,0,0,1,1.143,1.336,1.724,1.724,0,0,1-.034,1.748,1.647,1.647,0,0,1-1.568.766,1.723,1.723,0,0,1-1.382-1.037Z"/>
      </g>
      <g>
        <path class="cls-2" d="M10.84,17.323a4.046,4.046,0,0,1-1.527-4.089.629.629,0,0,1,.191-.373.642.642,0,0,1,.489-.067,4.894,4.894,0,0,1,3.6,2.611"/>
        <path class="cls-10" d="M10.811,17.363a3.252,3.252,0,0,1-2.089-1.871,3.932,3.932,0,0,1-.357-1.474,3.779,3.779,0,0,1,.05-.779,2.551,2.551,0,0,1,.1-.447,1.329,1.329,0,0,1,.56-.724,1.407,1.407,0,0,1,.814-.178,2.813,2.813,0,0,1,.432.07,4.054,4.054,0,0,1,.722.214,4.469,4.469,0,0,1,1.26.768,3.673,3.673,0,0,1,1.332,2.44l-.089.045A4.833,4.833,0,0,0,11.871,13.6a4.683,4.683,0,0,0-1.126-.533,4.479,4.479,0,0,0-.6-.15.862.862,0,0,0-.552.008c-.132.074-.179.29-.215.491a3.628,3.628,0,0,0-.067.615,3.877,3.877,0,0,0,.168,1.228,3.959,3.959,0,0,0,1.394,2.024Z"/>
      </g>
      <g>
        <path class="cls-2" d="M28.271,11.112c.35.348.752.624,1.123.947a1.843,1.843,0,0,1,.707,1.173,1.382,1.382,0,0,1-.5,1.124,1.9,1.9,0,0,1-1.516.44,2.411,2.411,0,0,1-1.877-.64"/>
        <path class="cls-10" d="M28.306,11.077a6.948,6.948,0,0,1,1.464.513,2.156,2.156,0,0,1,1.179,1.6,2.134,2.134,0,0,1-.985,2,2.393,2.393,0,0,1-2,.322l.18.008a2.5,2.5,0,0,1-1.226-.393,2.1,2.1,0,0,1-.739-.934l.062-.078a3.135,3.135,0,0,0,.862.5,2.293,2.293,0,0,0,.978.1h.008l.011,0a1.813,1.813,0,0,0,1.3-.329,1.37,1.37,0,0,0,.611-1.139,1.773,1.773,0,0,0-.684-1.159l-1.094-.946Z"/>
      </g>
      <g>
        <path class="cls-2" d="M104.873,22.328a4.194,4.194,0,0,1,2.329-1.9,1.209,1.209,0,0,1,.8-.044c.537.207.611.933.537,1.5a8.488,8.488,0,0,1-1.769,4.172"/>
        <path class="cls-10" d="M104.829,22.3a3.348,3.348,0,0,1,1.581-2.323,3.05,3.05,0,0,1,.686-.349,1.886,1.886,0,0,1,1.074-.089,1.607,1.607,0,0,1,1.021.819,2.407,2.407,0,0,1,.266.966,5.172,5.172,0,0,1-.219,1.5,6.333,6.333,0,0,1-.541,1.289,5,5,0,0,1-1.887,1.976l-.079-.062a8.489,8.489,0,0,0,1.234-2.2,7.1,7.1,0,0,0,.495-2.446.932.932,0,0,0-.545-.937,1.925,1.925,0,0,0-1.167.243,4.148,4.148,0,0,0-1.832,1.661Z"/>
      </g>
      <g>
        <path class="cls-2" d="M58.665,38.279a4.339,4.339,0,0,1,1.472-2.505.79.79,0,0,1,.479-.226c.294,0,.495.29.627.552a6.933,6.933,0,0,1,.713,3.556"/>
        <path class="cls-10" d="M58.616,38.27a2.964,2.964,0,0,1,.3-2.244,3.731,3.731,0,0,1,.735-.957,1.454,1.454,0,0,1,1.027-.4,1.482,1.482,0,0,1,1.075.562,3.894,3.894,0,0,1,.548,1.155,4.745,4.745,0,0,1,.191,1.112,3.725,3.725,0,0,1-.485,2.16l-.1-.007a6.892,6.892,0,0,0-.182-1.979,5.733,5.733,0,0,0-.748-1.812.462.462,0,0,0-.742-.054,4.264,4.264,0,0,0-1.521,2.481Z"/>
      </g>
    </g>
    <g id="Layer_7" data-name="Layer 7">
      <path class="cls-11" d="M108.54,21.89c-.52-.32-1.05-.65-1.6-.97C92.76,12.54,70.16,3.56,43.18,8.61A89.9,89.9,0,0,0,1.01,29.22c-.34.29-.68.59-1.01.88V28.86C0,12.95,24.71,0,55.09,0A99.25,99.25,0,0,1,77.08,2.4C92.58,5.95,104.39,13.14,108.54,21.89Z"/>
    </g>
  </g>
</svg>
