<svg xmlns="http://www.w3.org/2000/svg" viewBox="0 0 122.74 240.32">
  <defs>
    <style>
      .cls-1 {
        isolation: isolate;
      }

      .cls-2 {
        fill: #e7ecf5;
      }

      .cls-3 {
        fill: #c2d0e6;
      }

      .cls-4 {
        fill: #845138;
        mix-blend-mode: multiply;
      }

      .cls-5 {
        fill: #190b04;
      }

      .cls-6 {
        fill: #ae7418;
      }

      .cls-7 {
        fill: none;
        stroke: #ae7418;
        stroke-miterlimit: 10;
        stroke-width: 3px;
      }

      .cls-13, .cls-8 {
        fill: #af1d1e;
      }

      .cls-9 {
        fill: #831616;
      }

      .cls-10 {
        fill: #63080d;
      }

      .cls-11 {
        fill: #310304;
      }

      .cls-12 {
        fill: #7385a1;
      }

      .cls-12, .cls-13 {
        mix-blend-mode: color-burn;
      }

      .cls-13 {
        opacity: 0.86;
      }

      .cls-14, .cls-15, .cls-16 {
        fill: #ebeff7;
      }

      .cls-14 {
        mix-blend-mode: overlay;
      }

      .cls-15, .cls-16 {
        mix-blend-mode: soft-light;
      }

      .cls-16 {
        opacity: 0.53;
      }
    </style>
  </defs>
  <g class="cls-1">
    <g id="glass">
      <g>
        <path class="cls-2" d="M28.64,238.82c-11.9,0-21.157-9.124-24.76-24.406C.351,199.391.74,183.96,5.1,165.849a322.718,322.718,0,0,1,15.23-46c2.722-6.656,4.2-9.989,5.4-12.667,1.233-2.773,2.208-4.964,4-9.605,2.7-6.99,7.731-20,7.25-35.923A74.264,74.264,0,0,0,33.863,42.67c-.227-.758-.472-1.525-.728-2.3l-.117-.357.391-2.242H89.33l.393,2.244-.12.36a74.339,74.339,0,0,0-3.844,21.281c-.481,15.923,4.548,28.934,7.25,35.924,1.8,4.639,2.769,6.83,4,9.6,1.192,2.679,2.674,6.012,5.4,12.671a322.616,322.616,0,0,1,15.229,46c4.362,18.11,4.75,33.542,1.222,48.564-3.094,13.135-10.755,22.106-20.494,24a22.064,22.064,0,0,1-4.266.407Z"/>
        <path class="cls-3" d="M88.07,39.27l.11.63a75.625,75.625,0,0,0-3.92,21.71c-.48,15.88,4.3,28.62,7.35,36.51,3.54,9.15,3.86,8.73,9.41,22.3a313.912,313.912,0,0,1,15.16,45.78c3.88,16.11,5.06,31.52,1.22,47.87-2.44,10.36-8.62,20.79-19.32,22.87a20.438,20.438,0,0,1-3.98.38H28.64c-13.17,0-20.57-11.67-23.3-23.25C1.5,197.72,2.68,182.31,6.56,166.2a313.912,313.912,0,0,1,15.16-45.78c5.55-13.57,5.87-13.15,9.41-22.3,3.05-7.89,7.83-20.63,7.35-36.51A75.429,75.429,0,0,0,35.3,42.24c-.23-.77-.48-1.55-.74-2.34l.11-.63h53.4m2.521-3H32.148l-.433,2.484-.11.63-.129.74.234.714c.3.895.522,1.613.716,2.261a72.731,72.731,0,0,1,3.055,18.6c.473,15.62-4.486,28.446-7.149,35.336-1.782,4.605-2.749,6.781-3.974,9.535-1.2,2.688-2.683,6.032-5.415,12.711A324.194,324.194,0,0,0,3.644,165.5c-4.419,18.349-4.808,34-1.225,49.26,1.133,4.8,3.51,11.7,8.4,17.262a23.244,23.244,0,0,0,17.818,8.3H94.1a23.527,23.527,0,0,0,4.564-.437c10.324-2.007,18.424-11.4,21.656-25.125,3.584-15.261,3.2-30.913-1.223-49.26a324.155,324.155,0,0,0-15.3-46.214c-2.731-6.679-4.218-10.023-5.414-12.711-1.225-2.754-2.192-4.93-3.974-9.535-2.663-6.89-7.622-19.716-7.149-35.337a72.882,72.882,0,0,1,3.767-20.853l.24-.719-.131-.745-.11-.63-.434-2.484Z"/>
      </g>
    </g>
    <g id="sauce">
      <path class="cls-4" d="M31.46,104.46c0-1.515,59.82-1.515,59.82,0a66.811,66.811,0,0,1-59.82,0"/>
      <path id="sauce-2" data-name="sauce" class="cls-5" d="M114.92,212.72c-2.61,11.07-9.68,22.22-22.27,22.22H30.09c-12.59,0-19.66-11.15-22.27-22.22-3.67-15.63-2.55-30.35,1.16-45.75a299.734,299.734,0,0,1,14.49-43.76c4.73-11.55,5.48-12.5,7.99-18.75a218.694,218.694,0,0,0,59.82,0c2.51,6.25,3.26,7.2,7.99,18.75a299.734,299.734,0,0,1,14.49,43.76C117.47,182.37,118.59,197.09,114.92,212.72Z"/>
    </g>
    <g id="soy_sauce_text" data-name="soy sauce text">
      <g>
        <path class="cls-6" d="M40.931,194.056a.279.279,0,0,1,.25-.26c.08,0,.1.029.2.109a1.766,1.766,0,0,0,1.26.47c.67,0,1.14-.31,1.14-.879,0-.391-.21-.64-.85-.83l-.67-.2c-.779-.23-1.23-.579-1.23-1.24,0-.819.67-1.268,1.61-1.268a2.457,2.457,0,0,1,1.269.329.22.22,0,0,1,.13.19.27.27,0,0,1-.23.26.282.282,0,0,1-.15-.04,1.99,1.99,0,0,0-1.019-.28c-.68,0-1.11.29-1.11.809,0,.411.291.59.83.76l.66.21c.9.29,1.259.67,1.259,1.3,0,.869-.72,1.339-1.639,1.339a2.332,2.332,0,0,1-1.61-.6C40.961,194.165,40.931,194.125,40.931,194.056Z"/>
        <path class="cls-6" d="M47.43,189.958c1.66,0,1.919,1.058,1.919,2.438s-.259,2.439-1.919,2.439-1.919-1.06-1.919-2.439S45.771,189.958,47.43,189.958Zm0,4.417c1.31,0,1.419-.819,1.419-1.979s-.109-1.979-1.419-1.979-1.419.82-1.419,1.979S46.121,194.375,47.43,194.375Z"/>
        <path class="cls-6" d="M51.871,195.734c-.3.76-.76,1.18-1.329,1.18-.231,0-.281-.11-.281-.231s.061-.2.22-.229c.42-.07.651-.14.95-.88l.31-.76a.483.483,0,0,0,.04-.159.345.345,0,0,0-.03-.13l-1.619-4.278a.23.23,0,0,1-.02-.08c0-.13.14-.209.27-.209a.184.184,0,0,1,.189.13l1.38,3.668c.04.1.04.2.1.2s.07-.13.1-.2l1.439-3.668a.186.186,0,0,1,.19-.13c.13,0,.27.079.27.209a.23.23,0,0,1-.02.08Z"/>
        <path class="cls-6" d="M57.091,194.056a.278.278,0,0,1,.25-.26c.08,0,.1.029.2.109a1.764,1.764,0,0,0,1.26.47c.669,0,1.139-.31,1.139-.879,0-.391-.21-.64-.849-.83l-.67-.2c-.78-.23-1.23-.579-1.23-1.24,0-.819.67-1.268,1.61-1.268a2.457,2.457,0,0,1,1.269.329.22.22,0,0,1,.13.19.27.27,0,0,1-.231.26.281.281,0,0,1-.149-.04,1.992,1.992,0,0,0-1.019-.28c-.68,0-1.11.29-1.11.809,0,.411.29.59.829.76l.66.21c.9.29,1.259.67,1.259,1.3,0,.869-.72,1.339-1.638,1.339a2.332,2.332,0,0,1-1.61-.6C57.121,194.165,57.091,194.125,57.091,194.056Z"/>
        <path class="cls-6" d="M65.568,194.4c.11,0,.17.079.17.21,0,.17-.09.23-.409.23a.6.6,0,0,1-.63-.529c-.01-.061-.02-.071-.04-.071s-.08.06-.13.1a1.981,1.981,0,0,1-1.449.5c-1.159,0-1.61-.69-1.61-1.35,0-1.169.93-1.409,1.91-1.409h1.149c.08,0,.09-.04.09-.09v-.34c0-.849-.4-1.229-1.279-1.229a2.218,2.218,0,0,0-1.28.42.192.192,0,0,1-.1.03c-.12,0-.231-.16-.231-.28a.242.242,0,0,1,.12-.2,2.518,2.518,0,0,1,1.51-.43c1.439,0,1.778.769,1.778,1.919V194.1c0,.21.09.3.241.3Zm-.939-1.769c0-.06-.02-.09-.09-.09H63.45c-.78,0-1.48.12-1.48.92,0,.549.38.919,1.24.919a1.241,1.241,0,0,0,1.419-1.27Z"/>
        <path class="cls-6" d="M69.959,193.036v-2.858a.222.222,0,0,1,.25-.22c.13,0,.25.059.25.22v4.437c0,.16-.12.22-.25.22-.1,0-.25-.05-.25-.2v-.23c0-.04-.01-.07-.05-.07-.02,0-.07.05-.1.07a1.892,1.892,0,0,1-1.259.43c-1.36,0-1.819-.779-1.819-1.879v-2.778a.222.222,0,0,1,.249-.22c.13,0,.25.059.25.22v2.778c0,1,.42,1.419,1.32,1.419C69.789,194.375,69.959,193.615,69.959,193.036Z"/>
        <path class="cls-6" d="M73.86,190.417c-1.309,0-1.419.82-1.419,1.979s.11,1.979,1.439,1.979a2.245,2.245,0,0,0,1.009-.239c.1-.051.191-.131.281-.131a.268.268,0,0,1,.239.261.2.2,0,0,1-.069.149,2.482,2.482,0,0,1-1.48.42c-1.659,0-1.919-1.06-1.919-2.439s.26-2.438,1.879-2.438a1.974,1.974,0,0,1,1.419.449c.061.07.061.09.061.13a.309.309,0,0,1-.26.26.28.28,0,0,1-.17-.09A1.615,1.615,0,0,0,73.86,190.417Z"/>
        <path class="cls-6" d="M79.768,193.9a.241.241,0,0,1,.111.46,2.926,2.926,0,0,1-1.579.48c-1.65,0-1.99-.89-1.99-2.439,0-1.369.27-2.438,1.919-2.438,1.36,0,1.879.749,1.879,2.089,0,.3-.059.589-.47.589H76.89c-.06,0-.08.03-.08.07.03,1.09.26,1.669,1.559,1.669a2.267,2.267,0,0,0,1.12-.33C79.608,193.975,79.7,193.9,79.768,193.9Zm-1.539-3.488c-1.129,0-1.419.64-1.419,1.679,0,.051.01.091.08.091h2.678c.04,0,.07-.011.07-.061C79.638,191.127,79.419,190.407,78.229,190.407Z"/>
      </g>
    </g>
    <g id="yum_text" data-name="yum text">
      <g>
        <path class="cls-6" d="M32.145,183.141a4.16,4.16,0,0,1-2.84-1.016,3.232,3.232,0,0,1-1.16-2.536,3.5,3.5,0,0,1,1.1-2.512,6.643,6.643,0,0,1,3.136-1.648.162.162,0,0,0,.128-.176v-1.712c0-.085-.048-.128-.144-.128H29.793a.929.929,0,0,1-.912-.912v-.24a.929.929,0,0,1,.912-.912h2.576c.1,0,.144-.042.144-.128v-.832a.845.845,0,0,1,.272-.632.887.887,0,0,1,.64-.264h.64a.9.9,0,0,1,.9.9v.832c0,.086.048.128.144.128h2.24a.848.848,0,0,1,.632.272.891.891,0,0,1,.264.64v.24a.889.889,0,0,1-.264.64.852.852,0,0,1-.632.272H35.1c-.1,0-.144.043-.144.128v1.376c0,.085.048.128.144.128.064,0,.16,0,.288-.008s.224-.008.288-.008a6.045,6.045,0,0,1,3.816,1.136,3.4,3.4,0,0,1,1.464,2.767q0,3.458-3.728,4.256a.833.833,0,0,1-.68-.135,1,1,0,0,1-.408-.6l-.112-.433a.835.835,0,0,1,.112-.655.9.9,0,0,1,.544-.4q1.76-.448,1.76-1.905a1.444,1.444,0,0,0-.768-1.208,3.587,3.587,0,0,0-2-.5c-.075,0-.176,0-.3.007s-.224.009-.288.009c-.085,0-.128.048-.128.144v2.8a3.136,3.136,0,0,1-.608,2.233A3.141,3.141,0,0,1,32.145,183.141Zm.24-5.344q-1.792.607-1.792,1.792A1.279,1.279,0,0,0,31,180.5a1.215,1.215,0,0,0,.872.416.677.677,0,0,0,.512-.145,1.017,1.017,0,0,0,.128-.624v-2.256C32.513,177.807,32.47,177.775,32.385,177.8Zm8.48-6.321q1.024,1.538,1.44,2.225a.863.863,0,0,1,.1.688.83.83,0,0,1-.416.543l-.208.113a.94.94,0,0,1-.7.08.889.889,0,0,1-.552-.416q-.624-1.008-1.36-2.128a.854.854,0,0,1-.136-.672.875.875,0,0,1,.376-.576l.192-.112a.844.844,0,0,1,.68-.128A.911.911,0,0,1,40.865,171.476Z"/>
        <path class="cls-6" d="M49.666,183.268q-1.425,0-2.633-1.872a8.263,8.263,0,0,1-1.208-4.575,19.762,19.762,0,0,1,.592-4.816.977.977,0,0,1,.424-.6,1.055,1.055,0,0,1,.728-.168l.7.08a.715.715,0,0,1,.552.327.794.794,0,0,1,.12.649,20.12,20.12,0,0,0-.544,4.528,6.9,6.9,0,0,0,.488,2.743q.489,1.13.968,1.129.3,0,.809-.633a9.037,9.037,0,0,0,1.048-1.815.953.953,0,0,1,1.2-.513l.512.193a.876.876,0,0,1,.528,1.168,8.8,8.8,0,0,1-2.009,3.08A3.428,3.428,0,0,1,49.666,183.268Zm6.8-2.639a24.832,24.832,0,0,0-1.617-8.113.8.8,0,0,1,.033-.664.773.773,0,0,1,.511-.423l.624-.176a1,1,0,0,1,.729.055,1.037,1.037,0,0,1,.519.521,24.5,24.5,0,0,1,1.792,8.815.8.8,0,0,1-.256.633.889.889,0,0,1-.64.264h-.768a.87.87,0,0,1-.639-.273A.927.927,0,0,1,56.466,180.629Z"/>
        <path class="cls-6" d="M69.185,183.349a6.362,6.362,0,0,1-2.952-.56,3.3,3.3,0,0,1-1.527-1.912,11.856,11.856,0,0,1-.481-3.817q0-3.248.16-6.191a.965.965,0,0,1,.3-.641.87.87,0,0,1,.656-.239l.848.016a.852.852,0,0,1,.616.288.867.867,0,0,1,.233.639q-.177,3.137-.177,6.128a6.237,6.237,0,0,0,.505,3.081,2.017,2.017,0,0,0,1.815.76,3.56,3.56,0,0,0,2.3-.848,7.672,7.672,0,0,0,1.92-2.736.936.936,0,0,1,.5-.5.919.919,0,0,1,.695-.016l.624.24a.855.855,0,0,1,.521.471.825.825,0,0,1-.008.7Q73.536,183.349,69.185,183.349Z"/>
        <path class="cls-6" d="M84.064,183.268q-1.423,0-2.632-1.872a8.263,8.263,0,0,1-1.208-4.575,19.811,19.811,0,0,1,.592-4.816.982.982,0,0,1,.425-.6,1.052,1.052,0,0,1,.727-.168l.7.08a.714.714,0,0,1,.551.327.794.794,0,0,1,.12.649,20.117,20.117,0,0,0-.543,4.528,6.884,6.884,0,0,0,.488,2.743q.487,1.13.968,1.129.3,0,.807-.633a8.986,8.986,0,0,0,1.049-1.815.934.934,0,0,1,.5-.5.924.924,0,0,1,.695-.017l.513.193a.874.874,0,0,1,.527,1.168,8.767,8.767,0,0,1-2.008,3.08A3.428,3.428,0,0,1,84.064,183.268Zm6.8-2.639a24.883,24.883,0,0,0-1.616-8.113.8.8,0,0,1,.032-.664.77.77,0,0,1,.512-.423l.624-.176a.993.993,0,0,1,.727.055,1.045,1.045,0,0,1,.521.521,24.539,24.539,0,0,1,1.792,8.815.8.8,0,0,1-.256.633.893.893,0,0,1-.641.264h-.767a.873.873,0,0,1-.64-.273A.927.927,0,0,1,90.865,180.629Z"/>
      </g>
    </g>
    <g id="logo">
      <polygon class="cls-7" points="49.72 135.704 49.72 149.156 61.37 155.883 73.02 149.156 73.02 135.704 61.37 128.978 49.72 135.704"/>
      <path class="cls-6" d="M55.094,140.676c-.086.038-.149.009-.187-.087s-.009-.148.086-.187q1.323-.489,2.531-1.006a.168.168,0,0,0,.115-.173v-3.092a.144.144,0,0,1,.288,0v5.608a.144.144,0,1,1-.288,0v-1.955c0-.087-.038-.11-.115-.072Q56.518,140.157,55.094,140.676Zm11.461,7.391a.064.064,0,0,0-.072-.072H56.273a.063.063,0,0,0-.071.072v.359a.145.145,0,0,1-.289,0v-4.069a.835.835,0,0,1,.82-.82h2.934c.086,0,.13-.038.13-.115v-.762a.114.114,0,0,0-.13-.129H55.051a.144.144,0,1,1,0-.288H67.705a.144.144,0,0,1,0,.288H62.73a.113.113,0,0,0-.129.129v.762c0,.077.042.115.129.115h3.293a.835.835,0,0,1,.82.82v4.069a.144.144,0,1,1-.288,0Zm-9.908-9.39a19.327,19.327,0,0,0-1.395-1.841c-.057-.058-.053-.125.015-.2.067-.058.138-.049.215.028a20.363,20.363,0,0,1,1.41,1.855.146.146,0,0,1-.245.159Zm-.445,5.277v2.258a.114.114,0,0,0,.129.129H66.44c.076,0,.115-.043.115-.129v-.6c0-.086-.039-.129-.115-.129h-2.4a3.876,3.876,0,0,1-1.4-.158q-.324-.157-.324-.777v-.589a.114.114,0,0,0-.13-.129h-1.97a.114.114,0,0,0-.129.129,1.617,1.617,0,0,1-.791,1.273,6.893,6.893,0,0,1-2.358.8c-.087.019-.139-.019-.158-.115a.129.129,0,0,1,.115-.173,6.238,6.238,0,0,0,2.243-.74,1.354,1.354,0,0,0,.662-1.057c0-.077-.044-.115-.13-.115H56.331A.114.114,0,0,0,56.2,143.954Zm.129,3.753H66.44c.076,0,.115-.043.115-.129v-.82c0-.086-.039-.13-.115-.13H56.331a.114.114,0,0,0-.129.13v.82A.114.114,0,0,0,56.331,147.707Zm2.459-8.269a.144.144,0,1,1,0-.287h7.233a.089.089,0,0,0,.1-.1V138.5a.144.144,0,0,1,.288,0v.547a.089.089,0,0,0,.1.1h1.193a.144.144,0,1,1,0,.287H66.541a.115.115,0,0,0-.13.13v1.38c0,.345-.067.564-.2.655a1.809,1.809,0,0,1-.877.136q-.474,0-1.956-.072c-.086,0-.129-.047-.129-.144a.127.127,0,0,1,.144-.143q1.465.072,1.941.072a1.759,1.759,0,0,0,.69-.072c.067-.048.1-.192.1-.432v-1.38a.115.115,0,0,0-.129-.13Zm.143-2.587a.145.145,0,0,1,0-.289,75.788,75.788,0,0,0,8.183-.488c.086-.019.139.024.158.129.019.087-.024.139-.13.158A76.272,76.272,0,0,1,58.933,136.851Zm.188.416a10.678,10.678,0,0,1,1.15,1.324c.057.076.043.143-.043.2a.133.133,0,0,1-.2-.044,8.5,8.5,0,0,0-1.094-1.265.126.126,0,0,1,0-.2C59,137.215,59.063,137.21,59.121,137.267Zm.963,5.393v.762c0,.077.043.115.129.115h1.97c.087,0,.13-.038.13-.115v-.762a.114.114,0,0,0-.13-.129h-1.97A.114.114,0,0,0,60.084,142.66Zm2.531-1.4a15.18,15.18,0,0,0-2.186-1.28c-.077-.029-.1-.091-.057-.187a.125.125,0,0,1,.186-.072,13.9,13.9,0,0,1,2.215,1.309.133.133,0,0,1,.043.2C62.768,141.313,62.7,141.322,62.615,141.265Zm-.518-4.2a.126.126,0,0,1,.2,0,9.242,9.242,0,0,1,1.136,1.4.119.119,0,0,1-.042.187.131.131,0,0,1-.2-.057,8.525,8.525,0,0,0-1.093-1.324A.126.126,0,0,1,62.1,137.066Zm.5,6.888v.589a1.814,1.814,0,0,0,.021.339.343.343,0,0,0,.165.186.84.84,0,0,0,.417.108q.273.015.834.015h2.4c.076,0,.115-.044.115-.13v-1.107c0-.086-.039-.129-.115-.129H62.73A.114.114,0,0,0,62.6,143.954Zm4.472-7.247a.125.125,0,0,1,.2,0,.122.122,0,0,1,.014.2,9.642,9.642,0,0,1-2.128,1.8c-.077.047-.139.028-.187-.058a.12.12,0,0,1,.044-.187A9.357,9.357,0,0,0,67.073,136.707Z"/>
    </g>
    <g id="cap">
      <path class="cls-8" d="M100.24,3.21c0,.03-.01.06-.01.09L93.75,36.64a3.269,3.269,0,0,1-1.9,2.37,3.231,3.231,0,0,1-1.29.26H32.18a3.238,3.238,0,0,1-3.19-2.63L22.51,3.3c0-.03-.01-.06-.01-.09a.2.2,0,0,1,.01-.08c.21-.68,2.97-1.31,7.53-1.82H92.7c4.56.51,7.32,1.14,7.53,1.82A.2.2,0,0,1,100.24,3.21Z"/>
      <path class="cls-9" d="M100.24,3.21c0,.03-.01.06-.01.09-.33.94-5.51,1.78-13.55,2.35-6.79.49-15.64.78-25.31.78-3.6,0-7.09-.04-10.4-.12-4.68-.1-9.01-.28-12.8-.52C28.94,5.22,22.86,4.32,22.51,3.3c0-.03-.01-.06-.01-.09a.2.2,0,0,1,.01-.08c.21-.68,2.97-1.31,7.53-1.82A312.031,312.031,0,0,1,61.37,0C69.51,0,77.06.21,83.3.56c3.62.21,6.81.46,9.4.75,4.56.51,7.32,1.14,7.53,1.82A.2.2,0,0,1,100.24,3.21Z"/>
      <g id="spout">
        <path class="cls-9" d="M44.725,12.633a6.584,6.584,0,0,0,3.109-1.354c.323-.263,1.013-.883,2.677-4.065.565-1.081,1-2,1.3-2.652H39.809L35.864,7.518Z"/>
        <polygon class="cls-10" points="35.864 7.518 38.818 12.633 44.725 12.633 47.678 7.518 35.864 7.518"/>
        <polygon class="cls-11" points="37.983 8.435 39.877 11.716 43.665 11.716 45.559 8.435 37.983 8.435"/>
      </g>
    </g>
    <g id="shadows">
      <path class="cls-12" d="M117.4,214.07c-2.44,10.36-8.62,20.79-19.32,22.87a74.473,74.473,0,0,0,12.4-28.54c5.94-29.18-3.18-62.17-12.75-89.63-4.74-13.58-12.46-26.69-14.7-41-2.24-14.24.34-27.68-16.57-32.57-10.09-2.92-21.02-1.17-31.16-2.96-.23-.77-.48-1.55-.74-2.34l.11-.63h53.4l.11.63a75.625,75.625,0,0,0-3.92,21.71c-.48,15.88,4.3,28.62,7.35,36.51,3.54,9.15,3.86,8.73,9.41,22.3a313.912,313.912,0,0,1,15.16,45.78C120.06,182.31,121.24,197.72,117.4,214.07Z"/>
      <path class="cls-13" d="M100.24,3.21c0,.03-.01.06-.01.09L93.75,36.64a3.269,3.269,0,0,1-1.9,2.37c-1.26-9.91-1.73-19.97-3.9-29.7a17.433,17.433,0,0,0-1.27-3.66,22.616,22.616,0,0,0-2.76-4.34c-.2-.26-.41-.51-.62-.75,3.62.21,6.81.46,9.4.75,4.56.51,7.32,1.14,7.53,1.82A.2.2,0,0,1,100.24,3.21Z"/>
    </g>
    <g id="highlights">
      <path class="cls-14" d="M42.326,65.923c.012.44.028.86.027,1.24-.012,7.634-.4,16.859-3.339,23.988-2.508,6.09-7.883,18.569-6.5,20.378,2.482,3.25,7.051-.522,8.105-3.071a169.839,169.839,0,0,0,7.97-22.785,85.505,85.505,0,0,0,2.232-12.3c.348-3.373,1.26-8.113-1.428-10.815-1.111-1.118-4.132-2.514-5.623-1.483C42.308,62.09,42.281,64.159,42.326,65.923Z"/>
      <path class="cls-15" d="M30.916,115.579a3.009,3.009,0,0,0-1.18.852,21.159,21.159,0,0,0-1.829,3.078,6.956,6.956,0,0,0-1.35,3.3c-.039,1.982,2.416,2.239,3.9,2.163a7.673,7.673,0,0,0,2.528-.479c1.2-.509,1.452-1.833,1.8-2.969a5.784,5.784,0,0,0-.006-4.2A3.115,3.115,0,0,0,30.916,115.579Z"/>
      <g id="Layer_11" data-name="Layer 11">
        <path class="cls-16" d="M42.9,17.905c-.089.008-.172.014-.245.016-1.069.025-3.523-.377-3.719,1.2-.221,1.767,2.429,9.5,1.987,11.7-.43,2.149,4.536,3.707,4.862,1.965a23.252,23.252,0,0,0-.071-5.3,21.938,21.938,0,0,1,.329-4.848c.236-1.307.841-2.8.374-4.122C46.015,17.369,43.954,17.811,42.9,17.905Z"/>
      </g>
    </g>
  </g>
</svg>
