<svg xmlns="http://www.w3.org/2000/svg" xmlns:xlink="http://www.w3.org/1999/xlink" viewBox="0 0 285.103 172.774">
  <defs>
    <style>
      .cls-1 {
        fill: none;
      }

      .cls-2 {
        fill: #72746c;
      }

      .cls-3 {
        fill: #4f5147;
      }

      .cls-4 {
        isolation: isolate;
      }

      .cls-5 {
        fill: #052021;
      }

      .cls-6, .cls-7 {
        opacity: 0.23;
        mix-blend-mode: screen;
      }

      .cls-6 {
        fill: url(#New_Pattern);
      }

      .cls-7 {
        fill: url(#New_Pattern-3);
      }

      .cls-8 {
        fill: #f5f7d5;
      }

      .cls-9 {
        fill: #76003d;
      }

      .cls-10 {
        fill: #722750;
        mix-blend-mode: hard-light;
      }

      .cls-11 {
        fill: #d1e87f;
      }

      .cls-12 {
        fill: #96ae5f;
      }

      .cls-13 {
        fill: #ff8b16;
      }

      .cls-14 {
        fill: #ffd916;
      }

      .cls-15 {
        fill: #ddbc33;
      }

      .cls-16 {
        fill: #ba2553;
      }

      .cls-17 {
        fill: #f9eaef;
      }

      .cls-18 {
        fill: #c63a28;
      }

      .cls-19 {
        fill: #d16153;
      }

      .cls-20 {
        fill: url(#linear-gradient);
      }
    </style>
    <pattern id="New_Pattern" data-name="New Pattern" width="47.326" height="48.156" patternUnits="userSpaceOnUse" viewBox="0 0 47.326 48.156">
      <rect class="cls-1" width="47.326" height="48.156"/>
      <g>
        <path class="cls-2" d="M10.283,48.4c-.02.035-.039.066-.056.09a3.326,3.326,0,0,1-.732.621c-.272.222-.525.488-.788.724-.2.175-.549.638-.8.69-.1.02-.32-.081-.433-.091a2.094,2.094,0,0,0-.559.021c-.489.083-.888-.444-1.243-.732-.271-.221-1.525-.99-1.445-1.332a.669.669,0,0,0-.083-.492c-.177-.3-.27-.3-.08-.659.239-.448.5-.885.758-1.326a6.456,6.456,0,0,0,.476-.829c.139-.37.157-.8.663-.811l2.591.08c.373.012.985-.364,1.324-.1.2.159.19.576.23.808.058.341.08.687.143,1.027A3.263,3.263,0,0,1,10.283,48.4Z"/>
        <path class="cls-3" d="M7.832,52.193c-.02.035-.039.066-.055.09a3.354,3.354,0,0,1-.733.621c-.272.222-.525.488-.788.724-.2.175-.549.638-.8.69-.1.02-.321-.081-.434-.091a2.094,2.094,0,0,0-.559.021c-.489.083-.888-.444-1.243-.732-.271-.221-1.525-.99-1.445-1.332a.671.671,0,0,0-.083-.493c-.177-.3-.27-.3-.08-.658.239-.448.505-.885.758-1.326a6.456,6.456,0,0,0,.476-.829c.139-.37.157-.8.663-.811l2.592.08c.372.012.984-.364,1.323-.1.2.159.19.576.23.808.058.34.08.687.143,1.027A3.263,3.263,0,0,1,7.832,52.193Z"/>
      </g>
      <g>
        <path class="cls-2" d="M39.653,43.306c-.017.031-.034.057-.048.078a2.925,2.925,0,0,1-.638.541c-.237.194-.457.425-.686.631-.17.152-.479.555-.7.6-.088.018-.279-.07-.378-.079a1.892,1.892,0,0,0-.487.018c-.425.073-.773-.386-1.081-.637-.236-.192-1.329-.862-1.259-1.16a.582.582,0,0,0-.072-.429c-.154-.261-.235-.265-.07-.573.208-.391.44-.771.66-1.155a5.571,5.571,0,0,0,.414-.721c.122-.322.138-.7.578-.707l2.257.07c.324.01.857-.317,1.152-.086.176.138.165.5.2.7.051.3.07.6.125.894A2.843,2.843,0,0,1,39.653,43.306Z"/>
        <path class="cls-2" d="M43.66,37.366c-.025-.026-.047-.05-.063-.07a2.971,2.971,0,0,1-.334-.779c-.117-.287-.276-.57-.407-.853-.1-.21-.4-.628-.374-.855.008-.09.15-.249.189-.342a1.89,1.89,0,0,0,.127-.477c.056-.435.6-.635.939-.859.256-.172,1.23-1.032,1.5-.875a.6.6,0,0,0,.437.057c.3-.071.327-.148.577.1.316.318.616.656.923.983a5.523,5.523,0,0,0,.576.616c.276.214.636.341.513.77q-.37,1.083-.739,2.166c-.106.312.053.925-.259,1.143-.186.129-.535.011-.741-.015-.3-.039-.6-.111-.9-.146C44.911,37.852,44.188,37.914,43.66,37.366Z"/>
        <path class="cls-2" d="M41,45.764c.029-.028.056-.053.079-.071a3.35,3.35,0,0,1,.879-.386c.324-.136.642-.318.962-.47.237-.112.708-.454.964-.432.1.009.285.168.39.211a2.161,2.161,0,0,0,.542.139c.492.059.725.678.982,1.056.2.288,1.181,1.383,1.006,1.688a.67.67,0,0,0-.061.5c.084.338.172.369-.111.654-.357.362-.736.7-1.1,1.055a6.356,6.356,0,0,0-.693.658c-.239.315-.379.724-.866.589l-2.462-.816c-.354-.117-1.047.069-1.3-.282-.149-.21-.018-.606.009-.84.041-.343.119-.681.156-1.025C40.463,47.186,40.385,46.368,41,45.764Z"/>
        <path class="cls-3" d="M48.289,39.815c-.031-.032-.057-.062-.077-.087a3.681,3.681,0,0,1-.414-.967c-.146-.356-.343-.707-.506-1.058-.12-.261-.491-.78-.464-1.061.01-.112.187-.31.234-.425a2.334,2.334,0,0,0,.158-.592c.069-.539.75-.788,1.166-1.066.318-.214,1.526-1.281,1.859-1.086a.734.734,0,0,0,.543.071c.371-.089.405-.185.715.127.393.4.764.814,1.146,1.22a7.009,7.009,0,0,0,.714.765c.343.265.79.423.637.955q-.459,1.346-.917,2.689c-.131.387.066,1.148-.321,1.418-.232.161-.664.014-.92-.019-.376-.047-.746-.136-1.121-.18C49.842,40.418,48.946,40.5,48.289,39.815Z"/>
        <path class="cls-3" d="M41.82,29.123c-.02.035-.039.066-.055.09a3.354,3.354,0,0,1-.733.621c-.272.222-.525.488-.788.724-.2.175-.549.638-.8.69-.1.02-.321-.081-.434-.091a2.094,2.094,0,0,0-.559.021c-.489.083-.888-.444-1.243-.732-.271-.221-1.525-.99-1.445-1.332a.668.668,0,0,0-.083-.492c-.177-.3-.269-.3-.08-.659.239-.448.505-.885.758-1.326a6.34,6.34,0,0,0,.476-.829c.139-.37.158-.8.663-.811l2.592.08c.372.012.984-.364,1.323-.1.2.159.19.576.23.808.059.341.08.687.143,1.027A3.263,3.263,0,0,1,41.82,29.123Z"/>
      </g>
      <g>
        <path class="cls-2" d="M20,49.405c-.025-.026-.046-.05-.062-.07a2.906,2.906,0,0,1-.334-.779c-.118-.287-.276-.57-.408-.853-.1-.21-.4-.628-.374-.855.008-.09.151-.249.189-.342a1.879,1.879,0,0,0,.127-.477c.056-.435.6-.635.939-.859.256-.172,1.23-1.032,1.5-.875a.6.6,0,0,0,.437.057c.3-.071.327-.148.577.1.316.318.616.656.923.983a5.523,5.523,0,0,0,.576.616c.276.214.636.341.513.77l-.739,2.166c-.106.312.053.925-.259,1.143-.186.129-.535.011-.741-.015-.3-.039-.6-.111-.9-.146C21.248,49.891,20.525,49.953,20,49.405Z"/>
        <path class="cls-2" d="M33.946,36.365c-.02.035-.039.066-.056.09a3.349,3.349,0,0,1-.732.621c-.272.222-.525.488-.788.724-.2.175-.549.638-.8.69-.1.02-.32-.081-.433-.091a2.092,2.092,0,0,0-.559.021c-.489.083-.888-.444-1.243-.732-.271-.221-1.526-.99-1.445-1.332a.668.668,0,0,0-.083-.492c-.177-.3-.27-.3-.081-.659.24-.448.506-.885.758-1.326a6.347,6.347,0,0,0,.477-.829c.139-.37.157-.8.663-.811l2.591.08c.373.012.985-.364,1.323-.1.2.159.19.576.231.808.058.341.08.687.143,1.027A3.263,3.263,0,0,1,33.946,36.365Z"/>
        <path class="cls-3" d="M31.5,40.154c-.02.035-.039.066-.056.09a3.326,3.326,0,0,1-.732.621c-.272.222-.525.488-.788.724-.2.175-.549.638-.8.69-.1.02-.32-.081-.433-.091a2.094,2.094,0,0,0-.559.021c-.489.083-.888-.444-1.243-.732-.271-.221-1.525-.99-1.445-1.332a.671.671,0,0,0-.083-.493c-.177-.3-.27-.3-.081-.658.24-.448.506-.885.758-1.326a6.347,6.347,0,0,0,.477-.829c.139-.37.157-.8.663-.811l2.591.08c.373.012.985-.364,1.324-.1.2.159.19.576.23.808.058.34.08.687.143,1.027A3.263,3.263,0,0,1,31.5,40.154Z"/>
        <path class="cls-3" d="M24.627,51.854a1.028,1.028,0,0,1-.077-.087,3.651,3.651,0,0,1-.415-.967c-.146-.356-.343-.707-.506-1.058-.12-.261-.491-.78-.464-1.061.01-.112.187-.31.234-.425a2.334,2.334,0,0,0,.158-.592c.069-.539.75-.788,1.166-1.066.318-.214,1.526-1.281,1.859-1.086a.734.734,0,0,0,.543.071c.371-.089.405-.185.715.127.393.395.765.814,1.146,1.22a6.921,6.921,0,0,0,.715.765c.342.265.789.423.636.955Q29.88,50,29.42,51.339c-.131.387.066,1.148-.321,1.418-.231.161-.664.014-.92-.019-.375-.047-.746-.136-1.121-.18C26.179,52.457,25.283,52.535,24.627,51.854Z"/>
        <path class="cls-3" d="M18.157,41.162c-.02.035-.038.066-.055.09a3.354,3.354,0,0,1-.733.621c-.272.222-.525.488-.788.724-.2.175-.549.638-.8.69-.1.02-.321-.081-.434-.091a2.094,2.094,0,0,0-.559.021c-.489.083-.888-.444-1.242-.732-.271-.221-1.526-.99-1.445-1.332a.674.674,0,0,0-.084-.492c-.177-.3-.269-.3-.08-.659.24-.448.506-.885.758-1.326a6.34,6.34,0,0,0,.476-.829c.139-.37.158-.8.663-.811l2.592.08c.372.012.984-.364,1.323-.1.2.159.19.576.23.808.059.341.08.687.143,1.027A3.258,3.258,0,0,1,18.157,41.162Z"/>
      </g>
      <g>
        <path class="cls-2" d="M-3.666,37.366c-.025-.026-.046-.05-.062-.07a2.938,2.938,0,0,1-.334-.779c-.118-.287-.276-.57-.408-.853-.1-.21-.4-.628-.374-.855.008-.09.151-.249.189-.342a1.89,1.89,0,0,0,.127-.477c.056-.435.6-.635.939-.859.257-.172,1.23-1.032,1.5-.875a.6.6,0,0,0,.438.057c.3-.071.326-.148.576.1.317.318.616.656.923.983a5.523,5.523,0,0,0,.576.616c.276.214.636.341.513.77Q.566,35.868.2,36.951c-.106.312.053.925-.259,1.143-.186.129-.535.011-.741-.015-.3-.039-.6-.111-.9-.146C-2.415,37.852-3.137,37.914-3.666,37.366Z"/>
        <path class="cls-2" d="M10.283,24.326c-.02.035-.039.066-.056.09a3.326,3.326,0,0,1-.732.621c-.272.222-.525.488-.788.724-.2.175-.549.638-.8.69-.1.02-.32-.081-.433-.091a2.094,2.094,0,0,0-.559.021c-.489.083-.888-.444-1.243-.732-.271-.221-1.525-.99-1.445-1.332a.668.668,0,0,0-.083-.492c-.177-.3-.27-.3-.08-.659.239-.448.5-.885.758-1.326a6.456,6.456,0,0,0,.476-.829c.139-.37.157-.8.663-.811l2.591.08c.373.012.985-.364,1.324-.1.2.159.19.576.23.808.058.341.08.687.143,1.027A3.263,3.263,0,0,1,10.283,24.326Z"/>
        <path class="cls-3" d="M7.832,28.115c-.02.035-.039.066-.055.09a3.354,3.354,0,0,1-.733.621c-.272.222-.525.488-.788.724-.2.175-.549.638-.8.69-.1.02-.321-.081-.434-.091a2.094,2.094,0,0,0-.559.021c-.489.083-.888-.444-1.243-.732-.271-.221-1.525-.99-1.445-1.332a.671.671,0,0,0-.083-.493c-.177-.3-.27-.3-.08-.658.239-.449.505-.885.758-1.326a6.456,6.456,0,0,0,.476-.829c.139-.37.157-.8.663-.811l2.592.08c.372.012.984-.364,1.323-.1.2.159.19.576.23.808.058.34.08.687.143,1.027A3.263,3.263,0,0,1,7.832,28.115Z"/>
        <path class="cls-3" d="M.964,39.815c-.031-.032-.057-.062-.077-.087a3.651,3.651,0,0,1-.415-.967c-.146-.356-.342-.707-.5-1.058-.121-.261-.492-.78-.465-1.061.01-.112.187-.31.234-.425a2.293,2.293,0,0,0,.158-.592c.07-.539.75-.788,1.166-1.066.318-.214,1.527-1.281,1.859-1.086a.735.735,0,0,0,.543.071c.371-.089.4-.185.715.127.393.4.765.814,1.146,1.22a6.921,6.921,0,0,0,.715.765c.342.265.789.423.636.955q-.458,1.346-.916,2.689c-.132.387.065,1.148-.322,1.418-.231.161-.664.014-.92-.019-.375-.047-.746-.136-1.121-.18C2.516,40.418,1.62,40.5.964,39.815Z"/>
      </g>
      <g>
        <path class="cls-2" d="M39.653,19.228c-.017.031-.034.057-.048.078a2.925,2.925,0,0,1-.638.541c-.237.194-.457.425-.686.631-.17.152-.479.555-.7.6-.088.018-.279-.07-.378-.079a1.892,1.892,0,0,0-.487.018c-.425.073-.773-.386-1.081-.637-.236-.192-1.329-.862-1.259-1.16a.582.582,0,0,0-.072-.429c-.154-.261-.235-.265-.07-.573.208-.391.44-.771.66-1.155a5.571,5.571,0,0,0,.414-.721c.122-.322.138-.7.578-.707l2.257.07c.324.01.857-.317,1.152-.086.176.138.165.5.2.7.051.3.07.6.125.894A2.843,2.843,0,0,1,39.653,19.228Z"/>
        <path class="cls-2" d="M43.66,13.288c-.025-.026-.047-.05-.063-.07a2.971,2.971,0,0,1-.334-.779c-.117-.287-.276-.57-.407-.853-.1-.21-.4-.628-.374-.855.008-.09.15-.249.189-.342a1.89,1.89,0,0,0,.127-.477c.056-.435.6-.635.939-.859.256-.172,1.23-1.032,1.5-.875a.6.6,0,0,0,.437.057c.3-.071.327-.148.577.1.316.318.616.656.923.983a5.523,5.523,0,0,0,.576.616c.276.214.636.341.513.77q-.37,1.083-.739,2.166c-.106.312.053.925-.259,1.143-.186.129-.535.011-.741-.015-.3-.039-.6-.111-.9-.146C44.911,13.774,44.188,13.836,43.66,13.288Z"/>
        <path class="cls-2" d="M41,21.686a.9.9,0,0,1,.079-.071,3.35,3.35,0,0,1,.879-.386c.324-.136.642-.318.962-.47.237-.112.708-.454.964-.432.1.009.285.168.39.211a2.161,2.161,0,0,0,.542.139c.492.059.725.678.982,1.056.2.288,1.181,1.383,1.006,1.688a.67.67,0,0,0-.061.5c.084.338.172.369-.111.654-.357.362-.736.7-1.1,1.055a6.356,6.356,0,0,0-.693.658c-.239.315-.379.724-.866.589l-2.462-.816c-.354-.117-1.047.069-1.3-.282-.149-.21-.018-.606.009-.84.041-.343.119-.681.156-1.025C40.463,23.108,40.385,22.29,41,21.686Z"/>
        <path class="cls-3" d="M48.289,15.737c-.031-.032-.057-.062-.077-.087a3.681,3.681,0,0,1-.414-.967c-.146-.356-.343-.707-.506-1.058-.12-.261-.491-.78-.464-1.061.01-.112.187-.31.234-.425a2.334,2.334,0,0,0,.158-.592c.069-.539.75-.788,1.166-1.067.318-.213,1.526-1.28,1.859-1.085a.734.734,0,0,0,.543.071c.371-.089.405-.185.715.127.393.395.764.814,1.146,1.22a7.009,7.009,0,0,0,.714.765c.343.265.79.423.637.955q-.459,1.345-.917,2.689c-.131.387.066,1.148-.321,1.418-.232.161-.664.014-.92-.019-.376-.047-.746-.136-1.121-.18C49.842,16.34,48.946,16.418,48.289,15.737Z"/>
        <path class="cls-3" d="M41.82,5.045c-.02.035-.039.066-.055.09a3.354,3.354,0,0,1-.733.621c-.272.222-.525.488-.788.724-.2.175-.549.638-.8.69-.1.02-.321-.081-.434-.091a2.094,2.094,0,0,0-.559.021c-.489.083-.888-.444-1.243-.732-.271-.221-1.525-.99-1.445-1.332a.668.668,0,0,0-.083-.492c-.177-.3-.269-.3-.08-.659.239-.448.505-.885.758-1.326a6.34,6.34,0,0,0,.476-.829c.139-.37.158-.8.663-.811L40.088,1c.372.012.984-.364,1.323-.1.2.159.19.576.23.808.059.341.08.687.143,1.027A3.263,3.263,0,0,1,41.82,5.045Z"/>
      </g>
      <g>
        <path class="cls-2" d="M15.99,31.267a.786.786,0,0,1-.048.078,2.9,2.9,0,0,1-.638.541c-.237.194-.457.425-.686.631-.17.152-.478.555-.7.6-.087.018-.279-.07-.378-.079a1.883,1.883,0,0,0-.486.018c-.426.073-.773-.386-1.082-.637-.236-.192-1.329-.862-1.259-1.16a.582.582,0,0,0-.072-.429c-.154-.261-.235-.265-.07-.573.209-.391.44-.771.66-1.155a5.578,5.578,0,0,0,.415-.721c.121-.322.137-.7.577-.707l2.257.07c.324.01.857-.317,1.152-.086.176.138.165.5.2.7.051.3.07.6.125.894A2.843,2.843,0,0,1,15.99,31.267Z"/>
        <path class="cls-2" d="M20,25.327c-.025-.026-.046-.05-.062-.07a2.906,2.906,0,0,1-.334-.779c-.118-.287-.276-.57-.408-.853-.1-.21-.4-.628-.374-.855.008-.09.151-.249.189-.342a1.89,1.89,0,0,0,.127-.477c.056-.435.6-.635.939-.859.256-.172,1.23-1.032,1.5-.875a.6.6,0,0,0,.437.057c.3-.071.327-.148.577.1.316.318.616.656.923.983a5.523,5.523,0,0,0,.576.616c.276.214.636.341.513.77l-.739,2.166c-.106.312.053.925-.259,1.143-.186.129-.535.011-.741-.015-.3-.039-.6-.111-.9-.146C21.248,25.813,20.525,25.875,20,25.327Z"/>
        <path class="cls-2" d="M17.338,33.725a.9.9,0,0,1,.079-.071,3.35,3.35,0,0,1,.879-.386c.324-.136.643-.318.962-.47.237-.112.708-.454.965-.432.1.009.284.168.389.211a2.161,2.161,0,0,0,.542.139c.493.059.725.678.982,1.056.2.288,1.181,1.383,1.006,1.688a.67.67,0,0,0-.061.5c.084.338.172.369-.11.654-.358.362-.737.7-1.105,1.055a6.449,6.449,0,0,0-.693.658c-.239.315-.379.724-.866.589L17.845,38.1c-.353-.117-1.047.069-1.3-.282-.149-.21-.018-.606.01-.84.04-.343.118-.681.155-1.025C16.8,35.147,16.722,34.329,17.338,33.725Z"/>
        <path class="cls-2" d="M33.946,12.287c-.02.035-.039.066-.056.09a3.349,3.349,0,0,1-.732.621c-.272.222-.525.488-.788.724-.2.175-.549.638-.8.69-.1.02-.32-.081-.433-.091a2.092,2.092,0,0,0-.559.021c-.489.083-.888-.444-1.243-.732-.271-.221-1.526-.99-1.445-1.332a.668.668,0,0,0-.083-.492c-.177-.3-.27-.3-.081-.659.24-.448.506-.885.758-1.326a6.347,6.347,0,0,0,.477-.829c.139-.37.157-.8.663-.811l2.591.08c.373.012.985-.364,1.323-.1.2.159.19.576.231.808.058.341.08.687.143,1.027A3.263,3.263,0,0,1,33.946,12.287Z"/>
        <path class="cls-3" d="M31.5,16.075a1.013,1.013,0,0,1-.056.091,3.326,3.326,0,0,1-.732.621c-.272.222-.525.488-.788.724-.2.175-.549.638-.8.69-.1.02-.32-.081-.433-.091a2.094,2.094,0,0,0-.559.021c-.489.083-.888-.444-1.243-.732-.271-.221-1.525-.99-1.445-1.332a.671.671,0,0,0-.083-.493c-.177-.3-.27-.3-.081-.658.24-.449.506-.885.758-1.326a6.347,6.347,0,0,0,.477-.829c.139-.37.157-.8.663-.811l2.591.08c.373.012.985-.364,1.324-.1.2.159.19.576.23.808.058.34.08.687.143,1.027A3.26,3.26,0,0,1,31.5,16.075Z"/>
        <path class="cls-3" d="M24.627,27.776a1.028,1.028,0,0,1-.077-.087,3.651,3.651,0,0,1-.415-.967c-.146-.356-.343-.707-.506-1.058-.12-.261-.491-.78-.464-1.061.01-.112.187-.31.234-.425a2.334,2.334,0,0,0,.158-.592c.069-.539.75-.788,1.166-1.066.318-.214,1.526-1.281,1.859-1.086a.734.734,0,0,0,.543.071c.371-.089.405-.185.715.127.393.395.765.814,1.146,1.22a6.921,6.921,0,0,0,.715.765c.342.265.789.423.636.955q-.457,1.346-.917,2.689c-.131.387.066,1.148-.321,1.418-.231.161-.664.014-.92-.019-.375-.047-.746-.136-1.121-.18C26.179,28.379,25.283,28.457,24.627,27.776Z"/>
        <path class="cls-3" d="M18.157,17.084c-.02.035-.038.066-.055.09a3.354,3.354,0,0,1-.733.621c-.272.222-.525.488-.788.724-.2.175-.549.638-.8.69-.1.02-.321-.081-.434-.091a2.094,2.094,0,0,0-.559.021c-.489.083-.888-.444-1.242-.732-.271-.221-1.526-.99-1.445-1.332a.673.673,0,0,0-.084-.492c-.177-.3-.269-.3-.08-.659.24-.448.506-.885.758-1.326a6.34,6.34,0,0,0,.476-.829c.139-.37.158-.8.663-.811l2.592.08c.372.012.984-.364,1.323-.1.2.159.19.576.23.808.059.341.08.687.143,1.027A3.258,3.258,0,0,1,18.157,17.084Z"/>
      </g>
      <g>
        <path class="cls-2" d="M-3.666,13.288c-.025-.026-.046-.05-.062-.07a2.938,2.938,0,0,1-.334-.779c-.118-.287-.276-.57-.408-.853-.1-.21-.4-.628-.374-.855.008-.09.151-.249.189-.342a1.89,1.89,0,0,0,.127-.477c.056-.435.6-.635.939-.859.257-.172,1.23-1.032,1.5-.875a.6.6,0,0,0,.438.057c.3-.071.326-.148.576.1.317.318.616.656.923.983a5.523,5.523,0,0,0,.576.616c.276.214.636.341.513.77Q.566,11.79.2,12.873c-.106.312.053.925-.259,1.143C-.249,14.145-.6,14.027-.8,14c-.3-.039-.6-.111-.9-.146C-2.415,13.774-3.137,13.836-3.666,13.288Z"/>
        <path class="cls-2" d="M10.283.248c-.02.035-.039.066-.056.09a3.326,3.326,0,0,1-.732.621c-.272.222-.525.488-.788.724-.2.175-.549.638-.8.69-.1.02-.32-.081-.433-.091a2.094,2.094,0,0,0-.559.021c-.489.083-.888-.444-1.243-.732C5.4,1.35,4.145.581,4.225.239a.668.668,0,0,0-.083-.492c-.177-.3-.27-.305-.08-.659.239-.448.5-.885.758-1.326A6.456,6.456,0,0,0,5.3-3.067c.139-.37.157-.8.663-.811L8.55-3.8c.373.012.985-.364,1.324-.1.2.159.19.576.23.808.058.34.08.687.143,1.027A3.263,3.263,0,0,1,10.283.248Z"/>
        <path class="cls-3" d="M7.832,4.036c-.02.036-.039.067-.055.091a3.354,3.354,0,0,1-.733.621c-.272.222-.525.488-.788.724-.2.175-.549.638-.8.69-.1.02-.321-.081-.434-.091a2.094,2.094,0,0,0-.559.021c-.489.083-.888-.444-1.243-.732-.271-.221-1.525-.99-1.445-1.332a.671.671,0,0,0-.083-.493c-.177-.3-.27-.3-.08-.658.239-.449.505-.885.758-1.327A6.377,6.377,0,0,0,2.845.722c.139-.37.157-.8.663-.811L6.1-.009c.372.012.984-.364,1.323-.1.2.159.19.576.23.808.058.34.08.687.143,1.027A3.26,3.26,0,0,1,7.832,4.036Z"/>
        <path class="cls-3" d="M.964,15.737c-.031-.032-.057-.062-.077-.087a3.651,3.651,0,0,1-.415-.967c-.146-.356-.342-.707-.5-1.058-.121-.261-.492-.78-.465-1.061.01-.112.187-.31.234-.425a2.293,2.293,0,0,0,.158-.592c.07-.539.75-.788,1.166-1.067C1.378,10.267,2.587,9.2,2.919,9.4a.735.735,0,0,0,.543.071c.371-.089.4-.185.715.127.393.395.765.814,1.146,1.22a6.921,6.921,0,0,0,.715.765c.342.265.789.423.636.955q-.458,1.345-.916,2.689c-.132.387.065,1.148-.322,1.418-.231.161-.664.014-.92-.019-.375-.047-.746-.136-1.121-.18C2.516,16.34,1.62,16.418.964,15.737Z"/>
      </g>
      <path class="cls-2" d="M41-2.392a.9.9,0,0,1,.079-.071,3.35,3.35,0,0,1,.879-.386c.324-.136.642-.318.962-.47.237-.112.708-.454.964-.432.1.009.285.168.39.211a2.161,2.161,0,0,0,.542.139c.492.059.725.678.982,1.056.2.288,1.181,1.383,1.006,1.688a.67.67,0,0,0-.061.5c.084.338.172.369-.111.654-.357.362-.736.7-1.1,1.055a6.356,6.356,0,0,0-.693.658c-.239.315-.379.724-.866.589l-2.462-.816c-.354-.117-1.047.069-1.3-.282-.149-.21-.018-.606.009-.84.041-.343.119-.681.156-1.025C40.463-.97,40.385-1.788,41-2.392Z"/>
      <g>
        <path class="cls-2" d="M15.99,7.189a.786.786,0,0,1-.048.078,2.9,2.9,0,0,1-.638.541c-.237.194-.457.425-.686.631-.17.152-.478.555-.7.6-.087.018-.279-.07-.378-.079a1.883,1.883,0,0,0-.486.018c-.426.073-.773-.386-1.082-.637-.236-.192-1.329-.862-1.259-1.16a.582.582,0,0,0-.072-.429c-.154-.261-.235-.265-.07-.573.209-.391.44-.771.66-1.155a5.578,5.578,0,0,0,.415-.721c.121-.322.137-.7.577-.707l2.257.07c.324.01.857-.317,1.152-.086.176.138.165.5.2.7.051.3.07.6.125.894A2.843,2.843,0,0,1,15.99,7.189Z"/>
        <path class="cls-2" d="M20,1.249c-.025-.026-.046-.05-.062-.07A2.906,2.906,0,0,1,19.6.4c-.118-.287-.276-.57-.408-.853-.1-.21-.4-.628-.374-.855.008-.09.151-.249.189-.342a1.89,1.89,0,0,0,.127-.477c.056-.435.6-.635.939-.859.256-.172,1.23-1.032,1.5-.875a.6.6,0,0,0,.437.057c.3-.071.327-.149.577.1.316.318.616.656.923.983a5.523,5.523,0,0,0,.576.616c.276.214.636.341.513.77L23.859.834c-.106.312.053.925-.259,1.143-.186.129-.535.011-.741-.015-.3-.039-.6-.111-.9-.146C21.248,1.735,20.525,1.8,20,1.249Z"/>
        <path class="cls-2" d="M17.338,9.647a.9.9,0,0,1,.079-.071A3.35,3.35,0,0,1,18.3,9.19c.324-.136.643-.318.962-.47.237-.112.708-.454.965-.432.1.009.284.168.389.211a2.161,2.161,0,0,0,.542.139c.493.059.725.678.982,1.056.2.288,1.181,1.383,1.006,1.688a.67.67,0,0,0-.061.5c.084.338.172.369-.11.654-.358.362-.737.7-1.105,1.055a6.449,6.449,0,0,0-.693.658c-.239.315-.379.724-.866.589l-2.462-.816c-.353-.117-1.047.069-1.3-.282-.149-.21-.018-.606.01-.84.04-.343.118-.681.155-1.025C16.8,11.069,16.722,10.251,17.338,9.647Z"/>
        <path class="cls-3" d="M24.627,3.7a1.028,1.028,0,0,1-.077-.087,3.651,3.651,0,0,1-.415-.967c-.146-.356-.343-.707-.506-1.058-.12-.261-.491-.78-.464-1.061.01-.112.187-.31.234-.425a2.334,2.334,0,0,0,.158-.592c.069-.539.75-.788,1.166-1.067.318-.213,1.526-1.28,1.859-1.085a.734.734,0,0,0,.543.071c.371-.089.405-.185.715.127.393.4.765.814,1.146,1.22a6.921,6.921,0,0,0,.715.765c.342.265.789.423.636.955Q29.88,1.84,29.42,3.183c-.131.387.066,1.148-.321,1.418-.231.161-.664.014-.92-.019-.375-.047-.746-.136-1.121-.18C26.179,4.3,25.283,4.379,24.627,3.7Z"/>
      </g>
    </pattern>
    <pattern id="New_Pattern-3" data-name="New Pattern" width="47.326" height="48.156" patternTransform="translate(14.645 -10.473)" patternUnits="userSpaceOnUse" viewBox="0 0 47.326 48.156">
      <rect class="cls-1" width="47.326" height="48.156"/>
      <g>
        <path class="cls-2" d="M10.283,48.4c-.02.035-.039.066-.056.09a3.326,3.326,0,0,1-.732.621c-.272.222-.525.488-.788.724-.2.175-.549.638-.8.69-.1.02-.32-.081-.433-.091a2.094,2.094,0,0,0-.559.021c-.489.083-.888-.444-1.243-.732-.271-.221-1.525-.99-1.445-1.332a.669.669,0,0,0-.083-.492c-.177-.3-.27-.3-.08-.659.239-.448.5-.885.758-1.326a6.456,6.456,0,0,0,.476-.829c.139-.37.157-.8.663-.811l2.591.08c.373.012.985-.364,1.324-.1.2.159.19.576.23.808.058.341.08.687.143,1.027A3.263,3.263,0,0,1,10.283,48.4Z"/>
        <path class="cls-3" d="M7.832,52.193c-.02.035-.039.066-.055.09a3.354,3.354,0,0,1-.733.621c-.272.222-.525.488-.788.724-.2.175-.549.638-.8.69-.1.02-.321-.081-.434-.091a2.094,2.094,0,0,0-.559.021c-.489.083-.888-.444-1.243-.732-.271-.221-1.525-.99-1.445-1.332a.671.671,0,0,0-.083-.493c-.177-.3-.27-.3-.08-.658.239-.448.505-.885.758-1.326a6.456,6.456,0,0,0,.476-.829c.139-.37.157-.8.663-.811l2.592.08c.372.012.984-.364,1.323-.1.2.159.19.576.23.808.058.34.08.687.143,1.027A3.263,3.263,0,0,1,7.832,52.193Z"/>
      </g>
      <g>
        <path class="cls-2" d="M39.653,43.306c-.017.031-.034.057-.048.078a2.925,2.925,0,0,1-.638.541c-.237.194-.457.425-.686.631-.17.152-.479.555-.7.6-.088.018-.279-.07-.378-.079a1.892,1.892,0,0,0-.487.018c-.425.073-.773-.386-1.081-.637-.236-.192-1.329-.862-1.259-1.16a.582.582,0,0,0-.072-.429c-.154-.261-.235-.265-.07-.573.208-.391.44-.771.66-1.155a5.571,5.571,0,0,0,.414-.721c.122-.322.138-.7.578-.707l2.257.07c.324.01.857-.317,1.152-.086.176.138.165.5.2.7.051.3.07.6.125.894A2.843,2.843,0,0,1,39.653,43.306Z"/>
        <path class="cls-2" d="M43.66,37.366c-.025-.026-.047-.05-.063-.07a2.971,2.971,0,0,1-.334-.779c-.117-.287-.276-.57-.407-.853-.1-.21-.4-.628-.374-.855.008-.09.15-.249.189-.342a1.89,1.89,0,0,0,.127-.477c.056-.435.6-.635.939-.859.256-.172,1.23-1.032,1.5-.875a.6.6,0,0,0,.437.057c.3-.071.327-.148.577.1.316.318.616.656.923.983a5.523,5.523,0,0,0,.576.616c.276.214.636.341.513.77q-.37,1.083-.739,2.166c-.106.312.053.925-.259,1.143-.186.129-.535.011-.741-.015-.3-.039-.6-.111-.9-.146C44.911,37.852,44.188,37.914,43.66,37.366Z"/>
        <path class="cls-2" d="M41,45.764c.029-.028.056-.053.079-.071a3.35,3.35,0,0,1,.879-.386c.324-.136.642-.318.962-.47.237-.112.708-.454.964-.432.1.009.285.168.39.211a2.161,2.161,0,0,0,.542.139c.492.059.725.678.982,1.056.2.288,1.181,1.383,1.006,1.688a.67.67,0,0,0-.061.5c.084.338.172.369-.111.654-.357.362-.736.7-1.1,1.055a6.356,6.356,0,0,0-.693.658c-.239.315-.379.724-.866.589l-2.462-.816c-.354-.117-1.047.069-1.3-.282-.149-.21-.018-.606.009-.84.041-.343.119-.681.156-1.025C40.463,47.186,40.385,46.368,41,45.764Z"/>
        <path class="cls-3" d="M48.289,39.815c-.031-.032-.057-.062-.077-.087a3.681,3.681,0,0,1-.414-.967c-.146-.356-.343-.707-.506-1.058-.12-.261-.491-.78-.464-1.061.01-.112.187-.31.234-.425a2.334,2.334,0,0,0,.158-.592c.069-.539.75-.788,1.166-1.066.318-.214,1.526-1.281,1.859-1.086a.734.734,0,0,0,.543.071c.371-.089.405-.185.715.127.393.4.764.814,1.146,1.22a7.009,7.009,0,0,0,.714.765c.343.265.79.423.637.955q-.459,1.346-.917,2.689c-.131.387.066,1.148-.321,1.418-.232.161-.664.014-.92-.019-.376-.047-.746-.136-1.121-.18C49.842,40.418,48.946,40.5,48.289,39.815Z"/>
        <path class="cls-3" d="M41.82,29.123c-.02.035-.039.066-.055.09a3.354,3.354,0,0,1-.733.621c-.272.222-.525.488-.788.724-.2.175-.549.638-.8.69-.1.02-.321-.081-.434-.091a2.094,2.094,0,0,0-.559.021c-.489.083-.888-.444-1.243-.732-.271-.221-1.525-.99-1.445-1.332a.668.668,0,0,0-.083-.492c-.177-.3-.269-.3-.08-.659.239-.448.505-.885.758-1.326a6.34,6.34,0,0,0,.476-.829c.139-.37.158-.8.663-.811l2.592.08c.372.012.984-.364,1.323-.1.2.159.19.576.23.808.059.341.08.687.143,1.027A3.263,3.263,0,0,1,41.82,29.123Z"/>
      </g>
      <g>
        <path class="cls-2" d="M20,49.405c-.025-.026-.046-.05-.062-.07a2.906,2.906,0,0,1-.334-.779c-.118-.287-.276-.57-.408-.853-.1-.21-.4-.628-.374-.855.008-.09.151-.249.189-.342a1.879,1.879,0,0,0,.127-.477c.056-.435.6-.635.939-.859.256-.172,1.23-1.032,1.5-.875a.6.6,0,0,0,.437.057c.3-.071.327-.148.577.1.316.318.616.656.923.983a5.523,5.523,0,0,0,.576.616c.276.214.636.341.513.77l-.739,2.166c-.106.312.053.925-.259,1.143-.186.129-.535.011-.741-.015-.3-.039-.6-.111-.9-.146C21.248,49.891,20.525,49.953,20,49.405Z"/>
        <path class="cls-2" d="M33.946,36.365c-.02.035-.039.066-.056.09a3.349,3.349,0,0,1-.732.621c-.272.222-.525.488-.788.724-.2.175-.549.638-.8.69-.1.02-.32-.081-.433-.091a2.092,2.092,0,0,0-.559.021c-.489.083-.888-.444-1.243-.732-.271-.221-1.526-.99-1.445-1.332a.668.668,0,0,0-.083-.492c-.177-.3-.27-.3-.081-.659.24-.448.506-.885.758-1.326a6.347,6.347,0,0,0,.477-.829c.139-.37.157-.8.663-.811l2.591.08c.373.012.985-.364,1.323-.1.2.159.19.576.231.808.058.341.08.687.143,1.027A3.263,3.263,0,0,1,33.946,36.365Z"/>
        <path class="cls-3" d="M31.5,40.154c-.02.035-.039.066-.056.09a3.326,3.326,0,0,1-.732.621c-.272.222-.525.488-.788.724-.2.175-.549.638-.8.69-.1.02-.32-.081-.433-.091a2.094,2.094,0,0,0-.559.021c-.489.083-.888-.444-1.243-.732-.271-.221-1.525-.99-1.445-1.332a.671.671,0,0,0-.083-.493c-.177-.3-.27-.3-.081-.658.24-.448.506-.885.758-1.326a6.347,6.347,0,0,0,.477-.829c.139-.37.157-.8.663-.811l2.591.08c.373.012.985-.364,1.324-.1.2.159.19.576.23.808.058.34.08.687.143,1.027A3.263,3.263,0,0,1,31.5,40.154Z"/>
        <path class="cls-3" d="M24.627,51.854a1.028,1.028,0,0,1-.077-.087,3.651,3.651,0,0,1-.415-.967c-.146-.356-.343-.707-.506-1.058-.12-.261-.491-.78-.464-1.061.01-.112.187-.31.234-.425a2.334,2.334,0,0,0,.158-.592c.069-.539.75-.788,1.166-1.066.318-.214,1.526-1.281,1.859-1.086a.734.734,0,0,0,.543.071c.371-.089.405-.185.715.127.393.395.765.814,1.146,1.22a6.921,6.921,0,0,0,.715.765c.342.265.789.423.636.955Q29.88,50,29.42,51.339c-.131.387.066,1.148-.321,1.418-.231.161-.664.014-.92-.019-.375-.047-.746-.136-1.121-.18C26.179,52.457,25.283,52.535,24.627,51.854Z"/>
        <path class="cls-3" d="M18.157,41.162c-.02.035-.038.066-.055.09a3.354,3.354,0,0,1-.733.621c-.272.222-.525.488-.788.724-.2.175-.549.638-.8.69-.1.02-.321-.081-.434-.091a2.094,2.094,0,0,0-.559.021c-.489.083-.888-.444-1.242-.732-.271-.221-1.526-.99-1.445-1.332a.674.674,0,0,0-.084-.492c-.177-.3-.269-.3-.08-.659.24-.448.506-.885.758-1.326a6.34,6.34,0,0,0,.476-.829c.139-.37.158-.8.663-.811l2.592.08c.372.012.984-.364,1.323-.1.2.159.19.576.23.808.059.341.08.687.143,1.027A3.258,3.258,0,0,1,18.157,41.162Z"/>
      </g>
      <g>
        <path class="cls-2" d="M-3.666,37.366c-.025-.026-.046-.05-.062-.07a2.938,2.938,0,0,1-.334-.779c-.118-.287-.276-.57-.408-.853-.1-.21-.4-.628-.374-.855.008-.09.151-.249.189-.342a1.89,1.89,0,0,0,.127-.477c.056-.435.6-.635.939-.859.257-.172,1.23-1.032,1.5-.875a.6.6,0,0,0,.438.057c.3-.071.326-.148.576.1.317.318.616.656.923.983a5.523,5.523,0,0,0,.576.616c.276.214.636.341.513.77Q.566,35.868.2,36.951c-.106.312.053.925-.259,1.143-.186.129-.535.011-.741-.015-.3-.039-.6-.111-.9-.146C-2.415,37.852-3.137,37.914-3.666,37.366Z"/>
        <path class="cls-2" d="M10.283,24.326c-.02.035-.039.066-.056.09a3.326,3.326,0,0,1-.732.621c-.272.222-.525.488-.788.724-.2.175-.549.638-.8.69-.1.02-.32-.081-.433-.091a2.094,2.094,0,0,0-.559.021c-.489.083-.888-.444-1.243-.732-.271-.221-1.525-.99-1.445-1.332a.668.668,0,0,0-.083-.492c-.177-.3-.27-.3-.08-.659.239-.448.5-.885.758-1.326a6.456,6.456,0,0,0,.476-.829c.139-.37.157-.8.663-.811l2.591.08c.373.012.985-.364,1.324-.1.2.159.19.576.23.808.058.341.08.687.143,1.027A3.263,3.263,0,0,1,10.283,24.326Z"/>
        <path class="cls-3" d="M7.832,28.115c-.02.035-.039.066-.055.09a3.354,3.354,0,0,1-.733.621c-.272.222-.525.488-.788.724-.2.175-.549.638-.8.69-.1.02-.321-.081-.434-.091a2.094,2.094,0,0,0-.559.021c-.489.083-.888-.444-1.243-.732-.271-.221-1.525-.99-1.445-1.332a.671.671,0,0,0-.083-.493c-.177-.3-.27-.3-.08-.658.239-.449.505-.885.758-1.326a6.456,6.456,0,0,0,.476-.829c.139-.37.157-.8.663-.811l2.592.08c.372.012.984-.364,1.323-.1.2.159.19.576.23.808.058.34.08.687.143,1.027A3.263,3.263,0,0,1,7.832,28.115Z"/>
        <path class="cls-3" d="M.964,39.815c-.031-.032-.057-.062-.077-.087a3.651,3.651,0,0,1-.415-.967c-.146-.356-.342-.707-.5-1.058-.121-.261-.492-.78-.465-1.061.01-.112.187-.31.234-.425a2.293,2.293,0,0,0,.158-.592c.07-.539.75-.788,1.166-1.066.318-.214,1.527-1.281,1.859-1.086a.735.735,0,0,0,.543.071c.371-.089.4-.185.715.127.393.4.765.814,1.146,1.22a6.921,6.921,0,0,0,.715.765c.342.265.789.423.636.955q-.458,1.346-.916,2.689c-.132.387.065,1.148-.322,1.418-.231.161-.664.014-.92-.019-.375-.047-.746-.136-1.121-.18C2.516,40.418,1.62,40.5.964,39.815Z"/>
      </g>
      <g>
        <path class="cls-2" d="M39.653,19.228c-.017.031-.034.057-.048.078a2.925,2.925,0,0,1-.638.541c-.237.194-.457.425-.686.631-.17.152-.479.555-.7.6-.088.018-.279-.07-.378-.079a1.892,1.892,0,0,0-.487.018c-.425.073-.773-.386-1.081-.637-.236-.192-1.329-.862-1.259-1.16a.582.582,0,0,0-.072-.429c-.154-.261-.235-.265-.07-.573.208-.391.44-.771.66-1.155a5.571,5.571,0,0,0,.414-.721c.122-.322.138-.7.578-.707l2.257.07c.324.01.857-.317,1.152-.086.176.138.165.5.2.7.051.3.07.6.125.894A2.843,2.843,0,0,1,39.653,19.228Z"/>
        <path class="cls-2" d="M43.66,13.288c-.025-.026-.047-.05-.063-.07a2.971,2.971,0,0,1-.334-.779c-.117-.287-.276-.57-.407-.853-.1-.21-.4-.628-.374-.855.008-.09.15-.249.189-.342a1.89,1.89,0,0,0,.127-.477c.056-.435.6-.635.939-.859.256-.172,1.23-1.032,1.5-.875a.6.6,0,0,0,.437.057c.3-.071.327-.148.577.1.316.318.616.656.923.983a5.523,5.523,0,0,0,.576.616c.276.214.636.341.513.77q-.37,1.083-.739,2.166c-.106.312.053.925-.259,1.143-.186.129-.535.011-.741-.015-.3-.039-.6-.111-.9-.146C44.911,13.774,44.188,13.836,43.66,13.288Z"/>
        <path class="cls-2" d="M41,21.686a.9.9,0,0,1,.079-.071,3.35,3.35,0,0,1,.879-.386c.324-.136.642-.318.962-.47.237-.112.708-.454.964-.432.1.009.285.168.39.211a2.161,2.161,0,0,0,.542.139c.492.059.725.678.982,1.056.2.288,1.181,1.383,1.006,1.688a.67.67,0,0,0-.061.5c.084.338.172.369-.111.654-.357.362-.736.7-1.1,1.055a6.356,6.356,0,0,0-.693.658c-.239.315-.379.724-.866.589l-2.462-.816c-.354-.117-1.047.069-1.3-.282-.149-.21-.018-.606.009-.84.041-.343.119-.681.156-1.025C40.463,23.108,40.385,22.29,41,21.686Z"/>
        <path class="cls-3" d="M48.289,15.737c-.031-.032-.057-.062-.077-.087a3.681,3.681,0,0,1-.414-.967c-.146-.356-.343-.707-.506-1.058-.12-.261-.491-.78-.464-1.061.01-.112.187-.31.234-.425a2.334,2.334,0,0,0,.158-.592c.069-.539.75-.788,1.166-1.067.318-.213,1.526-1.28,1.859-1.085a.734.734,0,0,0,.543.071c.371-.089.405-.185.715.127.393.395.764.814,1.146,1.22a7.009,7.009,0,0,0,.714.765c.343.265.79.423.637.955q-.459,1.345-.917,2.689c-.131.387.066,1.148-.321,1.418-.232.161-.664.014-.92-.019-.376-.047-.746-.136-1.121-.18C49.842,16.34,48.946,16.418,48.289,15.737Z"/>
        <path class="cls-3" d="M41.82,5.045c-.02.035-.039.066-.055.09a3.354,3.354,0,0,1-.733.621c-.272.222-.525.488-.788.724-.2.175-.549.638-.8.69-.1.02-.321-.081-.434-.091a2.094,2.094,0,0,0-.559.021c-.489.083-.888-.444-1.243-.732-.271-.221-1.525-.99-1.445-1.332a.668.668,0,0,0-.083-.492c-.177-.3-.269-.3-.08-.659.239-.448.505-.885.758-1.326a6.34,6.34,0,0,0,.476-.829c.139-.37.158-.8.663-.811L40.088,1c.372.012.984-.364,1.323-.1.2.159.19.576.23.808.059.341.08.687.143,1.027A3.263,3.263,0,0,1,41.82,5.045Z"/>
      </g>
      <g>
        <path class="cls-2" d="M15.99,31.267a.786.786,0,0,1-.048.078,2.9,2.9,0,0,1-.638.541c-.237.194-.457.425-.686.631-.17.152-.478.555-.7.6-.087.018-.279-.07-.378-.079a1.883,1.883,0,0,0-.486.018c-.426.073-.773-.386-1.082-.637-.236-.192-1.329-.862-1.259-1.16a.582.582,0,0,0-.072-.429c-.154-.261-.235-.265-.07-.573.209-.391.44-.771.66-1.155a5.578,5.578,0,0,0,.415-.721c.121-.322.137-.7.577-.707l2.257.07c.324.01.857-.317,1.152-.086.176.138.165.5.2.7.051.3.07.6.125.894A2.843,2.843,0,0,1,15.99,31.267Z"/>
        <path class="cls-2" d="M20,25.327c-.025-.026-.046-.05-.062-.07a2.906,2.906,0,0,1-.334-.779c-.118-.287-.276-.57-.408-.853-.1-.21-.4-.628-.374-.855.008-.09.151-.249.189-.342a1.89,1.89,0,0,0,.127-.477c.056-.435.6-.635.939-.859.256-.172,1.23-1.032,1.5-.875a.6.6,0,0,0,.437.057c.3-.071.327-.148.577.1.316.318.616.656.923.983a5.523,5.523,0,0,0,.576.616c.276.214.636.341.513.77l-.739,2.166c-.106.312.053.925-.259,1.143-.186.129-.535.011-.741-.015-.3-.039-.6-.111-.9-.146C21.248,25.813,20.525,25.875,20,25.327Z"/>
        <path class="cls-2" d="M17.338,33.725a.9.9,0,0,1,.079-.071,3.35,3.35,0,0,1,.879-.386c.324-.136.643-.318.962-.47.237-.112.708-.454.965-.432.1.009.284.168.389.211a2.161,2.161,0,0,0,.542.139c.493.059.725.678.982,1.056.2.288,1.181,1.383,1.006,1.688a.67.67,0,0,0-.061.5c.084.338.172.369-.11.654-.358.362-.737.7-1.105,1.055a6.449,6.449,0,0,0-.693.658c-.239.315-.379.724-.866.589L17.845,38.1c-.353-.117-1.047.069-1.3-.282-.149-.21-.018-.606.01-.84.04-.343.118-.681.155-1.025C16.8,35.147,16.722,34.329,17.338,33.725Z"/>
        <path class="cls-2" d="M33.946,12.287c-.02.035-.039.066-.056.09a3.349,3.349,0,0,1-.732.621c-.272.222-.525.488-.788.724-.2.175-.549.638-.8.69-.1.02-.32-.081-.433-.091a2.092,2.092,0,0,0-.559.021c-.489.083-.888-.444-1.243-.732-.271-.221-1.526-.99-1.445-1.332a.668.668,0,0,0-.083-.492c-.177-.3-.27-.3-.081-.659.24-.448.506-.885.758-1.326a6.347,6.347,0,0,0,.477-.829c.139-.37.157-.8.663-.811l2.591.08c.373.012.985-.364,1.323-.1.2.159.19.576.231.808.058.341.08.687.143,1.027A3.263,3.263,0,0,1,33.946,12.287Z"/>
        <path class="cls-3" d="M31.5,16.075a1.013,1.013,0,0,1-.056.091,3.326,3.326,0,0,1-.732.621c-.272.222-.525.488-.788.724-.2.175-.549.638-.8.69-.1.02-.32-.081-.433-.091a2.094,2.094,0,0,0-.559.021c-.489.083-.888-.444-1.243-.732-.271-.221-1.525-.99-1.445-1.332a.671.671,0,0,0-.083-.493c-.177-.3-.27-.3-.081-.658.24-.449.506-.885.758-1.326a6.347,6.347,0,0,0,.477-.829c.139-.37.157-.8.663-.811l2.591.08c.373.012.985-.364,1.324-.1.2.159.19.576.23.808.058.34.08.687.143,1.027A3.26,3.26,0,0,1,31.5,16.075Z"/>
        <path class="cls-3" d="M24.627,27.776a1.028,1.028,0,0,1-.077-.087,3.651,3.651,0,0,1-.415-.967c-.146-.356-.343-.707-.506-1.058-.12-.261-.491-.78-.464-1.061.01-.112.187-.31.234-.425a2.334,2.334,0,0,0,.158-.592c.069-.539.75-.788,1.166-1.066.318-.214,1.526-1.281,1.859-1.086a.734.734,0,0,0,.543.071c.371-.089.405-.185.715.127.393.395.765.814,1.146,1.22a6.921,6.921,0,0,0,.715.765c.342.265.789.423.636.955q-.457,1.346-.917,2.689c-.131.387.066,1.148-.321,1.418-.231.161-.664.014-.92-.019-.375-.047-.746-.136-1.121-.18C26.179,28.379,25.283,28.457,24.627,27.776Z"/>
        <path class="cls-3" d="M18.157,17.084c-.02.035-.038.066-.055.09a3.354,3.354,0,0,1-.733.621c-.272.222-.525.488-.788.724-.2.175-.549.638-.8.69-.1.02-.321-.081-.434-.091a2.094,2.094,0,0,0-.559.021c-.489.083-.888-.444-1.242-.732-.271-.221-1.526-.99-1.445-1.332a.673.673,0,0,0-.084-.492c-.177-.3-.269-.3-.08-.659.24-.448.506-.885.758-1.326a6.34,6.34,0,0,0,.476-.829c.139-.37.158-.8.663-.811l2.592.08c.372.012.984-.364,1.323-.1.2.159.19.576.23.808.059.341.08.687.143,1.027A3.258,3.258,0,0,1,18.157,17.084Z"/>
      </g>
      <g>
        <path class="cls-2" d="M-3.666,13.288c-.025-.026-.046-.05-.062-.07a2.938,2.938,0,0,1-.334-.779c-.118-.287-.276-.57-.408-.853-.1-.21-.4-.628-.374-.855.008-.09.151-.249.189-.342a1.89,1.89,0,0,0,.127-.477c.056-.435.6-.635.939-.859.257-.172,1.23-1.032,1.5-.875a.6.6,0,0,0,.438.057c.3-.071.326-.148.576.1.317.318.616.656.923.983a5.523,5.523,0,0,0,.576.616c.276.214.636.341.513.77Q.566,11.79.2,12.873c-.106.312.053.925-.259,1.143C-.249,14.145-.6,14.027-.8,14c-.3-.039-.6-.111-.9-.146C-2.415,13.774-3.137,13.836-3.666,13.288Z"/>
        <path class="cls-2" d="M10.283.248c-.02.035-.039.066-.056.09a3.326,3.326,0,0,1-.732.621c-.272.222-.525.488-.788.724-.2.175-.549.638-.8.69-.1.02-.32-.081-.433-.091a2.094,2.094,0,0,0-.559.021c-.489.083-.888-.444-1.243-.732C5.4,1.35,4.145.581,4.225.239a.668.668,0,0,0-.083-.492c-.177-.3-.27-.305-.08-.659.239-.448.5-.885.758-1.326A6.456,6.456,0,0,0,5.3-3.067c.139-.37.157-.8.663-.811L8.55-3.8c.373.012.985-.364,1.324-.1.2.159.19.576.23.808.058.34.08.687.143,1.027A3.263,3.263,0,0,1,10.283.248Z"/>
        <path class="cls-3" d="M7.832,4.036c-.02.036-.039.067-.055.091a3.354,3.354,0,0,1-.733.621c-.272.222-.525.488-.788.724-.2.175-.549.638-.8.69-.1.02-.321-.081-.434-.091a2.094,2.094,0,0,0-.559.021c-.489.083-.888-.444-1.243-.732-.271-.221-1.525-.99-1.445-1.332a.671.671,0,0,0-.083-.493c-.177-.3-.27-.3-.08-.658.239-.449.505-.885.758-1.327A6.377,6.377,0,0,0,2.845.722c.139-.37.157-.8.663-.811L6.1-.009c.372.012.984-.364,1.323-.1.2.159.19.576.23.808.058.34.08.687.143,1.027A3.26,3.26,0,0,1,7.832,4.036Z"/>
        <path class="cls-3" d="M.964,15.737c-.031-.032-.057-.062-.077-.087a3.651,3.651,0,0,1-.415-.967c-.146-.356-.342-.707-.5-1.058-.121-.261-.492-.78-.465-1.061.01-.112.187-.31.234-.425a2.293,2.293,0,0,0,.158-.592c.07-.539.75-.788,1.166-1.067C1.378,10.267,2.587,9.2,2.919,9.4a.735.735,0,0,0,.543.071c.371-.089.4-.185.715.127.393.395.765.814,1.146,1.22a6.921,6.921,0,0,0,.715.765c.342.265.789.423.636.955q-.458,1.345-.916,2.689c-.132.387.065,1.148-.322,1.418-.231.161-.664.014-.92-.019-.375-.047-.746-.136-1.121-.18C2.516,16.34,1.62,16.418.964,15.737Z"/>
      </g>
      <path class="cls-2" d="M41-2.392a.9.9,0,0,1,.079-.071,3.35,3.35,0,0,1,.879-.386c.324-.136.642-.318.962-.47.237-.112.708-.454.964-.432.1.009.285.168.39.211a2.161,2.161,0,0,0,.542.139c.492.059.725.678.982,1.056.2.288,1.181,1.383,1.006,1.688a.67.67,0,0,0-.061.5c.084.338.172.369-.111.654-.357.362-.736.7-1.1,1.055a6.356,6.356,0,0,0-.693.658c-.239.315-.379.724-.866.589l-2.462-.816c-.354-.117-1.047.069-1.3-.282-.149-.21-.018-.606.009-.84.041-.343.119-.681.156-1.025C40.463-.97,40.385-1.788,41-2.392Z"/>
      <g>
        <path class="cls-2" d="M15.99,7.189a.786.786,0,0,1-.048.078,2.9,2.9,0,0,1-.638.541c-.237.194-.457.425-.686.631-.17.152-.478.555-.7.6-.087.018-.279-.07-.378-.079a1.883,1.883,0,0,0-.486.018c-.426.073-.773-.386-1.082-.637-.236-.192-1.329-.862-1.259-1.16a.582.582,0,0,0-.072-.429c-.154-.261-.235-.265-.07-.573.209-.391.44-.771.66-1.155a5.578,5.578,0,0,0,.415-.721c.121-.322.137-.7.577-.707l2.257.07c.324.01.857-.317,1.152-.086.176.138.165.5.2.7.051.3.07.6.125.894A2.843,2.843,0,0,1,15.99,7.189Z"/>
        <path class="cls-2" d="M20,1.249c-.025-.026-.046-.05-.062-.07A2.906,2.906,0,0,1,19.6.4c-.118-.287-.276-.57-.408-.853-.1-.21-.4-.628-.374-.855.008-.09.151-.249.189-.342a1.89,1.89,0,0,0,.127-.477c.056-.435.6-.635.939-.859.256-.172,1.23-1.032,1.5-.875a.6.6,0,0,0,.437.057c.3-.071.327-.149.577.1.316.318.616.656.923.983a5.523,5.523,0,0,0,.576.616c.276.214.636.341.513.77L23.859.834c-.106.312.053.925-.259,1.143-.186.129-.535.011-.741-.015-.3-.039-.6-.111-.9-.146C21.248,1.735,20.525,1.8,20,1.249Z"/>
        <path class="cls-2" d="M17.338,9.647a.9.9,0,0,1,.079-.071A3.35,3.35,0,0,1,18.3,9.19c.324-.136.643-.318.962-.47.237-.112.708-.454.965-.432.1.009.284.168.389.211a2.161,2.161,0,0,0,.542.139c.493.059.725.678.982,1.056.2.288,1.181,1.383,1.006,1.688a.67.67,0,0,0-.061.5c.084.338.172.369-.11.654-.358.362-.737.7-1.105,1.055a6.449,6.449,0,0,0-.693.658c-.239.315-.379.724-.866.589l-2.462-.816c-.353-.117-1.047.069-1.3-.282-.149-.21-.018-.606.01-.84.04-.343.118-.681.155-1.025C16.8,11.069,16.722,10.251,17.338,9.647Z"/>
        <path class="cls-3" d="M24.627,3.7a1.028,1.028,0,0,1-.077-.087,3.651,3.651,0,0,1-.415-.967c-.146-.356-.343-.707-.506-1.058-.12-.261-.491-.78-.464-1.061.01-.112.187-.31.234-.425a2.334,2.334,0,0,0,.158-.592c.069-.539.75-.788,1.166-1.067.318-.213,1.526-1.28,1.859-1.085a.734.734,0,0,0,.543.071c.371-.089.405-.185.715.127.393.4.765.814,1.146,1.22a6.921,6.921,0,0,0,.715.765c.342.265.789.423.636.955Q29.88,1.84,29.42,3.183c-.131.387.066,1.148-.321,1.418-.231.161-.664.014-.92-.019-.375-.047-.746-.136-1.121-.18C26.179,4.3,25.283,4.379,24.627,3.7Z"/>
      </g>
    </pattern>
    <linearGradient id="linear-gradient" x1="174.789" y1="11.723" x2="188.014" y2="51.204" gradientUnits="userSpaceOnUse">
      <stop offset="0" stop-color="#4f5147"/>
      <stop offset="0.483" stop-color="#2c352f"/>
      <stop offset="0.684" stop-color="#202f2b"/>
      <stop offset="1" stop-color="#052021"/>
    </linearGradient>
  </defs>
  <g class="cls-4">
    <g id="Layer_8" data-name="Layer 8">
      <path class="cls-5" d="M141.406,73.992c.83,11.11,3.195,42.759-16.215,55.208-9.537,6.117-20.255,4.984-23.575,4.484C70.683,129.026,43.63,83.119,51.837,45.423c1.454-6.678,8.286-32.717,28.57-38.607,13.425-3.9,25.834,3.034,29.772,5.235C137.936,27.559,140.738,65.055,141.406,73.992Z"/>
      <path class="cls-6" d="M141.406,73.992c.83,11.11,3.195,42.759-16.215,55.208-9.537,6.117-20.255,4.984-23.575,4.484C70.683,129.026,43.63,83.119,51.837,45.423c1.454-6.678,8.286-32.717,28.57-38.607,13.425-3.9,25.834,3.034,29.772,5.235C137.936,27.559,140.738,65.055,141.406,73.992Z"/>
    </g>
    <g id="Layer_4" data-name="Layer 4">
      <path class="cls-5" d="M133.915,127.685c-15.35,14.14-39.75,17.51-59.41,21.42-2.09.41-4.18.87-6.26,1.35-.96.22-1.92.46-2.88.69a14,14,0,0,1-2.92.72,179.6,179.6,0,0,1-33.7,5.32,3.473,3.473,0,0,1-3.66-3.02,6.887,6.887,0,0,1,.41-3.33,196.813,196.813,0,0,0,8.62-32.57c4.76-25.21,6.72-51.28,15.24-75.49.29-.83,3-7.13,4.9-11.44a.774.774,0,0,1,.07-.16c.74-1.69,1.35-3.06,1.62-3.63.12-.26.27,1.1.52,3.65.12,1.22.27,2.73.45,4.46a52.306,52.306,0,0,0-2.74,16.38c0,.96.01,1.91.03,2.86l.01.31c.13,6.58.53,26.6,13.82,44.06a87.292,87.292,0,0,0,28.93,23.9c8.42,4.22,16.01,5.98,22.1,5.21.15.65.31,1.3.46,1.96s.31,1.31.46,1.97c.31,1.31.62,2.62.92,3.94Q127.415,131.955,133.915,127.685Z"/>
      <path class="cls-7" d="M133.915,127.685c-15.35,14.14-39.75,17.51-59.41,21.42-2.09.41-4.18.87-6.26,1.35-.96.22-1.92.46-2.88.69a14,14,0,0,1-2.92.72,179.6,179.6,0,0,1-33.7,5.32,3.473,3.473,0,0,1-3.66-3.02,6.887,6.887,0,0,1,.41-3.33,196.813,196.813,0,0,0,8.62-32.57c4.76-25.21,6.72-51.28,15.24-75.49.29-.83,3-7.13,4.9-11.44a.774.774,0,0,1,.07-.16c.74-1.69,1.35-3.06,1.62-3.63.12-.26.27,1.1.52,3.65.12,1.22.27,2.73.45,4.46a52.306,52.306,0,0,0-2.74,16.38c0,.96.01,1.91.03,2.86l.01.31c.13,6.58.53,26.6,13.82,44.06a87.292,87.292,0,0,0,28.93,23.9c8.42,4.22,16.01,5.98,22.1,5.21.15.65.31,1.3.46,1.96s.31,1.31.46,1.97c.31,1.31.62,2.62.92,3.94Q127.415,131.955,133.915,127.685Z"/>
    </g>
    <g id="Layer_20" data-name="Layer 20">
      <path class="cls-8" d="M76.5,17.141a2.619,2.619,0,0,0,1.441-.318c.386-.251.6-.655,1-2.262a9.206,9.206,0,0,0,.488-2.915c-.125-.859-.625-2.351-1.517-2.5-.61-.1-.7.613-2.525,1.727-.881.537-1.774,1.056-2.62,1.646a14.09,14.09,0,0,0-1.2.933c-.327.288-.783.628-.787,1.108-.009.939,1.446,1.524,2.146,1.827A9.093,9.093,0,0,0,76.5,17.141Z"/>
    </g>
    <g id="Layer_13" data-name="Layer 13">
      <path class="cls-9" d="M117.781,128.294c.858,2.811,1.249,6.721-1.456,7.871a20.3,20.3,0,0,1-2.343.547c-2.87.835-4.011,4.21-6.076,6.372-4.181,4.378-11.463,3.252-16.92,5.874-8.557,4.111-10.123,15.7-16.679,22.567-.812.85-2.1,1.667-3.069,1.009-.782-.528-.792-1.641-1.021-2.556-.6-2.411-3.072-3.857-5.445-4.6s-4.942-1.084-6.98-2.506-3.253-4.485-1.7-6.421c.516-.641,1.306-1.144,1.444-1.955.152-.894-.56-1.669-1.028-2.446-2.627-4.358,2.194-9.522,2.391-14.607.092-2.387-.854-4.893.062-7.1s3.414-3.346,4.808-5.305c1.26-1.769,1.511-4.041,1.722-6.2q.777-7.948,1.552-15.9c.03,3.61-3.717,5.988-7.11,7.22s-7.32,2.382-8.918,5.62c-1.856,3.76-.02,9.407-3.551,11.67-2.282,1.464-5.363.287-7.462-1.428s-3.839-3.976-6.334-5.038a8.059,8.059,0,0,0-10.367,4.676l-5.041-3.878c-1.656-1.274-2.263-4.967-.873-6.527s3.513-2.2,5.522-2.776a8.925,8.925,0,0,1-1.511-3.073,3.043,3.043,0,0,1,1.012-3.094c1.228-.853,3.054-.339,4.263-1.217a5.836,5.836,0,0,0,1.379-1.922,8.967,8.967,0,0,1,5.881-4.2c.383-.384.9-1.036,1.429-.9A9.329,9.329,0,0,0,25.7,92.615a9.329,9.329,0,0,0-7.692,8.008,7.967,7.967,0,0,1-7.359-5.567c-1.4-1.2-3.507-.984-5.331-1.255S1.4,92.3,1.6,90.466A6.423,6.423,0,0,1,3.04,87.848c2.207-3.334,1.025-7.8-.493-11.5S-.794,68.64.37,64.814c.616-2.026,2.049-3.852,2.032-5.97a8.087,8.087,0,0,1,.014-2.883,4.153,4.153,0,0,1,1.491-1.7,68.948,68.948,0,0,1,14.331-8.537c-2.387,1.167-5.986.172-8.25-1.218a23.877,23.877,0,0,1-5.673-5.544c1.43.13,2.491-1.389,2.718-2.807S7,33.257,7.4,31.878c.348-1.208,1.173-2.223,1.617-3.4s.359-2.748-.721-3.391a8.225,8.225,0,0,0,2.566-3.609l.144-.4A68.745,68.745,0,0,1,36.17,9.763c6.61-1.462,17.446-3.859,28.809.46,5.846,2.222,4.148,3.3,11.85,6.586,9.354,3.989,15.421,3.917,21.805,9.613a27.517,27.517,0,0,1,4.053,4.522c9.9,55.2,15.482,75.324,18.766,80.18a13.128,13.128,0,0,1,2.3,6.873C123.845,122.03,120.431,125.252,117.781,128.294Z"/>
      <path class="cls-10" d="M118.608,97.687c-.393,9.808-12.036,17.1-10.7,26.822.31,2.249,1.3,4.653.264,6.671-1.031,2-3.629,2.62-5.877,2.475s-4.489-.821-6.718-.493c-4.832.71-7.672,5.621-10.119,9.848s-6.262,8.808-11.1,8.155a14.543,14.543,0,0,0,2.085-19.3,36.233,36.233,0,0,1,9.85-12.78,19.27,19.27,0,0,1,.119-9.078c1.065-4.132,3.465-7.777,5.131-11.7s2.55-8.592.554-12.364c-7.794,4.98-18.315,1.151-26.555,5.35a26.584,26.584,0,0,0-5.521,4c-5.331,4.759-10.156,10.82-10.752,17.942a13.552,13.552,0,0,0-11.383-3.165c.939.507,2.015-.554,2.248-1.595s.075-2.194.6-3.12c.762-1.331,2.542-1.581,3.845-2.391,3.627-2.256,2.7-7.965,5.258-11.389,1.28-1.717,3.314-2.685,4.888-4.136s2.671-3.941,1.445-5.7c-3.067,1.895-6.554,3.868-10.07,3.072-2.116-.48-3.878-1.905-5.862-2.783a12.222,12.222,0,0,0-13.527,2.778,7.4,7.4,0,0,0-5.873-2.364c4.087-4.815,2.079-12.231-1.025-17.731a4.748,4.748,0,0,1-.864-2.52,4.305,4.305,0,0,1,1.028-2.2A37.806,37.806,0,0,1,40.4,46.144c2.406-.641,1.069-5.061-.852-6.644s-4.521-1.98-6.959-2.485-5.043-1.31-6.47-3.35l1.643-8.706c.236-1.252.65-2.719,1.857-3.125,1.05-.353,2.344.269,3.25-.369.627-.443.77-1.3,1.183-1.946.779-1.225,2.392-1.556,3.831-1.745,5.839-.769,11.6-1.287,17.289.225,6.363,1.69,18.809,19.1,24.3,15.2,16.152,25.275,26.78,32.436,39.16,59.757C119.563,95,120.261,96.163,118.608,97.687Z"/>
    </g>
    <g id="Layer_7" data-name="Layer 7">
      <g>
        <path class="cls-11" d="M156.29,76.068v10.06l-15.93,8.54-.01.01-72.48,38.87c-.34-1.39-.73-2.94-1.02-4.09a5.475,5.475,0,0,1,.31-3.57c.18-.4.37-.8.58-1.21.02-.03.04-.07.06-.1a5.342,5.342,0,0,1,2.24-2.25l56.19-30.14.03-.01.06-.03Z"/>
        <path class="cls-12" d="M156.29,86.128v7.81L99.5,124.4l-.02.02-.02.01-23.18,12.43a1.333,1.333,0,0,1-.44.14,20.819,20.819,0,0,1-6.2.07,1.356,1.356,0,0,1-1.14-1.02c-.16-.62-.38-1.53-.63-2.5l72.48-38.87.01-.01Z"/>
      </g>
      <g>
        <path class="cls-11" d="M156.29,60.488l.54-.26v9.81l-.54.25L51.35,120.118c-.28-1.41-.6-2.97-.83-4.13a5.482,5.482,0,0,1,.49-3.56c.2-.38.41-.77.64-1.17a.879.879,0,0,1,.06-.1,5.351,5.351,0,0,1,2.35-2.14Z"/>
        <path class="cls-12" d="M156.83,70.038v5.74l-.54.29v1.85l-29.97,14.23-.06.03-.03.01-66.65,31.64a1.173,1.173,0,0,1-.44.13,21.509,21.509,0,0,1-2.75.12,22.41,22.41,0,0,1-3.45-.35,1.378,1.378,0,0,1-1.09-1.08c-.13-.63-.31-1.54-.5-2.53l104.94-49.83Z"/>
      </g>
      <g>
        <path class="cls-11" d="M156.83,22.338v8.94l-.54.08L25.32,49.748c.15-1.42.32-3.01.45-4.19a5.438,5.438,0,0,1,1.53-3.24q.45-.465.96-.93a.647.647,0,0,1,.09-.08,5.343,5.343,0,0,1,2.88-1.34l125.06-17.56Z"/>
        <path class="cls-12" d="M156.29,31.358l.54-.08v6.96l-.54.07L32.06,55.758a1.421,1.421,0,0,1-.46-.01,21.764,21.764,0,0,1-2.66-.71,21.347,21.347,0,0,1-3.18-1.37,1.356,1.356,0,0,1-.72-1.35c.07-.64.17-1.57.28-2.57Z"/>
      </g>
      <g>
        <path class="cls-11" d="M156.82,93.658l-.53.39-89.61,65.18c-.53-1.33-1.13-2.81-1.57-3.91a5.432,5.432,0,0,1-.17-3.58c.12-.41.26-.84.41-1.27a.358.358,0,0,1,.04-.11,5.413,5.413,0,0,1,1.91-2.54l32.16-23.39.02-.01.02-.02,40.85-29.72.01-.01,15.93-11.59v10.86Z"/>
        <path class="cls-12" d="M156.83,93.648v8.52l-.54.39-80.83,58.8a1.143,1.143,0,0,1-.41.21,22.148,22.148,0,0,1-2.68.63,21.116,21.116,0,0,1-3.46.28,1.336,1.336,0,0,1-1.26-.85c-.24-.6-.59-1.46-.97-2.4l89.61-65.18.53-.39Z"/>
      </g>
    </g>
    <g id="Layer_10" data-name="Layer 10">
      <path class="cls-13" d="M133.794,41.842,24.117,38.756a6.4,6.4,0,0,1-4.709-2.348,6.529,6.529,0,0,1,4.831-1.972l109.676,3.086Z"/>
      <path class="cls-13" d="M148.207,36.549,38.531,33.462a6.4,6.4,0,0,1-4.71-2.348,6.533,6.533,0,0,1,4.831-1.972l109.677,3.087Z"/>
      <path class="cls-13" d="M146.864,39.58,38.4,23.049a6.4,6.4,0,0,1-4.385-2.909,6.533,6.533,0,0,1,5.037-1.364L147.515,35.307Z"/>
      <path class="cls-13" d="M145.106,41.86,40.037,10.255a6.4,6.4,0,0,1-3.934-3.5,6.531,6.531,0,0,1,5.178-.643l105.07,31.6Z"/>
      <path class="cls-13" d="M121.841,30.548,77.171,17.111c-1.22-.146-.961-3.852-.961-3.852s1.816-3.1,2.879-2.526l44.67,13.437Z"/>
      <path class="cls-13" d="M166.575,69.449,61.456,100.887a6.4,6.4,0,0,1-5.208-.754,6.528,6.528,0,0,1,3.97-3.386L165.337,65.308Z"/>
      <path class="cls-13" d="M151.358,73.553,58.016,131.222a6.4,6.4,0,0,1-5.225.624,6.527,6.527,0,0,1,2.953-4.3l93.342-57.669Z"/>
    </g>
    <g id="Layer_11" data-name="Layer 11">
      <g>
        <path class="cls-14" d="M44.115,72.262,41.268,83.285c-2.3,8.894-1.881,15.771.924,15.28L173.2,75.673V49.706Z"/>
        <path class="cls-15" d="M173.2,29.524,54.674,50.235c-2.806.49-6.98,8.169-9.277,17.063l-1.282,4.964L173.2,49.706Z"/>
      </g>
    </g>
    <g id="Layer_12" data-name="Layer 12">
      <g>
        <path class="cls-16" d="M56.919,86.576c.868.029,1.891.03,3.067-.025.921-.043,1.789-.113,2.578-.194a3.42,3.42,0,0,0,.448-.078L256.9,40.15c2.818-.67,4.878-2.088,4.577-3.15l-.168-.593L56.614,85.107c-.137.415-.265.8-.352,1.063C56.185,86.4,56.443,86.561,56.919,86.576Z"/>
        <path class="cls-17" d="M260.777,34.273c-.447-1.7-3.116-2.529-5.932-1.847L62.476,79.025a7.95,7.95,0,0,0-2.815,1.255l-.084.062q-.489.363-.926.716a5.729,5.729,0,0,0-.966,1.026,5.4,5.4,0,0,0-.821,1.988c-.137.47-.3,1.037-.465,1.684L261.331,36.377Z"/>
      </g>
      <g>
        <path class="cls-16" d="M49.4,76.933c.869.029,1.892.029,3.068-.025.921-.043,1.789-.114,2.577-.2a3.4,3.4,0,0,0,.449-.077L249.378,30.507c2.819-.671,4.879-2.089,4.578-3.151l-.168-.593L49.1,75.463l-.353,1.063C48.668,76.757,48.925,76.917,49.4,76.933Z"/>
        <path class="cls-17" d="M253.26,24.629c-.447-1.7-3.116-2.529-5.933-1.847L54.958,69.381a7.971,7.971,0,0,0-2.814,1.255l-.084.062c-.326.242-.635.482-.927.716a5.708,5.708,0,0,0-.965,1.026,5.405,5.405,0,0,0-.821,1.988c-.137.47-.3,1.038-.465,1.684L253.813,26.734Z"/>
      </g>
      <g>
        <path class="cls-16" d="M57.015,57c.855.158,1.867.31,3.038.431.917.094,1.786.154,2.577.191a3.494,3.494,0,0,0,.456-.01l198.585-16.8c2.888-.244,5.135-1.34,5-2.435l-.078-.612L56.933,55.5l-.507,1C56.316,56.719,56.547,56.916,57.015,57Z"/>
        <path class="cls-17" d="M266.383,35.579c-.189-1.746-2.7-2.965-5.592-2.709L63.633,50.36a7.97,7.97,0,0,0-2.97.823l-.092.049c-.359.191-.7.381-1.023.57a5.745,5.745,0,0,0-1.107.871,5.418,5.418,0,0,0-1.107,1.844c-.206.444-.448.982-.711,1.6l210-18.371Z"/>
      </g>
    </g>
    <g id="Layer_17" data-name="Layer 17">
      <g>
        <circle class="cls-18" cx="122.359" cy="58.57" r="10.228"/>
        <circle class="cls-19" cx="117.536" cy="55.197" r="1.768"/>
      </g>
      <g>
        <circle class="cls-18" cx="107.783" cy="65.097" r="10.228"/>
        <circle class="cls-19" cx="102.959" cy="61.723" r="1.768"/>
      </g>
      <g>
        <circle class="cls-18" cx="108.237" cy="82.897" r="10.228"/>
        <circle class="cls-19" cx="103.414" cy="79.524" r="1.768"/>
      </g>
      <g>
        <circle class="cls-18" cx="121.749" cy="75.555" r="10.228"/>
        <circle class="cls-19" cx="116.925" cy="72.182" r="1.768"/>
      </g>
      <g>
        <circle class="cls-18" cx="115.526" cy="97.453" r="10.228"/>
        <circle class="cls-19" cx="110.703" cy="94.08" r="1.768"/>
      </g>
      <g>
        <circle class="cls-18" cx="125.884" cy="90.391" r="10.228"/>
        <circle class="cls-19" cx="121.06" cy="87.018" r="1.768"/>
      </g>
      <g>
        <circle class="cls-18" cx="131.428" cy="105.23" r="10.228"/>
        <circle class="cls-19" cx="126.605" cy="101.857" r="1.768"/>
      </g>
    </g>
    <g id="Layer_9" data-name="Layer 9">
      <path class="cls-8" d="M79.215,11.863c-.453,2.346-.348,5.611,1.986,6.119,2.849.618,4.679-4.079,6.516-5.6-2.227,1.841-.9,5.814,1.622,6.63,3.024.98,5.062-1.339,6.65-3.452.223-.3.1,2.976.078,3.138-.2,1.22-.8,2.635.182,3.7,1.141,1.226,3.222.43,4.471-.7.839-.759,2.53-4.125,2.964-2.486.573,2.163-.427,3.977-.252,5.44.189,1.582,2.1,2.468,3.666,2.159a8.774,8.774,0,0,0,3.991-2.513,4.677,4.677,0,0,0,1.457,5.728,4.4,4.4,0,0,0,5.776-.864c-.816,1.862-3.322,6.227-1.964,8.233.526.775,5.542,1.85,6.1.972a11.561,11.561,0,0,0-2.169,4.975c-.169,1.82.807,3.887,2.585,4.307,1.267.3,3.376.713,2.711,1.832-2.124.05-3.033,3.189-1.7,4.847,1.2,1.5,5.139.084,5.868,1.369.5.882-4.332,2.913-4.328,6.592,1.51,3.88,6.466,1.988,6.783,3.055.369,1.245-1.481,2.289-2.1,6.227a6.3,6.3,0,0,0,.177,3.476,2.526,2.526,0,0,0,2.805,1.595,5.532,5.532,0,0,0-2.635,5.439,4.432,4.432,0,0,0,4.542,3.654c-2.172,1.142-4.674,2.857-4.44,5.3a3.211,3.211,0,0,0,2.746,2.794,3.447,3.447,0,0,0-1.348,4.83c.248.37.589.749.53,1.191-.056.425-.456.7-.788.974a4.631,4.631,0,0,0,1.5,7.977,17.923,17.923,0,0,0-6.473,5.568c-1.269,2.064-.894,5.319,1.343,6.249a5.992,5.992,0,0,0-1.416,5.943l.61.121c6.125-4.118,8.131-8.045,8.788-10.956.216-.959.133-1.129.729-5.052.74-4.879,1.255-7.161,1.606-9.311a76.651,76.651,0,0,0,.584-12.612c-.8-38.659-16.231-60.839-16.232-60.84-5.443-7.826-12.344-17.747-25.223-21.253A38.167,38.167,0,0,0,77.541,6.9a6.192,6.192,0,0,0,.025,1.492A6.658,6.658,0,0,0,79.215,11.863Z"/>
    </g>
    <g id="Layer_6" data-name="Layer 6">
      <path class="cls-20" d="M283.08,30.568a27.679,27.679,0,0,1-7.65,7.75c-7.89,5.58-17.15,9.62-25.45,14.59-14.38,8.6-28.74,17.26-42.73,26.48q-5.175,3.405-10.34,6.81T186.58,93q-5.16,3.4-10.33,6.81t-10.34,6.8q-5.16,3.405-10.33,6.81t-10.33,6.8q-5.175,3.4-10.33,6.81c-.33.21-.65.43-.98.64l-.02.02q-6.51,4.275-13.01,8.56c-.3-1.32-.61-2.63-.92-3.94-.07-.28-.13-.55-.19-.83l2.24-3.71a16.283,16.283,0,0,0,3.57-1.53,17.333,17.333,0,0,0,3.79-3.01c5.91-6.19,7.14-16.21,7.5-23.7.94-19.26-.51-46.64-12.74-67.77a61.855,61.855,0,0,0-9.76-12.79c-5.84-5.82-11.88-9.44-17.95-10.76a31.15,31.15,0,0,0-7.55-.73,29.013,29.013,0,0,0-17.5,6.5c-1.31-.88-2.04-1.6-3.41-2.37L68,11.6a33.536,33.536,0,0,1,20.27-8.08c16.03-1.68,38.89-3.87,63.25-3.47,21.58.35,37.9,1.99,42.74,2.5,2.46.26,4.91.54,7.37.84,18.86,2.31,37.59,5.59,56.43,8.09,6.31.83,12.88,1.48,19.05,3.17,2.5.69,5.1,1.58,6.49,3.93.09.15.17.3.25.45C285.97,23.158,285.19,27.118,283.08,30.568Z"/>
      <path class="cls-7" d="M283.08,30.568a27.679,27.679,0,0,1-7.65,7.75c-7.89,5.58-17.15,9.62-25.45,14.59-14.38,8.6-28.74,17.26-42.73,26.48q-5.175,3.405-10.34,6.81T186.58,93q-5.16,3.4-10.33,6.81t-10.34,6.8q-5.16,3.405-10.33,6.81t-10.33,6.8q-5.175,3.4-10.33,6.81c-.33.21-.65.43-.98.64l-.02.02q-6.51,4.275-13.01,8.56c-.3-1.32-.61-2.63-.92-3.94-.07-.28-.13-.55-.19-.83l2.24-3.71a16.283,16.283,0,0,0,3.57-1.53,17.333,17.333,0,0,0,3.79-3.01c5.91-6.19,7.14-16.21,7.5-23.7.94-19.26-.51-46.64-12.74-67.77a61.855,61.855,0,0,0-9.76-12.79c-5.84-5.82-11.88-9.44-17.95-10.76a31.15,31.15,0,0,0-7.55-.73,29.013,29.013,0,0,0-17.5,6.5c-1.31-.88-2.04-1.6-3.41-2.37L68,11.6a33.536,33.536,0,0,1,20.27-8.08c16.03-1.68,38.89-3.87,63.25-3.47,21.58.35,37.9,1.99,42.74,2.5,2.46.26,4.91.54,7.37.84,18.86,2.31,37.59,5.59,56.43,8.09,6.31.83,12.88,1.48,19.05,3.17,2.5.69,5.1,1.58,6.49,3.93.09.15.17.3.25.45C285.97,23.158,285.19,27.118,283.08,30.568Z"/>
    </g>
  </g>
</svg>
