<?xml version="1.0" encoding="utf-8"?>
<!-- Generator: Adobe Illustrator 25.2.1, SVG Export Plug-In . SVG Version: 6.00 Build 0)  -->
<svg version="1.1" id="Layer_4" xmlns="http://www.w3.org/2000/svg" xmlns:xlink="http://www.w3.org/1999/xlink" x="0px" y="0px"
	 viewBox="0 0 90.944 74.628" style="enable-background:new 0 0 90.944 74.628;" xml:space="preserve">
<style type="text/css">
	.st0{fill:#161313;}
	.st1{fill:none;stroke:#4D4D4D;stroke-linecap:round;stroke-miterlimit:10;}
	.st2{fill:#FF0022;stroke:#FF0022;stroke-miterlimit:10;}
	.st3{fill:#F2F2F2;}
	.st4{fill:none;stroke:#000000;stroke-miterlimit:10;}
	.st5{fill:none;stroke:#FF0022;stroke-linecap:round;stroke-miterlimit:10;}
	.st6{fill:#E68FBA;stroke:#E68FBA;stroke-miterlimit:10;}
	.st7{fill:none;stroke:#9E7523;stroke-width:1.5;stroke-linecap:round;stroke-miterlimit:10;}
	.st8{fill:#9E7523;}
</style>
<g id="left_arm">
	<path class="st0" d="M6.834,45.498c-0.42,1.51-0.76,2.69-0.97,3.43c-4.51-9.14-5.58-17-5.84-21.79c0,0-0.57-10.83,3.88-16.31
		c0.45-0.56,1.49-1.79,3.11-2.09c0,0,0.44-0.08,1.15,0.02h0.01c0.81,0.1,1.96,0.43,3.2,1.34
		C15.374,13.028,9.514,35.848,6.834,45.498z"/>
	<path d="M6.834,45.498c-0.39-1.21-0.86-2.44-0.95-2.8c-0.69-2.98-1.68-5.88-2.17-8.92c-1.19-7.41-1.11-17.74,3.62-24.05
		c0.28-0.37,0.55-0.69,0.83-0.97h0.01c0.81,0.1,1.96,0.43,3.2,1.34C15.374,13.028,9.514,35.848,6.834,45.498z"/>
</g>
<path class="st0" d="M90.944,39.148c0,1.12-0.04,2.22-0.12,3.32c-0.55,7.43-2.92,14.36-6.66,20.3c-2.83,4.5-7.19,7.7-12.21,8.96
	c-7.48,1.88-15.58,2.9-24.05,2.9c-8.48,0-16.59-1.02-24.08-2.91c-5.01-1.26-9.37-4.46-12.2-8.96c-4.29-6.81-6.77-14.92-6.77-23.61
	c0-16.7,9.14-31.2,22.61-38.61c1.82-1,4.05-0.55,5.38,1.1c4,4.98,9.28,8,15.06,8c5.79,0,11.06-3.04,15.05-8.01
	c1.33-1.65,3.56-2.1,5.39-1.1c10.57,5.83,18.48,16.04,21.39,28.24C90.524,32.098,90.944,35.578,90.944,39.148z"/>
<g id="left_paw">
	<path class="st0" d="M17.794,12.458c0.04,2.82-2.93,5.37-6.84,5.78c-4.07,0.43-7.63-1.63-7.94-4.59c-0.03-0.29-0.03-0.58,0-0.86
		c0.29-2.62,3.14-4.9,6.81-5.29c4.08-0.43,7.64,1.63,7.95,4.59C17.784,12.208,17.794,12.338,17.794,12.458z"/>
	<path d="M17.794,12.458c0.04,2.82-2.93,5.37-6.84,5.78c-4.07,0.43-7.63-1.63-7.94-4.59c-0.03-0.29-0.03-0.58,0-0.86
		c0.79,1.1,2.15,2.58,4.25,3.28C10.734,17.218,14.924,15.818,17.794,12.458z"/>
	<g id="Layer_11">
		<line class="st1" x1="7.16" y1="14.586" x2="6.187" y2="16.85"/>
		<line class="st1" x1="10.885" y1="15.024" x2="11.039" y2="17.483"/>
		<line class="st1" x1="14.132" y1="13.718" x2="15.875" y2="15.46"/>
	</g>
</g>
<g id="neko">
	<ellipse class="st2" cx="72.566" cy="54.908" rx="9.466" ry="13.179"/>
	<g>
		<path class="st3" d="M72.566,43.184c4.527,0,8.21,5.259,8.21,11.724s-3.683,11.724-8.21,11.724c-4.527,0-8.21-5.259-8.21-11.724
			S68.039,43.184,72.566,43.184 M72.566,42.434c-4.949,0-8.96,5.585-8.96,12.474c0,6.889,4.012,12.474,8.96,12.474
			c4.949,0,8.96-5.585,8.96-12.474C81.526,48.018,77.515,42.434,72.566,42.434L72.566,42.434z"/>
	</g>
	<g>
		<path class="st3" d="M68.866,52.827l-0.026-0.126c-0.036-0.132-0.017-0.258,0.058-0.378c0.075-0.12,0.182-0.198,0.32-0.234
			c2.346-0.594,4.109-1.515,5.292-2.763c0.012-0.006,0.013-0.017,0.004-0.031c-0.009-0.016-0.02-0.022-0.031-0.022h-4.68
			c-0.139,0-0.259-0.051-0.36-0.153c-0.102-0.102-0.153-0.222-0.153-0.36v-0.062c0-0.138,0.052-0.257,0.153-0.355
			c0.102-0.1,0.222-0.148,0.36-0.148h2.079c0.054,0,0.081-0.027,0.081-0.081v-0.675c0-0.139,0.049-0.257,0.148-0.355
			c0.099-0.1,0.217-0.148,0.355-0.148h0.242c0.139,0,0.259,0.049,0.36,0.148c0.102,0.099,0.153,0.217,0.153,0.355v0.675
			c0,0.054,0.023,0.081,0.071,0.081h2.232c0.138,0,0.258,0.049,0.36,0.148c0.102,0.099,0.152,0.218,0.152,0.355v0.062
			c0,0.366-0.096,0.676-0.288,0.928c-0.384,0.516-0.854,0.98-1.412,1.395c-0.043,0.03-0.046,0.058-0.01,0.081
			c0.504,0.36,1.083,0.786,1.737,1.278c0.114,0.084,0.179,0.194,0.193,0.333c0.015,0.138-0.022,0.261-0.112,0.369l-0.099,0.107
			c-0.091,0.108-0.206,0.171-0.347,0.189c-0.142,0.018-0.269-0.016-0.383-0.1c-0.54-0.407-1.194-0.885-1.962-1.431
			c-0.024-0.012-0.057-0.048-0.099-0.108c-0.019-0.012-0.03-0.015-0.036-0.009s-0.009,0.019-0.009,0.036
			c0,0.006,0.001,0.018,0.004,0.036c0.003,0.018,0.005,0.033,0.005,0.045v2.313c0,0.138-0.052,0.256-0.153,0.355
			c-0.102,0.099-0.222,0.148-0.36,0.148h-0.242c-0.139,0-0.257-0.05-0.355-0.148c-0.1-0.1-0.148-0.218-0.148-0.355v-1.737
			c0-0.054-0.024-0.069-0.072-0.045c-0.696,0.288-1.494,0.543-2.395,0.765c-0.138,0.036-0.269,0.017-0.392-0.059
			S68.903,52.965,68.866,52.827z"/>
		<path class="st3" d="M69.776,63.096c-0.138,0-0.258-0.049-0.36-0.148c-0.102-0.099-0.152-0.217-0.152-0.355v-0.062
			c0-0.138,0.051-0.258,0.152-0.36c0.103-0.102,0.223-0.152,0.36-0.152h4.689c0.054,0,0.081-0.024,0.081-0.072v-4.05
			c0-0.048-0.027-0.072-0.081-0.072h-4.689c-0.138,0-0.258-0.051-0.36-0.153c-0.102-0.102-0.152-0.222-0.152-0.359v-0.063
			c0-0.138,0.051-0.257,0.152-0.355c0.103-0.099,0.223-0.148,0.36-0.148h5.463c0.138,0,0.257,0.05,0.355,0.148
			c0.1,0.099,0.148,0.218,0.148,0.355v5.346c0,0.139-0.049,0.257-0.148,0.355c-0.099,0.1-0.218,0.148-0.355,0.148H69.776z"/>
	</g>
</g>
<g id="right_arm">
	<path class="st4" d="M90.824,42.468c0,0-2.01-0.175-2.981-0.042c-0.853,0.117-1.72,0.249-2.514,0.599
		c-0.687,0.303-1.317,0.77-1.956,1.162"/>
	<g>
		<path class="st0" d="M90.944,39.148c0,1.12-0.04,2.22-0.12,3.32c-1.78-0.18-3.54-0.14-5.21,0.41c-0.1,0.04-0.2,0.08-0.3,0.12
			c-5.02,2.01-7.71,3.25-8.38,3.86c-0.05,0.05-0.25,0.23-0.51,0.23c-0.24,0-0.44-0.16-0.6-0.34l-0.7-0.47
			c-0.29-0.03-0.51-0.11-0.65-0.18c-0.42-0.2-0.8-0.56-0.8-0.56s-0.2-0.55-0.59-1.65c-0.25-0.69-0.57-1.58-0.98-2.7
			c-0.24-0.69-0.52-1.46-0.83-2.32c0.01-0.01,0.01-0.02,0.01-0.03c0.33-0.99,0.93-1.94,1.81-2.78c2.82-2.7,6.83-3.96,10.42-5.26
			c2.05-0.74,4.13-1.42,6.22-2.03c0.07,0.31,0.14,0.62,0.21,0.93C90.643,32.795,90.944,35.975,90.944,39.148z"/>
	</g>
	<path class="st0" d="M84.964,45.188c-0.06,0.14-0.13,0.28-0.2,0.41c-1.46,2.61-5.38,3.48-9.02,1.91c-1.11-0.48-2.08-1.13-2.85-1.89
		c-0.03-0.02-0.06-0.05-0.09-0.08c-0.08-0.09-0.17-0.18-0.25-0.27c-0.06-0.07-0.12-0.14-0.18-0.2s-0.12-0.14-0.19-0.23
		c-0.47-0.67-1.11-2.05-1.21-2.95c-0.11-1.03,0.04-2.07,0.18-2.6c0.05-0.2,0.08-0.31,0.12-0.42c0.01-0.01,0.01-0.02,0.01-0.03
		c0.01-0.02,0.02-0.04,0.03-0.06c0.75-1.32,2.12-2.18,3.77-2.51c1.59-0.31,3.44-0.13,5.22,0.63c2.91,1.25,4.82,3.71,5.01,6.1
		C85.374,43.738,85.264,44.488,84.964,45.188z"/>
	<path d="M84.964,45.188c-0.06,0.14-0.13,0.28-0.2,0.41c-0.21,0.08-0.44,0.13-0.66,0.16c-0.51,0.07-1.27,0.16-1.54-0.4
		c-0.14-0.3-0.09-0.65,0.08-0.93c0.14-0.22,0.35-0.4,0.57-0.56c0.65-0.47,1.36-0.7,2.1-0.87
		C85.374,43.738,85.264,44.488,84.964,45.188z"/>
	<path d="M89.944,29.698c-2.65,0.92-5.32,1.79-7.95,2.8c-2.2,0.86-4.88,2.06-6.91,3.77c-1.55,1.32-2.71,2.94-2.98,4.92
		c-0.06,0.45-0.08,0.91-0.04,1.4c0.07,0.93,0.51,2.21,0.83,3.03c-0.03-0.02-0.06-0.05-0.09-0.08c-0.08-0.09-0.17-0.18-0.25-0.27
		c-0.06-0.07-0.12-0.14-0.18-0.2s-0.12-0.14-0.19-0.23c-0.47-0.67-1.11-2.05-1.21-2.95c-0.11-1.03,0.04-2.07,0.18-2.6
		c0.05-0.2,0.08-0.31,0.12-0.42c0.01-0.01,0.01-0.02,0.01-0.03c0.33-0.99,0.93-1.94,1.81-2.78c2.82-2.7,6.83-3.96,10.42-5.26
		c2.05-0.74,4.13-1.42,6.22-2.03C89.804,29.078,89.874,29.388,89.944,29.698z"/>
</g>
<g id="mouth">
	<line class="st5" x1="47.899" y1="33.989" x2="47.899" y2="38.179"/>
	<path class="st5" d="M47.899,38.179c-0.171,0.238-0.961,1.28-2.378,1.514c-1.341,0.221-2.727-0.368-3.604-1.514"/>
	<path class="st5" d="M47.899,38.179c0.171,0.238,0.961,1.28,2.378,1.514c1.341,0.221,2.727-0.368,3.604-1.514"/>
</g>
<path id="nose" class="st6" d="M45.555,33.399c0-0.68,1.049-1.231,2.343-1.231c1.294,0,2.343,0.551,2.343,1.231
	c0,0.68-0.871,2.141-2.343,2.141C46.427,35.54,45.555,34.079,45.555,33.399z"/>
<g id="eyes">
	<path class="st7" d="M64.982,26.484c-0.612-0.412-1.71-1.016-3.168-1.121c-3.436-0.248-5.736,2.497-5.998,2.819"/>
	<path class="st7" d="M30.816,26.484c0.612-0.412,1.71-1.016,3.168-1.121c3.436-0.248,5.736,2.497,5.998,2.819"/>
</g>
<g id="ears">
	<path class="st2" d="M24.729,7.215c0.481-0.439,0.98-0.859,1.49-1.264c0.832-0.662,1.79-1.496,2.899-1.551
		c0.195-0.01,0.394,0.001,0.578,0.068c0.578,0.21,1.073,0.727,1.531,1.123c0.314,0.271,0.621,0.55,0.921,0.836
		c0.145,0.139,0.289,0.279,0.431,0.421c0.106,0.106,0.306,0.347,0.306,0.347c-1.048-0.202-2.312-0.365-3.747-0.384
		C27.416,6.788,25.921,6.979,24.729,7.215z"/>
	<path class="st2" d="M71.872,7.215c-0.481-0.439-0.98-0.859-1.49-1.264c-0.832-0.662-1.79-1.496-2.899-1.551
		c-0.195-0.01-0.394,0.001-0.578,0.068c-0.578,0.21-1.073,0.727-1.531,1.123c-0.314,0.271-0.621,0.55-0.921,0.836
		c-0.145,0.139-0.289,0.279-0.431,0.421c-0.106,0.106-0.306,0.347-0.306,0.347c1.048-0.202,2.312-0.365,3.747-0.384
		C69.186,6.788,70.681,6.979,71.872,7.215z"/>
</g>
<g id="left_whiskers">
	<path class="st8" d="M32.166,34.292c0.114,0.036,0.32,0.105,0.494,0.167c0.21,0.075,0.421,0.155,0.633,0.239
		c0.2,0.079,0.401,0.163,0.602,0.251c0.101,0.044,0.202,0.089,0.303,0.135c0.051,0.023,0.101,0.047,0.152,0.07
		c0.139,0.064-0.185-0.09,0.058,0.028c0.407,0.197,0.814,0.405,1.223,0.631c0.063,0.035,0.335,0.189,0.143,0.079
		c0.115,0.066,0.23,0.133,0.344,0.202c0.217,0.129,0.433,0.263,0.649,0.4c0.192,0.121,0.909,0.518,0.769,0.155
		c-0.139-0.359-0.837-0.832-1.148-1.029c-1.971-1.249-3.949-2.188-5.832-2.779c-0.122-0.038-0.199,0.014-0.154,0.134
		c0.054,0.142,0.28,0.363,0.405,0.473C31.233,33.826,31.722,34.153,32.166,34.292L32.166,34.292z"/>
	<path class="st8" d="M32.452,43.917c0.098-0.067,0.28-0.187,0.436-0.286c0.188-0.119,0.381-0.236,0.579-0.351
		c0.186-0.108,0.375-0.215,0.569-0.319c0.097-0.052,0.194-0.104,0.293-0.155c0.049-0.026,0.099-0.051,0.148-0.077
		c0.136-0.07-0.185,0.09,0.058-0.028c0.406-0.199,0.821-0.391,1.251-0.573c0.066-0.028,0.356-0.147,0.15-0.064
		c0.123-0.05,0.247-0.099,0.371-0.147c0.236-0.091,0.474-0.179,0.715-0.265c0.214-0.076,0.968-0.396,0.596-0.509
		c-0.368-0.112-1.171,0.146-1.518,0.269c-2.198,0.782-4.157,1.76-5.784,2.878c-0.105,0.072-0.111,0.165,0.011,0.204
		c0.145,0.045,0.458,0.003,0.622-0.027C31.509,44.364,32.068,44.181,32.452,43.917L32.452,43.917z"/>
	<path class="st8" d="M27.997,40.058c0.176-0.048,0.499-0.13,0.776-0.194c0.332-0.077,0.671-0.149,1.014-0.216
		c0.323-0.063,0.652-0.121,0.984-0.175c0.166-0.027,0.334-0.053,0.502-0.077c0.084-0.012,0.169-0.024,0.253-0.036
		c0.232-0.033-0.313,0.038,0.098-0.012c0.687-0.083,1.385-0.152,2.099-0.199c0.11-0.007,0.589-0.034,0.249-0.017
		c0.203-0.01,0.407-0.018,0.611-0.025c0.387-0.013,0.777-0.02,1.169-0.022c0.348-0.002,1.601-0.086,1.119-0.437
		c-0.476-0.347-1.769-0.379-2.333-0.375c-3.576,0.023-6.903,0.451-9.821,1.249c-0.189,0.052-0.245,0.183-0.087,0.3
		c0.188,0.139,0.662,0.235,0.914,0.275C26.409,40.229,27.31,40.246,27.997,40.058L27.997,40.058z"/>
</g>
<g id="Layer_16">
	<path class="st8" d="M62.693,34.352c-0.114,0.036-0.32,0.105-0.494,0.167c-0.21,0.075-0.421,0.155-0.633,0.239
		c-0.2,0.079-0.401,0.163-0.602,0.251c-0.101,0.044-0.202,0.089-0.303,0.135c-0.051,0.023-0.101,0.047-0.152,0.07
		c-0.139,0.064,0.185-0.09-0.058,0.028c-0.407,0.197-0.814,0.405-1.223,0.631c-0.063,0.035-0.335,0.189-0.143,0.079
		c-0.115,0.066-0.23,0.133-0.344,0.202c-0.217,0.129-0.433,0.263-0.649,0.4c-0.192,0.121-0.909,0.518-0.769,0.155
		c0.139-0.359,0.837-0.832,1.148-1.029c1.971-1.249,3.949-2.188,5.832-2.779c0.122-0.038,0.199,0.014,0.154,0.134
		c-0.054,0.142-0.28,0.363-0.405,0.473C63.625,33.885,63.137,34.212,62.693,34.352L62.693,34.352z"/>
	<path class="st8" d="M62.407,43.977c-0.098-0.067-0.28-0.187-0.436-0.286c-0.188-0.119-0.381-0.236-0.579-0.351
		c-0.186-0.108-0.375-0.215-0.569-0.319c-0.097-0.052-0.194-0.104-0.293-0.155c-0.049-0.026-0.099-0.051-0.148-0.077
		c-0.136-0.07,0.185,0.09-0.058-0.028c-0.406-0.199-0.821-0.391-1.251-0.573c-0.066-0.028-0.356-0.147-0.15-0.064
		c-0.123-0.05-0.247-0.099-0.371-0.147c-0.236-0.091-0.474-0.179-0.715-0.265c-0.214-0.076-0.968-0.396-0.596-0.509
		c0.368-0.112,1.171,0.146,1.518,0.269c2.198,0.782,4.157,1.76,5.784,2.878c0.105,0.072,0.111,0.165-0.011,0.204
		c-0.145,0.045-0.458,0.003-0.622-0.027C63.349,44.423,62.79,44.24,62.407,43.977L62.407,43.977z"/>
	<path class="st8" d="M66.861,40.117c-0.176-0.048-0.499-0.13-0.776-0.194c-0.332-0.077-0.671-0.149-1.014-0.216
		c-0.323-0.063-0.652-0.121-0.984-0.175c-0.166-0.027-0.334-0.053-0.502-0.077c-0.084-0.012-0.169-0.024-0.253-0.036
		c-0.232-0.033,0.313,0.038-0.098-0.012c-0.687-0.083-1.385-0.152-2.099-0.199c-0.11-0.007-0.589-0.034-0.249-0.017
		c-0.203-0.01-0.407-0.018-0.611-0.025c-0.387-0.013-0.777-0.02-1.169-0.022c-0.348-0.002-1.601-0.086-1.119-0.437
		c0.476-0.347,1.769-0.379,2.333-0.375c3.576,0.023,6.903,0.451,9.821,1.249c0.189,0.052,0.245,0.183,0.087,0.3
		c-0.188,0.139-0.662,0.235-0.914,0.275C68.45,40.289,67.549,40.305,66.861,40.117L66.861,40.117z"/>
</g>
<g>
</g>
<g>
</g>
<g>
</g>
<g>
</g>
<g>
</g>
<g>
</g>
<g>
</g>
<g>
</g>
<g>
</g>
<g>
</g>
<g>
</g>
<g>
</g>
<g>
</g>
<g>
</g>
</svg>
