<?xml version="1.0" encoding="utf-8"?>
<!-- Generator: Adobe Illustrator 25.2.1, SVG Export Plug-In . SVG Version: 6.00 Build 0)  -->
<svg version="1.1" id="Layer_4" xmlns="http://www.w3.org/2000/svg" xmlns:xlink="http://www.w3.org/1999/xlink" x="0px" y="0px"
	 viewBox="0 0 280.677 97.927" style="enable-background:new 0 0 280.677 97.927;" xml:space="preserve">
<style type="text/css">
	.st0{opacity:0.86;}
	.st1{fill:#A3E2C6;}
</style>
<g class="st0">
	<path class="st1" d="M7.673,97.623c-0.614,0.054-0.921,0.081-1.535,0.135c-0.552,0.049-0.829,0.073-1.381,0.122
		c-0.215,0.019-0.322,0.028-0.537,0.047c-1.381-0.518-2.071-0.779-3.452-1.305c-0.123-0.458-0.184-0.687-0.307-1.145
		c-0.052,0.004-0.077-0.53-0.077-1.604c0-1.366-0.026-2.486-0.077-3.362c-0.031-2.692-0.046-4.038-0.077-6.73
		c-0.051-1.463-0.076-3.659-0.076-6.587C0.092,72.685,0.062,70.431,0,65.92c0-2.44,0.051-5.813,0.154-10.111
		c0.03-1.993,0.046-2.989,0.076-4.981c0.102-3.125,0.154-8.248,0.154-15.375c0-0.41,0-0.615,0-1.025c0-0.761,0-1.141,0-1.902
		C0.281,32.228,0.23,31.693,0.23,30.91c-0.03-0.411-0.046-0.617-0.076-1.028c0-2.44,0.114-5.013,0.23-7.606
		c0.146-3.266,0.153-6.336,0.153-9.067c-0.03-1.642-0.046-2.463-0.076-4.105C0.409,8.028,0.384,6.758,0.384,5.292
		c0-0.095-0.039-0.245-0.116-0.448C0.193,4.643,0.154,4.446,0.154,4.249c0-0.973,0.204-1.789,0.614-2.437
		c0.408-0.646,0.963-1.074,1.534-1.329c0.796-0.355,1.867-0.565,3.146-0.452c5.187,0.458,7.78,0.687,12.968,1.146
		c2.394,0.212,3.591,0.317,5.985,0.529c0.05,0.004,0.128,0.107,0.23,0.301c0.102,0.196,0.204,0.345,0.307,0.447
		c0.409,0.689,0.921,1.993,1.534,3.901c0.154,0.571,0.32,1.213,0.5,1.924c0.179,0.709,0.404,1.851,0.729,3.327
		c0.329,1.494,0.844,3.817,1.458,6.908c0.368,1.744,0.553,2.614,0.921,4.352c0.408,1.406,0.869,3.413,1.381,6.014
		c0.153,0.745,0.32,1.488,0.499,2.228c0.18,0.743,0.367,1.5,0.499,2.226c0.115,0.631,0.219,1.136,0.346,1.458
		c0.128,0.326,0.192,0.536,0.192,0.626c0.358,1.481,0.741,2.223,1.151,2.232c0.511,0.011,0.921-0.713,1.228-2.17
		c0.05-0.088,0.102-0.293,0.153-0.614c0.051-0.317,0.179-0.84,0.384-1.567c0.46-1.796,0.691-2.692,1.151-4.48
		c1.228-4.604,1.842-6.893,3.069-11.442c0.522-1.927,0.782-2.887,1.304-4.804c0.154-0.712,0.269-1.313,0.346-1.805
		c0.077-0.491,0.165-0.822,0.269-0.996c0.204-0.797,0.691-2.16,1.458-4.079c0.255-0.697,0.486-1.217,0.691-1.56
		c0.153-0.076,0.255-0.201,0.306-0.378c0.051-0.175,0.128-0.259,0.231-0.25c2.394,0.212,3.591,0.317,5.985,0.529
		c5.188,0.458,7.781,0.687,12.969,1.146c0.46,0.041,0.691,0.061,1.151,0.102c0.307,0.027,0.461,0.041,0.768,0.068
		c0.399,0.035,0.598,0.053,0.997,0.088c0.675,0.06,1.013,0.089,1.688,0.149c0.102,0.009,0.23,0.664,0.384,1.962
		c0.092,5.046,0.138,7.567,0.23,12.609c0.102,3.604,0.153,9.257,0.153,16.962c0,2.98,0,4.471,0,7.451
		c0,2.911-0.076,6.165-0.23,9.763c-0.153,3.598-0.256,5.916-0.307,6.946c-0.061,1.03-0.092,1.546-0.153,2.577c0,1.8,0,2.701,0,4.501
		c0.05,1.2,0.077,2.999,0.077,5.399c0,2.571,0.051,4.523,0.076,5.782c0.048,2.437,0.051,4.196,0.154,5.131c0,1.491,0,2.236,0,3.727
		c0,0.566,0,0.848,0,1.414c-0.092,0.419-0.138,0.629-0.23,1.048c-1.381,0.683-2.072,1.027-3.454,1.719
		c-0.215,0.019-0.322,0.028-0.537,0.047c-0.552,0.049-0.829,0.073-1.381,0.122c-0.614,0.054-0.921,0.081-1.535,0.135
		c-0.358,0.205-0.794,0.33-1.304,0.375c-0.921,0.082-2.2,0.108-3.838,0.077c-0.767,0.015-1.151,0.022-1.918,0.036
		c-0.358-0.055-0.767-0.109-1.228-0.156c-0.46-0.048-1.023-0.044-1.688,0.014c-1.197-0.055-1.796-0.083-2.993-0.141
		c-0.103,0.009-0.18,0.061-0.23,0.152c-0.246,0.021-0.368,0.032-0.614,0.053c-0.256,0.022-0.41-0.454-0.46-1.436
		c-0.307-1.761-0.461-4.794-0.461-9.09c0-2.864-0.026-5.101-0.076-6.71c-0.031-2.899-0.046-4.348-0.077-7.248
		c-0.052-1.61-0.077-3.936-0.077-6.982c0-0.716-0.18-1.071-0.537-1.063c-0.205,0.005-0.41,0.46-0.614,1.362
		c-0.338,1.462-0.506,2.194-0.844,3.661c-0.276,1.358-0.414,2.038-0.69,3.4c-0.103,0.544-0.205,1.087-0.307,1.632
		c-0.103,0.545-0.23,1.047-0.384,1.503c-0.154,0.656-0.23,0.984-0.384,1.641c-0.46,1.828-1.052,3.892-1.764,6.195
		c-0.77,2.487-1.715,4.504-2.839,6.04c-0.614,0.683-1.151,1.04-1.612,1.073c-0.46,0.034-0.69,0.05-1.15,0.084
		c-0.614,0.045-1.126-0.007-1.535-0.162c-0.675,0.049-1.013,0.074-1.688,0.123c-0.614,0.045-0.921,0.067-1.535,0.111
		c-2.046-5.758-3.965-12.151-5.755-19.18c-0.46-2.055-0.691-3.085-1.151-5.149c-0.307-1.206-0.512-1.813-0.614-1.811
		c-0.358,0.008-0.537,0.388-0.537,1.137c0,2.643,0,3.964,0,6.607c0,6.563-0.07,11.407-0.153,14.49
		c-0.131,4.856-0.282,8.272-0.538,10.17c-0.051,1.224-0.205,1.847-0.46,1.869c-0.215,0.019-0.322,0.028-0.537,0.046
		c-0.154-0.043-0.23-0.064-0.384-0.106c-1.739,0.339-3.131,0.667-4.143,0.926c-0.603,0.155-1.688,0.385-3.223,0.71
		c-1.534,0.325-2.967,0.548-4.296,0.666C8.389,97.847,7.98,97.788,7.673,97.623z"/>
	<path class="st1" d="M69.985,89.571c-0.051-0.251-0.077-0.677-0.077-1.275c0-0.854,0.128-2.165,0.307-3.869
		c0.116-1.099,0.192-2,0.268-2.644c0.077-0.646,0.14-1.14,0.193-1.485c1.392-10.599,2.786-21.196,4.527-31.745
		c1.771-13.212,3.56-26.422,5.371-39.628c0-0.167,0.076-0.41,0.23-0.732c0.153-0.32,0.332-0.514,0.537-0.581
		c0.153,0.013,0.23,0.02,0.383,0.033c0,0.085,0.077,0.132,0.231,0.145c0.613,0.053,1.305-0.013,2.071-0.195
		c0.768-0.182,1.458-0.245,2.072-0.191c1.124,0.099,2.173,0.314,3.146,0.645c0.46,0.04,0.973,0.125,1.534,0.255
		c0.562,0.13,1.151,0.223,1.765,0.276c0.204,0.018,0.434-0.042,0.691-0.184c0.552,0.048,0.829,0.072,1.381,0.12
		c0.706,0.061,1.059,0.092,1.764,0.154c0.737,0.015,1.105,0.023,1.842,0.039c0.357-0.047,0.792-0.052,1.304-0.007
		c0.409,0.036,0.614,0.015,0.614-0.065c0.491,0.043,0.737,0.065,1.228,0.108c1.044,0.092,1.566,0.137,2.609,0.229
		c1.289,0.113,1.933,0.17,3.222,0.283c2.864,0.252,4.757,0.496,5.679,0.732c0.153,0.013,0.372,0.052,0.653,0.116
		c0.279,0.063,0.443,0.29,0.499,0.335c0.126,0.1,0.717,0.022,1.074-0.024c0.355-0.046,0.691-0.055,0.998-0.028
		c0.715-0.171,1.406-0.225,2.071-0.166c0.307,0.027,0.614,0.168,0.921,0.427c0.307,0.257,0.639,0.401,0.997,0.432
		c0.154-0.033,0.23-0.049,0.384-0.082c0.092,0.008,0.138,0.012,0.23,0.02c0.154,0.168,0.32,0.392,0.499,0.675
		c0.179,0.283,0.27,0.501,0.27,0.653c1.77,12.088,3.56,24.173,5.372,36.255c1.729,9.219,3.206,18.522,4.453,27.818
		c0,0.449,0.102,0.929,0.307,1.436c0.05,0.521,0.128,1.224,0.23,2.113c0.103,0.888,0.106,1.685,0.153,2.229
		c0.023,0.273,0.077,0.703,0.077,1.225c0,1.046-0.153,1.915-0.46,2.613c-0.205,0.466-0.512,0.718-0.921,0.754
		c-0.399,0.035-0.599,0.053-0.998,0.088c-0.767,0.068-1.355,0.08-1.764,0.042c-0.798,0.07-1.197,0.105-1.995,0.175
		c-0.767,0.067-1.151,0.101-1.918,0.168c-0.614,0.054-0.921,0.081-1.535,0.135c-0.41,0.036-0.614,0.017-0.614-0.061
		c-1.934,0.169-2.901,0.254-4.835,0.423c0-0.092,0-0.139,0-0.231c-0.205-0.136-0.625-0.253-0.767-0.166
		c-0.046,0.028-0.103,0.165-0.153,0.246c0,0.156-0.052,0.236-0.154,0.245c-0.092,0.008-0.138,0.012-0.23,0.02
		c-0.246,0.021-0.368,0.032-0.614,0.054c-0.256-0.132-0.804-0.125-1.534-0.099c-1.457,0.053-2.737,0.002-3.608,0.078
		c-0.307-0.679-0.626-2.067-0.959-4.164c-0.333-2.097-0.679-4.436-1.037-7.015c-0.103-1.253-0.205-2.117-0.307-2.584
		c-1.074,0.376-2.481,0.614-4.221,0.713c-0.951,0.054-1.427,0.081-2.378,0.135c-0.89,0.05-1.335,0.076-2.225,0.126
		c-0.215,1.557-0.322,2.336-0.537,3.897c-0.666,5.357-1.203,8.716-1.612,10.042c-0.205,0.018-0.46,0.122-0.767,0.31
		c-0.103,0.09-0.23,0.183-0.384,0.276c-0.122,0.011-0.184,0.016-0.306,0.027c-0.307,0.027-0.568-0.034-0.691-0.182
		c-0.106-0.127-0.23-0.225-0.384-0.211c-1.381,0.217-2.072,0.326-3.453,0.545c-0.491,0.043-0.737,0.064-1.228,0.107
		c-0.46,0.04-0.691,0.06-1.151,0.1c-0.205,0.184-0.46,0.286-0.767,0.313c-0.123,0.011-0.184,0.016-0.307,0.027
		c-2.824,0.247-4.236,0.371-7.06,0.618c-0.276,0.024-0.415,0.036-0.691,0.061c-0.563,0.135-1.714,0.277-3.453,0.429
		c-0.798,0.07-1.197,0.105-1.995,0.175c-0.41,0.119-0.998,0.215-1.765,0.283c-0.368,0.032-0.553,0.049-0.921,0.081
		C70.702,92.072,70.241,91.261,69.985,89.571z M106.282,54.043c-0.153-1.106-0.41-3.201-0.767-6.294
		c-0.103-0.792-0.358-2.932-0.767-6.433c-0.246-2.291-0.369-3.438-0.614-5.735c-0.153-1.595-0.307-2.992-0.46-4.193
		c-0.031-0.622-0.046-0.933-0.077-1.554c-0.154-0.403-0.23-0.766-0.23-1.086c-0.031-0.288-0.046-0.432-0.077-0.72
		c-0.052,0.158-0.077,0.397-0.077,0.713c0,0.319-0.051,0.518-0.153,0.591c0,0.191,0,0.287,0,0.478
		c-0.062,0.619-0.092,0.928-0.154,1.547c-0.051,0.558-0.114,1.173-0.191,1.847c-0.077,0.676-0.166,1.411-0.268,2.205
		c-0.154,1.336-0.23,2.005-0.384,3.344c-0.563,5.018-0.924,7.967-0.997,8.742c-0.079,0.849-0.18,2.201-0.384,3.964
		c-0.103,0.561-0.205,1.403-0.307,2.526c-0.245,2.215-0.368,3.324-0.613,5.545c1.565-0.036,2.348-0.054,3.914-0.09
		c0.215-0.1,0.322-0.15,0.537-0.25c0.061-0.001,0.092-0.002,0.153-0.003c0.614-0.014,1.074,0.057,1.381,0.206
		c0.204-0.005,0.396,0.051,0.576,0.166c0.179,0.115,0.346,0.211,0.499,0.284C106.605,57.527,106.497,56.367,106.282,54.043z"/>
	<path class="st1" d="M136.882,84.141c-0.768-2.371-1.151-6.785-1.152-13.222c0-6.216,0.075-13.36,0.229-21.422
		c0.05-2.588,0.077-6.58,0.076-11.979c-0.092-0.18-0.139-0.27-0.231-0.45c-3.406-0.096-5.11-0.144-8.516-0.24
		c-0.666-0.019-1.19-0.579-1.574-1.692c-0.383-1.108-0.671-2.665-0.883-4.639c-0.245-2.278-0.383-5.56-0.384-9.814
		c0-0.638,0-0.957,0-1.595c0-0.759,0.025-1.366,0.076-1.818c0-0.684,0-1.025,0-1.709c0-0.41,0-0.615,0-1.024
		c0-0.456,0.154-0.842,0.461-1.16c0.307-0.316,0.681-0.522,1.074-0.649c0.5-0.162,1.278-0.232,2.302-0.146
		c2.333,0.197,3.499,0.295,5.831,0.492c1.278,0.108,2.25,0.228,2.916,0.357c1.136,0.139,1.703,0.209,2.839,0.348
		c11.049,0.927,16.573-1.337,27.623-2.264c1.995-0.167,3.361-0.284,3.913-0.21c0.235,0.032,0.614,0.107,1.074,0.147
		c0.46,0.04,0.798,0.231,0.998,0.391c0.275,0.219,0.576,0.485,0.652,0.835c0.077,0.351,0.115,0.881,0.115,1.594
		c0,7.831,0,11.747-0.001,19.578c0,0.871-0.23,1.472-0.691,1.8c-0.307,0.168-0.717,0.257-1.227,0.272
		c-0.983,0.028-1.474,0.043-2.456,0.071c-1.013,0.029-1.519,0.044-2.532,0.073c-1.177,0.034-2.071-0.016-2.685-0.154
		c-0.921,0.027-1.381,0.041-2.302,0.068c-0.46,0.014-0.717,0.176-0.767,0.484c0,0.077-0.027,0.174-0.077,0.29
		c-0.051,0.117-0.077,0.252-0.077,0.406c0,0.692,0,1.038,0,1.73c0,1.568,0,2.353,0,3.921c0,1.153-0.052,2.062-0.076,2.653
		c-0.087,2.138-0.104,7.111-0.308,14.633c-0.062,1.381-0.093,2.071-0.154,3.451c-0.103,3.221-0.205,5.558-0.307,7.009
		c0,4.373,0,6.56-0.001,10.932c0,2.61-0.386,4.399-1.074,4.858c-0.535,0.357-1.126,0.516-1.381,0.568
		c-0.767-0.021-1.151-0.031-1.918-0.052c-1.995-0.174-3.403-0.221-4.22-0.142c-3.223-0.237-4.835-0.356-8.058-0.594
		c-1.024-0.018-2.855-0.26-5.515-0.026C137.776,86.165,137.239,85.514,136.882,84.141z"/>
	<path class="st1" d="M191.814,92.545c-2.909-0.916-5.551-2.349-7.904-4.245c-0.307-0.268-0.755-0.688-1.343-1.261
		c-0.589-0.573-1.088-1.115-1.497-1.629c-1.688-2.381-3.069-4.993-4.143-7.846c-0.87-1.487-1.663-3.516-2.378-6.084
		c-1.382-5.608-2.072-12.197-2.071-19.839c0-8.981,1.324-16.922,3.607-23.803c2.155-6.494,4.899-11.939,8.403-15.981
		c3.504-4.04,7.483-6.572,11.933-7.487c0.368-0.085,0.553-0.127,0.921-0.212c0.399-0.038,0.598-0.056,0.997-0.094
		c3.991-0.375,8.288,0.551,12.892,2.892c0.409,0.308,1.305,0.915,2.686,1.835c1.381,0.92,2.659,1.984,3.836,3.198
		c-0.553,6.802-0.829,10.193-1.382,16.958c-1.811-0.705-2.717-1.054-4.528-1.744c-1.637-0.61-3.173-0.879-4.604-0.813
		c-2.867,0.133-5.007,2.025-6.447,5.573c-1.515,3.732-2.302,9.706-2.302,17.955c0,2.668,0.137,4.593,0.23,5.628
		c0.448,4.97,0.896,9.228,2.148,11.712c1.109,2.2,2.583,3.382,4.221,3.455c1.535,0.069,3.258-0.734,5.142-2.203
		c1.572-1.225,3.427-2.905,5.372-5.094c0.307,8.502,0.46,12.759,0.767,21.287c-1.995,2.969-4.565,5.424-7.675,7.234
		c-2.929,1.705-5.781,2.39-8.442,2.14C196.878,93.76,194.056,93.251,191.814,92.545z"/>
	<path class="st1" d="M226.578,93.91c-2.403-0.434-4.605-1.111-6.446-2.141c-0.205-0.018-0.41-0.559-0.614-1.619
		c-0.153-0.794-0.23-1.408-0.23-1.845c-0.484-15.818-0.97-31.635-1.457-47.453c0-1.04,0-1.56,0-2.6c0-0.607,0.025-1.692,0.076-3.255
		c0.051-1.561,0.077-3.644,0.077-6.245c0.062-2.708,0.093-4.063,0.154-6.773c0-1.735,0.051-3.062,0.076-3.909
		c0.074-2.526,0.104-5.172,0.154-7.56c0.016-0.766,0.013-1.324,0.039-1.631c0.026-0.305,0.039-0.501,0.039-0.589
		c0.102-0.093,0.295-0.349,0.576-0.763c0.28-0.413,0.524-0.762,0.729-1.04c0.511-0.828,1.253-1.285,2.225-1.37
		c1.78-0.156,2.67-0.234,4.451-0.39c0.491-0.043,0.737-0.065,1.228-0.108c0.511,0.045,1.458,0.006,2.839-0.115
		c1.483-0.129,2.685-0.189,3.606-0.18c1.412-0.123,2.118-0.184,3.531-0.307c1.136-0.099,1.704-0.148,2.839-0.247
		c0.46-0.04,0.69-0.06,1.15-0.1c1.33-0.116,2.218,0.221,2.686,0.862c0.555,0.76,0.921,2.345,0.921,4.723c0,0.549,0,0.823,0,1.372
		c0,0.367-0.026,0.736-0.077,1.103c-0.051,0.37-0.077,0.739-0.077,1.103c-0.061,0.882-0.092,1.323-0.153,2.205
		c-0.031,0.66-0.046,0.989-0.077,1.649c0,0.366,0.081,0.749,0.153,1.088c0.071,0.334,0.077,0.82,0.077,1.367
		c0,2.471-0.026,4.255-0.077,5.355c-0.03,2.251-0.046,3.376-0.076,5.627c0.798-0.029,1.197-0.043,1.995-0.072
		c0.664,0.251,1.451,0.299,2.148,0.337c0.939,0.052,1.822,0.149,2.148,0.201c0.392,0.063,1.151,0.239,2.072,0.208
		c0.031-3.791,0.046-5.687,0.077-9.479c0.05-0.838,0.077-2.046,0.077-3.628c0.03-2.287,0.046-3.431,0.076-5.719
		c0-0.445,0-0.668,0-1.113c0-1.486,0.026-2.812,0.077-3.98c0.051-1.164,0.153-1.985,0.307-2.465
		c0.307-0.769,0.787-1.105,1.074-1.208c0.261-0.094,1.023-0.367,2.149-0.464c0.828-0.128,1.243-0.192,2.071-0.32
		c1.483-0.128,2.711-0.326,3.683-0.601c1.75-0.152,2.625-0.228,4.374-0.381c2.044-0.178,3.57-0.409,4.45-0.532
		c1.687-0.236,3.018-0.31,3.682-0.467c0.829-0.073,1.244-0.109,2.073-0.181c1.228-0.108,2.044,0.114,2.454,0.664
		c0.308,0.364,0.512,0.907,0.614,1.63c0.102,0.724,0.154,1.771,0.154,3.138c0,3.809,0.001,8.995-0.154,15.389
		c-0.15,6.209-0.306,11.286-0.306,15.092c0,0.586,0.05,1.073,0.154,1.46c0,0.391,0.024,0.71,0.075,0.952
		c0.051,0.243,0.077,0.414,0.077,0.511c-0.637,18.499-1.276,36.998-1.917,55.496c0,0.489-0.158,1.217-0.537,1.997
		c-0.395,0.814-0.872,1.236-1.228,1.205c-8.441-0.741-12.661-1.112-21.103-1.853c-0.153-0.013-0.307-0.259-0.46-0.74
		c-0.152-0.478-0.293-1.102-0.384-1.849c-0.056-0.462-0.114-1.103-0.191-1.901c-0.077-0.796-0.142-1.803-0.191-3.019
		c-0.338-10.358-0.506-15.529-0.844-25.855c-0.215-0.005-0.322-0.008-0.537-0.014c-1.381-0.035-2.489-0.118-3.3-0.223
		c-1.923-0.25-3.146-0.354-3.606-0.365c-0.246-0.006-0.368-0.009-0.614-0.015c-0.46-0.011-0.69,0.76-0.69,2.314
		c0,11.337-0.052,18.585-0.077,21.662c-0.006,0.727-0.087,2.472-0.23,5.192c-0.11,2.087-0.537,3.335-1.305,3.722
		c-0.46,0.014-0.69,0.022-1.15,0.036c-3.991,0.011-6.827,0.027-8.365-0.067C230.652,94.626,228.139,94.192,226.578,93.91z"/>
</g>
<g>
</g>
<g>
</g>
<g>
</g>
<g>
</g>
<g>
</g>
<g>
</g>
<g>
</g>
<g>
</g>
<g>
</g>
<g>
</g>
<g>
</g>
<g>
</g>
<g>
</g>
<g>
</g>
<g>
</g>
<g>
</g>
<g>
</g>
<g>
</g>
<g>
</g>
<g>
</g>
</svg>
