<svg xmlns="http://www.w3.org/2000/svg" viewBox="0 0 150.31 150.02"><title>mmg-tile-back</title><g id="Layer_18" data-name="Layer 18"><polygon points="147.75 114.88 133.84 141.2 133.84 88.56 147.75 114.88" fill="#9ec6c6"/></g><g id="Layer_32" data-name="Layer 32"><polygon points="13.28 13.89 45.48 44.74 23.91 57.2 13.28 13.89" fill="#496d6c"/></g><g id="Layer_31" data-name="Layer 31"><polygon points="33.78 33.03 44.63 52.38 28.39 54.55 33.78 33.03" fill="#afc941"/></g><g id="Layer_15" data-name="Layer 15"><polygon points="126.08 98.14 136.06 141.3 123.56 142.36 126.08 98.14" fill="#e8eadf"/></g><g id="Layer_14" data-name="Layer 14"><polygon points="124.56 147.79 92.51 100.1 127.5 90.41 124.56 147.79" fill="#afc941"/></g><g id="Layer_7" data-name="Layer 7"><polygon points="104.39 125.93 87.7 146.59 124.34 143.46 104.39 125.93" fill="#1e3960"/></g><g id="Layer_9" data-name="Layer 9"><polygon points="99.26 107.35 124.56 88.53 130.78 106.43 99.26 107.35" fill="#496d6c"/></g><g id="Layer_17" data-name="Layer 17"><polygon points="134.71 96.63 145.51 85.37 144.8 108.53 134.71 96.63" fill="#afc941"/></g><g id="Layer_16" data-name="Layer 16"><polygon points="145.2 85.78 134.39 96.99 132.07 77.38 145.2 85.78" fill="#1e3960"/></g><g id="Layer_13" data-name="Layer 13"><polygon points="122.73 90.81 134.72 43.05 134.72 138.56 122.73 90.81" fill="#cad8a9"/></g><g id="Layer_12" data-name="Layer 12"><polygon points="99.22 107.38 114.13 61.85 138.39 79.79 99.22 107.38" fill="#e8eadf"/></g><g id="Layer_30" data-name="Layer 30"><polygon points="36.76 53.62 32.88 61.83 28.81 49.23 36.76 53.62" fill="#1e3960"/></g><g id="Layer_29" data-name="Layer 29"><polygon points="29.58 49.66 38.3 77.2 22.06 77.55 29.58 49.66" fill="#e8eadf"/></g><g id="Layer_11" data-name="Layer 11"><polygon points="110.92 69.55 146.38 88.67 144.67 47.54 110.92 69.55" fill="#9ec6c6"/></g><g id="Layer_28" data-name="Layer 28"><path d="M11,9.55a5.17,5.17,0,0,1-1.11,1.21C2.29,16.88,2.6,26.48,1.36,35.38L29.27,49.65Z" transform="translate(0.31)" fill="#cad8a9"/></g><g id="Layer_6" data-name="Layer 6"><polygon points="74.9 103.99 87.08 148.63 112.56 130.87 74.9 103.99" fill="#cad8a9"/></g><g id="Layer_21" data-name="Layer 21"><path d="M28.06,4.22c-2.21,0-4.86.8-7.65.87a4.63,4.63,0,0,1-1.3-.16,5.51,5.51,0,0,1-4.44,2.76c1.19-.11-.12.11-.35.18s-.56.27-.12,0a17.94,17.94,0,0,0-1.93,1.16c-.15.1-.16.09-.14.07l-.25.22c-.3.27-.6.54-.89.82a15.88,15.88,0,0,0-1.23,1.36L32.82,35.85,28.63,4.17Z" transform="translate(0.31)" fill="#9ec6c6"/></g><g id="Layer_27" data-name="Layer 27"><polygon points="29.58 49.66 26.63 76.19 5.97 37.2 29.58 49.66" fill="#9ec6c6"/></g><g id="Layer_26" data-name="Layer 26"><polygon points="15.23 54.05 30.46 83.5 0 83.5 15.23 54.05" fill="#afc941"/></g><g id="Layer_25" data-name="Layer 25"><polygon points="17.35 58.1 6.16 78.75 6.16 37.44 17.35 58.1" fill="#1e3960"/></g><g id="Layer_24" data-name="Layer 24"><path d="M2.14,112.29c.06,5.53-.5,12.21,1.68,17.55l.27.22,22.75-54L.65,78.92a2.78,2.78,0,0,1,0,.39C1.22,90.29,2,101.3,2.14,112.29Z" transform="translate(0.31)" fill="#cad8a9"/></g><g id="Layer_10" data-name="Layer 10"><polygon points="44.7 99.35 22.57 145.64 0.89 126.05 44.7 99.35" fill="#9ec6c6"/></g><g id="Layer_20" data-name="Layer 20"><polygon points="56.31 92.6 7.57 122.64 42.75 36.97 56.31 92.6" fill="#496d6c"/></g><g id="Layer_8" data-name="Layer 8"><path d="M149.52,44.64a6.25,6.25,0,0,1,.44-2.2,72.82,72.82,0,0,1-.61-8.4c.06-3.32.14-6.59,0-9.9L130.88,10,110.65,70.42l38.87-25.75Z" transform="translate(0.31)" fill="#afc941"/></g><g id="Layer_19" data-name="Layer 19"><polygon points="83.1 44.64 44.45 102.81 27.47 2.41 83.1 44.64" fill="#e8eadf"/></g><g id="Layer_4" data-name="Layer 4"><polygon points="81.78 114.67 68.46 63.85 125.29 144.12 81.78 114.67" fill="#9ec6c6"/></g><g id="Layer_5" data-name="Layer 5"><polygon points="68.47 63.29 90.37 147.22 69.34 150.02 68.47 63.29" fill="#496d6c"/></g><g id="Layer_2" data-name="Layer 2"><polygon points="133.48 4.98 99.24 107.33 25.58 3.27 133.48 4.98" fill="#1e3960"/></g><g id="Layer_22" data-name="Layer 22"><polygon points="70.97 146.41 15.24 142.99 47.51 95.75 70.97 146.41" fill="#1e3960"/></g><g id="Layer_23" data-name="Layer 23"><polygon points="27.84 124.45 50.05 130.02 14.97 143.39 27.84 124.45" fill="#e8eadf"/></g><g id="Layer_3" data-name="Layer 3"><polygon points="68.47 63.87 70.7 143.54 24.02 130.02 68.47 63.87" fill="#afc941"/></g><g id="white_border" data-name="white border"><path d="M120,0H30A30,30,0,0,0,0,30v90a30,30,0,0,0,30,30h90a30,30,0,0,0,30-30V30A30,30,0,0,0,120,0Zm23.46,113.46a30,30,0,0,1-30,30H36a30,30,0,0,1-30-30V36A30,30,0,0,1,36,6h77.49a30,30,0,0,1,30,30Z" transform="translate(0.31)" fill="#fff"/></g></svg>