<?xml version="1.0" encoding="utf-8"?>
<!-- Generator: Adobe Illustrator 25.2.1, SVG Export Plug-In . SVG Version: 6.00 Build 0)  -->
<svg version="1.1" id="Layer_14" xmlns="http://www.w3.org/2000/svg" xmlns:xlink="http://www.w3.org/1999/xlink" x="0px" y="0px"
	 viewBox="0 0 150 150" style="enable-background:new 0 0 150 150;" xml:space="preserve">
<style type="text/css">
	.st0{fill:none;}
	.st1{fill:none;stroke:#B3B3B3;stroke-width:0.75;stroke-linecap:round;stroke-linejoin:round;}
	.st2{fill:none;stroke:#B3B3B3;stroke-width:0.75;stroke-linecap:round;stroke-linejoin:round;stroke-dasharray:0,3.2378;}
	.st3{fill:none;stroke:#B3B3B3;stroke-width:0.75;stroke-linecap:round;stroke-linejoin:round;stroke-dasharray:0,3.0925;}
	.st4{fill:none;stroke:#B3B3B3;stroke-width:0.75;stroke-linecap:round;stroke-linejoin:round;stroke-dasharray:0,3.0931;}
	.st5{fill:#FF9500;}
	.st6{fill:#00AB9C;}
	.st7{fill:none;stroke:#1C00B2;stroke-width:2;stroke-linecap:round;stroke-linejoin:round;}
	.st8{fill:none;stroke:#1C00B2;stroke-width:2;stroke-linecap:round;stroke-linejoin:round;stroke-dasharray:0,3.2769;}
	.st9{fill:none;stroke:#1C00B2;stroke-width:2;stroke-linecap:round;stroke-linejoin:round;stroke-dasharray:0,2.8973;}
	.st10{fill:none;stroke:#1C00B2;stroke-width:2;stroke-linecap:round;stroke-linejoin:round;stroke-dasharray:0,3.2756;}
	.st11{fill:none;stroke:#1C00B2;stroke-width:2;stroke-linecap:round;stroke-linejoin:round;stroke-dasharray:0,2.9881;}
	.st12{fill:none;stroke:#1C00B2;stroke-width:2;stroke-linecap:round;stroke-linejoin:round;stroke-dasharray:0,3.2762;}
	.st13{fill:none;stroke:#1C00B2;stroke-width:2;stroke-linecap:round;stroke-linejoin:round;stroke-dasharray:0,2.9886;}
	.st14{fill:#1C00B2;}
	.st15{fill:#9FE0F7;}
	.st16{fill:#000067;}
	.st17{fill:#FFFFFF;}
	.st18{fill:url(#SVGID_1_);}
</style>
<pattern  x="-75" y="-121.48" width="52.59" height="55.155" patternUnits="userSpaceOnUse" id="New_Pattern_2" viewBox="2.005 -68.688 52.59 55.155" style="overflow:visible;">
	<g>
		<rect x="2.005" y="-68.688" class="st0" width="52.59" height="55.155"/>
		<g>
			<g>
				<line class="st0" x1="60.105" y1="-6.842" x2="60.105" y2="-6.842"/>
				<g>
					<line class="st1" x1="59.5" y1="-5.338" x2="59.5" y2="-5.338"/>
					<line class="st1" x1="57.57" y1="-3.918" x2="57.57" y2="-3.918"/>
				</g>
				<line class="st0" x1="56.77" y1="-3.766" x2="56.77" y2="-3.766"/>
				<g>
					<line class="st1" x1="56.243" y1="-2.426" x2="56.243" y2="-2.426"/>
					<path class="st2" d="M54.239-0.375c-0.327-0.099-0.616-0.336-0.765-0.712L53.276-1.59"/>
					<line class="st1" x1="52.684" y1="-3.096" x2="52.684" y2="-3.096"/>
				</g>
				<line class="st0" x1="52.421" y1="-3.766" x2="52.421" y2="-3.766"/>
				<g>
					<line class="st1" x1="50.876" y1="-4.247" x2="50.876" y2="-4.247"/>
					<line class="st1" x1="49.304" y1="-6.058" x2="49.304" y2="-6.058"/>
				</g>
				<line class="st0" x1="49.085" y1="-6.842" x2="49.085" y2="-6.842"/>
				<g>
					<line class="st1" x1="47.678" y1="-7.318" x2="47.678" y2="-7.318"/>
					<path class="st3" d="M44.947-8.761c-1.825-1.291-2.925-2.955-2.925-4.772c0-2.405,1.927-4.542,4.913-5.901"/>
					<line class="st1" x1="48.375" y1="-20" x2="48.375" y2="-20"/>
				</g>
				<line class="st0" x1="49.085" y1="-20.223" x2="49.085" y2="-20.223"/>
				<g>
					<line class="st1" x1="49.689" y1="-21.724" x2="49.689" y2="-21.724"/>
					<line class="st1" x1="51.621" y1="-23.146" x2="51.621" y2="-23.146"/>
				</g>
				<line class="st0" x1="52.421" y1="-23.299" x2="52.421" y2="-23.299"/>
				<g>
					<line class="st1" x1="52.947" y1="-24.639" x2="52.947" y2="-24.639"/>
					<path class="st2" d="M54.953-26.691c0.327,0.098,0.616,0.336,0.763,0.712l0.198,0.503"/>
					<line class="st1" x1="56.506" y1="-23.969" x2="56.506" y2="-23.969"/>
				</g>
				<line class="st0" x1="56.77" y1="-23.299" x2="56.77" y2="-23.299"/>
				<g>
					<line class="st1" x1="58.316" y1="-22.82" x2="58.316" y2="-22.82"/>
					<line class="st1" x1="59.888" y1="-21.008" x2="59.888" y2="-21.008"/>
				</g>
				<line class="st0" x1="60.105" y1="-20.223" x2="60.105" y2="-20.223"/>
				<g>
					<line class="st1" x1="61.513" y1="-19.749" x2="61.513" y2="-19.749"/>
					<path class="st4" d="M64.245-18.307c1.825,1.291,2.923,2.957,2.923,4.774c0,2.406-1.923,4.545-4.912,5.903"/>
					<line class="st1" x1="60.816" y1="-7.064" x2="60.816" y2="-7.064"/>
				</g>
			</g>
			<path class="st5" d="M28.303-60.046c-0.131,0-0.573,0.038-0.764,0.521l-1.59,4.042l-0.229,0.583l-0.625,0.048
				c-2.063,0.158-3.796,1.757-4.122,3.803l-0.1,0.627l-0.61,0.176c-6.036,1.744-9.937,5.33-9.937,9.136
				c0,3.806,3.9,7.392,9.937,9.136l0.61,0.176l0.1,0.627c0.327,2.046,2.06,3.646,4.122,3.804l0.625,0.048l0.229,0.583l1.59,4.043
				c0.19,0.482,0.633,0.519,0.764,0.519c0.13,0,0.57-0.037,0.757-0.517l1.591-4.046l0.229-0.583l0.625-0.048
				c2.063-0.157,3.796-1.757,4.122-3.803l0.1-0.628l0.611-0.176c6.036-1.735,9.935-5.321,9.935-9.136c0-3.815-3.9-7.401-9.935-9.136
				l-0.611-0.176l-0.1-0.628c-0.326-2.047-2.059-3.646-4.122-3.803l-0.625-0.048l-0.229-0.583l-1.59-4.043
				C28.873-60.009,28.433-60.046,28.303-60.046 M28.303-61.046c0.695,0,1.389,0.384,1.689,1.153l1.59,4.043
				c2.558,0.195,4.636,2.145,5.033,4.643c6.316,1.815,10.659,5.656,10.659,10.097c0,4.441-4.343,8.281-10.659,10.097
				c-0.398,2.498-2.475,4.448-5.033,4.643l-1.59,4.043c-0.3,0.769-0.994,1.153-1.689,1.153c-0.695,0-1.391-0.384-1.694-1.153
				l-1.59-4.043c-2.55-0.195-4.636-2.153-5.033-4.643C13.677-32.836,9.326-36.669,9.326-41.11c0-4.441,4.351-8.274,10.659-10.097
				c0.398-2.498,2.483-4.448,5.033-4.643l1.59-4.043C26.912-60.662,27.608-61.046,28.303-61.046L28.303-61.046z"/>
			<path class="st6" d="M38.726-41.11c0,2.44-2.386,4.55-5.857,5.548c-0.218,1.373-1.36,2.444-2.766,2.551l-0.874,2.222
				c-0.33,0.845-1.525,0.845-1.859,0l-0.874-2.222c-1.401-0.107-2.547-1.183-2.766-2.551c-3.466-1.002-5.857-3.108-5.857-5.548
				c0-2.44,2.391-4.546,5.857-5.548c0.218-1.373,1.364-2.444,2.766-2.551l0.874-2.222c0.334-0.845,1.529-0.845,1.859,0l0.874,2.222
				c1.406,0.107,2.547,1.179,2.766,2.551C36.34-45.66,38.726-43.55,38.726-41.11z"/>
			<g>
				<line class="st7" x1="39.385" y1="-27.65" x2="39.385" y2="-27.65"/>
				<path class="st8" d="M38.174-24.632c-0.929,1.345-2.292,2.369-3.885,2.864"/>
				<line class="st7" x1="32.675" y1="-21.46" x2="32.675" y2="-21.46"/>
				<path class="st9" d="M31.615-18.764l-1.06,2.694c-0.8,2.05-3.7,2.05-4.51,0l-1.59-4.042"/>
				<line class="st7" x1="23.925" y1="-21.46" x2="23.925" y2="-21.46"/>
				<path class="st10" d="M20.822-22.426c-1.42-0.824-2.546-2.108-3.166-3.643"/>
				<line class="st7" x1="17.215" y1="-27.65" x2="17.215" y2="-27.65"/>
				<path class="st11" d="M14.384-28.607C7.531-31.283,3.005-35.881,3.005-41.11c0-5.578,5.15-10.437,12.78-13.013"/>
				<line class="st7" x1="17.215" y1="-54.57" x2="17.215" y2="-54.57"/>
				<path class="st12" d="M18.427-57.586c0.93-1.345,2.295-2.369,3.885-2.865"/>
				<line class="st7" x1="23.925" y1="-60.76" x2="23.925" y2="-60.76"/>
				<path class="st9" d="M24.986-63.456l1.06-2.694c0.81-2.05,3.71-2.05,4.51,0l1.59,4.042"/>
				<line class="st7" x1="32.675" y1="-60.76" x2="32.675" y2="-60.76"/>
				<path class="st8" d="M35.781-59.798c1.422,0.822,2.546,2.107,3.165,3.645"/>
				<line class="st7" x1="39.385" y1="-54.57" x2="39.385" y2="-54.57"/>
				<path class="st13" d="M42.218-53.616c6.859,2.671,11.377,7.277,11.377,12.506c0,5.578-5.141,10.446-12.779,13.014"/>
			</g>
			<circle class="st5" cx="54.595" cy="-13.533" r="2.005"/>
			<path class="st14" d="M25.259-40.022c1.026-1.026,2.637-1.124,2.993-1.133c0.033-0.001,0.071,0.037,0.071,0.071
				c-0.009,0.356-0.107,1.967-1.133,2.993c-1.026,1.026-2.637,1.124-2.993,1.133c-0.033,0.001-0.071-0.037-0.071-0.071
				C24.134-37.385,24.232-38.995,25.259-40.022z"/>
			<path class="st14" d="M29.411-44.174c1.026-1.026,2.637-1.124,2.993-1.133c0.033-0.001,0.071,0.037,0.071,0.071
				c-0.009,0.356-0.107,1.967-1.133,2.993c-1.026,1.026-2.637,1.124-2.993,1.133c-0.033,0.001-0.071-0.037-0.071-0.071
				C28.287-41.537,28.385-43.148,29.411-44.174z"/>
			<path class="st14" d="M25.259-42.243c-1.026-1.026-1.124-2.637-1.133-2.993c-0.001-0.033,0.037-0.071,0.071-0.071
				c0.356,0.009,1.967,0.107,2.993,1.133c1.026,1.026,1.124,2.637,1.133,2.993c0.001,0.033-0.037,0.071-0.071,0.071
				C27.896-41.119,26.285-41.217,25.259-42.243z"/>
			<path class="st14" d="M29.411-38.091c1.026,1.026,2.637,1.124,2.993,1.133c0.033,0.001,0.071-0.037,0.071-0.071
				c-0.009-0.356-0.107-1.967-1.133-2.993s-2.637-1.124-2.993-1.133c-0.033-0.001-0.071,0.037-0.071,0.071
				C28.287-40.728,28.385-39.117,29.411-38.091z"/>
			<circle class="st15" cx="28.3" cy="-41.122" r="0.314"/>
		</g>
		<g>
			<g>
				<g>
					<path class="st2" d="M2.363-26.691c0.327,0.098,0.616,0.336,0.763,0.712l0.198,0.503"/>
					<line class="st1" x1="3.916" y1="-23.969" x2="3.916" y2="-23.969"/>
				</g>
				<line class="st0" x1="4.18" y1="-23.299" x2="4.18" y2="-23.299"/>
				<g>
					<line class="st1" x1="5.726" y1="-22.82" x2="5.726" y2="-22.82"/>
					<line class="st1" x1="7.298" y1="-21.008" x2="7.298" y2="-21.008"/>
				</g>
				<line class="st0" x1="7.515" y1="-20.223" x2="7.515" y2="-20.223"/>
				<g>
					<line class="st1" x1="8.923" y1="-19.749" x2="8.923" y2="-19.749"/>
					<path class="st4" d="M11.655-18.307c1.825,1.291,2.923,2.957,2.923,4.774c0,2.406-1.923,4.545-4.912,5.903"/>
				</g>
			</g>
			<circle class="st5" cx="2.005" cy="-13.533" r="2.005"/>
		</g>
		<g>
			<g>
				<g>
					<path class="st2" d="M54.239-55.53c-0.327-0.099-0.616-0.336-0.765-0.712l-0.198-0.503"/>
					<line class="st1" x1="52.684" y1="-58.251" x2="52.684" y2="-58.251"/>
				</g>
				<line class="st0" x1="52.421" y1="-58.921" x2="52.421" y2="-58.921"/>
				<g>
					<line class="st1" x1="50.876" y1="-59.402" x2="50.876" y2="-59.402"/>
					<line class="st1" x1="49.304" y1="-61.213" x2="49.304" y2="-61.213"/>
				</g>
				<line class="st0" x1="49.085" y1="-61.997" x2="49.085" y2="-61.997"/>
				<g>
					<line class="st1" x1="47.678" y1="-62.473" x2="47.678" y2="-62.473"/>
					<path class="st3" d="M44.947-63.916c-1.825-1.291-2.925-2.955-2.925-4.772c0-2.405,1.927-4.542,4.913-5.901"/>
				</g>
			</g>
			<circle class="st5" cx="54.595" cy="-68.688" r="2.005"/>
		</g>
		<g>
			<g>
				<line class="st0" x1="7.515" y1="-61.997" x2="7.515" y2="-61.997"/>
				<g>
					<line class="st1" x1="6.91" y1="-60.493" x2="6.91" y2="-60.493"/>
					<line class="st1" x1="4.98" y1="-59.073" x2="4.98" y2="-59.073"/>
				</g>
				<line class="st0" x1="4.18" y1="-58.921" x2="4.18" y2="-58.921"/>
				<g>
					<line class="st1" x1="3.653" y1="-57.581" x2="3.653" y2="-57.581"/>
					<path class="st2" d="M1.649-55.53c-0.327-0.099-0.616-0.336-0.765-0.712l-0.198-0.503"/>
				</g>
				<g>
					<path class="st4" d="M11.655-73.462c1.825,1.291,2.923,2.957,2.923,4.774c0,2.406-1.923,4.545-4.912,5.903"/>
					<line class="st1" x1="8.226" y1="-62.219" x2="8.226" y2="-62.219"/>
				</g>
			</g>
			<circle class="st5" cx="2.005" cy="-68.688" r="2.005"/>
		</g>
	</g>
</pattern>
<g>
	<path class="st16" d="M30,149.5c-16.267,0-29.5-13.233-29.5-29.5V30C0.5,13.734,13.733,0.5,30,0.5h90
		c16.267,0,29.5,13.234,29.5,29.5v90c0,16.267-13.233,29.5-29.5,29.5H30z"/>
	<path class="st17" d="M120,1c15.991,0,29,13.009,29,29v90c0,15.991-13.009,29-29,29H30c-15.991,0-29-13.009-29-29V30
		C1,14.009,14.009,1,30,1H120 M120,0H30C13.43,0,0,13.43,0,30v90c0,16.57,13.43,30,30,30h90c16.57,0,30-13.43,30-30V30
		C150,13.43,136.57,0,120,0L120,0z"/>
</g>
<g>
	<pattern  id="SVGID_1_" xlink:href="#New_Pattern_2" patternTransform="matrix(0.85 0 0 0.85 -1178.8889 -1155.0347)">
	</pattern>
	<path class="st18" d="M30,146.5c-14.612,0-26.5-11.888-26.5-26.5V30C3.5,15.388,15.388,3.5,30,3.5h90
		c14.612,0,26.5,11.888,26.5,26.5v90c0,14.612-11.888,26.5-26.5,26.5H30z"/>
	<path class="st17" d="M120,7c12.682,0,23,10.318,23,23v90c0,12.682-10.318,23-23,23H30c-12.682,0-23-10.318-23-23V30
		C7,17.318,17.318,7,30,7H120 M120,0H30C13.43,0,0,13.43,0,30v90c0,16.57,13.43,30,30,30h90c16.57,0,30-13.43,30-30V30
		C150,13.43,136.57,0,120,0L120,0z"/>
</g>
<g>
</g>
<g>
</g>
<g>
</g>
<g>
</g>
<g>
</g>
</svg>
