<svg xmlns="http://www.w3.org/2000/svg" xmlns:xlink="http://www.w3.org/1999/xlink" viewBox="0 0 50.174 52.444">
  <defs>
    <style>
      .cls-1 {
        isolation: isolate;
      }

      .cls-2, .cls-7 {
        fill: #fbf4ea;
      }

      .cls-3 {
        mix-blend-mode: color-burn;
      }

      .cls-4 {
        fill: url(#radial-gradient);
      }

      .cls-5 {
        fill: #6f8aa8;
      }

      .cls-6 {
        fill: none;
      }

      .cls-6, .cls-7 {
        stroke: #6f8aa8;
        stroke-linecap: round;
        stroke-miterlimit: 10;
      }

      .cls-8 {
        fill: url(#linear-gradient);
      }
    </style>
    <radialGradient id="radial-gradient" cx="25.087" cy="25.087" fy="9.02156263926478" r="25.087" gradientUnits="userSpaceOnUse">
      <stop offset="0.144" stop-color="#fff"/>
      <stop offset="0.221" stop-color="#f8f8f8"/>
      <stop offset="0.33" stop-color="#e5e5e5"/>
      <stop offset="0.458" stop-color="#c7c7c7"/>
      <stop offset="0.602" stop-color="#9c9c9c"/>
      <stop offset="0.758" stop-color="#646464"/>
      <stop offset="0.922" stop-color="#222"/>
      <stop offset="1"/>
    </radialGradient>
    <linearGradient id="linear-gradient" x1="19.297" y1="28.45" x2="18.856" y2="51.508" gradientUnits="userSpaceOnUse">
      <stop offset="0" stop-color="#fff"/>
      <stop offset="0.183" stop-color="#c1c1c1"/>
      <stop offset="0.405" stop-color="#7d7d7d"/>
      <stop offset="0.606" stop-color="#474747"/>
      <stop offset="0.778" stop-color="#212121"/>
      <stop offset="0.915" stop-color="#090909"/>
      <stop offset="1"/>
    </linearGradient>
  </defs>
  <g class="cls-1">
    <g id="head">
      <g>
        <path class="cls-2" d="M25.087,49.674A24.587,24.587,0,1,1,49.674,25.087,24.615,24.615,0,0,1,25.087,49.674Z"/>
        <path class="cls-2" d="M25.087,1A24.087,24.087,0,1,1,1,25.087,24.114,24.114,0,0,1,25.087,1m0-1A25.087,25.087,0,1,0,50.174,25.087,25.087,25.087,0,0,0,25.087,0Z"/>
      </g>
      <g class="cls-3">
        <circle class="cls-4" cx="25.087" cy="25.087" r="25.087"/>
      </g>
      <path class="cls-5" d="M25.087,1A24.087,24.087,0,1,1,1,25.087,24.114,24.114,0,0,1,25.087,1m0-1A25.087,25.087,0,1,0,50.174,25.087,25.087,25.087,0,0,0,25.087,0Z"/>
    </g>
    <g id="eyes">
      <ellipse class="cls-5" cx="18.085" cy="17.166" rx="3.521" ry="2.462" transform="translate(-1.801 32.209) rotate(-80.613)"/>
      <ellipse class="cls-5" cx="32.429" cy="18.853" rx="3.521" ry="2.462" transform="translate(8.539 47.773) rotate(-80.613)"/>
    </g>
    <g id="brows">
      <path class="cls-5" d="M16.08,10.385a5.989,5.989,0,0,1,1.282.056,5.417,5.417,0,0,1,2.092.744c.47.3,1.249,1.231,1.881.9.827-.43-.478-1.752-.844-2.081a7.074,7.074,0,0,0-5.563-1.293A6.044,6.044,0,0,0,11.8,9.988c-.513.423-1.572,1.314-1.209,2.092a.8.8,0,0,0,.52.378c.653.2,1.211-.276,1.67-.671A5.5,5.5,0,0,1,16.08,10.385Z"/>
      <path class="cls-5" d="M32.47,13.638a16.736,16.736,0,0,1,3.688-.609,8.971,8.971,0,0,1,2.29.328c.375.092,1.678.639,1.985.263.129-.158.044-.4-.075-.563a2.76,2.76,0,0,0-1.364-.913,10.869,10.869,0,0,0-4.678-.3,12,12,0,0,0-3.461.726,1.361,1.361,0,0,0-.524.329.539.539,0,0,0-.112.577.724.724,0,0,0,.517.318,3.25,3.25,0,0,0,2.215-.324"/>
    </g>
    <g id="mouth">
      <path class="cls-6" d="M18.672,31.29a17.752,17.752,0,0,1,9.93.248,16.6,16.6,0,0,1,3.283,1.5"/>
    </g>
    <g id="hand">
      <path class="cls-7" d="M8.953,38.749c.035-.12.069-.24.1-.361a12.634,12.634,0,0,0,.266-5.274c-.116-.706-.221-1.592.377-1.983a1.144,1.144,0,0,1,.559-.17c1.328-.082,2.134,1.327,2.448,2.429.367,1.29-.365,2.926.528,4.015,1.034,1.26,2.577,1.21,4.052,1.112a42.842,42.842,0,0,0,7-1.306c1.182-.28,2.367-.552,3.566-.748.773-.127,2.1-.555,2.576.343.619,1.175-.973,1.884-1.809,2.152-2.3.735-4.695,1.306-6.95,2.152A2.08,2.08,0,0,1,23.1,42.628a1.966,1.966,0,0,1-.8,2.123,2.028,2.028,0,0,1,1.177,1.076,1.333,1.333,0,0,1,.116.868c-.24.863-1.235.981-1.592,1.132a2.146,2.146,0,0,1,.672.365c.337.288.271,1.084-.022,1.561a3.758,3.758,0,0,1-1.514,1.3,11.463,11.463,0,0,1-5.275.888c-2.266-.046-4.958-.162-6.606-1.953-1.973-2.143-1.954-5.132-1.334-7.81C8.185,41.008,8.623,39.894,8.953,38.749Z"/>
      <g class="cls-3">
        <path class="cls-8" d="M8.953,38.749c.035-.12.069-.24.1-.361a12.634,12.634,0,0,0,.266-5.274c-.116-.706-.221-1.592.377-1.983a1.144,1.144,0,0,1,.559-.17c1.328-.082,2.134,1.327,2.448,2.429.367,1.29-.365,2.926.528,4.015,1.034,1.26,2.577,1.21,4.052,1.112a42.842,42.842,0,0,0,7-1.306c1.182-.28,2.367-.552,3.566-.748.773-.127,2.1-.555,2.576.343.619,1.175-.973,1.884-1.809,2.152-2.3.735-4.695,1.306-6.95,2.152A2.08,2.08,0,0,1,23.1,42.628a1.966,1.966,0,0,1-.8,2.123,2.028,2.028,0,0,1,1.177,1.076,1.333,1.333,0,0,1,.116.868c-.24.863-1.235.981-1.592,1.132a2.146,2.146,0,0,1,.672.365c.337.288.271,1.084-.022,1.561a3.758,3.758,0,0,1-1.514,1.3,11.463,11.463,0,0,1-5.275.888c-2.266-.046-4.958-.162-6.606-1.953-1.973-2.143-1.954-5.132-1.334-7.81C8.185,41.008,8.623,39.894,8.953,38.749Z"/>
      </g>
      <path class="cls-6" d="M8.953,38.749c.035-.12.069-.24.1-.361a12.634,12.634,0,0,0,.266-5.274c-.116-.706-.221-1.592.377-1.983a1.144,1.144,0,0,1,.559-.17c1.328-.082,2.134,1.327,2.448,2.429.367,1.29-.365,2.926.528,4.015,1.034,1.26,2.577,1.21,4.052,1.112a42.842,42.842,0,0,0,7-1.306c1.182-.28,2.367-.552,3.566-.748.773-.127,2.1-.555,2.576.343.619,1.175-.973,1.884-1.809,2.152-2.3.735-4.695,1.306-6.95,2.152A2.08,2.08,0,0,1,23.1,42.628a1.966,1.966,0,0,1-.8,2.123,2.028,2.028,0,0,1,1.177,1.076,1.333,1.333,0,0,1,.116.868c-.24.863-1.235.981-1.592,1.132a2.146,2.146,0,0,1,.672.365c.337.288.271,1.084-.022,1.561a3.758,3.758,0,0,1-1.514,1.3,11.463,11.463,0,0,1-5.275.888c-2.266-.046-4.958-.162-6.606-1.953-1.973-2.143-1.954-5.132-1.334-7.81C8.185,41.008,8.623,39.894,8.953,38.749Z"/>
    </g>
  </g>
</svg>
