<?xml version="1.0" encoding="utf-8"?>
<!-- Generator: Adobe Illustrator 25.2.1, SVG Export Plug-In . SVG Version: 6.00 Build 0)  -->
<svg version="1.1" id="Layer_1" xmlns="http://www.w3.org/2000/svg" xmlns:xlink="http://www.w3.org/1999/xlink" x="0px" y="0px"
	 viewBox="0 0 30.075 31.786" style="enable-background:new 0 0 30.075 31.786;" xml:space="preserve">
<style type="text/css">
	.st0{fill:#6F8AA8;}
</style>
<path class="st0" d="M30,20.78c-1.86,6.36-7.74,11.01-14.69,11.01c-9.62,0-17.2-8.91-14.89-18.93C1.72,7.19,6.29,2.73,11.98,1.52
	c1.13-0.24,2.24-0.35,3.33-0.35c3.6,0,6.9,1.24,9.51,3.32l4.36-4.36c0.27-0.27,0.74-0.08,0.73,0.3l-0.08,11.84
	c0,0.23-0.19,0.42-0.42,0.42l-11.84,0.09c-0.39,0-0.58-0.46-0.31-0.73l4.71-4.71c-1.87-1.37-4.17-2.17-6.66-2.17
	c-7.19,0-12.82,6.72-10.95,14.21c0.9,3.58,4.7,7.29,8.3,8.11c0.9,0.2,1.78,0.3,2.65,0.3c5.1,0,9.41-3.38,10.82-8.02
	c0.23-0.78,0.93-1.32,1.72-1.32c0.07,0,0.14,0.01,0.21,0.01l0.46,0.06C29.61,18.65,30.31,19.73,30,20.78z"/>
</svg>
