<?xml version="1.0" encoding="utf-8"?>
<!-- Generator: Adobe Illustrator 25.2.1, SVG Export Plug-In . SVG Version: 6.00 Build 0)  -->
<svg version="1.1" id="Layer_1" xmlns="http://www.w3.org/2000/svg" xmlns:xlink="http://www.w3.org/1999/xlink" x="0px" y="0px"
	 viewBox="0 0 30.075 31.786" style="enable-background:new 0 0 30.075 31.786;" xml:space="preserve">
<style type="text/css">
	.st0{fill:#CE82A4;}
</style>
<g>
	<path class="st0" d="M15.31,31.285c-4.534,0-8.759-2.041-11.593-5.601c-2.829-3.554-3.855-8.188-2.813-12.715
		C2.165,7.487,6.551,3.185,12.079,2.01c1.073-0.229,2.161-0.344,3.231-0.344c4.62,0,8.927,2.14,11.722,5.775l-2.955-0.349h-0.455
		L23.5,7.557l-0.043,0.374c-2.184-2.087-5.097-3.265-8.147-3.265c-3.661,0-7.055,1.659-9.314,4.553
		c-2.257,2.892-3.029,6.64-2.118,10.284c0.934,3.734,4.904,7.612,8.669,8.469c0.917,0.209,1.846,0.314,2.762,0.314
		c0,0,0.001,0,0.001,0c5.155,0,9.799-3.444,11.294-8.375c0.174-0.573,0.674-0.959,1.244-0.959c0.05,0,0.1,0.003,0.15,0.009
		l0.466,0.055c0.371,0.044,0.689,0.24,0.896,0.553c0.209,0.316,0.268,0.708,0.16,1.075C27.686,26.909,21.841,31.285,15.31,31.285z"
		/>
	<path class="st0" d="M15.31,2.166c4.044,0,7.84,1.698,10.526,4.629l-1.696-0.199l-0.063-0.008h-0.061l-0.909,0.016l-0.037,0.32
		c-2.175-1.771-4.91-2.758-7.76-2.758c-3.815,0-7.354,1.729-9.708,4.745c-2.353,3.014-3.158,6.919-2.209,10.713
		c0.991,3.963,5.048,7.926,9.044,8.835c0.953,0.217,1.919,0.327,2.873,0.327c5.374,0,10.216-3.59,11.774-8.731
		c0.109-0.361,0.418-0.604,0.767-0.604c0.03,0,0.061,0.002,0.092,0.005l0.464,0.055c0.301,0.036,0.467,0.223,0.538,0.332
		c0.128,0.193,0.163,0.433,0.097,0.659c-1.775,6.055-7.422,10.284-13.732,10.284c-4.38,0-8.463-1.972-11.201-5.412
		c-2.734-3.434-3.725-7.915-2.718-12.293C2.608,7.788,6.844,3.634,12.183,2.499C13.222,2.278,14.274,2.166,15.31,2.166L15.31,2.166
		 M15.31,1.166c-1.09,0-2.205,0.114-3.335,0.355C6.287,2.73,1.72,7.19,0.416,12.857C-1.888,22.876,5.691,31.786,15.31,31.786
		c6.947,0,12.828-4.643,14.692-11.002c0.309-1.053-0.388-2.136-1.478-2.265l-0.464-0.055c-0.07-0.008-0.14-0.012-0.209-0.012
		c-0.793,0-1.488,0.535-1.724,1.314c-1.407,4.641-5.719,8.021-10.817,8.021c-0.865,0-1.751-0.097-2.651-0.302
		c-3.594-0.817-7.401-4.527-8.296-8.103C2.489,11.89,8.124,5.166,15.31,5.166c3.4,0,6.45,1.5,8.52,3.88l0.168-1.442
		c0.001-0.009,0.009-0.016,0.018-0.016c0.001,0,0.001,0,0.002,0l4.031,0.473c0.001,0,0.001,0,0.002,0
		c0.015,0,0.024-0.017,0.016-0.03C25.334,3.901,20.635,1.166,15.31,1.166L15.31,1.166z"/>
</g>
<path class="st0" d="M29.405,12.695l-11.838,0.084c-0.383,0.003-0.576-0.46-0.306-0.731L29.183,0.126
	c0.271-0.271,0.733-0.077,0.731,0.306L29.83,12.27C29.828,12.504,29.639,12.693,29.405,12.695z"/>
<g>
</g>
<g>
</g>
<g>
</g>
<g>
</g>
<g>
</g>
</svg>
