<?xml version="1.0" encoding="utf-8"?>
<!-- Generator: Adobe Illustrator 25.2.1, SVG Export Plug-In . SVG Version: 6.00 Build 0)  -->
<svg version="1.1" id="Layer_2_1_" xmlns="http://www.w3.org/2000/svg" xmlns:xlink="http://www.w3.org/1999/xlink" x="0px" y="0px"
	 viewBox="0 0 44.32 45.58" style="enable-background:new 0 0 44.32 45.58;" xml:space="preserve">
<style type="text/css">
	.st0{fill:#677B92;}
</style>
<path class="st0" d="M15.69,0.94l-1.83,4.15c-0.5,1.12-1.66,1.79-2.88,1.66l-4.5-0.49C3.34,9.24,1.04,13.11,0,17.47l2.68,3.66
	c0.72,0.99,0.72,2.33,0,3.32L0,28.11c1.04,4.36,3.34,8.23,6.48,11.21l4.5-0.49c1.22-0.13,2.38,0.54,2.88,1.66l1.83,4.15
	c2.05,0.61,4.22,0.94,6.47,0.94s4.42-0.33,6.47-0.94l1.83-4.15c0.5-1.12,1.66-1.79,2.88-1.66l4.5,0.49
	c3.14-2.98,5.44-6.85,6.48-11.21l-2.68-3.66c-0.72-0.99-0.72-2.33,0-3.32l2.68-3.66c-1.04-4.36-3.34-8.23-6.48-11.21l-4.5,0.49
	c-1.22,0.13-2.38-0.54-2.88-1.66l-1.83-4.15C26.58,0.33,24.41,0,22.16,0S17.74,0.33,15.69,0.94z M34.21,22.79
	c0,6.66-5.39,12.05-12.05,12.05s-12.05-5.39-12.05-12.05s5.39-12.05,12.05-12.05C28.82,10.74,34.21,16.13,34.21,22.79z"/>
<circle class="st0" cx="22.16" cy="22.79" r="7.331"/>
</svg>
