<?xml version="1.0" encoding="utf-8"?>
<!-- Generator: Adobe Illustrator 25.0.0, SVG Export Plug-In . SVG Version: 6.00 Build 0)  -->
<svg version="1.1" id="camera" xmlns="http://www.w3.org/2000/svg" xmlns:xlink="http://www.w3.org/1999/xlink" x="0px" y="0px"
	 viewBox="0 0 200 138.64" style="enable-background:new 0 0 200 138.64;" xml:space="preserve">
<style type="text/css">
	.st0{fill:none;}
	.st1{fill:none;stroke:#47464F;stroke-width:0.5;stroke-miterlimit:10;}
	.st2{fill:#C9C9C7;}
	.st3{fill:#302D2D;}
	.st4{fill:url(#SVGID_1_);}
	.st5{fill:#828282;}
	.st6{fill:#ABCECD;stroke:#9DC1BF;stroke-width:0.5;stroke-miterlimit:10;}
	.st7{fill:none;stroke:#93B2B1;stroke-width:0.75;stroke-linecap:round;stroke-linejoin:round;stroke-miterlimit:10;}
	.st8{fill:none;stroke:#E5E5E1;stroke-width:0.75;stroke-linecap:round;stroke-linejoin:round;stroke-miterlimit:10;}
	.st9{fill:#191E26;}
	.st10{fill:#5A7F91;stroke:#648D9E;stroke-width:3;stroke-miterlimit:10;}
	.st11{fill:#364A56;}
	.st12{opacity:0.66;}
	.st13{opacity:0.88;fill:#C9C9C7;}
</style>
<pattern  y="-30.68" width="10" height="17.329" patternUnits="userSpaceOnUse" id="New_Pattern" viewBox="0 -17.329 10 17.329" style="overflow:visible;">
	<g>
		<rect y="-17.329" class="st0" width="10" height="17.329"/>
		<line class="st1" x1="9" y1="-17.329" x2="9" y2="0"/>
		<line class="st1" x1="7" y1="-17.329" x2="7" y2="0"/>
		<line class="st1" x1="5" y1="-17.329" x2="5" y2="0"/>
		<line class="st1" x1="3" y1="-17.329" x2="3" y2="0"/>
		<line class="st1" x1="1" y1="-17.329" x2="1" y2="0"/>
	</g>
</pattern>
<path class="st2" d="M194.361,11.746h-21.58c-0.454,0-0.826-0.371-0.826-0.825V9.602c0-0.454,0.371-0.825,0.826-0.825h21.58
	c0.454,0,0.826,0.371,0.826,0.825v1.318C195.186,11.375,194.815,11.746,194.361,11.746z"/>
<path class="st3" d="M194.479,4.268v0.31c0,0.451-0.376,0.817-0.826,0.817h-20.165c-0.451,0-0.817-0.366-0.817-0.817V4.23
	c0.178-0.732,0.441-1.436,0.76-2.103c0.25-0.514,0.532-1.006,0.855-1.472c0.192-0.277,0.518-0.433,0.855-0.433h16.856
	c0.337,0,0.663,0.156,0.855,0.433c0.323,0.466,0.605,0.958,0.855,1.472C194.037,2.813,194.291,3.526,194.479,4.268z"/>
<path class="st2" d="M185.482,0.222l0.875,1.179c0.112,0.151,0.124,0.354,0.032,0.517l-0.906,1.602h1.405
	c0.186,0,0.355-0.109,0.432-0.278l0.616-1.349c0.069-0.152,0.054-0.329-0.04-0.466l-0.684-0.999
	c-0.089-0.129-0.235-0.207-0.392-0.207H185.482z"/>
<path class="st3" d="M195.19,4.83v2.636c0,0.723-0.4,1.31-0.88,1.31h-21.48c-0.48,0-0.87-0.587-0.87-1.31V4.83
	c0-0.693,0.36-1.265,0.81-1.295c0.02-0.015,0.04-0.015,0.06-0.015h21.48c0.02,0,0.04,0,0.06,0.015
	C194.82,3.565,195.19,4.138,195.19,4.83z"/>
<path class="st3" d="M58.485,11.746H33.427c-0.586,0-1.065-0.479-1.065-1.065V6.924c0-0.586,0.479-1.065,1.065-1.065h25.058
	c0.586,0,1.065,0.479,1.065,1.065v3.758C59.55,11.267,59.07,11.746,58.485,11.746z"/>
<path class="st3" d="M58.46,5.859H33.452c-0.6,0-1.09-0.491-1.09-1.09V1.09c0-0.6,0.491-1.09,1.09-1.09L58.46,0
	c0.6,0,1.09,0.491,1.09,1.09v3.679C59.55,5.368,59.059,5.859,58.46,5.859z"/>
<pattern  id="SVGID_1_" xlink:href="#New_Pattern" patternTransform="matrix(1 0 0 1 -5 -36.283)">
</pattern>
<path class="st4" d="M58.46,5.859H33.452c-0.6,0-1.09-0.491-1.09-1.09V1.09c0-0.6,0.491-1.09,1.09-1.09L58.46,0
	c0.6,0,1.09,0.491,1.09,1.09v3.679C59.55,5.368,59.059,5.859,58.46,5.859z"/>
<path class="st3" d="M28.324,8.829v0.33c0,0.48-0.4,0.87-0.88,0.87H5.964c-0.48,0-0.87-0.39-0.87-0.87v-0.37
	c0.19-0.78,0.47-1.53,0.81-2.24C6.17,6.002,6.47,5.477,6.815,4.981c0.205-0.295,0.552-0.462,0.911-0.462h17.955
	c0.359,0,0.707,0.166,0.911,0.462c0.344,0.497,0.645,1.021,0.911,1.568C27.854,7.279,28.124,8.039,28.324,8.829z"/>
<path class="st3" d="M28.324,7.409v1.75c0,0.48-0.4,0.87-0.88,0.87H5.964c-0.48,0-0.87-0.39-0.87-0.87v-1.75
	c0-0.46,0.36-0.84,0.81-0.86c0.02-0.01,0.04-0.01,0.06-0.01h21.48c0.02,0,0.04,0,0.06,0.01C27.954,6.569,28.324,6.949,28.324,7.409z
	"/>
<path class="st2" d="M27.946,11.745H5.463c-0.206,0-0.374-0.168-0.374-0.374v-0.963c0-0.206,0.168-0.374,0.374-0.374h22.483
	c0.206,0,0.374,0.168,0.374,0.374v0.963C28.32,11.577,28.151,11.745,27.946,11.745z"/>
<path class="st5" d="M200,17.535v115.26c0,3.228-2.617,5.845-5.845,5.845H5.845c-3.228,0-5.845-2.617-5.845-5.845V17.535
	c0-3.228,2.617-5.845,5.845-5.845h53.912c2.089,0,3.783-1.694,3.783-3.783V3.783C63.54,1.694,65.234,0,67.323,0l97.514,0
	c2.089,0,3.783,1.694,3.783,3.783v4.124c0,2.089,1.694,3.783,3.783,3.783h21.752C197.383,11.69,200,14.307,200,17.535z"/>
<rect y="41.2" class="st3" width="200" height="84.234"/>
<path class="st6" d="M161.521,38.286h-19.55c-2.602,0-4.732-2.129-4.732-4.732V22.799c0-2.602,2.129-4.732,4.732-4.732h19.55
	c2.602,0,4.732,2.129,4.732,4.732v10.755C166.253,36.156,164.124,38.286,161.521,38.286z"/>
<g>
	<line class="st7" x1="141.097" y1="18.88" x2="141.097" y2="37.425"/>
</g>
<g>
	<line class="st8" x1="140.829" y1="18.88" x2="140.829" y2="37.425"/>
</g>
<g>
	<line class="st7" x1="142.652" y1="18.88" x2="142.652" y2="37.425"/>
</g>
<g>
	<line class="st8" x1="142.384" y1="18.88" x2="142.384" y2="37.425"/>
</g>
<g>
	<line class="st7" x1="144.223" y1="18.88" x2="144.223" y2="37.425"/>
</g>
<g>
	<line class="st8" x1="143.955" y1="18.88" x2="143.955" y2="37.425"/>
</g>
<g>
	<line class="st7" x1="145.777" y1="18.88" x2="145.777" y2="37.425"/>
</g>
<g>
	<line class="st8" x1="145.509" y1="18.88" x2="145.509" y2="37.425"/>
</g>
<g>
	<line class="st7" x1="147.332" y1="18.88" x2="147.332" y2="37.425"/>
</g>
<g>
	<line class="st8" x1="147.064" y1="18.88" x2="147.064" y2="37.425"/>
</g>
<g>
	<line class="st7" x1="148.903" y1="18.88" x2="148.903" y2="37.425"/>
</g>
<g>
	<line class="st8" x1="148.635" y1="18.88" x2="148.635" y2="37.425"/>
</g>
<g>
	<line class="st7" x1="152.012" y1="18.88" x2="152.012" y2="37.425"/>
</g>
<g>
	<line class="st8" x1="151.744" y1="18.88" x2="151.744" y2="37.425"/>
</g>
<g>
	<line class="st7" x1="153.583" y1="18.88" x2="153.583" y2="37.425"/>
</g>
<g>
	<line class="st8" x1="153.315" y1="18.88" x2="153.315" y2="37.425"/>
</g>
<g>
	<line class="st7" x1="150.457" y1="18.88" x2="150.457" y2="37.425"/>
</g>
<g>
	<line class="st8" x1="150.189" y1="18.88" x2="150.189" y2="37.425"/>
</g>
<g>
	<line class="st7" x1="155.137" y1="18.88" x2="155.137" y2="37.425"/>
</g>
<g>
	<line class="st8" x1="154.869" y1="18.88" x2="154.869" y2="37.425"/>
</g>
<g>
	<line class="st7" x1="156.692" y1="18.88" x2="156.692" y2="37.425"/>
</g>
<g>
	<line class="st8" x1="156.424" y1="18.88" x2="156.424" y2="37.425"/>
</g>
<g>
	<line class="st7" x1="158.196" y1="18.88" x2="158.196" y2="37.425"/>
</g>
<g>
	<line class="st8" x1="157.928" y1="18.88" x2="157.928" y2="37.425"/>
</g>
<g>
	<line class="st7" x1="159.756" y1="18.88" x2="159.756" y2="37.425"/>
</g>
<g>
	<line class="st8" x1="159.488" y1="18.88" x2="159.488" y2="37.425"/>
</g>
<g>
	<line class="st7" x1="161.305" y1="18.88" x2="161.305" y2="37.425"/>
</g>
<g>
	<line class="st8" x1="161.037" y1="18.88" x2="161.037" y2="37.425"/>
</g>
<g>
	<line class="st7" x1="162.837" y1="18.88" x2="162.837" y2="37.425"/>
</g>
<g>
	<line class="st8" x1="162.569" y1="18.88" x2="162.569" y2="37.425"/>
</g>
<g>
	<ellipse transform="matrix(0.1602 -0.9871 0.9871 0.1602 3.849 171.1581)" class="st9" cx="102.511" cy="83.317" rx="49" ry="49"/>
	<path class="st2" d="M102.511,36.317c25.957,0,47,21.043,47,47s-21.043,47-47,47s-47-21.043-47-47S76.553,36.317,102.511,36.317
		 M102.511,32.317c-28.122,0-51,22.879-51,51s22.879,51,51,51s51-22.879,51-51S130.632,32.317,102.511,32.317L102.511,32.317z"/>
</g>
<circle class="st10" cx="102.511" cy="83.317" r="34.729"/>
<g>
	<path class="st9" d="M102.511,100.67c-9.568,0-17.352-7.784-17.352-17.353s7.784-17.352,17.352-17.352
		c9.567,0,17.352,7.784,17.352,17.352S112.078,100.67,102.511,100.67z"/>
	<path class="st11" d="M102.511,68.965c7.926,0,14.352,6.426,14.352,14.352c0,7.926-6.426,14.352-14.352,14.352
		s-14.352-6.426-14.352-14.352C88.159,75.391,94.584,68.965,102.511,68.965 M102.511,62.965c-11.222,0-20.352,9.13-20.352,20.352
		s9.13,20.352,20.352,20.352s20.352-9.13,20.352-20.352S113.733,62.965,102.511,62.965L102.511,62.965z"/>
</g>
<g class="st12">
	<circle class="st2" cx="91.569" cy="72.376" r="3.411"/>
</g>
<circle class="st13" cx="77.985" cy="62.202" r="10.173"/>
<g>
</g>
<g>
</g>
<g>
</g>
<g>
</g>
<g>
</g>
</svg>
