<?xml version="1.0" encoding="utf-8"?>
<!-- Generator: Adobe Illustrator 25.0.0, SVG Export Plug-In . SVG Version: 6.00 Build 0)  -->
<svg version="1.1" xmlns="http://www.w3.org/2000/svg" xmlns:xlink="http://www.w3.org/1999/xlink" x="0px" y="0px"
	 viewBox="0 0 127.705 77.22" style="enable-background:new 0 0 127.705 77.22;" xml:space="preserve">
<style type="text/css">
	.st0{fill:#195F82;}
	.st1{fill:#72ABC1;}
	.st2{fill:#72375F;}
	.st3{opacity:0.48;fill:#568091;}
	.st4{opacity:0.31;fill:#0D3041;}
	.st5{fill:url(#SVGID_1_);}
	.st6{opacity:0.43;fill:url(#SVGID_2_);}
	.st7{fill:url(#SVGID_3_);}
	.st8{opacity:0.43;fill:url(#SVGID_4_);}
	.st9{fill:url(#SVGID_5_);}
	.st10{opacity:0.43;fill:url(#SVGID_6_);}
	.st11{fill:url(#SVGID_7_);}
	.st12{opacity:0.64;fill:none;stroke:#D6EA83;stroke-width:0.75;stroke-linecap:round;stroke-miterlimit:10;}
	.st13{fill:#D6EA77;}
	.st14{stroke:#000000;stroke-width:0.75;stroke-linecap:round;stroke-miterlimit:10;}
	.st15{fill:url(#SVGID_8_);}
	.st16{fill:url(#SVGID_9_);}
	.st17{fill:url(#SVGID_10_);}
	.st18{opacity:0.25;fill:#CFD6D9;}
</style>
<g id="acai_bowl">
	<g id="bowl">
		<path class="st0" d="M127.692,22.8c-0.01,0.36-0.04,0.73-0.07,1.09c-0.29,3.39-0.79,6.72-1.48,10c-1.32,6.37-3.33,12.55-5.9,18.63
			c-0.33,0.78-0.67,1.55-1.01,2.32c-3.46,7.84-8.93,15.06-17.18,18.09c-9.56,3.51-19.91,3.94-29.99,4.17
			c-1.6,0.04-3.2,0.07-4.8,0.09c-6.39,0.08-12.81,0.02-19.18-0.44c-5.07-0.36-10.11-0.98-15.11-1.99
			c-11.95-2.41-19.5-8.69-24.5-19.92c-0.34-0.77-0.68-1.54-1-2.32c-0.36-0.86-0.71-1.72-1.05-2.59c-0.34-0.86-0.67-1.73-0.99-2.6
			c-0.01-0.01-0.01-0.01-0.01-0.02c-0.31-0.86-0.61-1.72-0.9-2.59c-0.3-0.87-0.58-1.75-0.85-2.63c-0.06-0.19-0.12-0.38-0.17-0.57
			c-0.13-0.41-0.25-0.83-0.37-1.25c-0.17-0.6-0.33-1.2-0.49-1.79c-0.15-0.57-0.29-1.13-0.43-1.7c-0.3-1.23-0.57-2.47-0.82-3.72
			c-0.11-0.55-0.22-1.11-0.32-1.67c-0.11-0.64-0.22-1.29-0.32-1.95c-0.14-0.93-0.27-1.86-0.38-2.8c-0.11-0.89-0.21-1.79-0.28-2.69
			c-0.01-0.02-0.01-0.04-0.01-0.06c-0.02-0.19-0.03-0.38-0.04-0.57c-0.01-0.16-0.02-0.32-0.03-0.48c-0.04-1.02,0.01-2.05,0.25-3.01
			c0.01-0.03,0.01-0.06,0.02-0.1c0.08-0.33,0.19-0.66,0.32-0.97c0.29-0.68,0.71-1.31,1.29-1.86c0.46-0.43,0.97-0.81,1.52-1.13
			c0-0.01,0.02-0.01,0.02-0.01c0.54-0.31,1.1-0.58,1.68-0.81c0.32-0.13,0.64-0.25,0.97-0.36c5.61-1.91,12.17-1.49,17.94-1.04
			c6.37,0.49,12.71,1.47,18.99,2.67c1.36,0.25,2.71,0.52,4.06,0.8c0.04,0.01,0.09,0.02,0.13,0.03c5.58,1.13,11.13,2.44,16.65,3.86
			c5.56-1.43,11.16-2.75,16.79-3.89c0.32-0.07,0.64-0.13,0.96-0.19c7.29-1.48,14.66-2.71,22.08-3.28
			c5.77-0.45,12.33-0.87,17.94,1.04c0.33,0.11,0.65,0.23,0.97,0.36c0.58,0.24,1.16,0.5,1.7,0.82c0.55,0.32,1.06,0.7,1.52,1.13
			c0.59,0.55,1,1.18,1.29,1.86c0.13,0.31,0.24,0.64,0.32,0.97c0.01,0.04,0.01,0.07,0.02,0.1
			C127.682,20.78,127.732,21.79,127.692,22.8z"/>
		<path class="st1" d="M63.853,40.82c-7.857,0-15.502-0.465-22.724-1.382C17.235,36.415,1.183,28.97,1.183,20.91
			c0-0.278,0.021-0.567,0.062-0.884l0.017-0.099C3.03,9.477,31.105,1,63.853,1c0.01,0,0.02,0,0.029,0c0.32,0,0.64,0,0.951,0.009
			c32.246,0.154,59.87,8.627,61.604,18.887c0.008,0.044,0.015,0.082,0.021,0.115c0.043,0.326,0.064,0.62,0.064,0.898
			C126.522,31.702,97.823,40.82,63.853,40.82z"/>
		<path class="st0" d="M127.442,19.83c-0.01-0.03-0.01-0.06-0.02-0.1c-1.84-10.89-29.06-19.56-62.56-19.72
			C64.532,0,64.192,0,63.852,0c-33.96,0-61.71,8.73-63.57,19.73c-0.01,0.04-0.01,0.07-0.02,0.1c-0.05,0.36-0.08,0.72-0.08,1.08
			c0,0.77,0.13,1.53,0.38,2.28c0.01,0.02,0.01,0.03,0.02,0.05c0.65,1.94,2.12,3.81,4.29,5.56c6.61,5.32,19.74,9.56,36.13,11.63
			c7.09,0.9,14.8,1.39,22.85,1.39c33.34,0,60.69-8.42,63.43-19.13c0.16-0.59,0.24-1.18,0.24-1.78
			C127.522,20.55,127.492,20.19,127.442,19.83z M108.252,33.79c-11.84,3.89-27.6,6.03-44.4,6.03c-7.81,0-15.42-0.46-22.6-1.37
			c-0.14-0.02-0.27-0.04-0.41-0.05c-19.86-2.57-34.47-8.35-37.88-14.67c-0.2-0.35-0.35-0.7-0.47-1.05c-0.14-0.4-0.23-0.8-0.27-1.2
			c-0.03-0.19-0.04-0.38-0.04-0.57c0-0.23,0.02-0.47,0.05-0.73c0-0.01,0-0.02,0.01-0.03v-0.01l0.01-0.08
			c0.31-1.84,1.63-3.69,3.83-5.47c3.15-2.54,8.12-4.94,14.54-6.94c11.21-3.49,25.78-5.48,41.23-5.64c0.66-0.01,1.33-0.01,2-0.01
			h0.06c0.3,0,0.6,0,0.89,0.01h0.05c28,0.13,48.58,5.95,56.77,12.58c2.21,1.8,3.52,3.65,3.83,5.47l0.01,0.08v0.01
			c0.01,0.01,0.01,0.02,0.01,0.03c0.03,0.26,0.05,0.5,0.05,0.73c0,0.42-0.05,0.84-0.17,1.26
			C124.292,26.3,118.062,30.57,108.252,33.79z"/>
	</g>
	<path id="acai" class="st2" d="M2.492,22.68c4.24-1.11,8.51-2.09,12.79-2.97c9.44-1.93,18.58-3.01,27.73-3.49
		c9.93-0.53,19.86-0.36,30.21,0.18c2.75,0.14,5.55,0.28,8.38,0.43c14.47,0.73,29.67,1.71,43.75,5.34c-1.06,4.13-7.29,8.4-17.1,11.62
		c-11.84,3.89-27.6,6.03-44.4,6.03c-7.81,0-15.42-0.46-22.6-1.37C20.092,35.77,4.792,29.45,2.492,22.68z"/>
	<path class="st3" d="M67.262,77.19c-6.39,0.08-12.81,0.02-19.18-0.44c-5.07-0.36-10.11-0.98-15.11-1.99
		c-11.95-2.41-19.5-8.69-24.5-19.92c-0.34-0.77-0.68-1.54-1-2.32c-0.36-0.86-0.71-1.72-1.05-2.59c-0.34-0.86-0.67-1.73-0.99-2.6
		c-0.01-0.01-0.01-0.01-0.01-0.02c-0.31-0.86-0.61-1.72-0.9-2.59c-0.3-0.87-0.58-1.75-0.85-2.63c-0.06-0.19-0.12-0.38-0.17-0.57
		c-0.13-0.41-0.25-0.83-0.37-1.25c-0.17-0.6-0.33-1.2-0.49-1.79c-0.15-0.57-0.29-1.13-0.43-1.7c-0.3-1.23-0.57-2.47-0.82-3.72
		c-0.11-0.55-0.22-1.11-0.32-1.67c-0.11-0.64-0.22-1.29-0.32-1.95c-0.14-0.93-0.27-1.86-0.38-2.8c-0.11-0.89-0.21-1.79-0.28-2.69
		c-0.01-0.02-0.01-0.04-0.01-0.06c-0.02-0.19-0.03-0.38-0.04-0.57c-0.01-0.16-0.02-0.32-0.03-0.48c-0.04-1.02,0.01-2.05,0.25-3.01
		c0.01-0.03,0.01-0.06,0.02-0.1C2.142,8.73,29.892,0,63.852,0c0.34,0,0.68,0,1.01,0.01c-0.52,0.32-1.03,0.66-1.54,0.99
		c-0.5,0.33-0.99,0.67-1.47,1.01c-5.73,4.06-10.46,8.86-13.97,14.01c-0.23,0.34-0.46,0.68-0.68,1.03
		c-4.2,6.52-6.47,13.55-6.39,20.37c0,0.33,0.01,0.65,0.03,0.98c0.01,0.34,0.03,0.68,0.06,1.01c0.03,0.34,0.06,0.68,0.1,1.02
		C42.692,55.49,55.402,68.73,67.262,77.19z"/>
</g>
<g id="shadow">
	<path class="st4" d="M48.082,76.75c-5.07-0.36-10.11-0.98-15.11-1.99c-11.95-2.41-19.5-8.69-24.5-19.92
		c-0.34-0.77-0.68-1.54-1-2.32c-0.36-0.86-0.71-1.72-1.05-2.59c-0.34-0.86-0.67-1.73-0.99-2.6c-0.01-0.01-0.01-0.01-0.01-0.02
		c-0.31-0.86-0.61-1.72-0.9-2.59c-0.3-0.87-0.58-1.75-0.85-2.63c-0.06-0.19-0.12-0.38-0.17-0.57c-0.13-0.41-0.25-0.83-0.37-1.25
		c-0.17-0.6-0.33-1.2-0.49-1.79c-0.15-0.57-0.29-1.13-0.43-1.7c-0.3-1.23-0.57-2.47-0.82-3.72c-0.11-0.55-0.22-1.11-0.32-1.67
		c-0.11-0.64-0.22-1.29-0.32-1.95c-0.14-0.93-0.27-1.86-0.38-2.8c-0.11-0.89-0.21-1.79-0.28-2.69c0.16-0.24,0.32-0.47,0.49-0.71
		c0.24-0.35,0.49-0.7,0.74-1.05c0.25-0.37,0.51-0.74,0.77-1.11c0.04,0.14,0.08,0.27,0.13,0.4c0.12,0.4,0.25,0.79,0.38,1.17
		c0.12,0.37,0.24,0.73,0.36,1.08c0.36,1.05,0.73,2.07,1.11,3.06c0.26,0.69,0.53,1.36,0.8,2.01c3.59,8.75,7.76,15.06,11,19.3
		C26.012,61.36,39.112,71.06,48.082,76.75z"/>
</g>
<g id="Layer_17">
	
		<radialGradient id="SVGID_1_" cx="79.5451" cy="19.2498" r="11.7371" gradientTransform="matrix(0.7508 0.6605 -0.6605 0.7508 33.1151 -53.3157)" gradientUnits="userSpaceOnUse">
		<stop  offset="0" style="stop-color:#E0CA4B"/>
		<stop  offset="0.1693" style="stop-color:#E1CC51"/>
		<stop  offset="0.3976" style="stop-color:#E3D162"/>
		<stop  offset="0.6597" style="stop-color:#E7D97F"/>
		<stop  offset="0.9449" style="stop-color:#ECE4A6"/>
		<stop  offset="1" style="stop-color:#EDE6AE"/>
	</radialGradient>
	<path class="st5" d="M69.004,17.512C68.15,12.276,70.96,6.627,75.607,3.608c4.743-3.081,9.448-1.817,13.792,1.343
		c1.471,1.07,2.907,2.287,3.73,3.909c2.143,4.226-1.448,8.184-4.509,10.728c-2.917,2.425-8.417,7.21-12.396,6.399
		c-1.801-0.367-3.383-1.491-4.585-2.881C70.172,21.41,69.326,19.49,69.004,17.512z"/>
	
		<radialGradient id="SVGID_2_" cx="80.1409" cy="18.4777" r="4.3047" gradientTransform="matrix(0.7508 0.6605 -0.6605 0.7508 33.1151 -53.3157)" gradientUnits="userSpaceOnUse">
		<stop  offset="0" style="stop-color:#564708"/>
		<stop  offset="0.2648" style="stop-color:#5C4D0A"/>
		<stop  offset="0.6219" style="stop-color:#6D5C0F"/>
		<stop  offset="1" style="stop-color:#877416"/>
	</radialGradient>
	<path class="st6" d="M82.515,12.037c0.513-0.795,0.991-1.787,0.473-2.639c-0.512-0.842-1.946-0.981-2.809-0.783
		c-1.592,0.366-1.131,1.981-0.72,3.168c0.126,0.364,0.287,0.687,0.571,0.952c0.2,0.187,0.568,0.303,0.399,0.65
		c-0.159,0.325-0.522,0.275-0.836,0.337c-0.614,0.12-1.773,0.307-2.067,0.942c-0.494,1.067,0.948,2.517,1.743,3.02
		c0.318,0.201,0.69,0.364,1.062,0.304c0.545-0.088,1.071-0.632,1.447-1.006c0.401-0.399,0.537-0.911,0.457-1.463
		c-0.069-0.478-0.905-1.272-0.466-1.508c0.291-0.157,1.233,0.035,1.422,0.288c0.184,0.246,0.176,0.597,0.363,0.84
		c0.244,0.318,0.72,0.334,1.111,0.246c0.908-0.204,1.231-1.113,1.26-1.962c0.015-0.44-0.09-0.893-0.349-1.248
		c-0.359-0.493-1.393-1.12-2.014-0.786c-0.485,0.261-0.314,1.091-0.846,1.229c-0.182,0.047-0.518,0.097-0.558-0.054
		C82.12,12.312,82.394,12.225,82.515,12.037z"/>
</g>
<g id="Layer_18">
	
		<radialGradient id="SVGID_3_" cx="94.3967" cy="11.9511" r="11.7371" gradientTransform="matrix(0.7508 0.6605 -0.6605 0.7508 33.1151 -53.3157)" gradientUnits="userSpaceOnUse">
		<stop  offset="0" style="stop-color:#E0CA4B"/>
		<stop  offset="0.1693" style="stop-color:#E1CC51"/>
		<stop  offset="0.3976" style="stop-color:#E3D162"/>
		<stop  offset="0.6597" style="stop-color:#E7D97F"/>
		<stop  offset="0.9449" style="stop-color:#ECE4A6"/>
		<stop  offset="1" style="stop-color:#EDE6AE"/>
	</radialGradient>
	<path class="st7" d="M84.975,21.842c-0.854-5.236,1.956-10.885,6.603-13.904c4.743-3.081,9.448-1.817,13.792,1.343
		c1.471,1.07,2.907,2.287,3.73,3.909c2.143,4.226-1.448,8.184-4.509,10.728c-2.917,2.425-8.417,7.21-12.396,6.399
		c-1.801-0.367-3.383-1.491-4.585-2.881C86.144,25.74,85.298,23.82,84.975,21.842z"/>
	
		<radialGradient id="SVGID_4_" cx="94.9925" cy="11.1791" r="4.3047" gradientTransform="matrix(0.7508 0.6605 -0.6605 0.7508 33.1151 -53.3157)" gradientUnits="userSpaceOnUse">
		<stop  offset="0" style="stop-color:#564708"/>
		<stop  offset="0.2648" style="stop-color:#5C4D0A"/>
		<stop  offset="0.6219" style="stop-color:#6D5C0F"/>
		<stop  offset="1" style="stop-color:#877416"/>
	</radialGradient>
	<path class="st8" d="M98.487,16.367c0.513-0.795,0.991-1.787,0.473-2.639c-0.512-0.842-1.946-0.981-2.809-0.783
		c-1.592,0.366-1.131,1.981-0.72,3.168c0.126,0.364,0.287,0.687,0.571,0.952c0.2,0.187,0.568,0.303,0.399,0.65
		c-0.159,0.325-0.522,0.275-0.836,0.337c-0.614,0.12-1.773,0.307-2.067,0.942c-0.494,1.067,0.948,2.517,1.743,3.02
		c0.318,0.201,0.69,0.364,1.062,0.304c0.545-0.088,1.071-0.632,1.447-1.006c0.401-0.399,0.537-0.911,0.457-1.463
		c-0.069-0.478-0.905-1.272-0.466-1.508c0.291-0.157,1.233,0.035,1.422,0.288c0.184,0.246,0.176,0.597,0.363,0.84
		c0.244,0.318,0.72,0.334,1.111,0.246c0.908-0.204,1.231-1.113,1.26-1.962c0.015-0.44-0.09-0.893-0.349-1.248
		c-0.359-0.493-1.393-1.12-2.014-0.786c-0.485,0.261-0.314,1.091-0.846,1.229c-0.182,0.047-0.518,0.097-0.558-0.054
		C98.092,16.642,98.365,16.555,98.487,16.367z"/>
</g>
<g id="Layer_19">
	
		<radialGradient id="SVGID_5_" cx="107.221" cy="7.8379" r="11.7371" gradientTransform="matrix(0.7508 0.6605 -0.6605 0.7508 33.1151 -53.3157)" gradientUnits="userSpaceOnUse">
		<stop  offset="0" style="stop-color:#E0CA4B"/>
		<stop  offset="0.1693" style="stop-color:#E1CC51"/>
		<stop  offset="0.3976" style="stop-color:#E3D162"/>
		<stop  offset="0.6597" style="stop-color:#E7D97F"/>
		<stop  offset="0.9449" style="stop-color:#ECE4A6"/>
		<stop  offset="1" style="stop-color:#EDE6AE"/>
	</radialGradient>
	<path class="st9" d="M97.321,27.224c-0.854-5.236,1.956-10.885,6.603-13.904c4.743-3.081,9.448-1.817,13.792,1.343
		c1.471,1.07,2.907,2.287,3.73,3.909c2.143,4.226-1.448,8.184-4.509,10.728c-2.917,2.425-8.417,7.21-12.396,6.399
		c-1.801-0.367-3.383-1.491-4.585-2.881C98.489,31.122,97.643,29.203,97.321,27.224z"/>
	
		<radialGradient id="SVGID_6_" cx="107.8168" cy="7.0659" r="4.3047" gradientTransform="matrix(0.7508 0.6605 -0.6605 0.7508 33.1151 -53.3157)" gradientUnits="userSpaceOnUse">
		<stop  offset="0" style="stop-color:#564708"/>
		<stop  offset="0.2648" style="stop-color:#5C4D0A"/>
		<stop  offset="0.6219" style="stop-color:#6D5C0F"/>
		<stop  offset="1" style="stop-color:#877416"/>
	</radialGradient>
	<path class="st10" d="M110.832,21.749c0.513-0.795,0.991-1.787,0.473-2.639c-0.512-0.842-1.946-0.981-2.809-0.783
		c-1.592,0.366-1.131,1.981-0.72,3.168c0.126,0.364,0.287,0.687,0.571,0.952c0.2,0.187,0.568,0.303,0.399,0.65
		c-0.159,0.325-0.522,0.275-0.836,0.337c-0.614,0.12-1.773,0.307-2.067,0.942c-0.494,1.067,0.948,2.517,1.743,3.02
		c0.318,0.201,0.69,0.364,1.062,0.304c0.545-0.088,1.071-0.632,1.447-1.006c0.401-0.399,0.537-0.911,0.457-1.463
		c-0.069-0.478-0.905-1.272-0.466-1.508c0.291-0.157,1.233,0.035,1.422,0.288c0.184,0.246,0.176,0.597,0.363,0.84
		c0.244,0.318,0.72,0.334,1.111,0.246c0.908-0.204,1.231-1.113,1.26-1.962c0.015-0.44-0.09-0.893-0.349-1.248
		c-0.359-0.493-1.393-1.12-2.014-0.786c-0.485,0.261-0.314,1.091-0.846,1.229c-0.182,0.047-0.518,0.097-0.558-0.054
		C110.437,22.024,110.711,21.937,110.832,21.749z"/>
</g>
<g id="Layer_9">
	
		<radialGradient id="SVGID_7_" cx="165.1649" cy="-17.6445" r="22.0349" fx="151.6556" fy="-17.7423" gradientTransform="matrix(0.0777 -1.006 0.7143 -0.0081 61.6286 175.0943)" gradientUnits="userSpaceOnUse">
		<stop  offset="0" style="stop-color:#009245"/>
		<stop  offset="0.2382" style="stop-color:#3AAB43"/>
		<stop  offset="0.4691" style="stop-color:#6BC141"/>
		<stop  offset="0.6438" style="stop-color:#8ACE3F"/>
		<stop  offset="0.742" style="stop-color:#95D33F"/>
	</radialGradient>
	<path class="st11" d="M62.851,2.725c-9.505,0.108-17.906,8.554-19.181,19.063c-0.041,0.34,0.318,0.614,0.77,0.593l33.896-1.615
		c0.436-0.021,0.798-0.311,0.79-0.638C78.89,10.234,71.974,2.621,62.851,2.725z"/>
	<g id="Layer_11">
		<line class="st12" x1="67.96" y1="19.961" x2="75.054" y2="18.563"/>
		<line class="st12" x1="66.643" y1="18.447" x2="74.671" y2="14.401"/>
		<line class="st12" x1="66.064" y1="18.305" x2="71.319" y2="9.43"/>
		<line class="st12" x1="64.963" y1="17.95" x2="66.397" y2="6.355"/>
		<line class="st12" x1="57.084" y1="20.818" x2="48.017" y2="19.6"/>
		<line class="st12" x1="58.49" y1="19.627" x2="48.32" y2="15.613"/>
		<line class="st12" x1="60.52" y1="20.247" x2="51.803" y2="11.495"/>
		<line class="st12" x1="60.312" y1="19.22" x2="56.488" y2="7.217"/>
		<line class="st12" x1="62.21" y1="18.713" x2="62.146" y2="5.226"/>
	</g>
	<path class="st13" d="M55.623,20.082c-0.1-0.526,0.033-1.115,0.448-1.457c0.51-0.414,1.315-0.387,1.76-0.861
		c0.152-0.156,0.252-0.365,0.368-0.541c0.586-0.902,2.437-1.313,3.481-0.845c0.195,0.095,0.37,0.21,0.594,0.259
		c0.306,0.064,0.652-0.013,0.958-0.128c0.839-0.344,1.218-0.434,1.906,0.027c0.411,0.265,0.807,0.591,1.433,0.368
		c0.121-0.041,0.239-0.107,0.373-0.132c0.279-0.06,0.568,0.049,0.726,0.217c0.159,0.168,0.219,0.374,0.256,0.583
		c0.079,0.357,0.147,0.716,0.553,0.939c0.247,0.14,0.571,0.168,0.726,0.396c0.181,0.259,0.057,0.728-0.001,1
		c-0.092,0.456-0.256,0.886-0.42,1.317l-12.427,0.597C56.065,21.325,55.653,20.232,55.623,20.082z"/>
	<g id="seeds">
		<path class="st14" d="M53.451,20.093c0.074,0.088,0.153,0.172,0.237,0.248c0.247,0.222,0.351-0.127,0.376-0.325
			c0.05-0.401,0.138-1.086-0.267-1.352c-0.113-0.074-0.258-0.094-0.39-0.064c-0.132,0.03-0.251,0.108-0.341,0.209
			c-0.076,0.086-0.134,0.192-0.149,0.306c-0.018,0.133,0.022,0.269,0.087,0.386C53.12,19.711,53.296,19.91,53.451,20.093z"/>
		<path class="st14" d="M55.439,15.631c0.114,0.015,0.229,0.024,0.342,0.023c0.333-0.002,0.174-0.33,0.059-0.493
			c-0.233-0.33-0.63-0.895-1.108-0.82c-0.134,0.021-0.254,0.104-0.332,0.215c-0.077,0.111-0.113,0.248-0.111,0.384
			c0.002,0.115,0.031,0.232,0.096,0.327c0.076,0.11,0.197,0.184,0.324,0.227C54.937,15.571,55.202,15.6,55.439,15.631z"/>
		<path class="st14" d="M59.081,15.746c-0.096,0.063-0.189,0.13-0.275,0.205c-0.252,0.218,0.082,0.364,0.275,0.413
			c0.392,0.099,1.06,0.272,1.374-0.096c0.088-0.103,0.126-0.244,0.112-0.379s-0.075-0.262-0.165-0.364
			c-0.076-0.087-0.174-0.157-0.285-0.186c-0.13-0.034-0.269-0.012-0.394,0.038C59.501,15.466,59.281,15.616,59.081,15.746z"/>
		<path class="st14" d="M62.255,12.985c0.109-0.036,0.216-0.078,0.318-0.128c0.299-0.147,0.013-0.373-0.161-0.469
			c-0.354-0.196-0.957-0.532-1.354-0.256c-0.111,0.077-0.184,0.204-0.205,0.338c-0.021,0.134,0.006,0.273,0.067,0.394
			c0.052,0.103,0.129,0.196,0.229,0.252c0.117,0.066,0.258,0.08,0.391,0.063C61.778,13.15,62.029,13.06,62.255,12.985z"/>
		<path class="st14" d="M65.373,14.696c-0.016,0.114-0.027,0.228-0.028,0.342c-0.002,0.333,0.328,0.178,0.492,0.065
			c0.333-0.229,0.904-0.618,0.834-1.097c-0.019-0.134-0.101-0.256-0.211-0.334c-0.11-0.079-0.247-0.116-0.382-0.116
			c-0.115,0-0.232,0.028-0.328,0.092c-0.111,0.075-0.186,0.195-0.231,0.321C65.439,14.195,65.407,14.459,65.373,14.696z"/>
		<path class="st14" d="M70.274,20.302c0.113,0.02,0.227,0.035,0.341,0.04c0.332,0.014,0.19-0.322,0.083-0.489
			c-0.217-0.341-0.586-0.925-1.067-0.872c-0.135,0.015-0.259,0.092-0.341,0.199c-0.083,0.107-0.125,0.243-0.129,0.378
			c-0.004,0.115,0.019,0.233,0.08,0.331c0.071,0.114,0.188,0.193,0.313,0.242C69.776,20.218,70.039,20.26,70.274,20.302z"/>
		<path class="st14" d="M69.026,16.704c-0.047,0.105-0.089,0.212-0.121,0.321c-0.094,0.319,0.266,0.262,0.455,0.199
			c0.383-0.128,1.039-0.344,1.104-0.824c0.018-0.134-0.026-0.273-0.11-0.379c-0.084-0.106-0.205-0.18-0.335-0.217
			c-0.111-0.032-0.231-0.038-0.341-0.002c-0.128,0.041-0.233,0.136-0.311,0.245C69.228,16.241,69.124,16.486,69.026,16.704z"/>
	</g>
</g>
<g id="Layer_13">
	
		<radialGradient id="SVGID_8_" cx="158.0508" cy="-9.7045" r="22.0349" fx="144.5415" fy="-9.8023" gradientTransform="matrix(0.0777 -1.006 0.7143 -0.0081 66.5539 175.0382)" gradientUnits="userSpaceOnUse">
		<stop  offset="0" style="stop-color:#009245"/>
		<stop  offset="0.2382" style="stop-color:#3AAB43"/>
		<stop  offset="0.4691" style="stop-color:#6BC141"/>
		<stop  offset="0.6438" style="stop-color:#8ACE3F"/>
		<stop  offset="0.742" style="stop-color:#95D33F"/>
	</radialGradient>
	<path class="st15" d="M72.896,9.761c-9.505,0.108-17.906,8.554-19.181,19.063c-0.041,0.34,0.318,0.614,0.77,0.593l33.896-1.615
		c0.436-0.021,0.798-0.311,0.79-0.638C88.934,17.271,82.018,9.657,72.896,9.761z"/>
	<line class="st12" x1="78.005" y1="26.997" x2="85.098" y2="25.599"/>
	<line class="st12" x1="76.687" y1="25.483" x2="84.715" y2="21.438"/>
	<line class="st12" x1="76.108" y1="25.341" x2="81.364" y2="16.467"/>
	<line class="st12" x1="75.007" y1="24.986" x2="76.441" y2="13.392"/>
	<line class="st12" x1="67.128" y1="27.854" x2="58.062" y2="26.636"/>
	<line class="st12" x1="68.535" y1="26.663" x2="58.364" y2="22.65"/>
	<line class="st12" x1="70.564" y1="27.284" x2="61.848" y2="18.531"/>
	<line class="st12" x1="70.356" y1="26.257" x2="66.533" y2="14.253"/>
	<line class="st12" x1="72.255" y1="25.749" x2="72.191" y2="12.263"/>
	<path class="st13" d="M65.668,27.118c-0.1-0.526,0.033-1.115,0.448-1.457c0.51-0.414,1.315-0.387,1.76-0.861
		c0.152-0.156,0.252-0.365,0.368-0.541c0.586-0.902,2.437-1.313,3.481-0.845c0.195,0.095,0.37,0.21,0.594,0.259
		c0.306,0.064,0.652-0.013,0.958-0.128c0.839-0.344,1.218-0.434,1.906,0.027c0.411,0.265,0.807,0.591,1.433,0.368
		c0.121-0.041,0.239-0.107,0.373-0.132c0.279-0.06,0.568,0.049,0.726,0.217c0.159,0.168,0.219,0.374,0.256,0.583
		c0.079,0.357,0.147,0.716,0.553,0.939c0.247,0.14,0.571,0.168,0.726,0.396c0.181,0.259,0.057,0.728-0.001,1
		c-0.092,0.456-0.256,0.886-0.42,1.317L66.4,28.855C66.109,28.362,65.698,27.268,65.668,27.118z"/>
	<path class="st14" d="M63.495,27.129c0.074,0.088,0.153,0.172,0.237,0.248c0.247,0.222,0.351-0.127,0.376-0.325
		c0.05-0.401,0.138-1.086-0.267-1.352c-0.113-0.074-0.258-0.094-0.39-0.064c-0.132,0.03-0.251,0.108-0.341,0.209
		c-0.076,0.086-0.134,0.192-0.149,0.306c-0.018,0.133,0.022,0.269,0.087,0.386C63.164,26.747,63.341,26.947,63.495,27.129z"/>
	<path class="st14" d="M65.483,22.667c0.114,0.015,0.229,0.024,0.342,0.023c0.333-0.002,0.174-0.33,0.059-0.493
		c-0.233-0.33-0.63-0.895-1.108-0.82c-0.134,0.021-0.254,0.104-0.332,0.215c-0.077,0.111-0.113,0.248-0.111,0.384
		c0.002,0.115,0.031,0.232,0.096,0.327c0.076,0.11,0.197,0.184,0.324,0.227C64.982,22.608,65.246,22.636,65.483,22.667z"/>
	<path class="st14" d="M69.125,22.783c-0.096,0.063-0.189,0.13-0.275,0.205c-0.252,0.218,0.082,0.364,0.275,0.413
		c0.392,0.099,1.06,0.272,1.374-0.096c0.088-0.103,0.126-0.244,0.112-0.379s-0.076-0.262-0.165-0.364
		c-0.076-0.087-0.174-0.157-0.285-0.186c-0.13-0.034-0.269-0.012-0.394,0.038C69.545,22.502,69.326,22.653,69.125,22.783z"/>
	<path class="st14" d="M72.3,20.021c0.109-0.036,0.216-0.078,0.318-0.128c0.299-0.147,0.013-0.373-0.161-0.469
		c-0.354-0.196-0.957-0.532-1.354-0.256c-0.111,0.077-0.184,0.204-0.205,0.338s0.006,0.273,0.067,0.394
		c0.052,0.103,0.129,0.196,0.229,0.252c0.117,0.066,0.258,0.08,0.391,0.063C71.822,20.186,72.073,20.096,72.3,20.021z"/>
	<path class="st14" d="M75.417,21.732c-0.016,0.114-0.027,0.228-0.028,0.342c-0.002,0.333,0.328,0.178,0.492,0.065
		c0.333-0.229,0.904-0.618,0.834-1.097c-0.019-0.134-0.101-0.256-0.211-0.334c-0.11-0.079-0.247-0.116-0.382-0.116
		c-0.115,0-0.232,0.028-0.328,0.092c-0.111,0.075-0.186,0.195-0.231,0.321C75.483,21.231,75.451,21.496,75.417,21.732z"/>
	<path class="st14" d="M80.318,27.338c0.113,0.02,0.227,0.035,0.341,0.04c0.332,0.014,0.19-0.322,0.083-0.489
		c-0.217-0.341-0.586-0.925-1.067-0.872c-0.135,0.015-0.259,0.092-0.341,0.199c-0.083,0.107-0.125,0.243-0.129,0.378
		c-0.004,0.115,0.019,0.233,0.08,0.331c0.071,0.114,0.188,0.193,0.313,0.242C79.82,27.255,80.083,27.296,80.318,27.338z"/>
	<path class="st14" d="M79.071,23.74c-0.047,0.105-0.089,0.212-0.121,0.321c-0.094,0.319,0.266,0.262,0.455,0.199
		c0.383-0.128,1.039-0.344,1.104-0.824c0.018-0.134-0.026-0.273-0.11-0.379c-0.084-0.106-0.205-0.18-0.335-0.217
		c-0.111-0.032-0.231-0.038-0.341-0.002c-0.128,0.041-0.233,0.136-0.311,0.245C79.272,23.277,79.169,23.523,79.071,23.74z"/>
</g>
<g id="Layer_14">
	
		<radialGradient id="SVGID_9_" cx="154.3119" cy="-1.0553" r="22.0349" fx="140.8026" fy="-1.1531" gradientTransform="matrix(0.0777 -1.006 0.7143 -0.0081 71.9191 174.9772)" gradientUnits="userSpaceOnUse">
		<stop  offset="0" style="stop-color:#009245"/>
		<stop  offset="0.2382" style="stop-color:#3AAB43"/>
		<stop  offset="0.4691" style="stop-color:#6BC141"/>
		<stop  offset="0.6438" style="stop-color:#8ACE3F"/>
		<stop  offset="0.742" style="stop-color:#95D33F"/>
	</radialGradient>
	<path class="st16" d="M84.149,13.391c-9.505,0.108-17.906,8.554-19.181,19.063c-0.041,0.34,0.318,0.614,0.77,0.593l33.896-1.615
		c0.436-0.021,0.798-0.311,0.79-0.638C100.187,20.901,93.271,13.287,84.149,13.391z"/>
	<line class="st12" x1="89.258" y1="30.627" x2="96.352" y2="29.229"/>
	<line class="st12" x1="87.94" y1="29.114" x2="95.969" y2="25.068"/>
	<line class="st12" x1="87.361" y1="28.971" x2="92.617" y2="20.097"/>
	<line class="st12" x1="86.26" y1="28.617" x2="87.694" y2="17.022"/>
	<line class="st12" x1="78.381" y1="31.484" x2="69.315" y2="30.266"/>
	<line class="st12" x1="79.788" y1="30.293" x2="69.617" y2="26.28"/>
	<line class="st12" x1="81.817" y1="30.914" x2="73.101" y2="22.161"/>
	<line class="st12" x1="81.609" y1="29.887" x2="77.786" y2="17.883"/>
	<line class="st12" x1="83.508" y1="29.379" x2="83.444" y2="15.893"/>
	<path class="st13" d="M76.921,30.748c-0.1-0.526,0.033-1.115,0.448-1.457c0.51-0.414,1.315-0.387,1.76-0.861
		c0.152-0.156,0.252-0.365,0.368-0.541c0.586-0.902,2.437-1.313,3.481-0.845c0.195,0.095,0.37,0.21,0.594,0.259
		c0.306,0.064,0.652-0.013,0.958-0.128c0.839-0.344,1.218-0.434,1.906,0.027c0.411,0.265,0.807,0.591,1.433,0.368
		c0.121-0.041,0.239-0.107,0.373-0.132c0.279-0.06,0.568,0.049,0.726,0.217c0.159,0.168,0.219,0.374,0.256,0.583
		c0.079,0.357,0.147,0.716,0.553,0.939c0.247,0.14,0.571,0.168,0.726,0.396c0.181,0.259,0.057,0.728-0.001,1
		c-0.092,0.456-0.256,0.886-0.42,1.317l-12.427,0.597C77.363,31.992,76.951,30.898,76.921,30.748z"/>
	<path class="st14" d="M74.748,30.759c0.074,0.088,0.153,0.172,0.237,0.248c0.247,0.222,0.351-0.127,0.376-0.325
		c0.05-0.401,0.138-1.086-0.267-1.352c-0.113-0.074-0.258-0.094-0.39-0.064c-0.132,0.03-0.251,0.108-0.341,0.209
		c-0.076,0.086-0.134,0.192-0.149,0.306c-0.018,0.133,0.022,0.269,0.087,0.386C74.417,30.377,74.594,30.577,74.748,30.759z"/>
	<path class="st14" d="M76.736,26.297c0.114,0.015,0.229,0.024,0.342,0.023c0.333-0.002,0.174-0.33,0.059-0.493
		c-0.233-0.33-0.63-0.895-1.108-0.82c-0.134,0.021-0.254,0.104-0.332,0.215c-0.077,0.111-0.113,0.248-0.111,0.384
		c0.002,0.115,0.031,0.232,0.096,0.327c0.076,0.11,0.197,0.184,0.324,0.227C76.235,26.238,76.499,26.266,76.736,26.297z"/>
	<path class="st14" d="M80.378,26.413c-0.096,0.063-0.189,0.13-0.275,0.205c-0.252,0.218,0.082,0.364,0.275,0.413
		c0.392,0.099,1.06,0.272,1.374-0.096c0.088-0.103,0.126-0.244,0.112-0.379c-0.013-0.135-0.076-0.262-0.165-0.364
		c-0.076-0.087-0.174-0.157-0.285-0.186c-0.13-0.034-0.269-0.012-0.394,0.038C80.798,26.132,80.579,26.283,80.378,26.413z"/>
	<path class="st14" d="M83.553,23.651c0.109-0.036,0.216-0.078,0.318-0.128c0.299-0.147,0.013-0.373-0.161-0.469
		c-0.354-0.196-0.957-0.532-1.354-0.256c-0.111,0.077-0.184,0.204-0.205,0.338s0.006,0.273,0.067,0.394
		c0.052,0.103,0.129,0.196,0.229,0.252c0.117,0.066,0.258,0.08,0.391,0.063C83.075,23.816,83.326,23.726,83.553,23.651z"/>
	<path class="st14" d="M86.67,25.362c-0.016,0.114-0.027,0.228-0.028,0.342c-0.002,0.333,0.328,0.178,0.492,0.065
		c0.333-0.229,0.904-0.618,0.834-1.097c-0.019-0.134-0.101-0.256-0.211-0.334c-0.11-0.079-0.247-0.116-0.382-0.116
		c-0.115,0-0.232,0.028-0.328,0.092c-0.111,0.075-0.186,0.195-0.231,0.321C86.736,24.861,86.704,25.126,86.67,25.362z"/>
	<path class="st14" d="M91.572,30.968c0.113,0.02,0.227,0.035,0.341,0.04c0.332,0.014,0.19-0.322,0.083-0.489
		c-0.217-0.341-0.586-0.925-1.067-0.872c-0.135,0.015-0.259,0.092-0.341,0.199c-0.083,0.107-0.125,0.243-0.129,0.378
		c-0.004,0.115,0.019,0.233,0.08,0.331c0.071,0.114,0.188,0.193,0.313,0.242C91.073,30.885,91.336,30.926,91.572,30.968z"/>
	<path class="st14" d="M90.324,27.37c-0.047,0.105-0.089,0.212-0.121,0.321c-0.094,0.319,0.266,0.262,0.455,0.199
		c0.383-0.128,1.039-0.344,1.104-0.824c0.018-0.134-0.026-0.273-0.11-0.379s-0.205-0.18-0.335-0.217
		c-0.111-0.032-0.231-0.038-0.341-0.002c-0.128,0.041-0.233,0.136-0.311,0.245C90.526,26.907,90.422,27.153,90.324,27.37z"/>
</g>
<g id="Layer_15">
	
		<radialGradient id="SVGID_10_" cx="148.0307" cy="9.506" r="22.0349" fx="134.5214" fy="9.4082" gradientTransform="matrix(0.0777 -1.006 0.7143 -0.0081 78.4704 174.9026)" gradientUnits="userSpaceOnUse">
		<stop  offset="0" style="stop-color:#009245"/>
		<stop  offset="0.2382" style="stop-color:#3AAB43"/>
		<stop  offset="0.4691" style="stop-color:#6BC141"/>
		<stop  offset="0.6438" style="stop-color:#8ACE3F"/>
		<stop  offset="0.742" style="stop-color:#95D33F"/>
	</radialGradient>
	<path class="st17" d="M97.757,19.55c-9.505,0.108-17.906,8.554-19.181,19.063c-0.041,0.34,0.318,0.614,0.77,0.593l33.896-1.615
		c0.436-0.021,0.798-0.311,0.79-0.638C113.795,27.059,106.879,19.446,97.757,19.55z"/>
	<line class="st12" x1="102.865" y1="36.786" x2="109.959" y2="35.388"/>
	<line class="st12" x1="101.548" y1="35.272" x2="109.576" y2="31.226"/>
	<line class="st12" x1="100.969" y1="35.13" x2="106.224" y2="26.255"/>
	<line class="st12" x1="99.868" y1="34.775" x2="101.302" y2="23.18"/>
	<line class="st12" x1="91.989" y1="37.643" x2="82.922" y2="36.425"/>
	<line class="st12" x1="93.395" y1="36.452" x2="83.225" y2="32.438"/>
	<line class="st12" x1="95.425" y1="37.072" x2="86.708" y2="28.32"/>
	<line class="st12" x1="95.217" y1="36.045" x2="91.393" y2="24.042"/>
	<line class="st12" x1="97.115" y1="35.538" x2="97.051" y2="22.051"/>
	<path class="st13" d="M90.528,36.907c-0.1-0.526,0.033-1.115,0.448-1.457c0.51-0.414,1.315-0.387,1.76-0.861
		c0.152-0.156,0.252-0.365,0.368-0.541c0.586-0.902,2.437-1.313,3.481-0.845c0.195,0.095,0.37,0.21,0.594,0.259
		c0.306,0.064,0.652-0.013,0.958-0.128c0.839-0.344,1.218-0.434,1.906,0.027c0.411,0.265,0.807,0.591,1.433,0.368
		c0.121-0.041,0.239-0.107,0.373-0.132c0.279-0.06,0.568,0.049,0.726,0.217c0.159,0.168,0.219,0.374,0.256,0.583
		c0.079,0.357,0.147,0.716,0.553,0.939c0.247,0.14,0.571,0.168,0.726,0.396c0.181,0.259,0.057,0.728-0.001,1
		c-0.092,0.456-0.256,0.886-0.42,1.317l-12.427,0.597C90.97,38.15,90.559,37.057,90.528,36.907z"/>
	<path class="st14" d="M88.356,36.918c0.074,0.088,0.153,0.172,0.237,0.248c0.247,0.222,0.351-0.127,0.376-0.325
		c0.05-0.401,0.138-1.086-0.267-1.352c-0.113-0.074-0.258-0.094-0.39-0.064c-0.132,0.03-0.251,0.108-0.341,0.209
		c-0.076,0.086-0.134,0.192-0.149,0.306c-0.018,0.133,0.022,0.269,0.087,0.386C88.025,36.536,88.202,36.735,88.356,36.918z"/>
	<path class="st14" d="M90.344,32.456c0.114,0.015,0.229,0.024,0.342,0.023c0.333-0.002,0.174-0.33,0.059-0.493
		c-0.233-0.33-0.63-0.895-1.108-0.82c-0.134,0.021-0.254,0.104-0.332,0.215s-0.113,0.248-0.111,0.384
		c0.002,0.115,0.031,0.232,0.096,0.327c0.076,0.11,0.197,0.184,0.324,0.227C89.842,32.396,90.107,32.425,90.344,32.456z"/>
	<path class="st14" d="M93.986,32.571c-0.096,0.063-0.189,0.13-0.275,0.205c-0.252,0.218,0.082,0.364,0.275,0.413
		c0.392,0.099,1.06,0.272,1.374-0.096c0.088-0.103,0.126-0.244,0.112-0.379c-0.013-0.135-0.076-0.262-0.165-0.364
		c-0.076-0.087-0.174-0.157-0.285-0.186c-0.13-0.034-0.269-0.012-0.394,0.038C94.406,32.291,94.186,32.441,93.986,32.571z"/>
	<path class="st14" d="M97.16,29.81c0.109-0.036,0.216-0.078,0.318-0.128c0.299-0.147,0.013-0.373-0.161-0.469
		c-0.354-0.196-0.957-0.532-1.354-0.256c-0.111,0.077-0.184,0.204-0.205,0.338s0.006,0.273,0.067,0.394
		c0.052,0.103,0.129,0.196,0.229,0.252c0.117,0.066,0.258,0.08,0.391,0.063C96.683,29.975,96.934,29.885,97.16,29.81z"/>
	<path class="st14" d="M100.278,31.521c-0.016,0.114-0.027,0.228-0.028,0.342c-0.002,0.333,0.328,0.178,0.492,0.065
		c0.333-0.229,0.904-0.618,0.834-1.097c-0.019-0.134-0.101-0.256-0.211-0.334s-0.247-0.116-0.382-0.116
		c-0.115,0-0.232,0.028-0.328,0.092c-0.111,0.075-0.186,0.195-0.231,0.321C100.344,31.02,100.312,31.284,100.278,31.521z"/>
	<path class="st14" d="M105.179,37.127c0.113,0.02,0.227,0.035,0.341,0.04c0.332,0.014,0.19-0.322,0.083-0.489
		c-0.217-0.341-0.586-0.925-1.067-0.872c-0.135,0.015-0.259,0.092-0.341,0.199c-0.083,0.107-0.125,0.243-0.129,0.378
		c-0.004,0.115,0.019,0.233,0.08,0.331c0.071,0.114,0.188,0.193,0.313,0.242C104.681,37.043,104.944,37.085,105.179,37.127z"/>
	<path class="st14" d="M103.931,33.529c-0.047,0.105-0.089,0.212-0.121,0.321c-0.094,0.319,0.266,0.262,0.455,0.199
		c0.383-0.128,1.039-0.344,1.104-0.824c0.018-0.134-0.026-0.273-0.11-0.38c-0.084-0.106-0.205-0.18-0.335-0.217
		c-0.111-0.032-0.231-0.038-0.341-0.002c-0.128,0.041-0.233,0.136-0.311,0.245C104.133,33.066,104.03,33.311,103.931,33.529z"/>
</g>
<g id="kiwi_cover">
	<path class="st0" d="M117.122,30.1v17.98c0,2.9-2.37,5.28-5.28,5.28h-29.62c-2.9,0-5.28-2.38-5.28-5.28v-8.7
		c11.79-0.82,22.61-2.73,31.31-5.59C111.662,32.67,114.642,31.42,117.122,30.1z"/>
	<path class="st0" d="M108.252,33.79c-8.7,2.86-19.52,4.77-31.31,5.59v2c16.76-1.15,31.1-4.47,40.18-9.01V30.1
		C114.642,31.42,111.662,32.67,108.252,33.79z"/>
</g>
<g id="highlight">
	<path class="st18" d="M117.95,42.757c-1.881,4.692-4.347,8.962-7.556,12.92c-1.938,2.391-4.091,4.6-6.333,6.706
		c-1.122,1.054-2.268,2.081-3.425,3.095c-0.596,0.522-2.607,1.778-2.313,2.752c0.209,0.692,2.93,0.42,3.118,0.4
		c0.61-0.064,1.313-0.138,2.098-0.467c1.375-0.576,1.94-1.618,3.17-2.948c1.129-1.22,2.213-2.481,3.251-3.78
		c3.084-3.859,5.734-8.067,7.858-12.528c1.753-3.683,3.036-7.548,4.121-11.474c0.011-0.039,0.021-0.083,0-0.118
		c-0.029-0.047-0.096-0.048-0.151-0.042c-0.895,0.091-2.145,0.293-2.461,1.289C118.884,39.96,118.496,41.394,117.95,42.757z"/>
	<path class="st18" d="M120.575,31.852c-0.523,0.842-0.562,1.88-0.609,2.841c-0.005,0.107-0.01,0.216,0.022,0.318
		c0.103,0.334,0.503,0.304,0.777,0.235c0.481-0.12,1.103-0.296,1.492-0.612c0.385-0.313,0.477-0.85,0.588-1.304
		c0.441-1.802,0.405-1.922,0.317-2.015c-0.201-0.212-0.802-0.185-1.951,0.108c-0.129,0.033-0.259,0.072-0.371,0.146
		C120.687,31.668,120.609,31.797,120.575,31.852z"/>
	<g>
	</g>
	<g>
	</g>
	<g>
	</g>
	<g>
	</g>
	<g>
	</g>
</g>
</svg>
