<?xml version="1.0" encoding="utf-8"?>
<!-- Generator: Adobe Illustrator 25.0.0, SVG Export Plug-In . SVG Version: 6.00 Build 0)  -->
<svg version="1.1" xmlns="http://www.w3.org/2000/svg" xmlns:xlink="http://www.w3.org/1999/xlink" x="0px" y="0px"
	 viewBox="0 0 190.869 157.17" style="enable-background:new 0 0 190.869 157.17;" xml:space="preserve">
<style type="text/css">
	.st0{opacity:0.43;fill:#999999;}
	.st1{fill:#195F82;}
	.st2{fill:#72ABC1;}
	.st3{fill:#568091;}
	.st4{fill:#D7AD7B;stroke:#C68263;stroke-width:3;stroke-miterlimit:10;}
	.st5{fill:#BCD67C;}
	.st6{fill:#E8F4C1;}
	.st7{fill:#F2F1DD;}
	.st8{fill:#F2C853;}
	.st9{fill:#FFF4C0;}
	.st10{fill:#1E1E1E;}
	.st11{opacity:0.79;}
	.st12{opacity:0.63;}
	.st13{opacity:0.6;}
</style>
<g id="Layer_11">
	
		<ellipse transform="matrix(0.0808 -0.9967 0.9967 0.0808 8.8899 170.6772)" class="st0" cx="96.985" cy="80.519" rx="76.519" ry="93.985"/>
	<ellipse class="st1" cx="93.985" cy="76.519" rx="93.985" ry="76.519"/>
	<ellipse class="st2" cx="93.985" cy="76.519" rx="67.905" ry="55.286"/>
	<path class="st3" d="M37.746,77.884c0,28.43,27.02,51.72,61.29,53.77c-1.66,0.1-3.35,0.15-5.05,0.15
		c-37.5,0-67.91-24.75-67.91-55.29c0-30.53,30.41-55.28,67.91-55.28c9.56,0,18.65,1.61,26.9,4.51c-5.4-1.16-11.07-1.78-16.91-1.78
		C67.396,23.964,37.746,48.104,37.746,77.884z"/>
</g>
<g id="toast">
	<path class="st4" d="M54.575,113.545c14.667-2.353,29.846-4.979,44.916-5.385c15.765-0.425,29.93,3.659,45.36,5.601
		c12.333,1.551,18.308-11.847,20.383-21.816c2.902-13.946,0.507-29.525-9.359-40.288c-9.968-10.875-26.442-15.067-40.79-13.555
		c-6.111,0.644-12.322,2.287-18.489,1.29c-5.632-0.911-9.786-4.673-14.896-6.86c-13.793-5.904-31.488-0.89-42.698,8.264
		C28.634,49.26,24.778,63.701,25.058,76.609c0.263,12.119,3.342,29.476,15.339,35.522C44.805,114.353,49.665,114.332,54.575,113.545
		z"/>
</g>
<g id="Layer_2">
	<path class="st5" d="M53.955,41.879l0.039,0.459l2.095,26.604c0.06,0.8-0.403,1.557-1.145,1.871
		c-4.463,1.864-6.312,4.7-6.892,5.687c-2.615,4.468-1.538,9.757,0.669,14.148c0.95,1.88,2.118,3.666,3.418,5.321
		c0.715,0.924,3.042,2.749,3.091,3.884c0.03,0.471-0.135,0.92-0.301,1.36c-1.095,2.875-2.769,7.484-5.689,9.45
		c-0.763,0.509-1.603,0.837-2.542,0.918c-4.954,0.41-9.53-1.643-11.241-6.502c-2.833-8.089-9.603-34.243-1.904-45.128
		c7.687-10.893,16.086-20.547,18.141-21.008c0.431-0.095,0.794,0.032,0.794,0.032C53.511,39.327,53.837,40.957,53.955,41.879z"/>
	<g id="Layer_3">
		<path class="st6" d="M53.994,42.339l2.095,26.604c0.06,0.8-0.403,1.557-1.145,1.871c-4.463,1.864-6.312,4.7-6.892,5.687
			c-2.615,4.468-1.538,9.757,0.669,14.148c0.95,1.88,2.118,3.666,3.418,5.321c0.715,0.924,3.042,2.749,3.091,3.884
			c0.03,0.471-0.135,0.92-0.301,1.36c-1.095,2.875-2.769,7.484-5.689,9.45c-4.389,0.538-7.592-1.873-9.664-6.102
			c-4.141-8.449-6.622-17.895-6.352-27.34c0.288-9.862,3.996-18.438,10.116-26.092c1.542-1.92,3.209-3.748,5.03-5.427
			c1.023-0.932,1.967-1.984,3.164-2.7C52.352,42.514,53.15,42.374,53.994,42.339z"/>
	</g>
</g>
<g id="Layer_4">
	<path class="st5" d="M64.252,38.117l0.039,0.459l2.095,26.604c0.06,0.8-0.403,1.557-1.145,1.871
		c-4.463,1.864-6.312,4.7-6.892,5.687c-2.615,4.468-1.538,9.757,0.669,14.148c0.95,1.88,2.118,3.666,3.418,5.321
		c0.715,0.924,3.042,2.749,3.091,3.884c0.03,0.471-0.135,0.92-0.301,1.36c-1.095,2.875-2.769,7.484-5.689,9.45
		c-0.763,0.509-1.603,0.837-2.542,0.918c-4.954,0.41-9.53-1.643-11.241-6.502c-2.833-8.089-9.603-34.243-1.904-45.128
		c7.687-10.893,16.086-20.547,18.141-21.008c0.431-0.095,0.794,0.032,0.794,0.032C63.808,35.565,64.134,37.195,64.252,38.117z"/>
	<path class="st6" d="M64.291,38.577c0,0,2.095,26.604,2.095,26.604c0.06,0.8-0.403,1.557-1.145,1.871
		c-4.463,1.864-6.312,4.7-6.892,5.687c-2.615,4.468-1.538,9.757,0.669,14.148c0.95,1.88,2.118,3.666,3.418,5.321
		c0.715,0.924,3.042,2.749,3.091,3.884c0.03,0.471-0.135,0.92-0.301,1.36c-1.095,2.875-2.769,7.484-5.689,9.45
		c-1.151-0.608-2.761-1.591-4.399-3.112c-1.801-1.673-4.915-5.184-7.358-16.475c-1.879-8.684-3.972-18.355-0.265-25.912
		c2.022-4.121,4.336-8.091,6.77-11.98c1.218-1.945,2.467-3.871,3.73-5.787c1.035-1.571,2.065-3.318,3.754-4.276
		C61.975,39.243,64.273,38.353,64.291,38.577z"/>
</g>
<g id="Layer_5">
	<path class="st5" d="M78.973,37.478l0.039,0.459l2.095,26.604c0.06,0.8-0.403,1.557-1.145,1.871
		c-4.463,1.864-6.312,4.7-6.892,5.687c-2.615,4.468-1.538,9.757,0.669,14.148c0.95,1.88,2.118,3.666,3.418,5.321
		c0.715,0.924,3.042,2.749,3.091,3.884c0.03,0.471-0.135,0.92-0.301,1.36c-1.095,2.875-2.769,7.484-5.689,9.45
		c-0.763,0.509-1.603,0.837-2.542,0.918c-4.954,0.41-9.53-1.643-11.241-6.502c-2.833-8.089-9.603-34.243-1.904-45.128
		c7.687-10.893,16.086-20.547,18.141-21.008c0.431-0.095,0.794,0.032,0.794,0.032C78.529,34.926,78.855,36.555,78.973,37.478z"/>
	<path class="st6" d="M79.012,37.937c0,0,2.095,26.604,2.095,26.604c0.06,0.8-0.403,1.557-1.145,1.871
		c-4.463,1.864-6.312,4.7-6.892,5.687c-2.615,4.468-1.538,9.757,0.669,14.148c0.95,1.88,2.118,3.666,3.418,5.321
		c0.715,0.924,3.042,2.749,3.091,3.884c0.03,0.471-0.135,0.92-0.301,1.36c-1.095,2.875-2.769,7.484-5.689,9.45
		c-1.151-0.608-2.761-1.591-4.399-3.112c-1.801-1.673-4.915-5.184-7.358-16.475c-1.879-8.684-3.972-18.355-0.265-25.912
		c2.022-4.121,4.336-8.091,6.77-11.98c1.218-1.945,2.467-3.871,3.73-5.787c1.035-1.571,2.065-3.318,3.754-4.276
		C76.696,38.604,78.994,37.713,79.012,37.937z"/>
</g>
<g id="Layer_6">
	<path class="st5" d="M91.846,37.764l0.039,0.459l2.095,26.604c0.059,0.8-0.403,1.557-1.145,1.871
		c-4.463,1.864-6.312,4.7-6.892,5.687c-2.615,4.468-1.538,9.757,0.669,14.148c0.95,1.88,2.118,3.666,3.418,5.321
		c0.715,0.924,3.042,2.749,3.091,3.884c0.03,0.471-0.135,0.92-0.301,1.36c-1.095,2.875-2.769,7.484-5.689,9.45
		c-0.763,0.509-1.603,0.837-2.542,0.918c-4.954,0.41-9.53-1.643-11.241-6.502c-2.833-8.089-9.603-34.243-1.904-45.128
		c7.687-10.893,16.086-20.547,18.141-21.008c0.431-0.095,0.794,0.032,0.794,0.032C91.402,35.212,91.728,36.841,91.846,37.764z"/>
	<path class="st6" d="M91.885,38.223c0,0,2.095,26.604,2.095,26.604c0.059,0.8-0.403,1.557-1.145,1.871
		c-4.463,1.864-6.312,4.7-6.892,5.687c-2.615,4.468-1.538,9.757,0.669,14.148c0.95,1.88,2.118,3.666,3.418,5.321
		c0.715,0.924,3.042,2.749,3.091,3.884c0.03,0.471-0.135,0.92-0.301,1.36c-1.095,2.875-2.769,7.484-5.689,9.45
		c-1.151-0.608-2.761-1.591-4.399-3.112c-1.801-1.673-4.915-5.184-7.358-16.475c-1.879-8.684-3.972-18.355-0.265-25.912
		c2.022-4.121,4.336-8.091,6.77-11.98c1.218-1.945,2.467-3.871,3.73-5.787c1.035-1.571,2.065-3.318,3.754-4.276
		C89.568,38.89,91.866,37.999,91.885,38.223z"/>
</g>
<g id="Layer_7">
	<path class="st5" d="M106.567,37.125l0.039,0.459l2.095,26.604c0.06,0.8-0.403,1.557-1.145,1.871
		c-4.463,1.864-6.312,4.7-6.892,5.687c-2.615,4.468-1.538,9.757,0.669,14.148c0.95,1.88,2.118,3.666,3.418,5.321
		c0.715,0.924,3.042,2.749,3.091,3.884c0.03,0.471-0.135,0.92-0.301,1.36c-1.095,2.875-2.769,7.484-5.689,9.45
		c-0.763,0.509-1.603,0.837-2.542,0.918c-4.954,0.41-9.53-1.643-11.241-6.502c-2.833-8.089-9.603-34.243-1.904-45.128
		c7.687-10.893,16.086-20.547,18.141-21.008c0.431-0.095,0.794,0.032,0.794,0.032C106.123,34.572,106.449,36.202,106.567,37.125z"/>
	<path class="st6" d="M106.606,37.584c0,0,2.095,26.604,2.095,26.604c0.06,0.8-0.403,1.557-1.145,1.871
		c-4.463,1.864-6.312,4.7-6.892,5.687c-2.615,4.468-1.538,9.757,0.669,14.148c0.95,1.88,2.118,3.666,3.418,5.321
		c0.715,0.924,3.042,2.749,3.091,3.884c0.03,0.471-0.135,0.92-0.301,1.36c-1.095,2.875-2.769,7.484-5.689,9.45
		c-1.151-0.608-2.761-1.591-4.399-3.112c-1.801-1.673-4.915-5.184-7.358-16.475c-1.879-8.684-3.972-18.355-0.265-25.912
		c2.022-4.121,4.336-8.091,6.77-11.98c1.218-1.945,2.467-3.871,3.73-5.787c1.035-1.571,2.065-3.318,3.754-4.276
		C104.289,38.25,106.588,37.36,106.606,37.584z"/>
</g>
<g id="egg">
	<path class="st7" d="M118.915,79.026c-0.816,8.573-4.051,20.362,3.03,26.843c2.259,2.068,5.375,3,8.433,3.164
		c7.084,0.38,15.457-1.203,20.768-6.175c6.571-6.153,9.232-15.473,9.679-24.223c0.408-7.977-0.165-20.418-7.781-25.117
		c-1.13-0.698-2.339-1.243-3.535-1.814c-9.481-4.524-19.318-16.168-30.819-10.743c-1.575,0.743-3.055,1.779-4.043,3.213
		c-2.159,3.132-1.254,6.768-1.672,10.274c-0.431,3.618-2.315,7.356-0.514,10.899c1.763,3.467,5.59,5.756,6.479,9.698
		c0.174,0.77,0.144,1.57,0.1,2.358C119.011,77.929,118.968,78.471,118.915,79.026z"/>
	<g id="Layer_10">
		
			<ellipse transform="matrix(0.1438 -0.9896 0.9896 0.1438 40.8783 209.6387)" class="st8" cx="141.587" cy="81.196" rx="15.37" ry="14.176"/>
	</g>
	<g id="Layer_12">
		<path class="st9" d="M129.234,77.715c0.556-1.021,1.165-2.012,1.838-2.962c1.152-1.626,2.46-3.168,4.04-4.395
			c1.173-0.911,2.464-1.661,3.792-2.32c0.478-0.237,0.963-0.462,1.451-0.679c0.436-0.193,0.849-0.442,1.342-0.42
			c0.706,0.032,1.616,0.27,2.21,0.666c0.266,0.178,0.418,0.526,0.4,0.841c-0.005,0.093-0.025,0.175-0.056,0.249
			c-0.329,0.768-1.567,1.008-2.276,1.231c-1.141,0.36-2.236,0.766-3.3,1.317c-2.486,1.287-4.73,3.046-6.986,4.675
			c-0.394,0.284-0.787,0.57-1.179,0.857C130.19,77.01,129.42,77.373,129.234,77.715z"/>
	</g>
</g>
<g id="pepper">
	<g>
		<g>
			<path class="st10" d="M133.55,94.802c0.551,0,0.601-2.347,0.076-2.347C133.074,92.454,133.024,94.802,133.55,94.802
				L133.55,94.802z"/>
		</g>
	</g>
	<g>
		<g>
			<path class="st10" d="M140.963,70.505c0.608,0,1.707-1.553,1.405-1.553C141.76,68.952,140.661,70.505,140.963,70.505
				L140.963,70.505z"/>
		</g>
	</g>
	<g>
		<g>
			<path class="st10" d="M135.155,65.889c0.796,0,1.752-0.193,2.388-0.706c0.467-0.377,0.477-0.846-0.25-0.846
				c-0.796,0-1.752,0.193-2.388,0.706C134.437,65.42,134.427,65.889,135.155,65.889L135.155,65.889z"/>
		</g>
	</g>
	<g>
		<g>
			<path class="st10" d="M142.756,76.18c1.224,0,0.857-1.956-0.176-1.956C141.356,74.224,141.723,76.18,142.756,76.18L142.756,76.18
				z"/>
		</g>
	</g>
	<g>
		<g>
			<path class="st10" d="M134.109,73.454c1.169,0,0.329-1.946-0.539-1.946C132.4,71.508,133.241,73.454,134.109,73.454
				L134.109,73.454z"/>
		</g>
	</g>
	<g class="st11">
		<g>
			<path class="st10" d="M149.604,67.068c1.594,0,1.586-3.317-0.015-3.317C147.995,63.751,148.003,67.068,149.604,67.068
				L149.604,67.068z"/>
		</g>
	</g>
	<g class="st12">
		<g>
			<path class="st10" d="M144.889,84.346c0.717,0,1.302-0.739,1.201-1.423c-0.118-0.804-0.919-1.12-1.626-1.12
				c-0.717,0-1.302,0.739-1.201,1.423C143.381,84.029,144.182,84.346,144.889,84.346L144.889,84.346z"/>
		</g>
	</g>
	<g>
		<g>
			<path class="st10" d="M139.093,88.944c1.33,0,0.33-2.658-0.886-2.658C136.877,86.286,137.877,88.944,139.093,88.944
				L139.093,88.944z"/>
		</g>
	</g>
	<g class="st13">
		<g>
			<path class="st10" d="M155.484,83.478c0.844,0,1.851-0.493,2.077-1.372c0.215-0.833-0.49-1.471-1.292-1.471
				c-0.844,0-1.851,0.493-2.077,1.372C153.978,82.839,154.683,83.478,155.484,83.478L155.484,83.478z"/>
		</g>
	</g>
	<g>
		<g>
			<path class="st10" d="M149.523,78.963c0.533,0,1.228-0.222,1.401-0.798c0.152-0.506-0.239-0.979-0.769-0.979
				c-0.533,0-1.228,0.222-1.401,0.798C148.602,78.49,148.993,78.963,149.523,78.963L149.523,78.963z"/>
		</g>
	</g>
	<g>
		<g>
			<path class="st10" d="M135.229,81.052c0.821,0,1.557-0.732,2-1.364c0.155-0.222,0.951-1.658,0.161-1.658
				c-0.821,0-1.557,0.732-2,1.364C135.234,79.615,134.439,81.052,135.229,81.052L135.229,81.052z"/>
		</g>
	</g>
	<g>
		<g>
			<path class="st10" d="M149.088,89.001c0.849,0,1.457-2.772,1.155-2.772C149.394,86.229,148.786,89.001,149.088,89.001
				L149.088,89.001z"/>
		</g>
	</g>
	<g>
		<g>
			<path class="st10" d="M141.44,95.249c0.608,0,1.707-1.553,1.405-1.553C142.237,93.696,141.138,95.249,141.44,95.249
				L141.44,95.249z"/>
		</g>
	</g>
	<g>
		<g>
			<path class="st10" d="M141.485,61.194c0.821,0,1.557-0.732,2-1.364c0.155-0.222,0.951-1.658,0.161-1.658
				c-0.821,0-1.557,0.732-2,1.364C141.491,59.757,140.695,61.194,141.485,61.194L141.485,61.194z"/>
		</g>
	</g>
	<g>
		<g>
			<path class="st10" d="M153.008,74.012c1.33,0,0.33-2.658-0.886-2.658C150.793,71.354,151.793,74.012,153.008,74.012
				L153.008,74.012z"/>
		</g>
	</g>
	<g>
	</g>
	<g>
	</g>
	<g>
	</g>
	<g>
	</g>
	<g>
	</g>
</g>
</svg>
