<?xml version="1.0" encoding="utf-8"?>
<!-- Generator: Adobe Illustrator 25.0.0, SVG Export Plug-In . SVG Version: 6.00 Build 0)  -->
<svg version="1.1" xmlns="http://www.w3.org/2000/svg" xmlns:xlink="http://www.w3.org/1999/xlink" x="0px" y="0px"
	 viewBox="0 0 99.927 167.839" style="enable-background:new 0 0 99.927 167.839;" xml:space="preserve">
<style type="text/css">
	.st0{fill:url(#SVGID_1_);}
	.st1{fill:url(#SVGID_2_);}
	.st2{fill:url(#SVGID_3_);}
	.st3{fill:url(#big_dude_1_);}
	.st4{fill:url(#SVGID_4_);}
	.st5{fill:url(#SVGID_5_);}
	.st6{fill:url(#SVGID_6_);}
	.st7{fill:url(#SVGID_7_);}
	.st8{fill:url(#SVGID_8_);}
	.st9{fill:url(#SVGID_9_);}
	.st10{fill:url(#SVGID_10_);}
	.st11{fill:#F2FCF4;}
	.st12{fill:#B47697;}
	.st13{opacity:0.14;fill:url(#shadow_1_);}
	.st14{opacity:0.82;fill:#E1C8D5;}
</style>
<g id="third_dude">
	
		<linearGradient id="SVGID_1_" gradientUnits="userSpaceOnUse" x1="90.7302" y1="50.9808" x2="83.3425" y2="83.2504" gradientTransform="matrix(1.1396 0.4011 -0.3075 0.9527 -4.9148 -57.3677)">
		<stop  offset="0.1914" style="stop-color:#4FB968"/>
		<stop  offset="0.8779" style="stop-color:#8CCC3E"/>
	</linearGradient>
	<path class="st0" d="M85.149,50.85c-4.308,4.648-11.619,6.481-17.419,9.517c-1.062,0.428-2.385-0.124-2.828-1.181
		c-1.92-6.257-5.759-12.744-5.484-19.076c0.209-4.804,2.47-9.267,6.26-12.369c7.214-5.905,22.996,0.781,23.862,9.959
		C90,42.576,88.417,47.323,85.149,50.85z"/>
	
		<linearGradient id="SVGID_2_" gradientUnits="userSpaceOnUse" x1="131.9184" y1="63.5862" x2="124.5768" y2="95.6547" gradientTransform="matrix(0.4094 0.035 -0.0576 0.5024 30.0616 -27.3876)">
		<stop  offset="0.1914" style="stop-color:#4FB968"/>
		<stop  offset="0.8779" style="stop-color:#8CCC3E"/>
	</linearGradient>
	<path class="st1" d="M82.402,20.073c-1.195,3.805-3.314,6.887-4.636,6.991c-0.369,0.029-0.824,0.005-0.824,0.005
		c0,0-0.931-0.049-1.68-0.294c-1.441-0.471-2.295-4.942-2.188-8.303c0.121-3.812,0.665-5.316,1.523-6.838
		c2.171-3.852,7.898-2.822,8.651,1.485C83.544,14.81,83.549,16.422,82.402,20.073z"/>
	
		<linearGradient id="SVGID_3_" gradientUnits="userSpaceOnUse" x1="167.2239" y1="87.2251" x2="159.8823" y2="119.2935" gradientTransform="matrix(0.3037 0.2768 -0.3513 0.3638 78.9194 -58.6948)">
		<stop  offset="0.1914" style="stop-color:#4FB968"/>
		<stop  offset="0.8779" style="stop-color:#8CCC3E"/>
	</linearGradient>
	<path class="st2" d="M94.024,29.182c-3.262,2.294-6.82,3.452-7.932,2.73c-0.31-0.201-0.657-0.498-0.657-0.498
		c0,0-0.709-0.605-1.154-1.255c-0.857-1.25,1.184-5.319,3.313-7.922c2.415-2.952,3.761-3.815,5.368-4.502
		c4.066-1.738,7.986,2.563,5.964,6.44C98.131,25.698,97.155,26.981,94.024,29.182z"/>
</g>
<g id="Layer_6">
	
		<linearGradient id="big_dude_1_" gradientUnits="userSpaceOnUse" x1="42.9058" y1="47.97" x2="32.224" y2="94.6279" gradientTransform="matrix(1.5421 -0.0399 0.0876 0.9994 -13.3934 0.7422)">
		<stop  offset="0.1914" style="stop-color:#4FB968"/>
		<stop  offset="0.8779" style="stop-color:#8CCC3E"/>
	</linearGradient>
	<path id="big_dude" class="st3" d="M76.959,77.078c-4.196,8.524-15.477,14.832-23.339,21.966c-1.528,1.135-4.176,1.085-5.661-0.107
		c-7.588-7.423-18.624-14.149-22.499-22.824c-2.94-6.582-2.126-13.783,2.245-19.952c8.319-11.744,39.973-11.018,47.758,0.894
		C79.599,63.384,80.143,70.61,76.959,77.078z"/>
</g>
<g id="first_dude">
	
		<linearGradient id="SVGID_4_" gradientUnits="userSpaceOnUse" x1="15.8882" y1="33.1184" x2="8.5005" y2="65.388" gradientTransform="matrix(0.4736 -0.4787 0.4795 0.4748 -10.7703 31.6723)">
		<stop  offset="0.1914" style="stop-color:#4FB968"/>
		<stop  offset="0.8779" style="stop-color:#8CCC3E"/>
	</linearGradient>
	<path class="st4" d="M26.452,46.112c1.739,3.817,1.222,8.324,1.718,12.414c0.018,0.708-0.582,1.235-1.282,1.128
		c-3.993-1.012-8.529-1.072-12.094-3.282c-2.705-1.676-4.776-4.339-5.74-7.376c-1.836-5.781,5.371-12.041,10.811-9.514
		C22.754,40.823,25.133,43.215,26.452,46.112z"/>
	
		<linearGradient id="SVGID_5_" gradientUnits="userSpaceOnUse" x1="31.1013" y1="27.8492" x2="28.4905" y2="39.2532" gradientTransform="matrix(0.6719 0.0451 -0.0454 0.6733 0.3464 10.7179)">
		<stop  offset="0.1914" style="stop-color:#4FB968"/>
		<stop  offset="0.8779" style="stop-color:#8CCC3E"/>
	</linearGradient>
	<path class="st5" d="M21.491,36.028c0,0-0.559,1.555-2.682,3.229c-0.114,0.09-0.318,0.234-0.552,0.202
		c-0.215-0.03-0.362-0.195-0.453-0.311c-1.622-2.093-1.75-3.864-1.75-3.864c-0.087-1.206,0.044-2.26,0.645-3.239
		c1.121-1.827,4.46-1.348,5.042,0.69C22.057,33.842,21.897,34.898,21.491,36.028z"/>
	
		<linearGradient id="SVGID_6_" gradientUnits="userSpaceOnUse" x1="19.4515" y1="10.7802" x2="13.5123" y2="36.7227" gradientTransform="matrix(0.6085 -0.2883 0.2888 0.6099 -9.0526 21.9303)">
		<stop  offset="0.1914" style="stop-color:#4FB968"/>
		<stop  offset="0.8779" style="stop-color:#8CCC3E"/>
	</linearGradient>
	<path class="st6" d="M14.625,31.458c0,0,0.615,3.708-1.743,9.389c-0.126,0.304-0.371,0.818-0.873,1.014
		c-0.459,0.179-0.936,0.015-1.245-0.116c-5.543-2.357-7.763-5.731-7.763-5.731c-1.512-2.298-2.421-4.536-2.315-7.148
		c0.199-4.872,7.362-7.626,10.779-4.224C13.323,26.488,14.178,28.762,14.625,31.458z"/>
</g>
<g id="middle_dude">
	
		<linearGradient id="SVGID_7_" gradientUnits="userSpaceOnUse" x1="86.318" y1="9.6937" x2="82.9965" y2="24.2019" gradientTransform="matrix(0.5896 0.3252 -0.3261 0.5908 10.1021 -21.3844)">
		<stop  offset="0.1914" style="stop-color:#4FB968"/>
		<stop  offset="0.8779" style="stop-color:#8CCC3E"/>
	</linearGradient>
	<path class="st7" d="M56.805,19.175c0,0-1.482,1.491-4.83,2.278c-0.179,0.042-0.492,0.099-0.745-0.065
		c-0.231-0.15-0.313-0.42-0.354-0.603c-0.742-3.286,0.063-5.396,0.063-5.396c0.549-1.437,1.267-2.581,2.487-3.387
		c2.276-1.502,5.867,0.848,5.44,3.51C58.634,16.96,57.882,18.091,56.805,19.175z"/>
	
		<linearGradient id="SVGID_8_" gradientUnits="userSpaceOnUse" x1="73.1697" y1="-5.4541" x2="67.8249" y2="17.8921" gradientTransform="matrix(0.6713 0.0526 -0.0529 0.6727 -3.3472 -0.2287)">
		<stop  offset="0.1914" style="stop-color:#4FB968"/>
		<stop  offset="0.8779" style="stop-color:#8CCC3E"/>
	</linearGradient>
	<path class="st8" d="M49.043,10.541c0,0-1.18,3.17-5.564,6.549c-0.235,0.181-0.656,0.473-1.135,0.401
		c-0.439-0.066-0.737-0.407-0.92-0.648c-3.272-4.322-3.494-7.949-3.494-7.949c-0.152-2.471,0.141-4.625,1.393-6.617
		c2.336-3.714,9.161-2.658,10.306,1.528C50.251,6.079,49.901,8.237,49.043,10.541z"/>
	
		<linearGradient id="SVGID_9_" gradientUnits="userSpaceOnUse" x1="61.3539" y1="-1.701" x2="57.3512" y2="15.7828" gradientTransform="matrix(0.6434 -0.1988 0.199 0.6448 -7.3336 19.5524)">
		<stop  offset="0.1914" style="stop-color:#4FB968"/>
		<stop  offset="0.8779" style="stop-color:#8CCC3E"/>
	</linearGradient>
	<path class="st9" d="M36.802,12.807c0,0,0.054,2.533-2.063,6.096c-0.113,0.191-0.326,0.51-0.679,0.593
		c-0.323,0.075-0.626-0.08-0.819-0.197c-3.471-2.104-4.629-4.568-4.629-4.568c-0.788-1.678-1.18-3.258-0.858-4.991
		c0.6-3.231,5.642-4.381,7.596-1.784C36.41,9.367,36.763,10.966,36.802,12.807z"/>
	
		<linearGradient id="SVGID_10_" gradientUnits="userSpaceOnUse" x1="52.5357" y1="35.6595" x2="43.6859" y2="74.3155" gradientTransform="matrix(0.8911 -0.1346 0.1328 0.8009 -9.0013 -5.7083)">
		<stop  offset="0.1914" style="stop-color:#4FB968"/>
		<stop  offset="0.8779" style="stop-color:#8CCC3E"/>
	</linearGradient>
	<path class="st10" d="M54.489,35.208c-0.459,3.926-1.401,11.987-7.619,15.053c-0.47,0.232-4.23,2.016-8.393,0.646
		c-6.086-2.003-8.102-9.125-9.331-13.465c-1.392-4.918-1.982-9.343-0.285-13.755c3.267-8.489,18.853-9.771,23.502-2.071
		C54.92,25.85,55.029,30.59,54.489,35.208z"/>
</g>
<g id="big_fuzzies">
	<g>
		<path class="st11" d="M34.328,63.445c-0.241,0.137-4.19-6.82-4.431-6.684c-0.241,0.137,3.708,7.094,3.468,7.231
			c-0.036,0.021-2.964-7.337-3.005-7.327c-0.04,0.009,0.613,7.901,0.572,7.899c-0.277-0.015,0.162-8.003-0.114-8.018
			c-0.277-0.015-0.716,7.973-0.992,7.958c-0.042-0.002,1.473-7.775,1.434-7.789c-0.039-0.014-3.756,6.978-3.79,6.954
			c-0.224-0.162,4.463-6.645,4.239-6.807c-0.224-0.162-4.912,6.32-5.137,6.158c-0.034-0.024,5.442-5.744,5.417-5.777
			c-0.025-0.033-6.932,3.84-6.948,3.801c-0.101-0.258,7.347-3.177,7.246-3.435c-0.101-0.258-7.55,2.661-7.651,2.403
			c-0.015-0.039,7.684-1.89,7.68-1.931c-0.004-0.041-7.908-0.517-7.9-0.558c0.054-0.272,7.899,1.3,7.953,1.028
			c0.054-0.272-7.79-1.843-7.735-2.115c0.008-0.041,7.486,2.564,7.505,2.528c0.019-0.037-6.373-4.711-6.344-4.741
			c0.193-0.199,5.942,5.364,6.135,5.165c0.193-0.199-5.557-5.762-5.364-5.961c0.029-0.03,4.911,6.205,4.947,6.184
			c0.036-0.02-2.815-7.408-2.774-7.418c0.27-0.063,2.099,7.725,2.369,7.661c0.27-0.063-1.56-7.851-1.29-7.915
			c0.041-0.01,0.777,7.875,0.819,7.877c0.041,0.002,1.638-7.754,1.677-7.74c0.261,0.093-2.411,7.633-2.149,7.726
			c0.261,0.093,2.933-7.448,3.194-7.356c0.039,0.014-3.604,7.045-3.57,7.069c0.033,0.024,5.57-5.638,5.595-5.605
			c0.17,0.219-6.155,5.118-5.985,5.337c0.17,0.219,6.494-4.68,6.664-4.461c0.026,0.033-6.84,3.978-6.825,4.017
			c0.015,0.038,7.733-1.732,7.737-1.69c0.024,0.276-7.945,0.978-7.92,1.254c0.024,0.276,7.993-0.426,8.018-0.15
			c0.004,0.042-7.905-0.351-7.913-0.311s7.442,2.724,7.423,2.761c-0.129,0.245-7.212-3.472-7.341-3.227
			c-0.129,0.245,6.955,3.963,6.826,4.208c-0.019,0.037-6.46-4.57-6.489-4.54C29.548,57.138,34.364,63.424,34.328,63.445z"/>
	</g>
	<g>
		<path class="st11" d="M34.328,79.445c-0.241,0.137-4.19-6.82-4.431-6.684c-0.241,0.137,3.708,7.094,3.468,7.231
			c-0.036,0.021-2.964-7.337-3.005-7.327c-0.04,0.009,0.613,7.901,0.572,7.899c-0.277-0.015,0.162-8.003-0.114-8.018
			c-0.277-0.015-0.716,7.973-0.992,7.958c-0.042-0.002,1.473-7.775,1.434-7.789c-0.039-0.014-3.756,6.978-3.79,6.954
			c-0.224-0.162,4.463-6.645,4.239-6.807c-0.224-0.162-4.912,6.32-5.137,6.158c-0.034-0.024,5.442-5.744,5.417-5.777
			c-0.025-0.033-6.932,3.84-6.948,3.801c-0.101-0.258,7.347-3.177,7.246-3.435c-0.101-0.258-7.55,2.661-7.651,2.403
			c-0.015-0.039,7.684-1.89,7.68-1.931c-0.004-0.041-7.908-0.517-7.9-0.558c0.054-0.272,7.899,1.3,7.953,1.028
			c0.054-0.272-7.79-1.843-7.735-2.115c0.008-0.041,7.486,2.564,7.505,2.528c0.019-0.037-6.373-4.711-6.344-4.741
			c0.193-0.199,5.942,5.364,6.135,5.165c0.193-0.199-5.557-5.762-5.364-5.961c0.029-0.03,4.911,6.205,4.947,6.184
			c0.036-0.02-2.815-7.408-2.774-7.418c0.27-0.063,2.099,7.725,2.369,7.661c0.27-0.063-1.56-7.851-1.29-7.915
			c0.041-0.01,0.777,7.875,0.819,7.877c0.041,0.002,1.638-7.754,1.677-7.74c0.261,0.093-2.411,7.633-2.149,7.726
			c0.261,0.093,2.933-7.448,3.194-7.356c0.039,0.014-3.604,7.045-3.57,7.069c0.033,0.024,5.57-5.638,5.595-5.605
			c0.17,0.219-6.155,5.118-5.985,5.337c0.17,0.219,6.494-4.68,6.664-4.461c0.026,0.033-6.84,3.978-6.825,4.017
			c0.015,0.038,7.733-1.732,7.737-1.69c0.024,0.276-7.945,0.978-7.92,1.254c0.024,0.276,7.993-0.426,8.018-0.15
			c0.004,0.042-7.905-0.351-7.913-0.311s7.442,2.724,7.423,2.761c-0.129,0.245-7.212-3.472-7.341-3.227
			c-0.129,0.245,6.955,3.963,6.826,4.208c-0.019,0.037-6.46-4.57-6.489-4.54C29.548,73.138,34.364,79.424,34.328,79.445z"/>
	</g>
	<g>
		<path class="st11" d="M47.328,56.445c-0.241,0.137-4.19-6.82-4.431-6.684c-0.241,0.137,3.708,7.094,3.468,7.231
			c-0.036,0.021-2.964-7.337-3.005-7.327c-0.04,0.009,0.613,7.901,0.572,7.899c-0.277-0.015,0.162-8.003-0.114-8.018
			c-0.277-0.015-0.716,7.973-0.992,7.958c-0.042-0.002,1.473-7.775,1.434-7.789c-0.039-0.014-3.756,6.978-3.79,6.954
			c-0.224-0.162,4.463-6.645,4.239-6.807s-4.912,6.32-5.137,6.158c-0.034-0.024,5.442-5.744,5.417-5.777
			c-0.025-0.033-6.932,3.84-6.948,3.801c-0.101-0.258,7.347-3.177,7.246-3.435c-0.101-0.258-7.55,2.661-7.651,2.403
			c-0.015-0.039,7.684-1.89,7.68-1.931c-0.004-0.041-7.908-0.517-7.9-0.558c0.054-0.272,7.899,1.3,7.953,1.028
			c0.054-0.272-7.79-1.843-7.735-2.115c0.008-0.041,7.486,2.564,7.505,2.528c0.019-0.037-6.373-4.711-6.344-4.741
			c0.193-0.199,5.942,5.364,6.135,5.165c0.193-0.199-5.557-5.762-5.364-5.961c0.029-0.03,4.911,6.205,4.947,6.184
			c0.036-0.02-2.815-7.408-2.774-7.418c0.27-0.063,2.099,7.725,2.369,7.661c0.27-0.063-1.56-7.851-1.29-7.915
			c0.041-0.01,0.777,7.875,0.819,7.877c0.041,0.002,1.638-7.754,1.677-7.74c0.261,0.093-2.411,7.633-2.149,7.726
			s2.933-7.448,3.194-7.356c0.039,0.014-3.604,7.045-3.57,7.069c0.033,0.024,5.57-5.638,5.595-5.605
			c0.17,0.219-6.155,5.118-5.985,5.337s6.494-4.68,6.664-4.461c0.026,0.033-6.84,3.978-6.825,4.017
			c0.015,0.038,7.733-1.732,7.737-1.69c0.024,0.276-7.945,0.978-7.92,1.254c0.024,0.276,7.993-0.426,8.018-0.15
			c0.004,0.042-7.905-0.351-7.913-0.311c-0.008,0.04,7.442,2.724,7.423,2.761c-0.129,0.245-7.212-3.472-7.341-3.227
			c-0.129,0.245,6.955,3.963,6.826,4.208c-0.019,0.037-6.46-4.57-6.489-4.54C42.548,50.138,47.364,56.424,47.328,56.445z"/>
	</g>
	<g>
		<path class="st11" d="M49.722,70.843c-0.241,0.137-4.19-6.82-4.431-6.684C45.05,64.296,49,71.254,48.759,71.39
			c-0.036,0.021-2.964-7.337-3.005-7.327c-0.04,0.009,0.613,7.901,0.572,7.899c-0.277-0.015,0.162-8.003-0.114-8.018
			c-0.277-0.015-0.716,7.973-0.992,7.958c-0.042-0.002,1.473-7.775,1.434-7.789c-0.039-0.014-3.756,6.978-3.79,6.954
			c-0.224-0.162,4.463-6.645,4.239-6.807c-0.224-0.162-4.912,6.32-5.137,6.158c-0.034-0.024,5.442-5.744,5.417-5.777
			c-0.025-0.033-6.932,3.84-6.948,3.801c-0.101-0.258,7.347-3.177,7.246-3.435c-0.101-0.258-7.55,2.661-7.651,2.403
			c-0.015-0.039,7.684-1.89,7.68-1.931c-0.004-0.041-7.908-0.517-7.9-0.558c0.054-0.272,7.899,1.3,7.953,1.028
			c0.054-0.272-7.79-1.843-7.735-2.115c0.008-0.041,7.486,2.564,7.505,2.528c0.019-0.037-6.373-4.711-6.344-4.741
			c0.193-0.199,5.942,5.364,6.135,5.165c0.193-0.199-5.557-5.762-5.364-5.961c0.029-0.03,4.911,6.205,4.947,6.184
			c0.036-0.02-2.815-7.408-2.774-7.418c0.27-0.063,2.099,7.725,2.369,7.661c0.27-0.063-1.56-7.851-1.29-7.915
			c0.041-0.01,0.777,7.875,0.819,7.877c0.041,0.002,1.638-7.754,1.677-7.74c0.261,0.093-2.411,7.633-2.149,7.726
			c0.261,0.093,2.933-7.448,3.194-7.356c0.039,0.014-3.604,7.045-3.57,7.069c0.033,0.024,5.57-5.638,5.595-5.605
			c0.17,0.219-6.155,5.118-5.985,5.337c0.17,0.219,6.494-4.68,6.664-4.461c0.026,0.033-6.84,3.978-6.825,4.017
			c0.015,0.038,7.733-1.732,7.737-1.69c0.024,0.276-7.945,0.978-7.92,1.254c0.024,0.276,7.993-0.426,8.018-0.15
			c0.004,0.042-7.905-0.351-7.913-0.311c-0.008,0.04,7.442,2.724,7.423,2.761c-0.129,0.245-7.212-3.472-7.341-3.227
			c-0.129,0.245,6.955,3.963,6.826,4.208c-0.019,0.037-6.46-4.57-6.489-4.54C44.942,64.537,49.759,70.823,49.722,70.843z"/>
	</g>
	<g>
		<path class="st11" d="M63.722,78.843c-0.241,0.137-4.19-6.82-4.431-6.684C59.05,72.296,63,79.254,62.759,79.39
			c-0.036,0.021-2.964-7.337-3.005-7.327c-0.04,0.009,0.613,7.901,0.572,7.899c-0.277-0.015,0.162-8.003-0.114-8.018
			c-0.277-0.015-0.716,7.973-0.992,7.958c-0.042-0.002,1.473-7.775,1.434-7.789c-0.039-0.014-3.756,6.978-3.79,6.954
			c-0.224-0.162,4.463-6.645,4.239-6.807c-0.224-0.162-4.912,6.32-5.137,6.158c-0.034-0.024,5.442-5.744,5.417-5.777
			c-0.025-0.033-6.932,3.84-6.948,3.801c-0.101-0.258,7.347-3.177,7.246-3.435c-0.101-0.258-7.55,2.661-7.651,2.403
			c-0.015-0.039,7.684-1.89,7.68-1.931c-0.004-0.041-7.908-0.517-7.9-0.558c0.054-0.272,7.899,1.3,7.953,1.028
			c0.054-0.272-7.79-1.843-7.735-2.115c0.008-0.041,7.486,2.564,7.505,2.528c0.019-0.037-6.373-4.711-6.344-4.741
			c0.193-0.199,5.942,5.364,6.135,5.165c0.193-0.199-5.557-5.762-5.364-5.961c0.029-0.03,4.911,6.205,4.947,6.184
			c0.036-0.02-2.815-7.408-2.774-7.418c0.27-0.063,2.099,7.725,2.369,7.661c0.27-0.063-1.56-7.851-1.29-7.915
			c0.041-0.01,0.777,7.875,0.819,7.877c0.041,0.002,1.638-7.754,1.677-7.74c0.261,0.093-2.411,7.633-2.149,7.726
			c0.261,0.093,2.933-7.448,3.194-7.356c0.039,0.014-3.604,7.045-3.57,7.069c0.033,0.024,5.57-5.638,5.595-5.605
			c0.17,0.219-6.155,5.118-5.985,5.337c0.17,0.219,6.494-4.68,6.664-4.461c0.026,0.033-6.84,3.978-6.825,4.017
			c0.015,0.038,7.733-1.732,7.737-1.69c0.024,0.276-7.945,0.978-7.92,1.254c0.024,0.276,7.993-0.426,8.018-0.15
			c0.004,0.042-7.905-0.351-7.913-0.311c-0.008,0.04,7.442,2.724,7.423,2.761c-0.129,0.245-7.212-3.472-7.341-3.227
			c-0.129,0.245,6.955,3.963,6.826,4.208c-0.019,0.037-6.46-4.57-6.489-4.54C58.942,72.537,63.759,78.823,63.722,78.843z"/>
	</g>
	<g>
		<path class="st11" d="M77.722,85.843c-0.241,0.137-4.19-6.82-4.431-6.684S77,86.254,76.759,86.39
			c-0.036,0.021-2.964-7.337-3.005-7.327c-0.04,0.009,0.613,7.901,0.572,7.899c-0.277-0.015,0.162-8.003-0.114-8.018
			s-0.716,7.973-0.992,7.958c-0.042-0.002,1.473-7.775,1.434-7.789c-0.039-0.014-3.756,6.978-3.79,6.954
			c-0.224-0.162,4.463-6.645,4.239-6.807c-0.224-0.162-4.912,6.32-5.137,6.158c-0.034-0.024,5.442-5.744,5.417-5.777
			c-0.025-0.033-6.932,3.84-6.948,3.801c-0.101-0.258,7.347-3.177,7.246-3.435s-7.55,2.661-7.651,2.403
			c-0.015-0.039,7.684-1.89,7.68-1.931c-0.004-0.041-7.908-0.517-7.9-0.558c0.054-0.272,7.899,1.3,7.953,1.028
			c0.054-0.272-7.79-1.843-7.735-2.115c0.008-0.041,7.486,2.564,7.505,2.528c0.019-0.037-6.373-4.711-6.344-4.741
			c0.193-0.199,5.942,5.364,6.135,5.165c0.193-0.199-5.557-5.762-5.364-5.961c0.029-0.03,4.911,6.205,4.947,6.184
			c0.036-0.02-2.815-7.408-2.774-7.418c0.27-0.063,2.099,7.725,2.369,7.661c0.27-0.063-1.56-7.851-1.29-7.915
			c0.041-0.01,0.777,7.875,0.819,7.877c0.041,0.002,1.638-7.754,1.677-7.74c0.261,0.093-2.411,7.633-2.149,7.726
			c0.261,0.093,2.933-7.448,3.194-7.356c0.039,0.014-3.604,7.045-3.57,7.069c0.033,0.024,5.57-5.638,5.595-5.605
			c0.17,0.219-6.155,5.118-5.985,5.337c0.17,0.219,6.494-4.68,6.664-4.461c0.026,0.033-6.84,3.978-6.825,4.017
			c0.015,0.038,7.733-1.732,7.737-1.69c0.024,0.276-7.945,0.978-7.92,1.254c0.024,0.276,7.993-0.426,8.018-0.15
			c0.004,0.042-7.905-0.351-7.913-0.311c-0.008,0.04,7.442,2.724,7.423,2.761c-0.129,0.245-7.212-3.472-7.341-3.227
			c-0.129,0.245,6.955,3.963,6.826,4.208c-0.019,0.037-6.46-4.57-6.489-4.54C72.942,79.537,77.759,85.823,77.722,85.843z"/>
	</g>
	<g>
		<path class="st11" d="M78.722,69.843c-0.241,0.137-4.19-6.82-4.431-6.684S78,70.254,77.759,70.39
			c-0.036,0.021-2.964-7.337-3.005-7.327c-0.04,0.009,0.613,7.901,0.572,7.899c-0.277-0.015,0.162-8.003-0.114-8.018
			s-0.716,7.973-0.992,7.958c-0.042-0.002,1.473-7.775,1.434-7.789c-0.039-0.014-3.756,6.978-3.79,6.954
			c-0.224-0.162,4.463-6.645,4.239-6.807c-0.224-0.162-4.912,6.32-5.137,6.158c-0.034-0.024,5.442-5.744,5.417-5.777
			c-0.025-0.033-6.932,3.84-6.948,3.801c-0.101-0.258,7.347-3.177,7.246-3.435c-0.101-0.258-7.55,2.661-7.651,2.403
			c-0.015-0.039,7.684-1.89,7.68-1.931c-0.004-0.041-7.908-0.517-7.9-0.558c0.054-0.272,7.899,1.3,7.953,1.028
			c0.054-0.272-7.79-1.843-7.735-2.115c0.008-0.041,7.486,2.564,7.505,2.528c0.019-0.037-6.373-4.711-6.344-4.741
			c0.193-0.199,5.942,5.364,6.135,5.165c0.193-0.199-5.557-5.762-5.364-5.961c0.029-0.03,4.911,6.205,4.947,6.184
			c0.036-0.02-2.815-7.408-2.774-7.418c0.27-0.063,2.099,7.725,2.369,7.661c0.27-0.063-1.56-7.851-1.29-7.915
			c0.041-0.01,0.777,7.875,0.819,7.877c0.041,0.002,1.638-7.754,1.677-7.74c0.261,0.093-2.411,7.633-2.149,7.726
			c0.261,0.093,2.933-7.448,3.194-7.356c0.039,0.014-3.604,7.045-3.57,7.069c0.033,0.024,5.57-5.638,5.595-5.605
			c0.17,0.219-6.155,5.118-5.985,5.337c0.17,0.219,6.494-4.68,6.664-4.461c0.026,0.033-6.84,3.978-6.825,4.017
			c0.015,0.038,7.733-1.732,7.737-1.69c0.024,0.276-7.945,0.978-7.92,1.254c0.024,0.276,7.993-0.426,8.018-0.15
			c0.004,0.042-7.905-0.351-7.913-0.311c-0.008,0.04,7.442,2.724,7.423,2.761c-0.129,0.245-7.212-3.472-7.341-3.227
			c-0.129,0.245,6.955,3.963,6.826,4.208c-0.019,0.037-6.46-4.57-6.489-4.54C73.942,63.537,78.759,69.823,78.722,69.843z"/>
	</g>
	<g>
		<path class="st11" d="M48.722,86.843c-0.241,0.137-4.19-6.82-4.431-6.684C44.05,80.296,48,87.254,47.759,87.39
			c-0.036,0.021-2.964-7.337-3.005-7.327c-0.04,0.009,0.613,7.901,0.572,7.899c-0.277-0.015,0.162-8.003-0.114-8.018
			c-0.277-0.015-0.716,7.973-0.992,7.958c-0.042-0.002,1.473-7.775,1.434-7.789c-0.039-0.014-3.756,6.978-3.79,6.954
			c-0.224-0.162,4.463-6.645,4.239-6.807c-0.224-0.162-4.912,6.32-5.137,6.158c-0.034-0.024,5.442-5.744,5.417-5.777
			c-0.025-0.033-6.932,3.84-6.948,3.801c-0.101-0.258,7.347-3.177,7.246-3.435c-0.101-0.258-7.55,2.661-7.651,2.403
			c-0.015-0.039,7.684-1.89,7.68-1.931c-0.004-0.041-7.908-0.517-7.9-0.558c0.054-0.272,7.899,1.3,7.953,1.028
			c0.054-0.272-7.79-1.843-7.735-2.115c0.008-0.041,7.486,2.564,7.505,2.528c0.019-0.037-6.373-4.711-6.344-4.741
			c0.193-0.199,5.942,5.364,6.135,5.165c0.193-0.199-5.557-5.762-5.364-5.961c0.029-0.03,4.911,6.205,4.947,6.184
			c0.036-0.02-2.815-7.408-2.774-7.418c0.27-0.063,2.099,7.725,2.369,7.661c0.27-0.063-1.56-7.851-1.29-7.915
			c0.041-0.01,0.777,7.875,0.819,7.877c0.041,0.002,1.638-7.754,1.677-7.74c0.261,0.093-2.411,7.633-2.149,7.726
			c0.261,0.093,2.933-7.448,3.194-7.356c0.039,0.014-3.604,7.045-3.57,7.069c0.033,0.024,5.57-5.638,5.595-5.605
			c0.17,0.219-6.155,5.118-5.985,5.337c0.17,0.219,6.494-4.68,6.664-4.461c0.026,0.033-6.84,3.978-6.825,4.017
			c0.015,0.038,7.733-1.732,7.737-1.69c0.024,0.276-7.945,0.978-7.92,1.254c0.024,0.276,7.993-0.426,8.018-0.15
			c0.004,0.042-7.905-0.351-7.913-0.311c-0.008,0.04,7.442,2.724,7.423,2.761c-0.129,0.245-7.212-3.472-7.341-3.227
			c-0.129,0.245,6.955,3.963,6.826,4.208c-0.019,0.037-6.46-4.57-6.489-4.54C43.942,80.537,48.759,86.823,48.722,86.843z"/>
	</g>
	<g>
		<path class="st11" d="M64.328,59.445c-0.241,0.137-4.19-6.82-4.431-6.684c-0.241,0.137,3.708,7.094,3.468,7.231
			c-0.036,0.021-2.964-7.337-3.005-7.327c-0.04,0.009,0.613,7.901,0.572,7.899c-0.277-0.015,0.162-8.003-0.114-8.018
			c-0.277-0.015-0.716,7.973-0.992,7.958c-0.042-0.002,1.473-7.775,1.434-7.789c-0.039-0.014-3.756,6.978-3.79,6.954
			c-0.224-0.162,4.463-6.645,4.239-6.807s-4.912,6.32-5.137,6.158c-0.034-0.024,5.442-5.744,5.417-5.777
			c-0.025-0.033-6.932,3.84-6.948,3.801c-0.101-0.258,7.347-3.177,7.246-3.435c-0.101-0.258-7.55,2.661-7.651,2.403
			c-0.015-0.039,7.684-1.89,7.68-1.931c-0.004-0.041-7.908-0.517-7.9-0.558c0.054-0.272,7.899,1.3,7.953,1.028
			c0.054-0.272-7.79-1.843-7.735-2.115c0.008-0.041,7.486,2.564,7.505,2.528c0.019-0.037-6.373-4.711-6.344-4.741
			c0.193-0.199,5.942,5.364,6.135,5.165c0.193-0.199-5.557-5.762-5.364-5.961c0.029-0.03,4.911,6.205,4.947,6.184
			c0.036-0.02-2.815-7.408-2.774-7.418c0.27-0.063,2.099,7.725,2.369,7.661c0.27-0.063-1.56-7.851-1.29-7.915
			c0.041-0.01,0.777,7.875,0.819,7.877c0.041,0.002,1.638-7.754,1.677-7.74c0.261,0.093-2.411,7.633-2.149,7.726
			s2.933-7.448,3.194-7.356c0.039,0.014-3.604,7.045-3.57,7.069c0.033,0.024,5.57-5.638,5.595-5.605
			c0.17,0.219-6.155,5.118-5.985,5.337s6.494-4.68,6.664-4.461c0.026,0.033-6.84,3.978-6.825,4.017
			c0.015,0.038,7.733-1.732,7.737-1.69c0.024,0.276-7.945,0.978-7.92,1.254c0.024,0.276,7.993-0.426,8.018-0.15
			c0.004,0.042-7.905-0.351-7.913-0.311c-0.008,0.04,7.442,2.724,7.423,2.761c-0.129,0.245-7.212-3.472-7.341-3.227
			c-0.129,0.245,6.955,3.963,6.826,4.208c-0.019,0.037-6.46-4.57-6.489-4.54C59.548,53.138,64.364,59.424,64.328,59.445z"/>
	</g>
</g>
<g id="little_fuzzies">
	<path class="st11" d="M34.315,38.444c-0.151,0.086-2.629-4.279-2.78-4.193c-0.151,0.086,2.326,4.45,2.175,4.536
		c-0.023,0.013-1.86-4.603-1.885-4.597c-0.025,0.006,0.385,4.957,0.359,4.955c-0.174-0.01,0.102-5.021-0.072-5.03
		s-0.449,5.001-0.622,4.992c-0.026-0.001,0.924-4.877,0.9-4.886s-2.356,4.378-2.377,4.362c-0.141-0.102,2.8-4.168,2.659-4.27
		c-0.141-0.102-3.082,3.965-3.222,3.863c-0.021-0.015,3.414-3.604,3.398-3.624c-0.016-0.02-4.349,2.409-4.358,2.385
		c-0.063-0.162,4.609-1.993,4.546-2.155s-4.736,1.669-4.799,1.508c-0.01-0.024,4.82-1.186,4.818-1.211
		c-0.002-0.026-4.961-0.325-4.956-0.35c0.034-0.17,4.955,0.815,4.989,0.645c0.034-0.17-4.887-1.156-4.853-1.327
		c0.005-0.026,4.696,1.609,4.708,1.586c0.012-0.023-3.998-2.955-3.98-2.974c0.121-0.125,3.728,3.365,3.848,3.24
		s-3.486-3.615-3.365-3.739c0.018-0.019,3.081,3.892,3.104,3.879c0.023-0.013-1.766-4.647-1.74-4.653
		c0.169-0.04,1.317,4.846,1.486,4.806c0.169-0.04-0.978-4.925-0.809-4.965c0.025-0.006,0.488,4.94,0.513,4.942
		s1.027-4.864,1.052-4.855c0.164,0.058-1.512,4.788-1.348,4.847c0.164,0.058,1.84-4.672,2.004-4.614
		c0.025,0.009-2.261,4.419-2.24,4.435c0.021,0.015,3.494-3.537,3.51-3.516c0.106,0.137-3.861,3.211-3.755,3.348
		c0.106,0.137,4.074-2.936,4.18-2.799c0.016,0.021-4.291,2.496-4.282,2.52s4.851-1.086,4.854-1.06
		c0.015,0.173-4.984,0.614-4.969,0.787c0.015,0.173,5.014-0.267,5.03-0.094c0.002,0.026-4.959-0.22-4.964-0.195
		c-0.005,0.025,4.669,1.709,4.656,1.732c-0.081,0.154-4.525-2.178-4.605-2.024c-0.081,0.154,4.363,2.486,4.282,2.64
		c-0.012,0.023-4.053-2.867-4.071-2.848C31.316,34.488,34.338,38.431,34.315,38.444z"/>
	<path class="st11" d="M31.171,28.896c-0.151,0.086-2.629-4.279-2.78-4.193c-0.151,0.086,2.326,4.45,2.175,4.536
		c-0.023,0.013-1.86-4.603-1.885-4.597c-0.025,0.006,0.385,4.957,0.359,4.955c-0.174-0.01,0.102-5.021-0.072-5.03
		c-0.174-0.01-0.449,5.001-0.622,4.992c-0.026-0.001,0.924-4.877,0.9-4.886c-0.024-0.009-2.356,4.378-2.377,4.362
		c-0.141-0.102,2.8-4.168,2.659-4.27c-0.141-0.102-3.082,3.965-3.222,3.863c-0.021-0.015,3.414-3.604,3.398-3.624
		c-0.016-0.02-4.349,2.409-4.358,2.385c-0.063-0.162,4.609-1.993,4.546-2.155c-0.063-0.162-4.736,1.669-4.799,1.508
		c-0.01-0.024,4.82-1.186,4.818-1.211c-0.002-0.026-4.961-0.325-4.956-0.35c0.034-0.17,4.955,0.815,4.989,0.645
		c0.034-0.17-4.887-1.156-4.853-1.327c0.005-0.026,4.696,1.609,4.708,1.586c0.012-0.023-3.998-2.955-3.98-2.974
		c0.121-0.125,3.728,3.365,3.848,3.24c0.121-0.125-3.486-3.615-3.365-3.739c0.018-0.019,3.081,3.892,3.104,3.879
		c0.023-0.013-1.766-4.647-1.74-4.653c0.169-0.04,1.317,4.846,1.486,4.806s-0.978-4.925-0.809-4.965
		c0.025-0.006,0.488,4.94,0.513,4.942c0.026,0.001,1.027-4.864,1.052-4.855c0.164,0.058-1.512,4.788-1.348,4.847
		c0.164,0.058,1.84-4.672,2.004-4.614c0.025,0.009-2.261,4.419-2.24,4.435c0.021,0.015,3.494-3.537,3.51-3.516
		c0.106,0.137-3.861,3.211-3.755,3.348s4.074-2.936,4.18-2.799c0.016,0.021-4.291,2.496-4.282,2.52
		c0.009,0.024,4.851-1.086,4.854-1.06c0.015,0.173-4.984,0.614-4.969,0.787s5.014-0.267,5.03-0.094
		c0.002,0.026-4.959-0.22-4.964-0.195c-0.005,0.025,4.669,1.709,4.656,1.732c-0.081,0.154-4.525-2.178-4.605-2.024
		c-0.081,0.154,4.363,2.486,4.282,2.64c-0.012,0.023-4.053-2.867-4.071-2.848C28.172,24.94,31.194,28.883,31.171,28.896z"/>
	<path class="st11" d="M40.959,26.449c-0.151,0.086-2.629-4.279-2.78-4.193c-0.151,0.086,2.326,4.45,2.175,4.536
		c-0.023,0.013-1.86-4.603-1.885-4.597s0.385,4.957,0.359,4.955c-0.174-0.01,0.102-5.021-0.072-5.03
		c-0.174-0.01-0.449,5.001-0.622,4.992c-0.026-0.001,0.924-4.877,0.9-4.886c-0.024-0.009-2.356,4.378-2.377,4.362
		c-0.141-0.102,2.8-4.168,2.659-4.27c-0.141-0.102-3.082,3.965-3.222,3.863c-0.021-0.015,3.414-3.604,3.398-3.624
		c-0.016-0.02-4.349,2.409-4.358,2.385c-0.063-0.162,4.609-1.993,4.546-2.155c-0.063-0.162-4.736,1.669-4.799,1.508
		c-0.01-0.024,4.82-1.186,4.818-1.211c-0.002-0.026-4.961-0.325-4.956-0.35c0.034-0.17,4.955,0.815,4.989,0.645
		c0.034-0.17-4.887-1.156-4.853-1.327c0.005-0.026,4.696,1.609,4.708,1.586c0.012-0.023-3.998-2.955-3.98-2.974
		c0.121-0.125,3.728,3.365,3.848,3.24s-3.486-3.615-3.365-3.739c0.018-0.019,3.081,3.892,3.104,3.879
		c0.023-0.013-1.766-4.647-1.74-4.653c0.169-0.04,1.317,4.846,1.486,4.806s-0.978-4.925-0.809-4.965
		c0.025-0.006,0.488,4.94,0.513,4.942c0.026,0.001,1.027-4.864,1.052-4.855c0.164,0.058-1.512,4.789-1.348,4.847
		c0.164,0.058,1.84-4.672,2.004-4.614c0.025,0.009-2.261,4.419-2.24,4.435c0.021,0.015,3.494-3.537,3.51-3.516
		c0.106,0.137-3.861,3.211-3.755,3.348c0.106,0.137,4.074-2.936,4.18-2.799c0.016,0.021-4.291,2.496-4.282,2.52
		c0.009,0.024,4.851-1.086,4.854-1.06c0.015,0.173-4.984,0.614-4.969,0.787c0.015,0.173,5.014-0.267,5.03-0.094
		c0.002,0.026-4.959-0.22-4.964-0.195c-0.005,0.025,4.669,1.709,4.656,1.732c-0.081,0.154-4.525-2.178-4.605-2.024
		s4.363,2.486,4.282,2.64c-0.012,0.023-4.053-2.867-4.071-2.848C37.961,22.493,40.982,26.436,40.959,26.449z"/>
	<path class="st11" d="M51.972,24.002c-0.151,0.086-2.629-4.279-2.78-4.193c-0.151,0.086,2.326,4.45,2.175,4.536
		c-0.023,0.013-1.86-4.603-1.885-4.597c-0.025,0.006,0.385,4.957,0.359,4.955c-0.174-0.01,0.102-5.021-0.072-5.03
		s-0.449,5.001-0.622,4.992c-0.026-0.001,0.924-4.877,0.9-4.886s-2.356,4.378-2.377,4.362c-0.141-0.102,2.8-4.168,2.659-4.27
		c-0.141-0.102-3.082,3.965-3.222,3.863c-0.021-0.015,3.414-3.604,3.398-3.624c-0.016-0.02-4.349,2.409-4.358,2.385
		c-0.063-0.162,4.609-1.993,4.546-2.155c-0.063-0.162-4.736,1.669-4.799,1.508c-0.01-0.024,4.82-1.186,4.818-1.212
		c-0.002-0.026-4.961-0.325-4.956-0.35c0.034-0.17,4.955,0.815,4.989,0.645c0.034-0.17-4.887-1.156-4.853-1.327
		c0.005-0.026,4.696,1.609,4.708,1.586c0.012-0.023-3.998-2.955-3.98-2.974c0.121-0.125,3.728,3.365,3.848,3.24
		s-3.486-3.615-3.365-3.739c0.018-0.019,3.081,3.892,3.104,3.879c0.023-0.013-1.766-4.647-1.74-4.653
		c0.169-0.04,1.317,4.846,1.486,4.806c0.169-0.04-0.978-4.925-0.809-4.965c0.025-0.006,0.488,4.94,0.513,4.942
		c0.026,0.001,1.027-4.864,1.052-4.855c0.164,0.058-1.512,4.789-1.348,4.847c0.164,0.058,1.84-4.672,2.004-4.614
		c0.025,0.009-2.261,4.419-2.24,4.435c0.021,0.015,3.494-3.537,3.51-3.516c0.106,0.137-3.861,3.211-3.755,3.348
		c0.106,0.137,4.074-2.936,4.18-2.799c0.016,0.021-4.291,2.496-4.282,2.52c0.009,0.024,4.851-1.086,4.854-1.06
		c0.015,0.173-4.984,0.614-4.969,0.787c0.015,0.173,5.014-0.267,5.03-0.094c0.002,0.026-4.959-0.22-4.964-0.195
		c-0.005,0.025,4.669,1.709,4.656,1.732c-0.081,0.154-4.525-2.178-4.605-2.024c-0.081,0.154,4.363,2.486,4.282,2.64
		c-0.012,0.023-4.053-2.867-4.071-2.848C48.973,20.046,51.994,23.989,51.972,24.002z"/>
	<path class="st11" d="M43.977,35.929c-0.151,0.086-2.629-4.279-2.78-4.193c-0.151,0.086,2.326,4.45,2.175,4.536
		c-0.023,0.013-1.86-4.603-1.885-4.597s0.385,4.957,0.359,4.955c-0.174-0.01,0.102-5.021-0.072-5.03
		c-0.174-0.01-0.449,5.001-0.622,4.992c-0.026-0.001,0.924-4.877,0.9-4.886c-0.024-0.009-2.356,4.378-2.377,4.362
		c-0.141-0.102,2.8-4.168,2.659-4.27c-0.141-0.102-3.082,3.965-3.222,3.863c-0.021-0.015,3.414-3.604,3.398-3.624
		c-0.016-0.02-4.349,2.409-4.358,2.385c-0.063-0.162,4.609-1.993,4.546-2.155s-4.736,1.669-4.799,1.508
		c-0.01-0.024,4.82-1.186,4.818-1.211c-0.002-0.026-4.961-0.325-4.956-0.35c0.034-0.17,4.955,0.815,4.989,0.645
		c0.034-0.17-4.887-1.156-4.853-1.327c0.005-0.026,4.696,1.609,4.708,1.586c0.012-0.023-3.998-2.955-3.98-2.974
		c0.121-0.125,3.728,3.365,3.848,3.24s-3.486-3.615-3.365-3.739c0.018-0.019,3.081,3.892,3.104,3.879s-1.766-4.647-1.74-4.653
		c0.169-0.04,1.317,4.846,1.486,4.806c0.169-0.04-0.978-4.925-0.809-4.965c0.025-0.006,0.488,4.94,0.513,4.942
		s1.027-4.864,1.052-4.855c0.164,0.058-1.512,4.789-1.348,4.847s1.84-4.672,2.004-4.614c0.025,0.009-2.261,4.419-2.24,4.435
		c0.021,0.015,3.494-3.537,3.51-3.516c0.106,0.137-3.861,3.211-3.755,3.348s4.074-2.936,4.18-2.799
		c0.016,0.021-4.291,2.496-4.282,2.52s4.851-1.086,4.854-1.06c0.015,0.173-4.984,0.614-4.969,0.787s5.014-0.267,5.03-0.094
		c0.002,0.026-4.959-0.22-4.964-0.195s4.669,1.709,4.656,1.732c-0.081,0.154-4.525-2.178-4.605-2.024
		c-0.081,0.154,4.363,2.486,4.282,2.64c-0.012,0.023-4.053-2.867-4.071-2.848C40.978,31.973,44,35.916,43.977,35.929z"/>
	<path class="st11" d="M52.542,44.494c-0.151,0.086-2.629-4.279-2.78-4.193c-0.151,0.086,2.326,4.45,2.175,4.536
		c-0.023,0.013-1.86-4.603-1.885-4.597s0.385,4.957,0.359,4.955c-0.174-0.01,0.102-5.021-0.072-5.03
		c-0.174-0.01-0.449,5.001-0.622,4.992c-0.026-0.001,0.924-4.877,0.9-4.886s-2.356,4.378-2.377,4.362
		c-0.141-0.102,2.8-4.168,2.659-4.27c-0.141-0.102-3.082,3.965-3.222,3.863c-0.021-0.015,3.414-3.604,3.398-3.624
		c-0.016-0.02-4.349,2.409-4.358,2.385c-0.063-0.162,4.609-1.993,4.546-2.155s-4.736,1.669-4.799,1.508
		c-0.01-0.024,4.82-1.186,4.818-1.211c-0.002-0.026-4.961-0.325-4.956-0.35c0.034-0.17,4.955,0.815,4.989,0.645
		c0.034-0.17-4.887-1.156-4.853-1.327c0.005-0.026,4.696,1.609,4.708,1.586c0.012-0.023-3.998-2.955-3.98-2.974
		c0.121-0.125,3.728,3.365,3.848,3.24s-3.486-3.615-3.365-3.739c0.018-0.019,3.081,3.892,3.104,3.879
		c0.023-0.013-1.766-4.647-1.74-4.653c0.169-0.04,1.317,4.846,1.486,4.806c0.169-0.04-0.978-4.925-0.809-4.965
		c0.025-0.006,0.488,4.94,0.513,4.942s1.027-4.864,1.052-4.855c0.164,0.058-1.512,4.789-1.348,4.847
		c0.164,0.058,1.84-4.672,2.004-4.614c0.025,0.009-2.261,4.419-2.24,4.435c0.021,0.015,3.494-3.537,3.51-3.516
		c0.106,0.137-3.861,3.211-3.755,3.348c0.106,0.137,4.074-2.936,4.18-2.799c0.016,0.021-4.291,2.496-4.282,2.52
		s4.851-1.086,4.854-1.06c0.015,0.173-4.984,0.614-4.969,0.787c0.015,0.173,5.014-0.267,5.03-0.094
		c0.002,0.026-4.959-0.22-4.964-0.195c-0.005,0.025,4.669,1.709,4.656,1.732c-0.081,0.154-4.525-2.178-4.605-2.024
		s4.363,2.486,4.282,2.64c-0.012,0.023-4.053-2.867-4.071-2.848C49.543,40.538,52.565,44.481,52.542,44.494z"/>
	<path class="st11" d="M40.306,45.717c-0.151,0.086-2.629-4.279-2.78-4.193c-0.151,0.086,2.326,4.45,2.175,4.536
		c-0.023,0.013-1.86-4.603-1.885-4.597c-0.025,0.006,0.385,4.957,0.359,4.955c-0.174-0.01,0.102-5.021-0.072-5.03
		c-0.174-0.01-0.449,5.001-0.622,4.992c-0.026-0.001,0.924-4.877,0.9-4.886c-0.024-0.009-2.356,4.378-2.377,4.362
		c-0.141-0.102,2.8-4.168,2.659-4.27c-0.141-0.102-3.082,3.965-3.222,3.863c-0.021-0.015,3.414-3.604,3.398-3.624
		s-4.349,2.409-4.358,2.385c-0.063-0.162,4.609-1.993,4.546-2.155s-4.736,1.669-4.799,1.508c-0.01-0.024,4.82-1.186,4.818-1.211
		c-0.002-0.026-4.961-0.325-4.956-0.35c0.034-0.17,4.955,0.815,4.989,0.645c0.034-0.17-4.887-1.156-4.853-1.327
		c0.005-0.026,4.696,1.609,4.708,1.586c0.012-0.023-3.998-2.955-3.98-2.974c0.121-0.125,3.728,3.365,3.848,3.24
		c0.121-0.125-3.486-3.615-3.365-3.739c0.018-0.019,3.081,3.892,3.104,3.879c0.023-0.013-1.766-4.647-1.74-4.653
		c0.169-0.04,1.317,4.846,1.486,4.806c0.169-0.04-0.978-4.925-0.809-4.965c0.025-0.006,0.488,4.94,0.513,4.942
		c0.026,0.001,1.027-4.864,1.052-4.855c0.164,0.058-1.512,4.789-1.348,4.847c0.164,0.058,1.84-4.672,2.004-4.614
		c0.025,0.009-2.261,4.419-2.24,4.435c0.021,0.015,3.494-3.537,3.51-3.516c0.106,0.137-3.861,3.211-3.755,3.348
		s4.074-2.936,4.18-2.799c0.016,0.021-4.291,2.496-4.282,2.52c0.009,0.024,4.851-1.086,4.854-1.06
		c0.015,0.173-4.984,0.614-4.969,0.787c0.015,0.173,5.014-0.267,5.03-0.094c0.002,0.026-4.959-0.22-4.964-0.195
		c-0.005,0.025,4.669,1.709,4.656,1.732c-0.081,0.154-4.525-2.178-4.605-2.024s4.363,2.486,4.282,2.64
		c-0.012,0.023-4.053-2.867-4.071-2.848C37.307,41.761,40.329,45.704,40.306,45.717z"/>
	<path class="st11" d="M54.627,33.79c-0.151,0.086-2.629-4.279-2.78-4.193s2.326,4.45,2.175,4.536
		c-0.023,0.013-1.86-4.603-1.885-4.597c-0.025,0.006,0.385,4.957,0.359,4.955c-0.174-0.01,0.102-5.021-0.072-5.03
		s-0.449,5.001-0.622,4.992c-0.026-0.001,0.924-4.877,0.9-4.886c-0.024-0.009-2.356,4.378-2.377,4.362
		c-0.141-0.102,2.8-4.168,2.659-4.27s-3.082,3.965-3.222,3.863c-0.021-0.015,3.414-3.604,3.398-3.624
		c-0.016-0.02-4.349,2.409-4.358,2.385c-0.063-0.162,4.609-1.993,4.546-2.155c-0.063-0.162-4.736,1.669-4.799,1.508
		c-0.01-0.024,4.82-1.186,4.818-1.212c-0.002-0.026-4.961-0.325-4.956-0.35c0.034-0.17,4.955,0.815,4.989,0.645
		c0.034-0.17-4.887-1.156-4.853-1.327c0.005-0.026,4.696,1.609,4.708,1.586c0.012-0.023-3.998-2.955-3.98-2.974
		c0.121-0.125,3.728,3.365,3.848,3.24s-3.486-3.615-3.365-3.739c0.018-0.019,3.081,3.892,3.104,3.879
		c0.023-0.013-1.766-4.647-1.74-4.653c0.169-0.04,1.317,4.846,1.486,4.806c0.169-0.04-0.978-4.925-0.809-4.965
		c0.025-0.006,0.488,4.94,0.513,4.942c0.026,0.001,1.027-4.864,1.052-4.855c0.164,0.058-1.512,4.789-1.348,4.847
		c0.164,0.058,1.84-4.672,2.004-4.614c0.025,0.009-2.261,4.419-2.24,4.435c0.021,0.015,3.494-3.537,3.51-3.516
		c0.106,0.137-3.861,3.211-3.755,3.348c0.106,0.137,4.074-2.936,4.18-2.799c0.016,0.021-4.291,2.496-4.282,2.52
		c0.009,0.024,4.851-1.086,4.854-1.06c0.015,0.173-4.984,0.614-4.969,0.787c0.015,0.173,5.014-0.267,5.03-0.094
		c0.002,0.026-4.959-0.22-4.964-0.195c-0.005,0.025,4.669,1.709,4.656,1.732c-0.081,0.154-4.525-2.178-4.605-2.024
		c-0.081,0.154,4.363,2.486,4.282,2.64c-0.012,0.023-4.053-2.867-4.071-2.848C51.629,29.834,54.65,33.778,54.627,33.79z"/>
	<path class="st11" d="M67.465,37.171c-0.124,0.07-2.148-3.497-2.272-3.427c-0.124,0.07,1.901,3.637,1.778,3.707
		c-0.019,0.011-1.52-3.762-1.54-3.757c-0.021,0.005,0.314,4.051,0.293,4.05c-0.142-0.008,0.083-4.103-0.059-4.111
		s-0.367,4.088-0.509,4.08c-0.021-0.001,0.755-3.986,0.735-3.993s-1.926,3.578-1.943,3.565c-0.115-0.083,2.288-3.407,2.173-3.49
		c-0.115-0.083-2.519,3.24-2.634,3.157c-0.017-0.013,2.79-2.945,2.777-2.962c-0.013-0.017-3.554,1.969-3.562,1.949
		c-0.052-0.132,3.767-1.629,3.715-1.761c-0.052-0.132-3.871,1.364-3.922,1.232c-0.008-0.02,3.94-0.969,3.938-0.99
		c-0.002-0.021-4.054-0.265-4.05-0.286c0.028-0.139,4.05,0.666,4.077,0.527c0.028-0.139-3.994-0.945-3.966-1.084
		c0.004-0.021,3.838,1.315,3.848,1.296c0.01-0.019-3.267-2.415-3.253-2.43c0.099-0.102,3.046,2.75,3.145,2.648
		s-2.849-2.954-2.75-3.056c0.015-0.015,2.518,3.181,2.536,3.171c0.018-0.01-1.443-3.798-1.422-3.803
		c0.138-0.032,1.076,3.96,1.214,3.928s-0.8-4.025-0.661-4.058c0.021-0.005,0.399,4.037,0.42,4.039
		c0.021,0.001,0.84-3.975,0.86-3.968c0.134,0.047-1.236,3.914-1.102,3.961c0.134,0.047,1.504-3.819,1.637-3.771
		c0.02,0.007-1.848,3.612-1.83,3.624s2.856-2.89,2.869-2.874c0.087,0.112-3.155,2.624-3.069,2.736
		c0.087,0.112,3.329-2.4,3.416-2.287c0.013,0.017-3.507,2.04-3.499,2.059c0.008,0.02,3.965-0.888,3.967-0.866
		c0.012,0.141-4.073,0.502-4.061,0.643s4.098-0.219,4.111-0.077c0.002,0.021-4.053-0.18-4.057-0.159s3.815,1.397,3.806,1.416
		c-0.066,0.126-3.698-1.78-3.764-1.654c-0.066,0.126,3.566,2.032,3.5,2.158c-0.01,0.019-3.312-2.343-3.327-2.328
		S67.484,37.16,67.465,37.171z"/>
	<path class="st11" d="M69.465,49.171c-0.124,0.07-2.148-3.497-2.272-3.427c-0.124,0.07,1.901,3.637,1.778,3.707
		c-0.019,0.011-1.52-3.762-1.54-3.757c-0.021,0.005,0.314,4.051,0.293,4.05c-0.142-0.008,0.083-4.103-0.059-4.111
		s-0.367,4.088-0.509,4.08c-0.021-0.001,0.755-3.986,0.735-3.993s-1.926,3.578-1.943,3.565c-0.115-0.083,2.288-3.407,2.173-3.49
		c-0.115-0.083-2.519,3.24-2.634,3.157c-0.017-0.013,2.79-2.945,2.777-2.962c-0.013-0.017-3.554,1.969-3.562,1.949
		c-0.052-0.132,3.767-1.629,3.715-1.761c-0.052-0.132-3.871,1.364-3.922,1.232c-0.008-0.02,3.94-0.969,3.938-0.99
		c-0.002-0.021-4.054-0.265-4.05-0.286c0.028-0.139,4.05,0.666,4.077,0.527c0.028-0.139-3.994-0.945-3.966-1.084
		c0.004-0.021,3.838,1.315,3.848,1.296c0.01-0.019-3.267-2.415-3.253-2.43c0.099-0.102,3.046,2.75,3.145,2.648
		s-2.849-2.954-2.75-3.056c0.015-0.015,2.518,3.181,2.536,3.171c0.018-0.01-1.443-3.798-1.422-3.803
		c0.138-0.032,1.076,3.96,1.214,3.928s-0.8-4.025-0.661-4.058c0.021-0.005,0.399,4.037,0.42,4.039
		c0.021,0.001,0.84-3.975,0.86-3.968c0.134,0.047-1.236,3.914-1.102,3.961c0.134,0.047,1.504-3.819,1.637-3.771
		c0.02,0.007-1.848,3.612-1.83,3.624s2.856-2.89,2.869-2.874c0.087,0.112-3.155,2.624-3.069,2.736
		c0.087,0.112,3.329-2.4,3.416-2.287c0.013,0.017-3.507,2.04-3.499,2.059c0.008,0.02,3.965-0.888,3.967-0.866
		c0.012,0.141-4.073,0.502-4.061,0.643s4.098-0.219,4.111-0.077c0.002,0.021-4.053-0.18-4.057-0.159s3.815,1.397,3.806,1.416
		c-0.066,0.126-3.698-1.78-3.764-1.654c-0.066,0.126,3.566,2.032,3.5,2.158c-0.01,0.019-3.312-2.343-3.327-2.328
		S69.484,49.16,69.465,49.171z"/>
	<path class="st11" d="M75.957,29.775c-0.124,0.07-2.148-3.497-2.272-3.427s1.901,3.637,1.778,3.707
		c-0.019,0.011-1.52-3.762-1.54-3.757c-0.021,0.005,0.314,4.051,0.293,4.05c-0.142-0.008,0.083-4.103-0.059-4.111
		c-0.142-0.008-0.367,4.088-0.509,4.08c-0.021-0.001,0.755-3.986,0.735-3.993c-0.02-0.007-1.926,3.578-1.943,3.565
		c-0.115-0.083,2.288-3.407,2.173-3.49c-0.115-0.083-2.519,3.24-2.634,3.157c-0.017-0.013,2.79-2.945,2.777-2.962
		c-0.013-0.017-3.554,1.969-3.562,1.949c-0.052-0.132,3.767-1.629,3.715-1.761s-3.871,1.364-3.922,1.232
		c-0.008-0.02,3.94-0.969,3.938-0.99s-4.054-0.265-4.05-0.286c0.028-0.139,4.05,0.666,4.077,0.527
		c0.028-0.139-3.994-0.945-3.966-1.084c0.004-0.021,3.838,1.315,3.848,1.296c0.01-0.019-3.267-2.415-3.253-2.43
		c0.099-0.102,3.046,2.75,3.145,2.648c0.099-0.102-2.849-2.954-2.75-3.056c0.015-0.015,2.518,3.181,2.536,3.171
		c0.018-0.01-1.443-3.798-1.422-3.803c0.138-0.032,1.076,3.96,1.214,3.928c0.138-0.032-0.8-4.025-0.661-4.058
		c0.021-0.005,0.399,4.037,0.42,4.039c0.021,0.001,0.84-3.975,0.86-3.968c0.134,0.047-1.236,3.914-1.102,3.961
		c0.134,0.047,1.504-3.819,1.637-3.771c0.02,0.007-1.848,3.612-1.83,3.624s2.856-2.89,2.869-2.874
		c0.087,0.112-3.155,2.624-3.069,2.736c0.087,0.112,3.329-2.4,3.416-2.287c0.013,0.017-3.507,2.04-3.499,2.059
		c0.008,0.02,3.965-0.888,3.967-0.866c0.012,0.141-4.073,0.502-4.061,0.643c0.012,0.141,4.098-0.219,4.111-0.077
		c0.002,0.021-4.053-0.18-4.057-0.159c-0.004,0.021,3.815,1.397,3.806,1.416c-0.066,0.126-3.698-1.78-3.764-1.654
		c-0.066,0.126,3.566,2.032,3.5,2.158c-0.01,0.019-3.312-2.343-3.327-2.328C73.506,26.542,75.975,29.765,75.957,29.775z"/>
	<path class="st11" d="M75.957,21.775c-0.124,0.07-2.148-3.497-2.272-3.427s1.901,3.637,1.778,3.707
		c-0.019,0.011-1.52-3.762-1.54-3.757c-0.021,0.005,0.314,4.051,0.293,4.05c-0.142-0.008,0.083-4.103-0.059-4.111
		c-0.142-0.008-0.367,4.088-0.509,4.08c-0.021-0.001,0.755-3.986,0.735-3.993c-0.02-0.007-1.926,3.578-1.943,3.565
		c-0.115-0.083,2.288-3.407,2.173-3.49c-0.115-0.083-2.519,3.24-2.634,3.157c-0.017-0.013,2.79-2.945,2.777-2.962
		c-0.013-0.017-3.554,1.969-3.562,1.949c-0.052-0.132,3.767-1.629,3.715-1.761s-3.871,1.364-3.922,1.232
		c-0.008-0.02,3.94-0.969,3.938-0.99s-4.054-0.265-4.05-0.286c0.028-0.139,4.05,0.666,4.077,0.527
		c0.028-0.139-3.994-0.945-3.966-1.084c0.004-0.021,3.838,1.315,3.848,1.296c0.01-0.019-3.267-2.415-3.253-2.43
		c0.099-0.102,3.046,2.75,3.145,2.648c0.099-0.102-2.849-2.954-2.75-3.056c0.015-0.015,2.518,3.181,2.536,3.171
		c0.018-0.01-1.443-3.798-1.422-3.803c0.138-0.032,1.076,3.96,1.214,3.928c0.138-0.032-0.8-4.025-0.661-4.058
		c0.021-0.005,0.399,4.037,0.42,4.039c0.021,0.001,0.84-3.975,0.86-3.968c0.134,0.047-1.236,3.914-1.102,3.961
		c0.134,0.047,1.504-3.819,1.637-3.771c0.02,0.007-1.848,3.612-1.83,3.624s2.856-2.89,2.869-2.874
		c0.087,0.112-3.155,2.624-3.069,2.736c0.087,0.112,3.329-2.4,3.416-2.287c0.013,0.017-3.507,2.04-3.499,2.059
		c0.008,0.02,3.965-0.888,3.967-0.866c0.012,0.141-4.073,0.502-4.061,0.643c0.012,0.141,4.098-0.219,4.111-0.077
		c0.002,0.021-4.053-0.18-4.057-0.159c-0.004,0.021,3.815,1.397,3.806,1.416c-0.066,0.126-3.698-1.78-3.764-1.654
		c-0.066,0.126,3.566,2.032,3.5,2.158c-0.01,0.019-3.312-2.343-3.327-2.328C73.506,18.542,75.975,21.765,75.957,21.775z"/>
	<path class="st11" d="M81.957,26.775c-0.124,0.07-2.148-3.497-2.272-3.427s1.901,3.637,1.778,3.707
		c-0.019,0.011-1.52-3.762-1.54-3.757c-0.021,0.005,0.314,4.051,0.293,4.05c-0.142-0.008,0.083-4.103-0.059-4.111
		c-0.142-0.008-0.367,4.088-0.509,4.08c-0.021-0.001,0.755-3.986,0.735-3.993c-0.02-0.007-1.926,3.578-1.943,3.565
		c-0.115-0.083,2.288-3.407,2.173-3.49c-0.115-0.083-2.519,3.24-2.634,3.157c-0.017-0.013,2.79-2.945,2.777-2.962
		c-0.013-0.017-3.554,1.969-3.562,1.949c-0.052-0.132,3.767-1.629,3.715-1.761s-3.871,1.364-3.922,1.232
		c-0.008-0.02,3.94-0.969,3.938-0.99s-4.054-0.265-4.05-0.286c0.028-0.139,4.05,0.666,4.077,0.527
		c0.028-0.139-3.994-0.945-3.966-1.084c0.004-0.021,3.838,1.315,3.848,1.296c0.01-0.019-3.267-2.415-3.253-2.43
		c0.099-0.102,3.046,2.75,3.145,2.648c0.099-0.102-2.849-2.954-2.75-3.056c0.015-0.015,2.518,3.181,2.536,3.171
		c0.018-0.01-1.443-3.798-1.422-3.803c0.138-0.032,1.076,3.96,1.214,3.928c0.138-0.032-0.8-4.025-0.661-4.058
		c0.021-0.005,0.399,4.037,0.42,4.039c0.021,0.001,0.84-3.975,0.86-3.968c0.134,0.047-1.236,3.914-1.102,3.961
		c0.134,0.047,1.504-3.819,1.637-3.771c0.02,0.007-1.848,3.612-1.83,3.624s2.856-2.89,2.869-2.874
		c0.087,0.112-3.155,2.624-3.069,2.736c0.087,0.112,3.329-2.4,3.416-2.287c0.013,0.017-3.507,2.04-3.499,2.059
		c0.008,0.02,3.965-0.888,3.967-0.866c0.012,0.141-4.073,0.502-4.061,0.643c0.012,0.141,4.098-0.219,4.111-0.077
		c0.002,0.021-4.053-0.18-4.057-0.159c-0.004,0.021,3.815,1.397,3.806,1.416c-0.066,0.126-3.698-1.78-3.764-1.654
		c-0.066,0.126,3.566,2.032,3.5,2.158c-0.01,0.019-3.312-2.343-3.327-2.328C79.506,23.542,81.975,26.765,81.957,26.775z"/>
	<path class="st11" d="M81.957,19.775c-0.124,0.07-2.148-3.497-2.272-3.427s1.901,3.637,1.778,3.707
		c-0.019,0.011-1.52-3.762-1.54-3.757c-0.021,0.005,0.314,4.051,0.293,4.05c-0.142-0.008,0.083-4.103-0.059-4.111
		c-0.142-0.008-0.367,4.088-0.509,4.08c-0.021-0.001,0.755-3.986,0.735-3.993c-0.02-0.007-1.926,3.578-1.943,3.565
		c-0.115-0.083,2.288-3.407,2.173-3.49c-0.115-0.083-2.519,3.24-2.634,3.157c-0.017-0.013,2.79-2.945,2.777-2.962
		c-0.013-0.017-3.554,1.969-3.562,1.949c-0.052-0.132,3.767-1.629,3.715-1.761s-3.871,1.364-3.922,1.232
		c-0.008-0.02,3.94-0.969,3.938-0.99s-4.054-0.265-4.05-0.286c0.028-0.139,4.05,0.666,4.077,0.527
		c0.028-0.139-3.994-0.945-3.966-1.084c0.004-0.021,3.838,1.315,3.848,1.296c0.01-0.019-3.267-2.415-3.253-2.43
		c0.099-0.102,3.046,2.75,3.145,2.648c0.099-0.102-2.849-2.954-2.75-3.056c0.015-0.015,2.518,3.181,2.536,3.171
		c0.018-0.01-1.443-3.798-1.422-3.803c0.138-0.032,1.076,3.96,1.214,3.928c0.138-0.032-0.8-4.025-0.661-4.058
		c0.021-0.005,0.399,4.037,0.42,4.039c0.021,0.001,0.84-3.975,0.86-3.968c0.134,0.047-1.236,3.914-1.102,3.961
		c0.134,0.047,1.504-3.819,1.637-3.771c0.02,0.007-1.848,3.612-1.83,3.624s2.856-2.89,2.869-2.874
		c0.087,0.112-3.155,2.624-3.069,2.736c0.087,0.112,3.329-2.4,3.416-2.287c0.013,0.017-3.507,2.04-3.499,2.059
		c0.008,0.02,3.965-0.888,3.967-0.866c0.012,0.141-4.073,0.502-4.061,0.643c0.012,0.141,4.098-0.219,4.111-0.077
		c0.002,0.021-4.053-0.18-4.057-0.159c-0.004,0.021,3.815,1.397,3.806,1.416c-0.066,0.126-3.698-1.78-3.764-1.654
		c-0.066,0.126,3.566,2.032,3.5,2.158c-0.01,0.019-3.312-2.343-3.327-2.328C79.506,16.542,81.975,19.765,81.957,19.775z"/>
	<path class="st11" d="M76.957,14.775c-0.124,0.07-2.148-3.497-2.272-3.427c-0.124,0.07,1.901,3.637,1.778,3.707
		c-0.019,0.011-1.52-3.762-1.54-3.757c-0.021,0.005,0.314,4.051,0.293,4.05c-0.142-0.008,0.083-4.103-0.059-4.111
		c-0.142-0.008-0.367,4.088-0.509,4.08c-0.021-0.001,0.755-3.986,0.735-3.993s-1.926,3.578-1.943,3.565
		c-0.115-0.083,2.288-3.407,2.173-3.49c-0.115-0.083-2.519,3.24-2.634,3.157c-0.017-0.013,2.79-2.945,2.777-2.962
		c-0.013-0.017-3.554,1.969-3.562,1.949c-0.052-0.132,3.767-1.629,3.715-1.761s-3.871,1.364-3.922,1.232
		c-0.008-0.02,3.94-0.969,3.938-0.99c-0.002-0.021-4.054-0.265-4.05-0.286c0.028-0.139,4.05,0.666,4.077,0.527
		s-3.994-0.945-3.966-1.084c0.004-0.021,3.838,1.315,3.848,1.296c0.01-0.019-3.267-2.415-3.253-2.43
		c0.099-0.102,3.046,2.75,3.145,2.648c0.099-0.102-2.849-2.954-2.75-3.056c0.015-0.015,2.518,3.181,2.536,3.171
		s-1.443-3.798-1.422-3.803c0.138-0.032,1.076,3.96,1.214,3.928s-0.8-4.025-0.661-4.058c0.021-0.005,0.399,4.037,0.42,4.039
		c0.021,0.001,0.84-3.975,0.86-3.968c0.134,0.047-1.236,3.914-1.102,3.961c0.134,0.047,1.504-3.819,1.637-3.771
		c0.02,0.007-1.848,3.612-1.83,3.624c0.017,0.012,2.856-2.89,2.869-2.874c0.087,0.112-3.155,2.624-3.069,2.736
		c0.087,0.112,3.329-2.4,3.416-2.287c0.013,0.017-3.507,2.04-3.499,2.059c0.008,0.02,3.965-0.888,3.967-0.866
		c0.012,0.141-4.073,0.502-4.061,0.643s4.098-0.219,4.111-0.077c0.002,0.021-4.053-0.18-4.057-0.159
		c-0.004,0.021,3.815,1.397,3.806,1.416c-0.066,0.126-3.698-1.78-3.764-1.654c-0.066,0.126,3.566,2.032,3.5,2.158
		c-0.01,0.019-3.312-2.343-3.327-2.328C74.506,11.542,76.975,14.765,76.957,14.775z"/>
	<path class="st11" d="M82.957,12.775c-0.124,0.07-2.148-3.497-2.272-3.427c-0.124,0.07,1.901,3.637,1.778,3.707
		c-0.019,0.011-1.52-3.762-1.54-3.757c-0.021,0.005,0.314,4.051,0.293,4.05c-0.142-0.008,0.083-4.103-0.059-4.111
		c-0.142-0.008-0.367,4.088-0.509,4.08c-0.021-0.001,0.755-3.986,0.735-3.993s-1.926,3.578-1.943,3.565
		c-0.115-0.083,2.288-3.407,2.173-3.49c-0.115-0.083-2.519,3.24-2.634,3.157c-0.017-0.013,2.79-2.945,2.777-2.962
		c-0.013-0.017-3.554,1.969-3.562,1.949c-0.052-0.132,3.767-1.629,3.715-1.761s-3.871,1.364-3.922,1.232
		c-0.008-0.02,3.94-0.969,3.938-0.99c-0.002-0.021-4.054-0.265-4.05-0.286c0.028-0.139,4.05,0.666,4.077,0.527
		s-3.994-0.945-3.966-1.084c0.004-0.021,3.838,1.315,3.848,1.296c0.01-0.019-3.267-2.415-3.253-2.43
		c0.099-0.102,3.046,2.75,3.145,2.648c0.099-0.102-2.849-2.954-2.75-3.056c0.015-0.015,2.518,3.181,2.536,3.171
		s-1.443-3.798-1.422-3.803c0.138-0.032,1.076,3.96,1.214,3.928s-0.8-4.025-0.661-4.058c0.021-0.005,0.399,4.037,0.42,4.039
		c0.021,0.001,0.84-3.975,0.86-3.968c0.134,0.047-1.236,3.914-1.102,3.961c0.134,0.047,1.504-3.819,1.637-3.771
		c0.02,0.007-1.848,3.612-1.83,3.624c0.017,0.012,2.856-2.89,2.869-2.874c0.087,0.112-3.155,2.624-3.069,2.736
		c0.087,0.112,3.329-2.4,3.416-2.287c0.013,0.017-3.507,2.04-3.499,2.059c0.008,0.02,3.965-0.888,3.967-0.866
		c0.012,0.141-4.073,0.502-4.061,0.643s4.098-0.219,4.111-0.077c0.002,0.021-4.053-0.18-4.057-0.159
		c-0.004,0.021,3.815,1.397,3.806,1.416c-0.066,0.126-3.698-1.78-3.764-1.654c-0.066,0.126,3.566,2.032,3.5,2.158
		c-0.01,0.019-3.312-2.343-3.327-2.328C80.506,9.542,82.975,12.765,82.957,12.775z"/>
	<path class="st11" d="M78.252,41.7c-0.124,0.07-2.148-3.497-2.272-3.427c-0.124,0.07,1.901,3.637,1.778,3.707
		c-0.019,0.011-1.52-3.762-1.54-3.757c-0.021,0.005,0.314,4.051,0.293,4.05c-0.142-0.008,0.083-4.103-0.059-4.111
		c-0.142-0.008-0.367,4.088-0.509,4.08c-0.021-0.001,0.755-3.986,0.735-3.993s-1.926,3.578-1.943,3.565
		c-0.115-0.083,2.288-3.407,2.173-3.49c-0.115-0.083-2.519,3.24-2.634,3.157c-0.017-0.013,2.79-2.945,2.777-2.962
		c-0.013-0.017-3.554,1.969-3.562,1.949c-0.052-0.132,3.767-1.629,3.715-1.761c-0.052-0.132-3.871,1.364-3.922,1.232
		c-0.008-0.02,3.94-0.969,3.938-0.99c-0.002-0.021-4.054-0.265-4.05-0.286c0.028-0.139,4.05,0.666,4.077,0.527
		c0.028-0.139-3.994-0.945-3.966-1.084c0.004-0.021,3.838,1.315,3.848,1.296c0.01-0.019-3.267-2.415-3.253-2.43
		c0.099-0.102,3.046,2.75,3.145,2.648s-2.849-2.954-2.75-3.056c0.015-0.015,2.518,3.181,2.536,3.171
		c0.018-0.01-1.443-3.798-1.422-3.803c0.138-0.032,1.076,3.96,1.214,3.928s-0.8-4.025-0.661-4.058
		c0.021-0.005,0.399,4.037,0.42,4.039c0.021,0.001,0.84-3.975,0.86-3.968c0.134,0.047-1.236,3.914-1.102,3.961
		c0.134,0.047,1.504-3.819,1.637-3.771c0.02,0.007-1.848,3.612-1.83,3.624s2.856-2.89,2.869-2.874
		c0.087,0.112-3.155,2.624-3.069,2.736c0.087,0.112,3.329-2.4,3.416-2.287c0.013,0.017-3.507,2.04-3.499,2.059
		c0.008,0.02,3.965-0.888,3.967-0.866c0.012,0.141-4.073,0.502-4.061,0.643c0.012,0.141,4.098-0.219,4.111-0.077
		c0.002,0.021-4.053-0.18-4.057-0.159s3.815,1.397,3.806,1.416c-0.066,0.126-3.698-1.78-3.764-1.654
		c-0.066,0.126,3.566,2.032,3.5,2.158c-0.01,0.019-3.312-2.343-3.327-2.328S78.271,41.69,78.252,41.7z"/>
	<path class="st11" d="M12.081,49.937c-0.124,0.07-2.148-3.497-2.272-3.427c-0.124,0.07,1.901,3.637,1.778,3.707
		c-0.019,0.011-1.52-3.762-1.54-3.757c-0.021,0.005,0.314,4.051,0.293,4.05c-0.142-0.008,0.083-4.103-0.059-4.111
		c-0.142-0.008-0.367,4.088-0.509,4.08c-0.021-0.001,0.755-3.986,0.735-3.993c-0.02-0.007-1.926,3.578-1.943,3.565
		c-0.115-0.083,2.288-3.407,2.173-3.49c-0.115-0.083-2.519,3.24-2.634,3.157c-0.017-0.013,2.79-2.945,2.777-2.962
		c-0.013-0.017-3.554,1.969-3.562,1.949c-0.052-0.132,3.767-1.629,3.715-1.761c-0.052-0.132-3.871,1.364-3.922,1.232
		c-0.008-0.02,3.94-0.969,3.938-0.99C11.048,47.165,6.996,46.921,7,46.9c0.028-0.139,4.05,0.666,4.077,0.527
		c0.028-0.139-3.994-0.945-3.966-1.084c0.004-0.021,3.838,1.315,3.848,1.296c0.01-0.019-3.267-2.415-3.253-2.43
		c0.099-0.102,3.046,2.75,3.145,2.648c0.099-0.102-2.849-2.954-2.75-3.056c0.015-0.015,2.518,3.181,2.536,3.171
		c0.018-0.01-1.443-3.798-1.422-3.803c0.138-0.032,1.076,3.96,1.214,3.928c0.138-0.032-0.8-4.025-0.661-4.058
		c0.021-0.005,0.399,4.037,0.42,4.039c0.021,0.001,0.84-3.975,0.86-3.968c0.134,0.047-1.236,3.914-1.102,3.961
		c0.134,0.047,1.504-3.819,1.637-3.771c0.02,0.007-1.848,3.612-1.83,3.624c0.017,0.012,2.856-2.89,2.869-2.874
		c0.087,0.112-3.155,2.624-3.069,2.736c0.087,0.112,3.329-2.4,3.416-2.287c0.013,0.017-3.507,2.04-3.499,2.059
		s3.965-0.888,3.967-0.866c0.012,0.141-4.073,0.502-4.061,0.643c0.012,0.141,4.098-0.219,4.111-0.077
		c0.002,0.021-4.053-0.18-4.057-0.159c-0.004,0.021,3.815,1.397,3.806,1.416c-0.066,0.126-3.698-1.78-3.764-1.654
		c-0.066,0.126,3.566,2.032,3.5,2.158c-0.01,0.019-3.312-2.343-3.327-2.328C9.63,46.703,12.1,49.926,12.081,49.937z"/>
	<path class="st11" d="M11.081,40.937c-0.124,0.07-2.148-3.497-2.272-3.427c-0.124,0.07,1.901,3.637,1.778,3.707
		c-0.019,0.011-1.52-3.762-1.54-3.757c-0.021,0.005,0.314,4.051,0.293,4.05c-0.142-0.008,0.083-4.103-0.059-4.111
		c-0.142-0.008-0.367,4.088-0.509,4.08c-0.021-0.001,0.755-3.986,0.735-3.993c-0.02-0.007-1.926,3.578-1.943,3.565
		c-0.115-0.083,2.288-3.407,2.173-3.49c-0.115-0.083-2.519,3.24-2.634,3.157c-0.017-0.013,2.79-2.945,2.777-2.962
		c-0.013-0.017-3.554,1.969-3.562,1.949c-0.052-0.132,3.767-1.629,3.715-1.761c-0.052-0.132-3.871,1.364-3.922,1.232
		c-0.008-0.02,3.94-0.969,3.938-0.99C10.048,38.165,5.996,37.921,6,37.9c0.028-0.139,4.05,0.666,4.077,0.527
		c0.028-0.139-3.994-0.945-3.966-1.084c0.004-0.021,3.838,1.315,3.848,1.296c0.01-0.019-3.267-2.415-3.253-2.43
		c0.099-0.102,3.046,2.75,3.145,2.648c0.099-0.102-2.849-2.954-2.75-3.056c0.015-0.015,2.518,3.181,2.536,3.171
		c0.018-0.01-1.443-3.798-1.422-3.803c0.138-0.032,1.076,3.96,1.214,3.928c0.138-0.032-0.8-4.025-0.661-4.058
		c0.021-0.005,0.399,4.037,0.42,4.039c0.021,0.001,0.84-3.975,0.86-3.968c0.134,0.047-1.236,3.914-1.102,3.961
		c0.134,0.047,1.504-3.819,1.637-3.771c0.02,0.007-1.848,3.612-1.83,3.624c0.017,0.012,2.856-2.89,2.869-2.874
		c0.087,0.112-3.155,2.624-3.069,2.736c0.087,0.112,3.329-2.4,3.416-2.287c0.013,0.017-3.507,2.04-3.499,2.059
		s3.965-0.888,3.967-0.866c0.012,0.141-4.073,0.502-4.061,0.643c0.012,0.141,4.098-0.219,4.111-0.077
		c0.002,0.021-4.053-0.18-4.057-0.159c-0.004,0.021,3.815,1.397,3.806,1.416c-0.066,0.126-3.698-1.78-3.764-1.654
		c-0.066,0.126,3.566,2.032,3.5,2.158c-0.01,0.019-3.312-2.343-3.327-2.328C8.63,37.703,11.1,40.926,11.081,40.937z"/>
	<path class="st11" d="M13.081,31.937c-0.124,0.07-2.148-3.497-2.272-3.427c-0.124,0.07,1.901,3.637,1.778,3.707
		c-0.019,0.011-1.52-3.762-1.54-3.757c-0.021,0.005,0.314,4.051,0.293,4.05c-0.142-0.008,0.083-4.103-0.059-4.111
		c-0.142-0.008-0.367,4.088-0.509,4.08c-0.021-0.001,0.755-3.986,0.735-3.993c-0.02-0.007-1.926,3.578-1.943,3.565
		c-0.115-0.083,2.288-3.407,2.173-3.49c-0.115-0.083-2.519,3.24-2.634,3.157c-0.017-0.013,2.79-2.945,2.777-2.962
		c-0.013-0.017-3.554,1.969-3.562,1.949c-0.052-0.132,3.767-1.629,3.715-1.761c-0.052-0.132-3.871,1.364-3.922,1.232
		c-0.008-0.02,3.94-0.969,3.938-0.99C12.048,29.165,7.996,28.921,8,28.9c0.028-0.139,4.05,0.666,4.077,0.527
		c0.028-0.139-3.994-0.945-3.966-1.084c0.004-0.021,3.838,1.315,3.848,1.296c0.01-0.019-3.267-2.415-3.253-2.43
		c0.099-0.102,3.046,2.75,3.145,2.648c0.099-0.102-2.849-2.954-2.75-3.056c0.015-0.015,2.518,3.181,2.536,3.171
		c0.018-0.01-1.443-3.798-1.422-3.803c0.138-0.032,1.076,3.96,1.214,3.928c0.138-0.032-0.8-4.025-0.661-4.058
		c0.021-0.005,0.399,4.037,0.42,4.039c0.021,0.001,0.84-3.975,0.86-3.968c0.134,0.047-1.236,3.914-1.102,3.961
		c0.134,0.047,1.504-3.819,1.637-3.771c0.02,0.007-1.848,3.612-1.83,3.624c0.017,0.012,2.856-2.89,2.869-2.874
		c0.087,0.112-3.155,2.624-3.069,2.736c0.087,0.112,3.329-2.4,3.416-2.287c0.013,0.017-3.507,2.04-3.499,2.059
		c0.008,0.02,3.965-0.888,3.967-0.866c0.012,0.141-4.073,0.502-4.061,0.643c0.012,0.141,4.098-0.219,4.111-0.077
		c0.002,0.021-4.053-0.18-4.057-0.159c-0.004,0.021,3.815,1.397,3.806,1.416c-0.066,0.126-3.698-1.78-3.764-1.654
		s3.566,2.032,3.5,2.158c-0.01,0.019-3.312-2.343-3.327-2.328C10.63,28.703,13.1,31.926,13.081,31.937z"/>
	<path class="st11" d="M5.081,33.937c-0.124,0.07-2.148-3.497-2.272-3.427c-0.124,0.07,1.901,3.637,1.778,3.707
		c-0.019,0.011-1.52-3.762-1.54-3.757c-0.021,0.005,0.314,4.051,0.293,4.05c-0.142-0.008,0.083-4.103-0.059-4.111
		s-0.367,4.088-0.509,4.08c-0.021-0.001,0.755-3.986,0.735-3.993c-0.02-0.007-1.926,3.578-1.943,3.565
		c-0.115-0.083,2.288-3.407,2.173-3.49c-0.115-0.083-2.519,3.24-2.634,3.157c-0.017-0.013,2.79-2.945,2.777-2.962
		c-0.013-0.017-3.554,1.969-3.562,1.949c-0.052-0.132,3.767-1.629,3.715-1.761c-0.052-0.132-3.871,1.364-3.922,1.232
		c-0.008-0.02,3.94-0.969,3.938-0.99C4.048,31.165-0.004,30.921,0,30.9c0.028-0.139,4.05,0.666,4.077,0.527
		c0.028-0.139-3.994-0.945-3.966-1.084c0.004-0.021,3.838,1.315,3.848,1.296c0.01-0.019-3.267-2.415-3.253-2.43
		c0.099-0.102,3.046,2.75,3.145,2.648c0.099-0.102-2.849-2.954-2.75-3.056c0.015-0.015,2.518,3.181,2.536,3.171
		c0.018-0.01-1.443-3.798-1.422-3.803c0.138-0.032,1.076,3.96,1.214,3.928c0.138-0.032-0.8-4.025-0.661-4.058
		c0.021-0.005,0.399,4.037,0.42,4.039c0.021,0.001,0.84-3.975,0.86-3.968c0.134,0.047-1.236,3.914-1.102,3.961
		c0.134,0.047,1.504-3.819,1.637-3.771c0.02,0.007-1.848,3.612-1.83,3.624c0.017,0.012,2.856-2.89,2.869-2.874
		c0.087,0.112-3.155,2.624-3.069,2.736c0.087,0.112,3.329-2.4,3.416-2.287c0.013,0.017-3.507,2.04-3.499,2.059
		c0.008,0.02,3.965-0.888,3.967-0.866c0.012,0.141-4.073,0.502-4.061,0.643s4.098-0.219,4.111-0.077
		c0.002,0.021-4.053-0.18-4.057-0.159c-0.004,0.021,3.815,1.397,3.806,1.416c-0.066,0.126-3.698-1.78-3.764-1.654
		c-0.066,0.126,3.566,2.032,3.5,2.158c-0.01,0.019-3.312-2.343-3.327-2.328C2.63,30.703,5.1,33.926,5.081,33.937z"/>
	<path class="st11" d="M7.081,26.937c-0.124,0.07-2.148-3.497-2.272-3.427c-0.124,0.07,1.901,3.637,1.778,3.707
		c-0.019,0.011-1.52-3.762-1.54-3.757c-0.021,0.005,0.314,4.051,0.293,4.05c-0.142-0.008,0.083-4.103-0.059-4.111
		s-0.367,4.088-0.509,4.08c-0.021-0.001,0.755-3.986,0.735-3.993c-0.02-0.007-1.926,3.578-1.943,3.565
		c-0.115-0.083,2.288-3.407,2.173-3.49s-2.519,3.24-2.634,3.157c-0.017-0.013,2.79-2.945,2.777-2.962
		c-0.013-0.017-3.554,1.969-3.562,1.949c-0.052-0.132,3.767-1.629,3.715-1.761c-0.052-0.132-3.871,1.364-3.922,1.232
		c-0.008-0.02,3.94-0.969,3.938-0.99C6.048,24.165,1.996,23.921,2,23.9c0.028-0.139,4.05,0.666,4.077,0.527
		c0.028-0.139-3.994-0.945-3.966-1.084c0.004-0.021,3.838,1.315,3.848,1.296c0.01-0.019-3.267-2.415-3.253-2.43
		c0.099-0.102,3.046,2.75,3.145,2.648c0.099-0.102-2.849-2.954-2.75-3.056c0.015-0.015,2.518,3.181,2.536,3.171
		c0.018-0.01-1.443-3.798-1.422-3.803c0.138-0.032,1.076,3.96,1.214,3.928c0.138-0.032-0.8-4.025-0.661-4.058
		c0.021-0.005,0.399,4.037,0.42,4.039c0.021,0.001,0.84-3.975,0.86-3.968c0.134,0.047-1.236,3.914-1.102,3.961
		c0.134,0.047,1.504-3.819,1.637-3.771c0.02,0.007-1.848,3.612-1.83,3.624c0.017,0.012,2.856-2.89,2.869-2.874
		c0.087,0.112-3.155,2.624-3.069,2.736c0.087,0.112,3.329-2.4,3.416-2.287c0.013,0.017-3.507,2.04-3.499,2.059
		c0.008,0.02,3.965-0.888,3.967-0.866c0.012,0.141-4.073,0.502-4.061,0.643s4.098-0.219,4.111-0.077
		c0.002,0.021-4.053-0.18-4.057-0.159c-0.004,0.021,3.815,1.397,3.806,1.416c-0.066,0.126-3.698-1.78-3.764-1.654
		c-0.066,0.126,3.566,2.032,3.5,2.158c-0.01,0.019-3.312-2.343-3.327-2.328C4.63,23.703,7.1,26.926,7.081,26.937z"/>
	<path class="st11" d="M17.562,57.232c-0.124,0.07-2.148-3.497-2.272-3.427c-0.124,0.07,1.901,3.637,1.778,3.707
		c-0.019,0.011-1.52-3.762-1.54-3.757c-0.021,0.005,0.314,4.051,0.293,4.05c-0.142-0.008,0.083-4.103-0.059-4.111
		c-0.142-0.008-0.367,4.088-0.509,4.08c-0.021-0.001,0.755-3.986,0.735-3.993c-0.02-0.007-1.926,3.578-1.943,3.565
		c-0.115-0.083,2.288-3.407,2.173-3.49c-0.115-0.083-2.519,3.24-2.634,3.157c-0.017-0.013,2.79-2.945,2.777-2.962
		C16.35,54.034,12.809,56.02,12.801,56c-0.052-0.132,3.767-1.629,3.715-1.761c-0.052-0.132-3.871,1.364-3.922,1.232
		c-0.008-0.02,3.94-0.969,3.938-0.99c-0.002-0.021-4.054-0.265-4.05-0.286c0.028-0.139,4.05,0.666,4.077,0.527
		c0.028-0.139-3.994-0.945-3.966-1.084c0.004-0.021,3.838,1.315,3.848,1.296s-3.267-2.415-3.253-2.43
		c0.099-0.102,3.046,2.75,3.145,2.648s-2.849-2.954-2.75-3.056c0.015-0.015,2.518,3.181,2.536,3.171
		c0.018-0.01-1.443-3.798-1.422-3.803c0.138-0.032,1.076,3.96,1.214,3.928c0.138-0.032-0.8-4.025-0.661-4.058
		c0.021-0.005,0.399,4.037,0.42,4.039c0.021,0.001,0.84-3.975,0.86-3.968c0.134,0.047-1.236,3.914-1.102,3.961
		s1.504-3.819,1.637-3.771c0.02,0.007-1.848,3.612-1.83,3.624c0.017,0.012,2.856-2.89,2.869-2.874
		c0.087,0.112-3.155,2.624-3.069,2.736c0.087,0.112,3.329-2.4,3.416-2.287c0.013,0.017-3.507,2.04-3.499,2.059
		c0.008,0.02,3.965-0.888,3.967-0.866c0.012,0.141-4.073,0.502-4.061,0.643c0.012,0.141,4.098-0.219,4.111-0.077
		c0.002,0.021-4.053-0.18-4.057-0.159c-0.004,0.021,3.815,1.397,3.806,1.416c-0.066,0.126-3.698-1.78-3.764-1.654
		c-0.066,0.126,3.566,2.032,3.5,2.158c-0.01,0.019-3.312-2.343-3.327-2.328C15.111,53.998,17.581,57.221,17.562,57.232z"/>
	<path class="st11" d="M19.828,49.937c-0.124,0.07-2.148-3.497-2.272-3.427c-0.124,0.07,1.901,3.637,1.778,3.707
		c-0.019,0.011-1.52-3.762-1.54-3.757c-0.021,0.005,0.314,4.051,0.293,4.05c-0.142-0.008,0.083-4.103-0.059-4.111
		c-0.142-0.008-0.367,4.088-0.509,4.08c-0.021-0.001,0.755-3.986,0.735-3.993c-0.02-0.007-1.926,3.578-1.943,3.565
		c-0.115-0.083,2.288-3.407,2.173-3.49s-2.519,3.24-2.634,3.157c-0.017-0.013,2.79-2.945,2.777-2.962s-3.554,1.969-3.562,1.949
		c-0.052-0.132,3.767-1.629,3.715-1.761c-0.052-0.132-3.871,1.364-3.922,1.232c-0.008-0.02,3.94-0.969,3.938-0.99
		c-0.002-0.021-4.054-0.265-4.05-0.286c0.028-0.139,4.05,0.666,4.077,0.527c0.028-0.139-3.994-0.945-3.966-1.084
		c0.004-0.021,3.838,1.315,3.848,1.296c0.01-0.019-3.267-2.415-3.253-2.43c0.099-0.102,3.046,2.75,3.145,2.648
		c0.099-0.102-2.849-2.954-2.75-3.056c0.015-0.015,2.518,3.181,2.536,3.171c0.018-0.01-1.443-3.798-1.422-3.803
		c0.138-0.032,1.076,3.96,1.214,3.928c0.138-0.032-0.8-4.025-0.661-4.058c0.021-0.005,0.399,4.037,0.42,4.039
		c0.021,0.001,0.84-3.975,0.86-3.968c0.134,0.047-1.236,3.914-1.102,3.961c0.134,0.047,1.504-3.819,1.637-3.771
		c0.02,0.007-1.848,3.612-1.83,3.624s2.856-2.89,2.869-2.874c0.087,0.112-3.155,2.624-3.069,2.736
		c0.087,0.112,3.329-2.4,3.416-2.287c0.013,0.017-3.507,2.04-3.499,2.059c0.008,0.02,3.965-0.888,3.967-0.866
		c0.012,0.141-4.073,0.502-4.061,0.643c0.012,0.141,4.098-0.219,4.111-0.077c0.002,0.021-4.053-0.18-4.057-0.159
		c-0.004,0.021,3.815,1.397,3.806,1.416c-0.066,0.126-3.698-1.78-3.764-1.654c-0.066,0.126,3.566,2.032,3.5,2.158
		c-0.01,0.019-3.312-2.343-3.327-2.328C17.377,46.703,19.847,49.926,19.828,49.937z"/>
	<path class="st11" d="M23.547,43.464c-0.124,0.07-2.148-3.497-2.272-3.427c-0.124,0.07,1.901,3.637,1.778,3.707
		c-0.019,0.011-1.52-3.762-1.54-3.757s0.314,4.051,0.293,4.05c-0.142-0.008,0.083-4.103-0.059-4.111s-0.367,4.088-0.509,4.08
		c-0.021-0.001,0.755-3.986,0.735-3.993c-0.02-0.007-1.926,3.578-1.943,3.565c-0.115-0.083,2.288-3.407,2.173-3.49
		c-0.115-0.083-2.519,3.24-2.634,3.157c-0.017-0.013,2.79-2.945,2.777-2.962c-0.013-0.017-3.554,1.969-3.562,1.949
		c-0.052-0.132,3.767-1.629,3.715-1.761c-0.052-0.132-3.871,1.364-3.922,1.232c-0.008-0.02,3.94-0.969,3.938-0.99
		c-0.002-0.021-4.054-0.265-4.05-0.286c0.028-0.139,4.05,0.666,4.077,0.527s-3.994-0.945-3.966-1.084
		c0.004-0.021,3.838,1.315,3.848,1.296c0.01-0.019-3.267-2.415-3.253-2.43c0.099-0.102,3.046,2.75,3.145,2.648
		c0.099-0.102-2.849-2.954-2.75-3.056c0.015-0.015,2.518,3.181,2.536,3.171s-1.443-3.798-1.422-3.803
		c0.138-0.032,1.076,3.96,1.214,3.928c0.138-0.032-0.8-4.025-0.661-4.058c0.021-0.005,0.399,4.037,0.42,4.039s0.84-3.975,0.86-3.968
		c0.134,0.047-1.236,3.914-1.102,3.961c0.134,0.047,1.504-3.819,1.637-3.771c0.02,0.007-1.848,3.612-1.83,3.624
		c0.017,0.012,2.856-2.89,2.869-2.874c0.087,0.112-3.155,2.624-3.069,2.736c0.087,0.112,3.329-2.4,3.416-2.287
		c0.013,0.017-3.507,2.04-3.499,2.059s3.965-0.888,3.967-0.866c0.012,0.141-4.073,0.502-4.061,0.643
		c0.012,0.141,4.098-0.219,4.111-0.077c0.002,0.021-4.053-0.18-4.057-0.159c-0.004,0.021,3.815,1.397,3.806,1.416
		c-0.066,0.126-3.698-1.78-3.764-1.654c-0.066,0.126,3.566,2.032,3.5,2.158c-0.01,0.019-3.312-2.343-3.327-2.328
		C21.096,40.231,23.566,43.454,23.547,43.464z"/>
	<path class="st11" d="M27.443,51.759c-0.124,0.07-2.148-3.497-2.272-3.427c-0.124,0.07,1.901,3.637,1.778,3.707
		c-0.019,0.011-1.52-3.762-1.54-3.757c-0.021,0.005,0.314,4.051,0.293,4.05c-0.142-0.008,0.083-4.103-0.059-4.111
		s-0.367,4.088-0.509,4.08c-0.021-0.001,0.755-3.986,0.735-3.993c-0.02-0.007-1.926,3.578-1.943,3.565
		c-0.115-0.083,2.288-3.407,2.173-3.49c-0.115-0.083-2.519,3.24-2.634,3.157c-0.017-0.013,2.79-2.945,2.777-2.962
		c-0.013-0.017-3.554,1.969-3.562,1.949c-0.052-0.132,3.767-1.629,3.715-1.761c-0.052-0.132-3.871,1.364-3.922,1.232
		c-0.008-0.02,3.94-0.969,3.938-0.99c-0.002-0.021-4.054-0.265-4.05-0.286c0.028-0.139,4.05,0.666,4.077,0.527
		s-3.994-0.945-3.966-1.084c0.004-0.021,3.838,1.315,3.848,1.296c0.01-0.019-3.267-2.415-3.253-2.43
		c0.099-0.102,3.046,2.75,3.145,2.648s-2.849-2.954-2.75-3.056c0.015-0.015,2.518,3.181,2.536,3.171
		c0.018-0.01-1.443-3.798-1.422-3.803c0.138-0.032,1.076,3.96,1.214,3.928s-0.8-4.025-0.661-4.058
		c0.021-0.005,0.399,4.037,0.42,4.039c0.021,0.001,0.84-3.975,0.86-3.968c0.134,0.047-1.236,3.914-1.102,3.961
		s1.504-3.819,1.637-3.771c0.02,0.007-1.848,3.612-1.83,3.624c0.017,0.012,2.856-2.89,2.869-2.874
		c0.087,0.112-3.155,2.624-3.069,2.736s3.329-2.4,3.416-2.287c0.013,0.017-3.507,2.04-3.499,2.059
		c0.008,0.02,3.965-0.888,3.967-0.866c0.012,0.141-4.073,0.502-4.061,0.643s4.098-0.219,4.111-0.077
		c0.002,0.021-4.053-0.18-4.057-0.159c-0.004,0.021,3.815,1.397,3.806,1.416c-0.066,0.126-3.698-1.78-3.764-1.654
		c-0.066,0.126,3.566,2.032,3.5,2.158c-0.01,0.019-3.312-2.343-3.327-2.328C24.993,48.526,27.462,51.749,27.443,51.759z"/>
	<path class="st11" d="M26.072,59.66c-0.124,0.07-2.148-3.497-2.272-3.427s1.901,3.637,1.778,3.707
		c-0.019,0.011-1.52-3.762-1.54-3.757c-0.021,0.005,0.314,4.051,0.293,4.05c-0.142-0.008,0.083-4.103-0.059-4.111
		s-0.367,4.088-0.509,4.08c-0.021-0.001,0.755-3.986,0.735-3.993c-0.02-0.007-1.926,3.578-1.943,3.565
		c-0.115-0.083,2.288-3.407,2.173-3.49c-0.115-0.083-2.519,3.24-2.634,3.157c-0.017-0.013,2.79-2.945,2.777-2.962
		c-0.013-0.017-3.554,1.969-3.562,1.949c-0.052-0.132,3.767-1.629,3.715-1.761c-0.052-0.132-3.871,1.364-3.922,1.232
		c-0.008-0.02,3.94-0.969,3.938-0.99c-0.002-0.021-4.054-0.265-4.05-0.286c0.028-0.139,4.05,0.666,4.077,0.527
		s-3.994-0.945-3.966-1.084c0.004-0.021,3.838,1.315,3.848,1.296c0.01-0.019-3.267-2.415-3.253-2.43
		c0.099-0.102,3.046,2.75,3.145,2.648s-2.849-2.954-2.75-3.056c0.015-0.015,2.518,3.181,2.536,3.171
		c0.018-0.01-1.443-3.798-1.422-3.803c0.138-0.032,1.076,3.96,1.214,3.928s-0.8-4.025-0.661-4.058
		c0.021-0.005,0.399,4.037,0.42,4.039c0.021,0.001,0.84-3.975,0.86-3.968c0.134,0.047-1.236,3.914-1.102,3.961
		s1.504-3.819,1.637-3.771c0.02,0.007-1.848,3.612-1.83,3.624c0.017,0.012,2.856-2.89,2.869-2.874
		c0.087,0.112-3.155,2.624-3.069,2.736c0.087,0.112,3.329-2.4,3.416-2.287c0.013,0.017-3.507,2.04-3.499,2.059
		c0.008,0.02,3.965-0.888,3.967-0.866c0.012,0.141-4.073,0.502-4.061,0.643s4.098-0.219,4.111-0.077
		c0.002,0.021-4.053-0.18-4.057-0.159c-0.004,0.021,3.815,1.397,3.806,1.416c-0.066,0.126-3.698-1.78-3.764-1.654
		c-0.066,0.126,3.566,2.032,3.5,2.158c-0.01,0.019-3.312-2.343-3.327-2.328C23.621,56.427,26.091,59.649,26.072,59.66z"/>
	<path class="st11" d="M89.908,44.937c-0.124,0.07-2.148-3.497-2.272-3.427c-0.124,0.07,1.901,3.637,1.778,3.707
		c-0.019,0.011-1.52-3.762-1.54-3.757s0.314,4.051,0.293,4.05c-0.142-0.008,0.083-4.103-0.059-4.111
		c-0.142-0.008-0.367,4.088-0.509,4.08c-0.021-0.001,0.755-3.986,0.735-3.993c-0.02-0.007-1.926,3.578-1.943,3.565
		c-0.115-0.083,2.288-3.407,2.173-3.49s-2.519,3.24-2.634,3.157c-0.017-0.013,2.79-2.945,2.777-2.962
		c-0.013-0.017-3.554,1.969-3.562,1.949c-0.052-0.132,3.767-1.629,3.715-1.761c-0.052-0.132-3.871,1.364-3.922,1.232
		c-0.008-0.02,3.94-0.969,3.938-0.99c-0.002-0.021-4.054-0.265-4.05-0.286c0.028-0.139,4.05,0.666,4.077,0.527
		c0.028-0.139-3.994-0.945-3.966-1.084c0.004-0.021,3.838,1.315,3.848,1.296c0.01-0.019-3.267-2.415-3.253-2.43
		c0.099-0.102,3.046,2.75,3.145,2.648c0.099-0.102-2.849-2.954-2.75-3.056c0.015-0.015,2.518,3.181,2.536,3.171
		c0.018-0.01-1.443-3.798-1.422-3.803c0.138-0.032,1.076,3.96,1.214,3.928c0.138-0.032-0.8-4.025-0.661-4.058
		c0.021-0.005,0.398,4.037,0.42,4.039c0.021,0.001,0.84-3.975,0.86-3.968c0.134,0.047-1.236,3.914-1.102,3.961
		c0.134,0.047,1.504-3.819,1.637-3.771c0.02,0.007-1.848,3.612-1.83,3.624s2.856-2.89,2.869-2.874
		c0.087,0.112-3.155,2.624-3.069,2.736c0.087,0.112,3.329-2.4,3.416-2.287c0.013,0.017-3.507,2.04-3.499,2.059
		c0.008,0.02,3.965-0.888,3.967-0.866c0.012,0.141-4.073,0.502-4.061,0.643c0.012,0.141,4.098-0.219,4.111-0.077
		c0.002,0.021-4.053-0.18-4.057-0.159c-0.004,0.021,3.815,1.397,3.806,1.416c-0.066,0.126-3.698-1.78-3.764-1.654
		c-0.066,0.126,3.566,2.032,3.5,2.158c-0.01,0.019-3.312-2.343-3.327-2.328C87.457,41.703,89.926,44.926,89.908,44.937z"/>
	<path class="st11" d="M84.52,35.721c-0.124,0.07-2.148-3.497-2.272-3.427c-0.124,0.07,1.901,3.637,1.778,3.707
		c-0.019,0.011-1.52-3.762-1.54-3.757s0.314,4.051,0.293,4.05c-0.142-0.008,0.083-4.103-0.059-4.111
		c-0.142-0.008-0.367,4.088-0.509,4.08c-0.021-0.001,0.755-3.986,0.735-3.993c-0.02-0.007-1.926,3.578-1.943,3.565
		c-0.115-0.083,2.288-3.407,2.173-3.49s-2.519,3.24-2.634,3.157c-0.017-0.013,2.79-2.945,2.777-2.962s-3.554,1.969-3.562,1.949
		c-0.052-0.132,3.767-1.629,3.715-1.761c-0.052-0.132-3.871,1.364-3.922,1.232c-0.008-0.02,3.94-0.969,3.938-0.99
		c-0.002-0.021-4.054-0.265-4.05-0.286c0.028-0.139,4.05,0.666,4.077,0.527c0.028-0.139-3.994-0.945-3.966-1.084
		c0.004-0.021,3.838,1.315,3.848,1.296c0.01-0.019-3.267-2.415-3.253-2.43c0.099-0.102,3.046,2.75,3.145,2.648
		c0.099-0.102-2.849-2.954-2.75-3.056c0.015-0.015,2.518,3.181,2.536,3.171c0.018-0.01-1.443-3.798-1.422-3.803
		c0.138-0.032,1.076,3.96,1.214,3.928s-0.8-4.025-0.661-4.058c0.021-0.005,0.398,4.037,0.42,4.039
		c0.021,0.001,0.84-3.975,0.86-3.968c0.134,0.047-1.236,3.914-1.102,3.961c0.134,0.047,1.504-3.819,1.637-3.771
		c0.02,0.007-1.848,3.612-1.83,3.624s2.856-2.89,2.869-2.874c0.087,0.112-3.155,2.624-3.069,2.736
		c0.087,0.112,3.329-2.4,3.416-2.287c0.013,0.017-3.507,2.04-3.499,2.059c0.008,0.02,3.965-0.888,3.967-0.866
		c0.012,0.141-4.073,0.502-4.061,0.643c0.012,0.141,4.098-0.219,4.111-0.077c0.002,0.021-4.053-0.18-4.057-0.159
		c-0.004,0.021,3.815,1.397,3.806,1.416c-0.066,0.126-3.698-1.78-3.764-1.654c-0.066,0.126,3.566,2.032,3.5,2.158
		c-0.01,0.019-3.312-2.343-3.327-2.328C82.069,32.488,84.539,35.71,84.52,35.721z"/>
	<path class="st11" d="M91.52,32.721c-0.124,0.07-2.148-3.497-2.272-3.427c-0.124,0.07,1.901,3.637,1.778,3.707
		c-0.019,0.011-1.52-3.762-1.54-3.757c-0.021,0.005,0.314,4.051,0.293,4.05c-0.142-0.008,0.083-4.103-0.059-4.111
		c-0.142-0.008-0.367,4.088-0.509,4.08c-0.021-0.001,0.755-3.986,0.735-3.993c-0.02-0.007-1.926,3.578-1.943,3.565
		c-0.115-0.083,2.288-3.407,2.173-3.49s-2.519,3.24-2.634,3.157c-0.017-0.013,2.79-2.945,2.777-2.962s-3.554,1.969-3.562,1.949
		c-0.052-0.132,3.767-1.629,3.715-1.761c-0.052-0.132-3.871,1.364-3.922,1.232c-0.008-0.02,3.94-0.969,3.938-0.99
		c-0.002-0.021-4.054-0.265-4.05-0.286c0.028-0.139,4.05,0.666,4.077,0.527c0.028-0.139-3.994-0.945-3.966-1.084
		c0.004-0.021,3.838,1.315,3.848,1.296c0.01-0.019-3.267-2.415-3.253-2.43c0.099-0.102,3.046,2.75,3.145,2.648
		s-2.849-2.954-2.75-3.056c0.015-0.015,2.518,3.181,2.536,3.171c0.018-0.01-1.443-3.798-1.422-3.803
		c0.138-0.032,1.076,3.96,1.214,3.928s-0.8-4.025-0.661-4.058c0.021-0.005,0.398,4.037,0.42,4.039
		c0.021,0.001,0.84-3.975,0.86-3.968c0.134,0.047-1.236,3.914-1.102,3.961c0.134,0.047,1.504-3.819,1.637-3.771
		c0.02,0.007-1.848,3.612-1.83,3.624c0.017,0.012,2.856-2.89,2.869-2.874c0.087,0.112-3.155,2.624-3.069,2.736
		s3.329-2.4,3.416-2.287c0.013,0.017-3.507,2.04-3.499,2.059c0.008,0.02,3.965-0.888,3.967-0.866
		c0.012,0.141-4.073,0.502-4.061,0.643c0.012,0.141,4.098-0.219,4.111-0.077c0.002,0.021-4.053-0.18-4.057-0.159
		c-0.004,0.021,3.815,1.397,3.806,1.416c-0.066,0.126-3.698-1.78-3.764-1.654s3.566,2.032,3.5,2.158
		c-0.01,0.019-3.312-2.343-3.327-2.328C89.069,29.488,91.539,32.71,91.52,32.721z"/>
	<path class="st11" d="M91.52,24.721c-0.124,0.07-2.148-3.497-2.272-3.427c-0.124,0.07,1.901,3.637,1.778,3.707
		c-0.019,0.011-1.52-3.762-1.54-3.757c-0.021,0.005,0.314,4.051,0.293,4.05c-0.142-0.008,0.083-4.103-0.059-4.111
		c-0.142-0.008-0.367,4.088-0.509,4.08c-0.021-0.001,0.755-3.986,0.735-3.993c-0.02-0.007-1.926,3.578-1.943,3.565
		c-0.115-0.083,2.288-3.407,2.173-3.49s-2.519,3.24-2.634,3.157c-0.017-0.013,2.79-2.945,2.777-2.962s-3.554,1.969-3.562,1.949
		c-0.052-0.132,3.767-1.629,3.715-1.761c-0.052-0.132-3.871,1.364-3.922,1.232c-0.008-0.02,3.94-0.969,3.938-0.99
		c-0.002-0.021-4.054-0.265-4.05-0.286c0.028-0.139,4.05,0.666,4.077,0.527c0.028-0.139-3.994-0.945-3.966-1.084
		c0.004-0.021,3.838,1.315,3.848,1.296c0.01-0.019-3.267-2.415-3.253-2.43c0.099-0.102,3.046,2.75,3.145,2.648
		s-2.849-2.954-2.75-3.056c0.015-0.015,2.518,3.181,2.536,3.171c0.018-0.01-1.443-3.798-1.422-3.803
		c0.138-0.032,1.076,3.96,1.214,3.928s-0.8-4.025-0.661-4.058c0.021-0.005,0.398,4.037,0.42,4.039
		c0.021,0.001,0.84-3.975,0.86-3.968c0.134,0.047-1.236,3.914-1.102,3.961c0.134,0.047,1.504-3.819,1.637-3.771
		c0.02,0.007-1.848,3.612-1.83,3.624c0.017,0.012,2.856-2.89,2.869-2.874c0.087,0.112-3.155,2.624-3.069,2.736
		s3.329-2.4,3.416-2.287c0.013,0.017-3.507,2.04-3.499,2.059c0.008,0.02,3.965-0.888,3.967-0.866
		c0.012,0.141-4.073,0.502-4.061,0.643c0.012,0.141,4.098-0.219,4.111-0.077c0.002,0.021-4.053-0.18-4.057-0.159
		c-0.004,0.021,3.815,1.397,3.806,1.416c-0.066,0.126-3.698-1.78-3.764-1.654s3.566,2.032,3.5,2.158
		c-0.01,0.019-3.312-2.343-3.327-2.328C89.069,21.488,91.539,24.71,91.52,24.721z"/>
	<path class="st11" d="M98.52,22.721c-0.124,0.07-2.148-3.497-2.272-3.427c-0.124,0.07,1.901,3.637,1.778,3.707
		c-0.019,0.011-1.52-3.762-1.54-3.757c-0.021,0.005,0.314,4.051,0.293,4.05c-0.142-0.008,0.083-4.103-0.059-4.111
		c-0.142-0.008-0.367,4.088-0.509,4.08c-0.021-0.001,0.755-3.986,0.735-3.993c-0.02-0.007-1.926,3.578-1.943,3.565
		c-0.115-0.083,2.288-3.407,2.173-3.49s-2.519,3.24-2.634,3.157c-0.017-0.013,2.79-2.945,2.777-2.962s-3.554,1.969-3.562,1.949
		c-0.052-0.132,3.767-1.629,3.715-1.761c-0.052-0.132-3.871,1.364-3.922,1.232c-0.008-0.02,3.94-0.969,3.938-0.99
		c-0.002-0.021-4.054-0.265-4.05-0.286c0.028-0.139,4.05,0.666,4.077,0.527c0.028-0.139-3.994-0.945-3.966-1.084
		c0.004-0.021,3.838,1.315,3.848,1.296c0.01-0.019-3.267-2.415-3.253-2.43c0.099-0.102,3.046,2.75,3.145,2.648
		s-2.849-2.954-2.75-3.056c0.015-0.015,2.518,3.181,2.536,3.171c0.018-0.01-1.443-3.798-1.422-3.803
		c0.138-0.032,1.076,3.96,1.214,3.928s-0.8-4.025-0.661-4.058c0.021-0.005,0.398,4.037,0.42,4.039
		c0.021,0.001,0.84-3.975,0.86-3.968c0.134,0.047-1.236,3.914-1.102,3.961c0.134,0.047,1.504-3.819,1.637-3.771
		c0.02,0.007-1.848,3.612-1.83,3.624c0.017,0.012,2.856-2.89,2.869-2.874c0.087,0.112-3.155,2.624-3.069,2.736
		s3.329-2.4,3.416-2.287c0.013,0.017-3.507,2.04-3.499,2.059c0.008,0.02,3.965-0.888,3.967-0.866
		c0.012,0.141-4.073,0.502-4.061,0.643c0.012,0.141,4.098-0.219,4.111-0.077c0.002,0.021-4.053-0.18-4.057-0.159
		c-0.004,0.021,3.815,1.397,3.806,1.416c-0.066,0.126-3.698-1.78-3.764-1.654s3.566,2.032,3.5,2.158
		c-0.01,0.019-3.312-2.343-3.327-2.328C96.069,19.488,98.539,22.71,98.52,22.721z"/>
	<path class="st11" d="M97.52,29.721c-0.124,0.07-2.148-3.497-2.272-3.427c-0.124,0.07,1.901,3.637,1.778,3.707
		c-0.019,0.011-1.52-3.762-1.54-3.757c-0.021,0.005,0.314,4.051,0.293,4.05c-0.142-0.008,0.083-4.103-0.059-4.111
		c-0.142-0.008-0.367,4.088-0.509,4.08c-0.021-0.001,0.755-3.986,0.735-3.993c-0.02-0.007-1.926,3.578-1.943,3.565
		c-0.115-0.083,2.288-3.407,2.173-3.49s-2.519,3.24-2.634,3.157c-0.017-0.013,2.79-2.945,2.777-2.962s-3.554,1.969-3.562,1.949
		c-0.052-0.132,3.767-1.629,3.715-1.761c-0.052-0.132-3.871,1.364-3.922,1.232c-0.008-0.02,3.94-0.969,3.938-0.99
		c-0.002-0.021-4.054-0.265-4.05-0.286c0.028-0.139,4.05,0.666,4.077,0.527c0.028-0.139-3.994-0.945-3.966-1.084
		c0.004-0.021,3.838,1.315,3.848,1.296c0.01-0.019-3.267-2.415-3.253-2.43c0.099-0.102,3.046,2.75,3.145,2.648
		s-2.849-2.954-2.75-3.056c0.015-0.015,2.518,3.181,2.536,3.171c0.018-0.01-1.443-3.798-1.422-3.803
		c0.138-0.032,1.076,3.96,1.214,3.928s-0.8-4.025-0.661-4.058c0.021-0.005,0.398,4.037,0.42,4.039
		c0.021,0.001,0.84-3.975,0.86-3.968c0.134,0.047-1.236,3.914-1.102,3.961c0.134,0.047,1.504-3.819,1.637-3.771
		c0.02,0.007-1.848,3.612-1.83,3.624c0.017,0.012,2.856-2.89,2.869-2.874c0.087,0.112-3.155,2.624-3.069,2.736
		s3.329-2.4,3.416-2.287c0.013,0.017-3.507,2.04-3.499,2.059c0.008,0.02,3.965-0.888,3.967-0.866
		c0.012,0.141-4.073,0.502-4.061,0.643c0.012,0.141,4.098-0.219,4.111-0.077c0.002,0.021-4.053-0.18-4.057-0.159
		c-0.004,0.021,3.815,1.397,3.806,1.416c-0.066,0.126-3.698-1.78-3.764-1.654s3.566,2.032,3.5,2.158
		c-0.01,0.019-3.312-2.343-3.327-2.328C95.069,26.488,97.539,29.71,97.52,29.721z"/>
	<path class="st11" d="M81.276,52.407c-0.124,0.07-2.148-3.497-2.272-3.427c-0.124,0.07,1.901,3.637,1.778,3.707
		c-0.019,0.011-1.52-3.762-1.54-3.757c-0.021,0.005,0.314,4.051,0.293,4.05c-0.142-0.008,0.083-4.103-0.059-4.111
		s-0.367,4.088-0.509,4.08c-0.021-0.001,0.755-3.986,0.735-3.993c-0.02-0.007-1.926,3.578-1.943,3.565
		c-0.115-0.083,2.288-3.407,2.173-3.49c-0.115-0.083-2.519,3.24-2.634,3.157c-0.017-0.013,2.79-2.945,2.777-2.962
		c-0.013-0.017-3.554,1.969-3.562,1.949c-0.052-0.132,3.767-1.629,3.715-1.761c-0.052-0.132-3.871,1.364-3.922,1.232
		c-0.008-0.02,3.94-0.969,3.938-0.99c-0.002-0.021-4.054-0.265-4.05-0.286c0.028-0.139,4.05,0.666,4.077,0.527
		c0.028-0.139-3.994-0.945-3.966-1.084c0.004-0.021,3.838,1.315,3.848,1.296s-3.267-2.415-3.253-2.43
		c0.099-0.102,3.046,2.75,3.145,2.648c0.099-0.102-2.849-2.954-2.75-3.056c0.015-0.015,2.518,3.181,2.536,3.171
		s-1.443-3.798-1.422-3.803c0.138-0.032,1.076,3.96,1.214,3.928c0.138-0.032-0.8-4.025-0.661-4.058
		c0.021-0.005,0.399,4.037,0.42,4.039s0.84-3.975,0.86-3.968c0.134,0.047-1.236,3.914-1.102,3.961
		c0.134,0.047,1.504-3.819,1.637-3.771c0.02,0.007-1.848,3.612-1.83,3.624s2.856-2.89,2.869-2.874
		c0.087,0.112-3.155,2.624-3.069,2.736c0.087,0.112,3.329-2.4,3.416-2.287c0.013,0.017-3.507,2.04-3.499,2.059
		c0.008,0.02,3.965-0.888,3.967-0.866c0.012,0.141-4.073,0.502-4.061,0.643c0.012,0.141,4.098-0.219,4.111-0.077
		c0.002,0.021-4.053-0.18-4.057-0.159c-0.004,0.021,3.815,1.397,3.806,1.416c-0.066,0.126-3.698-1.78-3.764-1.654
		c-0.066,0.126,3.566,2.032,3.5,2.158c-0.01,0.019-3.312-2.343-3.327-2.328C78.826,49.174,81.295,52.397,81.276,52.407z"/>
</g>
<g id="dot_fuzzies">
	<circle class="st11" cx="28.578" cy="13.021" r="0.756"/>
	<circle class="st11" cx="31.025" cy="16.028" r="0.756"/>
	<circle class="st11" cx="33.094" cy="12.911" r="0.756"/>
	<circle class="st11" cx="35.92" cy="15.03" r="0.756"/>
	<circle class="st11" cx="36.046" cy="10.863" r="0.756"/>
	<circle class="st11" cx="30.917" cy="10.485" r="0.756"/>
	<circle class="st11" cx="33.373" cy="8.212" r="0.756"/>
	<circle class="st11" cx="40.715" cy="2.094" r="0.756"/>
	<circle class="st11" cx="44.385" cy="0.87" r="0.756"/>
	<circle class="st11" cx="48.41" cy="3.317" r="0.756"/>
	<circle class="st11" cx="43.162" cy="5.297" r="0.756"/>
	<circle class="st11" cx="39.491" cy="8.394" r="0.756"/>
	<circle class="st11" cx="43.162" cy="10.659" r="0.756"/>
	<circle class="st11" cx="46.365" cy="7.455" r="0.756"/>
	<circle class="st11" cx="49.28" cy="10.659" r="0.756"/>
	<circle class="st11" cx="54.174" cy="11.882" r="0.756"/>
	<circle class="st11" cx="54.174" cy="15.553" r="0.756"/>
	<circle class="st11" cx="57.845" cy="15.553" r="0.756"/>
	<circle class="st11" cx="56.621" cy="13.021" r="0.756"/>
	<circle class="st11" cx="55.398" cy="19.139" r="0.756"/>
	<circle class="st11" cx="51.317" cy="16.028" r="0.756"/>
	<circle class="st11" cx="45.609" cy="14.329" r="0.756"/>
	<circle class="st11" cx="40.293" cy="13.862" r="0.756"/>
	<circle class="st11" cx="33.851" cy="17.915" r="0.756"/>
	<circle class="st11" cx="29.513" cy="7.638" r="0.756"/>
	<circle class="st11" cx="17.452" cy="31.431" r="0.59"/>
	<circle class="st11" cx="16.862" cy="33.967" r="0.491"/>
	<circle class="st11" cx="20.387" cy="31.612" r="0.469"/>
	<circle class="st11" cx="20.76" cy="33.967" r="0.564"/>
	<circle class="st11" cx="20.141" cy="37.185" r="0.51"/>
	<circle class="st11" cx="17.169" cy="37.212" r="0.538"/>
	<circle class="st11" cx="18.697" cy="35.185" r="0.538"/>
</g>
<g id="Layer_1">
	<path id="planter_2_" class="st12" d="M83.718,158.519c-6.6,5.75-15.71,9.32-25.72,9.32h-13.26c-1.72,0-3.41-0.1-5.07-0.31
		c-8-0.98-15.18-4.25-20.66-9.01c-8.28-7.22-11.6-18.61-9.06-29.29l10.15-42.76c0-1.99,1.63-3.62,3.62-3.62h55.3
		c1.99,0,3.62,1.63,3.62,3.62l10.15,42.76C95.318,139.909,91.998,151.299,83.718,158.519z"/>
	<linearGradient id="shadow_1_" gradientUnits="userSpaceOnUse" x1="11.2157" y1="121.3148" x2="46.4653" y2="127.2654">
		<stop  offset="0.2316" style="stop-color:#2D1E26"/>
		<stop  offset="0.2728" style="stop-color:#35232D"/>
		<stop  offset="0.4753" style="stop-color:#5A3B4C"/>
	</linearGradient>
	<path id="shadow_2_" class="st13" d="M39.668,167.529c-8-0.98-15.18-4.25-20.66-9.01c-8.28-7.22-11.6-18.61-9.06-29.29l10.15-42.76
		c0-1.99,1.63-3.62,3.62-3.62c0,0,5.2,0,5.2,0c-1.61,7.324-2.847,14.733-3.66,22.188c-0.696,6.375-1.085,12.787-1.092,19.2
		c-0.009,8.637,0.359,17.806,2.855,26.135c2.016,6.727,6.635,11.859,11.806,16.426C39.106,167.044,39.386,167.288,39.668,167.529z"
		/>
	<path class="st14" d="M79.502,117.791c0.061,0.39,0.126,0.779,0.212,1.166c0.165,0.739,0.328,1.478,0.489,2.218
		c0.369,1.697,0.776,3.394,0.985,5.107c0.044,0.359,0.075,0.719,0.202,1.069c0.027,0.075,0.059,0.159,0.144,0.21
		c0.164,0.099,0.431,0.078,0.626,0.075c0.282-0.004,0.564-0.014,0.845-0.03c0.505-0.028,1.085-0.041,1.571-0.152
		c0.374-0.085,0.228-0.4,0.196-0.617c-0.039-0.283-0.093-0.565-0.147-0.847c-0.056-0.295-0.115-0.589-0.176-0.883
		c-0.07-0.337-0.142-0.674-0.216-1.011c-0.08-0.364-0.161-0.727-0.243-1.09c-0.085-0.373-0.171-0.746-0.259-1.119
		c-0.086-0.366-0.173-0.732-0.262-1.098c-0.083-0.343-0.167-0.685-0.252-1.028c-0.076-0.303-0.152-0.605-0.231-0.907
		c-0.017-0.065-0.156-0.645-0.347-1.322c-0.134-0.476-0.169-0.561-0.297-0.63c-0.14-0.075-0.299-0.037-0.453-0.014
		c-0.255,0.037-0.514,0.063-0.77,0.097c-0.288,0.038-0.575,0.082-0.857,0.137c-0.152,0.03-0.303,0.062-0.452,0.099
		c-0.087,0.021-0.289,0.044-0.35,0.099c-0.025,0.023-0.022,0.055-0.018,0.084C79.462,117.532,79.482,117.662,79.502,117.791z"/>
	<path id="highlight_3_" class="st14" d="M82.126,131.101c0.012-0.118,0.044-0.23,0.126-0.312c0.085-0.084,0.207-0.116,0.323-0.144
		c0.834-0.2,1.678-0.359,2.527-0.477c0.095-0.013,0.206-0.021,0.272,0.048c0.051,0.053,0.057,0.132,0.061,0.205
		c0.197,3.701,0.274,7.406,0.15,11.111c-0.101,3.006,0.043,6.045-1.196,8.844c-1.159,2.62-2.793,5.03-4.803,7.072
		c-1.458,1.481-2.96,1.701-4.931,2.054c-0.103,0.018-0.168-0.103-0.095-0.178c2.395-2.469,4.701-5.145,6.013-8.366
		c1.435-3.522,1.393-7.778,1.497-11.549c0.075-2.707,0.054-5.416,0.049-8.124C82.119,131.226,82.119,131.163,82.126,131.101z"/>
	<g>
	</g>
	<g>
	</g>
	<g>
	</g>
	<g>
	</g>
	<g>
	</g>
</g>
</svg>
