<?xml version="1.0" encoding="utf-8"?>
<!-- Generator: Adobe Illustrator 25.0.0, SVG Export Plug-In . SVG Version: 6.00 Build 0)  -->
<svg version="1.1" xmlns="http://www.w3.org/2000/svg" xmlns:xlink="http://www.w3.org/1999/xlink" x="0px" y="0px"
	 viewBox="0 0 90.36 158.595" style="enable-background:new 0 0 90.36 158.595;" xml:space="preserve">
<style type="text/css">
	.st0{fill:url(#SVGID_1_);}
	.st1{fill:url(#SVGID_2_);}
	.st2{fill:url(#SVGID_3_);}
	.st3{fill:url(#big_dude_1_);}
	.st4{fill:url(#SVGID_4_);}
	.st5{fill:url(#SVGID_5_);}
	.st6{fill:url(#SVGID_6_);}
	.st7{fill:url(#SVGID_7_);}
	.st8{fill:url(#SVGID_8_);}
	.st9{fill:url(#SVGID_9_);}
	.st10{fill:#F2FCF4;}
	.st11{fill:#B47697;}
	.st12{opacity:0.14;fill:url(#shadow_1_);}
	.st13{opacity:0.82;fill:#E1C8D5;}
</style>
<g id="third_dude">
	
		<linearGradient id="SVGID_1_" gradientUnits="userSpaceOnUse" x1="81.6171" y1="41.7365" x2="74.2294" y2="74.0061" gradientTransform="matrix(1.1396 0.4011 -0.3075 0.9527 -6.4855 -54.1498)">
		<stop  offset="0.1914" style="stop-color:#4FB968"/>
		<stop  offset="0.8779" style="stop-color:#8CCC3E"/>
	</linearGradient>
	<path class="st0" d="M76.036,41.605c-4.308,4.648-11.619,6.481-17.419,9.517c-1.062,0.428-2.385-0.124-2.828-1.181
		c-1.92-6.257-5.759-12.744-5.484-19.076c0.209-4.804,2.47-9.267,6.26-12.369c7.214-5.905,22.996,0.781,23.862,9.959
		C80.887,33.332,79.304,38.079,76.036,41.605z"/>
	
		<linearGradient id="SVGID_2_" gradientUnits="userSpaceOnUse" x1="122.8053" y1="54.342" x2="115.4637" y2="86.4104" gradientTransform="matrix(0.4094 0.035 -0.0576 0.5024 24.1472 -31.6689)">
		<stop  offset="0.1914" style="stop-color:#4FB968"/>
		<stop  offset="0.8779" style="stop-color:#8CCC3E"/>
	</linearGradient>
	<path class="st1" d="M73.289,10.829c-1.195,3.805-3.314,6.887-4.636,6.991c-0.369,0.029-0.824,0.005-0.824,0.005
		c0,0-0.931-0.049-1.68-0.294c-1.441-0.471-2.295-4.942-2.188-8.303c0.121-3.812,0.665-5.316,1.523-6.838
		c2.171-3.852,7.898-2.822,8.651,1.485C74.43,5.566,74.436,7.178,73.289,10.829z"/>
	
		<linearGradient id="SVGID_3_" gradientUnits="userSpaceOnUse" x1="158.1108" y1="77.9808" x2="150.7692" y2="110.0493" gradientTransform="matrix(0.3037 0.2768 -0.3513 0.3638 69.3272 -62.0542)">
		<stop  offset="0.1914" style="stop-color:#4FB968"/>
		<stop  offset="0.8779" style="stop-color:#8CCC3E"/>
	</linearGradient>
	<path class="st2" d="M84.911,19.938c-3.262,2.294-6.82,3.452-7.932,2.73c-0.31-0.201-0.657-0.498-0.657-0.498
		s-0.709-0.605-1.154-1.255c-0.857-1.25,1.184-5.319,3.313-7.922c2.415-2.952,3.761-3.815,5.368-4.502
		c4.066-1.738,7.986,2.563,5.964,6.44C89.018,16.454,88.042,17.737,84.911,19.938z"/>
</g>
<g id="Layer_6">
	
		<linearGradient id="big_dude_1_" gradientUnits="userSpaceOnUse" x1="33.7926" y1="38.7257" x2="23.1109" y2="85.3836" gradientTransform="matrix(1.5421 -0.0399 0.0876 0.9994 -7.6441 0.3733)">
		<stop  offset="0.1914" style="stop-color:#4FB968"/>
		<stop  offset="0.8779" style="stop-color:#8CCC3E"/>
	</linearGradient>
	<path id="big_dude" class="st3" d="M67.846,67.833C63.65,76.357,52.369,82.665,44.507,89.8c-1.528,1.135-4.176,1.085-5.661-0.107
		c-7.588-7.423-18.624-14.149-22.499-22.824c-2.94-6.582-2.126-13.783,2.245-19.952c8.319-11.744,39.973-11.018,47.758,0.894
		C70.486,54.139,71.03,61.366,67.846,67.833z"/>
</g>
<g id="first_dude">
	
		<linearGradient id="SVGID_4_" gradientUnits="userSpaceOnUse" x1="16.2309" y1="22.876" x2="8.8432" y2="55.1456" gradientTransform="matrix(0.4736 -0.4787 0.4795 0.4748 -11.1343 22.4548)">
		<stop  offset="0.1914" style="stop-color:#4FB968"/>
		<stop  offset="0.8779" style="stop-color:#8CCC3E"/>
	</linearGradient>
	<path class="st4" d="M21.339,31.867c1.739,3.817,1.222,8.324,1.718,12.414c0.018,0.708-0.582,1.235-1.282,1.128
		c-3.993-1.012-8.529-1.072-12.094-3.282c-2.705-1.676-4.776-4.339-5.74-7.376c-1.836-5.781,5.371-12.041,10.811-9.514
		C17.641,26.579,20.02,28.971,21.339,31.867z"/>
	
		<linearGradient id="SVGID_5_" gradientUnits="userSpaceOnUse" x1="25.3101" y1="12.77" x2="22.6993" y2="24.174" gradientTransform="matrix(0.6434 -0.1988 0.199 0.6448 -8.7438 14.4568)">
		<stop  offset="0.1914" style="stop-color:#4FB968"/>
		<stop  offset="0.8779" style="stop-color:#8CCC3E"/>
	</linearGradient>
	<path class="st5" d="M13.343,21.93c0,0,0.035,1.652-1.346,3.976c-0.074,0.124-0.212,0.333-0.443,0.387
		c-0.211,0.049-0.408-0.052-0.534-0.128c-2.264-1.372-3.019-2.979-3.019-2.979c-0.514-1.095-0.77-2.125-0.56-3.255
		c0.391-2.107,3.68-2.857,4.954-1.164C13.088,19.686,13.318,20.729,13.343,21.93z"/>
</g>
<g id="middle_dude">
	
		<linearGradient id="SVGID_6_" gradientUnits="userSpaceOnUse" x1="82.5721" y1="9.5582" x2="79.8575" y2="21.4154" gradientTransform="matrix(0.5896 0.3252 -0.3261 0.5908 3.3479 -22.2035)">
		<stop  offset="0.1914" style="stop-color:#4FB968"/>
		<stop  offset="0.8779" style="stop-color:#8CCC3E"/>
	</linearGradient>
	<path class="st6" d="M48.075,15.823c0,0-1.211,1.219-3.948,1.862c-0.146,0.034-0.402,0.081-0.609-0.053
		c-0.189-0.122-0.256-0.343-0.289-0.493c-0.606-2.685,0.052-4.41,0.052-4.41c0.448-1.175,1.036-2.11,2.033-2.768
		c1.86-1.228,4.795,0.693,4.446,2.869C49.57,14.012,48.955,14.937,48.075,15.823z"/>
	
		<linearGradient id="SVGID_7_" gradientUnits="userSpaceOnUse" x1="68.6245" y1="-1.0752" x2="64.2563" y2="18.005" gradientTransform="matrix(0.6713 0.0526 -0.0529 0.6727 -6.8314 -2.775)">
		<stop  offset="0.1914" style="stop-color:#4FB968"/>
		<stop  offset="0.8779" style="stop-color:#8CCC3E"/>
	</linearGradient>
	<path class="st7" d="M41.731,8.766c0,0-0.965,2.591-4.547,5.352c-0.192,0.148-0.536,0.386-0.928,0.328
		c-0.358-0.054-0.603-0.333-0.752-0.53c-2.674-3.532-2.856-6.497-2.856-6.497c-0.124-2.019,0.115-3.78,1.139-5.408
		c1.909-3.036,7.487-2.172,8.423,1.249C42.719,5.119,42.432,6.883,41.731,8.766z"/>
	
		<linearGradient id="SVGID_8_" gradientUnits="userSpaceOnUse" x1="55.6529" y1="2.9052" x2="52.3816" y2="17.1942" gradientTransform="matrix(0.6434 -0.1988 0.199 0.6448 -8.7438 14.4568)">
		<stop  offset="0.1914" style="stop-color:#4FB968"/>
		<stop  offset="0.8779" style="stop-color:#8CCC3E"/>
	</linearGradient>
	<path class="st8" d="M31.727,10.618c0,0,0.044,2.07-1.686,4.982c-0.093,0.156-0.266,0.417-0.555,0.484
		c-0.264,0.062-0.511-0.065-0.669-0.161c-2.837-1.72-3.783-3.733-3.783-3.733c-0.644-1.371-0.964-2.663-0.702-4.079
		c0.49-2.641,4.611-3.58,6.208-1.458C31.407,7.807,31.695,9.113,31.727,10.618z"/>
	
		<linearGradient id="SVGID_9_" gradientUnits="userSpaceOnUse" x1="45.5112" y1="34.897" x2="38.2785" y2="66.4895" gradientTransform="matrix(0.8911 -0.1346 0.1328 0.8009 -8.7659 -8.7752)">
		<stop  offset="0.1914" style="stop-color:#4FB968"/>
		<stop  offset="0.8779" style="stop-color:#8CCC3E"/>
	</linearGradient>
	<path class="st9" d="M46.182,28.926c-0.375,3.208-1.145,9.797-6.227,12.302c-0.384,0.189-3.457,1.647-6.859,0.528
		c-4.974-1.637-6.622-7.457-7.626-11.004c-1.138-4.02-1.62-7.636-0.233-11.241c2.67-6.937,15.408-7.986,19.208-1.693
		C46.534,21.278,46.623,25.151,46.182,28.926z"/>
</g>
<g id="big_fuzzies">
	<g>
		<path class="st10" d="M25.215,54.2c-0.241,0.137-4.19-6.82-4.431-6.684c-0.241,0.137,3.708,7.094,3.468,7.231
			c-0.036,0.021-2.964-7.337-3.005-7.327c-0.04,0.009,0.613,7.901,0.572,7.899c-0.277-0.015,0.162-8.003-0.114-8.018
			c-0.277-0.015-0.716,7.973-0.992,7.958c-0.042-0.002,1.473-7.775,1.434-7.789c-0.039-0.014-3.756,6.978-3.79,6.954
			c-0.224-0.162,4.463-6.645,4.239-6.807s-4.912,6.32-5.137,6.158c-0.034-0.024,5.442-5.744,5.417-5.777
			c-0.025-0.033-6.932,3.84-6.948,3.801c-0.101-0.258,7.347-3.177,7.246-3.435c-0.101-0.258-7.55,2.661-7.651,2.403
			c-0.015-0.039,7.684-1.89,7.68-1.931c-0.004-0.041-7.908-0.517-7.9-0.558c0.054-0.272,7.899,1.3,7.953,1.028
			c0.054-0.272-7.79-1.843-7.735-2.115c0.008-0.041,7.486,2.564,7.505,2.528c0.019-0.037-6.373-4.711-6.344-4.741
			c0.193-0.199,5.942,5.364,6.135,5.165c0.193-0.199-5.557-5.762-5.364-5.961c0.029-0.03,4.911,6.205,4.947,6.184
			c0.036-0.02-2.815-7.408-2.774-7.418c0.27-0.063,2.099,7.725,2.369,7.661c0.27-0.063-1.56-7.851-1.29-7.915
			c0.041-0.01,0.777,7.875,0.819,7.877c0.041,0.002,1.638-7.754,1.677-7.74c0.261,0.093-2.411,7.633-2.149,7.726
			c0.261,0.093,2.933-7.448,3.194-7.356c0.039,0.014-3.604,7.045-3.57,7.069c0.033,0.024,5.57-5.638,5.595-5.605
			c0.17,0.219-6.155,5.118-5.985,5.337s6.494-4.68,6.664-4.461c0.026,0.033-6.84,3.978-6.825,4.017
			c0.015,0.038,7.733-1.732,7.737-1.69c0.024,0.276-7.945,0.978-7.92,1.254s7.993-0.426,8.018-0.15
			c0.004,0.042-7.905-0.351-7.913-0.311c-0.008,0.04,7.442,2.724,7.423,2.761c-0.129,0.245-7.212-3.472-7.341-3.227
			c-0.129,0.245,6.955,3.963,6.826,4.208c-0.019,0.037-6.46-4.57-6.489-4.54C20.435,47.894,25.251,54.18,25.215,54.2z"/>
	</g>
	<g>
		<path class="st10" d="M25.215,70.2c-0.241,0.137-4.19-6.82-4.431-6.684c-0.241,0.137,3.708,7.094,3.468,7.231
			c-0.036,0.021-2.964-7.337-3.005-7.327c-0.04,0.009,0.613,7.901,0.572,7.899c-0.277-0.015,0.162-8.003-0.114-8.018
			c-0.277-0.015-0.716,7.973-0.992,7.958c-0.042-0.002,1.473-7.775,1.434-7.789c-0.039-0.014-3.756,6.978-3.79,6.954
			c-0.224-0.162,4.463-6.645,4.239-6.807s-4.912,6.32-5.137,6.158c-0.034-0.024,5.442-5.744,5.417-5.777
			c-0.025-0.033-6.932,3.84-6.948,3.801c-0.101-0.258,7.347-3.177,7.246-3.435c-0.101-0.258-7.55,2.661-7.651,2.403
			c-0.015-0.039,7.684-1.89,7.68-1.931c-0.004-0.041-7.908-0.517-7.9-0.558c0.054-0.272,7.899,1.3,7.953,1.028
			c0.054-0.272-7.79-1.843-7.735-2.115c0.008-0.041,7.486,2.564,7.505,2.528c0.019-0.037-6.373-4.711-6.344-4.741
			c0.193-0.199,5.942,5.364,6.135,5.165c0.193-0.199-5.557-5.762-5.364-5.961c0.029-0.03,4.911,6.205,4.947,6.184
			c0.036-0.02-2.815-7.408-2.774-7.418c0.27-0.063,2.099,7.725,2.369,7.661c0.27-0.063-1.56-7.851-1.29-7.915
			c0.041-0.01,0.777,7.875,0.819,7.877c0.041,0.002,1.638-7.754,1.677-7.74c0.261,0.093-2.411,7.633-2.149,7.726
			c0.261,0.093,2.933-7.448,3.194-7.356c0.039,0.014-3.604,7.045-3.57,7.069c0.033,0.024,5.57-5.638,5.595-5.605
			c0.17,0.219-6.155,5.118-5.985,5.337s6.494-4.68,6.664-4.461c0.026,0.033-6.84,3.978-6.825,4.017s7.733-1.732,7.737-1.69
			c0.024,0.276-7.945,0.978-7.92,1.254c0.024,0.276,7.993-0.426,8.018-0.15c0.004,0.042-7.905-0.351-7.913-0.311
			c-0.008,0.04,7.442,2.724,7.423,2.761c-0.129,0.245-7.212-3.472-7.341-3.227c-0.129,0.245,6.955,3.963,6.826,4.208
			c-0.019,0.037-6.46-4.57-6.489-4.54C20.435,63.894,25.251,70.18,25.215,70.2z"/>
	</g>
	<g>
		<path class="st10" d="M38.215,47.2c-0.241,0.137-4.19-6.82-4.431-6.684c-0.241,0.137,3.708,7.094,3.468,7.231
			c-0.036,0.021-2.964-7.337-3.005-7.327c-0.04,0.009,0.613,7.901,0.572,7.899c-0.277-0.015,0.162-8.003-0.114-8.018
			c-0.277-0.015-0.716,7.973-0.992,7.958c-0.042-0.002,1.473-7.775,1.434-7.789c-0.039-0.014-3.756,6.978-3.79,6.954
			c-0.224-0.162,4.463-6.645,4.239-6.807s-4.912,6.32-5.137,6.158c-0.034-0.024,5.442-5.744,5.417-5.777
			c-0.025-0.033-6.932,3.84-6.948,3.801c-0.101-0.258,7.347-3.177,7.246-3.435c-0.101-0.258-7.55,2.661-7.651,2.403
			c-0.015-0.039,7.684-1.89,7.68-1.931c-0.004-0.041-7.908-0.517-7.9-0.558c0.054-0.272,7.899,1.3,7.953,1.028
			c0.054-0.272-7.79-1.843-7.735-2.115c0.008-0.041,7.486,2.564,7.505,2.528c0.019-0.037-6.373-4.711-6.344-4.741
			c0.193-0.199,5.942,5.364,6.135,5.165s-5.557-5.762-5.364-5.961c0.029-0.03,4.911,6.205,4.947,6.184
			c0.036-0.02-2.815-7.408-2.774-7.418c0.27-0.063,2.099,7.725,2.369,7.661c0.27-0.063-1.56-7.851-1.29-7.915
			c0.041-0.01,0.777,7.875,0.819,7.877c0.041,0.002,1.638-7.754,1.677-7.74c0.261,0.093-2.411,7.633-2.149,7.726
			s2.933-7.448,3.194-7.356c0.039,0.014-3.604,7.045-3.57,7.069c0.033,0.024,5.57-5.638,5.595-5.605
			c0.17,0.219-6.155,5.118-5.985,5.337s6.494-4.68,6.664-4.461c0.026,0.033-6.84,3.978-6.825,4.017
			c0.015,0.038,7.733-1.732,7.737-1.69c0.024,0.276-7.945,0.978-7.92,1.254c0.024,0.276,7.993-0.426,8.018-0.15
			c0.004,0.042-7.905-0.351-7.913-0.311c-0.008,0.04,7.442,2.724,7.423,2.761c-0.129,0.245-7.212-3.472-7.341-3.227
			c-0.129,0.245,6.955,3.963,6.826,4.208c-0.019,0.037-6.46-4.57-6.489-4.54C33.435,40.894,38.251,47.18,38.215,47.2z"/>
	</g>
	<g>
		<path class="st10" d="M40.609,61.599c-0.241,0.137-4.19-6.82-4.431-6.684s3.708,7.094,3.468,7.231
			c-0.036,0.021-2.964-7.337-3.005-7.327c-0.04,0.009,0.613,7.901,0.572,7.899c-0.277-0.015,0.162-8.003-0.114-8.018
			s-0.716,7.973-0.992,7.958c-0.042-0.002,1.473-7.775,1.434-7.789c-0.039-0.014-3.756,6.978-3.79,6.954
			c-0.224-0.162,4.463-6.645,4.239-6.807c-0.224-0.162-4.912,6.32-5.137,6.158c-0.034-0.024,5.442-5.744,5.417-5.777
			c-0.025-0.033-6.932,3.84-6.948,3.801c-0.101-0.258,7.347-3.177,7.246-3.435c-0.101-0.258-7.55,2.661-7.651,2.403
			c-0.015-0.039,7.684-1.89,7.68-1.931c-0.004-0.041-7.908-0.517-7.9-0.558c0.054-0.272,7.899,1.3,7.953,1.028
			s-7.79-1.843-7.735-2.115c0.008-0.041,7.486,2.564,7.505,2.528c0.019-0.037-6.373-4.711-6.344-4.741
			c0.193-0.199,5.942,5.364,6.135,5.165c0.193-0.199-5.557-5.762-5.364-5.961c0.029-0.03,4.911,6.205,4.947,6.184
			c0.036-0.02-2.815-7.408-2.774-7.418c0.27-0.063,2.099,7.725,2.369,7.661c0.27-0.063-1.56-7.851-1.29-7.915
			c0.041-0.01,0.777,7.875,0.819,7.877c0.041,0.002,1.638-7.754,1.677-7.74c0.261,0.093-2.411,7.633-2.149,7.726
			s2.933-7.448,3.194-7.356c0.039,0.014-3.604,7.045-3.57,7.069c0.033,0.024,5.57-5.638,5.595-5.605
			c0.17,0.219-6.155,5.118-5.985,5.337c0.17,0.219,6.494-4.68,6.664-4.461c0.026,0.033-6.84,3.978-6.825,4.017
			c0.015,0.038,7.733-1.732,7.737-1.69c0.024,0.276-7.945,0.978-7.92,1.254c0.024,0.276,7.993-0.426,8.018-0.15
			c0.004,0.042-7.905-0.351-7.913-0.311c-0.008,0.04,7.442,2.724,7.423,2.761c-0.129,0.245-7.212-3.472-7.341-3.227
			c-0.129,0.245,6.955,3.963,6.826,4.208c-0.019,0.037-6.46-4.57-6.489-4.54S40.645,61.579,40.609,61.599z"/>
	</g>
	<g>
		<path class="st10" d="M54.609,69.599c-0.241,0.137-4.19-6.82-4.431-6.684s3.708,7.094,3.468,7.231
			c-0.036,0.021-2.964-7.337-3.005-7.327c-0.04,0.009,0.613,7.901,0.572,7.899c-0.277-0.015,0.162-8.003-0.114-8.018
			s-0.716,7.973-0.992,7.958c-0.042-0.002,1.473-7.775,1.434-7.789c-0.039-0.014-3.756,6.978-3.79,6.954
			c-0.224-0.162,4.463-6.645,4.239-6.807c-0.224-0.162-4.912,6.32-5.137,6.158c-0.034-0.024,5.442-5.744,5.417-5.777
			c-0.025-0.033-6.932,3.84-6.948,3.801c-0.101-0.258,7.347-3.177,7.246-3.435c-0.101-0.258-7.55,2.661-7.651,2.403
			c-0.015-0.039,7.684-1.89,7.68-1.931c-0.004-0.041-7.908-0.517-7.9-0.558c0.054-0.272,7.899,1.3,7.953,1.028
			s-7.79-1.843-7.735-2.115c0.008-0.041,7.486,2.564,7.505,2.528c0.019-0.037-6.373-4.711-6.344-4.741
			c0.193-0.199,5.942,5.364,6.135,5.165s-5.557-5.762-5.364-5.961c0.029-0.03,4.911,6.205,4.947,6.184
			c0.036-0.02-2.815-7.408-2.774-7.418c0.27-0.063,2.099,7.725,2.369,7.661c0.27-0.063-1.56-7.851-1.29-7.915
			c0.041-0.01,0.777,7.875,0.819,7.877c0.041,0.002,1.638-7.754,1.677-7.74c0.261,0.093-2.411,7.633-2.149,7.726
			c0.261,0.093,2.933-7.448,3.194-7.356c0.039,0.014-3.604,7.045-3.57,7.069c0.033,0.024,5.57-5.638,5.595-5.605
			c0.17,0.219-6.155,5.118-5.985,5.337c0.17,0.219,6.494-4.68,6.664-4.461c0.026,0.033-6.84,3.978-6.825,4.017
			c0.015,0.038,7.733-1.732,7.737-1.69c0.024,0.276-7.945,0.978-7.92,1.254c0.024,0.276,7.993-0.426,8.018-0.15
			c0.004,0.042-7.905-0.351-7.913-0.311c-0.008,0.04,7.442,2.724,7.423,2.761c-0.129,0.245-7.212-3.472-7.341-3.227
			c-0.129,0.245,6.955,3.963,6.826,4.208c-0.019,0.037-6.46-4.57-6.489-4.54S54.645,69.579,54.609,69.599z"/>
	</g>
	<g>
		<path class="st10" d="M68.609,76.599c-0.241,0.137-4.19-6.82-4.431-6.684c-0.241,0.137,3.708,7.094,3.468,7.231
			c-0.036,0.021-2.964-7.337-3.005-7.327s0.613,7.901,0.572,7.899c-0.277-0.015,0.162-8.003-0.114-8.018
			c-0.277-0.015-0.716,7.973-0.992,7.958c-0.042-0.002,1.473-7.775,1.434-7.789c-0.039-0.014-3.756,6.978-3.79,6.954
			c-0.224-0.162,4.463-6.645,4.239-6.807c-0.224-0.162-4.912,6.32-5.137,6.158c-0.034-0.024,5.442-5.744,5.417-5.777
			c-0.025-0.033-6.932,3.84-6.948,3.801c-0.101-0.258,7.347-3.177,7.246-3.435c-0.101-0.258-7.55,2.661-7.651,2.403
			c-0.015-0.039,7.684-1.89,7.68-1.931c-0.004-0.041-7.908-0.517-7.9-0.558c0.054-0.272,7.899,1.3,7.953,1.028
			c0.054-0.272-7.79-1.843-7.735-2.115c0.008-0.041,7.486,2.564,7.505,2.528c0.019-0.037-6.373-4.711-6.344-4.741
			c0.193-0.199,5.942,5.364,6.135,5.165s-5.557-5.762-5.364-5.961c0.029-0.03,4.911,6.205,4.947,6.184
			c0.036-0.02-2.815-7.408-2.774-7.418c0.27-0.063,2.099,7.725,2.369,7.661c0.27-0.063-1.56-7.851-1.29-7.915
			c0.041-0.01,0.777,7.875,0.819,7.877c0.041,0.002,1.638-7.754,1.677-7.74c0.261,0.093-2.411,7.633-2.149,7.726
			c0.261,0.093,2.933-7.448,3.194-7.356c0.039,0.014-3.604,7.045-3.57,7.069c0.033,0.024,5.57-5.638,5.595-5.605
			c0.17,0.219-6.155,5.118-5.985,5.337c0.17,0.219,6.494-4.68,6.664-4.461c0.026,0.033-6.84,3.978-6.825,4.017
			c0.015,0.038,7.733-1.732,7.737-1.69c0.024,0.276-7.945,0.978-7.92,1.254c0.024,0.276,7.993-0.426,8.018-0.15
			c0.004,0.042-7.905-0.351-7.913-0.311c-0.008,0.04,7.442,2.724,7.423,2.761c-0.129,0.245-7.212-3.472-7.341-3.227
			c-0.129,0.245,6.955,3.963,6.826,4.208c-0.019,0.037-6.46-4.57-6.489-4.54C63.829,70.293,68.645,76.579,68.609,76.599z"/>
	</g>
	<g>
		<path class="st10" d="M69.609,60.599c-0.241,0.137-4.19-6.82-4.431-6.684s3.708,7.094,3.468,7.231
			c-0.036,0.021-2.964-7.337-3.005-7.327c-0.04,0.009,0.613,7.901,0.572,7.899c-0.277-0.015,0.162-8.003-0.114-8.018
			s-0.716,7.973-0.992,7.958c-0.042-0.002,1.473-7.775,1.434-7.789c-0.039-0.014-3.756,6.978-3.79,6.954
			c-0.224-0.162,4.463-6.645,4.239-6.807c-0.224-0.162-4.912,6.32-5.137,6.158c-0.034-0.024,5.442-5.744,5.417-5.777
			c-0.025-0.033-6.932,3.84-6.948,3.801c-0.101-0.258,7.347-3.177,7.246-3.435c-0.101-0.258-7.55,2.661-7.651,2.403
			c-0.015-0.039,7.684-1.89,7.68-1.931c-0.004-0.041-7.908-0.517-7.9-0.558c0.054-0.272,7.899,1.3,7.953,1.028
			c0.054-0.272-7.79-1.843-7.735-2.115c0.008-0.041,7.486,2.564,7.505,2.528c0.019-0.037-6.373-4.711-6.344-4.741
			c0.193-0.199,5.942,5.364,6.135,5.165c0.193-0.199-5.557-5.762-5.364-5.961c0.029-0.03,4.911,6.205,4.947,6.184
			c0.036-0.02-2.815-7.408-2.774-7.418c0.27-0.063,2.099,7.725,2.369,7.661c0.27-0.063-1.56-7.851-1.29-7.915
			c0.041-0.01,0.777,7.875,0.819,7.877c0.041,0.002,1.638-7.754,1.677-7.74c0.261,0.093-2.411,7.633-2.149,7.726
			s2.933-7.448,3.194-7.356c0.039,0.014-3.604,7.045-3.57,7.069c0.033,0.024,5.57-5.638,5.595-5.605
			c0.17,0.219-6.155,5.118-5.985,5.337c0.17,0.219,6.494-4.68,6.664-4.461c0.026,0.033-6.84,3.978-6.825,4.017
			c0.015,0.038,7.733-1.732,7.737-1.69c0.024,0.276-7.945,0.978-7.92,1.254c0.024,0.276,7.993-0.426,8.018-0.15
			c0.004,0.042-7.905-0.351-7.913-0.311c-0.008,0.04,7.442,2.724,7.423,2.761c-0.129,0.245-7.212-3.472-7.341-3.227
			c-0.129,0.245,6.955,3.963,6.826,4.208c-0.019,0.037-6.46-4.57-6.489-4.54C64.829,54.293,69.645,60.579,69.609,60.599z"/>
	</g>
	<g>
		<path class="st10" d="M39.609,77.599c-0.241,0.137-4.19-6.82-4.431-6.684c-0.241,0.137,3.708,7.094,3.468,7.231
			c-0.036,0.021-2.964-7.337-3.005-7.327c-0.04,0.009,0.613,7.901,0.572,7.899c-0.277-0.015,0.162-8.003-0.114-8.018
			c-0.277-0.015-0.716,7.973-0.992,7.958c-0.042-0.002,1.473-7.775,1.434-7.789c-0.039-0.014-3.756,6.978-3.79,6.954
			c-0.224-0.162,4.463-6.645,4.239-6.807c-0.224-0.162-4.912,6.32-5.137,6.158c-0.034-0.024,5.442-5.744,5.417-5.777
			c-0.025-0.033-6.932,3.84-6.948,3.801c-0.101-0.258,7.347-3.177,7.246-3.435c-0.101-0.258-7.55,2.661-7.651,2.403
			c-0.015-0.039,7.684-1.89,7.68-1.931c-0.004-0.041-7.908-0.517-7.9-0.558c0.054-0.272,7.899,1.3,7.953,1.028
			s-7.79-1.843-7.735-2.115c0.008-0.041,7.486,2.564,7.505,2.528c0.019-0.037-6.373-4.711-6.344-4.741
			c0.193-0.199,5.942,5.364,6.135,5.165s-5.557-5.762-5.364-5.961c0.029-0.03,4.911,6.205,4.947,6.184
			c0.036-0.02-2.815-7.408-2.774-7.418c0.27-0.063,2.099,7.725,2.369,7.661c0.27-0.063-1.56-7.851-1.29-7.915
			c0.041-0.01,0.777,7.875,0.819,7.877c0.041,0.002,1.638-7.754,1.677-7.74c0.261,0.093-2.411,7.633-2.149,7.726
			c0.261,0.093,2.933-7.448,3.194-7.356c0.039,0.014-3.604,7.045-3.57,7.069c0.033,0.024,5.57-5.638,5.595-5.605
			c0.17,0.219-6.155,5.118-5.985,5.337c0.17,0.219,6.494-4.68,6.664-4.461c0.026,0.033-6.84,3.978-6.825,4.017
			c0.015,0.038,7.733-1.732,7.737-1.69c0.024,0.276-7.945,0.978-7.92,1.254c0.024,0.276,7.993-0.426,8.018-0.15
			c0.004,0.042-7.905-0.351-7.913-0.311c-0.008,0.04,7.442,2.724,7.423,2.761c-0.129,0.245-7.212-3.472-7.341-3.227
			c-0.129,0.245,6.955,3.963,6.826,4.208c-0.019,0.037-6.46-4.57-6.489-4.54C34.829,71.293,39.645,77.579,39.609,77.599z"/>
	</g>
	<g>
		<path class="st10" d="M55.215,50.2c-0.241,0.137-4.19-6.82-4.431-6.684c-0.241,0.137,3.708,7.094,3.468,7.231
			c-0.036,0.021-2.964-7.337-3.005-7.327c-0.04,0.009,0.613,7.901,0.572,7.899c-0.277-0.015,0.162-8.003-0.114-8.018
			c-0.277-0.015-0.716,7.973-0.992,7.958c-0.042-0.002,1.473-7.775,1.434-7.789c-0.039-0.014-3.756,6.978-3.79,6.954
			c-0.224-0.162,4.463-6.645,4.239-6.807s-4.912,6.32-5.137,6.158c-0.034-0.024,5.442-5.744,5.417-5.777
			c-0.025-0.033-6.932,3.84-6.948,3.801c-0.101-0.258,7.347-3.177,7.246-3.435c-0.101-0.258-7.55,2.661-7.651,2.403
			c-0.015-0.039,7.684-1.89,7.68-1.931c-0.004-0.041-7.908-0.517-7.9-0.558c0.054-0.272,7.899,1.3,7.953,1.028
			c0.054-0.272-7.79-1.843-7.735-2.115c0.008-0.041,7.486,2.564,7.505,2.528c0.019-0.037-6.373-4.711-6.344-4.741
			c0.193-0.199,5.942,5.364,6.135,5.165s-5.557-5.762-5.364-5.961c0.029-0.03,4.911,6.205,4.947,6.184
			c0.036-0.02-2.815-7.408-2.774-7.418c0.27-0.063,2.099,7.725,2.369,7.661c0.27-0.063-1.56-7.851-1.29-7.915
			c0.041-0.01,0.777,7.875,0.819,7.877c0.041,0.002,1.638-7.754,1.677-7.74c0.261,0.093-2.411,7.633-2.149,7.726
			s2.933-7.448,3.194-7.356c0.039,0.014-3.604,7.045-3.57,7.069c0.033,0.024,5.57-5.638,5.595-5.605
			c0.17,0.219-6.155,5.118-5.985,5.337s6.494-4.68,6.664-4.461c0.026,0.033-6.84,3.978-6.825,4.017
			c0.015,0.038,7.733-1.732,7.737-1.69c0.024,0.276-7.945,0.978-7.92,1.254c0.024,0.276,7.993-0.426,8.018-0.15
			c0.004,0.042-7.905-0.351-7.913-0.311c-0.008,0.04,7.442,2.724,7.423,2.761c-0.129,0.245-7.212-3.472-7.341-3.227
			c-0.129,0.245,6.955,3.963,6.826,4.208c-0.019,0.037-6.46-4.57-6.489-4.54C50.435,43.894,55.251,50.18,55.215,50.2z"/>
	</g>
</g>
<g id="little_fuzzies">
	<path class="st10" d="M29.694,31.57c-0.124,0.07-2.148-3.497-2.272-3.427c-0.124,0.07,1.901,3.637,1.778,3.707
		c-0.019,0.011-1.52-3.762-1.54-3.757s0.314,4.051,0.293,4.05c-0.142-0.008,0.083-4.103-0.059-4.111
		c-0.142-0.008-0.367,4.088-0.509,4.08c-0.021-0.001,0.755-3.986,0.735-3.993c-0.02-0.007-1.926,3.578-1.943,3.565
		c-0.115-0.083,2.288-3.407,2.173-3.49c-0.115-0.083-2.519,3.24-2.634,3.157c-0.017-0.013,2.79-2.945,2.777-2.962
		c-0.013-0.017-3.554,1.969-3.562,1.949c-0.052-0.132,3.767-1.629,3.715-1.761c-0.052-0.132-3.871,1.364-3.922,1.232
		c-0.008-0.02,3.94-0.969,3.938-0.99s-4.054-0.265-4.05-0.286c0.028-0.139,4.05,0.666,4.077,0.527
		c0.028-0.139-3.994-0.945-3.966-1.084c0.004-0.021,3.838,1.315,3.848,1.296c0.01-0.019-3.267-2.415-3.253-2.43
		c0.099-0.102,3.046,2.75,3.145,2.648c0.099-0.102-2.849-2.954-2.75-3.056c0.015-0.015,2.518,3.181,2.536,3.171
		c0.018-0.01-1.443-3.798-1.422-3.803c0.138-0.032,1.076,3.96,1.214,3.928c0.138-0.032-0.8-4.025-0.661-4.058
		c0.021-0.005,0.399,4.037,0.42,4.039c0.021,0.001,0.84-3.975,0.86-3.968c0.134,0.047-1.236,3.914-1.102,3.961
		c0.134,0.047,1.504-3.819,1.637-3.771c0.02,0.007-1.848,3.612-1.83,3.624c0.017,0.012,2.856-2.89,2.869-2.874
		c0.087,0.112-3.155,2.624-3.069,2.736c0.087,0.112,3.329-2.4,3.416-2.287c0.013,0.017-3.507,2.04-3.499,2.059
		c0.008,0.02,3.965-0.888,3.967-0.866c0.012,0.141-4.073,0.502-4.061,0.643c0.012,0.141,4.098-0.219,4.111-0.077
		c0.002,0.021-4.053-0.18-4.057-0.159c-0.004,0.021,3.815,1.397,3.806,1.416c-0.066,0.126-3.698-1.78-3.764-1.654
		c-0.066,0.126,3.566,2.032,3.5,2.158c-0.01,0.019-3.312-2.343-3.327-2.328C27.243,28.337,29.713,31.56,29.694,31.57z"/>
	<path class="st10" d="M27.125,23.767c-0.124,0.07-2.148-3.497-2.272-3.427c-0.124,0.07,1.901,3.637,1.778,3.707
		c-0.019,0.011-1.52-3.762-1.54-3.757c-0.021,0.005,0.314,4.051,0.293,4.05c-0.142-0.008,0.083-4.103-0.059-4.111
		c-0.142-0.008-0.367,4.088-0.509,4.08c-0.021-0.001,0.755-3.986,0.735-3.993c-0.02-0.007-1.926,3.578-1.943,3.565
		c-0.115-0.083,2.288-3.407,2.173-3.49c-0.115-0.083-2.519,3.24-2.634,3.157c-0.017-0.013,2.79-2.945,2.777-2.962
		c-0.013-0.017-3.554,1.969-3.562,1.949c-0.052-0.132,3.767-1.629,3.715-1.761c-0.052-0.132-3.871,1.364-3.922,1.232
		c-0.008-0.02,3.94-0.969,3.938-0.99c-0.002-0.021-4.054-0.265-4.05-0.286c0.028-0.139,4.05,0.666,4.077,0.527
		c0.028-0.139-3.994-0.945-3.966-1.084c0.004-0.021,3.838,1.315,3.848,1.296c0.01-0.019-3.267-2.415-3.253-2.43
		c0.099-0.102,3.046,2.75,3.145,2.648c0.099-0.102-2.849-2.954-2.75-3.056c0.015-0.015,2.518,3.181,2.536,3.171
		c0.018-0.01-1.443-3.798-1.422-3.803c0.138-0.032,1.076,3.96,1.214,3.928s-0.8-4.025-0.661-4.058
		c0.021-0.005,0.399,4.037,0.42,4.039c0.021,0.001,0.84-3.975,0.86-3.968c0.134,0.047-1.236,3.914-1.102,3.961
		c0.134,0.047,1.504-3.819,1.637-3.771c0.02,0.007-1.848,3.612-1.83,3.624c0.017,0.012,2.856-2.89,2.869-2.874
		c0.087,0.112-3.155,2.624-3.069,2.736c0.087,0.112,3.329-2.4,3.416-2.287c0.013,0.017-3.507,2.04-3.499,2.059
		c0.008,0.02,3.965-0.888,3.967-0.866c0.012,0.141-4.073,0.502-4.061,0.643c0.012,0.141,4.098-0.219,4.111-0.077
		c0.002,0.021-4.053-0.18-4.057-0.159c-0.004,0.021,3.815,1.397,3.806,1.416c-0.066,0.126-3.698-1.78-3.764-1.654
		s3.566,2.032,3.5,2.158c-0.01,0.019-3.312-2.343-3.327-2.328C24.674,20.534,27.143,23.757,27.125,23.767z"/>
	<path class="st10" d="M35.125,21.767c-0.124,0.07-2.148-3.497-2.272-3.427c-0.124,0.07,1.901,3.637,1.778,3.707
		c-0.019,0.011-1.52-3.762-1.54-3.757s0.314,4.051,0.293,4.05c-0.142-0.008,0.083-4.103-0.059-4.111
		c-0.142-0.008-0.367,4.088-0.509,4.08c-0.021-0.001,0.755-3.986,0.735-3.993c-0.02-0.007-1.926,3.578-1.943,3.565
		c-0.115-0.083,2.288-3.407,2.173-3.49c-0.115-0.083-2.519,3.24-2.634,3.157c-0.017-0.013,2.79-2.945,2.777-2.962
		c-0.013-0.017-3.554,1.969-3.562,1.949c-0.052-0.132,3.767-1.629,3.715-1.761c-0.052-0.132-3.871,1.364-3.922,1.232
		c-0.008-0.02,3.94-0.969,3.938-0.99s-4.054-0.265-4.05-0.286c0.028-0.139,4.05,0.666,4.077,0.527
		c0.028-0.139-3.994-0.945-3.966-1.084c0.004-0.021,3.838,1.315,3.848,1.296c0.01-0.019-3.267-2.415-3.253-2.43
		c0.099-0.102,3.046,2.75,3.145,2.648c0.099-0.102-2.849-2.954-2.75-3.056c0.015-0.015,2.518,3.181,2.536,3.171
		c0.018-0.01-1.443-3.798-1.422-3.803c0.138-0.032,1.076,3.96,1.214,3.928c0.138-0.032-0.8-4.025-0.661-4.058
		c0.021-0.005,0.399,4.037,0.42,4.039c0.021,0.001,0.84-3.975,0.86-3.968c0.134,0.047-1.236,3.914-1.102,3.961
		c0.134,0.047,1.504-3.819,1.637-3.771c0.02,0.007-1.848,3.612-1.83,3.624c0.017,0.012,2.856-2.89,2.869-2.874
		c0.087,0.112-3.155,2.624-3.069,2.736c0.087,0.112,3.329-2.4,3.416-2.287c0.013,0.017-3.507,2.04-3.499,2.059
		c0.008,0.02,3.965-0.888,3.967-0.866c0.012,0.141-4.073,0.502-4.061,0.643c0.012,0.141,4.098-0.219,4.111-0.077
		c0.002,0.021-4.053-0.18-4.057-0.159c-0.004,0.021,3.815,1.397,3.806,1.416c-0.066,0.126-3.698-1.78-3.764-1.654
		s3.566,2.032,3.5,2.158c-0.01,0.019-3.312-2.343-3.327-2.328C32.674,18.534,35.143,21.757,35.125,21.767z"/>
	<path class="st10" d="M44.125,19.767c-0.124,0.07-2.148-3.497-2.272-3.427c-0.124,0.07,1.901,3.637,1.778,3.707
		c-0.019,0.011-1.52-3.762-1.54-3.757s0.314,4.051,0.293,4.05c-0.142-0.008,0.083-4.103-0.059-4.111
		c-0.142-0.008-0.367,4.088-0.509,4.08c-0.021-0.001,0.755-3.986,0.735-3.993c-0.02-0.007-1.926,3.578-1.943,3.565
		c-0.115-0.083,2.288-3.407,2.173-3.49c-0.115-0.083-2.519,3.24-2.634,3.157c-0.017-0.013,2.79-2.945,2.777-2.962
		c-0.013-0.017-3.554,1.969-3.562,1.949c-0.052-0.132,3.767-1.629,3.715-1.761c-0.052-0.132-3.871,1.364-3.922,1.232
		c-0.008-0.02,3.94-0.969,3.938-0.99s-4.054-0.265-4.05-0.286c0.028-0.139,4.05,0.666,4.077,0.527
		c0.028-0.139-3.994-0.945-3.966-1.084c0.004-0.021,3.838,1.315,3.848,1.296c0.01-0.019-3.267-2.415-3.253-2.43
		c0.099-0.102,3.046,2.75,3.145,2.648c0.099-0.102-2.849-2.954-2.75-3.056c0.015-0.015,2.518,3.181,2.536,3.171
		c0.018-0.01-1.443-3.798-1.422-3.803c0.138-0.032,1.076,3.96,1.214,3.928c0.138-0.032-0.8-4.025-0.661-4.058
		c0.021-0.005,0.399,4.037,0.42,4.039c0.021,0.001,0.84-3.975,0.86-3.968c0.134,0.047-1.236,3.914-1.102,3.961
		c0.134,0.047,1.504-3.819,1.637-3.771c0.02,0.007-1.848,3.612-1.83,3.624c0.017,0.012,2.856-2.89,2.869-2.874
		c0.087,0.112-3.155,2.624-3.069,2.736c0.087,0.112,3.329-2.4,3.416-2.287c0.013,0.017-3.507,2.04-3.499,2.059
		c0.008,0.02,3.965-0.888,3.967-0.866c0.012,0.141-4.073,0.502-4.061,0.643c0.012,0.141,4.098-0.219,4.111-0.077
		c0.002,0.021-4.053-0.18-4.057-0.159c-0.004,0.021,3.815,1.397,3.806,1.416c-0.066,0.126-3.698-1.78-3.764-1.654
		s3.566,2.032,3.5,2.158c-0.01,0.019-3.312-2.343-3.327-2.328C41.674,16.534,44.143,19.757,44.125,19.767z"/>
	<path class="st10" d="M37.591,29.515c-0.124,0.07-2.148-3.497-2.272-3.427c-0.124,0.07,1.901,3.637,1.778,3.707
		c-0.019,0.011-1.52-3.762-1.54-3.757c-0.021,0.005,0.314,4.051,0.293,4.05c-0.142-0.008,0.083-4.103-0.059-4.111
		c-0.142-0.008-0.367,4.088-0.509,4.08c-0.021-0.001,0.755-3.986,0.735-3.993c-0.02-0.007-1.926,3.578-1.943,3.565
		c-0.115-0.083,2.288-3.407,2.173-3.49c-0.115-0.083-2.519,3.24-2.634,3.157c-0.017-0.013,2.79-2.945,2.777-2.962
		c-0.013-0.017-3.554,1.969-3.562,1.949c-0.052-0.132,3.767-1.629,3.715-1.761c-0.052-0.132-3.871,1.364-3.922,1.232
		c-0.008-0.02,3.94-0.969,3.938-0.99c-0.002-0.021-4.054-0.265-4.05-0.286c0.028-0.139,4.05,0.666,4.077,0.527
		c0.028-0.139-3.994-0.945-3.966-1.084c0.004-0.021,3.838,1.315,3.848,1.296c0.01-0.019-3.267-2.415-3.253-2.43
		c0.099-0.102,3.046,2.75,3.145,2.648c0.099-0.102-2.849-2.954-2.75-3.056c0.015-0.015,2.518,3.181,2.536,3.171
		c0.018-0.01-1.443-3.798-1.422-3.803c0.138-0.032,1.076,3.96,1.214,3.928c0.138-0.032-0.8-4.025-0.661-4.058
		c0.021-0.005,0.399,4.037,0.42,4.039c0.021,0.001,0.84-3.975,0.86-3.968c0.134,0.047-1.236,3.914-1.102,3.961
		s1.504-3.819,1.637-3.771c0.02,0.007-1.848,3.612-1.83,3.624s2.856-2.89,2.869-2.874c0.087,0.112-3.155,2.624-3.069,2.736
		c0.087,0.112,3.329-2.4,3.416-2.287c0.013,0.017-3.507,2.04-3.499,2.059c0.008,0.02,3.965-0.888,3.967-0.866
		c0.012,0.141-4.073,0.502-4.061,0.643c0.012,0.141,4.098-0.219,4.111-0.077c0.002,0.021-4.053-0.18-4.057-0.159
		c-0.004,0.021,3.815,1.397,3.806,1.416c-0.066,0.126-3.698-1.78-3.764-1.654c-0.066,0.126,3.566,2.032,3.5,2.158
		c-0.01,0.019-3.312-2.343-3.327-2.328C35.14,26.282,37.609,29.504,37.591,29.515z"/>
	<path class="st10" d="M44.591,36.515c-0.124,0.07-2.148-3.497-2.272-3.427c-0.124,0.07,1.901,3.637,1.778,3.707
		c-0.019,0.011-1.52-3.762-1.54-3.757c-0.021,0.005,0.314,4.051,0.293,4.05c-0.142-0.008,0.083-4.103-0.059-4.111
		s-0.367,4.088-0.509,4.08c-0.021-0.001,0.755-3.986,0.735-3.993s-1.926,3.578-1.943,3.565c-0.115-0.083,2.288-3.407,2.173-3.49
		c-0.115-0.083-2.519,3.24-2.634,3.157c-0.017-0.013,2.79-2.945,2.777-2.962c-0.013-0.017-3.554,1.969-3.562,1.949
		c-0.052-0.132,3.767-1.629,3.715-1.761c-0.052-0.132-3.871,1.364-3.922,1.232c-0.008-0.02,3.94-0.969,3.938-0.99
		c-0.002-0.021-4.054-0.265-4.05-0.286c0.028-0.139,4.05,0.666,4.077,0.527c0.028-0.139-3.994-0.945-3.966-1.084
		c0.004-0.021,3.838,1.315,3.848,1.296c0.01-0.019-3.267-2.415-3.253-2.43c0.099-0.102,3.046,2.75,3.145,2.648
		c0.099-0.102-2.849-2.954-2.75-3.056c0.015-0.015,2.518,3.181,2.536,3.171c0.018-0.01-1.443-3.798-1.422-3.803
		c0.138-0.032,1.076,3.96,1.214,3.928s-0.8-4.025-0.661-4.058c0.021-0.005,0.399,4.037,0.42,4.039
		c0.021,0.001,0.84-3.975,0.86-3.968c0.134,0.047-1.236,3.914-1.102,3.961s1.504-3.819,1.637-3.771
		c0.02,0.007-1.848,3.612-1.83,3.624c0.017,0.012,2.856-2.89,2.869-2.874c0.087,0.112-3.155,2.624-3.069,2.736
		s3.329-2.4,3.416-2.287c0.013,0.017-3.507,2.04-3.499,2.059c0.008,0.02,3.965-0.888,3.967-0.866
		c0.012,0.141-4.073,0.502-4.061,0.643c0.012,0.141,4.098-0.219,4.111-0.077c0.002,0.021-4.053-0.18-4.057-0.159
		c-0.004,0.021,3.815,1.397,3.806,1.416c-0.066,0.126-3.698-1.78-3.764-1.654c-0.066,0.126,3.566,2.032,3.5,2.158
		c-0.01,0.019-3.312-2.343-3.327-2.328C42.14,33.282,44.609,36.504,44.591,36.515z"/>
	<path class="st10" d="M34.591,37.515c-0.124,0.07-2.148-3.497-2.272-3.427c-0.124,0.07,1.901,3.637,1.778,3.707
		c-0.019,0.011-1.52-3.762-1.54-3.757c-0.021,0.005,0.314,4.051,0.293,4.05c-0.142-0.008,0.083-4.103-0.059-4.111
		s-0.367,4.088-0.509,4.08c-0.021-0.001,0.755-3.986,0.735-3.993s-1.926,3.578-1.943,3.565c-0.115-0.083,2.288-3.407,2.173-3.49
		c-0.115-0.083-2.519,3.24-2.634,3.157c-0.017-0.013,2.79-2.945,2.777-2.962c-0.013-0.017-3.554,1.969-3.562,1.949
		c-0.052-0.132,3.767-1.629,3.715-1.761c-0.052-0.132-3.871,1.364-3.922,1.232c-0.008-0.02,3.94-0.969,3.938-0.99
		c-0.002-0.021-4.054-0.265-4.05-0.286c0.028-0.139,4.05,0.666,4.077,0.527c0.028-0.139-3.994-0.945-3.966-1.084
		c0.004-0.021,3.838,1.315,3.848,1.296c0.01-0.019-3.267-2.415-3.253-2.43c0.099-0.102,3.046,2.75,3.145,2.648
		c0.099-0.102-2.849-2.954-2.75-3.056c0.015-0.015,2.518,3.181,2.536,3.171c0.018-0.01-1.443-3.798-1.422-3.803
		c0.138-0.032,1.076,3.96,1.214,3.928s-0.8-4.025-0.661-4.058c0.021-0.005,0.399,4.037,0.42,4.039
		c0.021,0.001,0.84-3.975,0.86-3.968c0.134,0.047-1.236,3.914-1.102,3.961s1.504-3.819,1.637-3.771
		c0.02,0.007-1.848,3.612-1.83,3.624c0.017,0.012,2.856-2.89,2.869-2.874c0.087,0.112-3.155,2.624-3.069,2.736
		c0.087,0.112,3.329-2.4,3.416-2.287c0.013,0.017-3.507,2.04-3.499,2.059c0.008,0.02,3.965-0.888,3.967-0.866
		c0.012,0.141-4.073,0.502-4.061,0.643c0.012,0.141,4.098-0.219,4.111-0.077c0.002,0.021-4.053-0.18-4.057-0.159
		c-0.004,0.021,3.815,1.397,3.806,1.416c-0.066,0.126-3.698-1.78-3.764-1.654c-0.066,0.126,3.566,2.032,3.5,2.158
		c-0.01,0.019-3.312-2.343-3.327-2.328C32.14,34.282,34.609,37.504,34.591,37.515z"/>
	<path class="st10" d="M46.295,27.767c-0.124,0.07-2.148-3.497-2.272-3.427c-0.124,0.07,1.901,3.637,1.778,3.707
		c-0.019,0.011-1.52-3.762-1.54-3.757s0.314,4.051,0.293,4.05c-0.142-0.008,0.083-4.103-0.059-4.111
		c-0.142-0.008-0.367,4.088-0.509,4.08c-0.021-0.001,0.755-3.986,0.735-3.993s-1.926,3.578-1.943,3.565
		c-0.115-0.083,2.288-3.407,2.173-3.49c-0.115-0.083-2.519,3.24-2.634,3.157c-0.017-0.013,2.79-2.945,2.777-2.962
		c-0.013-0.017-3.554,1.969-3.562,1.949c-0.052-0.132,3.767-1.629,3.715-1.761c-0.052-0.132-3.871,1.364-3.922,1.232
		c-0.008-0.02,3.94-0.969,3.938-0.99s-4.054-0.265-4.05-0.286c0.028-0.139,4.05,0.666,4.077,0.527
		c0.028-0.139-3.994-0.945-3.966-1.084c0.004-0.021,3.838,1.315,3.848,1.296c0.01-0.019-3.267-2.415-3.253-2.43
		c0.099-0.102,3.046,2.75,3.145,2.648c0.099-0.102-2.849-2.954-2.75-3.056c0.015-0.015,2.518,3.181,2.536,3.171
		c0.018-0.01-1.443-3.798-1.422-3.803c0.138-0.032,1.076,3.96,1.214,3.928s-0.8-4.025-0.661-4.058
		c0.021-0.005,0.399,4.037,0.42,4.039c0.021,0.001,0.84-3.975,0.86-3.968c0.134,0.047-1.236,3.914-1.102,3.961
		c0.134,0.047,1.504-3.819,1.637-3.771c0.02,0.007-1.848,3.612-1.83,3.624c0.017,0.012,2.856-2.89,2.869-2.874
		c0.087,0.112-3.155,2.624-3.069,2.736c0.087,0.112,3.329-2.4,3.416-2.287c0.013,0.017-3.507,2.04-3.499,2.059
		c0.008,0.02,3.965-0.888,3.967-0.866c0.012,0.141-4.073,0.502-4.061,0.643c0.012,0.141,4.098-0.219,4.111-0.077
		c0.002,0.021-4.053-0.18-4.057-0.159c-0.004,0.021,3.815,1.397,3.806,1.416c-0.066,0.126-3.698-1.78-3.764-1.654
		s3.566,2.032,3.5,2.158c-0.01,0.019-3.312-2.343-3.327-2.328C43.844,24.534,46.314,27.757,46.295,27.767z"/>
	<path class="st10" d="M58.352,27.927c-0.124,0.07-2.148-3.497-2.272-3.427c-0.124,0.07,1.901,3.637,1.778,3.707
		c-0.019,0.011-1.52-3.762-1.54-3.757c-0.021,0.005,0.314,4.051,0.293,4.05c-0.142-0.008,0.083-4.103-0.059-4.111
		c-0.142-0.008-0.367,4.088-0.509,4.08c-0.021-0.001,0.755-3.986,0.735-3.993c-0.02-0.007-1.926,3.578-1.943,3.565
		c-0.115-0.083,2.288-3.407,2.173-3.49s-2.519,3.24-2.634,3.157c-0.017-0.013,2.79-2.945,2.777-2.962
		c-0.013-0.017-3.554,1.969-3.562,1.949c-0.052-0.132,3.767-1.629,3.715-1.761c-0.052-0.132-3.871,1.364-3.922,1.232
		c-0.008-0.02,3.94-0.969,3.938-0.99c-0.002-0.021-4.054-0.265-4.05-0.286c0.028-0.139,4.05,0.666,4.077,0.527
		c0.028-0.139-3.994-0.945-3.966-1.084c0.004-0.021,3.838,1.315,3.848,1.296c0.01-0.019-3.267-2.415-3.253-2.43
		c0.099-0.102,3.046,2.75,3.145,2.648c0.099-0.102-2.849-2.954-2.75-3.056c0.015-0.015,2.518,3.181,2.536,3.171
		c0.018-0.01-1.443-3.798-1.422-3.803c0.138-0.032,1.076,3.96,1.214,3.928s-0.8-4.025-0.661-4.058
		c0.021-0.005,0.399,4.037,0.42,4.039c0.021,0.001,0.84-3.975,0.86-3.968c0.134,0.047-1.236,3.914-1.102,3.961
		c0.134,0.047,1.504-3.819,1.637-3.771c0.02,0.007-1.848,3.612-1.83,3.624c0.017,0.012,2.856-2.89,2.869-2.874
		c0.087,0.112-3.155,2.624-3.069,2.736c0.087,0.112,3.329-2.4,3.416-2.287c0.013,0.017-3.507,2.04-3.499,2.059
		c0.008,0.02,3.965-0.888,3.967-0.866c0.012,0.141-4.073,0.502-4.061,0.643c0.012,0.141,4.098-0.219,4.111-0.077
		c0.002,0.021-4.053-0.18-4.057-0.159c-0.004,0.021,3.815,1.397,3.806,1.416c-0.066,0.126-3.698-1.78-3.764-1.654
		s3.566,2.032,3.5,2.158c-0.01,0.019-3.312-2.343-3.327-2.328C55.902,24.694,58.371,27.916,58.352,27.927z"/>
	<path class="st10" d="M60.352,39.927c-0.124,0.07-2.148-3.497-2.272-3.427c-0.124,0.07,1.901,3.637,1.778,3.707
		c-0.019,0.011-1.52-3.762-1.54-3.757c-0.021,0.005,0.314,4.051,0.293,4.05c-0.142-0.008,0.083-4.103-0.059-4.111
		c-0.142-0.008-0.367,4.088-0.509,4.08c-0.021-0.001,0.755-3.986,0.735-3.993c-0.02-0.007-1.926,3.578-1.943,3.565
		c-0.115-0.083,2.288-3.407,2.173-3.49c-0.115-0.083-2.519,3.24-2.634,3.157c-0.017-0.013,2.79-2.945,2.777-2.962
		c-0.013-0.017-3.554,1.969-3.562,1.949c-0.052-0.132,3.767-1.629,3.715-1.761c-0.052-0.132-3.871,1.364-3.922,1.232
		c-0.008-0.02,3.94-0.969,3.938-0.99c-0.002-0.021-4.054-0.265-4.05-0.286c0.028-0.139,4.05,0.666,4.077,0.527
		c0.028-0.139-3.994-0.945-3.966-1.084c0.004-0.021,3.838,1.315,3.848,1.296c0.01-0.019-3.267-2.415-3.253-2.43
		c0.099-0.102,3.046,2.75,3.145,2.648s-2.849-2.954-2.75-3.056c0.015-0.015,2.518,3.181,2.536,3.171
		c0.018-0.01-1.443-3.798-1.422-3.803c0.138-0.032,1.076,3.96,1.214,3.928s-0.8-4.025-0.661-4.058
		c0.021-0.005,0.399,4.037,0.42,4.039c0.021,0.001,0.84-3.975,0.86-3.968c0.134,0.047-1.236,3.914-1.102,3.961
		c0.134,0.047,1.504-3.819,1.637-3.771c0.02,0.007-1.848,3.612-1.83,3.624s2.856-2.89,2.869-2.874
		c0.087,0.112-3.155,2.624-3.069,2.736c0.087,0.112,3.329-2.4,3.416-2.287c0.013,0.017-3.507,2.04-3.499,2.059
		c0.008,0.02,3.965-0.888,3.967-0.866c0.012,0.141-4.073,0.502-4.061,0.643c0.012,0.141,4.098-0.219,4.111-0.077
		c0.002,0.021-4.053-0.18-4.057-0.159c-0.004,0.021,3.815,1.397,3.806,1.416c-0.066,0.126-3.698-1.78-3.764-1.654
		s3.566,2.032,3.5,2.158c-0.01,0.019-3.312-2.343-3.327-2.328S60.371,39.916,60.352,39.927z"/>
	<path class="st10" d="M66.844,20.531c-0.124,0.07-2.148-3.497-2.272-3.427c-0.124,0.07,1.901,3.637,1.778,3.707
		c-0.019,0.011-1.52-3.762-1.54-3.757s0.314,4.051,0.293,4.05c-0.142-0.008,0.083-4.103-0.059-4.111
		c-0.142-0.008-0.367,4.088-0.509,4.08c-0.021-0.001,0.755-3.986,0.735-3.993c-0.02-0.007-1.926,3.578-1.943,3.565
		c-0.115-0.083,2.288-3.407,2.173-3.49c-0.115-0.083-2.519,3.24-2.634,3.157c-0.017-0.013,2.79-2.945,2.777-2.962
		c-0.013-0.017-3.554,1.969-3.562,1.949c-0.052-0.132,3.767-1.629,3.715-1.761s-3.871,1.364-3.922,1.232
		c-0.008-0.02,3.94-0.969,3.938-0.99c-0.002-0.021-4.054-0.265-4.05-0.286c0.028-0.139,4.05,0.666,4.077,0.527
		c0.028-0.139-3.994-0.945-3.966-1.084c0.004-0.021,3.838,1.315,3.848,1.296s-3.267-2.415-3.253-2.43
		c0.099-0.102,3.046,2.75,3.145,2.648c0.099-0.102-2.849-2.954-2.75-3.056c0.015-0.015,2.518,3.181,2.536,3.171
		c0.018-0.01-1.443-3.798-1.422-3.803c0.138-0.032,1.076,3.96,1.214,3.928s-0.8-4.025-0.661-4.058
		c0.021-0.005,0.399,4.037,0.42,4.039c0.021,0.001,0.84-3.975,0.86-3.968c0.134,0.047-1.236,3.914-1.102,3.961
		c0.134,0.047,1.504-3.819,1.637-3.771c0.02,0.007-1.848,3.612-1.83,3.624c0.017,0.012,2.856-2.89,2.869-2.874
		c0.087,0.112-3.155,2.624-3.069,2.736c0.087,0.112,3.329-2.4,3.416-2.287c0.013,0.017-3.507,2.04-3.499,2.059
		c0.008,0.02,3.965-0.888,3.967-0.866c0.012,0.141-4.073,0.502-4.061,0.643c0.012,0.141,4.098-0.219,4.111-0.077
		c0.002,0.021-4.053-0.18-4.057-0.159c-0.004,0.021,3.815,1.397,3.806,1.416c-0.066,0.126-3.698-1.78-3.764-1.654
		c-0.066,0.126,3.566,2.032,3.5,2.158c-0.01,0.019-3.312-2.343-3.327-2.328C64.393,17.298,66.862,20.521,66.844,20.531z"/>
	<path class="st10" d="M69.139,32.456c-0.124,0.07-2.148-3.497-2.272-3.427s1.901,3.637,1.778,3.707
		c-0.019,0.011-1.52-3.762-1.54-3.757c-0.021,0.005,0.314,4.051,0.293,4.05c-0.142-0.008,0.083-4.103-0.059-4.111
		s-0.367,4.088-0.509,4.08c-0.021-0.001,0.755-3.986,0.735-3.993s-1.926,3.578-1.943,3.565c-0.115-0.083,2.288-3.407,2.173-3.49
		c-0.115-0.083-2.519,3.24-2.634,3.157c-0.017-0.013,2.79-2.945,2.777-2.962s-3.554,1.969-3.562,1.949
		c-0.052-0.132,3.767-1.629,3.715-1.761c-0.052-0.132-3.871,1.364-3.922,1.232c-0.008-0.02,3.94-0.969,3.938-0.99
		c-0.002-0.021-4.054-0.265-4.05-0.286c0.028-0.139,4.05,0.666,4.077,0.527c0.028-0.139-3.994-0.945-3.966-1.084
		c0.004-0.021,3.838,1.315,3.848,1.296c0.01-0.019-3.267-2.415-3.253-2.43c0.099-0.102,3.046,2.75,3.145,2.648
		c0.099-0.102-2.849-2.954-2.75-3.056c0.015-0.015,2.518,3.181,2.536,3.171c0.018-0.01-1.443-3.798-1.422-3.803
		c0.138-0.032,1.076,3.96,1.214,3.928s-0.8-4.025-0.661-4.058c0.021-0.005,0.399,4.037,0.42,4.039
		c0.021,0.001,0.84-3.975,0.86-3.968c0.134,0.047-1.236,3.914-1.102,3.961c0.134,0.047,1.504-3.819,1.637-3.771
		c0.02,0.007-1.848,3.612-1.83,3.624c0.017,0.012,2.856-2.89,2.869-2.874c0.087,0.112-3.155,2.624-3.069,2.736
		c0.087,0.112,3.329-2.4,3.416-2.287c0.013,0.017-3.507,2.04-3.499,2.059c0.008,0.02,3.965-0.888,3.967-0.866
		c0.012,0.141-4.073,0.502-4.061,0.643c0.012,0.141,4.098-0.219,4.111-0.077c0.002,0.021-4.053-0.18-4.057-0.159
		c-0.004,0.021,3.815,1.397,3.806,1.416c-0.066,0.126-3.698-1.78-3.764-1.654c-0.066,0.126,3.566,2.032,3.5,2.158
		c-0.01,0.019-3.312-2.343-3.327-2.328C66.688,29.223,69.158,32.445,69.139,32.456z"/>
	<path class="st10" d="M6.968,35.692c-0.124,0.07-2.148-3.497-2.272-3.427c-0.124,0.07,1.901,3.637,1.778,3.707
		c-0.019,0.011-1.52-3.762-1.54-3.757c-0.021,0.005,0.314,4.051,0.293,4.05c-0.142-0.008,0.083-4.103-0.059-4.111
		s-0.367,4.088-0.509,4.08c-0.021-0.001,0.755-3.986,0.735-3.993c-0.02-0.007-1.926,3.578-1.943,3.565
		c-0.115-0.083,2.288-3.407,2.173-3.49c-0.115-0.083-2.519,3.24-2.634,3.157c-0.017-0.013,2.79-2.945,2.777-2.962
		c-0.013-0.017-3.554,1.969-3.562,1.949c-0.052-0.132,3.767-1.629,3.715-1.761c-0.052-0.132-3.871,1.364-3.922,1.232
		c-0.008-0.02,3.94-0.969,3.938-0.99c-0.002-0.021-4.054-0.265-4.05-0.286c0.028-0.139,4.05,0.666,4.077,0.527
		c0.028-0.139-3.994-0.945-3.966-1.084c0.004-0.021,3.838,1.315,3.848,1.296c0.01-0.019-3.267-2.415-3.253-2.43
		c0.099-0.102,3.046,2.75,3.145,2.648c0.099-0.102-2.849-2.954-2.75-3.056c0.015-0.015,2.518,3.181,2.536,3.171
		c0.018-0.01-1.443-3.798-1.422-3.803c0.138-0.032,1.076,3.96,1.214,3.928s-0.8-4.025-0.661-4.058
		c0.021-0.005,0.399,4.037,0.42,4.039c0.021,0.001,0.84-3.975,0.86-3.968c0.134,0.047-1.236,3.914-1.102,3.961
		c0.134,0.047,1.504-3.819,1.637-3.771c0.02,0.007-1.848,3.612-1.83,3.624c0.017,0.012,2.856-2.89,2.869-2.874
		c0.087,0.112-3.155,2.624-3.069,2.736c0.087,0.112,3.329-2.4,3.416-2.287c0.013,0.017-3.507,2.04-3.499,2.059
		c0.008,0.02,3.965-0.888,3.967-0.866c0.012,0.141-4.073,0.502-4.061,0.643c0.012,0.141,4.098-0.219,4.111-0.077
		c0.002,0.021-4.053-0.18-4.057-0.159c-0.004,0.021,3.815,1.397,3.806,1.416c-0.066,0.126-3.698-1.78-3.764-1.654
		c-0.066,0.126,3.566,2.032,3.5,2.158c-0.01,0.019-3.312-2.343-3.327-2.328C4.517,32.459,6.987,35.682,6.968,35.692z"/>
	<path class="st10" d="M12.449,42.987c-0.124,0.07-2.148-3.497-2.272-3.427c-0.124,0.07,1.901,3.637,1.778,3.707
		c-0.019,0.011-1.52-3.762-1.54-3.757c-0.021,0.005,0.314,4.051,0.293,4.05c-0.142-0.008,0.083-4.103-0.059-4.111
		c-0.142-0.008-0.367,4.088-0.509,4.08c-0.021-0.001,0.755-3.986,0.735-3.993c-0.02-0.007-1.926,3.578-1.943,3.565
		c-0.115-0.083,2.288-3.407,2.173-3.49c-0.115-0.083-2.519,3.24-2.634,3.157c-0.017-0.013,2.79-2.945,2.777-2.962
		c-0.013-0.017-3.554,1.969-3.562,1.949c-0.052-0.132,3.767-1.629,3.715-1.761c-0.052-0.132-3.871,1.364-3.922,1.232
		c-0.008-0.02,3.94-0.969,3.938-0.99c-0.002-0.021-4.054-0.265-4.05-0.286c0.028-0.139,4.05,0.666,4.077,0.527
		c0.028-0.139-3.994-0.945-3.966-1.084c0.004-0.021,3.838,1.315,3.848,1.296c0.01-0.019-3.267-2.415-3.253-2.43
		c0.099-0.102,3.046,2.75,3.145,2.648c0.099-0.102-2.849-2.954-2.75-3.056c0.015-0.015,2.518,3.181,2.536,3.171
		c0.018-0.01-1.443-3.798-1.422-3.803c0.138-0.032,1.076,3.96,1.214,3.928c0.138-0.032-0.8-4.025-0.661-4.058
		c0.021-0.005,0.399,4.037,0.42,4.039c0.021,0.001,0.84-3.975,0.86-3.968c0.134,0.047-1.236,3.914-1.102,3.961
		c0.134,0.047,1.504-3.819,1.637-3.771c0.02,0.007-1.848,3.612-1.83,3.624c0.017,0.012,2.856-2.89,2.869-2.874
		c0.087,0.112-3.155,2.624-3.069,2.736c0.087,0.112,3.329-2.4,3.416-2.287c0.013,0.017-3.507,2.04-3.499,2.059
		s3.965-0.888,3.967-0.866c0.012,0.141-4.073,0.502-4.061,0.643c0.012,0.141,4.098-0.219,4.111-0.077
		c0.002,0.021-4.053-0.18-4.057-0.159c-0.004,0.021,3.815,1.397,3.806,1.416c-0.066,0.126-3.698-1.78-3.764-1.654
		c-0.066,0.126,3.566,2.032,3.5,2.158c-0.01,0.019-3.312-2.343-3.327-2.328C9.998,39.754,12.468,42.977,12.449,42.987z"/>
	<path class="st10" d="M14.715,35.692c-0.124,0.07-2.148-3.497-2.272-3.427c-0.124,0.07,1.901,3.637,1.778,3.707
		c-0.019,0.011-1.52-3.762-1.54-3.757c-0.021,0.005,0.314,4.051,0.293,4.05c-0.142-0.008,0.083-4.103-0.059-4.111
		c-0.142-0.008-0.367,4.088-0.509,4.08c-0.021-0.001,0.755-3.986,0.735-3.993c-0.02-0.007-1.926,3.578-1.943,3.565
		c-0.115-0.083,2.288-3.407,2.173-3.49c-0.115-0.083-2.519,3.24-2.634,3.157c-0.017-0.013,2.79-2.945,2.777-2.962
		c-0.013-0.017-3.554,1.969-3.562,1.949c-0.052-0.132,3.767-1.629,3.715-1.761c-0.052-0.132-3.871,1.364-3.922,1.232
		c-0.008-0.02,3.94-0.969,3.938-0.99c-0.002-0.021-4.054-0.265-4.05-0.286c0.028-0.139,4.05,0.666,4.077,0.527
		c0.028-0.139-3.994-0.945-3.966-1.084c0.004-0.021,3.838,1.315,3.848,1.296c0.01-0.019-3.267-2.415-3.253-2.43
		c0.099-0.102,3.046,2.75,3.145,2.648c0.099-0.102-2.849-2.954-2.75-3.056c0.015-0.015,2.518,3.181,2.536,3.171
		c0.018-0.01-1.443-3.798-1.422-3.803c0.138-0.032,1.076,3.96,1.214,3.928s-0.8-4.025-0.661-4.058
		c0.021-0.005,0.399,4.037,0.42,4.039c0.021,0.001,0.84-3.975,0.86-3.968c0.134,0.047-1.236,3.914-1.102,3.961
		c0.134,0.047,1.504-3.819,1.637-3.771c0.02,0.007-1.848,3.612-1.83,3.624c0.017,0.012,2.856-2.89,2.869-2.874
		c0.087,0.112-3.155,2.624-3.069,2.736c0.087,0.112,3.329-2.4,3.416-2.287c0.013,0.017-3.507,2.04-3.499,2.059
		c0.008,0.02,3.965-0.888,3.967-0.866c0.012,0.141-4.073,0.502-4.061,0.643c0.012,0.141,4.098-0.219,4.111-0.077
		c0.002,0.021-4.053-0.18-4.057-0.159c-0.004,0.021,3.815,1.397,3.806,1.416c-0.066,0.126-3.698-1.78-3.764-1.654
		c-0.066,0.126,3.566,2.032,3.5,2.158c-0.01,0.019-3.312-2.343-3.327-2.328C12.264,32.459,14.734,35.682,14.715,35.692z"/>
	<path class="st10" d="M18.434,29.22c-0.124,0.07-2.148-3.497-2.272-3.427c-0.124,0.07,1.901,3.637,1.778,3.707
		c-0.019,0.011-1.52-3.762-1.54-3.757c-0.021,0.005,0.314,4.051,0.293,4.05c-0.142-0.008,0.083-4.103-0.059-4.111
		c-0.142-0.008-0.367,4.088-0.509,4.08c-0.021-0.001,0.755-3.986,0.735-3.993c-0.02-0.007-1.926,3.578-1.943,3.565
		c-0.115-0.083,2.288-3.407,2.173-3.49c-0.115-0.083-2.519,3.24-2.634,3.157c-0.017-0.013,2.79-2.945,2.777-2.962
		c-0.013-0.017-3.554,1.969-3.562,1.949c-0.052-0.132,3.767-1.629,3.715-1.761c-0.052-0.132-3.871,1.364-3.922,1.232
		c-0.008-0.02,3.94-0.969,3.938-0.99c-0.002-0.021-4.054-0.265-4.05-0.286c0.028-0.139,4.05,0.666,4.077,0.527
		c0.028-0.139-3.994-0.945-3.966-1.084c0.004-0.021,3.838,1.315,3.848,1.296c0.01-0.019-3.267-2.415-3.253-2.43
		c0.099-0.102,3.046,2.75,3.145,2.648c0.099-0.102-2.849-2.954-2.75-3.056c0.015-0.015,2.518,3.181,2.536,3.171
		c0.018-0.01-1.443-3.798-1.422-3.803c0.138-0.032,1.076,3.96,1.214,3.928s-0.8-4.025-0.661-4.058
		c0.021-0.005,0.399,4.037,0.42,4.039c0.021,0.001,0.84-3.975,0.86-3.968c0.134,0.047-1.236,3.914-1.102,3.961
		c0.134,0.047,1.504-3.819,1.637-3.771c0.02,0.007-1.848,3.612-1.83,3.624c0.017,0.012,2.856-2.89,2.869-2.874
		c0.087,0.112-3.155,2.624-3.069,2.736c0.087,0.112,3.329-2.4,3.416-2.287c0.013,0.017-3.507,2.04-3.499,2.059
		c0.008,0.02,3.965-0.888,3.967-0.866c0.012,0.141-4.073,0.502-4.061,0.643c0.012,0.141,4.098-0.219,4.111-0.077
		c0.002,0.021-4.053-0.18-4.057-0.159c-0.004,0.021,3.815,1.397,3.806,1.416c-0.066,0.126-3.698-1.78-3.764-1.654
		c-0.066,0.126,3.566,2.032,3.5,2.158c-0.01,0.019-3.312-2.343-3.327-2.328C15.983,25.987,18.453,29.209,18.434,29.22z"/>
	<path class="st10" d="M22.33,37.515c-0.124,0.07-2.148-3.497-2.272-3.427c-0.124,0.07,1.901,3.637,1.778,3.707
		c-0.019,0.011-1.52-3.762-1.54-3.757c-0.021,0.005,0.314,4.051,0.293,4.05c-0.142-0.008,0.083-4.103-0.059-4.111
		c-0.142-0.008-0.367,4.088-0.509,4.08c-0.021-0.001,0.755-3.986,0.735-3.993c-0.02-0.007-1.926,3.578-1.943,3.565
		c-0.115-0.083,2.288-3.407,2.173-3.49c-0.115-0.083-2.519,3.24-2.634,3.157c-0.017-0.013,2.79-2.945,2.777-2.962
		c-0.013-0.017-3.554,1.969-3.562,1.949c-0.052-0.132,3.767-1.629,3.715-1.761c-0.052-0.132-3.871,1.364-3.922,1.232
		c-0.008-0.02,3.94-0.969,3.938-0.99c-0.002-0.021-4.054-0.265-4.05-0.286c0.028-0.139,4.05,0.666,4.077,0.527
		c0.028-0.139-3.994-0.945-3.966-1.084c0.004-0.021,3.838,1.315,3.848,1.296s-3.267-2.415-3.253-2.43
		c0.099-0.102,3.046,2.75,3.145,2.648s-2.849-2.954-2.75-3.056c0.015-0.015,2.518,3.181,2.536,3.171
		c0.018-0.01-1.443-3.798-1.422-3.803c0.138-0.032,1.076,3.96,1.214,3.928s-0.8-4.025-0.661-4.058
		c0.021-0.005,0.399,4.037,0.42,4.039c0.021,0.001,0.84-3.975,0.86-3.968c0.134,0.047-1.236,3.914-1.102,3.961
		s1.504-3.819,1.637-3.771c0.02,0.007-1.848,3.612-1.83,3.624c0.017,0.012,2.856-2.89,2.869-2.874
		c0.087,0.112-3.155,2.624-3.069,2.736c0.087,0.112,3.329-2.4,3.416-2.287c0.013,0.017-3.507,2.04-3.499,2.059
		c0.008,0.02,3.965-0.888,3.967-0.866c0.012,0.141-4.073,0.502-4.061,0.643c0.012,0.141,4.098-0.219,4.111-0.077
		c0.002,0.021-4.053-0.18-4.057-0.159c-0.004,0.021,3.815,1.397,3.806,1.416c-0.066,0.126-3.698-1.78-3.764-1.654
		c-0.066,0.126,3.566,2.032,3.5,2.158c-0.01,0.019-3.312-2.343-3.327-2.328C19.88,34.282,22.349,37.504,22.33,37.515z"/>
	<path class="st10" d="M20.959,45.415c-0.124,0.07-2.148-3.497-2.272-3.427c-0.124,0.07,1.901,3.637,1.778,3.707
		c-0.019,0.011-1.52-3.762-1.54-3.757c-0.021,0.005,0.314,4.051,0.293,4.05c-0.142-0.008,0.083-4.103-0.059-4.111
		c-0.142-0.008-0.367,4.088-0.509,4.08c-0.021-0.001,0.755-3.986,0.735-3.993s-1.926,3.578-1.943,3.565
		c-0.115-0.083,2.288-3.407,2.173-3.49c-0.115-0.083-2.519,3.24-2.634,3.157c-0.017-0.013,2.79-2.945,2.777-2.962
		c-0.013-0.017-3.554,1.969-3.562,1.949c-0.052-0.132,3.767-1.629,3.715-1.761c-0.052-0.132-3.871,1.364-3.922,1.232
		c-0.008-0.02,3.94-0.969,3.938-0.99c-0.002-0.021-4.054-0.265-4.05-0.286c0.028-0.139,4.05,0.666,4.077,0.527
		c0.028-0.139-3.994-0.945-3.966-1.084c0.004-0.021,3.838,1.315,3.848,1.296s-3.267-2.415-3.253-2.43
		c0.099-0.102,3.046,2.75,3.145,2.648c0.099-0.102-2.849-2.954-2.75-3.056c0.015-0.015,2.518,3.181,2.536,3.171
		c0.018-0.01-1.443-3.798-1.422-3.803c0.138-0.032,1.076,3.96,1.214,3.928c0.138-0.032-0.8-4.025-0.661-4.058
		c0.021-0.005,0.399,4.037,0.42,4.039c0.021,0.001,0.84-3.975,0.86-3.968c0.134,0.047-1.236,3.914-1.102,3.961
		c0.134,0.047,1.504-3.819,1.637-3.771c0.02,0.007-1.848,3.612-1.83,3.624c0.017,0.012,2.856-2.89,2.869-2.874
		c0.087,0.112-3.155,2.624-3.069,2.736c0.087,0.112,3.329-2.4,3.416-2.287c0.013,0.017-3.507,2.04-3.499,2.059
		c0.008,0.02,3.965-0.888,3.967-0.866c0.012,0.141-4.073,0.502-4.061,0.643c0.012,0.141,4.098-0.219,4.111-0.077
		c0.002,0.021-4.053-0.18-4.057-0.159s3.815,1.397,3.806,1.416c-0.066,0.126-3.698-1.78-3.764-1.654
		c-0.066,0.126,3.566,2.032,3.5,2.158c-0.01,0.019-3.312-2.343-3.327-2.328C18.508,42.182,20.978,45.405,20.959,45.415z"/>
	<path class="st10" d="M80.795,35.692c-0.124,0.07-2.148-3.497-2.272-3.427c-0.124,0.07,1.901,3.637,1.778,3.707
		c-0.019,0.011-1.52-3.762-1.54-3.757s0.314,4.051,0.293,4.05c-0.142-0.008,0.083-4.103-0.059-4.111
		c-0.142-0.008-0.367,4.088-0.509,4.08c-0.021-0.001,0.755-3.986,0.735-3.993c-0.02-0.007-1.926,3.578-1.943,3.565
		c-0.115-0.083,2.288-3.407,2.173-3.49s-2.519,3.24-2.634,3.157c-0.017-0.013,2.79-2.945,2.777-2.962s-3.554,1.969-3.562,1.949
		c-0.052-0.132,3.767-1.629,3.715-1.761c-0.052-0.132-3.871,1.364-3.922,1.232c-0.008-0.02,3.94-0.969,3.938-0.99
		c-0.002-0.021-4.054-0.265-4.05-0.286c0.028-0.139,4.05,0.666,4.077,0.527c0.028-0.139-3.994-0.945-3.966-1.084
		c0.004-0.021,3.838,1.315,3.848,1.296c0.01-0.019-3.267-2.415-3.253-2.43c0.099-0.102,3.046,2.75,3.145,2.648
		c0.099-0.102-2.849-2.954-2.75-3.056c0.015-0.015,2.518,3.181,2.536,3.171c0.018-0.01-1.443-3.798-1.422-3.803
		c0.138-0.032,1.076,3.96,1.214,3.928s-0.8-4.025-0.661-4.058c0.021-0.005,0.398,4.037,0.42,4.039
		c0.021,0.001,0.84-3.975,0.86-3.968c0.134,0.047-1.236,3.914-1.102,3.961c0.134,0.047,1.504-3.819,1.637-3.771
		c0.02,0.007-1.848,3.612-1.83,3.624s2.856-2.89,2.869-2.874c0.087,0.112-3.155,2.624-3.069,2.736
		c0.087,0.112,3.329-2.4,3.416-2.287c0.013,0.017-3.507,2.04-3.499,2.059c0.008,0.02,3.965-0.888,3.967-0.866
		c0.012,0.141-4.073,0.502-4.061,0.643c0.012,0.141,4.098-0.219,4.111-0.077c0.002,0.021-4.053-0.18-4.057-0.159
		c-0.004,0.021,3.815,1.397,3.806,1.416c-0.066,0.126-3.698-1.78-3.764-1.654c-0.066,0.126,3.566,2.032,3.5,2.158
		c-0.01,0.019-3.312-2.343-3.327-2.328C78.344,32.459,80.813,35.682,80.795,35.692z"/>
	<path class="st10" d="M75.407,26.476c-0.124,0.07-2.148-3.497-2.272-3.427c-0.124,0.07,1.901,3.637,1.778,3.707
		c-0.019,0.011-1.52-3.762-1.54-3.757c-0.021,0.005,0.314,4.051,0.293,4.05c-0.142-0.008,0.083-4.103-0.059-4.111
		c-0.142-0.008-0.367,4.088-0.509,4.08c-0.021-0.001,0.755-3.986,0.735-3.993c-0.02-0.007-1.926,3.578-1.943,3.565
		c-0.115-0.083,2.288-3.407,2.173-3.49s-2.519,3.24-2.634,3.157c-0.017-0.013,2.79-2.945,2.777-2.962
		c-0.013-0.017-3.554,1.969-3.562,1.949c-0.052-0.132,3.767-1.629,3.715-1.761c-0.052-0.132-3.871,1.364-3.922,1.232
		c-0.008-0.02,3.94-0.969,3.938-0.99c-0.002-0.021-4.054-0.265-4.05-0.286c0.028-0.139,4.05,0.666,4.077,0.527
		c0.028-0.139-3.994-0.945-3.966-1.084c0.004-0.021,3.838,1.315,3.848,1.296c0.01-0.019-3.267-2.415-3.253-2.43
		c0.099-0.102,3.046,2.75,3.145,2.648c0.099-0.102-2.849-2.954-2.75-3.056c0.015-0.015,2.518,3.181,2.536,3.171
		c0.018-0.01-1.443-3.798-1.422-3.803c0.138-0.032,1.076,3.96,1.214,3.928c0.138-0.032-0.8-4.025-0.661-4.058
		c0.021-0.005,0.398,4.037,0.42,4.039c0.021,0.001,0.84-3.975,0.86-3.968c0.134,0.047-1.236,3.914-1.102,3.961
		c0.134,0.047,1.504-3.819,1.637-3.771c0.02,0.007-1.848,3.612-1.83,3.624s2.856-2.89,2.869-2.874
		c0.087,0.112-3.155,2.624-3.069,2.736s3.329-2.4,3.416-2.287c0.013,0.017-3.507,2.04-3.499,2.059
		c0.008,0.02,3.965-0.888,3.967-0.866c0.012,0.141-4.073,0.502-4.061,0.643c0.012,0.141,4.098-0.219,4.111-0.077
		c0.002,0.021-4.053-0.18-4.057-0.159c-0.004,0.021,3.815,1.397,3.806,1.416c-0.066,0.126-3.698-1.78-3.764-1.654
		c-0.066,0.126,3.566,2.032,3.5,2.158c-0.01,0.019-3.312-2.343-3.327-2.328C72.956,23.243,75.426,26.466,75.407,26.476z"/>
	<path class="st10" d="M72.163,43.163c-0.124,0.07-2.148-3.497-2.272-3.427c-0.124,0.07,1.901,3.637,1.778,3.707
		c-0.019,0.011-1.52-3.762-1.54-3.757s0.314,4.051,0.293,4.05c-0.142-0.008,0.083-4.103-0.059-4.111s-0.367,4.088-0.509,4.08
		c-0.021-0.001,0.755-3.986,0.735-3.993c-0.02-0.007-1.926,3.578-1.943,3.565c-0.115-0.083,2.288-3.407,2.173-3.49
		c-0.115-0.083-2.519,3.24-2.634,3.157c-0.017-0.013,2.79-2.945,2.777-2.962c-0.013-0.017-3.554,1.969-3.562,1.949
		c-0.052-0.132,3.767-1.629,3.715-1.761c-0.052-0.132-3.871,1.364-3.922,1.232c-0.008-0.02,3.94-0.969,3.938-0.99
		c-0.002-0.021-4.054-0.265-4.05-0.286c0.028-0.139,4.05,0.666,4.077,0.527c0.028-0.139-3.994-0.945-3.966-1.084
		c0.004-0.021,3.838,1.315,3.848,1.296s-3.267-2.415-3.253-2.43c0.099-0.102,3.046,2.75,3.145,2.648
		c0.099-0.102-2.849-2.954-2.75-3.056c0.015-0.015,2.518,3.181,2.536,3.171s-1.443-3.798-1.422-3.803
		c0.138-0.032,1.076,3.96,1.214,3.928s-0.8-4.025-0.661-4.058c0.021-0.005,0.399,4.037,0.42,4.039s0.84-3.975,0.86-3.968
		c0.134,0.047-1.236,3.914-1.102,3.961c0.134,0.047,1.504-3.819,1.637-3.771c0.02,0.007-1.848,3.612-1.83,3.624
		s2.856-2.89,2.869-2.874c0.087,0.112-3.155,2.624-3.069,2.736c0.087,0.112,3.329-2.4,3.416-2.287
		c0.013,0.017-3.507,2.04-3.499,2.059c0.008,0.02,3.965-0.888,3.967-0.866c0.012,0.141-4.073,0.502-4.061,0.643
		c0.012,0.141,4.098-0.219,4.111-0.077c0.002,0.021-4.053-0.18-4.057-0.159c-0.004,0.021,3.815,1.397,3.806,1.416
		c-0.066,0.126-3.698-1.78-3.764-1.654c-0.066,0.126,3.566,2.032,3.5,2.158c-0.01,0.019-3.312-2.343-3.327-2.328
		S72.182,43.152,72.163,43.163z"/>
</g>
<g id="Layer_1">
	<path id="planter_2_" class="st11" d="M74.605,149.275c-6.6,5.75-15.71,9.32-25.72,9.32h-13.26c-1.72,0-3.41-0.1-5.07-0.31
		c-8-0.98-15.18-4.25-20.66-9.01c-8.28-7.22-11.6-18.61-9.06-29.29l10.15-42.76c0-1.99,1.63-3.62,3.62-3.62h55.3
		c1.99,0,3.62,1.63,3.62,3.62l10.15,42.76C86.205,130.665,82.885,142.055,74.605,149.275z"/>
	<linearGradient id="shadow_1_" gradientUnits="userSpaceOnUse" x1="2.1026" y1="112.0705" x2="37.3522" y2="118.0211">
		<stop  offset="0.2316" style="stop-color:#2D1E26"/>
		<stop  offset="0.2728" style="stop-color:#35232D"/>
		<stop  offset="0.4753" style="stop-color:#5A3B4C"/>
	</linearGradient>
	<path id="shadow_2_" class="st12" d="M30.555,158.285c-8-0.98-15.18-4.25-20.66-9.01c-8.28-7.22-11.6-18.61-9.06-29.29l10.15-42.76
		c0-1.99,1.63-3.62,3.62-3.62c0,0,5.2,0,5.2,0c-1.61,7.324-2.847,14.733-3.66,22.188c-0.696,6.375-1.085,12.787-1.092,19.2
		c-0.009,8.637,0.359,17.806,2.855,26.135c2.016,6.727,6.635,11.859,11.806,16.426C29.992,157.8,30.273,158.044,30.555,158.285z"/>
	<path class="st13" d="M70.389,108.547c0.061,0.39,0.126,0.779,0.212,1.166c0.165,0.739,0.328,1.478,0.489,2.218
		c0.369,1.697,0.776,3.394,0.985,5.107c0.044,0.359,0.075,0.719,0.202,1.069c0.027,0.075,0.059,0.159,0.144,0.21
		c0.164,0.099,0.431,0.078,0.626,0.075c0.282-0.004,0.564-0.014,0.845-0.03c0.505-0.028,1.085-0.041,1.571-0.152
		c0.374-0.085,0.228-0.4,0.196-0.617c-0.039-0.283-0.093-0.565-0.147-0.847c-0.056-0.295-0.115-0.589-0.176-0.883
		c-0.07-0.337-0.142-0.675-0.216-1.011c-0.08-0.364-0.161-0.727-0.243-1.09c-0.085-0.373-0.171-0.746-0.259-1.119
		c-0.086-0.366-0.173-0.732-0.262-1.098c-0.083-0.343-0.167-0.685-0.252-1.028c-0.076-0.303-0.152-0.605-0.231-0.907
		c-0.017-0.065-0.156-0.645-0.347-1.322c-0.134-0.476-0.169-0.561-0.297-0.63c-0.14-0.075-0.299-0.037-0.453-0.014
		c-0.255,0.037-0.514,0.063-0.77,0.097c-0.288,0.038-0.575,0.082-0.857,0.137c-0.152,0.03-0.303,0.062-0.452,0.099
		c-0.087,0.021-0.289,0.044-0.35,0.099c-0.025,0.023-0.022,0.055-0.018,0.084C70.349,108.287,70.369,108.417,70.389,108.547z"/>
	<path id="highlight_3_" class="st13" d="M73.013,121.857c0.012-0.118,0.044-0.23,0.126-0.312c0.085-0.084,0.207-0.116,0.323-0.144
		c0.834-0.2,1.678-0.359,2.527-0.477c0.095-0.013,0.206-0.021,0.272,0.048c0.051,0.053,0.057,0.132,0.061,0.205
		c0.197,3.701,0.274,7.406,0.15,11.111c-0.101,3.006,0.043,6.045-1.196,8.844c-1.159,2.62-2.793,5.03-4.803,7.072
		c-1.458,1.481-2.96,1.701-4.931,2.054c-0.103,0.018-0.168-0.103-0.095-0.178c2.395-2.469,4.701-5.145,6.013-8.366
		c1.435-3.522,1.393-7.778,1.497-11.549c0.075-2.707,0.054-5.416,0.049-8.124C73.005,121.982,73.006,121.919,73.013,121.857z"/>
	<g>
	</g>
	<g>
	</g>
	<g>
	</g>
	<g>
	</g>
	<g>
	</g>
</g>
</svg>
