<?xml version="1.0" encoding="utf-8"?>
<!-- Generator: Adobe Illustrator 25.0.0, SVG Export Plug-In . SVG Version: 6.00 Build 0)  -->
<svg version="1.1" id="Layer_2" xmlns="http://www.w3.org/2000/svg" xmlns:xlink="http://www.w3.org/1999/xlink" x="0px" y="0px"
	 viewBox="0 0 66.4 186.47" style="enable-background:new 0 0 66.4 186.47;" xml:space="preserve">
<style type="text/css">
	.st0{opacity:0.74;fill:#542210;}
	.st1{opacity:0.91;fill:#7A3F0F;}
	.st2{fill:#FCDD2E;}
	.st3{fill:#19345A;}
	.st4{fill:#F9FAF5;}
	.st5{fill:#7C8993;}
	.st6{fill:#BDE9F9;}
	.st7{fill:#FF6368;}
	.st8{fill:#1A1A1A;}
	.st9{fill:#F2F2F2;}
	.st10{opacity:0.75;fill:#EDAC98;}
	.st11{opacity:0.35;fill:#211106;}
</style>
<path id="beer" class="st0" d="M58.25,69.14c-1.37-1.46-2.98-3.47-4.44-6.09c-1.93-3.48-2.83-6.71-3.29-9.03l-0.01,0.03
	l-0.743-4.277c-10.003,2.123-20.005-2.671-30.007-0.853c-0.983,0.246-2.028,0.491-3.102,0.722L15.9,54.02
	c-0.01,0.05-0.02,0.09-0.03,0.14c-0.47,2.31-1.38,5.48-3.27,8.89c-1.45,2.61-3.06,4.62-4.43,6.08l-0.01,0.01
	C3.15,73.66,0,80.19,0,87.42v79.99c0,0.62,0.03,1.23,0.11,1.83c0.05,0.43,0.11,0.84,0.18,1.25c0.04,0.2,0.08,0.39,0.13,0.59
	c0.02,0.13,0.05,0.26,0.09,0.38c0.06,0.24,0.12,0.47,0.19,0.69c1.52,4.98,5.39,8.05,10.07,10.13c0.43,0.19,0.87,0.38,1.33,0.55
	c0.33,0.14,0.68,0.27,1.02,0.39c0.55,0.2,1.1,0.39,1.66,0.57c0.01,0,0.01,0,0.02,0c5.29,1.69,11.6,2.68,18.4,2.68
	c6.15,0,12.47-0.76,18.38-2.68h0.01c0,0,0.01,0,0.02,0c0.26-0.08,0.52-0.17,0.77-0.25c0.3-0.1,0.59-0.21,0.89-0.32
	c0.43-0.16,0.86-0.32,1.29-0.5c0.48-0.19,0.95-0.4,1.43-0.61c0.12-0.06,0.25-0.11,0.37-0.17c0.35-0.16,0.69-0.33,1.03-0.5
	c0.27-0.13,0.53-0.27,0.78-0.42c0.09-0.04,0.19-0.09,0.28-0.15c0.2-0.11,0.4-0.23,0.59-0.35c2.93-1.81,5.11-4.25,6.3-7.33
	c0.12-0.3,0.23-0.61,0.33-0.92v-0.01c0.08-0.25,0.15-0.51,0.21-0.77c0.04-0.14,0.07-0.27,0.1-0.41c0.07-0.26,0.12-0.54,0.16-0.81
	c0.06-0.34,0.11-0.68,0.15-1.03c0.08-0.6,0.11-1.21,0.11-1.83V87.42C66.4,80.2,63.25,73.67,58.25,69.14z"/>
<path id="bottle" class="st1" d="M66.4,87.42v79.99c0,0.62-0.03,1.23-0.11,1.83c-0.04,0.35-0.09,0.69-0.15,1.03
	c-0.04,0.27-0.09,0.55-0.16,0.81c-0.03,0.14-0.06,0.27-0.1,0.41c-0.06,0.26-0.13,0.52-0.21,0.77v0.01c-0.1,0.31-0.21,0.62-0.33,0.92
	c-1.08,2.81-2.99,5.08-5.54,6.83c-0.25,0.17-0.5,0.34-0.76,0.5c-0.19,0.12-0.39,0.24-0.59,0.35c-0.09,0.06-0.19,0.11-0.28,0.15
	c-0.25,0.15-0.51,0.29-0.78,0.42c-0.34,0.17-0.68,0.34-1.03,0.5c-0.12,0.06-0.25,0.11-0.37,0.17c-0.48,0.21-0.95,0.42-1.43,0.61
	c-0.16,0.07-0.32,0.13-0.47,0.19c-0.28,0.11-0.55,0.21-0.82,0.31c-0.3,0.11-0.59,0.22-0.89,0.32c-0.25,0.08-0.51,0.17-0.77,0.25
	c-0.01,0-0.02,0-0.02,0h-0.01c-5.91,1.92-12.23,2.68-18.38,2.68c-6.8,0-13.11-0.99-18.4-2.68c-0.01,0-0.01,0-0.02,0
	c-0.56-0.18-1.11-0.37-1.66-0.57c-0.34-0.12-0.69-0.25-1.02-0.39c-0.46-0.17-0.9-0.36-1.33-0.55c-0.76-0.34-1.49-0.7-2.2-1.09
	c-3.67-2.03-6.6-4.87-7.87-9.04c-0.07-0.22-0.13-0.45-0.19-0.69c-0.04-0.12-0.07-0.25-0.09-0.38c-0.05-0.2-0.09-0.39-0.13-0.59
	c-0.07-0.41-0.13-0.82-0.18-1.25c-0.08-0.6-0.11-1.21-0.11-1.83V87.42c0-7.23,3.15-13.76,8.16-18.28l0.01-0.01
	c1.37-1.46,2.98-3.47,4.43-6.08c1.89-3.41,2.8-6.58,3.27-8.89c0.01-0.05,0.02-0.09,0.03-0.14l3.09-17.85l3.84-22.14
	c-0.21,0.01-0.4,0.02-0.58,0c-0.51-0.01-0.85-0.11-1.05-0.33c-0.83-0.9-0.18-2.87,0.89-6.06C22.3,7,22.54,6.36,22.8,5.73
	c0.16-0.38,0.37-1.23,0.72-1.46c0.06-0.04,0.13-0.06,0.2-0.08c0.02-0.01,0.05-0.01,0.07-0.02c0.78-0.2,1.56-0.41,2.35-0.58
	c0.37-0.09,0.75-0.17,1.13-0.24c2.18-0.42,4.18-0.6,5.93-0.65c1.75,0.05,3.75,0.23,5.93,0.65c1.17,0.22,2.33,0.52,3.48,0.82
	c0.03,0.01,0.05,0.01,0.07,0.02c0.07,0.02,0.14,0.04,0.2,0.08c0.36,0.23,0.57,1.08,0.73,1.46C43.86,6.36,44.1,7,44.32,7.64
	c1.06,3.19,1.72,5.16,0.88,6.06c-0.2,0.21-0.53,0.32-1.03,0.33c-0.18,0.02-0.38,0.01-0.6,0l3.85,22.22l3.09,17.8l0.01-0.03
	c0.46,2.32,1.36,5.55,3.29,9.03c1.46,2.62,3.07,4.63,4.44,6.09C63.25,73.67,66.4,80.2,66.4,87.42z"/>
<g id="label">
	<rect y="94.585" class="st2" width="66.4" height="2.426"/>
	<rect y="97.011" class="st3" width="66.4" height="62.656"/>
	<rect y="159.667" class="st2" width="66.4" height="2.426"/>
</g>
<g>
	<path class="st2" d="M38.502,146.152h-5.121c-0.279,0-0.439-0.16-0.439-0.38c0-0.221,0.16-0.38,0.439-0.38h1.221
		c0.561,0,0.88-0.32,0.88-0.881v-5.961c0-0.561-0.319-0.88-0.88-0.88h-0.561c-0.279,0-0.439-0.16-0.439-0.381
		c0-0.22,0.16-0.38,0.439-0.38h3.801c0.28,0,0.44,0.16,0.44,0.38c0,0.221-0.16,0.381-0.44,0.381h-0.56
		c-0.561,0-0.88,0.319-0.88,0.88v5.961c0,0.561,0.319,0.881,0.88,0.881h1.22c0.28,0,0.44,0.159,0.44,0.38
		C38.943,145.992,38.782,146.152,38.502,146.152z"/>
	<path class="st2" d="M45.182,142.991c-0.44,0-0.88-0.1-1.32-0.3c-0.42-0.2-0.74,0.08-0.74,0.48v2.54c0,0.28-0.16,0.44-0.44,0.44
		h-0.06c-0.28,0-0.44-0.16-0.44-0.44v-5.861c0-1.66,1.2-3.141,3.001-3.141c1.8,0,3.001,1.48,3.001,3.141
		C48.183,141.512,46.982,142.991,45.182,142.991z M45.182,137.591c-1.301,0-2.061,1.12-2.061,2.26c0,1.141,0.76,2.261,2.061,2.261
		c1.3,0,2.061-1.12,2.061-2.261C47.242,138.711,46.482,137.591,45.182,137.591z"/>
	<path class="st2" d="M56.983,146.152h-0.061c-0.279,0-0.439-0.16-0.439-0.44v-2.92c0-0.561-0.32-0.881-0.881-0.881h-2.36
		c-0.56,0-0.88,0.32-0.88,0.881v2.92c0,0.28-0.16,0.44-0.44,0.44h-0.06c-0.28,0-0.44-0.16-0.44-0.44v-5.861
		c0-1.66,1.2-3.141,3.001-3.141c1.8,0,3.001,1.48,3.001,3.141v5.861C57.423,145.992,57.263,146.152,56.983,146.152z M56.483,139.851
		c0-1.14-0.761-2.26-2.061-2.26c-1.301,0-2.061,1.12-2.061,2.26v0.421c0,0.56,0.32,0.88,0.88,0.88h2.36
		c0.561,0,0.881-0.32,0.881-0.88V139.851z"/>
</g>
<g>
	<path class="st4" d="M25.451,128.677c0.027,0.036,0.054,0.072,0.072,0.108c0.117,0.081,0.243,0.18,0.324,0.225
		c0.036,0.018,0.045,0.09,0.09,0.117c0.18,0.135,0.36,0.297,0.486,0.486c0.018-0.01,0.009,0,0.027-0.019l0.063-0.072
		c0.144,0,0.189-0.071,0.288-0.116c0.315-0.145,1.062-0.505,1.432-0.198c0.062,0.045,0.126,0.207,0.152,0.288
		c0.027,0.081-0.009,0.153,0.01,0.252c0.026,0.09,0.035,0.18,0.045,0.271l0.009-0.01c0.072-0.126,0.054-0.018,0.144-0.18
		c0.1-0.081,0.136-0.216,0.207-0.324c0.072-0.099,0.315-0.162,0.495-0.162c0.055,0.054,0.162,0.09,0.207,0.153
		c0.117,0.162,0.198,0.324,0.307,0.504c0.009,0,0.009,0,0.018-0.009c0.055-0.054,0.333-0.297,0.414-0.378
		c0.019-0.027,0.01-0.081,0.045-0.108c0.153-0.144,0.324-0.306,0.46-0.414c0.045-0.036,0.18-0.162,0.243-0.153
		c0.035,0.009-0.055,0-0.027,0.036c-0.019,0.019-0.009,0.036-0.009,0.045c-0.055,0.063-0.055,0.027-0.126,0.063
		c-0.019,0.018-0.045,0.062-0.072,0.09c-0.009,0-0.019,0.009-0.036,0.009c-0.135,0.126-0.252,0.297-0.405,0.478
		c-0.072,0.09-0.387,0.387-0.36,0.54c0.027,0.036,0.279,0.621,0.253,0.711c-0.019,0.108-0.063,0.171-0.055,0.324
		c-0.045,0.027-0.045,0.045-0.107,0.054c0.009,0.072-0.072,0.307-0.108,0.324l-0.171,0.207c-0.009,0.019-0.055,0.019-0.09,0.019
		c-0.063-0.055-0.153-0.081-0.198-0.136c-0.055-0.081-0.216-0.351-0.234-0.44c-0.072-0.226-0.045-0.369-0.009-0.495
		c0-0.055,0.054-0.072,0.072-0.108c0.018-0.072,0-0.207-0.019-0.271l-0.009-0.261c-0.09-0.225-0.153-0.369-0.297-0.459
		c-0.162-0.036-0.288,0.081-0.36,0.207c-0.018,0.081-0.099,0.198-0.171,0.271c0.009,0.107,0.018,0.216,0.054,0.333
		c-0.009,0.026-0.009,0.062-0.018,0.09c0,0.107,0.026,0.234,0.054,0.333c0.036,0.108,0.027,0.243,0,0.351
		c-0.009,0.046,0,0.136-0.009,0.162c0.009,0.027,0,0.145,0,0.153c-0.027,0.135-0.027,0.576-0.019,0.621
		c0.01,0.072,0.055,0.189,0.072,0.252c-0.009,0.072-0.018,0.136-0.018,0.198c0.018,0.234,0.062,0.54,0.081,0.766
		c-0.01,0.045-0.055,0.081-0.045,0.152c0.009,0.019,0.045,0.055,0.054,0.072c0.018,0.09,0,0.207,0.018,0.288
		c0.027,0.09-0.026,0.171,0,0.252c0.019,0.181,0.019,0.405,0.055,0.576c-0.072,0.036-0.081,0.081-0.117,0.108
		c-0.126,0.081-0.378,0.018-0.45-0.108c-0.019-0.054-0.019-0.09-0.054-0.135c-0.334-0.441-0.153-1.351-0.162-2.07l0.009-0.226
		c0.018-0.009,0.018-0.18,0.018-0.288c0-0.144,0.09-0.54,0.108-0.702c0.036-0.369,0.099-0.648,0.072-1.116
		c-0.019-0.333,0.018-0.864-0.189-0.999c-0.054-0.045-0.234-0.045-0.315-0.019c-0.243,0.091-0.495,0.207-0.702,0.315
		c-0.108,0.063-0.342,0.117-0.387,0.234c-0.054,0.099,0.099,0.279,0.135,0.359c0.072,0.162,0.234,0.64,0.198,0.847l-0.063,0.315
		c-0.009,0.026,0,0.018-0.018,0.036c-0.018,0.035-0.045,0.026-0.063,0.054c-0.027,0.062,0.018,0.117,0,0.153
		c-0.009,0.054-0.099,0.099-0.117,0.126v0.071c-0.027,0.036-0.225,0.136-0.288,0.136c-0.054-0.027-0.252-0.01-0.351-0.045
		c-0.126-0.045-0.459-0.172-0.513-0.288l-0.099-0.226c0-0.099-0.009-0.153,0.009-0.243c0.009-0.018,0.054-0.072,0.063-0.09
		l0.018-0.153c0.018-0.054,0.045-0.162,0.072-0.225c0.036-0.072,0.117-0.135,0.153-0.226c0.036-0.107-0.054-0.369-0.063-0.468
		c-0.009-0.072-0.045-0.117-0.063-0.171c0.009-0.027,0.018-0.045,0.018-0.072c-0.027-0.135-0.099-0.252-0.153-0.36
		c0-0.036-0.072-0.144-0.09-0.171l-0.027-0.09c-0.018-0.009-0.045-0.027-0.063-0.045c-0.054-0.072-0.063-0.162-0.153-0.198
		c-0.117-0.072-0.306,0.036-0.396,0.09c-0.117,0.072-0.207,0.162-0.261,0.207c-0.018,0-0.045,0.045-0.045,0
		c0.099-0.126,0.225-0.233,0.36-0.342c0.162-0.126,0.315-0.153,0.576-0.054C25.37,128.668,25.415,128.677,25.451,128.677z
		 M25.74,130.63c-0.081,0.1-0.018,0.181,0,0.315c0.027,0.018,0.045,0.045,0.09,0.063h0.072c0.018-0.055,0-0.091-0.027-0.172
		c-0.018-0.045-0.072-0.054-0.09-0.09c-0.027-0.054-0.009-0.107-0.018-0.152H25.74V130.63z"/>
	<path class="st4" d="M31.941,128.146c0.711-0.126,1.161,0.333,1.261,0.847c0.009,0.054,0.062,0.062,0.081,0.099
		c0.026,0.062-0.027,0.117-0.009,0.198c0,0.009,0.054,0.026,0.054,0.036c-0.009,0.045-0.019,0.071-0.045,0.107
		c0.081,0.055,0.135,0.136,0.225,0.181c-0.009,0.144,0.181,0.188,0.252,0.278c0.162,0.019,0.198-0.062,0.307-0.171
		c0.233-0.198,0.702-0.594,0.828-0.693c0.018,0,0.018,0,0.036,0.019c-0.279,0.279-0.388,0.405-0.495,0.522
		c-0.072,0.045-0.271,0.477-0.315,0.549c-0.009,0.036-0.018,0.072-0.018,0.108c-0.063,0.09-0.198,0.188-0.298,0.207
		c-0.314,0.054-0.611,0.045-0.765-0.081c-0.262-0.207-0.378-1-0.504-1.558c-0.027-0.027-0.019-0.009-0.027-0.027
		c-0.009-0.009-0.009-0.009-0.019-0.009c-0.071,0.423-0.144,0.783-0.278,1.071c-0.081,0.171-0.09,0.486-0.181,0.576
		c-0.045,0.045-0.09,0.081-0.144,0.081c-0.234,0.099-0.433-0.207-0.54-0.307l-0.117-0.054c-0.072-0.062-0.153-0.144-0.216-0.207
		c-0.019-0.027-0.063-0.045-0.091-0.054c-0.225-0.378-0.197-0.883,0.153-1.27l0.18-0.108c0.162-0.135,0.315-0.288,0.514-0.342
		H31.941z M31.716,128.956c-0.055,0.071-0.198,0.207-0.198,0.359c0,0.162,0.081,0.298,0.153,0.414
		c0.135,0.027,0.225,0.036,0.342,0.046c0.135-0.333,0.306-0.685,0.414-1.045c0.018,0.009,0.027,0.009,0.045,0.009
		c0-0.035,0-0.035-0.009-0.071C32.094,128.515,31.887,128.731,31.716,128.956z"/>
	<path class="st4" d="M36.225,128.658c-0.019,0.027-0.019,0.046-0.027,0.081c-0.009-0.018-0.009-0.009-0.018-0.035
		c-0.019-0.019-0.027-0.055-0.045-0.072c-0.252,0.045-0.486,0.09-0.667,0.216c-0.071,0.045-0.126,0.09-0.197,0.153
		c-0.063,0.054-0.153,0.18-0.181,0.252l-0.045,0.108c-0.135,0.423,0.045,0.737,0.396,0.854c0.081,0.027,0.09,0.019,0.171,0.045
		c0.117,0.045,0.288,0.091,0.45,0.045c0.126-0.035,0.153-0.018,0.252-0.071c0.171-0.063,0.333-0.145,0.369-0.171
		c0.117-0.072,0.198-0.136,0.288-0.217c0.063-0.026,0.135-0.036,0.189-0.081l0.44-0.342c0.126-0.099,0.171-0.171,0.324-0.279
		c0.081-0.026,0.117-0.099,0.216-0.117c-0.054,0.036-0.081,0.1-0.107,0.136c-0.019,0.036-0.055,0.036-0.09,0.081
		c-0.046,0.045-0.117,0.126-0.172,0.171c-0.026,0.036-0.099,0.045-0.144,0.09c-0.045,0.054-0.09,0.135-0.153,0.18
		c-0.072,0.055-0.171,0.162-0.333,0.271c-0.081,0.054-0.144,0.081-0.216,0.153c-0.081,0.081-0.117,0.107-0.279,0.225
		c-0.135,0.063-0.171,0.063-0.198,0.063c-0.054,0.018-0.107,0.09-0.152,0.107c-0.027,0-0.127,0.055-0.198,0.063
		c-0.531,0.126-1.116-0.117-1.351-0.45c-0.045-0.063-0.126-0.153-0.153-0.216c-0.026-0.055,0-0.405,0.019-0.45
		c0.036-0.081,0.071-0.162,0.117-0.226c0.035-0.045,0.144-0.252,0.252-0.378c0.026-0.036,0.09-0.062,0.099-0.081
		c0.145-0.117,0.306-0.126,0.45-0.243C35.747,128.515,36.216,128.451,36.225,128.658z"/>
	<path class="st4" d="M39.095,127.39c0.054,0.233,0.036,0.783-0.198,1.044c-0.099,0.099-0.261,0.216-0.333,0.378
		c0.054,0.181,0.027,0.478,0.18,0.631c0.207,0.207,0.702,0.261,0.919,0.233c0.081,0.009,0.18-0.045,0.243-0.054
		c0.171-0.009,0.323-0.009,0.485-0.036c0.036-0.036,0.072-0.054,0.108-0.072c0.027,0.009,0.054,0.009,0.072,0.019
		c0.026,0.009,0.09-0.036,0.117-0.027c0.081-0.009,0.207-0.009,0.207,0.036c-0.126,0.171-0.145,0.306-0.207,0.315
		c-0.1,0.035-0.172,0.144-0.253,0.216c-0.026,0-0.162,0.072-0.171,0.072c-0.018,0.018,0.009,0.054-0.009,0.081
		c-0.099,0.144-0.243,0.207-0.405,0.207c0,0.018-0.018,0.035-0.018,0.045c-0.1-0.036-0.081,0.018-0.162,0.026
		c-0.145,0.01-0.324-0.071-0.433-0.009c-0.009-0.018-0.162-0.126-0.171-0.126c-0.009,0.009-0.026,0.027-0.045,0.036
		c-0.018,0-0.333-0.145-0.342-0.145c-0.45-0.314-0.838-0.594-0.964-1.053c-0.026-0.072-0.054-0.135-0.081-0.181
		c-0.054-0.314,0.036-0.81,0.262-1.098c0.081-0.072,0.18-0.189,0.233-0.288c0.055-0.063,0.046-0.171,0.108-0.262
		c0.18-0.252,0.315-0.404,0.604-0.314C38.906,127.173,39.068,127.254,39.095,127.39z M38.617,127.264
		c-0.09,0.054-0.152,0.288-0.18,0.404c-0.036,0.226-0.153,0.729,0.054,0.847c0.019-0.009,0.019-0.018,0.045-0.027
		c0.243-0.18,0.478-0.773,0.405-1.044c-0.009-0.063-0.072-0.099-0.09-0.153c-0.036-0.018-0.072-0.026-0.117-0.062
		C38.698,127.254,38.672,127.245,38.617,127.264z"/>
	<path class="st4" d="M50.23,130.649c-0.01,0.126-0.055,0.314-0.072,0.441c0,0.054,0.036,0.144,0.036,0.18
		c0.045,0.099,0.018,0.18,0.026,0.288c-0.071,0.027-0.045,0.054-0.144,0.072c-0.126,0.099-0.378-0.153-0.468-0.217
		c-0.198-0.144-0.36-0.323-0.478-0.611c-0.036-0.081-0.036-0.424-0.036-0.496c0.019-0.09-0.027-0.152-0.027-0.216
		c0.019-0.162-0.009-0.36,0-0.513c0.01-0.162-0.045-0.514-0.188-0.522c-0.036,0.045-0.09,0.072-0.126,0.108
		c-0.108,0.162-0.136,0.387-0.189,0.603c-0.026,0.072-0.09,0.181-0.117,0.262c-0.036,0.117-0.026,0.27-0.045,0.396
		c-0.018,0.181,0,0.631-0.135,0.702c-0.126-0.135-0.441-0.116-0.486-0.351c-0.026-0.045,0-0.117,0.009-0.162
		c0-0.054-0.035-0.145-0.045-0.18c-0.036-0.081,0-0.189-0.026-0.288c-0.019-0.055-0.063-0.162-0.072-0.226
		c0.009-0.072-0.009-0.306-0.027-0.423c-0.045-0.271,0.009-0.388,0.009-0.676c-0.009-0.09-0.018-0.188,0.046-0.351l0.026-0.243
		c0-0.009-0.009-0.009-0.018-0.018c-0.234,0.126-0.433,0.359-0.612,0.54c-0.315,0.314-0.63,0.621-0.954,0.927v0.063
		c0.171,0.162,0.468,0.684,0.423,0.963c-0.009,0.054,0.054,0.072,0.027,0.126c-0.01,0.009-0.036,0.009-0.045,0.045
		c0.018,0.009,0.045,0.027,0.062,0.045c-0.045,0.081-0.054,0.217-0.108,0.298c-0.062,0.099-0.18,0.162-0.261,0.242
		c-0.162-0.071-0.405,0.108-0.612,0.127c-0.062-0.072-0.135-0.1-0.216-0.153c-0.063-0.063-0.117-0.135-0.18-0.198
		c-0.019-0.009-0.046-0.009-0.063-0.018c-0.027-0.045-0.108-0.36-0.072-0.45c0.027-0.081,0.045-0.217,0.09-0.307
		c0.036-0.072,0.1-0.225,0.289-0.36c0.009-0.468-0.46-1.188-0.748-1.377c-0.117-0.081-0.261-0.216-0.477-0.117
		c-0.171,0.072-0.297,0.207-0.441,0.307c-0.045,0.009-0.081,0.054-0.117,0.071c-0.054,0.027-0.09,0.117-0.144,0.145
		c-0.036,0.026-0.055,0-0.081,0.036l0.099-0.136c0.063-0.045,0.108-0.116,0.171-0.161c0.243-0.198,0.45-0.45,0.828-0.46l0.288,0.117
		c0.027,0.036,0.046,0.063,0.072,0.09c0.072,0.055,0.171,0.091,0.226,0.153c0.018,0.019,0,0.045,0.018,0.063l0.09,0.026
		c0.055,0.063,0.1,0.126,0.153,0.181l0.108,0.081c0.116,0.162,0.242,0.342,0.44,0.44l0.126-0.107
		c0.234-0.181,0.441-0.378,0.685-0.559c0.352-0.252,0.675-0.531,0.981-0.819c0-0.459,0.081-0.783,0.261-1.071
		c0.027-0.045,0.027-0.099,0.063-0.126c0.054-0.054,0.162-0.126,0.243-0.153c0.054-0.018,0.09,0,0.135-0.026
		c0.117,0.018,0.207,0.018,0.207,0.152c0.036,0.036-0.009,0.298-0.045,0.379l-0.108,0.107c-0.162,0.226-0.324,0.459-0.521,0.648
		c-0.019,0.216-0.036,0.522-0.046,0.721c-0.009,0.144,0.019,0.99,0.072,1.134c0.045,0.1,0.072,0.226,0.09,0.369h0.019
		c0-0.009,0-0.009-0.009-0.018c0.09-0.136,0.099-0.333,0.144-0.505c0.054-0.207,0.153-0.432,0.243-0.639
		c0.027-0.036,0.063-0.081,0.099-0.108c0.019-0.054,0.027-0.117,0.063-0.152c0.198-0.198,0.811-0.072,0.99,0.009
		c0.234,0.117,0.333,0.333,0.45,0.603l0.054,0.243c0.063,0.126,0.055,0.262,0.072,0.396c0.009,0.027-0.018,0.117,0,0.144
		c0.009,0,0.018,0.01,0.027,0.01c0.036,0.09-0.027,0.252-0.036,0.333C50.185,130.576,50.239,130.612,50.23,130.649z M45.584,130.54
		c-0.009-0.009-0.019-0.045-0.027-0.018c0,0.018-0.072,0.045-0.072,0.09c0,0.072,0.072,0.045,0.1,0.009
		C45.584,130.604,45.602,130.549,45.584,130.54z M47.943,127.83c0.009,0.027,0,0.019,0.019,0.019
		c0.116-0.081,0.197-0.207,0.288-0.324c0.099-0.126,0.242-0.243,0.333-0.387c0.099-0.172,0.018-0.307-0.172-0.324
		c-0.026,0.018-0.062,0.018-0.107,0.018c-0.036,0.045-0.1,0.072-0.135,0.126c-0.063,0.09-0.145,0.271-0.181,0.378
		c-0.026,0.081,0,0.189-0.018,0.234c-0.009,0.018-0.027,0.036-0.045,0.045C47.906,127.678,47.934,127.813,47.943,127.83z"/>
	<path class="st4" d="M52.929,128.227l0.207,0.234c0.045,0.026,0.144,0.225,0.188,0.261c0.063,0.081,0.091,0.153,0.145,0.234
		c0.036,0.045,0.108,0.062,0.135,0.107c0.027,0.045,0.145,0.288,0.153,0.333c0,0.019-0.036,0.063-0.009,0.1
		c0.026,0.045,0.045-0.009,0.062,0.072c0,0,0.009-0.01,0.009,0.009c-0.009,0.009-0.009,0.018-0.009,0.026
		c0.117,0.1,0.055,0.288,0.126,0.424c0.063,0.062,0.162,0.062,0.298,0.054c0.09-0.054,0.062-0.036,0.161-0.072
		c0.226-0.152,0.45-0.324,0.648-0.459l0.055-0.045c0.207-0.18,0.27-0.216,0.414-0.342l0.18-0.153
		c-0.018,0.036,0.036,0.054-0.054,0.108c-0.1,0.054-0.117,0.071-0.234,0.171c-0.108,0.099-0.288,0.27-0.369,0.324l-0.153,0.197
		c-0.18,0.153-0.387,0.441-0.621,0.514c-0.351,0.108-0.459,0.108-0.594,0.009c-0.145-0.099-0.307-0.369-0.36-0.549
		c-0.018-0.09,0-0.153-0.036-0.226c-0.108-0.188-0.261-0.324-0.423-0.468c-0.1-0.09-0.153-0.198-0.262-0.234
		c-0.018,0.01-0.062,0.027-0.071,0.045c-0.027,0.036-0.045,0.234-0.055,0.279c-0.009,0.045,0.027,0.045,0.036,0.09
		c0.019,0.045-0.018,0.072-0.018,0.091c0,0.026,0.036,0.081,0.036,0.107c-0.009,0.019-0.036,0.009-0.036,0.045
		c0.009,0.045,0.045,0.1,0.054,0.136l-0.026,0.152c0.009,0.055,0.035,0.072,0.035,0.162c-0.062,0.036-0.071,0.055-0.071,0.153
		c0.026,0.648-0.576,0.702-0.747,0.666c-0.486,0-0.64-0.126-0.757-0.549c-0.018-0.108,0-0.226-0.009-0.343
		c-0.036-0.288,0.09-0.666,0.234-0.936c0.09-0.153,0.323-0.478,0.45-0.567c0.062-0.054,0.423-0.288,0.53-0.324
		c0.046-0.009,0.1-0.009,0.145-0.018c0.036-0.01,0.108-0.036,0.162-0.027C52.596,128.037,52.865,128.146,52.929,128.227z
		 M52.02,129.118c-0.081,0.107-0.117,0.243-0.198,0.369c0,0.207-0.045,0.314-0.108,0.432c0.036,0.036,0.036,0.027,0.045,0.072
		c-0.045,0.027-0.045,0.009-0.054,0.072c0.036,0.045,0,0.144,0.045,0.18c0.081,0.045,0.324,0.099,0.324,0.09
		c0.045-0.062,0.117-0.198,0.145-0.279c0.035-0.071,0.035-0.369,0.071-0.657c0.027-0.197,0.063-0.378,0.045-0.423
		C52.389,128.83,52.101,129.001,52.02,129.118z M53.766,129.604h0.036c0,0,0-0.018,0.009-0.026
		C53.766,129.595,53.802,129.568,53.766,129.604z"/>
	<path class="st4" d="M56.339,127.849c0.054,0.054-0.063,0.369-0.117,0.459c-0.009,0.036-0.1,0.162-0.072,0.18
		c0.081,0.1,0.252,0.207,0.414,0.217c0.027,0,0.135-0.046,0.307-0.046c0.071-0.009,0.171-0.045,0.225-0.062
		c0.117-0.036,0.387-0.036,0.478,0c0.026,0.009,0.026,0.045,0.026,0.062c0.019,0.01,0.063,0.01,0.081,0.019
		c0.009,0.018,0.009,0.036,0.009,0.054c0.01,0.019,0.055,0.055,0.072,0.063c0.009,0.045,0,0.081,0.019,0.135
		c0.018,0.018,0.071,0.054,0.071,0.081c0.036,0.054-0.018,0.126,0.01,0.171c0,0,0.009,0.009,0.018,0.009
		c0.072,0.343,0.045,0.424,0.036,0.478c-0.019,0.054,0.027,0.045,0.027,0.081c-0.01,0.018-0.036,0.009-0.019,0.045
		c0,0.009,0.027,0.387-0.009,0.414c0,0.18-0.019,0.514,0.027,0.595c-0.027,0.054,0.099,0.135,0.062,0.252
		c0,0.045,0.045,0.062,0.009,0.171c-0.009,0.026-0.054,0.062-0.054,0.081c-0.027,0.081,0.027,0.081-0.063,0.117
		c-0.054-0.055-0.188-0.019-0.261-0.045l-0.099-0.072c-0.063-0.019-0.108-0.009-0.171-0.027c-0.046-0.018-0.055-0.09-0.091-0.117
		c-0.018-0.009-0.054,0-0.09,0.01v-0.027c-0.279-0.352-0.405-0.585-0.513-1.161c-0.019-0.172-0.01-0.478-0.01-0.676v-0.126
		c-0.035-0.062,0.019-0.144-0.062-0.225c-0.054-0.027-0.117,0.009-0.189-0.01c-0.026-0.009-0.171-0.045-0.197-0.045
		c-0.081-0.018-0.136-0.116-0.234-0.116c-0.063,0.135-0.216,0.278-0.388,0.323c0.01-0.009,0.01-0.009,0.019-0.009
		c0.027-0.036,0.054-0.045,0.09-0.081c0.045-0.036,0.226-0.306,0.216-0.36c-0.026-0.035-0.036-0.197-0.045-0.314
		c0-0.288,0.181-0.54,0.424-0.63C56.329,127.74,56.348,127.759,56.339,127.849z M56.132,128.037
		c-0.01,0.036-0.019,0.045-0.027,0.108c-0.027,0.045-0.009,0.135-0.019,0.207c0,0.009,0.01,0,0.019,0.009
		c0-0.018,0-0.009,0.009-0.026c0.054-0.063,0.1-0.172,0.108-0.253c-0.009-0.009-0.019-0.026-0.027-0.054
		C56.167,128.037,56.15,128.037,56.132,128.037z"/>
	<path class="st4" d="M60.435,126.345c0.144,0.288,0.054,0.55,0.009,0.909c0,0.055,0.018,0.379,0.027,0.424
		c0.018,0.054-0.01,0.081-0.01,0.116l-0.09,0.973c-0.018,0.045,0.036,0.045,0.027,0.072c0,0.009-0.045,0.036-0.045,0.036l0.018,0.54
		c-0.009,0.027-0.054,0.107-0.062,0.153c-0.01,0.054,0.026,0.099,0.018,0.135s-0.036,0.045-0.045,0.107l-0.09,0.622
		c0.071,0.261,0.045,0.278,0.026,0.314c0.055-0.009,0.081,0.009,0.108,0c0.145-0.152,0.198-0.36,0.297-0.558
		c0.162-0.315,0.333-0.64,0.504-0.955c0.108-0.207,0.226-0.521,0.514-0.549c0.018,0.019,0,0.009,0.027,0.019
		c0.009,0.026,0.018,0.035,0.018,0.081c-0.045,0.071-0.062,0.306-0.108,0.404c-0.071,0.172-0.207,0.36-0.288,0.531
		c-0.045,0.108,0,0.217-0.045,0.343c-0.026,0.09-0.062,0.333-0.026,0.468c0.162,0.621,1.044,1.144,1.629,1.368
		c0.072,0.027,0.45,0.072,0.55,0.045c0.054-0.018,0.054-0.071,0.116-0.09v0.045c-0.026,0.019-0.026,0.063-0.054,0.09
		c-0.062,0.045-0.288,0.153-0.351,0.181c-0.307,0.099-0.541,0.009-0.819-0.081c-0.666-0.189-1.18-0.757-1.333-1.477
		c-0.018-0.126,0.055-0.261,0.081-0.352c0.072-0.207,0.09-0.414,0.181-0.603c0.071-0.145,0.18-0.279,0.197-0.486h-0.018v0.018
		c-0.306,0.298-0.414,0.802-0.585,1.243c-0.045,0.099-0.019,0.188-0.063,0.288l-0.062,0.054c-0.027,0.072,0.018,0.153-0.009,0.198
		c-0.036,0.062-0.091,0.188-0.127,0.243c-0.026,0.018-0.062,0.035-0.09,0.062c-0.026,0.045,0.01,0.054,0,0.09
		c-0.018,0.01-0.026,0.027-0.045,0.045c-0.009,0.019,0.027,0.027,0.019,0.063c-0.01,0-0.298,0.315-0.324,0.342
		c-0.019,0.019-0.279,0.072-0.315,0.063c-0.027-0.009-0.045-0.036-0.09-0.027c-0.019,0-0.072,0.036-0.09,0.045
		c-0.252,0.055-0.567-0.135-0.685-0.441c-0.062-0.035-0.072-0.116-0.09-0.287v-0.226l0.198-0.459c0-0.019-0.01-0.045-0.019-0.072
		c0-0.081,0.271-0.747,0.324-0.909c0.027-0.09,0.396-0.954,0.433-1.044c-0.01-0.1,0.062-0.217,0.09-0.333v-0.117
		c0.062-0.217,0.117-0.459,0.188-0.685c0.055-0.198,0.108-0.648,0.198-1.054C60.309,126.282,60.38,126.246,60.435,126.345z"/>
</g>
<g id="shark">
	<g id="Layer_8">
		<path class="st5" d="M14.635,106.817c-2.817,0.625-5.457,1.895-7.878,3.444c-1.224,0.783-2.398,1.643-3.53,2.554
			c-0.555,0.447-1.1,0.907-1.636,1.377c-0.221,0.194-0.991,0.892-0.809,1.27c0.265,0.553,2.818-0.608,5.891-0.591
			c1.578,0.009,2.864,0.327,3.699,0.591C11.793,112.58,13.214,109.699,14.635,106.817"/>
	</g>
	<path class="st6" d="M19.785,121.347c-0.224-2.176,6.918-6.404,12.927-4.413c2.3,0.762,3.883,2.253,4.848,3.419
		c0.328,0.397,0.085,0.995-0.426,1.059c-3.041,0.379-6.13,0.802-9.265,1.272c-1.564,0.235-3.113,0.477-4.647,0.727
		c-0.097,0.016-0.202,0.009-0.296-0.019C20.461,122.674,19.845,121.927,19.785,121.347z"/>
	<path class="st5" d="M36.931,107.718c-1.18,2.51-2.91,4.37-4.91,6.22c-2.33,2.16-4.57,4.44-6.7,6.79
		c-4.4,4.85-10.22,12.69-9.26,19.71c0.2,1.45,0.75,2.25,1.57,2.85c0.02,0.01,0.05,0.01,0.07,0.01c0,0.01,0,0.01,0,0.01
		c1.79,0.45,3.63,0.03,5.42-0.25c0.73-0.11,3.43-0.82,3.99-0.12c0.56,0.71-1.71,2.56-3.67,3.27c-1.96,0.71-1.6,1.99-1.6,3.84
		c0,1.02-2.85,8.06-3.81,7.7c-0.19-0.07-0.31-0.26-0.4-0.44c-0.94-1.84-0.95-3.95-0.88-5.96c0.09-2.16,0.13-4.32,0.22-6.48v-0.01
		c-0.35-0.43-0.7-0.88-1.06-1.36c-0.05-0.06-0.1-0.13-0.15-0.2c0,0-1.88-2.55-3.28-5.24c-1.33-2.58-8.34-18.63-0.31-30.08
		c2.79-3.98,6.92-6.53,11.58-7.76c3.96-1.05,8.14-1.28,12.22-1.3c1.23-0.01,1.99,0.38,2.34,1.59c0.07,0.23,0.11,0.47,0.15,0.71
		C38.731,103.348,37.781,105.898,36.931,107.718z"/>
	<g id="Layer_7">
		<path class="st6" d="M20.875,120.359c-1.029-1.93-9.315-1.45-13.188,3.557c-1.482,1.917-1.964,4.037-2.113,5.543
			c-0.051,0.512,0.485,0.873,0.945,0.64c2.734-1.384,5.533-2.758,8.396-4.118c1.428-0.679,2.849-1.342,4.261-1.992
			c0.09-0.041,0.172-0.105,0.235-0.181C21.055,121.837,21.149,120.873,20.875,120.359z"/>
	</g>
	<path class="st6" d="M36.931,107.718c-1.18,2.51-2.91,4.37-4.91,6.22c-0.29,0.27-0.58,0.54-0.86,0.82
		c-2.03,1.91-3.97,3.91-5.84,5.97c-4.4,4.85-10.22,12.69-9.26,19.71c0.2,1.45,0.75,2.25,1.57,2.85c0.02,0.01,0.05,0.01,0.07,0.01
		c0,0.01,0,0.01,0,0.01c-0.01,0.06-0.01,0.13,0,0.17c0.05,0.4,0.4,0.6,0.42,0.97c0,0.02,0,0.04-0.01,0.06
		c-0.09,0.22-0.64,0.12-0.83,0.18c-0.11,0.04-0.22,0.1-0.31,0.18v-0.01c-0.35-0.43-0.7-0.88-1.06-1.36
		c-0.51-1.37-0.92-2.78-1.23-4.22c-0.46-2.13-1.17-4.55-0.31-6.68c0.29-0.72,0.73-1.38,1.15-2.03c3.49-5.36,6.38-11.33,7.47-17.67
		c0.26-1.49,0.65-3.07,1.86-4.08c0.71-0.58,1.6-0.87,2.46-1.18c4.36-1.52,8.24-3.11,11.15-6.42
		C38.731,103.348,37.781,105.898,36.931,107.718z"/>
	<path class="st7" d="M36.931,107.718c-0.01,0.02-0.02,0.05-0.03,0.07c-1.18,2.48-2.9,4.32-4.88,6.15
		c-0.29,0.27-0.58,0.54-0.86,0.82c-0.03,0.01-0.06,0.02-0.09,0.02c-0.11,0.03-0.22,0.05-0.33,0.07c-0.16,0.04-0.32,0.06-0.48,0.08
		h-0.01c-0.13,0.02-0.27,0.03-0.4,0.04c-0.06,0-0.13,0.01-0.19,0c0,0,0,0-0.01,0c-0.24,0.02-0.48,0.02-0.72-0.03l-0.01,0.01
		l-0.01-0.01c-0.06,0-0.12-0.01-0.18-0.03c-0.22-0.05-0.41-0.15-0.59-0.28c-0.79-0.57-1.16-1.78-1.3-2.71
		c-0.03-0.14,0.08-0.27,0.22-0.28c0.02,0,0.05,0,0.07-0.01c0.42-0.03,0.84-0.03,1.26-0.06c0,0,0,0.01,0.01,0.01l0.01-0.01
		c0.3-0.01,0.61-0.04,0.91-0.1c0.12-0.02,0.23-0.05,0.35-0.08h0.01c0.41-0.1,0.82-0.22,1.22-0.37c0.02-0.01,0.04-0.01,0.06-0.02
		c0.25-0.09,0.5-0.19,0.75-0.3c0.14-0.06,0.27-0.12,0.41-0.19c0.01,0,0.03-0.01,0.05-0.02c0.39-0.19,0.78-0.39,1.16-0.6
		c0.01-0.01,0.01-0.01,0.02-0.01c0,0,0,0,0-0.01c0.35-0.19,0.7-0.39,1.05-0.6v-0.01c0.31-0.18,0.61-0.36,0.92-0.55
		c0,0,0.01,0,0.01-0.01c0.21-0.12,0.41-0.25,0.62-0.37v-0.01c0.04-0.02,0.07-0.04,0.11-0.06c0.09-0.05,0.18-0.12,0.28-0.19h0.01
		v-0.01c0.08-0.06,0.16-0.11,0.24-0.16c0.05-0.04,0.1-0.07,0.15-0.1c0.01,0,0.01,0,0.01,0c0.04-0.02,0.08-0.04,0.11-0.05h0.01
		C36.891,107.728,36.911,107.728,36.931,107.718z"/>
	<g id="Layer_10">
		<path class="st4" d="M28.401,111.578v0.01c-0.11,0.37-0.39,1.16-0.49,1.19c-0.1,0.03-0.59-0.8-0.78-1.15
			c0.42-0.03,0.84-0.03,1.26-0.06C28.391,111.568,28.391,111.578,28.401,111.578z"/>
		<path class="st4" d="M29.321,111.468c0.12-0.02,0.23-0.05,0.35-0.08c-0.09,0.31-0.42,1.25-0.52,1.28
			c-0.09,0.03-0.53-0.71-0.75-1.08v-0.01l0.01-0.01C28.711,111.558,29.021,111.528,29.321,111.468z"/>
		<path class="st4" d="M30.961,110.998c0,0.02-0.01,0.04-0.01,0.06c-0.04,0.33-0.22,1.29-0.31,1.34s-0.71-0.7-0.96-1.01
			c0.41-0.1,0.82-0.22,1.22-0.37C30.921,111.008,30.941,111.008,30.961,110.998z"/>
		<path class="st4" d="M32.041,111.958c-0.08,0.06-0.82-0.63-1.09-0.9c-0.02-0.02-0.04-0.03-0.05-0.04
			c0.02-0.01,0.04-0.01,0.06-0.02c0.25-0.09,0.5-0.19,0.75-0.3c0.14-0.06,0.27-0.12,0.41-0.19c0.01,0,0.03-0.01,0.05-0.02
			c0.01,0.01,0.01,0.03,0,0.06v0.01C32.191,110.848,32.131,111.898,32.041,111.958z"/>
		<path class="st4" d="M33.401,111.298c-0.07,0.07-0.94-0.54-1.23-0.74v-0.01c-0.02-0.02-0.04-0.03-0.05-0.04
			c0.01,0,0.03-0.01,0.05-0.02c0.39-0.19,0.78-0.39,1.16-0.6c0.01-0.01,0.01-0.01,0.02-0.01c0,0.01,0.01,0.02,0.01,0.03
			C33.401,110.208,33.481,111.228,33.401,111.298z"/>
		<path class="st4" d="M34.471,110.588c-0.07,0.07-0.84-0.48-1.11-0.68c-0.01-0.01-0.02-0.01-0.03-0.02
			c0.01-0.01,0.01-0.01,0.02-0.01c0,0,0,0,0-0.01c0.35-0.19,0.7-0.39,1.05-0.6c0,0,0.01,0,0.01,0.01
			C34.461,109.488,34.541,110.528,34.471,110.588z"/>
		<path class="st4" d="M35.351,109.858c-0.05,0.05-0.65-0.37-0.94-0.58c0-0.01-0.01-0.01-0.01-0.01v-0.01
			c0.31-0.18,0.61-0.36,0.92-0.55C35.361,108.988,35.421,109.798,35.351,109.858z"/>
		<path class="st4" d="M36.021,109.058c-0.04,0.04-0.46-0.22-0.69-0.36c0.21-0.12,0.41-0.25,0.62-0.37
			C36.001,108.578,36.061,109.018,36.021,109.058z"/>
		<path class="st4" d="M36.391,108.548c-0.03,0.03-0.27-0.11-0.44-0.22v-0.01c0.04-0.02,0.07-0.04,0.11-0.06
			c0.09-0.05,0.18-0.12,0.28-0.19h0.01C36.381,108.258,36.411,108.518,36.391,108.548z"/>
		<path class="st4" d="M36.611,108.188c-0.02,0.02-0.15-0.05-0.26-0.12v-0.01c0.08-0.06,0.16-0.11,0.24-0.16
			C36.611,108.018,36.631,108.168,36.611,108.188z"/>
		<path class="st4" d="M36.751,107.798v0.01c0,0.08-0.01,0.17-0.02,0.18c-0.02,0-0.08-0.05-0.14-0.09c0.05-0.04,0.1-0.07,0.15-0.1
			C36.751,107.798,36.751,107.798,36.751,107.798z"/>
		<path class="st4" d="M36.751,107.798c0.04-0.02,0.08-0.04,0.11-0.05c-0.01,0.06-0.04,0.13-0.05,0.13s-0.03-0.03-0.06-0.07
			c0-0.01,0-0.01-0.01-0.01C36.751,107.798,36.751,107.798,36.751,107.798z"/>
		<path class="st4" d="M36.931,107.718c-0.01,0.02-0.02,0.05-0.03,0.07c0,0-0.02-0.02-0.03-0.04
			C36.891,107.728,36.911,107.728,36.931,107.718z"/>
		<path class="st4" d="M28.911,114.938c-0.06,0-0.12-0.01-0.18-0.03c-0.22-0.05-0.41-0.15-0.59-0.28c0.17-0.26,0.38-0.56,0.44-0.57
			C28.641,114.058,28.831,114.628,28.911,114.938z"/>
		<path class="st4" d="M29.651,114.958c0,0.01,0,0.01,0,0.01c-0.24,0.02-0.48,0.02-0.72-0.03c0.12-0.24,0.33-0.63,0.39-0.64
			C29.371,114.298,29.551,114.688,29.651,114.958z"/>
		<path class="st4" d="M30.251,114.928c-0.13,0.02-0.27,0.03-0.4,0.04c-0.06,0-0.13,0.01-0.19,0c0,0,0,0-0.01,0c0,0,0,0,0-0.01
			c0.07-0.22,0.19-0.54,0.23-0.56C29.941,114.398,30.141,114.718,30.251,114.928z"/>
		<path class="st4" d="M30.741,114.848c-0.16,0.04-0.32,0.06-0.48,0.08c0.05-0.19,0.16-0.46,0.19-0.48
			C30.501,114.448,30.641,114.678,30.741,114.848z"/>
		<path class="st4" d="M31.071,114.778c-0.11,0.03-0.22,0.05-0.33,0.07c0.02-0.11,0.07-0.32,0.1-0.33
			C30.871,114.518,31.001,114.678,31.071,114.778z"/>
	</g>
	<g id="Layer_9">
		<circle class="st8" cx="26.135" cy="104.537" r="1.027"/>
		<circle class="st9" cx="25.812" cy="104.6" r="0.616"/>
	</g>
</g>
<path id="neck_label" class="st2" d="M47.42,36.25c-4.52-0.27-9.29-0.43-14.28-0.44c-4.93-0.02-9.66,0.12-14.15,0.36l3.84-22.14
	c-0.21,0.01-0.4,0.02-0.58,0c3.17-0.53,6.91-0.93,11.11-0.92c4.07,0.02,7.72,0.4,10.81,0.92c-0.18,0.02-0.38,0.01-0.6,0L47.42,36.25
	z"/>
<g>
	<path class="st3" d="M26.372,19.431c0.024,0.032,0.048,0.064,0.064,0.096c0.104,0.072,0.216,0.16,0.287,0.2
		c0.032,0.016,0.04,0.08,0.08,0.104c0.16,0.12,0.32,0.264,0.432,0.432c0.017-0.008,0.008,0,0.024-0.016l0.056-0.064
		c0.128,0,0.168-0.064,0.256-0.104c0.28-0.128,0.943-0.448,1.271-0.176c0.056,0.04,0.112,0.184,0.136,0.256
		c0.024,0.072-0.008,0.136,0.008,0.224c0.024,0.08,0.032,0.16,0.04,0.24l0.008-0.008c0.064-0.112,0.049-0.016,0.128-0.16
		c0.089-0.072,0.12-0.192,0.185-0.288c0.063-0.088,0.279-0.144,0.439-0.144c0.048,0.048,0.144,0.08,0.184,0.136
		c0.104,0.144,0.176,0.288,0.272,0.448c0.008,0,0.008,0,0.016-0.008c0.048-0.048,0.296-0.264,0.368-0.336
		c0.016-0.024,0.008-0.072,0.04-0.096c0.136-0.128,0.287-0.272,0.407-0.368c0.04-0.032,0.16-0.144,0.216-0.136
		c0.032,0.008-0.048,0-0.023,0.032c-0.017,0.016-0.008,0.032-0.008,0.04c-0.049,0.056-0.049,0.024-0.112,0.056
		c-0.016,0.016-0.04,0.056-0.064,0.08c-0.008,0-0.016,0.008-0.031,0.008c-0.12,0.112-0.225,0.264-0.36,0.424
		c-0.063,0.08-0.344,0.344-0.319,0.479c0.023,0.032,0.248,0.552,0.224,0.632c-0.016,0.096-0.056,0.152-0.048,0.288
		c-0.04,0.024-0.04,0.04-0.096,0.048c0.008,0.064-0.064,0.272-0.097,0.288l-0.151,0.184c-0.008,0.016-0.048,0.016-0.08,0.016
		c-0.056-0.048-0.136-0.072-0.176-0.12c-0.048-0.072-0.192-0.312-0.208-0.392c-0.064-0.2-0.04-0.328-0.008-0.44
		c0-0.048,0.048-0.064,0.063-0.096c0.017-0.064,0-0.184-0.016-0.24l-0.008-0.231c-0.08-0.2-0.137-0.328-0.264-0.408
		c-0.145-0.032-0.256,0.072-0.32,0.184c-0.016,0.072-0.088,0.176-0.152,0.24c0.009,0.096,0.017,0.192,0.049,0.296
		c-0.009,0.024-0.009,0.056-0.017,0.08c0,0.096,0.024,0.208,0.048,0.296c0.032,0.096,0.024,0.216,0,0.312
		c-0.008,0.04,0,0.12-0.008,0.144c0.008,0.024,0,0.128,0,0.136c-0.023,0.12-0.023,0.512-0.016,0.551
		c0.008,0.064,0.048,0.168,0.063,0.224c-0.008,0.064-0.016,0.12-0.016,0.176c0.016,0.208,0.056,0.48,0.072,0.68
		c-0.009,0.04-0.049,0.072-0.04,0.136c0.008,0.016,0.04,0.048,0.048,0.064c0.016,0.08,0,0.184,0.016,0.256
		c0.024,0.08-0.023,0.152,0,0.224c0.017,0.16,0.017,0.36,0.048,0.512c-0.063,0.032-0.071,0.072-0.104,0.096
		c-0.112,0.072-0.336,0.016-0.4-0.096c-0.016-0.048-0.016-0.08-0.048-0.12c-0.296-0.392-0.136-1.199-0.144-1.839l0.008-0.2
		c0.016-0.008,0.016-0.16,0.016-0.256c0-0.128,0.08-0.48,0.097-0.624c0.032-0.328,0.088-0.576,0.063-0.991
		c-0.016-0.296,0.017-0.768-0.168-0.888c-0.048-0.04-0.208-0.04-0.279-0.016c-0.216,0.08-0.44,0.184-0.624,0.28
		c-0.096,0.056-0.304,0.104-0.344,0.208c-0.048,0.088,0.088,0.248,0.12,0.32c0.063,0.144,0.208,0.568,0.176,0.752l-0.056,0.28
		c-0.009,0.024,0,0.016-0.017,0.032c-0.016,0.032-0.04,0.024-0.056,0.048c-0.024,0.056,0.016,0.104,0,0.136
		c-0.008,0.048-0.088,0.088-0.104,0.112v0.064c-0.024,0.032-0.2,0.12-0.256,0.12c-0.049-0.024-0.225-0.008-0.312-0.04
		c-0.111-0.04-0.407-0.152-0.455-0.256l-0.089-0.2c0-0.088-0.008-0.136,0.009-0.216c0.008-0.016,0.048-0.064,0.056-0.08l0.016-0.136
		c0.017-0.048,0.04-0.144,0.064-0.2c0.032-0.064,0.104-0.12,0.136-0.2c0.032-0.096-0.048-0.328-0.056-0.416
		c-0.008-0.064-0.04-0.104-0.057-0.152c0.009-0.024,0.017-0.04,0.017-0.064c-0.024-0.12-0.088-0.224-0.136-0.32
		c0-0.032-0.064-0.128-0.08-0.152l-0.024-0.08c-0.016-0.008-0.04-0.024-0.056-0.04c-0.048-0.064-0.056-0.144-0.136-0.176
		c-0.104-0.064-0.272,0.032-0.353,0.08c-0.104,0.064-0.184,0.144-0.231,0.184c-0.016,0-0.04,0.04-0.04,0
		c0.088-0.112,0.2-0.208,0.32-0.304c0.144-0.112,0.279-0.136,0.512-0.048C26.3,19.423,26.34,19.431,26.372,19.431z M26.628,21.166
		c-0.072,0.088-0.016,0.16,0,0.28c0.024,0.016,0.04,0.04,0.08,0.056h0.063c0.017-0.048,0-0.08-0.023-0.152
		c-0.017-0.04-0.064-0.048-0.08-0.08c-0.024-0.048-0.008-0.096-0.016-0.136h-0.024V21.166z"/>
	<path class="st3" d="M32.14,18.959c0.632-0.112,1.031,0.296,1.119,0.751c0.009,0.048,0.057,0.056,0.072,0.088
		c0.024,0.056-0.023,0.104-0.008,0.176c0,0.008,0.048,0.024,0.048,0.032c-0.008,0.04-0.016,0.064-0.04,0.096
		c0.072,0.048,0.12,0.12,0.2,0.16c-0.008,0.128,0.16,0.168,0.224,0.248c0.145,0.016,0.176-0.056,0.271-0.152
		c0.208-0.176,0.624-0.528,0.736-0.616c0.016,0,0.016,0,0.031,0.016c-0.247,0.248-0.344,0.36-0.439,0.464
		c-0.063,0.04-0.239,0.424-0.279,0.488c-0.009,0.032-0.017,0.064-0.017,0.096c-0.056,0.08-0.176,0.168-0.264,0.184
		c-0.28,0.048-0.544,0.04-0.68-0.072c-0.231-0.184-0.336-0.888-0.447-1.383c-0.024-0.024-0.017-0.008-0.024-0.024
		c-0.008-0.008-0.008-0.008-0.016-0.008c-0.064,0.376-0.128,0.696-0.248,0.952c-0.072,0.152-0.08,0.432-0.16,0.512
		c-0.04,0.04-0.08,0.072-0.128,0.072c-0.208,0.088-0.384-0.184-0.479-0.271l-0.104-0.048c-0.063-0.056-0.136-0.128-0.191-0.184
		c-0.016-0.024-0.056-0.04-0.08-0.048c-0.2-0.336-0.176-0.784,0.136-1.127l0.16-0.096c0.144-0.12,0.28-0.256,0.456-0.304H32.14z
		 M31.941,19.679c-0.049,0.064-0.177,0.184-0.177,0.32c0,0.144,0.072,0.264,0.137,0.368c0.119,0.024,0.199,0.032,0.304,0.04
		c0.12-0.296,0.271-0.608,0.367-0.928c0.017,0.008,0.024,0.008,0.04,0.008c0-0.032,0-0.032-0.008-0.064
		C32.276,19.287,32.092,19.479,31.941,19.679z"/>
	<path class="st3" d="M35.948,19.415c-0.016,0.024-0.016,0.04-0.023,0.072c-0.009-0.016-0.009-0.008-0.017-0.032
		c-0.016-0.016-0.023-0.048-0.04-0.064c-0.224,0.04-0.432,0.08-0.592,0.192c-0.063,0.04-0.111,0.08-0.176,0.136
		c-0.056,0.048-0.136,0.16-0.16,0.224l-0.039,0.096c-0.12,0.375,0.039,0.655,0.352,0.759c0.072,0.024,0.08,0.016,0.151,0.04
		c0.104,0.04,0.256,0.08,0.4,0.04c0.111-0.032,0.136-0.016,0.224-0.064c0.152-0.056,0.296-0.128,0.328-0.152
		c0.104-0.064,0.176-0.12,0.256-0.192c0.056-0.024,0.119-0.032,0.168-0.072l0.392-0.304c0.111-0.088,0.151-0.152,0.288-0.248
		c0.071-0.024,0.104-0.088,0.191-0.104c-0.048,0.032-0.072,0.088-0.096,0.12c-0.017,0.032-0.048,0.032-0.08,0.072
		c-0.04,0.04-0.104,0.112-0.152,0.152c-0.023,0.032-0.088,0.04-0.128,0.08c-0.04,0.048-0.079,0.12-0.136,0.16
		c-0.063,0.048-0.151,0.144-0.296,0.24c-0.071,0.048-0.128,0.072-0.191,0.136c-0.072,0.072-0.104,0.096-0.248,0.2
		c-0.12,0.056-0.152,0.056-0.176,0.056c-0.048,0.016-0.096,0.08-0.136,0.096c-0.024,0-0.112,0.048-0.176,0.056
		c-0.473,0.112-0.992-0.104-1.2-0.4c-0.04-0.056-0.111-0.136-0.136-0.192c-0.023-0.048,0-0.36,0.017-0.4
		c0.031-0.072,0.063-0.144,0.104-0.2c0.032-0.04,0.128-0.224,0.224-0.336c0.024-0.032,0.08-0.056,0.088-0.072
		c0.128-0.104,0.272-0.112,0.4-0.216C35.525,19.287,35.941,19.231,35.948,19.415z"/>
	<path class="st3" d="M38.499,18.288c0.049,0.208,0.032,0.695-0.176,0.927c-0.088,0.088-0.231,0.192-0.296,0.336
		c0.048,0.16,0.024,0.424,0.16,0.56c0.184,0.184,0.624,0.232,0.815,0.208c0.072,0.008,0.16-0.04,0.216-0.048
		c0.152-0.008,0.288-0.008,0.432-0.032c0.032-0.032,0.064-0.048,0.097-0.064c0.023,0.008,0.048,0.008,0.063,0.016
		c0.024,0.008,0.08-0.032,0.104-0.024c0.071-0.008,0.184-0.008,0.184,0.032c-0.112,0.152-0.128,0.272-0.184,0.28
		c-0.088,0.032-0.152,0.128-0.225,0.192c-0.023,0-0.144,0.064-0.151,0.064c-0.017,0.016,0.008,0.048-0.008,0.072
		c-0.088,0.128-0.216,0.184-0.36,0.184c0,0.016-0.016,0.032-0.016,0.04c-0.088-0.032-0.072,0.016-0.145,0.024
		c-0.128,0.008-0.287-0.064-0.384-0.008c-0.008-0.016-0.144-0.112-0.151-0.112c-0.008,0.008-0.024,0.024-0.04,0.032
		c-0.016,0-0.296-0.128-0.304-0.128c-0.4-0.28-0.744-0.528-0.855-0.936c-0.024-0.064-0.048-0.12-0.072-0.16
		c-0.048-0.28,0.032-0.72,0.232-0.976c0.071-0.064,0.159-0.168,0.207-0.256c0.049-0.056,0.04-0.152,0.097-0.232
		c0.159-0.224,0.279-0.36,0.535-0.28C38.331,18.095,38.476,18.168,38.499,18.288z M38.075,18.175
		c-0.079,0.048-0.136,0.256-0.159,0.36c-0.032,0.2-0.136,0.648,0.048,0.751c0.016-0.008,0.016-0.016,0.04-0.024
		c0.216-0.16,0.424-0.688,0.359-0.927c-0.008-0.056-0.063-0.088-0.08-0.136c-0.031-0.016-0.063-0.024-0.104-0.056
		C38.148,18.168,38.124,18.16,38.075,18.175z"/>
	<path class="st3" d="M30.27,28.182c-0.009,0.112-0.049,0.28-0.064,0.392c0,0.048,0.032,0.128,0.032,0.16
		c0.04,0.088,0.016,0.16,0.023,0.256c-0.063,0.024-0.04,0.048-0.128,0.064c-0.111,0.088-0.335-0.136-0.415-0.192
		c-0.176-0.128-0.32-0.288-0.424-0.543c-0.032-0.072-0.032-0.376-0.032-0.44c0.016-0.08-0.024-0.136-0.024-0.192
		c0.017-0.144-0.008-0.32,0-0.456c0.009-0.144-0.04-0.456-0.168-0.464c-0.031,0.04-0.079,0.064-0.111,0.096
		c-0.096,0.144-0.12,0.344-0.168,0.536c-0.024,0.064-0.08,0.16-0.104,0.232c-0.031,0.104-0.023,0.24-0.04,0.352
		c-0.016,0.16,0,0.56-0.119,0.624c-0.112-0.12-0.393-0.104-0.432-0.312c-0.024-0.04,0-0.104,0.008-0.144
		c0-0.048-0.032-0.128-0.04-0.16c-0.032-0.072,0-0.168-0.024-0.256c-0.016-0.048-0.056-0.144-0.063-0.2
		c0.008-0.064-0.008-0.272-0.024-0.376c-0.04-0.24,0.008-0.344,0.008-0.6c-0.008-0.08-0.016-0.168,0.04-0.312l0.024-0.216
		c0-0.008-0.008-0.008-0.016-0.016c-0.208,0.112-0.385,0.32-0.544,0.479c-0.28,0.28-0.56,0.552-0.848,0.824v0.056
		c0.151,0.144,0.416,0.608,0.376,0.856c-0.008,0.048,0.048,0.063,0.023,0.112c-0.008,0.008-0.031,0.008-0.04,0.04
		c0.017,0.008,0.04,0.024,0.057,0.04c-0.04,0.072-0.048,0.192-0.097,0.264c-0.056,0.088-0.159,0.144-0.231,0.216
		c-0.144-0.064-0.36,0.096-0.544,0.112c-0.056-0.064-0.12-0.088-0.191-0.136c-0.057-0.056-0.104-0.12-0.16-0.176
		c-0.016-0.008-0.04-0.008-0.056-0.016c-0.024-0.04-0.097-0.32-0.064-0.4c0.024-0.072,0.04-0.192,0.08-0.272
		c0.032-0.064,0.088-0.2,0.256-0.32c0.008-0.416-0.408-1.055-0.664-1.223c-0.104-0.072-0.231-0.192-0.423-0.104
		c-0.152,0.064-0.265,0.184-0.393,0.272c-0.04,0.008-0.071,0.048-0.104,0.064c-0.048,0.024-0.08,0.104-0.128,0.128
		c-0.032,0.024-0.048,0-0.072,0.032l0.088-0.12c0.057-0.04,0.097-0.104,0.152-0.144c0.216-0.176,0.399-0.4,0.735-0.408l0.256,0.104
		c0.024,0.032,0.04,0.056,0.064,0.08c0.063,0.048,0.151,0.08,0.199,0.136c0.017,0.016,0,0.04,0.017,0.056l0.079,0.024
		c0.049,0.056,0.089,0.112,0.137,0.16l0.096,0.072c0.104,0.144,0.216,0.304,0.392,0.392l0.112-0.096
		c0.208-0.16,0.392-0.335,0.607-0.496c0.312-0.224,0.6-0.472,0.871-0.728c0-0.408,0.072-0.696,0.232-0.952
		c0.023-0.04,0.023-0.088,0.056-0.112c0.048-0.048,0.145-0.112,0.216-0.136c0.048-0.016,0.08,0,0.12-0.024
		c0.104,0.016,0.184,0.016,0.184,0.136c0.032,0.032-0.008,0.264-0.04,0.336l-0.096,0.096c-0.144,0.2-0.288,0.408-0.464,0.576
		c-0.016,0.192-0.031,0.464-0.04,0.64c-0.008,0.128,0.017,0.88,0.064,1.008c0.04,0.088,0.063,0.2,0.08,0.328h0.016
		c0-0.008,0-0.008-0.008-0.016c0.08-0.12,0.088-0.296,0.128-0.448c0.048-0.184,0.136-0.384,0.216-0.568
		c0.024-0.032,0.056-0.072,0.088-0.096c0.016-0.048,0.024-0.104,0.056-0.136c0.177-0.176,0.72-0.064,0.88,0.008
		c0.208,0.104,0.296,0.296,0.399,0.536l0.048,0.216c0.057,0.112,0.049,0.232,0.064,0.352c0.008,0.024-0.016,0.104,0,0.128
		c0.008,0,0.016,0.008,0.024,0.008c0.031,0.08-0.024,0.224-0.032,0.296C30.23,28.118,30.278,28.15,30.27,28.182z M26.144,28.086
		c-0.008-0.008-0.017-0.04-0.024-0.016c0,0.016-0.063,0.04-0.063,0.08c0,0.064,0.063,0.04,0.088,0.008
		C26.144,28.142,26.159,28.094,26.144,28.086z M28.239,25.679c0.008,0.024,0,0.016,0.016,0.016c0.104-0.072,0.176-0.184,0.256-0.288
		c0.088-0.112,0.216-0.216,0.296-0.344c0.088-0.152,0.017-0.272-0.151-0.288c-0.024,0.016-0.057,0.016-0.097,0.016
		c-0.031,0.04-0.088,0.064-0.119,0.112c-0.057,0.08-0.128,0.24-0.16,0.335c-0.024,0.072,0,0.168-0.016,0.208
		c-0.009,0.016-0.024,0.032-0.04,0.04C28.206,25.544,28.231,25.663,28.239,25.679z"/>
	<path class="st3" d="M32.671,26.031l0.184,0.208c0.04,0.024,0.128,0.2,0.168,0.232c0.057,0.072,0.08,0.136,0.128,0.208
		c0.032,0.04,0.097,0.056,0.12,0.096c0.024,0.04,0.128,0.256,0.136,0.296c0,0.016-0.031,0.056-0.008,0.088
		c0.024,0.04,0.04-0.008,0.056,0.064c0,0,0.009-0.008,0.009,0.008c-0.009,0.008-0.009,0.016-0.009,0.024
		c0.104,0.088,0.049,0.256,0.112,0.375c0.056,0.056,0.144,0.056,0.264,0.048c0.08-0.048,0.057-0.032,0.145-0.064
		c0.199-0.136,0.399-0.288,0.575-0.408l0.048-0.04c0.185-0.16,0.24-0.192,0.368-0.304l0.16-0.136
		c-0.017,0.032,0.031,0.048-0.048,0.096c-0.089,0.048-0.104,0.063-0.208,0.152c-0.097,0.088-0.256,0.24-0.328,0.288l-0.136,0.176
		c-0.16,0.136-0.344,0.392-0.552,0.456c-0.312,0.096-0.408,0.096-0.527,0.008c-0.129-0.088-0.272-0.328-0.32-0.488
		c-0.016-0.08,0-0.136-0.032-0.2c-0.096-0.168-0.231-0.288-0.376-0.416c-0.088-0.08-0.136-0.176-0.231-0.208
		c-0.016,0.008-0.056,0.024-0.063,0.04c-0.024,0.032-0.04,0.208-0.049,0.248c-0.008,0.04,0.024,0.04,0.032,0.08
		c0.017,0.04-0.016,0.064-0.016,0.08c0,0.024,0.032,0.072,0.032,0.096c-0.009,0.016-0.032,0.008-0.032,0.04
		c0.008,0.04,0.04,0.088,0.048,0.12l-0.024,0.136c0.009,0.048,0.032,0.064,0.032,0.144c-0.056,0.032-0.063,0.048-0.063,0.136
		c0.023,0.576-0.512,0.624-0.664,0.592c-0.432,0-0.567-0.112-0.672-0.488c-0.016-0.096,0-0.2-0.008-0.304
		c-0.032-0.256,0.08-0.592,0.208-0.832c0.08-0.136,0.288-0.424,0.399-0.504c0.057-0.048,0.376-0.256,0.472-0.288
		c0.04-0.008,0.088-0.008,0.128-0.016c0.032-0.008,0.097-0.032,0.145-0.024C32.375,25.863,32.615,25.959,32.671,26.031z
		 M31.864,26.823c-0.071,0.096-0.104,0.216-0.176,0.328c0,0.184-0.04,0.28-0.096,0.384c0.032,0.032,0.032,0.024,0.04,0.064
		c-0.04,0.024-0.04,0.008-0.048,0.064c0.031,0.04,0,0.128,0.04,0.16c0.071,0.04,0.287,0.088,0.287,0.08
		c0.04-0.056,0.104-0.176,0.128-0.248c0.032-0.063,0.032-0.328,0.064-0.583c0.023-0.176,0.056-0.336,0.04-0.375
		C32.192,26.567,31.936,26.719,31.864,26.823z M33.415,27.255h0.031c0,0,0-0.016,0.008-0.024
		C33.415,27.246,33.447,27.222,33.415,27.255z"/>
	<path class="st3" d="M35.704,25.695c0.048,0.048-0.056,0.328-0.104,0.408c-0.008,0.032-0.088,0.144-0.064,0.16
		c0.072,0.088,0.225,0.184,0.368,0.192c0.024,0,0.12-0.04,0.271-0.04c0.064-0.008,0.152-0.04,0.2-0.056
		c0.104-0.032,0.344-0.032,0.424,0c0.023,0.008,0.023,0.04,0.023,0.056c0.017,0.008,0.057,0.008,0.072,0.016
		c0.008,0.016,0.008,0.032,0.008,0.048c0.009,0.016,0.049,0.048,0.064,0.056c0.008,0.04,0,0.072,0.016,0.12
		c0.017,0.016,0.064,0.048,0.064,0.072c0.031,0.048-0.017,0.112,0.008,0.152c0,0,0.008,0.008,0.016,0.008
		c0.064,0.304,0.04,0.376,0.032,0.424c-0.016,0.048,0.024,0.04,0.024,0.072c-0.009,0.016-0.032,0.008-0.017,0.04
		c0,0.008,0.024,0.344-0.008,0.368c0,0.16-0.016,0.456,0.024,0.528c-0.024,0.048,0.088,0.12,0.056,0.224
		c0,0.04,0.04,0.056,0.008,0.152c-0.008,0.024-0.048,0.056-0.048,0.072c-0.024,0.072,0.024,0.072-0.056,0.104
		c-0.048-0.048-0.168-0.016-0.232-0.04l-0.088-0.064c-0.056-0.016-0.096-0.008-0.151-0.024c-0.04-0.016-0.049-0.08-0.08-0.104
		c-0.017-0.008-0.048,0-0.08,0.008v-0.024c-0.248-0.312-0.36-0.52-0.456-1.031c-0.016-0.152-0.008-0.424-0.008-0.6v-0.112
		c-0.032-0.056,0.016-0.128-0.056-0.2c-0.048-0.024-0.104,0.008-0.168-0.008c-0.024-0.008-0.152-0.04-0.176-0.04
		c-0.072-0.016-0.12-0.104-0.208-0.104c-0.057,0.12-0.192,0.248-0.344,0.288c0.008-0.008,0.008-0.008,0.016-0.008
		c0.024-0.032,0.048-0.04,0.08-0.072c0.04-0.032,0.2-0.271,0.191-0.32c-0.023-0.032-0.031-0.176-0.04-0.28
		c0-0.256,0.16-0.479,0.376-0.56C35.697,25.599,35.712,25.615,35.704,25.695z M35.521,25.863c-0.008,0.032-0.016,0.04-0.024,0.096
		c-0.023,0.04-0.008,0.12-0.016,0.184c0,0.008,0.008,0,0.016,0.008c0-0.016,0-0.008,0.009-0.024
		c0.048-0.056,0.088-0.152,0.096-0.224c-0.008-0.008-0.017-0.024-0.024-0.048C35.553,25.863,35.536,25.863,35.521,25.863z"/>
	<path class="st3" d="M39.343,24.36c0.128,0.256,0.048,0.488,0.008,0.808c0,0.048,0.017,0.336,0.024,0.376
		c0.016,0.048-0.008,0.072-0.008,0.104l-0.08,0.864c-0.016,0.04,0.032,0.04,0.024,0.064c0,0.008-0.04,0.032-0.04,0.032l0.016,0.48
		c-0.008,0.024-0.048,0.096-0.056,0.136c-0.009,0.048,0.023,0.088,0.016,0.12c-0.008,0.032-0.032,0.04-0.04,0.096l-0.08,0.552
		c0.064,0.232,0.04,0.248,0.024,0.28c0.048-0.008,0.071,0.008,0.096,0c0.128-0.136,0.176-0.32,0.264-0.496
		c0.145-0.28,0.296-0.567,0.448-0.848c0.096-0.184,0.199-0.463,0.455-0.487c0.017,0.016,0,0.008,0.024,0.016
		c0.008,0.024,0.016,0.032,0.016,0.072c-0.04,0.064-0.056,0.271-0.096,0.359c-0.063,0.152-0.184,0.32-0.256,0.472
		c-0.04,0.096,0,0.192-0.04,0.304c-0.023,0.08-0.056,0.296-0.023,0.416c0.144,0.552,0.927,1.016,1.446,1.215
		c0.064,0.024,0.4,0.064,0.488,0.04c0.048-0.016,0.048-0.064,0.104-0.08v0.04c-0.023,0.016-0.023,0.056-0.048,0.08
		c-0.056,0.04-0.256,0.136-0.312,0.16c-0.271,0.088-0.479,0.008-0.728-0.072c-0.592-0.168-1.048-0.671-1.184-1.311
		c-0.016-0.112,0.048-0.232,0.072-0.312c0.063-0.184,0.08-0.368,0.16-0.536c0.063-0.128,0.159-0.248,0.176-0.432h-0.017v0.016
		c-0.271,0.264-0.367,0.712-0.52,1.104c-0.04,0.088-0.016,0.168-0.056,0.256l-0.056,0.048c-0.024,0.064,0.016,0.136-0.009,0.176
		c-0.031,0.056-0.08,0.168-0.111,0.216c-0.024,0.016-0.057,0.032-0.08,0.056c-0.024,0.04,0.008,0.048,0,0.08
		c-0.017,0.008-0.024,0.024-0.04,0.04c-0.008,0.016,0.023,0.024,0.016,0.056c-0.008,0-0.264,0.28-0.287,0.304
		c-0.017,0.016-0.248,0.064-0.28,0.056c-0.024-0.008-0.04-0.032-0.08-0.024c-0.016,0-0.063,0.032-0.08,0.04
		c-0.224,0.048-0.504-0.12-0.607-0.392c-0.056-0.032-0.064-0.104-0.08-0.256v-0.2l0.176-0.408c0-0.016-0.008-0.04-0.016-0.063
		c0-0.072,0.239-0.664,0.288-0.808c0.023-0.08,0.352-0.848,0.384-0.928c-0.009-0.088,0.056-0.192,0.079-0.296v-0.104
		c0.057-0.192,0.104-0.408,0.168-0.607c0.049-0.176,0.097-0.576,0.176-0.936C39.232,24.304,39.295,24.272,39.343,24.36z"/>
</g>
<path id="cap" class="st3" d="M45.15,3.08v0.59c0,0.29-0.81,0.52-1.8,0.52H23.06c-0.99,0-1.8-0.23-1.8-0.52V3.08
	C21.26,2.8,23.07,0,23.98,0h18.45C43.34,0,45.15,2.8,45.15,3.08z"/>
<g id="highlight">
	<path class="st10" d="M39.681,46.436c0.295,1.729,1.1,3.48,1.512,5.163c0.287,1.176,0.386,2.312,0.506,3.506
		c0.038,0.376,0.155,0.766,0.438,1.017c0.252,0.223,0.595,0.302,0.923,0.375c0.573,0.126,1.152,0.253,1.738,0.247
		c1.656-0.016,2.154-1.043,1.807-2.541c-0.446-1.923-0.937-3.836-1.408-5.753c-0.352-1.43-0.481-3.827-1.697-4.84
		c-0.451-0.376-1.057-0.536-1.644-0.515c-0.633,0.023-1.275,0.261-1.699,0.732c-0.473,0.526-0.623,1.281-0.558,1.986
		C39.618,46.021,39.646,46.228,39.681,46.436z"/>
	<path class="st10" d="M59.8,180.02c-0.25,0.17-0.5,0.34-0.76,0.5c-0.19,0.12-0.39,0.24-0.59,0.35c-0.09,0.06-0.19,0.11-0.28,0.15
		c-0.25,0.15-0.51,0.29-0.78,0.42c-0.34,0.17-0.68,0.34-1.03,0.5c-0.12,0.06-0.25,0.11-0.37,0.17c-0.48,0.21-0.95,0.42-1.43,0.61
		c-0.16,0.07-0.32,0.13-0.47,0.19c-1.7-16.96-4.2-94.31-4.28-95.65c-0.2-3.21-0.91-6.38-2.09-9.37c-1.29-3.28-3.29-6.34-4.06-9.8
		c-0.32-1.42-0.46-2.91-0.61-4.35c-0.05-0.46-0.61-4.67-0.33-4.78c0.97-0.36,2.03-0.48,3.05-0.36c0.37,0.04,1.24,0.08,1.52,0.34
		c0.22,0.2,0.11,0.21,0.17,0.51c0.19,0.99,0.18,2.07,0.3,3.09c0.29,2.56,0.47,5.19,1.4,7.62c0.89,2.31,2.73,3.8,4.18,5.72
		c0.68,0.89,1.17,1.88,1.41,2.98c0.38,1.71,0.46,3.41,0.55,5.15C55.41,86.24,58.66,158.76,59.8,180.02z"/>
</g>
<g id="shadow">
	<path class="st11" d="M26.54,0c-0.11,0.98-0.24,2.19-0.4,3.59c-0.02,0.2-0.04,0.4-0.07,0.6c-1.8,16.43-6.26,56.53-7.08,60.79
		c-1.04,5.36-6.68,4.52-9.23,12.98c-2.54,8.47-2.2,93.17-1.38,101.07c0.08,0.79,0.14,1.5,0.19,2.16c-3.67-2.03-6.6-4.87-7.87-9.04
		c-0.07-0.22-0.13-0.45-0.19-0.69c-0.04-0.12-0.07-0.25-0.09-0.38c-0.05-0.2-0.09-0.39-0.13-0.59c-0.07-0.41-0.13-0.82-0.18-1.25
		c-0.08-0.6-0.11-1.21-0.11-1.83V87.42c0-7.23,3.15-13.76,8.16-18.28l0.01-0.01c1.37-1.46,2.98-3.47,4.43-6.08
		c1.89-3.41,2.8-6.58,3.27-8.89c0.01-0.05,0.02-0.09,0.03-0.14l3.09-17.85l3.84-22.14c-0.21,0.01-0.4,0.02-0.58,0
		c-0.51-0.01-0.85-0.11-1.05-0.33c-0.83-0.9-0.18-2.87,0.89-6.06C22.3,7,22.54,6.36,22.8,5.73c0.16-0.38,0.37-1.23,0.72-1.46
		c0.06-0.04,0.13-0.06,0.2-0.08h-0.66c-0.99,0-1.8-0.23-1.8-0.52V3.08C21.26,2.8,23.07,0,23.98,0H26.54z"/>
</g>
<g>
</g>
<g>
</g>
<g>
</g>
<g>
</g>
<g>
</g>
</svg>
