<?xml version="1.0" encoding="utf-8"?>
<!-- Generator: Adobe Illustrator 25.0.0, SVG Export Plug-In . SVG Version: 6.00 Build 0)  -->
<svg version="1.1" id="Layer_2" xmlns="http://www.w3.org/2000/svg" xmlns:xlink="http://www.w3.org/1999/xlink" x="0px" y="0px"
	 viewBox="0 0 66.4 186.47" style="enable-background:new 0 0 66.4 186.47;" xml:space="preserve">
<style type="text/css">
	.st0{opacity:0.74;fill:#542210;}
	.st1{opacity:0.91;fill:#7A3F0F;}
	.st2{fill:#FCDD2E;}
	.st3{fill:#19345A;}
	.st4{fill:#8EA5A2;}
	.st5{fill:#F9E3CD;}
	.st6{fill:#8EA5A2;stroke:#F9E3CD;stroke-width:0.5;stroke-miterlimit:10;}
	.st7{fill:#F9FAF5;}
	.st8{fill:#7C8993;}
	.st9{fill:#BDE9F9;}
	.st10{fill:#FF6368;}
	.st11{fill:#1A1A1A;}
	.st12{fill:#F2F2F2;}
	.st13{opacity:0.75;fill:#EDAC98;}
	.st14{opacity:0.35;fill:#211106;}
</style>
<path id="beer" class="st0" d="M58.25,69.14c-1.37-1.46-2.98-3.47-4.44-6.09c-1.93-3.48-2.83-6.71-3.29-9.03l-0.01,0.03
	l-0.743-4.277c-10.003,2.123-20.005-2.671-30.007-0.853c-0.983,0.246-2.028,0.491-3.102,0.722L15.9,54.02
	c-0.01,0.05-0.02,0.09-0.03,0.14c-0.47,2.31-1.38,5.48-3.27,8.89c-1.45,2.61-3.06,4.62-4.43,6.08l-0.01,0.01
	C3.15,73.66,0,80.19,0,87.42v79.99c0,0.62,0.03,1.23,0.11,1.83c0.05,0.43,0.11,0.84,0.18,1.25c0.04,0.2,0.08,0.39,0.13,0.59
	c0.02,0.13,0.05,0.26,0.09,0.38c0.06,0.24,0.12,0.47,0.19,0.69c1.52,4.98,5.39,8.05,10.07,10.13c0.43,0.19,0.87,0.38,1.33,0.55
	c0.33,0.14,0.68,0.27,1.02,0.39c0.55,0.2,1.1,0.39,1.66,0.57c0.01,0,0.01,0,0.02,0c5.29,1.69,11.6,2.68,18.4,2.68
	c6.15,0,12.47-0.76,18.38-2.68h0.01c0,0,0.01,0,0.02,0c0.26-0.08,0.52-0.17,0.77-0.25c0.3-0.1,0.59-0.21,0.89-0.32
	c0.43-0.16,0.86-0.32,1.29-0.5c0.48-0.19,0.95-0.4,1.43-0.61c0.12-0.06,0.25-0.11,0.37-0.17c0.35-0.16,0.69-0.33,1.03-0.5
	c0.27-0.13,0.53-0.27,0.78-0.42c0.09-0.04,0.19-0.09,0.28-0.15c0.2-0.11,0.4-0.23,0.59-0.35c2.93-1.81,5.11-4.25,6.3-7.33
	c0.12-0.3,0.23-0.61,0.33-0.92v-0.01c0.08-0.25,0.15-0.51,0.21-0.77c0.04-0.14,0.07-0.27,0.1-0.41c0.07-0.26,0.12-0.54,0.16-0.81
	c0.06-0.34,0.11-0.68,0.15-1.03c0.08-0.6,0.11-1.21,0.11-1.83V87.42C66.4,80.2,63.25,73.67,58.25,69.14z"/>
<path id="bottle" class="st1" d="M66.4,87.42v79.99c0,0.62-0.03,1.23-0.11,1.83c-0.04,0.35-0.09,0.69-0.15,1.03
	c-0.04,0.27-0.09,0.55-0.16,0.81c-0.03,0.14-0.06,0.27-0.1,0.41c-0.06,0.26-0.13,0.52-0.21,0.77v0.01c-0.1,0.31-0.21,0.62-0.33,0.92
	c-1.08,2.81-2.99,5.08-5.54,6.83c-0.25,0.17-0.5,0.34-0.76,0.5c-0.19,0.12-0.39,0.24-0.59,0.35c-0.09,0.06-0.19,0.11-0.28,0.15
	c-0.25,0.15-0.51,0.29-0.78,0.42c-0.34,0.17-0.68,0.34-1.03,0.5c-0.12,0.06-0.25,0.11-0.37,0.17c-0.48,0.21-0.95,0.42-1.43,0.61
	c-0.16,0.07-0.32,0.13-0.47,0.19c-0.28,0.11-0.55,0.21-0.82,0.31c-0.3,0.11-0.59,0.22-0.89,0.32c-0.25,0.08-0.51,0.17-0.77,0.25
	c-0.01,0-0.02,0-0.02,0h-0.01c-5.91,1.92-12.23,2.68-18.38,2.68c-6.8,0-13.11-0.99-18.4-2.68c-0.01,0-0.01,0-0.02,0
	c-0.56-0.18-1.11-0.37-1.66-0.57c-0.34-0.12-0.69-0.25-1.02-0.39c-0.46-0.17-0.9-0.36-1.33-0.55c-0.76-0.34-1.49-0.7-2.2-1.09
	c-3.67-2.03-6.6-4.87-7.87-9.04c-0.07-0.22-0.13-0.45-0.19-0.69c-0.04-0.12-0.07-0.25-0.09-0.38c-0.05-0.2-0.09-0.39-0.13-0.59
	c-0.07-0.41-0.13-0.82-0.18-1.25c-0.08-0.6-0.11-1.21-0.11-1.83V87.42c0-7.23,3.15-13.76,8.16-18.28l0.01-0.01
	c1.37-1.46,2.98-3.47,4.43-6.08c1.89-3.41,2.8-6.58,3.27-8.89c0.01-0.05,0.02-0.09,0.03-0.14l3.09-17.85l3.84-22.14
	c-0.21,0.01-0.4,0.02-0.58,0c-0.51-0.01-0.85-0.11-1.05-0.33c-0.83-0.9-0.18-2.87,0.89-6.06C22.3,7,22.54,6.36,22.8,5.73
	c0.16-0.38,0.37-1.23,0.72-1.46c0.06-0.04,0.13-0.06,0.2-0.08c0.02-0.01,0.05-0.01,0.07-0.02c0.78-0.2,1.56-0.41,2.35-0.58
	c0.37-0.09,0.75-0.17,1.13-0.24c2.18-0.42,4.18-0.6,5.93-0.65c1.75,0.05,3.75,0.23,5.93,0.65c1.17,0.22,2.33,0.52,3.48,0.82
	c0.03,0.01,0.05,0.01,0.07,0.02c0.07,0.02,0.14,0.04,0.2,0.08c0.36,0.23,0.57,1.08,0.73,1.46C43.86,6.36,44.1,7,44.32,7.64
	c1.06,3.19,1.72,5.16,0.88,6.06c-0.2,0.21-0.53,0.32-1.03,0.33c-0.18,0.02-0.38,0.01-0.6,0l3.85,22.22l3.09,17.8l0.01-0.03
	c0.46,2.32,1.36,5.55,3.29,9.03c1.46,2.62,3.07,4.63,4.44,6.09C63.25,73.67,66.4,80.2,66.4,87.42z"/>
<g id="label">
	<rect y="94.585" class="st2" width="66.4" height="2.426"/>
	<rect y="97.011" class="st3" width="66.4" height="62.656"/>
	<rect y="159.667" class="st2" width="66.4" height="2.426"/>
</g>
<g id="big_moon">
	<path class="st4" d="M43.718,107.999c0.784-2.247,2.279-4.045,4.142-5.228c2.533-1.616,5.763-2.1,8.822-1.033
		c5.307,1.85,8.111,7.657,6.261,12.964c-0.138,0.397-0.302,0.774-0.484,1.145c-2.235,4.558-7.57,6.828-12.48,5.116
		C44.672,119.112,41.867,113.305,43.718,107.999z"/>
	<path class="st5" d="M47.376,103.915c0.138-0.397,0.302-0.774,0.484-1.145c2.533-1.616,5.763-2.1,8.822-1.033
		c5.307,1.85,8.111,7.657,6.261,12.964c-0.138,0.397-0.302,0.774-0.484,1.145c-2.533,1.616-5.763,2.1-8.822,1.033
		C48.33,115.029,45.526,109.222,47.376,103.915z"/>
	<g id="Layer_12">
		<circle class="st4" cx="59.49" cy="108.91" r="1.802"/>
		<circle class="st4" cx="53.105" cy="109.482" r="0.827"/>
		<circle class="st4" cx="51.177" cy="103.569" r="0.504"/>
		<circle class="st4" cx="48.971" cy="107.048" r="0.938"/>
		<circle class="st4" cx="55.148" cy="114.98" r="0.803"/>
		<circle class="st6" cx="48.711" cy="112.171" r="0.955"/>
	</g>
</g>
<g id="bite">
	<path class="st3" d="M42.002,108.819c1.496,0.46,2.149,1.054,2.372,1.306c0.057,0.064,0.051,0.166-0.01,0.224
		c-0.309,0.295-1.185,1.131-1.196,1.14c0,0,2.264,0.136,2.377,0.246s-2.12,1.793-2.12,1.793s1.559-0.155,1.727,0
		c0.157,0.145-1.329,1.518-1.329,1.518s2.009-0.028,2.678,0c0.798,0.033-1.814,1.699-1.814,1.699s1.322,0.077,1.814-0.009
		c1.256-0.221-0.594,1.461-0.89,2.192c-0.836-0.26-1.672-0.521-2.508-0.781L42.002,108.819z"/>
</g>
<g id="stars">
	<polygon class="st7" points="55.09,153.22 56.03,155.41 54.56,153.53 53.02,157.39 53.52,153.27 51.34,154.21 53.23,152.74 
		49.35,151.19 53.44,151.69 53.44,151.7 53.45,151.69 53.44,151.69 52.41,149.29 54.01,151.35 54.01,151.36 54.02,151.35 
		54.01,151.35 55.54,147.52 55.04,151.6 55.05,151.63 55.06,151.62 57.47,150.59 55.41,152.2 59.22,153.72 	"/>
	<polygon class="st7" points="44.231,153.57 45.733,154.064 44.155,153.966 45.392,156.43 43.572,154.368 43.08,155.861 
		43.179,154.283 40.708,155.524 42.754,153.715 42.758,153.72 42.759,153.711 42.754,153.715 41.108,153.174 42.837,153.283 
		42.841,153.288 42.843,153.279 42.837,153.283 41.609,150.844 43.415,152.884 43.427,152.891 43.429,152.882 43.976,151.233 
		43.871,152.967 46.295,151.741 	"/>
	<polygon class="st7" points="34.144,152.023 35.374,151.537 34.307,152.317 36.42,153.239 34.148,152.888 34.63,154.11 
		33.849,153.043 32.926,155.162 33.273,152.906 33.278,152.907 33.274,152.9 33.273,152.906 31.926,153.438 33.095,152.583 
		33.1,152.585 33.097,152.578 33.095,152.583 31.002,151.673 33.253,152.018 33.265,152.016 33.261,152.009 32.73,150.657 
		33.59,151.828 34.492,149.744 	"/>
</g>
<g>
	<path class="st2" d="M38.502,146.152h-5.121c-0.279,0-0.439-0.16-0.439-0.38c0-0.221,0.16-0.38,0.439-0.38h1.221
		c0.561,0,0.88-0.32,0.88-0.881v-5.961c0-0.561-0.319-0.88-0.88-0.88h-0.561c-0.279,0-0.439-0.16-0.439-0.381
		c0-0.22,0.16-0.38,0.439-0.38h3.801c0.28,0,0.44,0.16,0.44,0.38c0,0.221-0.16,0.381-0.44,0.381h-0.56
		c-0.561,0-0.88,0.319-0.88,0.88v5.961c0,0.561,0.319,0.881,0.88,0.881h1.22c0.28,0,0.44,0.159,0.44,0.38
		C38.943,145.992,38.782,146.152,38.502,146.152z"/>
	<path class="st2" d="M45.182,142.991c-0.44,0-0.88-0.1-1.32-0.3c-0.42-0.2-0.74,0.08-0.74,0.48v2.54c0,0.28-0.16,0.44-0.44,0.44
		h-0.06c-0.28,0-0.44-0.16-0.44-0.44v-5.861c0-1.66,1.2-3.141,3.001-3.141c1.8,0,3.001,1.48,3.001,3.141
		C48.183,141.512,46.982,142.991,45.182,142.991z M45.182,137.591c-1.301,0-2.061,1.12-2.061,2.26c0,1.141,0.76,2.261,2.061,2.261
		c1.3,0,2.061-1.12,2.061-2.261C47.242,138.711,46.482,137.591,45.182,137.591z"/>
	<path class="st2" d="M56.983,146.152h-0.061c-0.279,0-0.439-0.16-0.439-0.44v-2.92c0-0.561-0.32-0.881-0.881-0.881h-2.36
		c-0.56,0-0.88,0.32-0.88,0.881v2.92c0,0.28-0.16,0.44-0.44,0.44h-0.06c-0.28,0-0.44-0.16-0.44-0.44v-5.861
		c0-1.66,1.2-3.141,3.001-3.141c1.8,0,3.001,1.48,3.001,3.141v5.861C57.423,145.992,57.263,146.152,56.983,146.152z M56.483,139.851
		c0-1.14-0.761-2.26-2.061-2.26c-1.301,0-2.061,1.12-2.061,2.26v0.421c0,0.56,0.32,0.88,0.88,0.88h2.36
		c0.561,0,0.881-0.32,0.881-0.88V139.851z"/>
</g>
<g>
	<path class="st7" d="M25.451,128.677c0.027,0.036,0.054,0.072,0.072,0.108c0.117,0.081,0.243,0.18,0.324,0.225
		c0.036,0.018,0.045,0.09,0.09,0.117c0.18,0.135,0.36,0.297,0.486,0.486c0.018-0.01,0.009,0,0.027-0.019l0.063-0.072
		c0.144,0,0.189-0.071,0.288-0.116c0.315-0.145,1.062-0.505,1.432-0.198c0.062,0.045,0.126,0.207,0.152,0.288
		c0.027,0.081-0.009,0.153,0.01,0.252c0.026,0.09,0.035,0.18,0.045,0.271l0.009-0.01c0.072-0.126,0.054-0.018,0.144-0.18
		c0.1-0.081,0.136-0.216,0.207-0.324c0.072-0.099,0.315-0.162,0.495-0.162c0.055,0.054,0.162,0.09,0.207,0.153
		c0.117,0.162,0.198,0.324,0.307,0.504c0.009,0,0.009,0,0.018-0.009c0.055-0.054,0.333-0.297,0.414-0.378
		c0.019-0.027,0.01-0.081,0.045-0.108c0.153-0.144,0.324-0.306,0.46-0.414c0.045-0.036,0.18-0.162,0.243-0.153
		c0.035,0.009-0.055,0-0.027,0.036c-0.019,0.019-0.009,0.036-0.009,0.045c-0.055,0.063-0.055,0.027-0.126,0.063
		c-0.019,0.018-0.045,0.062-0.072,0.09c-0.009,0-0.019,0.009-0.036,0.009c-0.135,0.126-0.252,0.297-0.405,0.478
		c-0.072,0.09-0.387,0.387-0.36,0.54c0.027,0.036,0.279,0.621,0.253,0.711c-0.019,0.108-0.063,0.171-0.055,0.324
		c-0.045,0.027-0.045,0.045-0.107,0.054c0.009,0.072-0.072,0.307-0.108,0.324l-0.171,0.207c-0.009,0.019-0.055,0.019-0.09,0.019
		c-0.063-0.055-0.153-0.081-0.198-0.136c-0.055-0.081-0.216-0.351-0.234-0.44c-0.072-0.226-0.045-0.369-0.009-0.495
		c0-0.055,0.054-0.072,0.072-0.108c0.018-0.072,0-0.207-0.019-0.271l-0.009-0.261c-0.09-0.225-0.153-0.369-0.297-0.459
		c-0.162-0.036-0.288,0.081-0.36,0.207c-0.018,0.081-0.099,0.198-0.171,0.271c0.009,0.107,0.018,0.216,0.054,0.333
		c-0.009,0.026-0.009,0.062-0.018,0.09c0,0.107,0.026,0.234,0.054,0.333c0.036,0.108,0.027,0.243,0,0.351
		c-0.009,0.046,0,0.136-0.009,0.162c0.009,0.027,0,0.145,0,0.153c-0.027,0.135-0.027,0.576-0.019,0.621
		c0.01,0.072,0.055,0.189,0.072,0.252c-0.009,0.072-0.018,0.136-0.018,0.198c0.018,0.234,0.062,0.54,0.081,0.766
		c-0.01,0.045-0.055,0.081-0.045,0.152c0.009,0.019,0.045,0.055,0.054,0.072c0.018,0.09,0,0.207,0.018,0.288
		c0.027,0.09-0.026,0.171,0,0.252c0.019,0.181,0.019,0.405,0.055,0.576c-0.072,0.036-0.081,0.081-0.117,0.108
		c-0.126,0.081-0.378,0.018-0.45-0.108c-0.019-0.054-0.019-0.09-0.054-0.135c-0.334-0.441-0.153-1.351-0.162-2.07l0.009-0.226
		c0.018-0.009,0.018-0.18,0.018-0.288c0-0.144,0.09-0.54,0.108-0.702c0.036-0.369,0.099-0.648,0.072-1.116
		c-0.019-0.333,0.018-0.864-0.189-0.999c-0.054-0.045-0.234-0.045-0.315-0.019c-0.243,0.091-0.495,0.207-0.702,0.315
		c-0.108,0.063-0.342,0.117-0.387,0.234c-0.054,0.099,0.099,0.279,0.135,0.359c0.072,0.162,0.234,0.64,0.198,0.847l-0.063,0.315
		c-0.009,0.026,0,0.018-0.018,0.036c-0.018,0.035-0.045,0.026-0.063,0.054c-0.027,0.062,0.018,0.117,0,0.153
		c-0.009,0.054-0.099,0.099-0.117,0.126v0.071c-0.027,0.036-0.225,0.136-0.288,0.136c-0.054-0.027-0.252-0.01-0.351-0.045
		c-0.126-0.045-0.459-0.172-0.513-0.288l-0.099-0.226c0-0.099-0.009-0.153,0.009-0.243c0.009-0.018,0.054-0.072,0.063-0.09
		l0.018-0.153c0.018-0.054,0.045-0.162,0.072-0.225c0.036-0.072,0.117-0.135,0.153-0.226c0.036-0.107-0.054-0.369-0.063-0.468
		c-0.009-0.072-0.045-0.117-0.063-0.171c0.009-0.027,0.018-0.045,0.018-0.072c-0.027-0.135-0.099-0.252-0.153-0.36
		c0-0.036-0.072-0.144-0.09-0.171l-0.027-0.09c-0.018-0.009-0.045-0.027-0.063-0.045c-0.054-0.072-0.063-0.162-0.153-0.198
		c-0.117-0.072-0.306,0.036-0.396,0.09c-0.117,0.072-0.207,0.162-0.261,0.207c-0.018,0-0.045,0.045-0.045,0
		c0.099-0.126,0.225-0.233,0.36-0.342c0.162-0.126,0.315-0.153,0.576-0.054C25.37,128.668,25.415,128.677,25.451,128.677z
		 M25.74,130.63c-0.081,0.1-0.018,0.181,0,0.315c0.027,0.018,0.045,0.045,0.09,0.063h0.072c0.018-0.055,0-0.091-0.027-0.172
		c-0.018-0.045-0.072-0.054-0.09-0.09c-0.027-0.054-0.009-0.107-0.018-0.152H25.74V130.63z"/>
	<path class="st7" d="M31.941,128.146c0.711-0.126,1.161,0.333,1.261,0.847c0.009,0.054,0.062,0.062,0.081,0.099
		c0.026,0.062-0.027,0.117-0.009,0.198c0,0.009,0.054,0.026,0.054,0.036c-0.009,0.045-0.019,0.071-0.045,0.107
		c0.081,0.055,0.135,0.136,0.225,0.181c-0.009,0.144,0.181,0.188,0.252,0.278c0.162,0.019,0.198-0.062,0.307-0.171
		c0.233-0.198,0.702-0.594,0.828-0.693c0.018,0,0.018,0,0.036,0.019c-0.279,0.279-0.388,0.405-0.495,0.522
		c-0.072,0.045-0.271,0.477-0.315,0.549c-0.009,0.036-0.018,0.072-0.018,0.108c-0.063,0.09-0.198,0.188-0.298,0.207
		c-0.314,0.054-0.611,0.045-0.765-0.081c-0.262-0.207-0.378-1-0.504-1.558c-0.027-0.027-0.019-0.009-0.027-0.027
		c-0.009-0.009-0.009-0.009-0.019-0.009c-0.071,0.423-0.144,0.783-0.278,1.071c-0.081,0.171-0.09,0.486-0.181,0.576
		c-0.045,0.045-0.09,0.081-0.144,0.081c-0.234,0.099-0.433-0.207-0.54-0.307l-0.117-0.054c-0.072-0.062-0.153-0.144-0.216-0.207
		c-0.019-0.027-0.063-0.045-0.091-0.054c-0.225-0.378-0.197-0.883,0.153-1.27l0.18-0.108c0.162-0.135,0.315-0.288,0.514-0.342
		H31.941z M31.716,128.956c-0.055,0.071-0.198,0.207-0.198,0.359c0,0.162,0.081,0.298,0.153,0.414
		c0.135,0.027,0.225,0.036,0.342,0.046c0.135-0.333,0.306-0.685,0.414-1.045c0.018,0.009,0.027,0.009,0.045,0.009
		c0-0.035,0-0.035-0.009-0.071C32.094,128.515,31.887,128.731,31.716,128.956z"/>
	<path class="st7" d="M36.225,128.658c-0.019,0.027-0.019,0.046-0.027,0.081c-0.009-0.018-0.009-0.009-0.018-0.035
		c-0.019-0.019-0.027-0.055-0.045-0.072c-0.252,0.045-0.486,0.09-0.667,0.216c-0.071,0.045-0.126,0.09-0.197,0.153
		c-0.063,0.054-0.153,0.18-0.181,0.252l-0.045,0.108c-0.135,0.423,0.045,0.737,0.396,0.854c0.081,0.027,0.09,0.019,0.171,0.045
		c0.117,0.045,0.288,0.091,0.45,0.045c0.126-0.035,0.153-0.018,0.252-0.071c0.171-0.063,0.333-0.145,0.369-0.171
		c0.117-0.072,0.198-0.136,0.288-0.217c0.063-0.026,0.135-0.036,0.189-0.081l0.44-0.342c0.126-0.099,0.171-0.171,0.324-0.279
		c0.081-0.026,0.117-0.099,0.216-0.117c-0.054,0.036-0.081,0.1-0.107,0.136c-0.019,0.036-0.055,0.036-0.09,0.081
		c-0.046,0.045-0.117,0.126-0.172,0.171c-0.026,0.036-0.099,0.045-0.144,0.09c-0.045,0.054-0.09,0.135-0.153,0.18
		c-0.072,0.055-0.171,0.162-0.333,0.271c-0.081,0.054-0.144,0.081-0.216,0.153c-0.081,0.081-0.117,0.107-0.279,0.225
		c-0.135,0.063-0.171,0.063-0.198,0.063c-0.054,0.018-0.107,0.09-0.152,0.107c-0.027,0-0.127,0.055-0.198,0.063
		c-0.531,0.126-1.116-0.117-1.351-0.45c-0.045-0.063-0.126-0.153-0.153-0.216c-0.026-0.055,0-0.405,0.019-0.45
		c0.036-0.081,0.071-0.162,0.117-0.226c0.035-0.045,0.144-0.252,0.252-0.378c0.026-0.036,0.09-0.062,0.099-0.081
		c0.145-0.117,0.306-0.126,0.45-0.243C35.747,128.515,36.216,128.451,36.225,128.658z"/>
	<path class="st7" d="M39.096,127.39c0.054,0.233,0.036,0.783-0.198,1.044c-0.099,0.099-0.261,0.216-0.333,0.378
		c0.054,0.181,0.027,0.478,0.18,0.631c0.207,0.207,0.702,0.261,0.919,0.233c0.081,0.009,0.18-0.045,0.243-0.054
		c0.171-0.009,0.323-0.009,0.485-0.036c0.036-0.036,0.072-0.054,0.108-0.072c0.027,0.009,0.054,0.009,0.072,0.019
		c0.026,0.009,0.09-0.036,0.117-0.027c0.081-0.009,0.207-0.009,0.207,0.036c-0.126,0.171-0.145,0.306-0.207,0.315
		c-0.1,0.035-0.172,0.144-0.253,0.216c-0.026,0-0.161,0.072-0.171,0.072c-0.018,0.018,0.01,0.054-0.009,0.081
		c-0.099,0.144-0.243,0.207-0.405,0.207c0,0.018-0.018,0.035-0.018,0.045c-0.1-0.036-0.081,0.018-0.162,0.026
		c-0.145,0.01-0.324-0.071-0.433-0.009c-0.009-0.018-0.162-0.126-0.171-0.126c-0.009,0.009-0.026,0.027-0.045,0.036
		c-0.018,0-0.333-0.145-0.342-0.145c-0.45-0.314-0.838-0.594-0.964-1.053c-0.026-0.072-0.054-0.135-0.081-0.181
		c-0.054-0.314,0.036-0.81,0.262-1.098c0.081-0.072,0.18-0.189,0.233-0.288c0.055-0.063,0.046-0.171,0.108-0.262
		c0.18-0.252,0.315-0.404,0.604-0.314C38.906,127.173,39.069,127.254,39.096,127.39z M38.618,127.264
		c-0.09,0.054-0.152,0.288-0.18,0.404c-0.036,0.226-0.153,0.729,0.054,0.847c0.019-0.009,0.019-0.018,0.045-0.027
		c0.243-0.18,0.478-0.773,0.405-1.044c-0.009-0.063-0.072-0.099-0.09-0.153c-0.036-0.018-0.072-0.026-0.117-0.062
		C38.699,127.254,38.673,127.245,38.618,127.264z"/>
	<path class="st7" d="M50.231,130.649c-0.01,0.126-0.055,0.314-0.072,0.441c0,0.054,0.036,0.144,0.036,0.18
		c0.045,0.099,0.018,0.18,0.026,0.288c-0.071,0.027-0.045,0.054-0.144,0.072c-0.126,0.099-0.378-0.153-0.468-0.217
		c-0.198-0.144-0.36-0.323-0.478-0.611c-0.036-0.081-0.036-0.424-0.036-0.496c0.019-0.09-0.027-0.152-0.027-0.216
		c0.019-0.162-0.009-0.36,0-0.513c0.01-0.162-0.045-0.514-0.188-0.522c-0.036,0.045-0.09,0.072-0.126,0.108
		c-0.108,0.162-0.135,0.387-0.189,0.603c-0.026,0.072-0.09,0.181-0.117,0.262c-0.036,0.117-0.026,0.27-0.045,0.396
		c-0.018,0.181,0,0.631-0.135,0.702c-0.126-0.135-0.441-0.116-0.486-0.351c-0.027-0.045,0-0.117,0.009-0.162
		c0-0.054-0.036-0.145-0.045-0.18c-0.036-0.081,0-0.189-0.026-0.288c-0.019-0.055-0.063-0.162-0.072-0.226
		c0.009-0.072-0.009-0.306-0.027-0.423c-0.045-0.271,0.009-0.388,0.009-0.676c-0.009-0.09-0.018-0.188,0.046-0.351l0.026-0.243
		c0-0.009-0.009-0.009-0.018-0.018c-0.234,0.126-0.433,0.359-0.612,0.54c-0.315,0.314-0.63,0.621-0.954,0.927v0.063
		c0.171,0.162,0.468,0.684,0.423,0.963c-0.009,0.054,0.054,0.072,0.027,0.126c-0.01,0.009-0.036,0.009-0.045,0.045
		c0.018,0.009,0.045,0.027,0.062,0.045c-0.045,0.081-0.054,0.217-0.108,0.298c-0.062,0.099-0.18,0.162-0.261,0.242
		c-0.162-0.071-0.405,0.108-0.612,0.127c-0.062-0.072-0.135-0.1-0.216-0.153c-0.063-0.063-0.117-0.135-0.18-0.198
		c-0.019-0.009-0.045-0.009-0.063-0.018c-0.027-0.045-0.108-0.36-0.072-0.45c0.027-0.081,0.045-0.217,0.091-0.307
		c0.035-0.072,0.099-0.225,0.287-0.36c0.01-0.468-0.459-1.188-0.747-1.377c-0.116-0.081-0.261-0.216-0.477-0.117
		c-0.171,0.072-0.297,0.207-0.441,0.307c-0.045,0.009-0.081,0.054-0.117,0.071c-0.054,0.027-0.09,0.117-0.144,0.145
		c-0.036,0.026-0.055,0-0.081,0.036l0.099-0.136c0.063-0.045,0.108-0.116,0.171-0.161c0.243-0.198,0.45-0.45,0.828-0.46l0.288,0.117
		c0.027,0.036,0.045,0.063,0.072,0.09c0.072,0.055,0.171,0.091,0.226,0.153c0.018,0.019,0,0.045,0.018,0.063l0.09,0.026
		c0.055,0.063,0.1,0.126,0.153,0.181l0.108,0.081c0.116,0.162,0.243,0.342,0.44,0.44l0.126-0.107
		c0.234-0.181,0.441-0.378,0.685-0.559c0.352-0.252,0.675-0.531,0.981-0.819c0-0.459,0.081-0.783,0.261-1.071
		c0.027-0.045,0.027-0.099,0.063-0.126c0.054-0.054,0.162-0.126,0.243-0.153c0.054-0.018,0.09,0,0.135-0.026
		c0.117,0.018,0.207,0.018,0.207,0.152c0.036,0.036-0.009,0.298-0.045,0.379l-0.108,0.107c-0.162,0.226-0.324,0.459-0.521,0.648
		c-0.019,0.216-0.036,0.522-0.046,0.721c-0.009,0.144,0.019,0.99,0.072,1.134c0.045,0.1,0.072,0.226,0.09,0.369h0.019
		c0-0.009,0-0.009-0.009-0.018c0.09-0.136,0.099-0.333,0.144-0.505c0.054-0.207,0.153-0.432,0.243-0.639
		c0.027-0.036,0.063-0.081,0.099-0.108c0.019-0.054,0.027-0.117,0.063-0.152c0.198-0.198,0.811-0.072,0.99,0.009
		c0.234,0.117,0.333,0.333,0.45,0.603l0.054,0.243c0.063,0.126,0.055,0.262,0.072,0.396c0.009,0.027-0.018,0.117,0,0.144
		c0.009,0,0.018,0.01,0.027,0.01c0.036,0.09-0.027,0.252-0.036,0.333C50.186,130.576,50.24,130.612,50.231,130.649z M45.585,130.54
		c-0.009-0.009-0.019-0.045-0.027-0.018c0,0.018-0.072,0.045-0.072,0.09c0,0.072,0.072,0.045,0.1,0.009
		C45.585,130.604,45.603,130.549,45.585,130.54z M47.944,127.83c0.009,0.027,0,0.019,0.019,0.019
		c0.116-0.081,0.197-0.207,0.288-0.324c0.099-0.126,0.242-0.243,0.333-0.387c0.099-0.172,0.018-0.307-0.172-0.324
		c-0.026,0.018-0.062,0.018-0.107,0.018c-0.036,0.045-0.1,0.072-0.135,0.126c-0.063,0.09-0.145,0.271-0.181,0.378
		c-0.026,0.081,0,0.189-0.018,0.234c-0.009,0.018-0.027,0.036-0.045,0.045C47.907,127.678,47.935,127.813,47.944,127.83z"/>
	<path class="st7" d="M52.929,128.227l0.207,0.234c0.045,0.026,0.144,0.225,0.188,0.261c0.063,0.081,0.091,0.153,0.145,0.234
		c0.036,0.045,0.108,0.062,0.135,0.107c0.027,0.045,0.145,0.288,0.153,0.333c0,0.019-0.036,0.063-0.009,0.1
		c0.026,0.045,0.045-0.009,0.062,0.072c0,0,0.009-0.01,0.009,0.009c-0.009,0.009-0.009,0.018-0.009,0.026
		c0.117,0.1,0.055,0.288,0.126,0.424c0.063,0.062,0.162,0.062,0.298,0.054c0.09-0.054,0.062-0.036,0.161-0.072
		c0.226-0.152,0.45-0.324,0.648-0.459l0.055-0.045c0.207-0.18,0.27-0.216,0.414-0.342l0.18-0.153
		c-0.018,0.036,0.036,0.054-0.054,0.108c-0.1,0.054-0.117,0.071-0.234,0.171c-0.108,0.099-0.288,0.27-0.369,0.324l-0.153,0.197
		c-0.18,0.153-0.387,0.441-0.621,0.514c-0.351,0.108-0.459,0.108-0.594,0.009c-0.145-0.099-0.307-0.369-0.36-0.549
		c-0.018-0.09,0-0.153-0.036-0.226c-0.108-0.188-0.261-0.324-0.423-0.468c-0.1-0.09-0.153-0.198-0.262-0.234
		c-0.018,0.01-0.062,0.027-0.071,0.045c-0.027,0.036-0.045,0.234-0.055,0.279c-0.009,0.045,0.027,0.045,0.036,0.09
		c0.019,0.045-0.018,0.072-0.018,0.091c0,0.026,0.036,0.081,0.036,0.107c-0.009,0.019-0.036,0.009-0.036,0.045
		c0.009,0.045,0.045,0.1,0.054,0.136l-0.026,0.152c0.009,0.055,0.035,0.072,0.035,0.162c-0.062,0.036-0.071,0.055-0.071,0.153
		c0.026,0.648-0.576,0.702-0.747,0.666c-0.486,0-0.64-0.126-0.757-0.549c-0.018-0.108,0-0.226-0.009-0.343
		c-0.036-0.288,0.09-0.666,0.234-0.936c0.09-0.153,0.323-0.478,0.45-0.567c0.062-0.054,0.423-0.288,0.53-0.324
		c0.046-0.009,0.1-0.009,0.145-0.018c0.036-0.01,0.108-0.036,0.162-0.027C52.596,128.037,52.865,128.146,52.929,128.227z
		 M52.02,129.118c-0.081,0.107-0.117,0.243-0.198,0.369c0,0.207-0.045,0.314-0.108,0.432c0.036,0.036,0.036,0.027,0.045,0.072
		c-0.045,0.027-0.045,0.009-0.054,0.072c0.036,0.045,0,0.144,0.045,0.18c0.081,0.045,0.324,0.099,0.324,0.09
		c0.045-0.062,0.117-0.198,0.145-0.279c0.035-0.071,0.035-0.369,0.071-0.657c0.027-0.197,0.063-0.378,0.045-0.423
		C52.389,128.83,52.101,129.001,52.02,129.118z M53.766,129.604h0.036c0,0,0-0.018,0.009-0.026
		C53.766,129.595,53.802,129.568,53.766,129.604z"/>
	<path class="st7" d="M56.34,127.849c0.054,0.054-0.063,0.369-0.117,0.459c-0.009,0.036-0.1,0.162-0.072,0.18
		c0.081,0.1,0.252,0.207,0.414,0.217c0.027,0,0.135-0.046,0.307-0.046c0.071-0.009,0.171-0.045,0.225-0.062
		c0.117-0.036,0.387-0.036,0.478,0c0.026,0.009,0.026,0.045,0.026,0.062c0.019,0.01,0.063,0.01,0.081,0.019
		c0.009,0.018,0.009,0.036,0.009,0.054c0.01,0.019,0.055,0.055,0.072,0.063c0.009,0.045,0,0.081,0.019,0.135
		c0.018,0.018,0.071,0.054,0.071,0.081c0.036,0.054-0.018,0.126,0.01,0.171c0,0,0.009,0.009,0.018,0.009
		c0.072,0.343,0.045,0.424,0.036,0.478c-0.019,0.054,0.027,0.045,0.027,0.081c-0.01,0.018-0.036,0.009-0.019,0.045
		c0,0.009,0.027,0.387-0.009,0.414c0,0.18-0.019,0.514,0.027,0.595c-0.027,0.054,0.099,0.135,0.062,0.252
		c0,0.045,0.045,0.062,0.009,0.171c-0.009,0.026-0.054,0.062-0.054,0.081c-0.027,0.081,0.027,0.081-0.063,0.117
		c-0.054-0.055-0.188-0.019-0.261-0.045l-0.099-0.072c-0.063-0.019-0.108-0.009-0.171-0.027c-0.046-0.018-0.055-0.09-0.091-0.117
		c-0.018-0.009-0.054,0-0.09,0.01v-0.027c-0.279-0.352-0.405-0.585-0.513-1.161c-0.019-0.172-0.009-0.478-0.009-0.676v-0.126
		c-0.036-0.062,0.018-0.144-0.063-0.225c-0.054-0.027-0.117,0.009-0.189-0.01c-0.026-0.009-0.171-0.045-0.197-0.045
		c-0.081-0.018-0.136-0.116-0.234-0.116c-0.063,0.135-0.216,0.278-0.388,0.323c0.01-0.009,0.01-0.009,0.019-0.009
		c0.027-0.036,0.054-0.045,0.09-0.081c0.045-0.036,0.226-0.306,0.216-0.36c-0.026-0.035-0.036-0.197-0.045-0.314
		c0-0.288,0.181-0.54,0.424-0.63C56.33,127.74,56.349,127.759,56.34,127.849z M56.133,128.037c-0.01,0.036-0.019,0.045-0.027,0.108
		c-0.027,0.045-0.009,0.135-0.018,0.207c0,0.009,0.009,0,0.018,0.009c0-0.018,0-0.009,0.009-0.026
		c0.054-0.063,0.1-0.172,0.108-0.253c-0.009-0.009-0.019-0.026-0.027-0.054C56.168,128.037,56.151,128.037,56.133,128.037z"/>
	<path class="st7" d="M60.435,126.345c0.144,0.288,0.054,0.55,0.009,0.909c0,0.055,0.018,0.379,0.027,0.424
		c0.018,0.054-0.01,0.081-0.01,0.116l-0.09,0.973c-0.018,0.045,0.036,0.045,0.027,0.072c0,0.009-0.045,0.036-0.045,0.036l0.018,0.54
		c-0.009,0.027-0.054,0.107-0.062,0.153c-0.01,0.054,0.026,0.099,0.018,0.135s-0.036,0.045-0.045,0.107l-0.09,0.622
		c0.071,0.261,0.045,0.278,0.026,0.314c0.055-0.009,0.081,0.009,0.108,0c0.145-0.152,0.198-0.36,0.297-0.558
		c0.162-0.315,0.333-0.64,0.504-0.955c0.108-0.207,0.226-0.521,0.514-0.549c0.018,0.019,0,0.009,0.027,0.019
		c0.009,0.026,0.018,0.035,0.018,0.081c-0.045,0.071-0.062,0.306-0.108,0.404c-0.071,0.172-0.207,0.36-0.288,0.531
		c-0.045,0.108,0,0.217-0.045,0.343c-0.026,0.09-0.062,0.333-0.026,0.468c0.162,0.621,1.044,1.144,1.629,1.368
		c0.072,0.027,0.45,0.072,0.55,0.045c0.054-0.018,0.054-0.071,0.116-0.09v0.045c-0.026,0.019-0.026,0.063-0.054,0.09
		c-0.062,0.045-0.288,0.153-0.351,0.181c-0.307,0.099-0.541,0.009-0.819-0.081c-0.666-0.189-1.18-0.757-1.333-1.477
		c-0.018-0.126,0.055-0.261,0.081-0.352c0.072-0.207,0.09-0.414,0.181-0.603c0.071-0.145,0.18-0.279,0.197-0.486h-0.018v0.018
		c-0.306,0.298-0.414,0.802-0.585,1.243c-0.045,0.099-0.019,0.188-0.063,0.288l-0.062,0.054c-0.027,0.072,0.018,0.153-0.009,0.198
		c-0.036,0.062-0.091,0.188-0.127,0.243c-0.026,0.018-0.062,0.035-0.09,0.062c-0.026,0.045,0.01,0.054,0,0.09
		c-0.018,0.01-0.026,0.027-0.045,0.045c-0.009,0.019,0.027,0.027,0.019,0.063c-0.01,0-0.298,0.315-0.324,0.342
		c-0.019,0.019-0.279,0.072-0.315,0.063c-0.027-0.009-0.045-0.036-0.09-0.027c-0.019,0-0.072,0.036-0.09,0.045
		c-0.252,0.055-0.567-0.135-0.685-0.441c-0.062-0.035-0.072-0.116-0.09-0.287v-0.226l0.198-0.459c0-0.019-0.01-0.045-0.019-0.072
		c0-0.081,0.271-0.747,0.324-0.909c0.027-0.09,0.396-0.954,0.433-1.044c-0.01-0.1,0.062-0.217,0.09-0.333v-0.117
		c0.062-0.217,0.117-0.459,0.188-0.685c0.055-0.198,0.108-0.648,0.198-1.054C60.309,126.282,60.38,126.246,60.435,126.345z"/>
</g>
<g id="shark">
	<g id="Layer_8">
		<path class="st8" d="M14.635,106.817c-2.817,0.625-5.457,1.895-7.878,3.444c-1.224,0.783-2.398,1.643-3.53,2.554
			c-0.555,0.447-1.1,0.907-1.636,1.377c-0.221,0.194-0.991,0.892-0.809,1.27c0.265,0.553,2.818-0.608,5.891-0.591
			c1.578,0.009,2.864,0.327,3.699,0.591C11.793,112.58,13.214,109.699,14.635,106.817"/>
	</g>
	<path class="st9" d="M19.785,121.347c-0.224-2.176,6.918-6.404,12.927-4.413c2.3,0.762,3.883,2.253,4.848,3.419
		c0.328,0.397,0.085,0.995-0.426,1.059c-3.041,0.379-6.13,0.802-9.265,1.272c-1.564,0.235-3.113,0.477-4.647,0.727
		c-0.097,0.016-0.202,0.009-0.296-0.019C20.461,122.674,19.845,121.927,19.785,121.347z"/>
	<path class="st8" d="M36.931,107.718c-1.18,2.51-2.91,4.37-4.91,6.22c-2.33,2.16-4.57,4.44-6.7,6.79
		c-4.4,4.85-10.22,12.69-9.26,19.71c0.2,1.45,0.75,2.25,1.57,2.85c0.02,0.01,0.05,0.01,0.07,0.01c0,0.01,0,0.01,0,0.01
		c1.79,0.45,3.63,0.03,5.42-0.25c0.73-0.11,3.43-0.82,3.99-0.12c0.56,0.71-1.71,2.56-3.67,3.27c-1.96,0.71-1.6,1.99-1.6,3.84
		c0,1.02-2.85,8.06-3.81,7.7c-0.19-0.07-0.31-0.26-0.4-0.44c-0.94-1.84-0.95-3.95-0.88-5.96c0.09-2.16,0.13-4.32,0.22-6.48v-0.01
		c-0.35-0.43-0.7-0.88-1.06-1.36c-0.05-0.06-0.1-0.13-0.15-0.2c0,0-1.88-2.55-3.28-5.24c-1.33-2.58-8.34-18.63-0.31-30.08
		c2.79-3.98,6.92-6.53,11.58-7.76c3.96-1.05,8.14-1.28,12.22-1.3c1.23-0.01,1.99,0.38,2.34,1.59c0.07,0.23,0.11,0.47,0.15,0.71
		C38.731,103.348,37.781,105.898,36.931,107.718z"/>
	<g id="Layer_7">
		<path class="st9" d="M20.875,120.359c-1.029-1.93-9.315-1.45-13.188,3.557c-1.482,1.917-1.964,4.037-2.113,5.543
			c-0.051,0.512,0.485,0.873,0.945,0.64c2.734-1.384,5.533-2.758,8.396-4.118c1.428-0.679,2.849-1.342,4.261-1.992
			c0.09-0.041,0.172-0.105,0.235-0.181C21.055,121.837,21.149,120.873,20.875,120.359z"/>
	</g>
	<path class="st9" d="M36.931,107.718c-1.18,2.51-2.91,4.37-4.91,6.22c-0.29,0.27-0.58,0.54-0.86,0.82
		c-2.03,1.91-3.97,3.91-5.84,5.97c-4.4,4.85-10.22,12.69-9.26,19.71c0.2,1.45,0.75,2.25,1.57,2.85c0.02,0.01,0.05,0.01,0.07,0.01
		c0,0.01,0,0.01,0,0.01c-0.01,0.06-0.01,0.13,0,0.17c0.05,0.4,0.4,0.6,0.42,0.97c0,0.02,0,0.04-0.01,0.06
		c-0.09,0.22-0.64,0.12-0.83,0.18c-0.11,0.04-0.22,0.1-0.31,0.18v-0.01c-0.35-0.43-0.7-0.88-1.06-1.36
		c-0.51-1.37-0.92-2.78-1.23-4.22c-0.46-2.13-1.17-4.55-0.31-6.68c0.29-0.72,0.73-1.38,1.15-2.03c3.49-5.36,6.38-11.33,7.47-17.67
		c0.26-1.49,0.65-3.07,1.86-4.08c0.71-0.58,1.6-0.87,2.46-1.18c4.36-1.52,8.24-3.11,11.15-6.42
		C38.731,103.348,37.781,105.898,36.931,107.718z"/>
	<path class="st10" d="M36.931,107.718c-0.01,0.02-0.02,0.05-0.03,0.07c-1.18,2.48-2.9,4.32-4.88,6.15
		c-0.29,0.27-0.58,0.54-0.86,0.82c-0.03,0.01-0.06,0.02-0.09,0.02c-0.11,0.03-0.22,0.05-0.33,0.07c-0.16,0.04-0.32,0.06-0.48,0.08
		h-0.01c-0.13,0.02-0.27,0.03-0.4,0.04c-0.06,0-0.13,0.01-0.19,0c0,0,0,0-0.01,0c-0.24,0.02-0.48,0.02-0.72-0.03l-0.01,0.01
		l-0.01-0.01c-0.06,0-0.12-0.01-0.18-0.03c-0.22-0.05-0.41-0.15-0.59-0.28c-0.79-0.57-1.16-1.78-1.3-2.71
		c-0.03-0.14,0.08-0.27,0.22-0.28c0.02,0,0.05,0,0.07-0.01c0.42-0.03,0.84-0.03,1.26-0.06c0,0,0,0.01,0.01,0.01l0.01-0.01
		c0.3-0.01,0.61-0.04,0.91-0.1c0.12-0.02,0.23-0.05,0.35-0.08h0.01c0.41-0.1,0.82-0.22,1.22-0.37c0.02-0.01,0.04-0.01,0.06-0.02
		c0.25-0.09,0.5-0.19,0.75-0.3c0.14-0.06,0.27-0.12,0.41-0.19c0.01,0,0.03-0.01,0.05-0.02c0.39-0.19,0.78-0.39,1.16-0.6
		c0.01-0.01,0.01-0.01,0.02-0.01c0,0,0,0,0-0.01c0.35-0.19,0.7-0.39,1.05-0.6v-0.01c0.31-0.18,0.61-0.36,0.92-0.55
		c0,0,0.01,0,0.01-0.01c0.21-0.12,0.41-0.25,0.62-0.37v-0.01c0.04-0.02,0.07-0.04,0.11-0.06c0.09-0.05,0.18-0.12,0.28-0.19h0.01
		v-0.01c0.08-0.06,0.16-0.11,0.24-0.16c0.05-0.04,0.1-0.07,0.15-0.1c0.01,0,0.01,0,0.01,0c0.04-0.02,0.08-0.04,0.11-0.05h0.01
		C36.891,107.728,36.911,107.728,36.931,107.718z"/>
	<g id="Layer_10">
		<path class="st7" d="M28.401,111.578v0.01c-0.11,0.37-0.39,1.16-0.49,1.19c-0.1,0.03-0.59-0.8-0.78-1.15
			c0.42-0.03,0.84-0.03,1.26-0.06C28.391,111.568,28.391,111.578,28.401,111.578z"/>
		<path class="st7" d="M29.321,111.468c0.12-0.02,0.23-0.05,0.35-0.08c-0.09,0.31-0.42,1.25-0.52,1.28
			c-0.09,0.03-0.53-0.71-0.75-1.08v-0.01l0.01-0.01C28.711,111.558,29.021,111.528,29.321,111.468z"/>
		<path class="st7" d="M30.961,110.998c0,0.02-0.01,0.04-0.01,0.06c-0.04,0.33-0.22,1.29-0.31,1.34s-0.71-0.7-0.96-1.01
			c0.41-0.1,0.82-0.22,1.22-0.37C30.921,111.008,30.941,111.008,30.961,110.998z"/>
		<path class="st7" d="M32.041,111.958c-0.08,0.06-0.82-0.63-1.09-0.9c-0.02-0.02-0.04-0.03-0.05-0.04
			c0.02-0.01,0.04-0.01,0.06-0.02c0.25-0.09,0.5-0.19,0.75-0.3c0.14-0.06,0.27-0.12,0.41-0.19c0.01,0,0.03-0.01,0.05-0.02
			c0.01,0.01,0.01,0.03,0,0.06v0.01C32.191,110.848,32.131,111.898,32.041,111.958z"/>
		<path class="st7" d="M33.401,111.298c-0.07,0.07-0.94-0.54-1.23-0.74v-0.01c-0.02-0.02-0.04-0.03-0.05-0.04
			c0.01,0,0.03-0.01,0.05-0.02c0.39-0.19,0.78-0.39,1.16-0.6c0.01-0.01,0.01-0.01,0.02-0.01c0,0.01,0.01,0.02,0.01,0.03
			C33.401,110.208,33.481,111.228,33.401,111.298z"/>
		<path class="st7" d="M34.471,110.588c-0.07,0.07-0.84-0.48-1.11-0.68c-0.01-0.01-0.02-0.01-0.03-0.02
			c0.01-0.01,0.01-0.01,0.02-0.01c0,0,0,0,0-0.01c0.35-0.19,0.7-0.39,1.05-0.6c0,0,0.01,0,0.01,0.01
			C34.461,109.488,34.541,110.528,34.471,110.588z"/>
		<path class="st7" d="M35.351,109.858c-0.05,0.05-0.65-0.37-0.94-0.58c0-0.01-0.01-0.01-0.01-0.01v-0.01
			c0.31-0.18,0.61-0.36,0.92-0.55C35.361,108.988,35.421,109.798,35.351,109.858z"/>
		<path class="st7" d="M36.021,109.058c-0.04,0.04-0.46-0.22-0.69-0.36c0.21-0.12,0.41-0.25,0.62-0.37
			C36.001,108.578,36.061,109.018,36.021,109.058z"/>
		<path class="st7" d="M36.391,108.548c-0.03,0.03-0.27-0.11-0.44-0.22v-0.01c0.04-0.02,0.07-0.04,0.11-0.06
			c0.09-0.05,0.18-0.12,0.28-0.19h0.01C36.381,108.258,36.411,108.518,36.391,108.548z"/>
		<path class="st7" d="M36.611,108.188c-0.02,0.02-0.15-0.05-0.26-0.12v-0.01c0.08-0.06,0.16-0.11,0.24-0.16
			C36.611,108.018,36.631,108.168,36.611,108.188z"/>
		<path class="st7" d="M36.751,107.798v0.01c0,0.08-0.01,0.17-0.02,0.18c-0.02,0-0.08-0.05-0.14-0.09c0.05-0.04,0.1-0.07,0.15-0.1
			C36.751,107.798,36.751,107.798,36.751,107.798z"/>
		<path class="st7" d="M36.751,107.798c0.04-0.02,0.08-0.04,0.11-0.05c-0.01,0.06-0.04,0.13-0.05,0.13s-0.03-0.03-0.06-0.07
			c0-0.01,0-0.01-0.01-0.01C36.751,107.798,36.751,107.798,36.751,107.798z"/>
		<path class="st7" d="M36.931,107.718c-0.01,0.02-0.02,0.05-0.03,0.07c0,0-0.02-0.02-0.03-0.04
			C36.891,107.728,36.911,107.728,36.931,107.718z"/>
		<path class="st7" d="M28.911,114.938c-0.06,0-0.12-0.01-0.18-0.03c-0.22-0.05-0.41-0.15-0.59-0.28c0.17-0.26,0.38-0.56,0.44-0.57
			C28.641,114.058,28.831,114.628,28.911,114.938z"/>
		<path class="st7" d="M29.651,114.958c0,0.01,0,0.01,0,0.01c-0.24,0.02-0.48,0.02-0.72-0.03c0.12-0.24,0.33-0.63,0.39-0.64
			C29.371,114.298,29.551,114.688,29.651,114.958z"/>
		<path class="st7" d="M30.251,114.928c-0.13,0.02-0.27,0.03-0.4,0.04c-0.06,0-0.13,0.01-0.19,0c0,0,0,0-0.01,0c0,0,0,0,0-0.01
			c0.07-0.22,0.19-0.54,0.23-0.56C29.941,114.398,30.141,114.718,30.251,114.928z"/>
		<path class="st7" d="M30.741,114.848c-0.16,0.04-0.32,0.06-0.48,0.08c0.05-0.19,0.16-0.46,0.19-0.48
			C30.501,114.448,30.641,114.678,30.741,114.848z"/>
		<path class="st7" d="M31.071,114.778c-0.11,0.03-0.22,0.05-0.33,0.07c0.02-0.11,0.07-0.32,0.1-0.33
			C30.871,114.518,31.001,114.678,31.071,114.778z"/>
	</g>
	<g id="Layer_9">
		<circle class="st11" cx="26.135" cy="104.537" r="1.027"/>
		<circle class="st12" cx="25.812" cy="104.6" r="0.616"/>
	</g>
</g>
<g>
	<path class="st2" d="M47.42,36.25c-4.52-0.27-9.29-0.43-14.28-0.44c-4.93-0.02-9.66,0.12-14.15,0.36l3.84-22.14
		c2.78-0.44,6-0.78,9.58-0.82c4.25-0.05,8.01,0.32,11.16,0.82L47.42,36.25z"/>
</g>
<g id="Layer_16">
	<circle class="st3" cx="33.214" cy="24.445" r="10.923"/>
</g>
<g id="little_moon">
	<path class="st4" d="M27.673,22.888c0.443-1.272,1.29-2.289,2.344-2.958c1.433-0.914,3.261-1.188,4.992-0.585
		c3.003,1.047,4.59,4.333,3.543,7.336c-0.078,0.224-0.171,0.438-0.274,0.648c-1.265,2.579-4.284,3.864-7.062,2.895
		C28.213,29.177,26.626,25.891,27.673,22.888z"/>
	<path class="st5" d="M29.743,20.577c0.078-0.224,0.171-0.438,0.274-0.648c1.433-0.914,3.261-1.188,4.992-0.585
		c3.003,1.047,4.59,4.333,3.543,7.336c-0.078,0.224-0.171,0.438-0.274,0.648c-1.434,0.914-3.261,1.188-4.992,0.585
		C30.283,26.866,28.696,23.58,29.743,20.577z"/>
	<circle class="st4" cx="36.598" cy="23.403" r="1.02"/>
	<circle class="st4" cx="32.985" cy="23.727" r="0.468"/>
	<circle class="st4" cx="31.894" cy="20.381" r="0.285"/>
	<circle class="st4" cx="30.646" cy="22.35" r="0.531"/>
	<circle class="st4" cx="34.141" cy="26.838" r="0.454"/>
	<circle class="st6" cx="30.499" cy="25.249" r="0.54"/>
</g>
<g id="neck_text">
	<g>
		<g>
			<path class="st9" d="M34.644,32.95c0.001,0.065-0.008,0.2,0.001,0.267c0.004,0.028,0.05,0.075,0.055,0.096
				c0.052,0.047,0.04,0.099,0.063,0.159c-0.058,0.03-0.032,0.041-0.114,0.071c-0.096,0.082-0.346-0.018-0.431-0.039
				c-0.187-0.051-0.344-0.133-0.468-0.285c-0.038-0.043-0.074-0.247-0.074-0.284c0-0.048-0.038-0.089-0.04-0.123
				c-0.006-0.089-0.038-0.209-0.044-0.299c-0.007-0.096-0.079-0.293-0.191-0.284c-0.024,0.03-0.063,0.051-0.089,0.076
				c-0.072,0.105-0.079,0.239-0.108,0.37c-0.017,0.045-0.063,0.114-0.079,0.163c-0.023,0.07-0.009,0.162-0.014,0.236
				c-0.008,0.104,0.036,0.371-0.078,0.423c-0.116-0.07-0.389-0.043-0.434-0.179c-0.025-0.025,0.001-0.072,0.003-0.095
				c0.003-0.027-0.035-0.083-0.043-0.104c-0.032-0.046-0.004-0.113-0.03-0.169c-0.014-0.031-0.063-0.099-0.064-0.13
				c-0.002-0.036-0.014-0.18-0.031-0.248c-0.04-0.157,0.009-0.24-0.007-0.397c-0.005-0.05-0.017-0.111,0.026-0.208
				c0.006-0.057,0.009-0.086,0.015-0.144c0-0.005-0.007-0.005-0.014-0.01c-0.171,0.081-0.319,0.22-0.458,0.325
				c-0.245,0.183-0.504,0.352-0.785,0.51c-0.001,0.015-0.002,0.022-0.003,0.037c0.132,0.107,0.366,0.428,0.319,0.591
				c-0.009,0.031,0.045,0.044,0.019,0.075c-0.007,0.005-0.031,0.004-0.04,0.024c0.016,0.006,0.038,0.018,0.054,0.029
				c-0.041,0.046-0.055,0.125-0.104,0.17c-0.059,0.054-0.167,0.085-0.244,0.127c-0.142-0.054-0.372,0.031-0.562,0.017
				c-0.052-0.049-0.124-0.072-0.184-0.116c-0.051-0.037-0.094-0.094-0.145-0.14c-0.015-0.008-0.039-0.012-0.055-0.02
				c-0.019-0.03-0.057-0.226-0.02-0.272c0.032-0.04,0.061-0.119,0.108-0.165c0.038-0.037,0.222-0.11,0.276-0.173
				c0.087-0.102-0.268-0.749-0.47-0.903c-0.081-0.065-0.176-0.163-0.354-0.149c-0.14,0.011-0.26,0.06-0.388,0.085
				c-0.036-0.005-0.072,0.013-0.103,0.015c-0.047,0.003-0.095,0.042-0.138,0.048c-0.031,0.004-0.043-0.013-0.071,0.001
				c0.041-0.021,0.061-0.031,0.101-0.052c0.058-0.011,0.105-0.041,0.161-0.052c0.222-0.058,0.416-0.159,0.705-0.103
				c0.082,0.046,0.123,0.068,0.207,0.113c0.016,0.024,0.028,0.043,0.046,0.062c0.05,0.042,0.123,0.076,0.159,0.119
				c0.012,0.013-0.004,0.026,0.008,0.039c0.027,0.011,0.041,0.016,0.068,0.027c0.036,0.043,0.067,0.085,0.105,0.123
				c0.031,0.024,0.047,0.036,0.079,0.059c0.081,0.107,0.17,0.226,0.325,0.299c0.044-0.021,0.066-0.032,0.109-0.053
				c0.198-0.089,0.37-0.195,0.564-0.294c0.279-0.139,0.524-0.306,0.742-0.485c-0.012-0.27,0.04-0.463,0.152-0.64
				c0.016-0.027,0.014-0.06,0.038-0.077c0.034-0.035,0.104-0.082,0.156-0.103c0.036-0.014,0.06-0.005,0.089-0.024
				c0.079,0.003,0.124,0.036,0.148,0.075c0.01,0.016,0.014,0.175-0.006,0.225c-0.027,0.028-0.04,0.043-0.068,0.071
				c-0.099,0.144-0.203,0.291-0.341,0.411c-0.006,0.128-0.007,0.31-0.008,0.426c-0.001,0.084,0.047,0.588,0.097,0.664
				c0.036,0.055,0.068,0.128,0.089,0.212c0.006,0,0.009-0.001,0.014-0.001c0-0.005,0-0.005-0.008-0.01
				c0.069-0.085,0.067-0.202,0.095-0.305c0.034-0.126,0.1-0.264,0.158-0.393c0.019-0.023,0.057-0.053,0.07-0.071
				c0.014-0.019,0.013-0.071,0.038-0.095c0.137-0.133,0.605-0.132,0.746-0.109c0.185,0.03,0.288,0.141,0.414,0.276
				c0.029,0.052,0.044,0.078,0.074,0.13c0.066,0.061,0.077,0.14,0.11,0.214c0.011,0.013,0.001,0.07,0.02,0.083
				c0.007-0.002,0.016,0.002,0.023,0c0.041,0.044,0.015,0.151,0.016,0.198C34.598,32.917,34.644,32.931,34.644,32.95z
				 M30.708,33.105c-0.007-0.006-0.012-0.029-0.022-0.014c-0.001,0.011-0.065,0.018-0.068,0.045
				c-0.006,0.042,0.058,0.034,0.085,0.017C30.703,33.142,30.723,33.113,30.708,33.105z M32.631,31.58
				c0.008,0.014,0.001,0.011,0.014,0.01c0.082-0.053,0.134-0.131,0.192-0.205c0.064-0.08,0.16-0.159,0.209-0.25
				c0.058-0.105-0.007-0.18-0.135-0.178c-0.017,0.012-0.041,0.014-0.072,0.017c-0.022,0.029-0.063,0.048-0.085,0.082
				c-0.039,0.056-0.087,0.166-0.108,0.231c-0.016,0.049,0.007,0.111-0.004,0.139c-0.006,0.011-0.018,0.022-0.03,0.028
				C32.601,31.492,32.626,31.57,32.631,31.58z"/>
			<path class="st9" d="M36.16,30.908c0.078,0.024,0.118,0.036,0.197,0.058c0.037-0.001,0.155,0.071,0.195,0.074
				c0.064,0.021,0.101,0.049,0.16,0.072c0.036,0.011,0.09-0.006,0.121,0.007c0.031,0.014,0.179,0.095,0.198,0.115
				c0.005,0.009-0.005,0.045,0.022,0.054c0.031,0.01,0.028-0.022,0.064,0.013c0,0,0.004-0.008,0.009,0.001
				c-0.004,0.008-0.001,0.013,0.002,0.018c0.109,0.006,0.12,0.127,0.21,0.167c0.063,0.007,0.159-0.032,0.224-0.095
				c0.047-0.046,0.033-0.044,0.09-0.105c0.107-0.173,0.202-0.355,0.285-0.51c0.008-0.018,0.012-0.028,0.02-0.046
				c0.073-0.18,0.099-0.226,0.144-0.352c0.023-0.062,0.034-0.093,0.056-0.156c0.002,0.025,0.042,0.011,0.006,0.076
				c-0.039,0.071-0.049,0.089-0.085,0.189c-0.034,0.095-0.091,0.261-0.125,0.324c-0.013,0.066-0.02,0.099-0.035,0.165
				c-0.069,0.155-0.119,0.39-0.262,0.526c-0.214,0.204-0.297,0.245-0.421,0.249c-0.131,0.004-0.323-0.075-0.409-0.15
				c-0.037-0.04-0.041-0.08-0.086-0.105c-0.126-0.061-0.268-0.079-0.416-0.103c-0.091-0.016-0.155-0.057-0.238-0.043
				c-0.01,0.01-0.037,0.034-0.039,0.046c-0.01,0.028,0.024,0.14,0.028,0.168c0.004,0.027,0.029,0.02,0.046,0.037
				c0.019,0.019,0.005,0.044,0.009,0.054c0.006,0.015,0.045,0.033,0.051,0.047c-0.002,0.012-0.025,0.019-0.015,0.035
				c0.012,0.021,0.056,0.04,0.071,0.056c0.007,0.037,0.01,0.055,0.016,0.091c0.019,0.026,0.044,0.027,0.065,0.076
				c-0.038,0.04-0.041,0.055-0.017,0.106c0.157,0.337-0.3,0.557-0.43,0.594c-0.366,0.104-0.536,0.104-0.7-0.107
				c-0.032-0.057-0.037-0.13-0.065-0.191c-0.069-0.151-0.045-0.396,0.011-0.581c0.038-0.107,0.143-0.344,0.212-0.425
				c0.033-0.046,0.229-0.268,0.294-0.317c0.028-0.017,0.064-0.032,0.092-0.05c0.022-0.015,0.064-0.049,0.101-0.06
				C35.894,30.908,36.098,30.884,36.16,30.908z M35.744,31.66c-0.032,0.081-0.032,0.166-0.066,0.258
				c0.043,0.115,0.031,0.187,0.007,0.269c0.035,0.01,0.033,0.005,0.049,0.027c-0.029,0.028-0.033,0.018-0.027,0.055
				c0.037,0.015,0.029,0.08,0.071,0.087c0.071,0.002,0.269-0.041,0.268-0.046c0.021-0.048,0.041-0.15,0.048-0.197
				c0.006-0.046-0.057-0.213-0.095-0.379c-0.026-0.115-0.041-0.224-0.064-0.243C35.941,31.396,35.778,31.575,35.744,31.66z
				 M37.097,31.338c0.01-0.005,0.015-0.008,0.025-0.014c0,0-0.005-0.009-0.002-0.018C37.094,31.333,37.111,31.305,37.097,31.338z"/>
			<path class="st9" d="M38.097,29.393c0.05-0.001,0.105,0.196,0.109,0.262c0.008,0.02,0.004,0.12,0.027,0.115
				c0.084,0.007,0.224-0.028,0.318-0.104c0.015-0.014,0.068-0.086,0.154-0.174c0.036-0.037,0.076-0.107,0.098-0.143
				c0.049-0.076,0.192-0.219,0.255-0.252c0.018-0.011,0.033,0.004,0.041,0.011c0.013-0.006,0.04-0.035,0.05-0.037
				c0.009-0.001,0.02,0.01,0.028,0.017c0.013,0.002,0.051-0.008,0.065-0.014c0.024,0.013,0.035,0.033,0.067,0.044
				c0.017-0.002,0.061-0.018,0.072-0.007c0.042,0.001,0.045,0.06,0.079,0.064c0,0,0.008-0.002,0.013-0.007
				c0.186,0.096,0.212,0.144,0.226,0.17c0.015,0.028,0.042,0.004,0.05,0.017c0.004,0.008-0.016,0.025,0.01,0.028
				c0.004,0.004,0.17,0.156,0.174,0.171c0.014,0.049,0.212,0.216,0.273,0.221c0.008,0.038,0.116-0.01,0.146,0.06
				c0.019,0.018,0.054-0.004,0.08,0.062c0.007,0.017-0.004,0.06,0.004,0.067c0.019,0.05,0.052,0.015,0.013,0.088
				c-0.056,0.013-0.122,0.115-0.177,0.149c-0.036,0.013-0.055,0.02-0.091,0.033c-0.046,0.032-0.071,0.067-0.117,0.095
				c-0.033,0.02-0.071-0.005-0.105,0.006c-0.015,0.007-0.033,0.033-0.052,0.058c-0.004-0.005-0.007-0.007-0.011-0.012
				c-0.318,0.02-0.49-0.012-0.781-0.207c-0.078-0.065-0.193-0.205-0.271-0.292c-0.02-0.022-0.03-0.033-0.049-0.055
				c-0.045-0.009-0.046-0.072-0.124-0.067c-0.042,0.015-0.064,0.063-0.113,0.091c-0.019,0.009-0.117,0.064-0.133,0.077
				c-0.054,0.032-0.123,0.012-0.181,0.059c0.013,0.092-0.026,0.231-0.115,0.332c0.002-0.009,0.002-0.008,0.008-0.013
				c0.003-0.029,0.016-0.049,0.026-0.08c0.012-0.037,0.02-0.258-0.002-0.268c-0.02-0.009-0.098-0.075-0.141-0.125
				c-0.106-0.122-0.095-0.329,0.002-0.48C38.051,29.349,38.067,29.349,38.097,29.393z M38.054,29.574
				c0.009,0.021,0.018,0.034,0.026,0.062c0.007,0.024,0.045,0.066,0.067,0.103c0.003,0.004,0.005-0.004,0.014-0.004
				c-0.007-0.008-0.003-0.004-0.005-0.017c0.007-0.054-0.008-0.123-0.034-0.164c-0.009,0-0.02-0.004-0.035-0.012
				C38.074,29.558,38.064,29.566,38.054,29.574z"/>
			<path class="st9" d="M39.255,26.694c0.195,0.007,0.296,0.136,0.46,0.274c0.027,0.017,0.199,0.107,0.223,0.113
				c0.031,0.007,0.037,0.03,0.055,0.041c0.182,0.142,0.273,0.213,0.453,0.357c0.016,0.026,0.038-0.01,0.047,0.004
				c0.005,0.003,0,0.041,0,0.041c0.111,0.062,0.167,0.093,0.278,0.156c0.01,0.015,0.031,0.072,0.05,0.091
				c0.022,0.023,0.061,0.012,0.075,0.029c0.014,0.018,0.007,0.039,0.035,0.065c0.108,0.103,0.162,0.155,0.269,0.259
				c0.163,0.031,0.159,0.056,0.169,0.08c0.021-0.043,0.042-0.057,0.05-0.08c-0.011-0.154-0.092-0.257-0.149-0.388
				c-0.09-0.213-0.187-0.429-0.286-0.638c-0.066-0.134-0.187-0.3-0.103-0.51c0.015-0.008,0.007-0.009,0.018-0.014
				c0.009-0.004,0.026-0.004,0.049,0.008c0.023,0.05,0.141,0.124,0.177,0.182c0.065,0.097,0.115,0.246,0.173,0.352
				c0.039,0.063,0.112,0.063,0.161,0.127c0.033,0.044,0.149,0.14,0.234,0.149c0.389,0.047,1.019-0.546,1.337-1.023
				c0.038-0.059,0.184-0.395,0.196-0.489c0.007-0.052-0.024-0.063-0.016-0.124c0.01,0.003,0.015,0.005,0.025,0.008
				c0.002,0.028,0.028,0.036,0.035,0.065c0.007,0.067-0.001,0.293-0.006,0.357c-0.042,0.299-0.174,0.494-0.326,0.718
				c-0.349,0.542-0.875,0.8-1.31,0.71c-0.073-0.022-0.112-0.116-0.147-0.161c-0.078-0.113-0.18-0.184-0.242-0.302
				c-0.048-0.091-0.078-0.207-0.18-0.275c-0.003,0.005-0.004,0.008-0.007,0.013c0.004,0.002,0.005,0.003,0.009,0.005
				c0.044,0.299,0.26,0.52,0.413,0.776c0.032,0.062,0.089,0.069,0.12,0.132c0,0.025,0,0.038,0,0.063
				c0.025,0.042,0.086,0.032,0.097,0.066c0.015,0.045,0.055,0.125,0.066,0.169c-0.003,0.026-0.014,0.063-0.009,0.088
				c0.005,0.03,0.042,0.015,0.045,0.027c0.002,0.01,0.001,0.029,0.002,0.048c0.004,0.012,0.026-0.012,0.04,0.005
				c-0.004,0.007,0.014,0.327,0.014,0.357c0,0.02-0.106,0.238-0.129,0.261c-0.017,0.017-0.04,0.022-0.059,0.059
				c-0.009,0.014-0.02,0.066-0.026,0.083c-0.107,0.207-0.371,0.37-0.577,0.341c-0.051,0.031-0.094,0.008-0.182-0.043
				c-0.041-0.033-0.062-0.05-0.104-0.083c-0.042-0.121-0.064-0.181-0.108-0.3c-0.008-0.006-0.03-0.008-0.043-0.014
				c-0.034-0.015-0.216-0.444-0.267-0.536c-0.03-0.049-0.279-0.578-0.307-0.631c-0.052-0.027-0.079-0.111-0.125-0.166
				c-0.023-0.015-0.034-0.023-0.057-0.038c-0.08-0.11-0.177-0.227-0.261-0.337c-0.073-0.095-0.279-0.271-0.449-0.449
				C39.18,26.746,39.186,26.695,39.255,26.694z"/>
		</g>
	</g>
	<g>
		<g>
			<path class="st9" d="M23.457,23.58c0.031-0.021,0.062-0.041,0.089-0.052c0.089-0.102,0.195-0.205,0.252-0.274
				c0.025-0.032,0.069-0.024,0.102-0.061c0.149-0.144,0.316-0.274,0.475-0.34c0.003-0.019,0.004-0.009,0.002-0.03
				c-0.005-0.03-0.008-0.046-0.013-0.076c0.063-0.133,0.044-0.193,0.064-0.295c0.066-0.328,0.272-1.113,0.641-1.313
				c0.059-0.037,0.178-0.031,0.235-0.023c0.056,0.007,0.076,0.069,0.132,0.084c0.054,0.014,0.111,0.036,0.161,0.062
				c0-0.004,0.001-0.006,0.001-0.011c-0.022-0.102-0.004-0.07-0.007-0.178c-0.002-0.089-0.029-0.188-0.036-0.284
				c-0.006-0.092,0.126-0.373,0.234-0.446c0.038-0.025,0.148-0.086,0.207-0.093c0.152-0.021,0.28-0.01,0.432-0.01
				c0.006-0.007,0.006-0.007,0.008-0.017c0.011-0.06,0.093-0.359,0.115-0.45c0.001-0.024-0.029-0.042-0.015-0.079
				c0.046-0.169,0.103-0.358,0.161-0.498c0.019-0.047,0.072-0.199,0.123-0.233c0.03-0.02-0.041,0.035-0.006,0.034
				c-0.007,0.02,0.008,0.023,0.011,0.027c-0.016,0.065-0.031,0.049-0.071,0.113c-0.006,0.021-0.008,0.059-0.017,0.09
				c-0.007,0.006-0.01,0.016-0.023,0.029c-0.049,0.148-0.062,0.305-0.093,0.489c-0.012,0.089-0.095,0.434-0.009,0.481
				c0.033-0.003,0.453,0.094,0.477,0.144c0.028,0.057,0.034,0.115,0.107,0.176c-0.016,0.04-0.009,0.048-0.044,0.092
				c0.037,0.026,0.091,0.178,0.077,0.207c-0.004,0.078-0.006,0.117-0.008,0.195c0.003,0.013-0.023,0.041-0.044,0.064
				c-0.061,0.017-0.128,0.066-0.176,0.07c-0.064,0.005-0.288,0.001-0.34-0.023c-0.148-0.041-0.201-0.116-0.24-0.191
				c-0.025-0.021,0.001-0.071-0.008-0.094c-0.015-0.039-0.097-0.083-0.137-0.096c-0.052-0.039-0.077-0.059-0.129-0.098
				c-0.162-0.025-0.294-0.039-0.402,0.041c-0.115,0.085-0.136,0.254-0.115,0.357c0.03,0.044,0.041,0.15,0.036,0.232
				c0.059,0.033,0.119,0.064,0.197,0.08c0.009,0.016,0.026,0.036,0.035,0.047c0.032,0.039,0.134,0.068,0.196,0.081
				c0.07,0.016,0.135,0.07,0.175,0.129c0.017,0.023,0.067,0.05,0.076,0.066c0.019,0.003,0.072,0.053,0.076,0.056
				c0.053,0.068,0.276,0.229,0.301,0.24c0.039,0.017,0.121,0.034,0.161,0.045c0.031,0.033,0.059,0.064,0.09,0.085
				c0.115,0.076,0.298,0.159,0.417,0.232c0.018,0.023,0.015,0.063,0.055,0.084c0.013,0.001,0.047-0.007,0.06-0.006
				c0.053,0.023,0.104,0.08,0.15,0.097c0.053,0.019,0.081,0.076,0.125,0.094c0.09,0.039,0.208,0.141,0.307,0.186
				c-0.013,0.053,0.006,0.074,0.005,0.104c-0.012,0.099-0.142,0.215-0.235,0.213c-0.035-0.009-0.053-0.021-0.09-0.016
				c-0.357,0.04-0.758-0.369-1.135-0.607c-0.045-0.033-0.068-0.049-0.112-0.082c0.004-0.016-0.085-0.074-0.141-0.111
				c-0.074-0.049-0.235-0.251-0.309-0.319c-0.168-0.154-0.282-0.3-0.534-0.442c-0.179-0.101-0.432-0.319-0.617-0.189
				c-0.054,0.031-0.153,0.186-0.182,0.265c-0.083,0.241-0.146,0.501-0.184,0.718c-0.016,0.115-0.082,0.345-0.045,0.414
				c0.035,0.066,0.198-0.014,0.259-0.024c0.121-0.019,0.454-0.02,0.552,0.068c0.059,0.057,0.088,0.085,0.147,0.141
				c0.011,0.015,0.01,0.005,0.012,0.025c0.013,0.025-0.004,0.044,0.004,0.066c0.024,0.039,0.071,0.025,0.085,0.042
				c0.017,0.021,0.016,0.106,0.023,0.128c0.016,0.008,0.024,0.012,0.04,0.019c0.009,0.032-0.009,0.215-0.032,0.266
				c-0.035,0.037-0.095,0.202-0.149,0.274c-0.069,0.093-0.247,0.346-0.332,0.368c-0.065,0.016-0.097,0.024-0.162,0.04
				c-0.058-0.02-0.092-0.023-0.139-0.057c-0.007-0.011-0.025-0.063-0.033-0.074c-0.033-0.019-0.05-0.029-0.084-0.048
				c-0.025-0.027-0.082-0.075-0.107-0.113c-0.031-0.045-0.039-0.139-0.079-0.188c-0.046-0.057-0.234-0.033-0.293-0.044
				c-0.043-0.008-0.084,0.018-0.122,0.024c-0.013-0.014-0.02-0.027-0.035-0.033c-0.088-0.002-0.181,0.043-0.263,0.074
				c-0.021-0.007-0.109,0.043-0.131,0.055c-0.025,0.004-0.037,0.006-0.062,0.01c-0.011,0.016-0.031,0.04-0.047,0.055
				c-0.06,0.042-0.117,0.033-0.167,0.12c-0.081,0.109-0.074,0.327-0.068,0.43c0.009,0.134,0.04,0.244,0.053,0.307
				c-0.005,0.019,0.016,0.054-0.011,0.047c-0.051-0.122-0.083-0.274-0.107-0.434c-0.029-0.192,0.004-0.362,0.153-0.612
				C23.423,23.661,23.444,23.616,23.457,23.58z M24.692,23.72c0.029,0.095,0.098,0.056,0.182,0.07c0.02-0.02,0.041-0.03,0.067-0.065
				c0.01-0.025,0.015-0.038,0.025-0.063c-0.024-0.028-0.052-0.021-0.108-0.016c-0.032,0.006-0.056,0.052-0.083,0.059
				c-0.04,0.013-0.065-0.016-0.095-0.018c-0.004,0.01-0.006,0.014-0.009,0.024C24.68,23.715,24.684,23.716,24.692,23.72z"/>
			<path class="st9" d="M27.303,17.966c0.57-0.499,1.144-0.478,1.383-0.247c0.025,0.025,0.075,0.004,0.101,0.015
				c0.042,0.022,0.011,0.076,0.05,0.112c0.003,0.005,0.055-0.01,0.057-0.006c0.005,0.029,0.005,0.048-0.008,0.08
				c0.087-0.008,0.156,0.012,0.247-0.004c0.033,0.083,0.233,0.051,0.295,0.047c0.109-0.008,0.155-0.117,0.224-0.22
				c0.158-0.205,0.504-0.603,0.604-0.703c0.017-0.006,0.017-0.006,0.038-0.001c-0.209,0.256-0.276,0.37-0.347,0.476
				c-0.055,0.052-0.126,0.373-0.148,0.431c0.001,0.024,0.002,0.048,0.011,0.068c-0.032,0.075-0.121,0.182-0.2,0.232
				c-0.25,0.156-0.492,0.281-0.655,0.284c-0.275,0.008-0.624-0.351-0.917-0.575c-0.032,0.001-0.019,0.005-0.032,0.001
				c-0.01,0-0.01,0-0.019,0.005c0.078,0.26,0.139,0.486,0.13,0.706c-0.006,0.132,0.097,0.297,0.06,0.391
				c-0.018,0.047-0.039,0.089-0.08,0.118c-0.141,0.176-0.4,0.137-0.517,0.153c-0.043,0.017-0.065,0.026-0.108,0.043
				c-0.077,0.013-0.169,0.024-0.24,0.033c-0.024-0.001-0.064,0.018-0.088,0.031c-0.317-0.036-0.516-0.281-0.392-0.698
				c0.04-0.068,0.06-0.102,0.102-0.17c0.079-0.171,0.149-0.346,0.299-0.497C27.215,18.029,27.244,18.008,27.303,17.966z
				 M27.408,18.509c-0.017,0.068-0.082,0.222-0.025,0.297c0.061,0.079,0.175,0.097,0.275,0.113c0.115-0.065,0.189-0.111,0.285-0.171
				c-0.011-0.244,0.01-0.518-0.018-0.766c0.019-0.005,0.027-0.01,0.042-0.02c-0.012-0.019-0.012-0.019-0.031-0.033
				C27.565,18.054,27.465,18.293,27.408,18.509z"/>
			<path class="st9" d="M31.509,16.442c-0.015,0.02-0.012,0.031-0.016,0.055c-0.012-0.009-0.012-0.01-0.023-0.018
				c-0.013-0.009-0.035-0.026-0.055-0.033c-0.25,0.086-0.477,0.177-0.632,0.305c-0.063,0.048-0.108,0.091-0.166,0.15
				c-0.051,0.051-0.113,0.154-0.124,0.204c-0.009,0.031-0.013,0.047-0.021,0.078c-0.043,0.291,0.188,0.413,0.527,0.387
				c0.078-0.005,0.086-0.015,0.163-0.018c0.113-0.005,0.276-0.017,0.419-0.08c0.11-0.049,0.14-0.051,0.223-0.096
				c0.139-0.076,0.295-0.148,0.327-0.171c0.103-0.064,0.175-0.115,0.255-0.177c0.058-0.025,0.128-0.041,0.176-0.075
				c0.161-0.106,0.244-0.158,0.414-0.257c0.122-0.072,0.164-0.12,0.317-0.196c0.082-0.021,0.117-0.067,0.219-0.082
				c-0.055,0.024-0.086,0.064-0.108,0.088c-0.018,0.019-0.055,0.029-0.09,0.055c-0.04,0.031-0.115,0.084-0.167,0.116
				c-0.025,0.024-0.101,0.035-0.141,0.067c-0.042,0.034-0.084,0.091-0.142,0.125c-0.067,0.039-0.158,0.117-0.306,0.204
				c-0.073,0.043-0.132,0.068-0.193,0.123c-0.07,0.061-0.102,0.082-0.24,0.181c-0.119,0.061-0.152,0.068-0.177,0.073
				c-0.048,0.02-0.088,0.075-0.127,0.094c-0.025,0.005-0.107,0.058-0.172,0.078c-0.463,0.188-1.014,0.215-1.294,0.1
				c-0.054-0.022-0.146-0.048-0.184-0.073c-0.034-0.022-0.09-0.234-0.084-0.266c0.015-0.06,0.03-0.121,0.059-0.171
				c0.022-0.038,0.082-0.197,0.162-0.307c0.019-0.03,0.075-0.067,0.08-0.08c0.118-0.116,0.276-0.172,0.401-0.283
				C31.003,16.472,31.473,16.319,31.509,16.442z"/>
			<path class="st9" d="M34.567,15.418c0.049,0.145,0.008,0.483-0.252,0.634c-0.109,0.057-0.284,0.126-0.362,0.226
				c0.057,0.112,0.028,0.294,0.181,0.392c0.209,0.133,0.705,0.201,0.927,0.209c0.082,0.015,0.188-0.007,0.252-0.002
				c0.171,0.014,0.331,0.044,0.501,0.059c0.041-0.015,0.081-0.018,0.119-0.022c0.027,0.011,0.056,0.018,0.072,0.026
				c0.024,0.012,0.097-0.003,0.124,0.009c0.084,0.013,0.214,0.043,0.208,0.07c-0.154,0.072-0.189,0.15-0.254,0.142
				c-0.105,0-0.19,0.051-0.28,0.079c-0.027-0.005-0.168,0.014-0.177,0.013c-0.019,0.008,0.004,0.035-0.018,0.048
				c-0.112,0.071-0.258,0.087-0.415,0.066c-0.001,0.011-0.021,0.02-0.022,0.025c-0.093-0.034-0.08,0.002-0.159-0.003
				c-0.138-0.008-0.309-0.076-0.416-0.044c-0.008-0.012-0.152-0.088-0.161-0.089c-0.009,0.005-0.027,0.016-0.045,0.02
				c-0.018-0.001-0.32-0.101-0.328-0.101c-0.435-0.203-0.829-0.349-0.979-0.623c-0.031-0.042-0.061-0.079-0.092-0.104
				c-0.071-0.19-0.007-0.505,0.23-0.698c0.087-0.05,0.193-0.139,0.252-0.19c0.048-0.042,0.047-0.107,0.117-0.165
				c0.201-0.161,0.361-0.259,0.695-0.192C34.356,15.274,34.539,15.336,34.567,15.418z M34.021,15.321
				c-0.104,0.032-0.181,0.18-0.205,0.25c-0.045,0.13-0.161,0.451,0.061,0.524c0.019-0.006,0.019-0.011,0.048-0.017
				c0.262-0.11,0.54-0.465,0.464-0.635c-0.008-0.039-0.08-0.083-0.1-0.099c-0.021-0.017-0.082-0.019-0.134-0.042
				C34.114,15.317,34.083,15.31,34.021,15.321z"/>
		</g>
	</g>
</g>
<path id="cap" class="st3" d="M45.15,3.08v0.59c0,0.29-0.81,0.52-1.8,0.52H23.06c-0.99,0-1.8-0.23-1.8-0.52V3.08
	C21.26,2.8,23.07,0,23.98,0h18.45C43.34,0,45.15,2.8,45.15,3.08z"/>
<g id="highlight">
	<path class="st13" d="M39.681,46.436c0.295,1.729,1.1,3.48,1.512,5.163c0.287,1.176,0.386,2.312,0.506,3.506
		c0.038,0.376,0.155,0.766,0.438,1.017c0.252,0.223,0.595,0.302,0.923,0.375c0.573,0.126,1.152,0.253,1.738,0.247
		c1.656-0.016,2.154-1.043,1.807-2.541c-0.446-1.923-0.937-3.836-1.408-5.753c-0.352-1.43-0.481-3.827-1.697-4.84
		c-0.451-0.376-1.057-0.536-1.644-0.515c-0.633,0.023-1.275,0.261-1.699,0.732c-0.473,0.526-0.623,1.281-0.558,1.986
		C39.618,46.021,39.646,46.228,39.681,46.436z"/>
	<path class="st13" d="M59.8,180.02c-0.25,0.17-0.5,0.34-0.76,0.5c-0.19,0.12-0.39,0.24-0.59,0.35c-0.09,0.06-0.19,0.11-0.28,0.15
		c-0.25,0.15-0.51,0.29-0.78,0.42c-0.34,0.17-0.68,0.34-1.03,0.5c-0.12,0.06-0.25,0.11-0.37,0.17c-0.48,0.21-0.95,0.42-1.43,0.61
		c-0.16,0.07-0.32,0.13-0.47,0.19c-1.7-16.96-4.2-94.31-4.28-95.65c-0.2-3.21-0.91-6.38-2.09-9.37c-1.29-3.28-3.29-6.34-4.06-9.8
		c-0.32-1.42-0.46-2.91-0.61-4.35c-0.05-0.46-0.61-4.67-0.33-4.78c0.97-0.36,2.03-0.48,3.05-0.36c0.37,0.04,1.24,0.08,1.52,0.34
		c0.22,0.2,0.11,0.21,0.17,0.51c0.19,0.99,0.18,2.07,0.3,3.09c0.29,2.56,0.47,5.19,1.4,7.62c0.89,2.31,2.73,3.8,4.18,5.72
		c0.68,0.89,1.17,1.88,1.41,2.98c0.38,1.71,0.46,3.41,0.55,5.15C55.41,86.24,58.66,158.76,59.8,180.02z"/>
</g>
<g id="shadow">
	<path class="st14" d="M26.54,0c-0.11,0.98-0.24,2.19-0.4,3.59c-0.02,0.2-0.04,0.4-0.07,0.6c-1.8,16.43-6.26,56.53-7.08,60.79
		c-1.04,5.36-6.68,4.52-9.23,12.98c-2.54,8.47-2.2,93.17-1.38,101.07c0.08,0.79,0.14,1.5,0.19,2.16c-3.67-2.03-6.6-4.87-7.87-9.04
		c-0.07-0.22-0.13-0.45-0.19-0.69c-0.04-0.12-0.07-0.25-0.09-0.38c-0.05-0.2-0.09-0.39-0.13-0.59c-0.07-0.41-0.13-0.82-0.18-1.25
		c-0.08-0.6-0.11-1.21-0.11-1.83V87.42c0-7.23,3.15-13.76,8.16-18.28l0.01-0.01c1.37-1.46,2.98-3.47,4.43-6.08
		c1.89-3.41,2.8-6.58,3.27-8.89c0.01-0.05,0.02-0.09,0.03-0.14l3.09-17.85l3.84-22.14c-0.21,0.01-0.4,0.02-0.58,0
		c-0.51-0.01-0.85-0.11-1.05-0.33c-0.83-0.9-0.18-2.87,0.89-6.06C22.3,7,22.54,6.36,22.8,5.73c0.16-0.38,0.37-1.23,0.72-1.46
		c0.06-0.04,0.13-0.06,0.2-0.08h-0.66c-0.99,0-1.8-0.23-1.8-0.52V3.08C21.26,2.8,23.07,0,23.98,0H26.54z"/>
</g>
<g>
</g>
<g>
</g>
<g>
</g>
<g>
</g>
<g>
</g>
</svg>
