<svg xmlns="http://www.w3.org/2000/svg" viewBox="0 0 66.4 186.47">
  <defs>
    <style>
      .cls-1 {
        isolation: isolate;
      }

      .cls-2 {
        fill: #542210;
        opacity: 0.74;
      }

      .cls-3 {
        fill: #7a3f0f;
        opacity: 0.91;
        mix-blend-mode: overlay;
      }

      .cls-4 {
        fill: #fcdd2e;
      }

      .cls-5 {
        fill: #19345a;
      }

      .cls-6, .cls-8 {
        fill: #8ea5a2;
      }

      .cls-7 {
        fill: #f9e3cd;
      }

      .cls-8 {
        stroke: #f9e3cd;
        stroke-miterlimit: 10;
        stroke-width: 0.5px;
      }

      .cls-9 {
        fill: #f9faf5;
      }

      .cls-10 {
        fill: #7c8993;
      }

      .cls-11 {
        fill: #bde9f9;
      }

      .cls-12 {
        fill: #ff6368;
      }

      .cls-13 {
        fill: #1a1a1a;
      }

      .cls-14 {
        fill: #f2f2f2;
      }

      .cls-15 {
        fill: #edac98;
        opacity: 0.75;
        mix-blend-mode: soft-light;
      }

      .cls-16 {
        fill: #211106;
        opacity: 0.35;
        mix-blend-mode: hard-light;
      }
    </style>
  </defs>
  <g class="cls-1">
    <g id="Layer_2" data-name="Layer 2">
      <path id="beer" class="cls-2" d="M58.25,69.14a30.663,30.663,0,0,1-7.73-15.12l-.01.03-.743-4.277c-10,2.122-20-2.672-30.007-.853-.983.246-2.028.491-3.1.722L15.9,54.02c-.01.05-.02.09-.03.14a31.112,31.112,0,0,1-3.27,8.89,30.62,30.62,0,0,1-4.43,6.08l-.01.01A24.579,24.579,0,0,0,0,87.42v79.99a13.836,13.836,0,0,0,.11,1.83c.05.43.11.84.18,1.25.04.2.08.39.13.59a2.339,2.339,0,0,0,.09.38c.06.24.12.47.19.69,1.52,4.98,5.39,8.05,10.07,10.13.43.19.87.38,1.33.55.33.14.68.27,1.02.39.55.2,1.1.39,1.66.57h.02a61.179,61.179,0,0,0,18.4,2.68,59.809,59.809,0,0,0,18.38-2.68h.03c.26-.08.52-.17.77-.25.3-.1.59-.21.89-.32.43-.16.86-.32,1.29-.5.48-.19.95-.4,1.43-.61.12-.06.25-.11.37-.17.35-.16.69-.33,1.03-.5q.4-.195.78-.42a1.91,1.91,0,0,0,.28-.15c.2-.11.4-.23.59-.35a14.9,14.9,0,0,0,6.3-7.33c.12-.3.23-.61.33-.92v-.01c.08-.25.15-.51.21-.77.04-.14.07-.27.1-.41a7.25,7.25,0,0,0,.16-.81c.06-.34.11-.68.15-1.03a13.836,13.836,0,0,0,.11-1.83V87.42A24.639,24.639,0,0,0,58.25,69.14Z"/>
      <path id="bottle" class="cls-3" d="M66.4,87.42v79.99a13.836,13.836,0,0,1-.11,1.83c-.04.35-.09.69-.15,1.03a7.25,7.25,0,0,1-.16.81c-.03.14-.06.27-.1.41-.06.26-.13.52-.21.77v.01c-.1.31-.21.62-.33.92a14.586,14.586,0,0,1-5.54,6.83c-.25.17-.5.34-.76.5-.19.12-.39.24-.59.35a1.91,1.91,0,0,1-.28.15q-.375.225-.78.42c-.34.17-.68.34-1.03.5-.12.06-.25.11-.37.17-.48.21-.95.42-1.43.61-.16.07-.32.13-.47.19-.28.11-.55.21-.82.31-.3.11-.59.22-.89.32-.25.08-.51.17-.77.25h-.03a59.809,59.809,0,0,1-18.38,2.68,61.179,61.179,0,0,1-18.4-2.68h-.02c-.56-.18-1.11-.37-1.66-.57-.34-.12-.69-.25-1.02-.39-.46-.17-.9-.36-1.33-.55-.76-.34-1.49-.7-2.2-1.09-3.67-2.03-6.6-4.87-7.87-9.04-.07-.22-.13-.45-.19-.69a2.339,2.339,0,0,1-.09-.38c-.05-.2-.09-.39-.13-.59-.07-.41-.13-.82-.18-1.25A13.836,13.836,0,0,1,0,167.41V87.42A24.579,24.579,0,0,1,8.16,69.14l.01-.01a30.62,30.62,0,0,0,4.43-6.08,31.112,31.112,0,0,0,3.27-8.89c.01-.05.02-.09.03-.14l3.09-17.85,3.84-22.14a3.738,3.738,0,0,1-.58,0,1.4,1.4,0,0,1-1.05-.33c-.83-.9-.18-2.87.89-6.06.21-.64.45-1.28.71-1.91.16-.38.37-1.23.72-1.46a.7.7,0,0,1,.2-.08c.02-.01.05-.01.07-.02.78-.2,1.56-.41,2.35-.58.37-.09.75-.17,1.13-.24A36.894,36.894,0,0,1,33.2,2.7a36.894,36.894,0,0,1,5.93.65c1.17.22,2.33.52,3.48.82a.637.637,0,0,1,.07.02.7.7,0,0,1,.2.08c.36.23.57,1.08.73,1.46.25.63.49,1.27.71,1.91,1.06,3.19,1.72,5.16.88,6.06a1.4,1.4,0,0,1-1.03.33,4,4,0,0,1-.6,0l3.85,22.22,3.09,17.8.01-.03a30.663,30.663,0,0,0,7.73,15.12A24.639,24.639,0,0,1,66.4,87.42Z"/>
      <g id="label">
        <rect class="cls-4" y="94.585" width="66.4" height="2.426"/>
        <rect class="cls-5" y="97.011" width="66.4" height="62.656"/>
        <rect class="cls-4" y="159.667" width="66.4" height="2.426"/>
      </g>
      <g id="big_moon" data-name="big moon">
        <path class="cls-6" d="M43.718,108a10.18,10.18,0,0,1,19.225,6.7,10.433,10.433,0,0,1-.484,1.144A10.178,10.178,0,0,1,43.718,108Z"/>
        <path class="cls-7" d="M47.376,103.915a9.982,9.982,0,0,1,.484-1.144A10.176,10.176,0,0,1,62.943,114.7a10.433,10.433,0,0,1-.484,1.144,10.176,10.176,0,0,1-15.083-11.931Z"/>
        <g id="Layer_12" data-name="Layer 12">
          <circle class="cls-6" cx="59.49" cy="108.91" r="1.802"/>
          <circle class="cls-6" cx="53.105" cy="109.482" r="0.827"/>
          <circle class="cls-6" cx="51.177" cy="103.569" r="0.504"/>
          <circle class="cls-6" cx="48.971" cy="107.048" r="0.938"/>
          <circle class="cls-6" cx="55.148" cy="114.98" r="0.803"/>
          <circle class="cls-8" cx="48.711" cy="112.171" r="0.955"/>
        </g>
      </g>
      <g id="bite">
        <path class="cls-5" d="M42,108.819a5.114,5.114,0,0,1,2.373,1.306.166.166,0,0,1-.01.224c-.309.3-1.185,1.131-1.2,1.14a19.26,19.26,0,0,1,2.377.246,16.389,16.389,0,0,1-2.12,1.793,6.4,6.4,0,0,1,1.726,0c.157.145-1.329,1.518-1.329,1.518s2.009-.028,2.678,0c.8.033-1.814,1.7-1.814,1.7a12.492,12.492,0,0,0,1.814-.01c1.255-.221-.594,1.461-.891,2.192l-2.508-.782Z"/>
      </g>
      <g id="stars">
        <polygon class="cls-9" points="55.09 153.22 56.03 155.41 54.56 153.53 53.02 157.39 53.52 153.27 51.34 154.21 53.23 152.74 49.35 151.19 53.44 151.69 53.44 151.7 53.45 151.69 53.44 151.69 52.41 149.29 54.01 151.35 54.01 151.36 54.02 151.35 54.01 151.35 55.54 147.52 55.04 151.6 55.05 151.63 55.06 151.62 57.47 150.59 55.41 152.2 59.22 153.72 55.09 153.22"/>
        <polygon class="cls-9" points="44.231 153.57 45.733 154.064 44.155 153.966 45.392 156.43 43.572 154.368 43.08 155.861 43.179 154.283 40.708 155.524 42.754 153.715 42.758 153.72 42.759 153.711 42.754 153.715 41.108 153.174 42.837 153.283 42.841 153.288 42.843 153.279 42.837 153.283 41.609 150.844 43.415 152.884 43.427 152.891 43.429 152.882 43.976 151.233 43.871 152.967 46.295 151.741 44.231 153.57"/>
        <polygon class="cls-9" points="34.144 152.023 35.374 151.537 34.307 152.317 36.42 153.239 34.148 152.888 34.63 154.11 33.849 153.043 32.926 155.162 33.273 152.906 33.278 152.907 33.274 152.9 33.273 152.906 31.926 153.438 33.095 152.583 33.1 152.585 33.097 152.578 33.095 152.583 31.002 151.673 33.253 152.018 33.265 152.016 33.261 152.009 32.73 150.657 33.59 151.828 34.492 149.744 34.144 152.023"/>
      </g>
      <g>
        <path class="cls-4" d="M38.5,146.152H33.381a.384.384,0,1,1,0-.759H34.6a.8.8,0,0,0,.88-.881v-5.961a.8.8,0,0,0-.88-.88h-.561a.384.384,0,1,1,0-.761h3.8c.28,0,.44.16.44.38a.386.386,0,0,1-.44.381h-.56a.8.8,0,0,0-.879.88v5.961a.8.8,0,0,0,.879.881H38.5c.28,0,.441.159.441.38S38.782,146.152,38.5,146.152Z"/>
        <path class="cls-4" d="M45.182,142.991a3.162,3.162,0,0,1-1.32-.3.492.492,0,0,0-.741.48v2.54a.4.4,0,0,1-.44.44h-.06a.4.4,0,0,1-.44-.44v-5.861a3,3,0,1,1,3,3.14Zm0-5.4a2.27,2.27,0,1,0,2.06,2.26A2.127,2.127,0,0,0,45.182,137.591Z"/>
        <path class="cls-4" d="M56.983,146.152h-.061a.4.4,0,0,1-.439-.44v-2.92a.8.8,0,0,0-.881-.881H53.241a.8.8,0,0,0-.879.881v2.92a.4.4,0,0,1-.441.44h-.059a.4.4,0,0,1-.441-.44v-5.861a3,3,0,1,1,6,0v5.861A.4.4,0,0,1,56.983,146.152Zm-.5-6.3a2.069,2.069,0,1,0-4.121,0v.421a.8.8,0,0,0,.879.879H55.6a.8.8,0,0,0,.881-.879Z"/>
      </g>
      <g>
        <path class="cls-9" d="M25.451,128.677a.76.76,0,0,1,.073.108c.116.081.242.18.323.225.037.017.045.09.091.117a2.1,2.1,0,0,1,.486.486c.018-.009.009,0,.027-.018l.063-.072c.144,0,.189-.072.288-.117.315-.144,1.063-.5,1.432-.2a.735.735,0,0,1,.152.288c.027.081-.009.154.01.252a1.58,1.58,0,0,1,.045.271l.008-.01c.073-.126.054-.018.144-.18a1.271,1.271,0,0,0,.207-.324.725.725,0,0,1,.5-.162c.055.054.162.09.207.153.117.162.2.324.307.5.009,0,.009,0,.017-.009.055-.053.333-.3.414-.378.019-.027.01-.081.045-.108.154-.144.325-.306.46-.414.045-.036.18-.162.244-.153.035.008-.055,0-.028.036a.046.046,0,0,0-.009.045c-.054.063-.054.027-.126.063-.018.018-.045.063-.072.09-.009,0-.018.009-.036.009a6.127,6.127,0,0,0-.405.477c-.073.09-.387.387-.361.54a2.725,2.725,0,0,1,.253.711,1.061,1.061,0,0,0-.054.325c-.045.027-.045.044-.108.053a.654.654,0,0,1-.108.324l-.171.207c-.009.019-.055.019-.09.019-.063-.055-.153-.081-.2-.136a2.311,2.311,0,0,1-.235-.44.771.771,0,0,1-.008-.5c0-.055.053-.073.072-.109a.657.657,0,0,0-.019-.27l-.008-.261a.857.857,0,0,0-.3-.459.347.347,0,0,0-.361.207.671.671,0,0,1-.171.271,1.527,1.527,0,0,0,.054.333c-.009.026-.009.062-.017.09a1.362,1.362,0,0,0,.053.333.65.65,0,0,1,0,.35c-.008.046,0,.136-.008.162a.981.981,0,0,1,0,.154,3.718,3.718,0,0,0-.019.621,2.489,2.489,0,0,0,.072.252,1.605,1.605,0,0,0-.017.2c.017.234.062.54.081.765-.01.045-.055.081-.045.153.009.018.045.054.053.072.018.09,0,.207.018.288s-.026.171,0,.252c.019.181.019.405.055.576-.073.036-.081.081-.117.109a.376.376,0,0,1-.451-.109.377.377,0,0,0-.053-.135c-.334-.441-.154-1.35-.162-2.07l.008-.225a1.081,1.081,0,0,0,.018-.288c0-.144.09-.541.108-.7a6.09,6.09,0,0,0,.073-1.116c-.019-.333.017-.864-.19-1a.464.464,0,0,0-.315-.018,6.335,6.335,0,0,0-.7.315c-.108.063-.342.117-.387.234-.054.1.1.28.135.36a2.2,2.2,0,0,1,.2.846l-.063.316c-.009.026,0,.017-.018.036-.018.035-.045.026-.063.054-.027.062.018.117,0,.153-.009.054-.1.1-.117.126v.071a.713.713,0,0,1-.288.136c-.054-.027-.252-.01-.352-.045-.126-.045-.459-.172-.513-.288l-.1-.226a1.081,1.081,0,0,1,.009-.243c.009-.017.055-.072.063-.09l.018-.153c.019-.054.045-.162.072-.224a2.675,2.675,0,0,0,.154-.226,1.667,1.667,0,0,0-.063-.468.806.806,0,0,0-.063-.171.238.238,0,0,0,.018-.072,1.447,1.447,0,0,0-.154-.36.606.606,0,0,0-.089-.171l-.028-.09a.3.3,0,0,1-.063-.045c-.054-.072-.063-.162-.153-.2-.117-.073-.306.036-.4.09a2.014,2.014,0,0,0-.261.207c-.018,0-.045.045-.045,0a2.178,2.178,0,0,1,.36-.342.516.516,0,0,1,.576-.054C25.37,128.668,25.415,128.677,25.451,128.677Zm.289,1.953c-.082.1-.019.181,0,.315a.387.387,0,0,0,.089.064H25.9c.018-.055,0-.091-.027-.172-.018-.045-.073-.054-.091-.09-.026-.054-.008-.107-.018-.152H25.74Z"/>
        <path class="cls-9" d="M31.941,128.146a1.041,1.041,0,0,1,1.26.846c.009.054.063.063.081.1.027.062-.027.117-.008.2,0,.009.053.027.053.036a.221.221,0,0,1-.045.108,2.3,2.3,0,0,0,.225.18c-.009.144.181.189.252.279.162.018.2-.063.307-.171.233-.2.7-.594.828-.694.017,0,.017,0,.036.019-.279.279-.388.405-.495.522a3.634,3.634,0,0,0-.316.549.515.515,0,0,0-.017.109.571.571,0,0,1-.3.207,1.031,1.031,0,0,1-.765-.081c-.261-.207-.378-1-.5-1.558-.027-.027-.018-.009-.027-.027s-.009-.009-.018-.009a4.29,4.29,0,0,1-.279,1.071c-.081.171-.09.487-.18.576a.216.216,0,0,1-.144.081c-.234.1-.433-.207-.54-.306l-.117-.054c-.073-.062-.154-.143-.216-.207a.194.194,0,0,0-.091-.054,1.061,1.061,0,0,1,.153-1.269l.18-.109a1.467,1.467,0,0,1,.514-.341Zm-.225.81c-.055.071-.2.207-.2.36a.8.8,0,0,0,.153.414,2.745,2.745,0,0,0,.342.046c.135-.333.306-.685.414-1.045a.09.09,0,0,0,.045.008.2.2,0,0,0-.009-.071C32.094,128.515,31.887,128.731,31.716,128.956Z"/>
        <path class="cls-9" d="M36.225,128.658a.194.194,0,0,0-.027.081c-.009-.017-.009-.008-.018-.035s-.027-.054-.045-.072a1.671,1.671,0,0,0-.667.216,1.46,1.46,0,0,0-.2.153.8.8,0,0,0-.181.252l-.045.108a.625.625,0,0,0,.4.855c.081.027.089.018.171.045a.733.733,0,0,0,.45.045.893.893,0,0,0,.252-.072,2.253,2.253,0,0,0,.369-.17,1.917,1.917,0,0,0,.288-.217.705.705,0,0,0,.189-.081l.441-.342c.126-.1.171-.171.324-.279.081-.027.117-.1.216-.118a.491.491,0,0,0-.108.136c-.018.036-.054.036-.089.081s-.118.126-.172.171c-.027.036-.1.045-.144.09a.955.955,0,0,1-.153.18,4.023,4.023,0,0,1-.333.27,1.137,1.137,0,0,0-.216.154,1.829,1.829,0,0,1-.279.224.427.427,0,0,1-.2.064c-.053.017-.107.089-.152.107-.027,0-.127.055-.2.064a1.374,1.374,0,0,1-1.351-.451,1.591,1.591,0,0,1-.153-.216,1.5,1.5,0,0,1,.019-.45,1.25,1.25,0,0,1,.117-.225,4,4,0,0,1,.252-.378c.026-.036.09-.063.1-.081.145-.117.306-.126.45-.243C35.747,128.515,36.216,128.451,36.225,128.658Z"/>
        <path class="cls-9" d="M39.1,127.39a1.4,1.4,0,0,1-.2,1.044,1.361,1.361,0,0,0-.333.378c.053.18.027.477.179.631a1.349,1.349,0,0,0,.919.233.982.982,0,0,0,.244-.054,4.255,4.255,0,0,0,.485-.036.377.377,0,0,1,.108-.072c.028.009.054.009.073.018s.089-.036.117-.027c.081-.009.207-.009.207.036-.126.171-.145.306-.207.316-.1.035-.172.143-.253.215a1.625,1.625,0,0,0-.171.073c-.018.017.009.053-.009.081a.471.471,0,0,1-.405.207c0,.017-.018.035-.018.045-.1-.036-.081.017-.162.026-.144.01-.324-.071-.432-.009a1.149,1.149,0,0,0-.171-.126.173.173,0,0,1-.045.036c-.018,0-.333-.144-.342-.144a2.077,2.077,0,0,1-.964-1.053,1.13,1.13,0,0,0-.081-.181,1.574,1.574,0,0,1,.262-1.1,1.232,1.232,0,0,0,.233-.288c.055-.064.046-.171.109-.262.179-.252.315-.4.6-.314C38.906,127.173,39.068,127.254,39.1,127.39Zm-.478-.126c-.089.054-.152.288-.179.4-.036.226-.154.73.053.847.019-.009.019-.018.045-.028a1.337,1.337,0,0,0,.406-1.044c-.009-.063-.073-.1-.09-.153a.463.463,0,0,1-.117-.062C38.7,127.254,38.672,127.245,38.617,127.264Z"/>
        <path class="cls-9" d="M50.23,130.649c-.01.126-.055.314-.073.441,0,.054.037.144.037.18a.763.763,0,0,1,.026.288c-.071.027-.045.053-.144.072-.126.1-.378-.153-.467-.217a1.327,1.327,0,0,1-.478-.611,2.344,2.344,0,0,1-.036-.5c.019-.09-.027-.153-.027-.216.018-.162-.009-.36,0-.513s-.045-.513-.189-.522a1.344,1.344,0,0,1-.126.108,1.949,1.949,0,0,0-.189.6c-.027.072-.09.18-.117.261a2.68,2.68,0,0,0-.045.4c-.018.181,0,.631-.135.7-.126-.135-.442-.116-.486-.35-.027-.045,0-.118.008-.163a.806.806,0,0,0-.045-.179c-.036-.081,0-.19-.026-.288a1.531,1.531,0,0,1-.072-.226,2.388,2.388,0,0,0-.028-.423,3.412,3.412,0,0,1,.009-.676.663.663,0,0,1,.046-.35l.026-.243c0-.009-.008-.009-.017-.018a2.875,2.875,0,0,0-.612.54c-.316.315-.63.621-.955.927v.063a1.552,1.552,0,0,1,.423.963c-.008.054.054.073.028.126-.01.009-.036.009-.045.045a.3.3,0,0,1,.062.045c-.045.081-.053.217-.108.3a1.618,1.618,0,0,1-.261.242c-.162-.071-.405.109-.612.127a.906.906,0,0,0-.216-.153c-.063-.064-.117-.135-.18-.2-.018-.009-.046-.009-.063-.018a.981.981,0,0,1-.072-.45,2.3,2.3,0,0,1,.089-.307.865.865,0,0,1,.289-.36,2.141,2.141,0,0,0-.748-1.377c-.117-.081-.26-.216-.476-.117a2.61,2.61,0,0,0-.442.306c-.044.009-.081.054-.117.072-.053.027-.09.117-.143.144-.036.026-.055,0-.081.036l.1-.136c.064-.044.109-.116.171-.161a1.343,1.343,0,0,1,.828-.46l.288.118a.792.792,0,0,0,.073.089,1.48,1.48,0,0,1,.225.154c.018.018,0,.045.018.063l.09.027c.054.063.1.126.153.18l.108.081a1.292,1.292,0,0,0,.441.441l.126-.108c.234-.18.441-.378.684-.558a9.67,9.67,0,0,0,.982-.82A1.908,1.908,0,0,1,47.988,127c.027-.045.027-.1.063-.126a.745.745,0,0,1,.243-.153c.054-.018.09,0,.135-.027.117.018.207.018.207.153a.738.738,0,0,1-.045.379l-.108.107a4.649,4.649,0,0,1-.522.649c-.018.215-.036.522-.046.72a6.858,6.858,0,0,0,.073,1.134,1.322,1.322,0,0,1,.089.369H48.1c0-.009,0-.009-.009-.017a1.738,1.738,0,0,0,.144-.5,4.51,4.51,0,0,1,.243-.639.565.565,0,0,1,.1-.108.386.386,0,0,1,.063-.153c.2-.2.811-.072.99.009a1.046,1.046,0,0,1,.45.6l.054.243a1.137,1.137,0,0,1,.072.4c.009.028-.017.117,0,.144.009,0,.018.01.028.01.036.089-.028.252-.036.333C50.185,130.576,50.239,130.612,50.23,130.649Zm-4.646-.109c-.009-.009-.018-.045-.027-.017s-.072.045-.072.089c0,.073.072.045.1.009C45.584,130.6,45.6,130.549,45.584,130.54Zm2.359-2.71c.008.028,0,.019.018.019a1.478,1.478,0,0,0,.288-.324,5.068,5.068,0,0,0,.333-.387c.1-.172.018-.307-.172-.324a.2.2,0,0,1-.107.017c-.036.045-.1.072-.135.126a1.85,1.85,0,0,0-.18.378c-.027.081,0,.19-.018.234a.1.1,0,0,1-.045.045A.487.487,0,0,0,47.943,127.83Z"/>
        <path class="cls-9" d="M52.929,128.227l.207.234c.045.026.144.225.188.261.064.081.091.153.145.234.036.045.108.063.135.108a2.739,2.739,0,0,1,.153.333c0,.018-.036.063-.009.1s.045-.009.063.072c0,0,.009-.009.009.009a.033.033,0,0,0-.009.027c.117.1.054.288.126.423.063.063.162.063.3.054a.509.509,0,0,1,.161-.072c.225-.152.45-.324.648-.459l.055-.045c.207-.18.269-.216.414-.342l.18-.153c-.018.036.036.054-.054.108a1.058,1.058,0,0,0-.234.171c-.109.1-.289.27-.37.324l-.153.2c-.18.153-.387.441-.621.513-.351.109-.459.109-.594.009a1.222,1.222,0,0,1-.36-.549.841.841,0,0,0-.036-.225,1.9,1.9,0,0,0-.423-.468c-.1-.09-.153-.2-.262-.234-.017.009-.062.027-.071.044a1.493,1.493,0,0,0-.055.28c-.009.045.028.045.036.09s-.017.072-.017.09.036.082.036.108-.036.009-.036.045.045.1.053.136l-.026.152a.557.557,0,0,1,.035.162c-.062.036-.071.055-.071.153a.623.623,0,0,1-.747.666c-.486,0-.64-.126-.757-.549-.018-.108,0-.225-.009-.342a1.758,1.758,0,0,1,.235-.936,2.545,2.545,0,0,1,.45-.567,3.316,3.316,0,0,1,.53-.324c.046-.009.1-.009.145-.018a.417.417,0,0,1,.162-.027A1.033,1.033,0,0,1,52.929,128.227Zm-.909.891c-.081.108-.117.243-.2.369a.792.792,0,0,1-.109.432c.036.036.036.027.045.072-.045.028-.045.009-.054.073.036.045,0,.143.045.179a1.2,1.2,0,0,0,.324.09,1.336,1.336,0,0,0,.145-.279,6.135,6.135,0,0,0,.071-.657,1.83,1.83,0,0,0,.045-.423C52.389,128.83,52.1,129,52.02,129.118Zm1.746.486H53.8a.044.044,0,0,1,.009-.027C53.766,129.6,53.8,129.568,53.766,129.6Z"/>
        <path class="cls-9" d="M56.339,127.849c.054.053-.063.369-.117.459-.009.036-.1.162-.072.179a.641.641,0,0,0,.414.217,1.307,1.307,0,0,1,.306-.046,1.348,1.348,0,0,0,.225-.062,1.07,1.07,0,0,1,.478,0c.026.009.026.045.026.062.018.01.063.01.081.019a.112.112,0,0,1,.009.054.243.243,0,0,0,.072.063.716.716,0,0,0,.019.135c.017.017.071.054.071.081.036.054-.018.126.01.171a.027.027,0,0,0,.017.009,1.035,1.035,0,0,1,.036.477c-.018.054.028.045.028.081-.01.018-.036.009-.019.045a1.61,1.61,0,0,1-.009.414,2.312,2.312,0,0,0,.028.595c-.028.054.1.135.062.252,0,.045.045.062.009.171-.009.026-.054.062-.054.081-.027.081.028.081-.063.117-.054-.055-.189-.019-.261-.045l-.1-.072c-.063-.019-.108-.009-.171-.028-.045-.017-.054-.089-.09-.117a.161.161,0,0,0-.09.01v-.027a2.208,2.208,0,0,1-.513-1.161c-.018-.172-.01-.478-.01-.676v-.126c-.035-.063.019-.144-.062-.225-.054-.027-.117.009-.19-.01a1.7,1.7,0,0,0-.2-.045c-.081-.017-.136-.116-.234-.116a.641.641,0,0,1-.388.324c.01-.009.01-.009.019-.009a.8.8,0,0,1,.089-.081,1.046,1.046,0,0,0,.216-.361,1.143,1.143,0,0,1-.045-.314.674.674,0,0,1,.424-.63C56.329,127.74,56.348,127.759,56.339,127.849Zm-.207.188a.53.53,0,0,0-.027.109c-.028.045-.009.134-.019.207,0,.008.01,0,.019.008,0-.017,0-.008.009-.026a.54.54,0,0,0,.108-.253.126.126,0,0,1-.027-.054A.178.178,0,0,1,56.132,128.037Z"/>
        <path class="cls-9" d="M60.435,126.345a1.491,1.491,0,0,1,.009.909c0,.055.017.379.027.424s-.01.081-.01.116l-.09.973c-.017.045.036.045.028.072,0,.009-.045.036-.045.036l.017.54c-.008.028-.053.108-.062.153s.026.1.017.135-.036.045-.045.108l-.089.622c.071.26.045.278.026.314.055-.009.081.009.108,0a2.131,2.131,0,0,0,.3-.557c.162-.316.333-.64.5-.956.109-.207.226-.521.514-.548.017.018,0,.008.027.018a.176.176,0,0,1,.018.081c-.045.072-.063.306-.109.405-.071.171-.207.36-.288.531-.045.108,0,.217-.045.343a1.139,1.139,0,0,0-.026.467c.162.621,1.044,1.144,1.629,1.369a1.787,1.787,0,0,0,.55.044c.053-.017.053-.071.116-.089v.045c-.026.018-.026.063-.054.089a3.239,3.239,0,0,1-.35.181,1.222,1.222,0,0,1-.82-.081,1.931,1.931,0,0,1-1.333-1.477.876.876,0,0,1,.081-.351,5.9,5.9,0,0,1,.181-.6,1.254,1.254,0,0,0,.2-.486H61.4v.018a3.45,3.45,0,0,0-.585,1.243c-.045.1-.019.188-.064.288l-.062.054c-.028.072.017.153-.009.2-.036.062-.091.188-.127.243a.634.634,0,0,0-.09.062c-.026.045.01.054,0,.09-.017.01-.026.028-.045.045s.028.028.019.064c-.01,0-.3.315-.324.341a1.129,1.129,0,0,1-.316.064c-.027-.009-.045-.036-.09-.027a.42.42,0,0,0-.09.045.656.656,0,0,1-.684-.442c-.063-.035-.072-.116-.09-.287v-.226l.2-.459a.288.288,0,0,0-.018-.072c0-.081.27-.747.324-.909.027-.09.4-.954.433-1.044a1.255,1.255,0,0,1,.089-.333v-.117c.063-.217.118-.459.189-.685.055-.2.108-.648.2-1.053C60.309,126.282,60.38,126.246,60.435,126.345Z"/>
      </g>
      <g id="shark">
        <g id="Layer_8" data-name="Layer 8">
          <path class="cls-10" d="M14.635,106.817a24.691,24.691,0,0,0-7.878,3.444,40.01,40.01,0,0,0-3.529,2.554q-.834.671-1.637,1.377c-.221.2-.99.892-.809,1.27.265.554,2.818-.608,5.892-.591a12.488,12.488,0,0,1,3.7.591l4.263-8.645"/>
        </g>
        <path class="cls-11" d="M19.785,121.347c-.224-2.176,6.918-6.4,12.927-4.413a10.762,10.762,0,0,1,4.849,3.418.651.651,0,0,1-.427,1.059q-4.561.569-9.265,1.272-2.344.351-4.646.727a.71.71,0,0,1-.3-.019C20.461,122.674,19.845,121.927,19.785,121.347Z"/>
        <path class="cls-10" d="M36.931,107.718a20.084,20.084,0,0,1-4.91,6.22c-2.33,2.16-4.57,4.44-6.7,6.79-4.4,4.85-10.22,12.69-9.26,19.71a3.846,3.846,0,0,0,1.57,2.85.17.17,0,0,0,.07.01v.01a13.593,13.593,0,0,0,5.42-.25c.73-.11,3.43-.82,3.99-.12s-1.71,2.56-3.67,3.27-1.6,1.99-1.6,3.84c0,1.02-2.85,8.06-3.81,7.7a.824.824,0,0,1-.4-.44,12.007,12.007,0,0,1-.88-5.96c.09-2.16.13-4.32.22-6.48v-.01c-.35-.43-.7-.88-1.06-1.36-.05-.06-.1-.13-.15-.2a45.888,45.888,0,0,1-3.28-5.24c-1.33-2.58-8.34-18.63-.31-30.08a20.1,20.1,0,0,1,11.58-7.76,48.742,48.742,0,0,1,12.22-1.3,2.056,2.056,0,0,1,2.34,1.59,5.593,5.593,0,0,1,.15.71C38.731,103.348,37.781,105.9,36.931,107.718Z"/>
        <g id="Layer_7" data-name="Layer 7">
          <path class="cls-11" d="M20.875,120.359c-1.03-1.93-9.315-1.45-13.189,3.557a10.766,10.766,0,0,0-2.113,5.543.65.65,0,0,0,.945.64q4.1-2.074,8.4-4.118,2.142-1.017,4.261-1.991a.706.706,0,0,0,.235-.181C21.055,121.837,21.149,120.873,20.875,120.359Z"/>
        </g>
        <path class="cls-11" d="M36.931,107.718a20.084,20.084,0,0,1-4.91,6.22c-.29.27-.58.54-.86.82-2.03,1.91-3.97,3.91-5.84,5.97-4.4,4.85-10.22,12.69-9.26,19.71a3.846,3.846,0,0,0,1.57,2.85.17.17,0,0,0,.07.01v.01a.482.482,0,0,0,0,.17c.05.4.4.6.42.97a.127.127,0,0,1-.01.06c-.09.22-.64.12-.83.18a.968.968,0,0,0-.31.18v-.01c-.35-.43-.7-.88-1.06-1.36a30.477,30.477,0,0,1-1.23-4.22c-.46-2.13-1.17-4.55-.31-6.68a12.32,12.32,0,0,1,1.15-2.03c3.49-5.36,6.38-11.33,7.47-17.67a6.5,6.5,0,0,1,1.86-4.08,8.106,8.106,0,0,1,2.46-1.18c4.36-1.52,8.24-3.11,11.15-6.42C38.731,103.348,37.781,105.9,36.931,107.718Z"/>
        <path class="cls-12" d="M36.931,107.718c-.01.02-.02.05-.03.07a20.127,20.127,0,0,1-4.88,6.15c-.29.27-.58.54-.86.82a.292.292,0,0,1-.09.02c-.11.03-.22.05-.33.07a4,4,0,0,1-.48.08h-.01c-.13.02-.27.03-.4.04a1.205,1.205,0,0,1-.19,0h-.01a2.488,2.488,0,0,1-.72-.03l-.01.01-.01-.01a.566.566,0,0,1-.18-.03,1.607,1.607,0,0,1-.59-.28,4.2,4.2,0,0,1-1.3-2.71.238.238,0,0,1,.22-.28.17.17,0,0,0,.07-.01c.42-.03.84-.03,1.26-.06a.01.01,0,0,0,.01.01l.01-.01a5.63,5.63,0,0,0,.91-.1c.12-.02.23-.05.35-.08h.01a10.685,10.685,0,0,0,1.22-.37c.02-.01.04-.01.06-.02q.375-.135.75-.3c.14-.06.27-.12.41-.19a.169.169,0,0,0,.05-.02c.39-.19.78-.39,1.16-.6.01-.01.01-.01.02-.01v-.01q.525-.285,1.05-.6v-.01c.31-.18.61-.36.92-.55a.01.01,0,0,0,.01-.01c.21-.12.41-.25.62-.37v-.01c.04-.02.07-.04.11-.06.09-.05.18-.12.28-.19h.01v-.01c.08-.06.16-.11.24-.16a1.3,1.3,0,0,1,.15-.1h.01a.974.974,0,0,1,.11-.05h.01C36.891,107.728,36.911,107.728,36.931,107.718Z"/>
        <g id="Layer_10" data-name="Layer 10">
          <path class="cls-9" d="M28.4,111.578v.01a4.459,4.459,0,0,1-.49,1.19c-.1.03-.59-.8-.78-1.15.42-.03.84-.03,1.26-.06A.01.01,0,0,0,28.4,111.578Z"/>
          <path class="cls-9" d="M29.321,111.468c.12-.02.23-.05.35-.08a5.465,5.465,0,0,1-.52,1.28c-.09.03-.53-.71-.75-1.08v-.01l.01-.01A5.63,5.63,0,0,0,29.321,111.468Z"/>
          <path class="cls-9" d="M30.961,111c0,.02-.01.04-.01.06a5.546,5.546,0,0,1-.31,1.34c-.09.05-.71-.7-.96-1.01a10.685,10.685,0,0,0,1.22-.37C30.921,111.008,30.941,111.008,30.961,111Z"/>
          <path class="cls-9" d="M32.041,111.958c-.08.06-.82-.63-1.09-.9-.02-.02-.04-.03-.05-.04.02-.01.04-.01.06-.02q.375-.135.75-.3c.14-.06.27-.12.41-.19a.169.169,0,0,0,.05-.02q.015.015,0,.06v.01A5,5,0,0,1,32.041,111.958Z"/>
          <path class="cls-9" d="M33.4,111.3a5.676,5.676,0,0,1-1.23-.74v-.01c-.02-.02-.04-.03-.05-.04a.169.169,0,0,0,.05-.02c.39-.19.78-.39,1.16-.6.01-.01.01-.01.02-.01s.01.02.01.03A5.619,5.619,0,0,1,33.4,111.3Z"/>
          <path class="cls-9" d="M34.471,110.588c-.07.07-.84-.48-1.11-.68-.01-.01-.02-.01-.03-.02.01-.01.01-.01.02-.01v-.01q.525-.285,1.05-.6a.01.01,0,0,1,.01.01A5.054,5.054,0,0,1,34.471,110.588Z"/>
          <path class="cls-9" d="M35.351,109.858a4.061,4.061,0,0,1-.94-.58.01.01,0,0,0-.01-.01v-.01c.31-.18.61-.36.92-.55A4.164,4.164,0,0,1,35.351,109.858Z"/>
          <path class="cls-9" d="M36.021,109.058c-.04.04-.46-.22-.69-.36.21-.12.41-.25.62-.37A2.464,2.464,0,0,1,36.021,109.058Z"/>
          <path class="cls-9" d="M36.391,108.548c-.03.03-.27-.11-.44-.22v-.01c.04-.02.07-.04.11-.06.09-.05.18-.12.28-.19h.01A1.987,1.987,0,0,1,36.391,108.548Z"/>
          <path class="cls-9" d="M36.611,108.188c-.02.02-.15-.05-.26-.12v-.01c.08-.06.16-.11.24-.16A.8.8,0,0,1,36.611,108.188Z"/>
          <path class="cls-9" d="M36.751,107.8v.01a.573.573,0,0,1-.02.18.723.723,0,0,1-.14-.09,1.3,1.3,0,0,1,.15-.1Z"/>
          <path class="cls-9" d="M36.751,107.8a.974.974,0,0,1,.11-.05.278.278,0,0,1-.05.13c-.01,0-.03-.03-.06-.07,0-.01,0-.01-.01-.01Z"/>
          <path class="cls-9" d="M36.931,107.718c-.01.02-.02.05-.03.07a.187.187,0,0,1-.03-.04C36.891,107.728,36.911,107.728,36.931,107.718Z"/>
          <path class="cls-9" d="M28.911,114.938a.566.566,0,0,1-.18-.03,1.607,1.607,0,0,1-.59-.28,2.445,2.445,0,0,1,.44-.57A3.1,3.1,0,0,1,28.911,114.938Z"/>
          <path class="cls-9" d="M29.651,114.958v.01a2.488,2.488,0,0,1-.72-.03,2.608,2.608,0,0,1,.39-.64A2.232,2.232,0,0,1,29.651,114.958Z"/>
          <path class="cls-9" d="M30.251,114.928c-.13.02-.27.03-.4.04a1.205,1.205,0,0,1-.19,0h-.01v-.01a2.393,2.393,0,0,1,.23-.56C29.941,114.4,30.141,114.718,30.251,114.928Z"/>
          <path class="cls-9" d="M30.741,114.848a4,4,0,0,1-.48.08,1.913,1.913,0,0,1,.19-.48C30.5,114.448,30.641,114.678,30.741,114.848Z"/>
          <path class="cls-9" d="M31.071,114.778c-.11.03-.22.05-.33.07a.994.994,0,0,1,.1-.33A1.061,1.061,0,0,1,31.071,114.778Z"/>
        </g>
        <g id="Layer_9" data-name="Layer 9">
          <circle class="cls-13" cx="26.135" cy="104.537" r="1.027"/>
          <circle class="cls-14" cx="25.812" cy="104.6" r="0.616"/>
        </g>
      </g>
      <path class="cls-4" d="M47.42,36.25c-4.52-.27-9.29-.43-14.28-.44-4.93-.02-9.66.12-14.15.36l3.84-22.14a65.605,65.605,0,0,1,20.74,0Z"/>
      <g id="Layer_16" data-name="Layer 16">
        <circle class="cls-5" cx="33.214" cy="24.445" r="10.923"/>
      </g>
      <g id="little_moon" data-name="little moon">
        <path class="cls-6" d="M27.673,22.888a5.761,5.761,0,0,1,10.879,3.793,5.893,5.893,0,0,1-.274.647,5.759,5.759,0,0,1-10.6-4.44Z"/>
        <path class="cls-7" d="M29.743,20.577a5.705,5.705,0,0,1,.274-.647,5.758,5.758,0,0,1,8.535,6.751,5.893,5.893,0,0,1-.274.647,5.758,5.758,0,0,1-8.535-6.751Z"/>
        <circle class="cls-6" cx="36.598" cy="23.403" r="1.02"/>
        <circle class="cls-6" cx="32.985" cy="23.727" r="0.468"/>
        <circle class="cls-6" cx="31.894" cy="20.381" r="0.285"/>
        <circle class="cls-6" cx="30.646" cy="22.35" r="0.531"/>
        <circle class="cls-6" cx="34.141" cy="26.838" r="0.454"/>
        <circle class="cls-8" cx="30.499" cy="25.249" r="0.54"/>
      </g>
      <g id="neck_text" data-name="neck text">
        <g>
          <path class="cls-11" d="M34.644,32.95c0,.066-.008.2,0,.267,0,.029.049.076.054.1.052.047.04.1.063.159-.058.03-.032.041-.114.071-.1.081-.347-.018-.432-.039a.862.862,0,0,1-.468-.286.815.815,0,0,1-.074-.283c0-.048-.038-.089-.04-.123-.007-.089-.039-.209-.045-.3s-.079-.294-.19-.284a1.026,1.026,0,0,1-.089.076,1.028,1.028,0,0,0-.108.37c-.018.045-.063.114-.08.163a1.03,1.03,0,0,0-.014.236c-.008.1.036.37-.078.423-.116-.07-.389-.043-.434-.179-.025-.026,0-.072,0-.1s-.034-.083-.043-.1c-.032-.047,0-.114-.03-.169a.523.523,0,0,1-.064-.13,1.89,1.89,0,0,0-.031-.248,2.2,2.2,0,0,1-.007-.4.341.341,0,0,1,.027-.208l.014-.144s-.007,0-.014-.01a2.809,2.809,0,0,0-.458.325,7.06,7.06,0,0,1-.785.51l0,.037c.132.107.366.428.319.59-.009.032.045.045.019.076-.007,0-.031,0-.04.024a.285.285,0,0,1,.054.029c-.041.046-.055.125-.1.17a1.333,1.333,0,0,1-.244.127c-.142-.053-.372.031-.562.018a1.69,1.69,0,0,0-.184-.116c-.05-.038-.094-.095-.145-.14-.014-.008-.039-.012-.054-.02-.02-.03-.057-.225-.02-.272a1.381,1.381,0,0,1,.107-.165,2.452,2.452,0,0,0,.276-.173c.087-.1-.268-.748-.47-.9a.461.461,0,0,0-.354-.149,3.447,3.447,0,0,0-.388.085.474.474,0,0,0-.1.015c-.047,0-.094.042-.138.047s-.042-.013-.07,0l.1-.052c.058-.011.105-.041.161-.052a1.394,1.394,0,0,1,.706-.1c.082.046.123.069.206.113a.525.525,0,0,0,.046.062,1.43,1.43,0,0,1,.159.119c.012.013,0,.027.008.04l.068.026c.037.044.067.086.105.124l.079.059a.885.885,0,0,0,.325.3l.109-.053c.2-.089.37-.2.564-.294a3.891,3.891,0,0,0,.741-.486,1.043,1.043,0,0,1,.152-.64c.017-.027.015-.059.038-.077a.546.546,0,0,1,.157-.1c.035-.014.06-.006.089-.025a.169.169,0,0,1,.148.075.6.6,0,0,1-.006.225l-.068.071a2.105,2.105,0,0,1-.341.411c0,.128-.007.31-.008.426a2.926,2.926,0,0,0,.1.664.736.736,0,0,1,.089.211h.014c0-.005,0-.005-.008-.009a.772.772,0,0,0,.095-.306,3.006,3.006,0,0,1,.157-.393c.019-.023.057-.053.07-.071s.013-.07.038-.095a1.251,1.251,0,0,1,.746-.109.7.7,0,0,1,.414.276c.029.052.044.077.074.129a.553.553,0,0,1,.11.214c.011.014,0,.071.02.083a.177.177,0,0,1,.023,0c.041.044.014.151.016.2S34.644,32.931,34.644,32.95Zm-3.936.155c-.007-.006-.012-.028-.022-.013s-.065.018-.068.044c-.006.042.058.035.084.017C30.7,33.142,30.723,33.113,30.708,33.1Zm1.923-1.525c.008.014,0,.011.014.01a.831.831,0,0,0,.192-.2,2.075,2.075,0,0,0,.21-.25c.057-.105-.008-.18-.136-.178a.142.142,0,0,1-.072.017c-.021.029-.062.048-.085.082a1.081,1.081,0,0,0-.108.231c-.016.049.007.111,0,.138a.072.072,0,0,1-.031.029A.28.28,0,0,0,32.631,31.58Z"/>
          <path class="cls-11" d="M36.16,30.908c.078.024.117.035.2.058.037,0,.155.07.2.073.064.021.1.05.16.073.036.01.09-.006.121.007a1.559,1.559,0,0,1,.2.115c.005.009,0,.046.022.055s.028-.022.064.013c0,0,0-.009.009,0a.016.016,0,0,0,0,.017c.109.006.121.127.211.167a.324.324,0,0,0,.224-.094c.047-.046.033-.045.09-.105.107-.173.2-.356.285-.51l.019-.046c.073-.18.1-.226.144-.352.023-.062.035-.093.056-.156,0,.026.042.011.006.076a.973.973,0,0,0-.085.189c-.034.095-.091.261-.125.324l-.035.165a1.563,1.563,0,0,1-.262.526c-.214.2-.3.245-.421.248a.727.727,0,0,1-.41-.149c-.037-.041-.041-.081-.086-.105a1.485,1.485,0,0,0-.416-.1.7.7,0,0,0-.238-.043.17.17,0,0,0-.04.046.7.7,0,0,0,.028.168c0,.027.029.02.047.037s0,.044.008.054.045.033.051.048-.024.019-.015.035.056.039.071.056l.016.091c.019.026.044.027.065.076-.038.04-.041.054-.017.106.157.337-.3.557-.431.594-.366.1-.535.1-.7-.107-.032-.056-.037-.13-.064-.191a.927.927,0,0,1,.011-.581,1.918,1.918,0,0,1,.212-.425,3.011,3.011,0,0,1,.294-.317c.028-.017.064-.032.092-.05a.408.408,0,0,1,.1-.06A.89.89,0,0,1,36.16,30.908Zm-.416.752c-.032.081-.032.166-.066.258a.372.372,0,0,1,.007.268c.035.011.033.005.049.028-.029.027-.032.017-.027.055.037.015.03.079.072.087a1.224,1.224,0,0,0,.267-.046.958.958,0,0,0,.048-.2A3.547,3.547,0,0,0,36,31.734a.974.974,0,0,0-.063-.244C35.941,31.4,35.778,31.575,35.744,31.66Zm1.353-.322.024-.014a.026.026,0,0,1,0-.018C37.094,31.333,37.111,31.305,37.1,31.338Z"/>
          <path class="cls-11" d="M38.1,29.393c.05,0,.106.2.11.262.008.02,0,.12.026.115a.507.507,0,0,0,.319-.1c.015-.014.067-.087.153-.174a.972.972,0,0,0,.1-.143,1.062,1.062,0,0,1,.254-.252c.018-.011.033,0,.041.011s.04-.035.05-.037.02.01.028.017a.173.173,0,0,0,.065-.014c.024.013.034.033.067.044.017,0,.061-.018.073-.007.042,0,.045.061.078.064a.027.027,0,0,0,.013-.007c.187.1.213.144.227.17s.042,0,.049.016-.015.025.01.028c0,0,.17.156.174.171a.655.655,0,0,0,.273.221c.008.038.117-.01.147.06.019.018.054,0,.079.062.007.017,0,.06,0,.067.019.05.052.014.013.087-.056.013-.122.115-.177.149l-.091.033c-.046.032-.071.067-.117.095s-.071,0-.1.006a.2.2,0,0,0-.052.058l-.011-.011a1.065,1.065,0,0,1-.782-.207,3.517,3.517,0,0,1-.27-.292l-.05-.055c-.045-.009-.046-.072-.124-.067-.042.015-.064.063-.113.091-.019.009-.117.064-.133.077-.054.032-.122.012-.181.059a.455.455,0,0,1-.115.332.017.017,0,0,1,.008-.013.378.378,0,0,1,.025-.079.725.725,0,0,0,0-.268.777.777,0,0,1-.142-.125.416.416,0,0,1,0-.48C38.051,29.349,38.067,29.349,38.1,29.393Zm-.043.181a.414.414,0,0,1,.026.062,1,1,0,0,0,.067.1s.005,0,.013,0,0,0,0-.016a.277.277,0,0,0-.033-.165.076.076,0,0,1-.035-.012A.169.169,0,0,1,38.054,29.574Z"/>
          <path class="cls-11" d="M39.255,26.694c.2.007.3.137.46.274a2.241,2.241,0,0,0,.224.113c.031.008.037.031.055.042.182.141.273.213.453.357.016.026.037-.01.047,0s0,.041,0,.041l.278.156a.845.845,0,0,0,.049.091c.022.023.062.012.076.029s.007.039.035.065c.108.1.161.155.268.259.163.031.16.056.169.081.021-.043.042-.057.05-.08a1.1,1.1,0,0,0-.149-.388c-.09-.212-.187-.429-.286-.638a.587.587,0,0,1-.1-.511c.016-.008.008-.009.019-.014a.06.06,0,0,1,.049.008c.023.05.141.123.177.181.065.1.115.247.173.352.039.063.112.064.161.128a.451.451,0,0,0,.233.148c.389.047,1.019-.546,1.337-1.023a2.494,2.494,0,0,0,.2-.489c.007-.052-.024-.063-.016-.124l.025.008c0,.028.028.036.035.066a3.534,3.534,0,0,1-.006.357,1.609,1.609,0,0,1-.326.718,1.341,1.341,0,0,1-1.31.71c-.073-.023-.113-.116-.148-.161a3.333,3.333,0,0,1-.242-.3.625.625,0,0,0-.18-.275l-.006.013.009,0a2.243,2.243,0,0,0,.413.776c.032.062.089.069.12.131v.064c.025.042.086.032.1.066s.056.125.067.168a.347.347,0,0,0-.01.089c.005.03.043.015.045.027a.326.326,0,0,1,0,.049c0,.012.026-.013.04,0,0,.007.014.327.014.357a1.4,1.4,0,0,1-.129.261c-.017.017-.04.022-.059.059a.522.522,0,0,0-.025.082.636.636,0,0,1-.578.341c-.051.031-.093.008-.182-.043l-.1-.083c-.042-.121-.064-.181-.109-.3-.008-.007-.03-.008-.042-.014-.034-.015-.216-.444-.267-.536-.031-.048-.279-.578-.307-.63-.052-.028-.078-.111-.125-.166l-.057-.039c-.08-.109-.177-.227-.261-.337s-.279-.271-.449-.448C39.18,26.746,39.186,26.7,39.255,26.694Z"/>
        </g>
        <g>
          <path class="cls-11" d="M23.457,23.58a.5.5,0,0,1,.089-.052c.089-.1.2-.2.252-.274.025-.032.069-.024.1-.061a1.647,1.647,0,0,1,.476-.341c0-.019,0-.008,0-.03l-.013-.076a.879.879,0,0,0,.064-.3c.066-.327.272-1.112.641-1.313a.446.446,0,0,1,.235-.023c.057.008.076.069.132.084a.788.788,0,0,1,.161.062v-.011c-.023-.1,0-.07-.007-.178,0-.089-.029-.188-.036-.284a.782.782,0,0,1,.235-.446A.684.684,0,0,1,26,20.248a3.12,3.12,0,0,1,.432-.01c.006-.006.006-.006.008-.016.011-.06.093-.359.115-.451,0-.023-.029-.041-.015-.078a4.81,4.81,0,0,1,.16-.5.674.674,0,0,1,.124-.233c.03-.02-.042.036-.007.035-.006.02.008.023.012.027-.017.065-.031.048-.071.113-.007.02-.008.059-.017.089-.008.006-.01.017-.024.029a3.265,3.265,0,0,0-.092.488c-.012.089-.095.434-.009.481a1.59,1.59,0,0,1,.477.144.383.383,0,0,0,.107.176.233.233,0,0,1-.044.092.341.341,0,0,1,.077.207c0,.079,0,.118-.008.2,0,.013-.023.042-.044.064a1.452,1.452,0,0,1-.176.07,1.306,1.306,0,0,1-.34-.023.34.34,0,0,1-.24-.191c-.025-.022,0-.072-.008-.094-.015-.039-.1-.083-.138-.1l-.128-.1a.517.517,0,0,0-.4.04.375.375,0,0,0-.116.357.458.458,0,0,1,.036.232.646.646,0,0,0,.2.08.319.319,0,0,0,.035.047.428.428,0,0,0,.2.081.31.31,0,0,1,.175.129c.017.024.067.05.075.067s.072.053.077.056a1.79,1.79,0,0,0,.3.239,1.345,1.345,0,0,0,.162.045.5.5,0,0,0,.089.085c.115.077.3.159.417.232.018.023.016.064.056.084.013,0,.047-.007.06-.005.052.022.1.079.15.1s.081.076.124.1c.091.038.208.141.307.185-.013.053.006.075,0,.105a.282.282,0,0,1-.235.212.2.2,0,0,0-.09-.015c-.357.04-.758-.369-1.135-.607l-.113-.083c0-.015-.084-.073-.14-.11-.074-.049-.235-.251-.31-.32a2.552,2.552,0,0,0-.534-.442c-.179-.1-.432-.319-.617-.189a.727.727,0,0,0-.182.265,4.867,4.867,0,0,0-.184.718c-.017.115-.082.345-.046.414s.2-.014.259-.023a.966.966,0,0,1,.552.068l.147.141c.011.015.01,0,.013.025s0,.044,0,.066c.023.039.07.025.084.042s.016.107.024.128l.04.02a.813.813,0,0,1-.032.266c-.036.037-.1.2-.149.274-.069.093-.247.346-.332.368l-.162.041a.421.421,0,0,1-.139-.058c-.008-.011-.025-.062-.033-.074L24.7,24a1.072,1.072,0,0,1-.107-.113c-.031-.045-.039-.138-.079-.187s-.234-.034-.293-.044c-.043-.008-.083.018-.121.023-.013-.014-.02-.027-.036-.032a.731.731,0,0,0-.263.074c-.021-.007-.109.043-.131.055l-.062.01a.305.305,0,0,1-.048.055c-.06.041-.116.033-.167.12a.758.758,0,0,0-.067.43,1.752,1.752,0,0,0,.053.307c0,.019.015.054-.012.048a1.889,1.889,0,0,1-.106-.434.855.855,0,0,1,.153-.612C23.423,23.661,23.444,23.616,23.457,23.58Zm1.235.14c.03.1.1.056.182.07a.436.436,0,0,0,.067-.065l.025-.063c-.024-.028-.052-.021-.108-.016-.032.006-.056.052-.083.06s-.065-.016-.094-.019l-.01.025Z"/>
          <path class="cls-11" d="M27.3,17.966c.57-.5,1.144-.478,1.383-.248.025.025.075,0,.1.016s.01.076.05.112c0,0,.055-.011.057-.006a.12.12,0,0,1-.008.08c.087-.008.157.011.247,0,.033.084.234.052.295.047.11-.008.156-.116.224-.22.158-.2.5-.6.6-.7a.045.045,0,0,1,.038,0,4.669,4.669,0,0,0-.347.476,2.064,2.064,0,0,0-.148.432.19.19,0,0,0,.011.068.618.618,0,0,1-.2.232,1.592,1.592,0,0,1-.655.284c-.275.008-.624-.351-.917-.575-.032,0-.018.006-.032,0a.026.026,0,0,0-.019,0,2.209,2.209,0,0,1,.131.706c-.006.132.1.3.06.391a.252.252,0,0,1-.08.118c-.141.176-.4.137-.517.153l-.108.043c-.077.013-.169.024-.24.033a.207.207,0,0,0-.088.031c-.317-.036-.516-.281-.392-.7.04-.068.061-.1.1-.17a1.608,1.608,0,0,1,.3-.5Zm.105.543c-.017.068-.082.222-.024.3a.416.416,0,0,0,.274.113c.115-.065.189-.111.285-.171-.011-.244.01-.519-.017-.766a.136.136,0,0,0,.042-.02.078.078,0,0,0-.032-.033A.743.743,0,0,0,27.408,18.509Z"/>
          <path class="cls-11" d="M31.509,16.442c-.015.02-.012.031-.016.055l-.023-.018a.318.318,0,0,0-.056-.033,2.127,2.127,0,0,0-.632.3,1.451,1.451,0,0,0-.166.15.568.568,0,0,0-.124.2l-.021.078c-.043.291.187.413.526.387.078-.006.087-.015.163-.019a1.182,1.182,0,0,0,.419-.079c.11-.049.14-.051.223-.1.139-.076.3-.149.327-.171a2.609,2.609,0,0,0,.255-.177.932.932,0,0,0,.176-.075c.162-.106.245-.157.415-.257a3.439,3.439,0,0,1,.317-.2c.082-.021.117-.067.219-.082a.3.3,0,0,0-.107.088c-.018.019-.056.028-.09.055s-.115.084-.167.116c-.026.024-.1.034-.141.066a1.128,1.128,0,0,1-.142.125c-.067.039-.158.117-.306.2a1.024,1.024,0,0,0-.193.123,2.793,2.793,0,0,1-.241.181.633.633,0,0,1-.177.073c-.047.02-.088.074-.127.094-.024,0-.107.058-.172.078a1.975,1.975,0,0,1-1.293.1,1.787,1.787,0,0,1-.185-.073.622.622,0,0,1-.083-.266.671.671,0,0,1,.059-.172,2.21,2.21,0,0,1,.161-.306c.019-.031.075-.067.08-.081.118-.116.276-.171.4-.283C31,16.472,31.473,16.319,31.509,16.442Z"/>
          <path class="cls-11" d="M34.567,15.418a.594.594,0,0,1-.252.635,1.155,1.155,0,0,0-.362.225c.057.112.028.3.182.393a2.453,2.453,0,0,0,.926.209,2.083,2.083,0,0,0,.252,0c.171.014.331.044.5.059a.473.473,0,0,1,.118-.023c.027.011.057.019.073.027s.1,0,.124.008c.084.013.214.044.207.071-.154.072-.189.15-.254.142a.909.909,0,0,0-.279.079c-.027,0-.168.014-.178.013s0,.034-.018.047a.615.615,0,0,1-.414.066c0,.011-.022.02-.022.025-.093-.034-.081,0-.159,0a1.6,1.6,0,0,0-.416-.045,1.021,1.021,0,0,0-.161-.088.206.206,0,0,1-.044.02c-.018,0-.32-.1-.329-.1-.434-.2-.829-.349-.979-.623a.57.57,0,0,0-.092-.1.666.666,0,0,1,.23-.7,1.8,1.8,0,0,0,.252-.19c.048-.042.046-.107.117-.165a.722.722,0,0,1,.694-.192C34.356,15.274,34.539,15.336,34.567,15.418Zm-.546-.1c-.1.032-.181.18-.2.25-.045.129-.161.451.061.523a.3.3,0,0,1,.049-.017c.261-.11.539-.464.463-.635-.008-.039-.08-.083-.1-.1s-.082-.02-.134-.043A.781.781,0,0,1,34.021,15.321Z"/>
        </g>
      </g>
      <path id="cap" class="cls-5" d="M45.15,3.08v.59c0,.29-.81.52-1.8.52H23.06c-.99,0-1.8-.23-1.8-.52V3.08C21.26,2.8,23.07,0,23.98,0H42.43C43.34,0,45.15,2.8,45.15,3.08Z"/>
      <g id="highlight">
        <path class="cls-15" d="M39.681,46.436c.3,1.729,1.1,3.481,1.512,5.163a24.659,24.659,0,0,1,.506,3.506,1.54,1.54,0,0,0,.438,1.017,2,2,0,0,0,.923.374,7.778,7.778,0,0,0,1.739.248c1.656-.016,2.154-1.043,1.806-2.541-.445-1.924-.936-3.836-1.408-5.753-.352-1.43-.481-3.827-1.7-4.841a2.436,2.436,0,0,0-1.644-.514,2.4,2.4,0,0,0-1.7.732,2.613,2.613,0,0,0-.558,1.986C39.618,46.021,39.646,46.228,39.681,46.436Z"/>
        <path class="cls-15" d="M59.8,180.02c-.25.17-.5.34-.76.5-.19.12-.39.24-.59.35a1.91,1.91,0,0,1-.28.15q-.375.225-.78.42c-.34.17-.68.34-1.03.5-.12.06-.25.11-.37.17-.48.21-.95.42-1.43.61-.16.07-.32.13-.47.19-1.7-16.96-4.2-94.31-4.28-95.65a30.776,30.776,0,0,0-2.09-9.37c-1.29-3.28-3.29-6.34-4.06-9.8a37.615,37.615,0,0,1-.61-4.35c-.05-.46-.61-4.67-.33-4.78a6.606,6.606,0,0,1,3.05-.36,3.494,3.494,0,0,1,1.52.34c.22.2.11.21.17.51.19.99.18,2.07.3,3.09a30.765,30.765,0,0,0,1.4,7.62c.89,2.31,2.73,3.8,4.18,5.72a7.522,7.522,0,0,1,1.41,2.98,30.724,30.724,0,0,1,.55,5.15C55.41,86.24,58.66,158.76,59.8,180.02Z"/>
      </g>
      <g id="shadow">
        <path class="cls-16" d="M26.54,0c-.11.98-.24,2.19-.4,3.59-.02.2-.04.4-.07.6-1.8,16.43-6.26,56.53-7.08,60.79-1.04,5.36-6.68,4.52-9.23,12.98s-2.2,93.17-1.38,101.07c.08.79.14,1.5.19,2.16-3.67-2.03-6.6-4.87-7.87-9.04-.07-.22-.13-.45-.19-.69a2.339,2.339,0,0,1-.09-.38c-.05-.2-.09-.39-.13-.59-.07-.41-.13-.82-.18-1.25A13.836,13.836,0,0,1,0,167.41V87.42A24.579,24.579,0,0,1,8.16,69.14l.01-.01a30.62,30.62,0,0,0,4.43-6.08,31.112,31.112,0,0,0,3.27-8.89c.01-.05.02-.09.03-.14l3.09-17.85,3.84-22.14a3.738,3.738,0,0,1-.58,0,1.4,1.4,0,0,1-1.05-.33c-.83-.9-.18-2.87.89-6.06.21-.64.45-1.28.71-1.91.16-.38.37-1.23.72-1.46a.7.7,0,0,1,.2-.08h-.66c-.99,0-1.8-.23-1.8-.52V3.08C21.26,2.8,23.07,0,23.98,0Z"/>
      </g>
    </g>
  </g>
</svg>
