<?xml version="1.0" encoding="utf-8"?>
<!-- Generator: Adobe Illustrator 25.2.1, SVG Export Plug-In . SVG Version: 6.00 Build 0)  -->
<svg version="1.1" xmlns="http://www.w3.org/2000/svg" xmlns:xlink="http://www.w3.org/1999/xlink" x="0px" y="0px"
	 viewBox="0 0 182.425 117.528" style="enable-background:new 0 0 182.425 117.528;" xml:space="preserve">
<style type="text/css">
	.st0{fill:none;stroke:#CCCCCC;stroke-linecap:round;stroke-linejoin:round;stroke-miterlimit:10;}
	.st1{fill:none;stroke:#CAE021;stroke-width:5;stroke-linecap:round;stroke-linejoin:round;stroke-miterlimit:10;}
	.st2{fill:none;stroke:#333333;stroke-width:3;stroke-linecap:round;stroke-linejoin:round;stroke-miterlimit:10;}
	.st3{fill:#043B57;stroke:#043B57;stroke-width:3;stroke-linecap:round;stroke-linejoin:round;stroke-miterlimit:10;}
	.st4{fill:none;stroke:#043B57;stroke-linecap:round;stroke-linejoin:round;stroke-miterlimit:10;}
	.st5{fill:none;stroke:#4E88EC;stroke-width:5;stroke-linecap:round;stroke-linejoin:round;stroke-miterlimit:10;}
	.st6{fill:#043B57;}
	.st7{fill:none;stroke:#8CC63F;stroke-width:4;stroke-linecap:round;stroke-miterlimit:10;}
	.st8{fill:none;stroke:#CAE021;stroke-width:4;stroke-linecap:round;stroke-miterlimit:10;}
	.st9{fill:none;stroke:#CAE021;stroke-width:5;stroke-linecap:round;stroke-miterlimit:10;}
	.st10{fill:none;stroke:#043B57;stroke-width:5;stroke-linecap:round;stroke-miterlimit:10;}
	.st11{fill:none;stroke:#043B57;stroke-width:5;stroke-linecap:round;stroke-linejoin:bevel;stroke-miterlimit:10;}
	.st12{fill:none;stroke:#22E0AE;stroke-width:5;stroke-linecap:square;stroke-linejoin:round;stroke-miterlimit:10;}
	.st13{fill:none;stroke:#22E0AE;stroke-width:3;stroke-linecap:round;stroke-linejoin:round;stroke-miterlimit:10;}
	.st14{fill:none;stroke:#22E0AE;stroke-width:5;stroke-linecap:round;stroke-linejoin:round;stroke-miterlimit:10;}
	.st15{fill:#22E0AE;}
	.st16{fill:none;stroke:#22E0AE;stroke-width:5;stroke-miterlimit:10;}
	.st17{fill:none;stroke:#043B57;stroke-width:2;stroke-linecap:round;stroke-linejoin:round;stroke-miterlimit:10;}
	.st18{fill:none;stroke:#043B57;stroke-width:3;stroke-linecap:round;stroke-linejoin:round;stroke-miterlimit:10;}
	.st19{fill:none;stroke:#7F174C;stroke-linecap:round;stroke-miterlimit:10;stroke-dasharray:1.0041,1.0041;}
	.st20{fill:none;stroke:#4E88EC;stroke-width:3;stroke-linecap:round;stroke-miterlimit:10;}
	.st21{fill:#4E72EC;}
</style>
<g id="wheels">
	<g id="right">
		<g id="Layer_20">
			<line class="st0" x1="141.004" y1="55.868" x2="154.969" y2="111.113"/>
			<line class="st0" x1="120.289" y1="90.258" x2="175.595" y2="76.507"/>
			<line class="st0" x1="133.371" y1="107.956" x2="162.434" y2="58.948"/>
			<line class="st0" x1="122.396" y1="70.938" x2="173.396" y2="96.347"/>
			<line class="st0" x1="142.607" y1="111.477" x2="153.325" y2="55.516"/>
			<line class="st0" x1="119.712" y1="79.847" x2="176.221" y2="87.146"/>
			<line class="st0" x1="124.912" y1="98.829" x2="171.606" y2="67.595"/>
			<line class="st0" x1="130.706" y1="60.824" x2="165.493" y2="105.931"/>
		</g>
		<circle class="st1" cx="148.713" cy="83.816" r="28.489"/>
		<circle class="st2" cx="148.713" cy="83.816" r="32.213"/>
	</g>
	<g id="left">
		<g id="Layer_19">
			<line class="st0" x1="23.268" y1="57.307" x2="44.195" y2="110.308"/>
			<line class="st0" x1="7.13" y1="94.067" x2="60.218" y2="73.345"/>
			<line class="st0" x1="22.371" y1="109.944" x2="44.916" y2="57.616"/>
			<line class="st0" x1="6.744" y1="74.637" x2="60.579" y2="93.303"/>
			<line class="st0" x1="31.982" y1="112.252" x2="35.443" y2="55.379"/>
			<line class="st0" x1="5.224" y1="83.816" x2="62.202" y2="83.816"/>
			<line class="st0" x1="12.813" y1="101.975" x2="55.12" y2="65.017"/>
			<line class="st0" x1="13.69" y1="63.541" x2="53.969" y2="103.82"/>
		</g>
		<circle class="st1" cx="33.713" cy="83.816" r="28.489"/>
		<circle class="st2" cx="33.713" cy="83.816" r="32.213"/>
	</g>
</g>
<g id="wheel_gears">
	<circle class="st3" cx="147.841" cy="83.816" r="3.871"/>
	<path class="st4" d="M153.31,83.816c-0.77,0.643-0.92,1.256-0.441,2.124c-0.957,0.261-1.284,0.777-1.161,1.743
		c-0.966-0.123-1.482,0.204-1.743,1.161c-0.868-0.479-1.481-0.329-2.124,0.441c-0.643-0.77-1.256-0.92-2.124-0.441
		c-0.261-0.957-0.777-1.284-1.743-1.161c0.123-0.966-0.204-1.482-1.161-1.743c0.479-0.868,0.329-1.481-0.441-2.124
		c0.77-0.643,0.92-1.256,0.441-2.124c0.957-0.261,1.284-0.777,1.161-1.743c0.966,0.123,1.482-0.204,1.743-1.161
		c0.868,0.479,1.48,0.329,2.124-0.441c0.643,0.77,1.256,0.92,2.124,0.441c0.261,0.957,0.777,1.284,1.743,1.161
		c-0.123,0.966,0.204,1.482,1.161,1.743C152.39,82.56,152.54,83.173,153.31,83.816z"/>
	<circle class="st3" cx="33.713" cy="83.816" r="3.871"/>
	<path class="st4" d="M39.181,83.816c-0.77,0.643-0.92,1.256-0.441,2.124c-0.957,0.261-1.284,0.777-1.161,1.743
		c-0.966-0.123-1.482,0.204-1.743,1.161c-0.868-0.479-1.481-0.329-2.124,0.441c-0.643-0.77-1.256-0.92-2.124-0.441
		c-0.261-0.957-0.777-1.284-1.743-1.161c0.123-0.966-0.204-1.482-1.161-1.743c0.479-0.868,0.329-1.481-0.441-2.124
		c0.77-0.643,0.92-1.256,0.441-2.124c0.957-0.261,1.284-0.777,1.161-1.743c0.966,0.123,1.482-0.204,1.743-1.161
		c0.868,0.479,1.481,0.329,2.124-0.441c0.643,0.77,1.256,0.92,2.124,0.441c0.261,0.957,0.777,1.284,1.743,1.161
		c-0.123,0.966,0.204,1.482,1.161,1.743C38.261,82.56,38.411,83.173,39.181,83.816z"/>
</g>
<g id="seat">
	<line class="st5" x1="57.147" y1="28.507" x2="51.594" y2="8.861"/>
	<path class="st6" d="M33.834,12.294c0.589,0.803,1.522,1.938,5.665,1.754c2.687-0.119,5.248,0.097,7.925,0.313
		c3.043,0.246,5.721-0.144,8.311-1.797c1.489-0.95,4.192-2.118,6.964-2.527c1.779-0.263,3.524-0.069,5.302,0.064
		c1.063,0.08,2.847-0.025,1.972-1.689c-0.561-1.066-2.394-2.234-3.471-2.714c-2.439-1.086-5.657-0.321-8.208-0.04
		c-2.988,0.329-5.991,0.677-9.002,0.507c-2.498-0.141-4.982-0.46-7.45-0.861c-1.26-0.205-2.519-0.425-3.773-0.668
		c-1.397-0.271-2.045-0.007-3.025,0.983c-0.954,0.964-1.678,2.182-1.85,3.544C33.14,9.59,32.951,11.091,33.834,12.294z"/>
</g>
<g id="handlebars">
	<g id="Layer_21">
		<path class="st7" d="M131.634,5.869c2.527-3.093,6.079-4.525,8.671-3.584c3.231,1.174,4.007,5.685,2.206,9.473
			c-2.082,4.378-7.381,7.309-11.264,5.479"/>
		<path class="st8" d="M139.112,12.219c2.527-3.093,6.079-4.525,8.671-3.584c3.231,1.174,4.007,5.685,2.206,9.473
			c-2.082,4.378-7.381,7.309-11.264,5.479"/>
		<line class="st9" x1="130.409" y1="6.591" x2="138.642" y2="12.377"/>
	</g>
	<line class="st10" x1="128.611" y1="24.25" x2="125.179" y2="9.057"/>
	<line class="st11" x1="125.179" y1="9.057" x2="134.526" y2="9.484"/>
</g>
<g id="frame">
	<line class="st12" x1="57.192" y1="28.668" x2="75.189" y2="92.348"/>
	<line class="st13" x1="33.713" y1="83.816" x2="75.189" y2="92.348"/>
	<line class="st14" x1="58.594" y1="33.628" x2="128.914" y2="33.216"/>
	<line class="st13" x1="147.841" y1="83.816" x2="141.522" y2="72.487"/>
	<path class="st15" d="M141.951,74.209L141.951,74.209c-0.732,0.207-1.683-0.87-2.113-2.392l-9.633-30.699
		c-0.345-1.22,0.371-2.5,1.591-2.845h0c1.22-0.345,2.5,0.371,2.845,1.591l7.86,31.2C142.93,72.587,142.683,74.002,141.951,74.209z"
		/>
	<path class="st15" d="M134.759,47.003l-1.832,0.403c-1.334,0.293-2.665-0.558-2.958-1.892l-4.124-18.765
		c-0.293-1.334,0.558-2.665,1.892-2.958l1.832-0.403c1.334-0.293,2.665,0.558,2.958,1.892l4.124,18.765
		C136.945,45.378,136.093,46.709,134.759,47.003z"/>
	<line class="st16" x1="75.189" y1="93.348" x2="130.204" y2="42.118"/>
</g>
<g id="gear">
	<path class="st17" d="M86.125,92.348c-1.539,1.286-1.84,2.512-0.881,4.247c-1.913,0.522-2.568,1.554-2.322,3.486
		c-1.932-0.246-2.964,0.409-3.486,2.322c-1.735-0.959-2.961-0.658-4.247,0.881c-1.286-1.539-2.512-1.84-4.247-0.881
		c-0.522-1.913-1.554-2.568-3.486-2.322c0.246-1.932-0.409-2.964-2.322-3.486c0.959-1.735,0.658-2.961-0.881-4.247
		c1.539-1.286,1.84-2.512,0.881-4.247c1.913-0.522,2.568-1.554,2.322-3.486c1.932,0.246,2.964-0.409,3.486-2.322
		c1.735,0.959,2.961,0.658,4.247-0.881c1.286,1.539,2.512,1.84,4.247,0.881c0.522,1.913,1.554,2.568,3.486,2.322
		c-0.246,1.932,0.409,2.964,2.322,3.486C84.285,89.836,84.586,91.062,86.125,92.348z"/>
	<circle class="st17" cx="75.189" cy="92.348" r="8.812"/>
	<line class="st18" x1="75.189" y1="92.348" x2="71.954" y2="84.155"/>
	<g id="Layer_6">
		<line class="st18" x1="75.189" y1="92.348" x2="72.96" y2="100.876"/>
	</g>
	<g id="Layer_7">
		<line class="st18" x1="75.189" y1="92.348" x2="82.989" y2="96.445"/>
	</g>
	<g id="Layer_8">
		<line class="st18" x1="75.189" y1="92.348" x2="81.82" y2="86.556"/>
	</g>
	<g id="Layer_9">
		<line class="st18" x1="75.189" y1="92.348" x2="66.414" y2="93.132"/>
	</g>
</g>
<g id="chain">
	<g>
		<path class="st19" d="M74.827,80.872c-0.348-0.026-0.699-0.047-1.054-0.065c-11.966-0.61-23.873-1.996-35.797-3.196
			c-4.087-0.411-9.293-0.669-10.262,4.251c-0.35,1.78-0.274,3.955,0.954,5.402c0.868,1.022,2.194,1.51,3.459,1.956
			c11.425,4.031,22.757,8.283,34.106,12.525c5.049,1.887,12.812,3.97,17.483-0.016c1.207-1.03,1.941-2.509,2.454-4.01
			c1.357-3.97,1.122-8.563-1.319-12.072C82.368,82.073,78.847,81.17,74.827,80.872z"/>
	</g>
</g>
<g id="frame_above_chain">
	<line class="st13" x1="33.713" y1="83.816" x2="58.594" y2="33.628"/>
</g>
<g id="pedal">
	<line class="st20" x1="75.189" y1="92.348" x2="82.197" y2="105.963"/>
	<path class="st21" d="M88.251,108.048H76.308c-0.263,0-0.478-0.215-0.478-0.478v-1.91c0-0.263,0.215-0.478,0.478-0.478h11.943
		c0.263,0,0.478,0.215,0.478,0.478v1.91C88.729,107.833,88.514,108.048,88.251,108.048z"/>
</g>
<g id="bolts">
	<circle class="st6" cx="75.195" cy="92.388" r="0.915"/>
	<circle class="st6" cx="147.805" cy="83.753" r="0.915"/>
	<circle class="st6" cx="33.863" cy="83.737" r="0.915"/>
	<g>
	</g>
	<g>
	</g>
	<g>
	</g>
	<g>
	</g>
	<g>
	</g>
</g>
</svg>
