<?xml version="1.0" encoding="utf-8"?>
<!-- Generator: Adobe Illustrator 25.0.0, SVG Export Plug-In . SVG Version: 6.00 Build 0)  -->
<svg version="1.1" id="Layer_1" xmlns="http://www.w3.org/2000/svg" xmlns:xlink="http://www.w3.org/1999/xlink" x="0px" y="0px"
	 viewBox="0 0 147.76 76.225" style="enable-background:new 0 0 147.76 76.225;" xml:space="preserve">
<style type="text/css">
	.st0{fill:#962100;}
	.st1{fill:#4B1100;}
	.st2{fill:#E77C00;}
	.st3{fill:#E79900;}
	.st4{fill:#C64D00;}
	.st5{opacity:0.4;fill:none;stroke:#C64D00;stroke-width:0.25;stroke-linecap:round;stroke-linejoin:round;stroke-miterlimit:10;}
	.st6{fill:#CC6600;}
</style>
<g id="Layer_3">
	<path class="st0" d="M130.339,75.66c0.06,0.23-0.21,0.46-0.4,0.52c-0.25,0.07-0.55,0.07-0.77-0.08c-0.13-0.1-0.23-0.23-0.32-0.37
		c-0.52-0.76-1.04-1.53-1.56-2.29c-0.62-0.92-1.25-1.85-1.88-2.77c-0.59-0.88-1.18-1.76-1.78-2.65c-0.55-0.82-1.1-1.64-1.64-2.46
		c-0.32-0.48-0.64-0.96-0.96-1.44c-0.17-0.25-0.34-0.51-0.51-0.77c-0.43-0.63-0.85-1.26-1.27-1.9c-0.11-0.18-0.23-0.35-0.35-0.53
		c-0.22-0.33-0.44-0.67-0.66-1c-0.02-0.03-0.04-0.06-0.06-0.09h7.18c0.01,0.05,0.02,0.09,0.04,0.14c0.13,0.42,0.26,0.85,0.4,1.27
		c0.15,0.5,0.31,0.99,0.47,1.49c0.14,0.46,0.29,0.93,0.44,1.39c0.02,0.09,0.05,0.17,0.08,0.26c0.18,0.58,0.36,1.16,0.54,1.74
		c0.19,0.59,0.38,1.18,0.56,1.77c0.18,0.57,0.36,1.15,0.55,1.73c0.17,0.54,0.34,1.09,0.51,1.63c0.16,0.49,0.31,0.99,0.47,1.48
		c0.13,0.41,0.26,0.83,0.39,1.24c0.1,0.32,0.2,0.64,0.3,0.96C130.179,75.17,130.279,75.42,130.339,75.66z"/>
	<path class="st1" d="M121.339,68.66c0.06,0.23-0.21,0.46-0.4,0.52c-0.25,0.07-0.55,0.07-0.77-0.08c-0.13-0.1-0.23-0.23-0.32-0.37
		c-0.52-0.76-1.04-1.53-1.56-2.29c-0.52-0.77-1.05-1.55-1.57-2.32c-0.11-0.15-0.21-0.3-0.31-0.45c-0.59-0.88-1.18-1.76-1.78-2.65
		c-0.27-0.4-0.53-0.79-0.79-1.19h4.71c0.12,0.35,0.23,0.71,0.34,1.06c0,0.01,0.01,0.02,0.01,0.03c0.18,0.56,0.35,1.13,0.54,1.7
		c0.16,0.5,0.31,1,0.47,1.5c0.01,0.04,0.03,0.09,0.04,0.13c0.16,0.49,0.31,0.99,0.47,1.48c0.13,0.41,0.26,0.83,0.39,1.24
		c0.1,0.32,0.2,0.64,0.3,0.96C121.179,68.17,121.279,68.42,121.339,68.66z"/>
	<path class="st0" d="M29.419,59.83c-0.02,0.03-0.04,0.06-0.06,0.09c-0.21,0.32-0.42,0.65-0.64,0.97c-0.12,0.19-0.25,0.37-0.37,0.56
		c-0.42,0.64-0.84,1.27-1.26,1.9c-0.17,0.26-0.34,0.52-0.51,0.77c-0.32,0.48-0.64,0.96-0.96,1.44c-0.55,0.82-1.09,1.64-1.64,2.46
		c-0.6,0.89-1.19,1.77-1.79,2.65c-0.62,0.92-1.25,1.85-1.87,2.77c-0.52,0.76-1.04,1.53-1.56,2.29c-0.1,0.14-0.19,0.27-0.32,0.37
		c-0.23,0.15-0.52,0.15-0.77,0.08c-0.2-0.06-0.46-0.29-0.4-0.52c0.06-0.24,0.15-0.49,0.23-0.73c0.1-0.32,0.2-0.64,0.3-0.96
		c0.13-0.41,0.26-0.83,0.39-1.24c0.16-0.49,0.31-0.99,0.47-1.48c0.17-0.54,0.34-1.09,0.51-1.63c0.18-0.58,0.37-1.16,0.55-1.73
		c0.18-0.59,0.37-1.18,0.55-1.77c0.19-0.58,0.37-1.16,0.55-1.74c0.03-0.09,0.06-0.17,0.08-0.26c0.15-0.46,0.3-0.93,0.44-1.39
		c0.16-0.5,0.31-0.99,0.47-1.49c0.13-0.42,0.27-0.85,0.4-1.27c0.01-0.05,0.03-0.09,0.04-0.14H29.419z"/>
	<path class="st1" d="M33.769,59.83c-0.26,0.4-0.52,0.79-0.79,1.19c-0.6,0.89-1.19,1.77-1.79,2.65c-0.1,0.15-0.2,0.3-0.3,0.45
		c-0.52,0.77-1.05,1.55-1.57,2.32c-0.52,0.76-1.04,1.53-1.56,2.29c-0.1,0.14-0.19,0.27-0.32,0.37c-0.23,0.15-0.52,0.15-0.77,0.08
		c-0.2-0.06-0.46-0.29-0.4-0.52c0.06-0.24,0.15-0.49,0.23-0.73c0.1-0.32,0.2-0.64,0.3-0.96c0.13-0.41,0.26-0.83,0.39-1.24
		c0.16-0.49,0.31-0.99,0.47-1.48c0.01-0.04,0.03-0.09,0.04-0.13c0.16-0.5,0.31-1,0.47-1.5c0.18-0.58,0.37-1.16,0.55-1.73
		c0.11-0.35,0.22-0.71,0.33-1.06H33.769z"/>
	<path class="st0" d="M134.349,61.97c0,0.59-0.24,1.13-0.63,1.52c-0.39,0.39-0.93,0.63-1.52,0.63h-116.8
		c-1.18,0-2.15-0.97-2.15-2.15c0-0.59,0.24-1.13,0.63-1.51c0.39-0.39,0.93-0.63,1.52-0.63h116.8
		C133.379,59.83,134.349,60.79,134.349,61.97z"/>
</g>
<g id="Layer_6">
	<path class="st2" d="M8.668,18.941c3.865-0.443,7.729-0.886,11.594-1.329c0,8.747,0,17.494,0,26.241
		C16.397,35.549,12.532,27.245,8.668,18.941z"/>
</g>
<path class="st2" d="M139.297,18.941c-3.865-0.443-7.729-0.886-11.594-1.329c0,8.747,0,17.494,0,26.241
	C131.567,35.549,135.432,27.245,139.297,18.941z"/>
<g id="Layer_5">
	<path class="st3" d="M115.703,54.428H31.905c-6.6,0-12-5.4-12-12V12c0-6.6,5.4-12,12-12h83.798c6.6,0,12,5.4,12,12v30.428
		C127.703,49.028,122.303,54.428,115.703,54.428z"/>
</g>
<g id="Layer_2">
	<path class="st3" d="M134.847,59.826H13.251c-3.799,0-6.907-3.108-6.907-6.907v-2.158c0-3.799,3.108-6.907,6.907-6.907h121.596
		c3.799,0,6.907,3.108,6.907,6.907v2.158C141.755,56.718,138.646,59.826,134.847,59.826z"/>
	<path class="st3" d="M6.013,53.576L0.171,27.843c-0.841-3.705,1.502-7.424,5.207-8.265L7.482,19.1
		c3.705-0.841,7.424,1.502,8.265,5.207l5.842,25.733c0.841,3.705-1.502,7.424-5.207,8.265l-2.105,0.478
		C10.573,59.624,6.854,57.281,6.013,53.576z"/>
	<path class="st3" d="M141.748,53.576l5.842-25.733c0.841-3.705-1.502-7.424-5.207-8.265l-2.105-0.478
		c-3.705-0.841-7.424,1.502-8.265,5.207l-5.842,25.733c-0.841,3.705,1.502,7.424,5.207,8.265l2.105,0.478
		C137.187,59.624,140.907,57.281,141.748,53.576z"/>
</g>
<g id="Layer_7">
	<path class="st4" d="M73.689,36.6v3.38c0,2.68-2.19,4.87-4.87,4.87h-45.04c-2.68,0-4.87-2.19-4.87-4.87V36.6
		c0-2.68,2.19-4.87,4.87-4.87h45.04C71.499,31.73,73.689,33.92,73.689,36.6z"/>
	<path class="st2" d="M68.821,43.853H24.775c-2.679,0-4.871-2.192-4.871-4.871v-3.379c0-2.679,2.192-4.871,4.871-4.871h44.046
		c2.679,0,4.871,2.192,4.871,4.871v3.379C73.692,41.661,71.5,43.853,68.821,43.853z"/>
	<path class="st4" d="M128.699,36.6v3.38c0,2.68-2.19,4.87-4.87,4.87h-45.04c-2.68,0-4.87-2.19-4.87-4.87V36.6
		c0-2.68,2.19-4.87,4.87-4.87h45.04C126.509,31.73,128.699,33.92,128.699,36.6z"/>
	<path class="st2" d="M122.832,43.853H78.786c-2.679,0-4.871-2.192-4.871-4.871v-3.379c0-2.679,2.192-4.871,4.871-4.871h44.046
		c2.679,0,4.871,2.192,4.871,4.871v3.379C127.703,41.661,125.511,43.853,122.832,43.853z"/>
</g>
<g id="Layer_12">
	<line class="st5" x1="33.373" y1="12.816" x2="33.373" y2="22.689"/>
	<line class="st5" x1="53.626" y1="12.816" x2="53.626" y2="22.689"/>
	<line class="st5" x1="73.879" y1="12.816" x2="73.879" y2="22.689"/>
	<line class="st5" x1="94.133" y1="12.816" x2="94.133" y2="22.689"/>
	<line class="st5" x1="114.384" y1="12.816" x2="114.384" y2="22.689"/>
	<line class="st5" x1="109.447" y1="17.752" x2="119.321" y2="17.752"/>
	<line class="st5" x1="89.196" y1="17.61" x2="99.069" y2="17.61"/>
	<line class="st5" x1="68.943" y1="17.61" x2="78.816" y2="17.61"/>
	<line class="st5" x1="48.689" y1="17.612" x2="58.563" y2="17.612"/>
	<line class="st5" x1="28.436" y1="17.614" x2="38.309" y2="17.614"/>
</g>
<g id="Layer_10">
	<path class="st6" d="M76.799,17.61c-0.35,0.08-1.26,0.35-2.02,1.2c-0.6,0.66-0.81,1.36-0.9,1.72c-0.08-0.36-0.3-1.06-0.9-1.72
		c-0.76-0.85-1.67-1.12-2.02-1.2c0.35-0.08,1.26-0.35,2.02-1.2c0.6-0.66,0.82-1.36,0.9-1.72c0.09,0.36,0.3,1.06,0.9,1.72
		C75.539,17.26,76.449,17.53,76.799,17.61z"/>
	<path class="st6" d="M56.546,17.612c-0.35,0.08-1.26,0.35-2.02,1.2c-0.6,0.66-0.81,1.36-0.9,1.72c-0.08-0.36-0.3-1.06-0.9-1.72
		c-0.76-0.85-1.67-1.12-2.02-1.2c0.35-0.08,1.26-0.35,2.02-1.2c0.6-0.66,0.82-1.36,0.9-1.72c0.09,0.36,0.3,1.06,0.9,1.72
		C55.286,17.262,56.196,17.532,56.546,17.612z"/>
	<path class="st6" d="M36.293,17.614c-0.35,0.08-1.26,0.35-2.02,1.2c-0.6,0.66-0.81,1.36-0.9,1.72c-0.08-0.36-0.3-1.06-0.9-1.72
		c-0.76-0.85-1.67-1.12-2.02-1.2c0.35-0.08,1.26-0.35,2.02-1.2c0.6-0.66,0.82-1.36,0.9-1.72c0.09,0.36,0.3,1.06,0.9,1.72
		C35.033,17.264,35.943,17.534,36.293,17.614z"/>
	<path class="st6" d="M97.053,17.61c-0.35,0.08-1.26,0.35-2.02,1.2c-0.6,0.66-0.81,1.36-0.9,1.72c-0.08-0.36-0.3-1.06-0.9-1.72
		c-0.76-0.85-1.67-1.12-2.02-1.2c0.35-0.08,1.26-0.35,2.02-1.2c0.6-0.66,0.82-1.36,0.9-1.72c0.09,0.36,0.3,1.06,0.9,1.72
		C95.793,17.26,96.703,17.53,97.053,17.61z"/>
	<path class="st6" d="M117.304,17.752c-0.35,0.08-1.26,0.35-2.02,1.2c-0.6,0.66-0.81,1.36-0.9,1.72c-0.08-0.36-0.3-1.06-0.9-1.72
		c-0.76-0.85-1.67-1.12-2.02-1.2c0.35-0.08,1.26-0.35,2.02-1.2c0.6-0.66,0.82-1.36,0.9-1.72c0.09,0.36,0.3,1.06,0.9,1.72
		C116.044,17.402,116.954,17.672,117.304,17.752z"/>
</g>
<g>
</g>
<g>
</g>
<g>
</g>
<g>
</g>
<g>
</g>
</svg>
