<?xml version="1.0" encoding="utf-8"?>
<!-- Generator: Adobe Illustrator 25.0.0, SVG Export Plug-In . SVG Version: 6.00 Build 0)  -->
<svg version="1.1" id="Layer_1" xmlns="http://www.w3.org/2000/svg" xmlns:xlink="http://www.w3.org/1999/xlink" x="0px" y="0px"
	 viewBox="0 0 92.76 76.227" style="enable-background:new 0 0 92.76 76.227;" xml:space="preserve">
<style type="text/css">
	.st0{fill:#962100;}
	.st1{fill:#4B1100;}
	.st2{fill:#E77C00;}
	.st3{fill:#E79900;}
	.st4{fill:#C64D00;}
	.st5{opacity:0.4;fill:none;stroke:#C64D00;stroke-width:0.25;stroke-linecap:round;stroke-linejoin:round;stroke-miterlimit:10;}
	.st6{fill:#CC6600;}
</style>
<path class="st0" d="M70.274,58.116c0.024,0.076,0.048,0.151,0.072,0.227c0.067,0.213,0.134,0.426,0.201,0.639
	c0.104,0.329,0.207,0.658,0.311,0.987c0.133,0.424,0.267,0.847,0.4,1.271c0.156,0.497,0.313,0.994,0.469,1.491
	c0.173,0.549,0.346,1.098,0.519,1.647c0.183,0.58,0.365,1.16,0.548,1.74c0.186,0.59,0.371,1.179,0.557,1.769
	c0.182,0.578,0.364,1.156,0.546,1.734c0.172,0.545,0.343,1.09,0.515,1.635c0.155,0.491,0.309,0.982,0.464,1.472
	c0.131,0.415,0.262,0.831,0.392,1.246c0.1,0.319,0.201,0.637,0.301,0.956c0.076,0.242,0.174,0.488,0.232,0.735
	c0.055,0.231-0.207,0.461-0.404,0.519c-0.251,0.073-0.542,0.07-0.763-0.084c-0.134-0.093-0.229-0.231-0.321-0.366
	c-0.52-0.762-1.039-1.526-1.559-2.289c-0.628-0.923-1.254-1.847-1.879-2.772c-0.595-0.881-1.189-1.763-1.781-2.646
	c-0.55-0.819-1.098-1.639-1.646-2.459c-0.492-0.737-0.982-1.474-1.472-2.211c-0.421-0.633-0.841-1.267-1.26-1.902
	c-0.337-0.51-0.674-1.02-1.011-1.531c-0.241-0.366-0.482-0.732-0.723-1.099c-0.132-0.202-0.265-0.403-0.397-0.605
	c-0.006-0.01-0.054-0.101-0.066-0.101C62.518,58.116,70.274,58.116,70.274,58.116z"/>
<path class="st1" d="M62.756,52.509c0.024,0.076,0.048,0.151,0.072,0.227c0.067,0.213,0.134,0.426,0.201,0.639
	c0.104,0.329,0.207,0.658,0.311,0.987c0.133,0.424,0.267,0.847,0.4,1.271c0.156,0.497,0.313,0.994,0.469,1.491
	c0.173,0.549,0.346,1.098,0.519,1.647c0.183,0.58,0.365,1.16,0.548,1.74c0.186,0.59,0.371,1.179,0.557,1.769
	c0.182,0.578,0.364,1.156,0.546,1.734c0.172,0.545,0.343,1.09,0.515,1.635c0.155,0.491,0.309,0.982,0.464,1.472
	c0.131,0.415,0.262,0.831,0.392,1.246c0.1,0.319,0.201,0.637,0.301,0.956c0.076,0.242,0.174,0.488,0.232,0.735
	c0.055,0.231-0.207,0.461-0.404,0.519c-0.251,0.073-0.542,0.07-0.763-0.084c-0.134-0.093-0.229-0.231-0.321-0.366
	c-0.52-0.762-1.039-1.526-1.559-2.289c-0.628-0.923-1.254-1.847-1.879-2.772c-0.595-0.881-1.189-1.763-1.781-2.646
	c-0.55-0.819-1.098-1.639-1.646-2.459c-0.492-0.736-0.982-1.474-1.472-2.211c-0.421-0.633-0.841-1.267-1.26-1.902
	c-0.337-0.51-0.674-1.02-1.011-1.531c-0.241-0.366-0.482-0.732-0.723-1.099c-0.132-0.202-0.265-0.403-0.397-0.605
	c-0.006-0.01-0.054-0.101-0.066-0.101C55,52.509,62.756,52.509,62.756,52.509z"/>
<path class="st0" d="M22.794,58.116c-0.024,0.076-0.048,0.151-0.072,0.227c-0.067,0.213-0.134,0.426-0.201,0.639
	c-0.104,0.329-0.207,0.658-0.311,0.987c-0.133,0.424-0.267,0.847-0.4,1.271c-0.156,0.497-0.313,0.994-0.469,1.491
	c-0.173,0.549-0.346,1.098-0.519,1.647c-0.183,0.58-0.365,1.16-0.548,1.74c-0.186,0.59-0.371,1.179-0.557,1.769
	c-0.182,0.578-0.364,1.156-0.546,1.734c-0.172,0.545-0.343,1.09-0.515,1.635c-0.155,0.491-0.309,0.982-0.464,1.472
	c-0.131,0.415-0.262,0.831-0.392,1.246c-0.1,0.319-0.201,0.637-0.301,0.956c-0.076,0.242-0.174,0.488-0.232,0.735
	c-0.055,0.231,0.207,0.461,0.404,0.519c0.251,0.073,0.542,0.07,0.763-0.084c0.134-0.093,0.229-0.231,0.321-0.366
	c0.52-0.762,1.039-1.526,1.559-2.289c0.628-0.923,1.254-1.847,1.879-2.772c0.595-0.881,1.189-1.763,1.781-2.646
	c0.55-0.819,1.098-1.639,1.646-2.459c0.492-0.737,0.982-1.474,1.472-2.211c0.421-0.633,0.841-1.267,1.26-1.902
	c0.337-0.51,0.674-1.02,1.011-1.531c0.241-0.366,0.482-0.732,0.723-1.099c0.132-0.202,0.265-0.403,0.397-0.605
	c0.006-0.01,0.054-0.101,0.066-0.101C30.549,58.116,22.794,58.116,22.794,58.116z"/>
<path class="st1" d="M30.323,52.509c-0.024,0.076-0.048,0.151-0.072,0.227c-0.067,0.213-0.134,0.426-0.201,0.639
	c-0.104,0.329-0.207,0.658-0.311,0.987c-0.133,0.424-0.267,0.847-0.4,1.271c-0.156,0.497-0.313,0.994-0.469,1.491
	c-0.173,0.549-0.346,1.098-0.519,1.647c-0.183,0.58-0.365,1.16-0.548,1.74c-0.186,0.59-0.371,1.179-0.557,1.769
	c-0.182,0.578-0.364,1.156-0.546,1.734c-0.172,0.545-0.343,1.09-0.515,1.635c-0.155,0.491-0.309,0.982-0.464,1.472
	c-0.131,0.415-0.262,0.831-0.392,1.246c-0.1,0.319-0.201,0.637-0.301,0.956c-0.076,0.242-0.174,0.488-0.232,0.735
	c-0.055,0.231,0.207,0.461,0.404,0.519c0.251,0.073,0.542,0.07,0.763-0.084c0.134-0.093,0.229-0.231,0.321-0.366
	c0.52-0.762,1.039-1.526,1.559-2.289c0.628-0.923,1.254-1.847,1.879-2.772c0.595-0.881,1.189-1.763,1.781-2.646
	c0.55-0.819,1.098-1.639,1.646-2.459c0.492-0.736,0.982-1.474,1.472-2.211c0.421-0.633,0.841-1.267,1.26-1.902
	c0.337-0.51,0.674-1.02,1.011-1.531c0.241-0.366,0.482-0.732,0.723-1.099c0.132-0.202,0.265-0.403,0.397-0.605
	c0.006-0.01,0.054-0.101,0.066-0.101C38.078,52.509,30.323,52.509,30.323,52.509z"/>
<path class="st0" d="M77.671,64.116H15.396c-1.18,0-2.145-0.965-2.145-2.145v0c0-1.18,0.965-2.145,2.145-2.145h62.275
	c1.18,0,2.145,0.965,2.145,2.145v0C79.816,63.15,78.851,64.116,77.671,64.116z"/>
<path class="st2" d="M8.668,18.941c3.865-0.443,7.729-0.886,11.594-1.329c0,8.747,0,17.494,0,26.241
	C16.397,35.549,12.532,27.245,8.668,18.941z"/>
<path class="st2" d="M84.297,18.941c-3.865-0.443-7.729-0.886-11.594-1.329c0,8.747,0,17.494,0,26.241
	C76.567,35.549,80.432,27.245,84.297,18.941z"/>
<path class="st3" d="M60.703,54.428H31.905c-6.6,0-12-5.4-12-12V12c0-6.6,5.4-12,12-12h28.798c6.6,0,12,5.4,12,12v30.428
	C72.703,49.028,67.303,54.428,60.703,54.428z"/>
<path class="st3" d="M79.84,59.826H13.251c-3.799,0-6.907-3.108-6.907-6.907v-2.158c0-3.799,3.108-6.907,6.907-6.907H79.84
	c3.799,0,6.907,3.108,6.907,6.907v2.158C86.747,56.718,83.639,59.826,79.84,59.826z"/>
<path class="st3" d="M6.013,53.576L0.171,27.843c-0.841-3.705,1.502-7.424,5.207-8.265L7.482,19.1
	c3.705-0.841,7.424,1.502,8.265,5.207l5.842,25.733c0.841,3.705-1.502,7.424-5.207,8.265l-2.105,0.478
	C10.573,59.624,6.854,57.281,6.013,53.576z"/>
<path class="st3" d="M86.748,53.576l5.842-25.733c0.841-3.705-1.502-7.424-5.207-8.265L85.278,19.1
	c-3.705-0.841-7.424,1.502-8.265,5.207L71.171,50.04c-0.841,3.705,1.502,7.424,5.207,8.265l2.105,0.478
	C82.187,59.624,85.907,57.281,86.748,53.576z"/>
<path class="st4" d="M73.689,36.6v3.38c0,2.68-2.19,4.87-4.87,4.87h-45.04c-2.68,0-4.87-2.19-4.87-4.87V36.6
	c0-2.68,2.19-4.87,4.87-4.87h45.04C71.499,31.73,73.689,33.92,73.689,36.6z"/>
<path class="st2" d="M68.327,43.853H24.281c-2.679,0-4.871-2.192-4.871-4.871v-3.379c0-2.679,2.192-4.871,4.871-4.871h44.046
	c2.679,0,4.871,2.192,4.871,4.871v3.379C73.198,41.661,71.006,43.853,68.327,43.853z"/>
<line class="st5" x1="29.292" y1="12.673" x2="29.292" y2="22.546"/>
<line class="st5" x1="46.546" y1="12.673" x2="46.546" y2="22.546"/>
<line class="st5" x1="63.799" y1="12.533" x2="63.799" y2="22.406"/>
<line class="st5" x1="41.609" y1="17.467" x2="51.482" y2="17.467"/>
<line class="st5" x1="24.356" y1="17.471" x2="34.229" y2="17.471"/>
<line class="st5" x1="58.862" y1="17.469" x2="68.736" y2="17.469"/>
<path class="st6" d="M66.719,17.467c-0.35,0.08-1.26,0.35-2.02,1.2c-0.6,0.66-0.81,1.36-0.9,1.72c-0.08-0.36-0.3-1.06-0.9-1.72
	c-0.76-0.85-1.67-1.12-2.02-1.2c0.35-0.08,1.26-0.35,2.02-1.2c0.6-0.66,0.82-1.36,0.9-1.72c0.09,0.36,0.3,1.06,0.9,1.72
	C65.459,17.117,66.369,17.387,66.719,17.467z"/>
<path class="st6" d="M49.466,17.469c-0.35,0.08-1.26,0.35-2.02,1.2c-0.6,0.66-0.81,1.36-0.9,1.72c-0.08-0.36-0.3-1.06-0.9-1.72
	c-0.76-0.85-1.67-1.12-2.02-1.2c0.35-0.08,1.26-0.35,2.02-1.2c0.6-0.66,0.82-1.36,0.9-1.72c0.09,0.36,0.3,1.06,0.9,1.72
	C48.206,17.119,49.116,17.389,49.466,17.469z"/>
<path class="st6" d="M32.212,17.471c-0.35,0.08-1.26,0.35-2.02,1.2c-0.6,0.66-0.81,1.36-0.9,1.72c-0.08-0.36-0.3-1.06-0.9-1.72
	c-0.76-0.85-1.67-1.12-2.02-1.2c0.35-0.08,1.26-0.35,2.02-1.2c0.6-0.66,0.82-1.36,0.9-1.72c0.09,0.36,0.3,1.06,0.9,1.72
	C30.952,17.121,31.862,17.391,32.212,17.471z"/>
<g>
</g>
<g>
</g>
<g>
</g>
<g>
</g>
<g>
</g>
</svg>
