<?xml version="1.0" encoding="utf-8"?>
<!-- Generator: Adobe Illustrator 25.0.0, SVG Export Plug-In . SVG Version: 6.00 Build 0)  -->
<svg version="1.1" id="Layer_1" xmlns="http://www.w3.org/2000/svg" xmlns:xlink="http://www.w3.org/1999/xlink" x="0px" y="0px"
	 viewBox="0 0 147.76 82.227" style="enable-background:new 0 0 147.76 82.227;" xml:space="preserve">
<style type="text/css">
	.st0{fill:#962100;}
	.st1{fill:#E77C00;}
	.st2{fill:#E79900;}
	.st3{fill:#C64D00;}
	.st4{opacity:0.4;fill:none;stroke:#C64D00;stroke-width:0.25;stroke-linecap:round;stroke-linejoin:round;stroke-miterlimit:10;}
	.st5{fill:#CC6600;}
</style>
<path class="st0" d="M128.814,64.116c0.024,0.076,0.048,0.151,0.072,0.227c0.067,0.213,0.134,0.426,0.201,0.639
	c0.104,0.329,0.207,0.658,0.311,0.987c0.133,0.424,0.267,0.847,0.4,1.271c0.156,0.497,0.313,0.994,0.469,1.491
	c0.173,0.549,0.346,1.098,0.519,1.647c0.183,0.58,0.365,1.16,0.548,1.74c0.186,0.59,0.371,1.179,0.557,1.769
	c0.182,0.578,0.364,1.156,0.546,1.734c0.172,0.545,0.343,1.09,0.515,1.635c0.155,0.491,0.309,0.982,0.464,1.472
	c0.131,0.415,0.262,0.831,0.392,1.246c0.1,0.319,0.201,0.637,0.301,0.956c0.076,0.242,0.174,0.488,0.232,0.735
	c0.055,0.231-0.207,0.461-0.404,0.519c-0.251,0.073-0.542,0.07-0.763-0.084c-0.134-0.093-0.229-0.231-0.321-0.366
	c-0.52-0.762-1.039-1.526-1.559-2.289c-0.628-0.923-1.254-1.847-1.879-2.772c-0.595-0.881-1.189-1.763-1.781-2.646
	c-0.55-0.819-1.098-1.639-1.646-2.459c-0.492-0.737-0.982-1.474-1.472-2.211c-0.421-0.633-0.841-1.267-1.26-1.902
	c-0.337-0.51-0.674-1.02-1.011-1.531c-0.241-0.366-0.482-0.732-0.723-1.099c-0.132-0.202-0.265-0.403-0.397-0.605
	c-0.006-0.01-0.054-0.101-0.066-0.101C121.058,64.116,128.814,64.116,128.814,64.116z"/>
<g id="Layer_4">
	<path class="st0" d="M18.794,64.116c-0.024,0.076-0.048,0.151-0.072,0.227c-0.067,0.213-0.134,0.426-0.201,0.639
		c-0.104,0.329-0.207,0.658-0.311,0.987c-0.133,0.424-0.267,0.847-0.4,1.271c-0.156,0.497-0.313,0.994-0.469,1.491
		c-0.173,0.549-0.346,1.098-0.519,1.647c-0.183,0.58-0.365,1.16-0.548,1.74c-0.186,0.59-0.371,1.179-0.557,1.769
		c-0.182,0.578-0.364,1.156-0.546,1.734c-0.172,0.545-0.343,1.09-0.515,1.635c-0.155,0.491-0.309,0.982-0.464,1.472
		c-0.131,0.415-0.262,0.831-0.392,1.246c-0.1,0.319-0.201,0.637-0.301,0.956c-0.076,0.242-0.174,0.488-0.232,0.735
		c-0.055,0.231,0.207,0.461,0.404,0.519c0.251,0.073,0.542,0.07,0.763-0.084c0.134-0.093,0.229-0.231,0.321-0.366
		c0.52-0.762,1.039-1.526,1.559-2.289c0.628-0.923,1.254-1.847,1.879-2.772c0.595-0.881,1.189-1.763,1.781-2.646
		c0.55-0.819,1.098-1.639,1.646-2.459c0.492-0.737,0.982-1.474,1.472-2.211c0.421-0.633,0.841-1.267,1.26-1.902
		c0.337-0.51,0.674-1.02,1.011-1.531c0.241-0.366,0.482-0.732,0.723-1.099c0.132-0.202,0.265-0.403,0.397-0.605
		c0.006-0.01,0.054-0.101,0.066-0.101C26.549,64.116,18.794,64.116,18.794,64.116z"/>
</g>
<g id="Layer_3">
	<path class="st0" d="M132.203,64.116H15.396c-1.18,0-2.145-0.965-2.145-2.145v0c0-1.18,0.965-2.145,2.145-2.145h116.807
		c1.18,0,2.145,0.965,2.145,2.145v0C134.348,63.15,133.383,64.116,132.203,64.116z"/>
</g>
<g id="Layer_6">
	<path class="st1" d="M8.668,18.941c3.865-0.443,7.729-0.886,11.594-1.329c0,8.747,0,17.494,0,26.241
		C16.397,35.549,12.532,27.245,8.668,18.941z"/>
</g>
<path class="st1" d="M139.297,18.941c-3.865-0.443-7.729-0.886-11.594-1.329c0,8.747,0,17.494,0,26.241
	C131.567,35.549,135.432,27.245,139.297,18.941z"/>
<g id="Layer_5">
	<path class="st2" d="M115.703,54.428H31.905c-6.6,0-12-5.4-12-12V12c0-6.6,5.4-12,12-12h83.798c6.6,0,12,5.4,12,12v30.428
		C127.703,49.028,122.303,54.428,115.703,54.428z"/>
</g>
<path class="st2" d="M134.847,59.826H13.251c-3.799,0-6.907-3.108-6.907-6.907v-2.158c0-3.799,3.108-6.907,6.907-6.907h121.596
	c3.799,0,6.907,3.108,6.907,6.907v2.158C141.755,56.718,138.646,59.826,134.847,59.826z"/>
<g id="Layer_2">
	<path class="st2" d="M6.013,53.576L0.171,27.843c-0.841-3.705,1.502-7.424,5.207-8.265L7.482,19.1
		c3.705-0.841,7.424,1.502,8.265,5.207l5.842,25.733c0.841,3.705-1.502,7.424-5.207,8.265l-2.105,0.478
		C10.573,59.624,6.854,57.281,6.013,53.576z"/>
</g>
<path class="st2" d="M141.748,53.576l5.842-25.733c0.841-3.705-1.502-7.424-5.207-8.265l-2.105-0.478
	c-3.705-0.841-7.424,1.502-8.265,5.207l-5.842,25.733c-0.841,3.705,1.502,7.424,5.207,8.265l2.105,0.478
	C137.187,59.624,140.907,57.281,141.748,53.576z"/>
<path class="st3" d="M73.689,36.6v3.38c0,2.68-2.19,4.87-4.87,4.87h-45.04c-2.68,0-4.87-2.19-4.87-4.87V36.6
	c0-2.68,2.19-4.87,4.87-4.87h45.04C71.499,31.73,73.689,33.92,73.689,36.6z"/>
<g id="Layer_7">
	<path class="st1" d="M68.821,43.853H24.775c-2.679,0-4.871-2.192-4.871-4.871v-3.379c0-2.679,2.192-4.871,4.871-4.871h44.046
		c2.679,0,4.871,2.192,4.871,4.871v3.379C73.692,41.661,71.5,43.853,68.821,43.853z"/>
</g>
<path class="st3" d="M128.699,36.6v3.38c0,2.68-2.19,4.87-4.87,4.87h-45.04c-2.68,0-4.87-2.19-4.87-4.87V36.6
	c0-2.68,2.19-4.87,4.87-4.87h45.04C126.509,31.73,128.699,33.92,128.699,36.6z"/>
<path class="st1" d="M122.832,43.853H78.786c-2.679,0-4.871-2.192-4.871-4.871v-3.379c0-2.679,2.192-4.871,4.871-4.871h44.046
	c2.679,0,4.871,2.192,4.871,4.871v3.379C127.703,41.661,125.511,43.853,122.832,43.853z"/>
<g id="Layer_12">
	<line class="st4" x1="33.373" y1="12.816" x2="33.373" y2="22.689"/>
	<line class="st4" x1="53.626" y1="12.816" x2="53.626" y2="22.689"/>
	<line class="st4" x1="73.915" y1="12.816" x2="73.915" y2="22.689"/>
	<line class="st4" x1="94.133" y1="12.816" x2="94.133" y2="22.689"/>
	<line class="st4" x1="114.384" y1="12.816" x2="114.384" y2="22.689"/>
</g>
<g id="Layer_10">
	<path class="st5" d="M76.799,17.61c-0.35,0.08-1.26,0.35-2.02,1.2c-0.6,0.66-0.81,1.36-0.9,1.72c-0.08-0.36-0.3-1.06-0.9-1.72
		c-0.76-0.85-1.67-1.12-2.02-1.2c0.35-0.08,1.26-0.35,2.02-1.2c0.6-0.66,0.82-1.36,0.9-1.72c0.09,0.36,0.3,1.06,0.9,1.72
		C75.539,17.26,76.449,17.53,76.799,17.61z"/>
</g>
<path class="st5" d="M56.546,17.612c-0.35,0.08-1.26,0.35-2.02,1.2c-0.6,0.66-0.81,1.36-0.9,1.72c-0.08-0.36-0.3-1.06-0.9-1.72
	c-0.76-0.85-1.67-1.12-2.02-1.2c0.35-0.08,1.26-0.35,2.02-1.2c0.6-0.66,0.82-1.36,0.9-1.72c0.09,0.36,0.3,1.06,0.9,1.72
	C55.286,17.262,56.196,17.532,56.546,17.612z"/>
<path class="st5" d="M36.293,17.614c-0.35,0.08-1.26,0.35-2.02,1.2c-0.6,0.66-0.81,1.36-0.9,1.72c-0.08-0.36-0.3-1.06-0.9-1.72
	c-0.76-0.85-1.67-1.12-2.02-1.2c0.35-0.08,1.26-0.35,2.02-1.2c0.6-0.66,0.82-1.36,0.9-1.72c0.09,0.36,0.3,1.06,0.9,1.72
	C35.033,17.264,35.943,17.534,36.293,17.614z"/>
<path class="st5" d="M97.053,17.61c-0.35,0.08-1.26,0.35-2.02,1.2c-0.6,0.66-0.81,1.36-0.9,1.72c-0.08-0.36-0.3-1.06-0.9-1.72
	c-0.76-0.85-1.67-1.12-2.02-1.2c0.35-0.08,1.26-0.35,2.02-1.2c0.6-0.66,0.82-1.36,0.9-1.72c0.09,0.36,0.3,1.06,0.9,1.72
	C95.793,17.26,96.703,17.53,97.053,17.61z"/>
<path class="st5" d="M117.304,17.752c-0.35,0.08-1.26,0.35-2.02,1.2c-0.6,0.66-0.81,1.36-0.9,1.72c-0.08-0.36-0.3-1.06-0.9-1.72
	c-0.76-0.85-1.67-1.12-2.02-1.2c0.35-0.08,1.26-0.35,2.02-1.2c0.6-0.66,0.82-1.36,0.9-1.72c0.09,0.36,0.3,1.06,0.9,1.72
	C116.044,17.402,116.954,17.672,117.304,17.752z"/>
<g>
</g>
<g>
</g>
<g>
</g>
<g>
</g>
<g>
</g>
</svg>
