<?xml version="1.0" encoding="utf-8"?>
<!-- Generator: Adobe Illustrator 25.0.0, SVG Export Plug-In . SVG Version: 6.00 Build 0)  -->
<svg version="1.1" xmlns="http://www.w3.org/2000/svg" xmlns:xlink="http://www.w3.org/1999/xlink" x="0px" y="0px"
	 viewBox="0 0 133.271 119.794" style="enable-background:new 0 0 133.271 119.794;" xml:space="preserve">
<style type="text/css">
	.st0{fill:#CC1B28;}
	.st1{opacity:0.78;fill:#FFFFFF;}
	.st2{fill:#302D2D;}
	.st3{fill:#D80803;}
	.st4{fill:#D86103;}
	.st5{fill:#E9B503;}
	.st6{fill:#009F00;}
	.st7{fill:#0EB6E7;}
	.st8{fill:#191E26;}
	.st9{fill:#4D4D4D;}
	.st10{fill:#999999;}
	.st11{fill:#3E3D47;}
	.st12{fill:#C9C9C7;}
	.st13{stroke:#666666;stroke-width:3;stroke-miterlimit:10;}
	.st14{fill:#364A56;}
	.st15{stroke:#5A7F91;stroke-width:3;stroke-miterlimit:10;}
	.st16{opacity:0.68;fill:#ABCECD;}
	.st17{fill:#FFFFFF;}
	.st18{fill:#ADADAD;}
	.st19{opacity:0.49;fill:none;stroke:#302D2D;stroke-width:0.5;stroke-miterlimit:10;}
	.st20{fill:none;stroke:#191E26;stroke-miterlimit:10;}
	.st21{fill:#CC1B28;stroke:#000000;stroke-miterlimit:10;}
	.st22{opacity:0.76;fill:#FFFFFF;}
	.st23{fill:#364A56;stroke:#000000;stroke-miterlimit:10;}
	.st24{opacity:0.88;fill:#FFFFFF;}
</style>
<g id="top_button">
	<path class="st0" d="M70.412,0.05c-0.763-0.191-1.568,0.173-1.897,0.887c-0.612,1.326-1.008,2.847-1.11,4.483
		c-0.344,5.489,2.714,10.149,6.831,10.407c4.117,0.258,7.734-3.983,8.078-9.472c0.048-0.761,0.027-1.504-0.053-2.222
		c-0.076-0.69-0.575-1.259-1.248-1.428L70.412,0.05z"/>
	<g id="Layer_6">
		<path class="st1" d="M71.022,12.921l-0.675-0.14c-0.391-0.081-0.644-0.467-0.563-0.858l1.964-9.467
			c0.081-0.391,0.467-0.644,0.858-0.563l0.675,0.14c0.391,0.081,0.644,0.467,0.563,0.858l-1.964,9.467
			C71.798,12.749,71.412,13.002,71.022,12.921z"/>
		<path class="st1" d="M77.052,13.738l-0.675-0.14c-0.391-0.081-0.644-0.467-0.563-0.858l1.703-8.208
			c0.081-0.391,0.467-0.644,0.858-0.563l0.675,0.14c0.391,0.081,0.644,0.467,0.563,0.858l-1.703,8.208
			C77.828,13.566,77.442,13.819,77.052,13.738z"/>
	</g>
</g>
<g id="Layer_1">
	<path class="st2" d="M126.311,96.599H6.961C3.132,96.599,0,93.467,0,89.638v-74.73c0-3.828,3.132-6.961,6.961-6.961h119.35
		c3.828,0,6.961,3.132,6.961,6.961v74.73C133.271,93.467,130.139,96.599,126.311,96.599z"/>
	<g id="rainbow">
		<rect x="58.911" y="55.527" class="st3" width="2.919" height="23.416"/>
		<rect x="61.83" y="55.527" class="st4" width="2.919" height="23.416"/>
		<rect x="64.749" y="55.527" class="st5" width="2.919" height="23.416"/>
		<rect x="67.668" y="55.527" class="st6" width="2.919" height="23.416"/>
		<rect x="70.587" y="55.527" class="st7" width="2.919" height="23.416"/>
	</g>
	<path class="st8" d="M126.311,114.53H6.961c-3.828,0-6.961-3.132-6.961-6.961V82.241c0-3.828,3.132-6.961,6.961-6.961h119.35
		c3.828,0,6.961,3.132,6.961,6.961v25.328C133.271,111.398,130.139,114.53,126.311,114.53z"/>
	<path class="st2" d="M126.311,118.53H6.961c-3.828,0-6.961-3.132-6.961-6.961V86.241c0-3.828,3.132-6.961,6.961-6.961h119.35
		c3.828,0,6.961,3.132,6.961,6.961v25.328C133.271,115.398,130.139,118.53,126.311,118.53z"/>
</g>
<g id="Layer_2">
	<path d="M124.734,85.643v5.11c0,1.56-1.28,2.83-2.84,2.83H10.514c-1.56,0-2.83-1.27-2.83-2.83v-5.11c0-0.3,0.24-0.54,0.53-0.54
		c0,0,21.42,0,31.85,0h5.58c0.92,0,1.83-0.38,2.5-1c0.77-0.7,1.06-1.53,1.09-2.55c0.03-0.64,0.52-0.94,1.11-0.97
		c0.88-0.04,1.77,0.04,2.65,0.09c0.72,0.05,0.72,0.43,0.73,1.07c0.01,0.39,0.01,0.77,0.02,1.16c0,0.2,0.01,0.41,0.01,0.61
		c0.012,0.504,0.01,1.008,0.01,1.512c-0.001,0.362,0.151,0.767,0.318,1.082c0.175,0.33,0.415,0.624,0.703,0.862
		c0.498,0.412,1.132,0.644,1.779,0.644h19.28c1.44,0,2.65-1.11,2.8-2.51c0-0.53,0-1.06,0.01-1.59v-0.14
		c0.01-0.16,0.01-0.32,0.01-0.47c0.01-0.39,0.02-0.77,0.02-1.16c0.02-0.64,0.01-1.02,0.73-1.07c0.89-0.05,1.77-0.13,2.65-0.09
		c0.6,0.03,1.09,0.33,1.11,0.97c0.04,1.02,0.33,1.85,1.09,2.55c0.68,0.62,1.58,1,2.5,1h1.26c6.53,0,36.17,0,36.17,0
		C124.494,85.103,124.734,85.343,124.734,85.643z"/>
	<path d="M125.005,104.599H8.267c-1.336,0-2.429-1.093-2.429-2.429v-7.957c0-1.336,1.093-2.429,2.429-2.429h116.738
		c1.336,0,2.429,1.093,2.429,2.429v7.957C127.433,103.506,126.341,104.599,125.005,104.599z"/>
	<path class="st9" d="M121.784,98.192H11.488c-0.439,0-0.799-0.36-0.799-0.799v-0.709c0-0.439,0.36-0.799,0.799-0.799h110.296
		c0.439,0,0.799,0.36,0.799,0.799v0.709C122.583,97.832,122.223,98.192,121.784,98.192z"/>
	<path class="st8" d="M74.433,87.692H57.984c-1.861,0-3.384-1.523-3.384-3.384v-0.351c0-1.861,1.523-3.384,3.384-3.384h16.449
		c1.861,0,3.384,1.523,3.384,3.384v0.351C77.818,86.169,76.295,87.692,74.433,87.692z"/>
	<path class="st10" d="M72.151,87.517L72.151,87.517c-1.861,0-3.384-1.523-3.384-3.384l0,0c0-1.861,1.523-3.384,3.384-3.384h0
		c1.861,0,3.384,1.523,3.384,3.384l0,0C75.535,85.994,74.012,87.517,72.151,87.517z"/>
	<circle class="st11" cx="71.646" cy="84.132" r="2.879"/>
	<g>
		<path class="st12" d="M48.622,108.374h2.38c0.34,0,0.668,0.033,0.985,0.1c0.317,0.067,0.595,0.179,0.835,0.336
			c0.24,0.156,0.431,0.366,0.575,0.63c0.144,0.263,0.215,0.592,0.215,0.984c0,0.447-0.077,0.807-0.23,1.08s-0.36,0.485-0.62,0.635
			c-0.26,0.15-0.562,0.252-0.905,0.306c-0.343,0.053-0.702,0.08-1.075,0.08h-0.9v2.93h-1.26V108.374z M50.642,111.444
			c0.18,0,0.367-0.007,0.56-0.021c0.193-0.013,0.372-0.053,0.535-0.12c0.164-0.066,0.297-0.166,0.4-0.3
			c0.103-0.133,0.155-0.319,0.155-0.56c0-0.221-0.047-0.396-0.14-0.525s-0.213-0.229-0.36-0.3s-0.31-0.115-0.49-0.135
			c-0.18-0.021-0.354-0.03-0.52-0.03h-0.9v1.99H50.642z"/>
		<path class="st12" d="M54.221,113.053c0-0.38,0.068-0.725,0.205-1.034c0.137-0.311,0.322-0.575,0.555-0.796
			c0.233-0.22,0.51-0.39,0.83-0.51c0.32-0.12,0.66-0.18,1.02-0.18c0.36,0,0.7,0.06,1.02,0.18c0.32,0.12,0.597,0.29,0.83,0.51
			c0.233,0.221,0.418,0.485,0.555,0.796c0.137,0.31,0.205,0.654,0.205,1.034c0,0.381-0.068,0.726-0.205,1.035
			c-0.137,0.311-0.322,0.575-0.555,0.795c-0.233,0.221-0.51,0.391-0.83,0.511c-0.32,0.119-0.66,0.18-1.02,0.18
			c-0.36,0-0.7-0.061-1.02-0.18c-0.32-0.12-0.597-0.29-0.83-0.511c-0.233-0.22-0.418-0.484-0.555-0.795
			C54.29,113.779,54.221,113.434,54.221,113.053z M55.421,113.053c0,0.188,0.031,0.367,0.095,0.54
			c0.063,0.174,0.157,0.327,0.28,0.46c0.123,0.134,0.271,0.24,0.445,0.32s0.37,0.12,0.59,0.12c0.22,0,0.417-0.04,0.59-0.12
			s0.321-0.187,0.445-0.32c0.124-0.133,0.217-0.286,0.28-0.46c0.063-0.173,0.095-0.353,0.095-0.54c0-0.187-0.032-0.366-0.095-0.54
			c-0.063-0.173-0.157-0.326-0.28-0.46c-0.124-0.133-0.271-0.239-0.445-0.319s-0.37-0.12-0.59-0.12c-0.22,0-0.417,0.04-0.59,0.12
			s-0.322,0.187-0.445,0.319c-0.124,0.134-0.217,0.287-0.28,0.46C55.453,112.687,55.421,112.867,55.421,113.053z"/>
		<path class="st12" d="M60.421,107.894h1.2v7.56h-1.2V107.894z"/>
		<path class="st12" d="M65.841,114.794h-0.03c-0.173,0.273-0.394,0.472-0.66,0.595c-0.267,0.124-0.56,0.186-0.88,0.186
			c-0.22,0-0.435-0.03-0.645-0.09c-0.21-0.061-0.396-0.15-0.56-0.271c-0.163-0.12-0.295-0.27-0.395-0.45
			c-0.1-0.18-0.15-0.39-0.15-0.63c0-0.26,0.047-0.481,0.14-0.665c0.093-0.183,0.218-0.336,0.375-0.46
			c0.157-0.123,0.338-0.222,0.545-0.295s0.422-0.128,0.645-0.165c0.223-0.036,0.448-0.06,0.675-0.069
			c0.227-0.011,0.44-0.016,0.64-0.016h0.3v-0.13c0-0.3-0.104-0.524-0.31-0.675c-0.207-0.15-0.47-0.225-0.79-0.225
			c-0.253,0-0.49,0.045-0.71,0.135c-0.22,0.09-0.41,0.212-0.57,0.365l-0.63-0.631c0.267-0.272,0.578-0.47,0.935-0.59
			c0.356-0.12,0.725-0.18,1.105-0.18c0.34,0,0.626,0.038,0.86,0.115c0.233,0.076,0.427,0.175,0.58,0.295s0.271,0.258,0.355,0.415
			c0.083,0.156,0.144,0.314,0.18,0.475s0.058,0.315,0.065,0.465c0.006,0.15,0.01,0.282,0.01,0.396v2.76h-1.08V114.794z
			 M65.771,113.303h-0.25c-0.167,0-0.354,0.007-0.56,0.021s-0.401,0.045-0.585,0.095c-0.183,0.05-0.338,0.124-0.465,0.22
			c-0.127,0.097-0.19,0.232-0.19,0.405c0,0.113,0.025,0.209,0.075,0.285c0.05,0.077,0.115,0.142,0.195,0.195
			c0.08,0.053,0.17,0.092,0.27,0.114c0.1,0.023,0.2,0.035,0.3,0.035c0.414,0,0.718-0.098,0.915-0.295
			c0.197-0.196,0.295-0.465,0.295-0.805V113.303z"/>
		<path class="st12" d="M68.051,110.654h1.2v0.76h0.02c0.134-0.28,0.323-0.496,0.57-0.65c0.247-0.153,0.53-0.229,0.85-0.229
			c0.073,0,0.146,0.007,0.216,0.02c0.069,0.014,0.142,0.03,0.215,0.051v1.159c-0.101-0.026-0.198-0.048-0.295-0.064
			s-0.192-0.025-0.285-0.025c-0.28,0-0.505,0.052-0.675,0.155s-0.301,0.222-0.391,0.355c-0.09,0.133-0.149,0.267-0.18,0.399
			c-0.03,0.134-0.045,0.233-0.045,0.3v2.57h-1.2V110.654z"/>
		<path class="st12" d="M71.361,113.053c0-0.38,0.068-0.725,0.205-1.034c0.137-0.311,0.321-0.575,0.555-0.796
			c0.233-0.22,0.51-0.39,0.83-0.51s0.66-0.18,1.02-0.18c0.36,0,0.7,0.06,1.021,0.18s0.597,0.29,0.83,0.51
			c0.233,0.221,0.419,0.485,0.556,0.796c0.137,0.31,0.205,0.654,0.205,1.034c0,0.381-0.068,0.726-0.205,1.035
			c-0.137,0.311-0.322,0.575-0.556,0.795c-0.233,0.221-0.51,0.391-0.83,0.511c-0.32,0.119-0.66,0.18-1.021,0.18
			c-0.359,0-0.699-0.061-1.02-0.18c-0.32-0.12-0.597-0.29-0.83-0.511c-0.233-0.22-0.418-0.484-0.555-0.795
			C71.43,113.779,71.361,113.434,71.361,113.053z M72.562,113.053c0,0.188,0.031,0.367,0.095,0.54
			c0.063,0.174,0.156,0.327,0.28,0.46c0.123,0.134,0.271,0.24,0.444,0.32c0.174,0.08,0.37,0.12,0.59,0.12
			c0.221,0,0.417-0.04,0.591-0.12c0.173-0.08,0.321-0.187,0.444-0.32c0.124-0.133,0.217-0.286,0.281-0.46
			c0.062-0.173,0.094-0.353,0.094-0.54c0-0.187-0.031-0.366-0.094-0.54c-0.064-0.173-0.157-0.326-0.281-0.46
			c-0.123-0.133-0.271-0.239-0.444-0.319c-0.174-0.08-0.37-0.12-0.591-0.12c-0.22,0-0.416,0.04-0.59,0.12
			c-0.173,0.08-0.321,0.187-0.444,0.319c-0.124,0.134-0.217,0.287-0.28,0.46C72.593,112.687,72.562,112.867,72.562,113.053z"/>
		<path class="st12" d="M77.392,109.024c0-0.193,0.071-0.362,0.215-0.505c0.144-0.144,0.325-0.216,0.545-0.216
			s0.405,0.068,0.555,0.205c0.15,0.137,0.226,0.309,0.226,0.516c0,0.206-0.075,0.378-0.226,0.515
			c-0.149,0.137-0.335,0.205-0.555,0.205s-0.401-0.071-0.545-0.215S77.392,109.217,77.392,109.024z M77.562,110.654h1.2v4.8h-1.2
			V110.654z"/>
		<path class="st12" d="M83.781,114.734h-0.021c-0.174,0.293-0.406,0.507-0.7,0.64c-0.293,0.134-0.609,0.2-0.95,0.2
			c-0.373,0-0.704-0.065-0.994-0.195s-0.539-0.308-0.745-0.535c-0.207-0.227-0.363-0.493-0.471-0.8
			c-0.106-0.307-0.159-0.637-0.159-0.99c0-0.353,0.056-0.683,0.17-0.989c0.113-0.307,0.271-0.573,0.475-0.801
			c0.203-0.227,0.448-0.404,0.735-0.534c0.286-0.131,0.6-0.195,0.939-0.195c0.227,0,0.427,0.023,0.601,0.07
			c0.173,0.046,0.326,0.106,0.46,0.18c0.133,0.073,0.246,0.151,0.34,0.235c0.093,0.083,0.17,0.165,0.229,0.244h0.03v-3.369h1.2v7.56
			h-1.14V114.734z M80.94,113.053c0,0.188,0.032,0.367,0.096,0.54c0.062,0.174,0.156,0.327,0.279,0.46
			c0.124,0.134,0.271,0.24,0.445,0.32c0.173,0.08,0.37,0.12,0.59,0.12s0.417-0.04,0.59-0.12c0.174-0.08,0.322-0.187,0.445-0.32
			c0.123-0.133,0.217-0.286,0.28-0.46c0.063-0.173,0.095-0.353,0.095-0.54c0-0.187-0.031-0.366-0.095-0.54
			c-0.063-0.173-0.157-0.326-0.28-0.46c-0.123-0.133-0.271-0.239-0.445-0.319c-0.173-0.08-0.37-0.12-0.59-0.12
			s-0.417,0.04-0.59,0.12c-0.174,0.08-0.321,0.187-0.445,0.319c-0.123,0.134-0.217,0.287-0.279,0.46
			C80.973,112.687,80.94,112.867,80.94,113.053z"/>
	</g>
</g>
<g id="lens">
	<circle class="st13" cx="66.209" cy="34.741" r="24.483"/>
	<circle class="st14" cx="66.209" cy="34.741" r="19.158"/>
	<circle class="st15" cx="66.209" cy="34.741" r="10.799"/>
	<circle class="st16" cx="59.934" cy="38.818" r="4.204"/>
	<circle class="st16" cx="72.892" cy="29.841" r="2.14"/>
</g>
<g id="flash">
	<path class="st12" d="M25.56,47.709H12.426c-2.608,0-4.742-2.134-4.742-4.742v-24.76c0-2.608,2.134-4.742,4.742-4.742H25.56
		c2.608,0,4.742,2.134,4.742,4.742v24.76C30.302,45.575,28.168,47.709,25.56,47.709z"/>
	<path class="st17" d="M23.586,47.709H14.4c-0.891,0-1.619-0.729-1.619-1.619V15.084c0-0.891,0.729-1.619,1.619-1.619h9.186
		c0.891,0,1.619,0.729,1.619,1.619v31.006C25.205,46.98,24.477,47.709,23.586,47.709z"/>
	<g id="Layer_12">
		<path class="st18" d="M11.775,42.062H8.689c-0.553,0-1.005-0.452-1.005-1.005V20.116c0-0.553,0.452-1.005,1.005-1.005h3.086
			c0.553,0,1.005,0.452,1.005,1.005v20.941C12.781,41.61,12.328,42.062,11.775,42.062z"/>
		<path class="st18" d="M29.297,42.062H26.21c-0.553,0-1.005-0.452-1.005-1.005V20.116c0-0.553,0.452-1.005,1.005-1.005h3.086
			c0.553,0,1.005,0.452,1.005,1.005v20.941C30.302,41.61,29.85,42.062,29.297,42.062z"/>
	</g>
	<g id="Layer_13">
		<line class="st19" x1="9.993" y1="13.618" x2="9.993" y2="47.553"/>
		<line class="st19" x1="11.993" y1="13.618" x2="11.993" y2="47.553"/>
		<line class="st19" x1="13.993" y1="13.618" x2="13.993" y2="47.553"/>
		<line class="st19" x1="15.993" y1="13.618" x2="15.993" y2="47.553"/>
		<line class="st19" x1="17.993" y1="13.618" x2="17.993" y2="47.553"/>
		<line class="st19" x1="19.993" y1="13.618" x2="19.993" y2="47.553"/>
		<line class="st19" x1="21.993" y1="13.618" x2="21.993" y2="47.553"/>
		<line class="st19" x1="23.993" y1="13.618" x2="23.993" y2="47.553"/>
		<line class="st19" x1="25.993" y1="13.618" x2="25.993" y2="47.553"/>
		<line class="st19" x1="27.993" y1="13.618" x2="27.993" y2="47.553"/>
	</g>
	<path class="st20" d="M25.56,47.709H12.426c-2.608,0-4.742-2.134-4.742-4.742v-24.76c0-2.608,2.134-4.742,4.742-4.742H25.56
		c2.608,0,4.742,2.134,4.742,4.742v24.76C30.302,45.575,28.168,47.709,25.56,47.709z"/>
</g>
<g id="front_button">
	<circle class="st21" cx="14.286" cy="65.826" r="6.602"/>
	<path id="highlight" class="st22" d="M13.876,71.386c-0.138,0.021-0.277,0.031-0.425,0.031c-2.676,0-4.835-2.441-4.835-5.442
		c0-3.012,2.159-5.442,4.835-5.442c0.148,0,0.286,0.01,0.425,0.031c-2.436,0.27-4.337,2.586-4.337,5.411
		C9.538,68.79,11.439,71.106,13.876,71.386z"/>
</g>
<g id="Layer_10">
	<path d="M39.387,21.322h-5.221c-0.79,0-1.437-0.646-1.437-1.437v-5.221c0-0.79,0.646-1.437,1.437-1.437h5.221
		c0.79,0,1.437,0.646,1.437,1.437v5.221C40.823,20.675,40.177,21.322,39.387,21.322z"/>
	<circle class="st23" cx="36.776" cy="26.973" r="3.614"/>
	<path class="st24" d="M38.541,26.973c0,1.05-0.86,1.91-1.91,1.91c-0.69,0-1.28-0.36-1.62-0.9c0.22,0.13,0.47,0.2,0.75,0.2
		c0.82,0,1.49-0.66,1.49-1.49c0-0.78-0.6-1.42-1.37-1.48c0.23-0.1,0.49-0.15,0.75-0.15C37.681,25.063,38.541,25.913,38.541,26.973z"
		/>
	<g id="Layer_11">
		<path class="st12" d="M39.646,17.279c0,0.17-0.14,0.31-0.31,0.31h-2.26v2.24c0,0.18-0.14,0.32-0.31,0.32s-0.31-0.14-0.31-0.32
			v-2.24h-2.24c-0.17,0-0.31-0.14-0.31-0.31c0-0.18,0.14-0.32,0.31-0.32h2.24v-2.24c0-0.18,0.14-0.32,0.31-0.32s0.31,0.14,0.31,0.32
			v2.24h2.26C39.506,16.959,39.646,17.099,39.646,17.279z"/>
	</g>
	<g>
	</g>
	<g>
	</g>
	<g>
	</g>
	<g>
	</g>
	<g>
	</g>
</g>
</svg>
