<?xml version="1.0" encoding="utf-8"?>
<!-- Generator: Adobe Illustrator 25.0.0, SVG Export Plug-In . SVG Version: 6.00 Build 0)  -->
<svg version="1.1" id="Layer_7" xmlns="http://www.w3.org/2000/svg" xmlns:xlink="http://www.w3.org/1999/xlink" x="0px" y="0px"
	 viewBox="0 0 41.094 190.11" style="enable-background:new 0 0 41.094 190.11;" xml:space="preserve">
<style type="text/css">
	.st0{fill:url(#bump_1_);}
	.st1{opacity:0.87;fill:#FF9592;}
	.st2{fill:#FFF8F0;}
	.st3{fill:#C65647;}
	.st4{fill:#4C0128;stroke:#200000;stroke-width:0.25;stroke-miterlimit:10;}
	.st5{fill:none;stroke:#50832A;stroke-width:0.5;stroke-linecap:round;stroke-miterlimit:10;}
	.st6{fill:#50832A;stroke:#50832A;stroke-width:0.5;stroke-linecap:round;stroke-miterlimit:10;}
	.st7{fill:#8B0043;stroke:#200000;stroke-width:0.25;stroke-miterlimit:10;}
	.st8{fill:#200000;}
	.st9{fill:#8B0043;}
	.st10{fill:#93372E;}
	.st11{opacity:0.6;fill:none;stroke:#FFCACA;stroke-width:0.25;stroke-linecap:round;stroke-miterlimit:10;}
	.st12{opacity:0.69;fill:#200000;}
	.st13{opacity:0.55;fill:#FFCACA;}
</style>
<radialGradient id="bump_1_" cx="20.355" cy="186.68" r="11.9734" fx="8.3817" fy="186.7148" gradientTransform="matrix(0.0101 -0.9999 1.6908 0.0171 -295.4915 203.8431)" gradientUnits="userSpaceOnUse">
	<stop  offset="0.4842" style="stop-color:#FC6363"/>
	<stop  offset="0.5117" style="stop-color:#E34D5C"/>
	<stop  offset="0.5535" style="stop-color:#C33153"/>
	<stop  offset="0.5971" style="stop-color:#AA1C4C"/>
	<stop  offset="0.6426" style="stop-color:#990C47"/>
	<stop  offset="0.6911" style="stop-color:#8E0344"/>
	<stop  offset="0.7482" style="stop-color:#8B0043"/>
</radialGradient>
<path id="bump" class="st0" d="M33.62,190.11H7.09c0.56-0.52,1.14-1.02,1.75-1.51c3.67-2.98,8.07-5.35,11.51-5.35
	C24.36,183.25,29.67,186.46,33.62,190.11z"/>
<path id="bottle" class="st1" d="M41.09,161.24v5.24c-0.01,2.72-0.01,5.44-0.01,8.16v10.58c0,2.69-2.2,4.89-4.89,4.89H4.89
	c-0.3,0-0.6-0.03-0.89-0.09c-2.27-0.41-4-2.41-4-4.8v-47.6c0-1.28,0.01-2.55,0.06-3.82c0-0.58,0.02-1.17,0.05-1.75
	c0.01-0.44,0.03-0.87,0.05-1.31c0.04-0.85,0.08-1.7,0.13-2.55C1.14,113.01,3.83,97.98,6,82.92c2.47-17.21,4.93-34.41,7.4-51.62
	c0.44-3.06,0.88-6.13,1.32-9.2c0.06-0.41,0.11-0.81,0.17-1.22c0-0.35,0.02-0.69,0.05-1.01c0-0.01,0.01-0.02,0.01-0.03
	c0.05-0.49,0.14-0.94,0.27-1.33c0.3-0.96,0.78-1.59,1.32-1.59h8c0.53,0,1.01,0.62,1.31,1.58c0.12,0.39,0.21,0.84,0.27,1.32
	c0,0.01,0,0.01,0,0.02c0.04,0.33,0.06,0.68,0.06,1.04c0.06,0.41,0.12,0.81,0.18,1.22c1.7,11.86,3.4,23.73,5.1,35.59
	c2.4,16.74,4.92,33.49,7.13,50.25c0.66,5.01,1.15,10,1.51,14.98c0.1,1.48,0.2,2.95,0.28,4.43c0.05,0.82,0.1,1.63,0.13,2.45
	c0.02,0.39,0.04,0.78,0.06,1.17c0.03,0.59,0.06,1.18,0.08,1.77C41.07,142.23,41.11,151.71,41.09,161.24z"/>
<g id="label">
	<path class="st2" d="M41.09,161.24v2.85c-1.6,3.84-3.73,7.2-6.27,9.86c-3.96,4.18-8.91,6.66-14.27,6.66
		c-8.78,0-16.45-6.65-20.55-16.54v-26.45c0-1.28,0.01-2.55,0.06-3.82c0-0.58,0.02-1.17,0.05-1.75c0.01-0.44,0.03-0.87,0.05-1.31
		c4.14-9.66,11.73-16.14,20.39-16.14c4.06,0,7.89,1.43,11.22,3.94c3.56,2.66,6.57,6.55,8.74,11.26c0.02,0.39,0.04,0.78,0.06,1.17
		c0.03,0.59,0.06,1.18,0.08,1.77C41.07,142.23,41.11,151.71,41.09,161.24z"/>
	<path class="st3" d="M40.57,130.97c-0.02-0.39-0.04-0.78-0.06-1.17c-0.03-0.82-0.08-1.63-0.13-2.45
		c-2.27-4.21-5.23-7.67-8.65-10.06c-3.36-2.36-7.16-3.69-11.18-3.69c-3.37,0-6.58,0.93-9.51,2.62c-2.06,1.19-3.97,2.75-5.7,4.61
		c-1.93,2.09-3.64,4.57-5.05,7.36c-0.05,0.85-0.09,1.7-0.13,2.55c-0.02,0.44-0.04,0.87-0.05,1.31c-0.03,0.58-0.05,1.17-0.05,1.75
		c1.26-3.72,3.03-7.03,5.16-9.79c1.7-2.19,3.63-4.02,5.73-5.41c2.91-1.92,6.17-3,9.6-3c4.1,0,7.96,1.54,11.28,4.23
		c3.74,3.03,6.81,7.52,8.82,12.91C40.63,132.15,40.6,131.56,40.57,130.97z M34.74,172.56c-3.88,4.41-8.82,7.05-14.19,7.05
		c-4.14,0-8.02-1.56-11.36-4.3c-1.82-1.49-3.49-3.33-4.94-5.45c-1.73-2.52-3.18-5.43-4.25-8.64v5.23c1.19,2.45,2.6,4.68,4.2,6.63
		c1.49,1.82,3.15,3.39,4.93,4.67c3.42,2.46,7.3,3.86,11.42,3.86c5.34,0,10.3-2.35,14.35-6.34c2.43-2.39,4.53-5.37,6.19-8.79v-5.24
		C39.61,165.66,37.42,169.53,34.74,172.56z"/>
</g>
<g id="grapes">
	
		<ellipse transform="matrix(0.4569 -0.8895 0.8895 0.4569 -123.3018 113.6623)" class="st4" cx="31.434" cy="157.811" rx="3.541" ry="2.623"/>
	
		<ellipse transform="matrix(0.4569 -0.8895 0.8895 0.4569 -122.9954 117.8197)" class="st4" cx="34.992" cy="159.638" rx="3.541" ry="2.623"/>
	<g id="vine">
		<path class="st5" d="M31.922,159.78c1.093-1.039,1.901-2.377,2.311-3.828c0.161-0.571,0.265-1.165,0.535-1.693
			c0.522-1.022,1.624-1.094,2.536-1.613c0.924-0.525,1.566-1.409,1.967-2.377c0.803-1.939,0.818-4.418-0.033-6.346
			c-0.736-1.666-2.534-2.981-4.319-2.624c-1.659,0.331-2.893,2.172-2.303,3.813c0.255,0.709,0.796,1.299,1.452,1.67
			c0.545,0.308,1.193,0.474,1.805,0.338c1.318-0.292,1.586-1.788,1.529-2.93c-0.048-0.951-0.231-1.89-0.293-2.84
			c-0.062-0.95,0.005-1.937,0.427-2.79c0.159-0.322,0.334-0.54,0.448-0.665c0,0,0.046-0.051,0.095-0.1
			c0.388-0.388,1.626-0.838,1.729-0.874"/>
		<g id="Layer_12">
			<path class="st6" d="M38.178,151.492c-0.165,0.068-0.372-0.055-0.514-0.154c-0.891-0.616-0.857-1.746-0.922-2.714
				c-0.024-0.36,0.492-0.24,0.694-0.183c0.432,0.121,0.931,0.356,1.151,0.768c0.179,0.334,0.149,0.739,0.084,1.112
				C38.617,150.635,38.519,151.352,38.178,151.492z"/>
		</g>
		<path class="st6" d="M37.665,138.155c-0.165,0.068-0.372-0.055-0.514-0.154c-0.891-0.616-0.857-1.746-0.922-2.714
			c-0.024-0.36,0.492-0.24,0.694-0.183c0.432,0.121,0.931,0.356,1.151,0.768c0.179,0.334,0.149,0.739,0.084,1.112
			C38.104,137.297,38.006,138.015,37.665,138.155z"/>
		<path class="st6" d="M32.409,145.306c-0.088,0.155-0.327,0.185-0.5,0.195c-1.081,0.062-1.75-0.85-2.396-1.573
			c-0.24-0.269,0.241-0.492,0.435-0.571c0.415-0.17,0.953-0.292,1.38-0.102c0.346,0.154,0.572,0.491,0.75,0.825
			C32.228,144.36,32.592,144.986,32.409,145.306z"/>
		<path class="st6" d="M34.172,141.466c-0.178-0.004-0.318-0.2-0.409-0.348c-0.569-0.922-0.083-1.944,0.247-2.855
			c0.122-0.339,0.547-0.022,0.71,0.111c0.347,0.285,0.709,0.7,0.745,1.166c0.029,0.378-0.16,0.736-0.37,1.052
			C34.919,140.857,34.541,141.475,34.172,141.466z"/>
		<path class="st6" d="M38.459,142.372c-0.161-0.077-0.209-0.313-0.232-0.484c-0.143-1.074,0.718-1.808,1.39-2.506
			c0.25-0.259,0.508,0.203,0.602,0.391c0.201,0.401,0.362,0.928,0.205,1.369c-0.127,0.357-0.447,0.607-0.767,0.809
			C39.389,142.121,38.792,142.531,38.459,142.372z"/>
		<path class="st6" d="M34.295,147.017c0.15,0.096,0.169,0.336,0.17,0.509c0.009,1.083-0.935,1.706-1.689,2.315
			c-0.28,0.227-0.479-0.265-0.549-0.463c-0.149-0.423-0.244-0.966-0.034-1.384c0.17-0.338,0.518-0.547,0.861-0.708
			C33.341,147.151,33.984,146.818,34.295,147.017z"/>
		<path class="st6" d="M35.316,143.065c-0.145-0.105-0.375-0.033-0.536,0.029c-1.011,0.39-1.243,1.497-1.532,2.422
			c-0.108,0.344,0.422,0.349,0.632,0.341c0.448-0.017,0.988-0.128,1.299-0.477c0.252-0.283,0.318-0.683,0.342-1.061
			C35.542,144.002,35.615,143.281,35.316,143.065z"/>
		<path class="st6" d="M37.005,153.113c-0.077,0.161,0.035,0.374,0.126,0.522c0.566,0.923,1.697,0.95,2.66,1.067
			c0.358,0.044,0.266-0.478,0.221-0.684c-0.098-0.438-0.305-0.949-0.705-1.191c-0.324-0.196-0.729-0.189-1.106-0.144
			C37.886,152.721,37.164,152.78,37.005,153.113z"/>
	</g>
	
		<ellipse transform="matrix(0.6033 -0.7975 0.7975 0.6033 -115.2325 92.5587)" class="st7" cx="35.42" cy="162.107" rx="3.541" ry="2.623"/>
	
		<ellipse transform="matrix(0.4569 -0.8895 0.8895 0.4569 -126.2855 115.7155)" class="st7" cx="31.624" cy="161.281" rx="3.541" ry="2.623"/>
	
		<ellipse transform="matrix(0.3617 -0.9323 0.9323 0.3617 -129.586 128.0729)" class="st7" cx="28.741" cy="158.676" rx="3.541" ry="2.623"/>
	
		<ellipse transform="matrix(0.2316 -0.9728 0.9728 0.2316 -136.6335 151.8443)" class="st7" cx="27.806" cy="162.416" rx="3.541" ry="2.623"/>
	
		<ellipse transform="matrix(0.6513 -0.7588 0.7588 0.6513 -113.7573 82.532)" class="st7" cx="32.925" cy="165.045" rx="3.541" ry="2.623"/>
	
		<ellipse transform="matrix(0.4569 -0.8895 0.8895 0.4569 -132.0108 116.1375)" class="st7" cx="29.107" cy="166.181" rx="3.541" ry="2.623"/>
</g>
<g>
	<path d="M5.328,166.276c0.004-0.017,0.009-0.033,0.014-0.051c0.012-0.044,0.024-0.092,0.037-0.143
		c0.021-0.085,0.048-0.204,0.083-0.355c0.004-0.02,0.012-0.033,0.023-0.043c0.011-0.008,0.022-0.013,0.034-0.013
		s0.021,0.005,0.031,0.015c0.009,0.009,0.014,0.021,0.014,0.033s-0.003,0.027-0.009,0.043c-0.006,0.015-0.014,0.039-0.025,0.072
		s-0.022,0.07-0.034,0.111c-0.012,0.04-0.024,0.082-0.037,0.127c-0.013,0.043-0.024,0.085-0.036,0.125
		c-0.018,0.065-0.032,0.114-0.04,0.147s-0.018,0.053-0.028,0.06s-0.021,0.01-0.031,0.01c-0.024,0-0.04-0.012-0.046-0.034
		c-0.014-0.054-0.035-0.14-0.062-0.256c-0.034-0.145-0.06-0.254-0.079-0.328c-0.004,0.019-0.009,0.038-0.014,0.06
		c-0.012,0.051-0.026,0.105-0.041,0.164c-0.038,0.153-0.069,0.271-0.094,0.354c-0.004,0.011-0.011,0.021-0.021,0.028
		s-0.021,0.012-0.031,0.012c-0.024,0-0.039-0.011-0.045-0.033c-0.017-0.058-0.033-0.112-0.047-0.163
		c-0.014-0.053-0.029-0.103-0.043-0.152c-0.029-0.101-0.061-0.196-0.096-0.287c-0.006-0.019-0.01-0.037-0.01-0.054
		s0.004-0.03,0.013-0.039s0.019-0.014,0.031-0.014c0.031,0,0.052,0.018,0.061,0.052c0.009,0.035,0.019,0.072,0.028,0.111
		c0.009,0.038,0.019,0.078,0.028,0.119c0.009,0.04,0.019,0.08,0.028,0.121c0.009,0.039,0.019,0.077,0.029,0.113
		c0.01,0.04,0.02,0.074,0.029,0.103l0.132-0.553c0.012-0.044,0.034-0.065,0.067-0.065c0.035,0,0.057,0.023,0.066,0.069
		C5.257,165.992,5.297,166.17,5.328,166.276z"/>
	<path d="M5.979,165.38c0.004,0.011,0.006,0.023,0.005,0.037c-0.001,0.016-0.004,0.027-0.01,0.038s-0.013,0.019-0.021,0.025
		c-0.015,0.012-0.03,0.018-0.046,0.018s-0.028-0.002-0.037-0.005c-0.009-0.004-0.017-0.009-0.024-0.016
		c-0.017-0.016-0.025-0.036-0.025-0.062s0.006-0.044,0.02-0.055c0.021-0.019,0.043-0.028,0.064-0.028
		C5.94,165.333,5.965,165.348,5.979,165.38z M5.938,165.947c-0.003,0.065-0.005,0.125-0.005,0.178s0.001,0.107,0.005,0.163
		c0.003,0.057,0.003,0.089,0,0.098c-0.003,0.008-0.007,0.015-0.012,0.02c-0.011,0.011-0.023,0.017-0.036,0.017
		s-0.025-0.005-0.037-0.015s-0.016-0.029-0.013-0.06c0.007-0.083,0.011-0.166,0.011-0.251s-0.001-0.153-0.003-0.205
		c-0.002-0.053-0.004-0.093-0.005-0.119s0-0.044,0.003-0.052s0.008-0.014,0.014-0.019c0.011-0.011,0.023-0.016,0.037-0.016
		s0.026,0.005,0.036,0.015s0.015,0.025,0.015,0.046C5.945,165.814,5.942,165.882,5.938,165.947z"/>
	<path d="M6.798,165.941l-0.002,0.211c0,0.069,0.002,0.135,0.007,0.195c0.001,0.022-0.004,0.038-0.016,0.05
		c-0.012,0.01-0.025,0.016-0.038,0.016s-0.025-0.005-0.036-0.016c-0.011-0.01-0.015-0.025-0.013-0.045
		c0.002-0.021,0.004-0.045,0.006-0.071s0.003-0.055,0.004-0.083c0.002-0.058,0.004-0.104,0.004-0.143c0-0.037,0-0.064-0.002-0.081
		s-0.002-0.042-0.004-0.075c-0.001-0.034-0.01-0.065-0.026-0.096c-0.016-0.029-0.039-0.044-0.068-0.044s-0.055,0.006-0.076,0.019
		s-0.042,0.028-0.06,0.049c-0.037,0.044-0.062,0.095-0.074,0.152c0,0.019-0.001,0.036-0.001,0.054v0.051
		c0,0.118,0.001,0.196,0.004,0.233c0.002,0.039,0,0.064-0.007,0.076c-0.007,0.014-0.02,0.02-0.038,0.02s-0.032-0.006-0.042-0.018
		c-0.01-0.011-0.014-0.032-0.012-0.062c0.006-0.084,0.01-0.17,0.01-0.259c0-0.151-0.002-0.263-0.007-0.334
		c-0.002-0.044,0.016-0.065,0.055-0.065c0.02,0,0.033,0.006,0.039,0.019s0.007,0.025,0.006,0.039s-0.002,0.025-0.003,0.035
		s0,0.02,0,0.03s0,0.02,0,0.028c0.039-0.073,0.089-0.121,0.153-0.144c0.02-0.007,0.041-0.011,0.062-0.011s0.042,0.005,0.064,0.015
		c0.022,0.009,0.042,0.024,0.058,0.046C6.78,165.779,6.798,165.848,6.798,165.941z"/>
	<path d="M7.187,166.078c0.001,0.09,0.018,0.158,0.049,0.206c0.034,0.051,0.082,0.076,0.144,0.076c0.057,0,0.098-0.028,0.124-0.084
		c0.016-0.036,0.037-0.055,0.061-0.055c0.011,0,0.021,0.004,0.028,0.011s0.011,0.02,0.01,0.038c0,0.018-0.007,0.037-0.019,0.058
		s-0.029,0.039-0.05,0.056c-0.047,0.036-0.103,0.055-0.169,0.055c-0.071,0-0.132-0.03-0.184-0.091
		c-0.054-0.063-0.081-0.14-0.081-0.228s0.008-0.159,0.023-0.215c0.015-0.055,0.036-0.101,0.061-0.137
		c0.049-0.073,0.111-0.11,0.186-0.11c0.095,0,0.162,0.037,0.2,0.112c0.027,0.052,0.041,0.129,0.043,0.229
		c0,0.028-0.004,0.048-0.014,0.058s-0.03,0.015-0.06,0.015L7.187,166.078z M7.522,165.993c0.001-0.113-0.022-0.19-0.071-0.232
		c-0.02-0.018-0.043-0.026-0.071-0.026s-0.051,0.005-0.069,0.016s-0.034,0.024-0.048,0.042s-0.026,0.037-0.035,0.061
		c-0.009,0.021-0.017,0.045-0.023,0.068c-0.006,0.024-0.01,0.049-0.013,0.073L7.325,166C7.412,166,7.477,165.998,7.522,165.993z"/>
	<path d="M8.828,165.009c-0.001,0.049-0.001,0.101-0.002,0.154c0,0.055,0,0.172,0,0.35c0,0.18,0.003,0.353,0.01,0.52
		c0.007,0.168,0.012,0.26,0.015,0.274s0.006,0.027,0.01,0.038s0.007,0.019,0.01,0.025s0.004,0.015,0.004,0.023
		s-0.004,0.018-0.012,0.025c-0.008,0.007-0.017,0.011-0.027,0.011c-0.042,0-0.064-0.042-0.066-0.126c0-0.002,0-0.004,0-0.005
		c-0.043,0.092-0.107,0.138-0.193,0.138c-0.074,0-0.134-0.03-0.18-0.092c-0.049-0.065-0.073-0.158-0.073-0.276
		c0-0.124,0.032-0.226,0.097-0.304c0.059-0.071,0.128-0.107,0.208-0.107c0.045,0,0.083,0.008,0.115,0.024
		c0-0.047-0.001-0.096-0.001-0.146c0-0.062-0.001-0.125-0.002-0.188c0-0.062-0.001-0.122-0.002-0.181s-0.002-0.113-0.002-0.165
		c-0.001-0.107-0.003-0.18-0.005-0.217s0.003-0.061,0.015-0.07c0.012-0.011,0.025-0.016,0.04-0.016s0.028,0.005,0.04,0.016
		c0.012,0.01,0.017,0.028,0.015,0.055s-0.004,0.061-0.006,0.103S8.829,164.96,8.828,165.009z M8.748,165.985l-0.001-0.206
		c-0.038-0.024-0.073-0.036-0.107-0.036s-0.063,0.007-0.088,0.02c-0.025,0.014-0.048,0.034-0.068,0.061
		c-0.045,0.06-0.068,0.138-0.068,0.235c0,0.138,0.032,0.228,0.095,0.271c0.021,0.015,0.044,0.021,0.071,0.021
		s0.049-0.006,0.068-0.017s0.035-0.024,0.048-0.041c0.023-0.03,0.04-0.065,0.048-0.106C8.748,166.134,8.748,166.066,8.748,165.985z"
		/>
	<path d="M9.6,165.711c0,0.035-0.018,0.056-0.053,0.061c-0.043,0.009-0.091,0.045-0.146,0.11c-0.058,0.07-0.09,0.14-0.098,0.208
		c-0.002,0.03-0.004,0.058-0.004,0.082c0,0.06,0.002,0.121,0.008,0.187c0.001,0.021-0.004,0.038-0.016,0.049
		s-0.025,0.017-0.039,0.017s-0.026-0.005-0.037-0.015c-0.01-0.011-0.015-0.025-0.013-0.047c0.002-0.02,0.003-0.044,0.005-0.07
		c0.001-0.027,0.002-0.056,0.004-0.086c0.001-0.051,0.002-0.107,0.002-0.17c0-0.105-0.001-0.184-0.004-0.234
		c-0.002-0.052-0.002-0.081,0.001-0.089s0.007-0.014,0.013-0.019c0.011-0.011,0.023-0.016,0.037-0.016s0.025,0.005,0.036,0.015
		s0.016,0.022,0.015,0.038c-0.001,0.015-0.002,0.029-0.004,0.045c-0.001,0.014-0.003,0.032-0.005,0.054
		c-0.004,0.034-0.007,0.071-0.011,0.11c0.027-0.067,0.065-0.129,0.114-0.186c0.055-0.062,0.104-0.093,0.145-0.093
		c0.018,0,0.03,0.005,0.038,0.015S9.6,165.698,9.6,165.711z"/>
	<path d="M9.961,165.38c0.004,0.011,0.006,0.023,0.005,0.037c-0.001,0.016-0.004,0.027-0.01,0.038s-0.013,0.019-0.021,0.025
		c-0.015,0.012-0.03,0.018-0.046,0.018s-0.028-0.002-0.037-0.005c-0.009-0.004-0.017-0.009-0.024-0.016
		c-0.017-0.016-0.025-0.036-0.025-0.062s0.006-0.044,0.02-0.055c0.021-0.019,0.043-0.028,0.064-0.028
		C9.922,165.333,9.947,165.348,9.961,165.38z M9.92,165.947c-0.003,0.065-0.005,0.125-0.005,0.178s0.001,0.107,0.005,0.163
		c0.003,0.057,0.003,0.089,0,0.098c-0.003,0.008-0.007,0.015-0.012,0.02c-0.011,0.011-0.023,0.017-0.036,0.017
		s-0.025-0.005-0.037-0.015s-0.016-0.029-0.013-0.06c0.007-0.083,0.011-0.166,0.011-0.251s-0.001-0.153-0.003-0.205
		c-0.002-0.053-0.004-0.093-0.005-0.119s0-0.044,0.003-0.052s0.008-0.014,0.014-0.019c0.011-0.011,0.023-0.016,0.037-0.016
		s0.026,0.005,0.036,0.015s0.015,0.025,0.015,0.046C9.927,165.814,9.924,165.882,9.92,165.947z"/>
	<path d="M10.78,165.941l-0.002,0.211c0,0.069,0.002,0.135,0.007,0.195c0.001,0.022-0.004,0.038-0.016,0.05
		c-0.012,0.01-0.025,0.016-0.038,0.016s-0.025-0.005-0.036-0.016c-0.011-0.01-0.015-0.025-0.013-0.045
		c0.002-0.021,0.004-0.045,0.006-0.071s0.003-0.055,0.004-0.083c0.002-0.058,0.004-0.104,0.004-0.143c0-0.037,0-0.064-0.002-0.081
		s-0.002-0.042-0.004-0.075c-0.001-0.034-0.01-0.065-0.026-0.096c-0.016-0.029-0.039-0.044-0.068-0.044s-0.055,0.006-0.076,0.019
		s-0.042,0.028-0.06,0.049c-0.037,0.044-0.062,0.095-0.074,0.152c0,0.019-0.001,0.036-0.001,0.054v0.051
		c0,0.118,0.001,0.196,0.004,0.233c0.002,0.039,0,0.064-0.007,0.076c-0.007,0.014-0.02,0.02-0.038,0.02s-0.032-0.006-0.042-0.018
		c-0.01-0.011-0.014-0.032-0.012-0.062c0.006-0.084,0.01-0.17,0.01-0.259c0-0.151-0.002-0.263-0.007-0.334
		c-0.002-0.044,0.016-0.065,0.055-0.065c0.02,0,0.033,0.006,0.039,0.019s0.007,0.025,0.006,0.039s-0.002,0.025-0.003,0.035
		s0,0.02,0,0.03s0,0.02,0,0.028c0.039-0.073,0.089-0.121,0.153-0.144c0.02-0.007,0.041-0.011,0.062-0.011s0.042,0.005,0.064,0.015
		c0.022,0.009,0.042,0.024,0.058,0.046C10.762,165.779,10.78,165.848,10.78,165.941z"/>
	<path d="M11.629,165.695c0.01,0.01,0.015,0.022,0.015,0.038c0,0.015-0.007,0.033-0.022,0.055c-0.015,0.021-0.033,0.043-0.054,0.066
		c-0.021,0.024-0.043,0.048-0.067,0.072c-0.02,0.021-0.039,0.04-0.055,0.059c0.027,0.083,0.075,0.173,0.143,0.27
		c0.019,0.026,0.034,0.048,0.044,0.066c0.01,0.018,0.016,0.032,0.016,0.045c0,0.012-0.006,0.023-0.018,0.035
		s-0.024,0.018-0.036,0.018c-0.029,0-0.048-0.014-0.059-0.039c-0.011-0.027-0.024-0.057-0.041-0.092
		c-0.016-0.033-0.033-0.067-0.05-0.101c-0.028-0.055-0.052-0.1-0.072-0.134c-0.018,0.017-0.037,0.035-0.058,0.054
		c-0.029,0.026-0.052,0.048-0.067,0.062c-0.004,0.004-0.008,0.008-0.012,0.011v0.002c0,0.017,0,0.034,0.001,0.053
		c0,0.02,0.001,0.039,0.002,0.059c0,0.019,0.001,0.037,0.001,0.057c0,0.018-0.005,0.033-0.017,0.044s-0.024,0.017-0.038,0.017
		s-0.025-0.005-0.036-0.015s-0.015-0.03-0.014-0.062c0.001-0.03,0.002-0.071,0.003-0.122s0.001-0.105,0.001-0.163
		c0.001-0.173,0.002-0.299,0.002-0.381c0-0.08,0-0.165-0.001-0.254s-0.001-0.174-0.003-0.256c-0.004-0.185-0.01-0.319-0.02-0.406
		c-0.002-0.021,0.003-0.036,0.015-0.047c0.012-0.01,0.026-0.015,0.041-0.015s0.029,0.005,0.042,0.015
		c0.013,0.011,0.019,0.028,0.018,0.053s-0.001,0.057-0.002,0.095s0,0.08,0,0.126c0.001,0.137,0.002,0.238,0.002,0.303
		c0,0.066,0,0.135,0,0.205c0,0.072-0.001,0.144-0.001,0.216c0,0.147,0,0.274,0.002,0.379c0.066-0.062,0.139-0.143,0.217-0.243
		c0.038-0.048,0.062-0.083,0.072-0.105c0.018-0.035,0.041-0.053,0.07-0.053C11.608,165.68,11.619,165.685,11.629,165.695z"/>
	<path d="M12.168,166.357c0.074-0.278,0.125-0.484,0.152-0.62c0.007-0.04,0.027-0.061,0.06-0.061c0.013,0,0.024,0.004,0.034,0.013
		s0.015,0.019,0.015,0.031c0,0.021-0.005,0.044-0.015,0.07s-0.023,0.067-0.04,0.124c-0.017,0.055-0.034,0.115-0.052,0.179
		s-0.036,0.13-0.055,0.198c-0.019,0.069-0.037,0.138-0.056,0.207c-0.074,0.269-0.12,0.412-0.138,0.431
		c-0.008,0.009-0.021,0.014-0.036,0.014s-0.028-0.005-0.039-0.013c-0.011-0.01-0.016-0.02-0.016-0.031
		c0-0.02,0.005-0.038,0.015-0.055s0.021-0.039,0.032-0.064c0.011-0.027,0.023-0.058,0.037-0.093
		c0.022-0.062,0.044-0.128,0.065-0.201c-0.016-0.05-0.032-0.104-0.048-0.162c-0.019-0.063-0.039-0.128-0.059-0.192
		c-0.048-0.157-0.082-0.257-0.102-0.299c-0.022-0.05-0.033-0.083-0.033-0.101s0.004-0.031,0.014-0.042
		c0.009-0.01,0.021-0.015,0.035-0.015c0.028,0,0.047,0.019,0.059,0.056c0.011,0.036,0.022,0.075,0.034,0.117
		c0.012,0.041,0.023,0.083,0.035,0.125c0.011,0.043,0.022,0.085,0.034,0.127s0.021,0.081,0.031,0.119
		c0.01,0.037,0.019,0.071,0.026,0.102C12.163,166.334,12.166,166.346,12.168,166.357z"/>
	<path d="M13.62,165.009c-0.001,0.049-0.001,0.101-0.002,0.154c0,0.055,0,0.172,0,0.35c0,0.18,0.003,0.353,0.01,0.52
		c0.007,0.168,0.012,0.26,0.015,0.274s0.006,0.027,0.01,0.038s0.007,0.019,0.01,0.025s0.004,0.015,0.004,0.023
		s-0.004,0.018-0.012,0.025c-0.008,0.007-0.017,0.011-0.027,0.011c-0.042,0-0.064-0.042-0.066-0.126c0-0.002,0-0.004,0-0.005
		c-0.043,0.092-0.107,0.138-0.193,0.138c-0.074,0-0.134-0.03-0.18-0.092c-0.049-0.065-0.073-0.158-0.073-0.276
		c0-0.124,0.032-0.226,0.097-0.304c0.059-0.071,0.128-0.107,0.208-0.107c0.045,0,0.083,0.008,0.115,0.024
		c0-0.047-0.001-0.096-0.001-0.146c0-0.062-0.001-0.125-0.002-0.188c0-0.062-0.001-0.122-0.002-0.181s-0.002-0.113-0.002-0.165
		c-0.001-0.107-0.003-0.18-0.005-0.217s0.003-0.061,0.015-0.07c0.012-0.011,0.025-0.016,0.04-0.016s0.028,0.005,0.04,0.016
		c0.012,0.01,0.017,0.028,0.015,0.055s-0.004,0.061-0.006,0.103S13.621,164.96,13.62,165.009z M13.54,165.985l-0.001-0.206
		c-0.038-0.024-0.073-0.036-0.107-0.036s-0.063,0.007-0.088,0.02c-0.025,0.014-0.048,0.034-0.068,0.061
		c-0.045,0.06-0.068,0.138-0.068,0.235c0,0.138,0.032,0.228,0.095,0.271c0.021,0.015,0.044,0.021,0.071,0.021
		s0.049-0.006,0.068-0.017s0.035-0.024,0.048-0.041c0.023-0.03,0.04-0.065,0.048-0.106C13.54,166.134,13.54,166.066,13.54,165.985z"
		/>
	<path d="M14.391,165.711c0,0.035-0.018,0.056-0.053,0.061c-0.043,0.009-0.091,0.045-0.146,0.11c-0.058,0.07-0.09,0.14-0.098,0.208
		c-0.002,0.03-0.004,0.058-0.004,0.082c0,0.06,0.002,0.121,0.008,0.187c0.001,0.021-0.004,0.038-0.016,0.049
		s-0.025,0.017-0.039,0.017s-0.026-0.005-0.037-0.015c-0.01-0.011-0.015-0.025-0.013-0.047c0.002-0.02,0.003-0.044,0.005-0.07
		c0.001-0.027,0.002-0.056,0.004-0.086c0.001-0.051,0.002-0.107,0.002-0.17c0-0.105-0.001-0.184-0.004-0.234
		c-0.002-0.052-0.002-0.081,0.001-0.089s0.007-0.014,0.013-0.019c0.011-0.011,0.023-0.016,0.037-0.016s0.025,0.005,0.036,0.015
		s0.016,0.022,0.015,0.038c-0.001,0.015-0.002,0.029-0.004,0.045c-0.001,0.014-0.003,0.032-0.005,0.054
		c-0.004,0.034-0.007,0.071-0.011,0.11c0.027-0.067,0.065-0.129,0.114-0.186c0.055-0.062,0.104-0.093,0.145-0.093
		c0.018,0,0.03,0.005,0.038,0.015S14.391,165.698,14.391,165.711z"/>
	<path d="M14.753,165.38c0.004,0.011,0.006,0.023,0.005,0.037c-0.001,0.016-0.004,0.027-0.01,0.038s-0.013,0.019-0.021,0.025
		c-0.015,0.012-0.03,0.018-0.046,0.018s-0.028-0.002-0.037-0.005c-0.009-0.004-0.017-0.009-0.024-0.016
		c-0.017-0.016-0.025-0.036-0.025-0.062s0.006-0.044,0.02-0.055c0.021-0.019,0.043-0.028,0.064-0.028
		C14.714,165.333,14.739,165.348,14.753,165.38z M14.712,165.947c-0.003,0.065-0.005,0.125-0.005,0.178s0.001,0.107,0.005,0.163
		c0.003,0.057,0.003,0.089,0,0.098c-0.003,0.008-0.007,0.015-0.012,0.02c-0.011,0.011-0.023,0.017-0.036,0.017
		s-0.025-0.005-0.037-0.015s-0.016-0.029-0.013-0.06c0.007-0.083,0.011-0.166,0.011-0.251s-0.001-0.153-0.003-0.205
		c-0.002-0.053-0.004-0.093-0.005-0.119s0-0.044,0.003-0.052s0.008-0.014,0.014-0.019c0.011-0.011,0.023-0.016,0.037-0.016
		s0.026,0.005,0.036,0.015s0.015,0.025,0.015,0.046C14.718,165.814,14.715,165.882,14.712,165.947z"/>
	<path d="M15.572,165.941l-0.002,0.211c0,0.069,0.002,0.135,0.007,0.195c0.001,0.022-0.004,0.038-0.016,0.05
		c-0.012,0.01-0.025,0.016-0.038,0.016s-0.025-0.005-0.036-0.016c-0.011-0.01-0.015-0.025-0.013-0.045
		c0.002-0.021,0.004-0.045,0.006-0.071s0.003-0.055,0.004-0.083c0.002-0.058,0.004-0.104,0.004-0.143c0-0.037,0-0.064-0.002-0.081
		s-0.002-0.042-0.004-0.075c-0.001-0.034-0.01-0.065-0.026-0.096c-0.016-0.029-0.039-0.044-0.068-0.044s-0.055,0.006-0.076,0.019
		s-0.042,0.028-0.06,0.049c-0.037,0.044-0.062,0.095-0.074,0.152c0,0.019-0.001,0.036-0.001,0.054v0.051
		c0,0.118,0.001,0.196,0.004,0.233c0.002,0.039,0,0.064-0.007,0.076c-0.007,0.014-0.02,0.02-0.038,0.02s-0.032-0.006-0.042-0.018
		c-0.01-0.011-0.014-0.032-0.012-0.062c0.006-0.084,0.01-0.17,0.01-0.259c0-0.151-0.002-0.263-0.007-0.334
		c-0.002-0.044,0.016-0.065,0.055-0.065c0.02,0,0.033,0.006,0.039,0.019s0.007,0.025,0.006,0.039s-0.002,0.025-0.003,0.035
		s0,0.02,0,0.03s0,0.02,0,0.028c0.039-0.073,0.089-0.121,0.153-0.144c0.02-0.007,0.041-0.011,0.062-0.011s0.042,0.005,0.064,0.015
		c0.022,0.009,0.042,0.024,0.058,0.046C15.554,165.779,15.572,165.848,15.572,165.941z"/>
	<path d="M16.421,165.695c0.01,0.01,0.015,0.022,0.015,0.038c0,0.015-0.007,0.033-0.022,0.055c-0.015,0.021-0.033,0.043-0.054,0.066
		c-0.021,0.024-0.043,0.048-0.067,0.072c-0.02,0.021-0.039,0.04-0.055,0.059c0.027,0.083,0.075,0.173,0.143,0.27
		c0.019,0.026,0.034,0.048,0.044,0.066c0.01,0.018,0.016,0.032,0.016,0.045c0,0.012-0.006,0.023-0.018,0.035
		s-0.024,0.018-0.036,0.018c-0.029,0-0.048-0.014-0.059-0.039c-0.011-0.027-0.024-0.057-0.041-0.092
		c-0.016-0.033-0.033-0.067-0.05-0.101c-0.028-0.055-0.052-0.1-0.072-0.134c-0.018,0.017-0.037,0.035-0.058,0.054
		c-0.029,0.026-0.052,0.048-0.067,0.062c-0.004,0.004-0.008,0.008-0.012,0.011v0.002c0,0.017,0,0.034,0.001,0.053
		c0,0.02,0.001,0.039,0.002,0.059c0,0.019,0.001,0.037,0.001,0.057c0,0.018-0.005,0.033-0.017,0.044s-0.024,0.017-0.038,0.017
		s-0.025-0.005-0.036-0.015s-0.015-0.03-0.014-0.062c0.001-0.03,0.002-0.071,0.003-0.122s0.001-0.105,0.001-0.163
		c0.001-0.173,0.002-0.299,0.002-0.381c0-0.08,0-0.165-0.001-0.254s-0.001-0.174-0.003-0.256c-0.004-0.185-0.01-0.319-0.02-0.406
		c-0.002-0.021,0.003-0.036,0.015-0.047c0.012-0.01,0.026-0.015,0.041-0.015s0.029,0.005,0.042,0.015
		c0.013,0.011,0.019,0.028,0.018,0.053s-0.001,0.057-0.002,0.095s0,0.08,0,0.126c0.001,0.137,0.002,0.238,0.002,0.303
		c0,0.066,0,0.135,0,0.205c0,0.072-0.001,0.144-0.001,0.216c0,0.147,0,0.274,0.002,0.379c0.066-0.062,0.139-0.143,0.217-0.243
		c0.038-0.048,0.062-0.083,0.072-0.105c0.018-0.035,0.041-0.053,0.07-0.053C16.4,165.68,16.411,165.685,16.421,165.695z"/>
	<path d="M17.544,164.953l0.013-0.076c0-0.058-0.019-0.094-0.058-0.107c-0.012-0.004-0.025-0.006-0.043-0.006
		s-0.035,0.006-0.052,0.018s-0.031,0.034-0.043,0.066c-0.026,0.076-0.037,0.275-0.033,0.597c0.001,0.085,0.002,0.167,0.002,0.246
		l0.157-0.005c0.044,0,0.065,0.017,0.065,0.049c0,0.021-0.012,0.035-0.033,0.044c-0.008,0.003-0.02,0.003-0.037,0.002
		c-0.052-0.003-0.087-0.004-0.105-0.004c-0.018,0-0.033,0-0.047,0.001v0.175c0,0.188,0.002,0.302,0.007,0.34
		s0.005,0.062,0.003,0.074s-0.007,0.021-0.013,0.029c-0.012,0.017-0.025,0.025-0.04,0.025s-0.027-0.006-0.036-0.018
		s-0.014-0.028-0.013-0.05s0.001-0.052,0.002-0.091c0-0.038,0-0.085,0-0.139c0-0.055,0-0.116,0-0.184
		c0-0.05-0.001-0.103-0.002-0.157c-0.015,0.001-0.033,0.002-0.053,0.003c-0.021,0.001-0.037-0.003-0.047-0.014
		s-0.015-0.021-0.015-0.033s0.002-0.021,0.006-0.027c0.004-0.008,0.01-0.013,0.016-0.018c0.012-0.009,0.026-0.013,0.04-0.013
		l0.052,0.004c-0.001-0.142-0.002-0.275-0.002-0.403c0-0.14,0.004-0.244,0.011-0.314s0.02-0.128,0.038-0.172
		c0.035-0.084,0.097-0.126,0.188-0.126c0.084,0,0.141,0.048,0.17,0.143c0.01,0.031,0.015,0.065,0.015,0.103
		c0,0.036-0.006,0.062-0.018,0.076s-0.025,0.021-0.041,0.021C17.562,165.013,17.544,164.993,17.544,164.953z"/>
	<path d="M17.989,166.436c-0.037,0.001-0.072-0.007-0.104-0.023c-0.033-0.016-0.061-0.04-0.084-0.074
		c-0.052-0.071-0.077-0.174-0.077-0.306c0-0.118,0.027-0.212,0.083-0.28c0.052-0.065,0.121-0.098,0.207-0.098
		c0.072,0,0.132,0.031,0.18,0.094c0.049,0.066,0.073,0.157,0.073,0.273c0,0.129-0.028,0.231-0.085,0.309
		C18.131,166.4,18.067,166.435,17.989,166.436z M18.079,165.758c-0.021-0.016-0.047-0.023-0.076-0.023
		c-0.028,0-0.055,0.008-0.078,0.024c-0.024,0.016-0.044,0.038-0.061,0.066c-0.033,0.058-0.05,0.136-0.05,0.236
		c0,0.1,0.016,0.173,0.048,0.221s0.074,0.071,0.128,0.071c0.059,0,0.105-0.033,0.141-0.101c0.031-0.06,0.047-0.134,0.047-0.221
		C18.177,165.898,18.144,165.806,18.079,165.758z"/>
	<path d="M18.973,165.711c0,0.035-0.018,0.056-0.053,0.061c-0.043,0.009-0.092,0.045-0.146,0.11c-0.058,0.07-0.091,0.14-0.098,0.208
		c-0.003,0.03-0.004,0.058-0.004,0.082c0,0.06,0.003,0.121,0.008,0.187c0.001,0.021-0.004,0.038-0.016,0.049
		c-0.013,0.011-0.025,0.017-0.039,0.017c-0.015,0-0.026-0.005-0.037-0.015c-0.011-0.011-0.015-0.025-0.013-0.047
		c0.002-0.02,0.004-0.044,0.005-0.07c0.001-0.027,0.003-0.056,0.004-0.086c0.001-0.051,0.002-0.107,0.002-0.17
		c0-0.105-0.001-0.184-0.004-0.234c-0.003-0.052-0.002-0.081,0.001-0.089s0.008-0.014,0.013-0.019
		c0.011-0.011,0.023-0.016,0.037-0.016c0.013,0,0.025,0.005,0.035,0.015c0.012,0.01,0.016,0.022,0.016,0.038
		c-0.002,0.015-0.003,0.029-0.004,0.045c-0.002,0.014-0.004,0.032-0.006,0.054c-0.004,0.034-0.008,0.071-0.011,0.11
		c0.026-0.067,0.064-0.129,0.114-0.186c0.056-0.062,0.104-0.093,0.145-0.093c0.018,0,0.03,0.005,0.038,0.015
		S18.973,165.698,18.973,165.711z"/>
	<path d="M19.869,166.357c0.074-0.278,0.125-0.484,0.152-0.62c0.007-0.04,0.027-0.061,0.06-0.061c0.013,0,0.024,0.004,0.034,0.013
		s0.015,0.019,0.015,0.031c0,0.021-0.005,0.044-0.015,0.07s-0.023,0.067-0.039,0.124c-0.018,0.055-0.034,0.115-0.053,0.179
		c-0.018,0.063-0.035,0.13-0.055,0.198c-0.018,0.069-0.037,0.138-0.056,0.207c-0.074,0.269-0.12,0.412-0.138,0.431
		c-0.009,0.009-0.021,0.014-0.035,0.014c-0.016,0-0.029-0.005-0.039-0.013c-0.012-0.01-0.017-0.02-0.017-0.031
		c0-0.02,0.005-0.038,0.015-0.055s0.021-0.039,0.031-0.064c0.012-0.027,0.024-0.058,0.037-0.093
		c0.022-0.062,0.044-0.128,0.065-0.201c-0.016-0.05-0.031-0.104-0.048-0.162c-0.019-0.063-0.038-0.128-0.059-0.192
		c-0.048-0.157-0.082-0.257-0.102-0.299c-0.022-0.05-0.033-0.083-0.033-0.101s0.005-0.031,0.014-0.042
		c0.009-0.01,0.021-0.015,0.035-0.015c0.028,0,0.048,0.019,0.059,0.056c0.011,0.036,0.022,0.075,0.034,0.117
		c0.012,0.041,0.023,0.083,0.034,0.125c0.012,0.043,0.023,0.085,0.034,0.127s0.021,0.081,0.031,0.119
		c0.01,0.037,0.019,0.071,0.026,0.102C19.863,166.334,19.866,166.346,19.869,166.357z"/>
	<path d="M20.623,166.436c-0.037,0.001-0.072-0.007-0.104-0.023c-0.033-0.016-0.061-0.04-0.084-0.074
		c-0.052-0.071-0.077-0.174-0.077-0.306c0-0.118,0.027-0.212,0.083-0.28c0.052-0.065,0.121-0.098,0.207-0.098
		c0.072,0,0.132,0.031,0.18,0.094c0.049,0.066,0.073,0.157,0.073,0.273c0,0.129-0.028,0.231-0.085,0.309
		C20.766,166.4,20.702,166.435,20.623,166.436z M20.713,165.758c-0.021-0.016-0.047-0.023-0.076-0.023
		c-0.028,0-0.055,0.008-0.078,0.024c-0.024,0.016-0.044,0.038-0.061,0.066c-0.033,0.058-0.05,0.136-0.05,0.236
		c0,0.1,0.016,0.173,0.048,0.221s0.074,0.071,0.128,0.071c0.059,0,0.105-0.033,0.141-0.101c0.031-0.06,0.047-0.134,0.047-0.221
		C20.812,165.898,20.779,165.806,20.713,165.758z"/>
	<path d="M21.287,166.177c0,0.116,0.043,0.174,0.13,0.174c0.05,0,0.092-0.024,0.127-0.074c0.031-0.044,0.05-0.097,0.056-0.158
		c0.002-0.058,0.003-0.11,0.003-0.158c0-0.069-0.001-0.139-0.002-0.209c-0.001-0.021,0.004-0.038,0.017-0.049
		s0.025-0.017,0.038-0.017c0.014,0,0.025,0.005,0.036,0.015c0.011,0.011,0.015,0.025,0.012,0.045
		c-0.012,0.126-0.018,0.247-0.018,0.363c0,0.117,0.002,0.183,0.005,0.196s0.007,0.025,0.012,0.034
		c0.011,0.023,0.016,0.041,0.016,0.051c0,0.012-0.004,0.021-0.012,0.031c-0.009,0.009-0.02,0.014-0.034,0.014
		c-0.049,0-0.072-0.045-0.071-0.134c-0.022,0.04-0.043,0.068-0.062,0.084c-0.064,0.054-0.135,0.066-0.212,0.038
		c-0.086-0.032-0.129-0.117-0.129-0.255c0-0.071,0-0.143-0.002-0.212c0-0.069-0.001-0.138,0-0.205
		c0.001-0.021,0.007-0.037,0.018-0.049c0.012-0.01,0.024-0.016,0.037-0.016c0.014,0,0.026,0.005,0.037,0.015s0.016,0.026,0.012,0.05
		c-0.002,0.023-0.005,0.054-0.006,0.092c-0.002,0.038-0.003,0.076-0.004,0.116C21.288,166.025,21.287,166.097,21.287,166.177z"/>
	<path d="M7.982,167.889c0-0.022,0.005-0.04,0.017-0.051s0.023-0.017,0.036-0.017s0.025,0.006,0.035,0.017s0.014,0.028,0.012,0.051
		c-0.006,0.061-0.009,0.131-0.011,0.211c0.053,0,0.094-0.002,0.121-0.005s0.047-0.005,0.059-0.005
		c0.044-0.001,0.066,0.015,0.066,0.049c0,0.02-0.011,0.033-0.034,0.041c-0.008,0.003-0.017,0.004-0.027,0.003
		s-0.021-0.001-0.034-0.001c-0.012-0.001-0.024-0.001-0.036-0.001c-0.02,0-0.04,0-0.058,0s-0.035,0-0.049,0.001
		c-0.002,0-0.005,0-0.009,0c0,0.001,0,0.002,0,0.003c0,0.27,0.004,0.422,0.012,0.456s0.016,0.06,0.025,0.074
		c0.016,0.026,0.037,0.039,0.062,0.039c0.041,0,0.069-0.021,0.083-0.061c0.006-0.032,0.022-0.049,0.05-0.049
		c0.01,0,0.019,0.004,0.026,0.012c0.007,0.009,0.011,0.021,0.011,0.036s-0.005,0.032-0.015,0.051s-0.023,0.034-0.039,0.048
		c-0.036,0.03-0.076,0.045-0.12,0.045c-0.081,0-0.136-0.045-0.167-0.134c-0.011-0.032-0.017-0.072-0.017-0.12v-0.394
		c-0.014,0.001-0.029,0.002-0.045,0.003c-0.02,0.001-0.035-0.004-0.045-0.016c-0.01-0.01-0.015-0.021-0.015-0.033
		c0-0.013,0.005-0.023,0.016-0.033c0.01-0.009,0.026-0.014,0.047-0.014l0.043,0.001V167.889z"/>
	<path d="M8.807,168.837c-0.037,0.001-0.072-0.007-0.104-0.023c-0.032-0.016-0.06-0.04-0.083-0.074
		c-0.051-0.071-0.077-0.174-0.077-0.306c0-0.118,0.028-0.212,0.083-0.28c0.052-0.065,0.121-0.098,0.207-0.098
		c0.072,0,0.132,0.031,0.18,0.094c0.049,0.066,0.073,0.157,0.073,0.273c0,0.129-0.028,0.231-0.085,0.309
		C8.95,168.801,8.885,168.836,8.807,168.837z M8.897,168.158c-0.021-0.016-0.047-0.023-0.076-0.023s-0.055,0.008-0.079,0.024
		c-0.024,0.016-0.044,0.038-0.06,0.066c-0.033,0.058-0.05,0.136-0.05,0.236c0,0.1,0.016,0.173,0.048,0.221s0.075,0.071,0.128,0.071
		c0.059,0,0.105-0.033,0.141-0.101c0.031-0.06,0.047-0.134,0.047-0.221C8.996,168.299,8.963,168.207,8.897,168.158z"/>
	<path d="M9.991,167.78c0.004,0.011,0.006,0.023,0.005,0.037c-0.001,0.016-0.004,0.027-0.01,0.038s-0.013,0.019-0.021,0.025
		c-0.015,0.012-0.03,0.018-0.046,0.018s-0.028-0.002-0.037-0.005c-0.009-0.004-0.017-0.009-0.024-0.016
		c-0.017-0.016-0.025-0.036-0.025-0.062s0.006-0.044,0.02-0.055c0.021-0.019,0.043-0.028,0.064-0.028
		C9.952,167.733,9.977,167.749,9.991,167.78z M9.95,168.347c-0.003,0.065-0.005,0.125-0.005,0.178s0.001,0.107,0.005,0.163
		c0.003,0.057,0.003,0.089,0,0.098c-0.003,0.008-0.007,0.015-0.012,0.02c-0.011,0.011-0.023,0.017-0.036,0.017
		s-0.025-0.005-0.037-0.015s-0.016-0.029-0.013-0.06c0.007-0.083,0.011-0.166,0.011-0.251s-0.001-0.153-0.003-0.205
		c-0.002-0.053-0.004-0.093-0.005-0.119s0-0.044,0.003-0.052s0.008-0.014,0.014-0.019c0.011-0.011,0.023-0.016,0.037-0.016
		s0.026,0.005,0.036,0.015s0.015,0.025,0.015,0.046C9.956,168.215,9.953,168.282,9.95,168.347z"/>
	<path d="M10.417,168.438v0.069c0,0.033,0.002,0.114,0.007,0.243c0,0.03-0.013,0.05-0.038,0.061
		c-0.007,0.003-0.015,0.004-0.024,0.004s-0.018-0.005-0.027-0.015s-0.013-0.029-0.013-0.06s0.001-0.062,0.002-0.094
		c0.001-0.033,0.002-0.064,0.003-0.094c0.002-0.069,0.003-0.124,0.003-0.164c0-0.063-0.002-0.143-0.008-0.236
		c-0.001-0.021,0.003-0.036,0.014-0.049s0.023-0.019,0.037-0.019s0.027,0.006,0.04,0.019c0.012,0.012,0.018,0.024,0.017,0.038
		s-0.002,0.025-0.003,0.036c0,0.01-0.001,0.021-0.002,0.031c0,0.005,0,0.01-0.001,0.015c0.038-0.069,0.083-0.114,0.137-0.135
		c0.019-0.007,0.039-0.011,0.06-0.011s0.041,0.005,0.059,0.014c0.019,0.01,0.035,0.023,0.048,0.04
		c0.02,0.023,0.034,0.054,0.042,0.091c0.053-0.097,0.119-0.145,0.195-0.145c0.078,0,0.129,0.048,0.154,0.145
		c0.009,0.034,0.014,0.076,0.014,0.126v0.119c0,0.114,0.003,0.208,0.009,0.282c0.001,0.021-0.004,0.037-0.015,0.048
		s-0.022,0.017-0.032,0.017s-0.019-0.001-0.025-0.004s-0.013-0.007-0.018-0.012c-0.013-0.012-0.019-0.027-0.017-0.045
		c0.002-0.02,0.003-0.04,0.005-0.064c0.001-0.023,0.002-0.048,0.003-0.074c0.002-0.062,0.004-0.109,0.004-0.144s0-0.06,0.001-0.079
		c0-0.018,0-0.046,0-0.083s-0.01-0.069-0.026-0.099c-0.017-0.027-0.038-0.042-0.064-0.042s-0.049,0.006-0.068,0.018
		s-0.035,0.027-0.049,0.048c-0.029,0.042-0.046,0.095-0.053,0.158v0.068c0,0.112,0.002,0.208,0.007,0.289
		c0,0.021-0.005,0.037-0.018,0.048s-0.025,0.017-0.039,0.017s-0.025-0.005-0.037-0.015s-0.016-0.024-0.014-0.045
		s0.003-0.043,0.005-0.067s0.002-0.051,0.003-0.078c0.002-0.062,0.004-0.11,0.004-0.145v-0.08c0-0.019,0-0.036-0.002-0.053
		c-0.001-0.054-0.011-0.095-0.028-0.122s-0.04-0.041-0.067-0.041s-0.05,0.007-0.07,0.021c-0.02,0.013-0.037,0.03-0.052,0.052
		c-0.029,0.041-0.049,0.093-0.061,0.155C10.417,168.412,10.417,168.426,10.417,168.438z"/>
	<path d="M11.467,168.779l0.009-0.845v-0.127c0-0.041,0-0.081-0.001-0.12s-0.001-0.078-0.002-0.117s-0.001-0.079-0.003-0.121
		c-0.004-0.091-0.007-0.163-0.011-0.218c-0.003-0.056-0.003-0.088,0-0.097s0.008-0.017,0.014-0.021
		c0.009-0.009,0.023-0.014,0.041-0.014c0.032,0,0.048,0.027,0.048,0.081l-0.005,0.409v0.196c0,0.04,0,0.082,0,0.126s0,0.089,0,0.133
		c0,0.093,0.001,0.161,0.001,0.205c0.02-0.051,0.049-0.094,0.087-0.13c0.047-0.046,0.097-0.069,0.149-0.069
		c0.099,0,0.164,0.051,0.194,0.151c0.01,0.032,0.015,0.072,0.015,0.117c0,0.047-0.007,0.092-0.02,0.138s-0.031,0.087-0.054,0.126
		c-0.023,0.037-0.049,0.072-0.08,0.102c-0.031,0.031-0.063,0.057-0.097,0.078c-0.084,0.054-0.164,0.078-0.238,0.073
		C11.483,168.833,11.467,168.814,11.467,168.779z M11.635,168.242c-0.021,0.026-0.039,0.055-0.052,0.085s-0.021,0.059-0.022,0.086
		c-0.001,0.025-0.003,0.049-0.003,0.068c0,0.019-0.001,0.035-0.001,0.048s0,0.023,0,0.032v0.022c0,0.017,0.001,0.074,0.004,0.173
		c0.029,0.001,0.061-0.007,0.095-0.025c0.042-0.022,0.078-0.045,0.106-0.068s0.054-0.052,0.077-0.085
		c0.052-0.076,0.078-0.162,0.078-0.259c0-0.058-0.011-0.1-0.033-0.127s-0.05-0.041-0.083-0.041s-0.063,0.009-0.091,0.025
		C11.68,168.194,11.656,168.216,11.635,168.242z"/>
	<path d="M12.446,167.78c0.004,0.011,0.006,0.023,0.005,0.037c-0.001,0.016-0.004,0.027-0.01,0.038s-0.013,0.019-0.021,0.025
		c-0.015,0.012-0.03,0.018-0.046,0.018s-0.028-0.002-0.037-0.005c-0.009-0.004-0.017-0.009-0.024-0.016
		c-0.017-0.016-0.025-0.036-0.025-0.062s0.006-0.044,0.02-0.055c0.021-0.019,0.043-0.028,0.064-0.028
		C12.407,167.733,12.432,167.749,12.446,167.78z M12.405,168.347c-0.003,0.065-0.005,0.125-0.005,0.178s0.001,0.107,0.005,0.163
		c0.003,0.057,0.003,0.089,0,0.098c-0.003,0.008-0.007,0.015-0.012,0.02c-0.011,0.011-0.023,0.017-0.036,0.017
		s-0.025-0.005-0.037-0.015s-0.016-0.029-0.013-0.06c0.007-0.083,0.011-0.166,0.011-0.251s-0.001-0.153-0.003-0.205
		c-0.002-0.053-0.004-0.093-0.005-0.119s0-0.044,0.003-0.052s0.008-0.014,0.014-0.019c0.011-0.011,0.023-0.016,0.037-0.016
		s0.026,0.005,0.036,0.015s0.015,0.025,0.015,0.046C12.411,168.215,12.408,168.282,12.405,168.347z"/>
	<path d="M12.764,168.779l0.009-0.845v-0.127c0-0.041,0-0.081-0.001-0.12s-0.001-0.078-0.002-0.117s-0.001-0.079-0.003-0.121
		c-0.004-0.091-0.007-0.163-0.011-0.218c-0.003-0.056-0.003-0.088,0-0.097s0.008-0.017,0.014-0.021
		c0.009-0.009,0.023-0.014,0.041-0.014c0.032,0,0.048,0.027,0.048,0.081l-0.005,0.409v0.196c0,0.04,0,0.082,0,0.126s0,0.089,0,0.133
		c0,0.093,0.001,0.161,0.001,0.205c0.02-0.051,0.049-0.094,0.087-0.13c0.047-0.046,0.097-0.069,0.149-0.069
		c0.099,0,0.164,0.051,0.194,0.151c0.01,0.032,0.015,0.072,0.015,0.117c0,0.047-0.007,0.092-0.02,0.138s-0.031,0.087-0.054,0.126
		c-0.023,0.037-0.049,0.072-0.08,0.102c-0.031,0.031-0.063,0.057-0.097,0.078c-0.084,0.054-0.164,0.078-0.238,0.073
		C12.78,168.833,12.764,168.814,12.764,168.779z M12.931,168.242c-0.021,0.026-0.039,0.055-0.052,0.085s-0.021,0.059-0.022,0.086
		c-0.001,0.025-0.003,0.049-0.003,0.068c0,0.019-0.001,0.035-0.001,0.048s0,0.023,0,0.032v0.022c0,0.017,0.001,0.074,0.004,0.173
		c0.029,0.001,0.061-0.007,0.095-0.025c0.042-0.022,0.078-0.045,0.106-0.068s0.054-0.052,0.077-0.085
		c0.052-0.076,0.078-0.162,0.078-0.259c0-0.058-0.011-0.1-0.033-0.127s-0.05-0.041-0.083-0.041s-0.063,0.009-0.091,0.025
		C12.977,168.194,12.952,168.216,12.931,168.242z"/>
	<path d="M13.641,168.478c0.001,0.09,0.018,0.158,0.049,0.206c0.034,0.051,0.082,0.076,0.144,0.076c0.057,0,0.098-0.028,0.124-0.084
		c0.016-0.036,0.037-0.055,0.061-0.055c0.011,0,0.021,0.004,0.028,0.011s0.011,0.02,0.01,0.038c0,0.018-0.007,0.037-0.019,0.058
		s-0.029,0.039-0.05,0.056c-0.047,0.036-0.103,0.055-0.169,0.055c-0.071,0-0.132-0.03-0.184-0.091
		c-0.054-0.063-0.081-0.14-0.081-0.228s0.008-0.159,0.023-0.215c0.015-0.055,0.036-0.101,0.061-0.137
		c0.049-0.073,0.111-0.11,0.186-0.11c0.095,0,0.162,0.037,0.2,0.112c0.027,0.052,0.041,0.129,0.043,0.229
		c0,0.028-0.004,0.048-0.014,0.058s-0.03,0.015-0.06,0.015L13.641,168.478z M13.976,168.393c0.001-0.113-0.022-0.19-0.071-0.232
		c-0.02-0.018-0.043-0.026-0.071-0.026s-0.051,0.005-0.069,0.016s-0.034,0.024-0.048,0.042s-0.026,0.037-0.035,0.061
		c-0.009,0.021-0.017,0.045-0.023,0.068c-0.006,0.024-0.01,0.049-0.013,0.073l0.134,0.006
		C13.866,168.4,13.932,168.398,13.976,168.393z"/>
	<path d="M14.526,168.7c0.008,0.006,0.015,0.015,0.021,0.025s0.008,0.023,0.008,0.038s-0.003,0.028-0.009,0.038
		c-0.006,0.012-0.013,0.02-0.022,0.026c-0.018,0.012-0.039,0.018-0.062,0.018c-0.035,0-0.059-0.016-0.074-0.047
		c-0.004-0.011-0.007-0.022-0.007-0.036c0-0.039,0.019-0.065,0.057-0.078c0.01-0.003,0.021-0.005,0.031-0.005
		s0.021,0.002,0.031,0.005S14.518,168.692,14.526,168.7z"/>
	<path d="M15.869,168.342l-0.002,0.211c0,0.069,0.002,0.135,0.007,0.195c0.001,0.022-0.004,0.038-0.016,0.05
		c-0.012,0.01-0.025,0.016-0.038,0.016s-0.025-0.005-0.036-0.016c-0.011-0.01-0.015-0.025-0.013-0.045
		c0.002-0.021,0.004-0.045,0.006-0.071s0.003-0.055,0.004-0.083c0.002-0.058,0.004-0.104,0.004-0.143c0-0.037,0-0.064-0.002-0.081
		s-0.002-0.042-0.004-0.075c-0.001-0.034-0.01-0.065-0.026-0.096c-0.016-0.029-0.039-0.044-0.068-0.044s-0.055,0.006-0.076,0.019
		s-0.042,0.028-0.06,0.049c-0.037,0.044-0.062,0.095-0.074,0.152c0,0.019-0.001,0.036-0.001,0.054v0.051
		c0,0.118,0.001,0.196,0.004,0.233c0.002,0.039,0,0.064-0.007,0.076c-0.007,0.014-0.02,0.02-0.038,0.02s-0.032-0.006-0.042-0.018
		c-0.01-0.011-0.014-0.032-0.012-0.062c0.006-0.084,0.01-0.17,0.01-0.259c0-0.151-0.002-0.263-0.007-0.334
		c-0.002-0.044,0.016-0.065,0.055-0.065c0.02,0,0.033,0.006,0.039,0.019s0.007,0.025,0.006,0.039s-0.002,0.025-0.003,0.035
		s0,0.02,0,0.03s0,0.02,0,0.028c0.039-0.073,0.089-0.121,0.153-0.144c0.02-0.007,0.041-0.011,0.062-0.011s0.042,0.005,0.064,0.015
		c0.022,0.009,0.042,0.024,0.058,0.046C15.851,168.18,15.869,168.249,15.869,168.342z"/>
	<path d="M16.428,168.837c-0.037,0.001-0.072-0.007-0.104-0.023c-0.032-0.016-0.06-0.04-0.083-0.074
		c-0.051-0.071-0.077-0.174-0.077-0.306c0-0.118,0.028-0.212,0.083-0.28c0.052-0.065,0.121-0.098,0.207-0.098
		c0.072,0,0.132,0.031,0.18,0.094c0.049,0.066,0.073,0.157,0.073,0.273c0,0.129-0.028,0.231-0.085,0.309
		C16.57,168.801,16.506,168.836,16.428,168.837z M16.518,168.158c-0.021-0.016-0.047-0.023-0.076-0.023s-0.055,0.008-0.079,0.024
		c-0.024,0.016-0.044,0.038-0.06,0.066c-0.033,0.058-0.05,0.136-0.05,0.236c0,0.1,0.016,0.173,0.048,0.221s0.075,0.071,0.128,0.071
		c0.059,0,0.105-0.033,0.141-0.101c0.031-0.06,0.047-0.134,0.047-0.221C16.616,168.299,16.583,168.207,16.518,168.158z"/>
	<path d="M17.024,167.889c0-0.022,0.005-0.04,0.017-0.051s0.023-0.017,0.036-0.017s0.025,0.006,0.035,0.017s0.014,0.028,0.012,0.051
		c-0.006,0.061-0.009,0.131-0.011,0.211c0.053,0,0.094-0.002,0.121-0.005s0.047-0.005,0.059-0.005
		c0.044-0.001,0.066,0.015,0.066,0.049c0,0.02-0.011,0.033-0.034,0.041c-0.008,0.003-0.017,0.004-0.027,0.003
		s-0.021-0.001-0.034-0.001c-0.012-0.001-0.024-0.001-0.036-0.001c-0.02,0-0.04,0-0.058,0s-0.035,0-0.049,0.001
		c-0.002,0-0.005,0-0.009,0c0,0.001,0,0.002,0,0.003c0,0.27,0.004,0.422,0.012,0.456s0.016,0.06,0.025,0.074
		c0.016,0.026,0.037,0.039,0.062,0.039c0.041,0,0.069-0.021,0.083-0.061c0.006-0.032,0.022-0.049,0.05-0.049
		c0.01,0,0.019,0.004,0.026,0.012c0.007,0.009,0.011,0.021,0.011,0.036s-0.005,0.032-0.015,0.051s-0.023,0.034-0.039,0.048
		c-0.036,0.03-0.076,0.045-0.12,0.045c-0.081,0-0.136-0.045-0.167-0.134c-0.011-0.032-0.017-0.072-0.017-0.12v-0.394
		c-0.014,0.001-0.029,0.002-0.045,0.003c-0.02,0.001-0.035-0.004-0.045-0.016c-0.01-0.01-0.015-0.021-0.015-0.033
		c0-0.013,0.005-0.023,0.016-0.033c0.01-0.009,0.026-0.014,0.047-0.014l0.043,0.001V167.889z"/>
	<path d="M18.105,167.889c0-0.022,0.006-0.04,0.017-0.051s0.023-0.017,0.036-0.017s0.024,0.006,0.035,0.017s0.015,0.028,0.012,0.051
		c-0.006,0.061-0.01,0.131-0.011,0.211c0.054,0,0.094-0.002,0.121-0.005s0.047-0.005,0.059-0.005
		c0.044-0.001,0.066,0.015,0.066,0.049c0,0.02-0.012,0.033-0.034,0.041c-0.008,0.003-0.017,0.004-0.027,0.003
		s-0.021-0.001-0.034-0.001c-0.012-0.001-0.023-0.001-0.035-0.001c-0.021,0-0.039,0-0.059,0c-0.018,0-0.034,0-0.049,0.001
		c-0.003,0-0.006,0-0.009,0c0,0.001,0,0.002,0,0.003c0,0.27,0.004,0.422,0.012,0.456s0.017,0.06,0.025,0.074
		c0.017,0.026,0.037,0.039,0.062,0.039c0.041,0,0.068-0.021,0.083-0.061c0.006-0.032,0.022-0.049,0.05-0.049
		c0.01,0,0.019,0.004,0.026,0.012c0.007,0.009,0.011,0.021,0.011,0.036s-0.005,0.032-0.015,0.051s-0.022,0.034-0.039,0.048
		c-0.036,0.03-0.076,0.045-0.12,0.045c-0.081,0-0.137-0.045-0.167-0.134c-0.011-0.032-0.017-0.072-0.017-0.12v-0.394
		c-0.014,0.001-0.028,0.002-0.045,0.003c-0.021,0.001-0.035-0.004-0.046-0.016c-0.01-0.01-0.015-0.021-0.015-0.033
		c0-0.013,0.005-0.023,0.016-0.033c0.011-0.009,0.026-0.014,0.047-0.014l0.043,0.001V167.889z"/>
	<path d="M18.93,168.837c-0.037,0.001-0.072-0.007-0.104-0.023c-0.033-0.016-0.061-0.04-0.084-0.074
		c-0.052-0.071-0.077-0.174-0.077-0.306c0-0.118,0.027-0.212,0.083-0.28c0.052-0.065,0.121-0.098,0.207-0.098
		c0.072,0,0.132,0.031,0.18,0.094c0.049,0.066,0.073,0.157,0.073,0.273c0,0.129-0.028,0.231-0.085,0.309
		C19.073,168.801,19.008,168.836,18.93,168.837z M19.02,168.158c-0.021-0.016-0.047-0.023-0.076-0.023
		c-0.028,0-0.055,0.008-0.078,0.024c-0.024,0.016-0.044,0.038-0.061,0.066c-0.033,0.058-0.05,0.136-0.05,0.236
		c0,0.1,0.016,0.173,0.048,0.221s0.074,0.071,0.128,0.071c0.059,0,0.105-0.033,0.141-0.101c0.031-0.06,0.047-0.134,0.047-0.221
		C19.119,168.299,19.085,168.207,19.02,168.158z"/>
	<path d="M19.727,168.837c-0.037,0.001-0.072-0.007-0.104-0.023c-0.033-0.016-0.061-0.04-0.084-0.074
		c-0.052-0.071-0.077-0.174-0.077-0.306c0-0.118,0.027-0.212,0.083-0.28c0.052-0.065,0.121-0.098,0.207-0.098
		c0.072,0,0.132,0.031,0.18,0.094c0.049,0.066,0.073,0.157,0.073,0.273c0,0.129-0.028,0.231-0.085,0.309
		C19.87,168.801,19.805,168.836,19.727,168.837z M19.817,168.158c-0.021-0.016-0.047-0.023-0.076-0.023
		c-0.028,0-0.055,0.008-0.078,0.024c-0.024,0.016-0.044,0.038-0.061,0.066c-0.033,0.058-0.05,0.136-0.05,0.236
		c0,0.1,0.016,0.173,0.048,0.221s0.074,0.071,0.128,0.071c0.059,0,0.105-0.033,0.141-0.101c0.031-0.06,0.047-0.134,0.047-0.221
		C19.915,168.299,19.882,168.207,19.817,168.158z"/>
	<path d="M21.166,168.111c0,0.035-0.018,0.056-0.053,0.061c-0.043,0.009-0.092,0.045-0.146,0.11c-0.058,0.07-0.091,0.14-0.098,0.208
		c-0.003,0.03-0.004,0.058-0.004,0.082c0,0.06,0.003,0.121,0.008,0.187c0.001,0.021-0.004,0.038-0.016,0.049
		c-0.013,0.011-0.025,0.017-0.039,0.017c-0.015,0-0.026-0.005-0.037-0.015c-0.011-0.011-0.015-0.025-0.013-0.047
		c0.002-0.02,0.004-0.044,0.005-0.07c0.001-0.027,0.003-0.056,0.004-0.086c0.001-0.051,0.002-0.107,0.002-0.17
		c0-0.105-0.001-0.184-0.004-0.234c-0.003-0.052-0.002-0.081,0.001-0.089s0.008-0.014,0.013-0.019
		c0.011-0.011,0.023-0.016,0.037-0.016c0.013,0,0.025,0.005,0.035,0.015c0.012,0.01,0.016,0.022,0.016,0.038
		c-0.002,0.015-0.003,0.029-0.004,0.045c-0.002,0.014-0.004,0.032-0.006,0.054c-0.004,0.034-0.008,0.071-0.011,0.11
		c0.026-0.067,0.064-0.129,0.114-0.186c0.056-0.062,0.104-0.093,0.145-0.093c0.018,0,0.03,0.005,0.038,0.015
		S21.166,168.098,21.166,168.111z"/>
	<path d="M21.427,168.478c0.001,0.09,0.018,0.158,0.049,0.206c0.034,0.051,0.082,0.076,0.144,0.076c0.057,0,0.098-0.028,0.124-0.084
		c0.017-0.036,0.036-0.055,0.061-0.055c0.011,0,0.021,0.004,0.027,0.011c0.008,0.007,0.012,0.02,0.011,0.038
		c-0.001,0.018-0.007,0.037-0.019,0.058c-0.013,0.021-0.029,0.039-0.051,0.056c-0.047,0.036-0.104,0.055-0.169,0.055
		c-0.071,0-0.132-0.03-0.184-0.091c-0.054-0.063-0.081-0.14-0.081-0.228s0.008-0.159,0.023-0.215
		c0.015-0.055,0.035-0.101,0.061-0.137c0.05-0.073,0.111-0.11,0.186-0.11c0.095,0,0.162,0.037,0.2,0.112
		c0.026,0.052,0.041,0.129,0.043,0.229c0.001,0.028-0.004,0.048-0.014,0.058s-0.029,0.015-0.06,0.015L21.427,168.478z
		 M21.762,168.393c0.001-0.113-0.022-0.19-0.071-0.232c-0.02-0.018-0.043-0.026-0.071-0.026s-0.051,0.005-0.069,0.016
		s-0.034,0.024-0.049,0.042c-0.014,0.018-0.025,0.037-0.035,0.061c-0.009,0.021-0.017,0.045-0.022,0.068
		c-0.006,0.024-0.01,0.049-0.013,0.073l0.134,0.006C21.652,168.4,21.718,168.398,21.762,168.393z"/>
	<path d="M22.612,167.409c0,0.049-0.001,0.101-0.002,0.154c0,0.055,0,0.172,0,0.35c0,0.18,0.004,0.353,0.01,0.52
		c0.008,0.168,0.012,0.26,0.016,0.274c0.002,0.015,0.006,0.027,0.01,0.038c0.003,0.011,0.006,0.019,0.01,0.025
		c0.002,0.007,0.004,0.015,0.004,0.023s-0.004,0.018-0.012,0.025c-0.009,0.007-0.018,0.011-0.027,0.011
		c-0.042,0-0.064-0.042-0.066-0.126c0-0.002,0-0.004,0-0.005c-0.043,0.092-0.107,0.138-0.193,0.138c-0.074,0-0.134-0.03-0.18-0.092
		c-0.049-0.065-0.073-0.158-0.073-0.276c0-0.124,0.032-0.226,0.097-0.304c0.059-0.071,0.128-0.107,0.208-0.107
		c0.045,0,0.083,0.008,0.115,0.024c-0.001-0.047-0.001-0.096-0.001-0.146c-0.001-0.062-0.001-0.125-0.002-0.188
		c-0.001-0.062-0.002-0.122-0.002-0.181c-0.002-0.059-0.002-0.113-0.003-0.165c-0.001-0.107-0.003-0.18-0.005-0.217
		s0.003-0.061,0.015-0.07c0.012-0.011,0.024-0.016,0.04-0.016c0.014,0,0.027,0.005,0.039,0.016c0.013,0.01,0.018,0.028,0.016,0.055
		c-0.003,0.026-0.005,0.061-0.007,0.103S22.614,167.36,22.612,167.409z M22.533,168.386l-0.001-0.206
		c-0.038-0.024-0.073-0.036-0.107-0.036c-0.033,0-0.062,0.007-0.088,0.02c-0.024,0.014-0.047,0.034-0.067,0.061
		c-0.046,0.06-0.068,0.138-0.068,0.235c0,0.138,0.031,0.228,0.095,0.271c0.021,0.015,0.045,0.021,0.071,0.021
		s0.05-0.006,0.068-0.017s0.035-0.024,0.048-0.041c0.023-0.03,0.039-0.065,0.048-0.106
		C22.532,168.534,22.533,168.467,22.533,168.386z"/>
	<path d="M23.167,168.768c0,0.075-0.024,0.144-0.074,0.205c-0.038,0.046-0.067,0.059-0.087,0.038
		c-0.005-0.005-0.007-0.012-0.007-0.019c0-0.013,0.007-0.028,0.021-0.045c0.034-0.043,0.053-0.088,0.054-0.135
		c-0.016,0.007-0.031,0.005-0.047-0.005c-0.03-0.018-0.045-0.039-0.045-0.065c0-0.025,0.009-0.046,0.025-0.062
		s0.035-0.023,0.056-0.023c0.02,0,0.035,0.003,0.046,0.009c0.011,0.005,0.021,0.013,0.03,0.023
		C23.158,168.712,23.167,168.738,23.167,168.768z"/>
	<path d="M10.281,170.741l-0.002,0.211c0,0.069,0.002,0.135,0.007,0.195c0.001,0.022-0.004,0.038-0.016,0.05
		c-0.012,0.01-0.025,0.016-0.038,0.016s-0.025-0.005-0.036-0.016c-0.011-0.01-0.015-0.025-0.013-0.045
		c0.002-0.021,0.004-0.045,0.006-0.071s0.003-0.055,0.004-0.083c0.002-0.058,0.004-0.104,0.004-0.143c0-0.037,0-0.064-0.002-0.081
		s-0.002-0.042-0.004-0.075c-0.001-0.034-0.01-0.065-0.026-0.096c-0.016-0.029-0.039-0.044-0.068-0.044s-0.055,0.006-0.076,0.019
		s-0.042,0.028-0.06,0.049c-0.037,0.044-0.062,0.095-0.074,0.152c0,0.019-0.001,0.036-0.001,0.054v0.051
		c0,0.118,0.001,0.196,0.004,0.233c0.002,0.039,0,0.064-0.007,0.076c-0.007,0.014-0.02,0.02-0.038,0.02s-0.032-0.006-0.042-0.018
		c-0.01-0.011-0.014-0.032-0.012-0.062c0.006-0.084,0.01-0.17,0.01-0.259c0-0.151-0.002-0.263-0.007-0.334
		c-0.002-0.044,0.016-0.065,0.055-0.065c0.02,0,0.033,0.006,0.039,0.019s0.007,0.025,0.006,0.039s-0.002,0.025-0.003,0.035
		s0,0.02,0,0.03s0,0.02,0,0.028c0.039-0.073,0.089-0.121,0.153-0.144c0.02-0.007,0.041-0.011,0.062-0.011s0.042,0.005,0.064,0.015
		c0.022,0.009,0.042,0.024,0.058,0.046C10.263,170.579,10.281,170.648,10.281,170.741z"/>
	<path d="M10.84,171.236c-0.037,0.001-0.072-0.007-0.104-0.023c-0.032-0.016-0.06-0.04-0.083-0.074
		c-0.051-0.071-0.077-0.174-0.077-0.306c0-0.118,0.028-0.212,0.083-0.28c0.052-0.065,0.121-0.098,0.207-0.098
		c0.072,0,0.132,0.031,0.18,0.094c0.049,0.066,0.073,0.157,0.073,0.273c0,0.129-0.028,0.231-0.085,0.309
		C10.983,171.2,10.918,171.235,10.84,171.236z M10.93,170.557c-0.021-0.016-0.047-0.023-0.076-0.023s-0.055,0.008-0.079,0.024
		c-0.024,0.016-0.044,0.038-0.06,0.066c-0.033,0.058-0.05,0.136-0.05,0.236c0,0.1,0.016,0.173,0.048,0.221s0.075,0.071,0.128,0.071
		c0.059,0,0.105-0.033,0.141-0.101c0.031-0.06,0.047-0.134,0.047-0.221C11.029,170.698,10.996,170.606,10.93,170.557z"/>
	<path d="M11.436,170.289c0-0.022,0.005-0.04,0.017-0.051s0.023-0.017,0.036-0.017s0.025,0.006,0.035,0.017s0.014,0.028,0.012,0.051
		c-0.006,0.061-0.009,0.131-0.011,0.211c0.053,0,0.094-0.002,0.121-0.005s0.047-0.005,0.059-0.005
		c0.044-0.001,0.066,0.015,0.066,0.049c0,0.02-0.011,0.033-0.034,0.041c-0.008,0.003-0.017,0.004-0.027,0.003
		s-0.021-0.001-0.034-0.001c-0.012-0.001-0.024-0.001-0.036-0.001c-0.02,0-0.04,0-0.058,0s-0.035,0-0.049,0.001
		c-0.002,0-0.005,0-0.009,0c0,0.001,0,0.002,0,0.003c0,0.27,0.004,0.422,0.012,0.456s0.016,0.06,0.025,0.074
		c0.016,0.026,0.037,0.039,0.062,0.039c0.041,0,0.069-0.021,0.083-0.061c0.006-0.032,0.022-0.049,0.05-0.049
		c0.01,0,0.019,0.004,0.026,0.012c0.007,0.009,0.011,0.021,0.011,0.036s-0.005,0.032-0.015,0.051s-0.023,0.034-0.039,0.048
		c-0.036,0.03-0.076,0.045-0.12,0.045c-0.081,0-0.136-0.045-0.167-0.134c-0.011-0.032-0.017-0.072-0.017-0.12v-0.394
		c-0.014,0.001-0.029,0.002-0.045,0.003c-0.02,0.001-0.035-0.004-0.045-0.016c-0.01-0.01-0.015-0.021-0.015-0.033
		c0-0.013,0.005-0.023,0.016-0.033c0.01-0.009,0.026-0.014,0.047-0.014l0.043,0.001V170.289z"/>
	<path d="M12.517,170.289c0-0.022,0.005-0.04,0.017-0.051s0.023-0.017,0.036-0.017s0.025,0.006,0.035,0.017s0.014,0.028,0.012,0.051
		c-0.006,0.061-0.009,0.131-0.011,0.211c0.053,0,0.094-0.002,0.121-0.005s0.047-0.005,0.059-0.005
		c0.044-0.001,0.066,0.015,0.066,0.049c0,0.02-0.011,0.033-0.034,0.041c-0.008,0.003-0.017,0.004-0.027,0.003
		s-0.021-0.001-0.034-0.001c-0.012-0.001-0.024-0.001-0.036-0.001c-0.02,0-0.04,0-0.058,0s-0.035,0-0.049,0.001
		c-0.002,0-0.005,0-0.009,0c0,0.001,0,0.002,0,0.003c0,0.27,0.004,0.422,0.012,0.456s0.016,0.06,0.025,0.074
		c0.016,0.026,0.037,0.039,0.062,0.039c0.041,0,0.069-0.021,0.083-0.061c0.006-0.032,0.022-0.049,0.05-0.049
		c0.01,0,0.019,0.004,0.026,0.012c0.007,0.009,0.011,0.021,0.011,0.036s-0.005,0.032-0.015,0.051s-0.023,0.034-0.039,0.048
		c-0.036,0.03-0.076,0.045-0.12,0.045c-0.081,0-0.136-0.045-0.167-0.134c-0.011-0.032-0.017-0.072-0.017-0.12v-0.394
		c-0.014,0.001-0.029,0.002-0.045,0.003c-0.02,0.001-0.035-0.004-0.045-0.016c-0.01-0.01-0.015-0.021-0.015-0.033
		c0-0.013,0.005-0.023,0.016-0.033c0.01-0.009,0.026-0.014,0.047-0.014l0.043,0.001V170.289z"/>
	<path d="M13.343,171.236c-0.037,0.001-0.072-0.007-0.104-0.023c-0.032-0.016-0.06-0.04-0.083-0.074
		c-0.051-0.071-0.077-0.174-0.077-0.306c0-0.118,0.028-0.212,0.083-0.28c0.052-0.065,0.121-0.098,0.207-0.098
		c0.072,0,0.132,0.031,0.18,0.094c0.049,0.066,0.073,0.157,0.073,0.273c0,0.129-0.028,0.231-0.085,0.309
		C13.485,171.2,13.421,171.235,13.343,171.236z M13.433,170.557c-0.021-0.016-0.047-0.023-0.076-0.023s-0.055,0.008-0.079,0.024
		c-0.024,0.016-0.044,0.038-0.06,0.066c-0.033,0.058-0.05,0.136-0.05,0.236c0,0.1,0.016,0.173,0.048,0.221s0.075,0.071,0.128,0.071
		c0.059,0,0.105-0.033,0.141-0.101c0.031-0.06,0.047-0.134,0.047-0.221C13.531,170.698,13.498,170.606,13.433,170.557z"/>
	<path d="M14.139,171.236c-0.037,0.001-0.072-0.007-0.104-0.023c-0.032-0.016-0.06-0.04-0.083-0.074
		c-0.051-0.071-0.077-0.174-0.077-0.306c0-0.118,0.028-0.212,0.083-0.28c0.052-0.065,0.121-0.098,0.207-0.098
		c0.072,0,0.132,0.031,0.18,0.094c0.049,0.066,0.073,0.157,0.073,0.273c0,0.129-0.028,0.231-0.085,0.309
		C14.282,171.2,14.217,171.235,14.139,171.236z M14.229,170.557c-0.021-0.016-0.047-0.023-0.076-0.023s-0.055,0.008-0.079,0.024
		c-0.024,0.016-0.044,0.038-0.06,0.066c-0.033,0.058-0.05,0.136-0.05,0.236c0,0.1,0.016,0.173,0.048,0.221s0.075,0.071,0.128,0.071
		c0.059,0,0.105-0.033,0.141-0.101c0.031-0.06,0.047-0.134,0.047-0.221C14.328,170.698,14.295,170.606,14.229,170.557z"/>
	<path d="M15.725,171.076c0.004-0.017,0.009-0.033,0.014-0.051c0.012-0.044,0.024-0.092,0.037-0.143
		c0.021-0.085,0.048-0.204,0.083-0.355c0.004-0.02,0.012-0.033,0.023-0.043c0.011-0.008,0.022-0.013,0.034-0.013
		s0.021,0.005,0.031,0.015c0.009,0.009,0.014,0.021,0.014,0.033s-0.003,0.027-0.009,0.043c-0.006,0.015-0.014,0.039-0.025,0.072
		s-0.022,0.07-0.034,0.111c-0.012,0.04-0.024,0.082-0.037,0.127c-0.013,0.043-0.024,0.085-0.036,0.125
		c-0.018,0.065-0.032,0.114-0.04,0.147s-0.018,0.053-0.028,0.06s-0.021,0.01-0.031,0.01c-0.024,0-0.04-0.012-0.046-0.034
		c-0.014-0.054-0.035-0.14-0.062-0.256c-0.034-0.145-0.06-0.254-0.079-0.328c-0.004,0.019-0.009,0.038-0.014,0.06
		c-0.012,0.051-0.026,0.105-0.041,0.164c-0.038,0.153-0.069,0.271-0.094,0.354c-0.004,0.011-0.011,0.021-0.021,0.028
		s-0.021,0.012-0.031,0.012c-0.024,0-0.039-0.011-0.045-0.033c-0.017-0.058-0.033-0.112-0.047-0.163
		c-0.014-0.053-0.029-0.103-0.043-0.152c-0.029-0.101-0.061-0.196-0.096-0.287c-0.006-0.019-0.01-0.037-0.01-0.054
		s0.004-0.03,0.013-0.039s0.019-0.014,0.031-0.014c0.031,0,0.052,0.018,0.061,0.052c0.009,0.035,0.019,0.072,0.028,0.111
		c0.009,0.038,0.019,0.078,0.028,0.119c0.009,0.04,0.019,0.08,0.028,0.121c0.009,0.039,0.019,0.077,0.029,0.113
		c0.01,0.04,0.02,0.074,0.029,0.103l0.132-0.553c0.012-0.044,0.034-0.065,0.067-0.065c0.035,0,0.057,0.023,0.066,0.069
		C15.654,170.792,15.694,170.97,15.725,171.076z"/>
	<path d="M16.323,170.636c0.058-0.116,0.132-0.175,0.224-0.175c0.082,0,0.137,0.048,0.166,0.145c0.01,0.034,0.015,0.075,0.015,0.125
		v0.158c0,0.117,0.002,0.204,0.008,0.262c0.001,0.021-0.004,0.037-0.017,0.048s-0.026,0.017-0.041,0.017s-0.027-0.005-0.037-0.015
		s-0.014-0.032-0.01-0.068c0.005-0.056,0.008-0.116,0.008-0.182s0-0.112-0.002-0.14c-0.001-0.026-0.002-0.06-0.003-0.1
		s-0.009-0.076-0.024-0.109s-0.037-0.05-0.067-0.05s-0.056,0.008-0.079,0.023s-0.044,0.035-0.063,0.06
		c-0.039,0.052-0.062,0.109-0.072,0.174c0.002,0.155,0.007,0.27,0.013,0.342c0.001,0.021-0.003,0.037-0.015,0.048
		s-0.025,0.017-0.043,0.017c-0.033,0-0.05-0.021-0.05-0.061l0.014-1.084c0-0.139-0.003-0.312-0.011-0.52
		c-0.001-0.021,0.004-0.036,0.017-0.047c0.013-0.01,0.026-0.015,0.041-0.015s0.026,0.005,0.037,0.015
		c0.01,0.011,0.015,0.028,0.014,0.054s-0.002,0.062-0.003,0.11c-0.001,0.049-0.003,0.104-0.004,0.165s-0.003,0.127-0.004,0.197
		s-0.002,0.143-0.004,0.216s-0.002,0.147-0.003,0.221C16.324,170.524,16.323,170.581,16.323,170.636z"/>
	<path d="M17.221,170.18c0.004,0.011,0.006,0.023,0.005,0.037c-0.001,0.016-0.004,0.027-0.01,0.038s-0.013,0.019-0.021,0.025
		c-0.015,0.012-0.03,0.018-0.046,0.018s-0.028-0.002-0.037-0.005c-0.009-0.004-0.017-0.009-0.024-0.016
		c-0.017-0.016-0.025-0.036-0.025-0.062s0.006-0.044,0.02-0.055c0.021-0.019,0.043-0.028,0.064-0.028
		C17.182,170.133,17.206,170.148,17.221,170.18z M17.18,170.747c-0.003,0.065-0.005,0.125-0.005,0.178s0.001,0.107,0.005,0.163
		c0.003,0.057,0.003,0.089,0,0.098c-0.003,0.008-0.007,0.015-0.012,0.02c-0.011,0.011-0.023,0.017-0.036,0.017
		s-0.025-0.005-0.037-0.015s-0.016-0.029-0.013-0.06c0.007-0.083,0.011-0.166,0.011-0.251s-0.001-0.153-0.003-0.205
		c-0.002-0.053-0.004-0.093-0.005-0.119s0-0.044,0.003-0.052s0.008-0.014,0.014-0.019c0.011-0.011,0.023-0.016,0.037-0.016
		s0.026,0.005,0.036,0.015s0.015,0.025,0.015,0.046C17.186,170.614,17.183,170.681,17.18,170.747z"/>
	<path d="M17.562,170.289c0-0.022,0.006-0.04,0.017-0.051s0.022-0.017,0.036-0.017s0.025,0.006,0.035,0.017s0.014,0.028,0.012,0.051
		c-0.006,0.061-0.01,0.131-0.011,0.211c0.054,0,0.094-0.002,0.121-0.005s0.047-0.005,0.059-0.005
		c0.044-0.001,0.066,0.015,0.066,0.049c0,0.02-0.011,0.033-0.034,0.041c-0.008,0.003-0.018,0.004-0.027,0.003
		s-0.021-0.001-0.033-0.001c-0.013-0.001-0.024-0.001-0.036-0.001c-0.021,0-0.04,0-0.058,0c-0.02,0-0.035,0-0.05,0.001
		c-0.003,0-0.005,0-0.009,0c0,0.001,0,0.002,0,0.003c0,0.27,0.004,0.422,0.012,0.456s0.016,0.06,0.025,0.074
		c0.016,0.026,0.037,0.039,0.062,0.039c0.041,0,0.068-0.021,0.083-0.061c0.006-0.032,0.022-0.049,0.05-0.049
		c0.01,0,0.019,0.004,0.025,0.012c0.008,0.009,0.012,0.021,0.012,0.036s-0.005,0.032-0.015,0.051s-0.022,0.034-0.039,0.048
		c-0.036,0.03-0.075,0.045-0.12,0.045c-0.08,0-0.137-0.045-0.167-0.134c-0.011-0.032-0.017-0.072-0.017-0.12v-0.394
		c-0.014,0.001-0.029,0.002-0.045,0.003c-0.02,0.001-0.035-0.004-0.045-0.016c-0.01-0.01-0.015-0.021-0.015-0.033
		c0-0.013,0.005-0.023,0.016-0.033c0.01-0.009,0.025-0.014,0.047-0.014l0.043,0.001V170.289z"/>
	<path d="M18.217,170.878c0.001,0.09,0.018,0.158,0.049,0.206c0.034,0.051,0.082,0.076,0.144,0.076c0.057,0,0.098-0.028,0.124-0.084
		c0.017-0.036,0.036-0.055,0.061-0.055c0.011,0,0.021,0.004,0.027,0.011c0.008,0.007,0.012,0.02,0.011,0.038
		c-0.001,0.018-0.007,0.037-0.019,0.058c-0.013,0.021-0.029,0.039-0.051,0.056c-0.047,0.036-0.104,0.055-0.169,0.055
		c-0.071,0-0.132-0.03-0.184-0.091c-0.054-0.063-0.081-0.14-0.081-0.228s0.008-0.159,0.023-0.215
		c0.015-0.055,0.035-0.101,0.061-0.137c0.05-0.073,0.111-0.11,0.186-0.11c0.095,0,0.162,0.037,0.2,0.112
		c0.026,0.052,0.041,0.129,0.043,0.229c0.001,0.028-0.004,0.048-0.014,0.058s-0.029,0.015-0.06,0.015L18.217,170.878z
		 M18.552,170.793c0.001-0.113-0.022-0.19-0.071-0.232c-0.02-0.018-0.043-0.026-0.071-0.026s-0.051,0.005-0.069,0.016
		s-0.034,0.024-0.049,0.042c-0.014,0.018-0.025,0.037-0.035,0.061c-0.009,0.021-0.017,0.045-0.022,0.068
		c-0.006,0.024-0.01,0.049-0.013,0.073l0.134,0.006C18.442,170.8,18.508,170.798,18.552,170.793z"/>
	<path d="M19.103,171.099c0.009,0.006,0.016,0.015,0.021,0.025s0.008,0.023,0.008,0.038s-0.003,0.028-0.009,0.038
		c-0.006,0.012-0.014,0.02-0.022,0.026c-0.018,0.012-0.038,0.018-0.062,0.018c-0.034,0-0.06-0.016-0.074-0.047
		c-0.005-0.011-0.007-0.022-0.007-0.036c0-0.039,0.019-0.065,0.057-0.078c0.011-0.003,0.021-0.005,0.03-0.005
		c0.011,0,0.021,0.002,0.031,0.005S19.094,171.092,19.103,171.099z"/>
	<path d="M20.356,170.511c0,0.035-0.018,0.056-0.053,0.061c-0.043,0.009-0.092,0.045-0.146,0.11c-0.058,0.07-0.091,0.14-0.098,0.208
		c-0.003,0.03-0.004,0.058-0.004,0.082c0,0.06,0.003,0.121,0.008,0.187c0.001,0.021-0.004,0.038-0.016,0.049
		c-0.013,0.011-0.025,0.017-0.039,0.017c-0.015,0-0.026-0.005-0.037-0.015c-0.011-0.011-0.015-0.025-0.013-0.047
		c0.002-0.02,0.004-0.044,0.005-0.07c0.001-0.027,0.003-0.056,0.004-0.086c0.001-0.051,0.002-0.107,0.002-0.17
		c0-0.105-0.001-0.184-0.004-0.234c-0.003-0.052-0.002-0.081,0.001-0.089s0.008-0.014,0.013-0.019
		c0.011-0.011,0.023-0.016,0.037-0.016c0.013,0,0.025,0.005,0.035,0.015c0.012,0.01,0.016,0.022,0.016,0.038
		c-0.002,0.015-0.003,0.029-0.004,0.045c-0.002,0.014-0.004,0.032-0.006,0.054c-0.004,0.034-0.008,0.071-0.011,0.11
		c0.026-0.067,0.064-0.129,0.114-0.186c0.056-0.062,0.104-0.093,0.145-0.093c0.018,0,0.03,0.005,0.038,0.015
		S20.356,170.498,20.356,170.511z"/>
	<path d="M20.787,171.236c-0.037,0.001-0.072-0.007-0.104-0.023c-0.033-0.016-0.061-0.04-0.084-0.074
		c-0.052-0.071-0.077-0.174-0.077-0.306c0-0.118,0.027-0.212,0.083-0.28c0.052-0.065,0.121-0.098,0.207-0.098
		c0.072,0,0.132,0.031,0.18,0.094c0.049,0.066,0.073,0.157,0.073,0.273c0,0.129-0.028,0.231-0.085,0.309
		C20.929,171.2,20.865,171.235,20.787,171.236z M20.876,170.557c-0.021-0.016-0.047-0.023-0.076-0.023
		c-0.028,0-0.055,0.008-0.078,0.024c-0.024,0.016-0.044,0.038-0.061,0.066c-0.033,0.058-0.05,0.136-0.05,0.236
		c0,0.1,0.016,0.173,0.048,0.221s0.074,0.071,0.128,0.071c0.059,0,0.105-0.033,0.141-0.101c0.031-0.06,0.047-0.134,0.047-0.221
		C20.975,170.698,20.942,170.606,20.876,170.557z"/>
	<path d="M21.395,170.968c0.03,0,0.043,0.027,0.04,0.081c-0.003,0.032,0.01,0.06,0.037,0.082c0.026,0.022,0.06,0.033,0.101,0.033
		c0.042,0,0.075-0.012,0.101-0.034s0.038-0.052,0.038-0.085c0-0.035-0.009-0.062-0.025-0.08c-0.017-0.02-0.038-0.037-0.063-0.053
		c-0.025-0.015-0.053-0.029-0.082-0.043c-0.029-0.015-0.057-0.03-0.082-0.049c-0.06-0.044-0.089-0.098-0.089-0.161
		c0-0.056,0.019-0.102,0.057-0.138c0.04-0.04,0.093-0.06,0.157-0.06c0.056,0,0.102,0.016,0.139,0.048
		c0.04,0.034,0.06,0.078,0.06,0.132c0.004,0.026,0,0.046-0.011,0.06c-0.011,0.012-0.024,0.019-0.038,0.019
		c-0.016,0-0.027-0.007-0.035-0.02c-0.01-0.013-0.014-0.028-0.012-0.046c0-0.018,0-0.033-0.004-0.047
		c-0.002-0.013-0.008-0.025-0.017-0.036c-0.019-0.024-0.05-0.037-0.092-0.037c-0.034,0-0.059,0.008-0.074,0.024
		c-0.026,0.028-0.04,0.058-0.04,0.088s0.009,0.056,0.025,0.076c0.017,0.02,0.038,0.037,0.063,0.053
		c0.025,0.017,0.053,0.031,0.082,0.046s0.057,0.03,0.082,0.049c0.06,0.042,0.089,0.096,0.089,0.159c0,0.062-0.021,0.11-0.061,0.148
		c-0.042,0.04-0.102,0.06-0.177,0.06c-0.065,0-0.119-0.02-0.163-0.058c-0.045-0.038-0.065-0.087-0.062-0.145
		C21.342,170.99,21.361,170.968,21.395,170.968z"/>
	<path d="M22.162,170.878c0.001,0.09,0.018,0.158,0.049,0.206c0.034,0.051,0.082,0.076,0.144,0.076c0.057,0,0.098-0.028,0.124-0.084
		c0.017-0.036,0.036-0.055,0.061-0.055c0.011,0,0.021,0.004,0.027,0.011c0.008,0.007,0.012,0.02,0.011,0.038
		c-0.001,0.018-0.007,0.037-0.019,0.058c-0.013,0.021-0.029,0.039-0.051,0.056c-0.047,0.036-0.104,0.055-0.169,0.055
		c-0.071,0-0.132-0.03-0.184-0.091c-0.054-0.063-0.081-0.14-0.081-0.228s0.008-0.159,0.023-0.215
		c0.015-0.055,0.035-0.101,0.061-0.137c0.05-0.073,0.111-0.11,0.186-0.11c0.095,0,0.162,0.037,0.2,0.112
		c0.026,0.052,0.041,0.129,0.043,0.229c0.001,0.028-0.004,0.048-0.014,0.058s-0.029,0.015-0.06,0.015L22.162,170.878z
		 M22.497,170.793c0.001-0.113-0.022-0.19-0.071-0.232c-0.02-0.018-0.043-0.026-0.071-0.026s-0.051,0.005-0.069,0.016
		s-0.034,0.024-0.049,0.042c-0.014,0.018-0.025,0.037-0.035,0.061c-0.009,0.021-0.017,0.045-0.022,0.068
		c-0.006,0.024-0.01,0.049-0.013,0.073l0.134,0.006C22.386,170.8,22.453,170.798,22.497,170.793z M22.297,170.293
		c0.06-0.063,0.101-0.11,0.123-0.14c0.04-0.055,0.074-0.074,0.102-0.058c0.027,0.019,0.028,0.044,0.003,0.077
		c-0.019,0.022-0.037,0.044-0.058,0.063c-0.047,0.046-0.078,0.077-0.093,0.094s-0.027,0.029-0.037,0.037
		c-0.011,0.009-0.021,0.013-0.03,0.013s-0.019-0.003-0.026-0.009c-0.009-0.007-0.013-0.016-0.013-0.027
		C22.268,170.331,22.278,170.314,22.297,170.293z"/>
	<path d="M23.057,171.092c0.009,0.008,0.016,0.016,0.021,0.026s0.008,0.023,0.008,0.038s-0.003,0.027-0.009,0.039
		c-0.006,0.01-0.014,0.019-0.023,0.025c-0.017,0.012-0.037,0.018-0.062,0.018c-0.034,0-0.059-0.016-0.073-0.047
		c-0.005-0.011-0.008-0.022-0.008-0.036c0-0.039,0.019-0.064,0.057-0.077c0.011-0.004,0.021-0.006,0.031-0.006
		c0.01,0,0.02,0.002,0.03,0.005S23.048,171.086,23.057,171.092z M23.045,170.291v0.277c0,0.124,0.003,0.214,0.008,0.27
		c0.002,0.021-0.003,0.037-0.014,0.048s-0.023,0.017-0.036,0.017s-0.024-0.005-0.033-0.014c-0.009-0.01-0.013-0.033-0.011-0.071
		c0.002-0.053,0.003-0.141,0.003-0.263c0-0.123,0-0.227-0.001-0.31s-0.002-0.165-0.003-0.245c-0.003-0.167-0.009-0.312-0.018-0.437
		c-0.002-0.025,0.004-0.044,0.019-0.057c0.014-0.013,0.028-0.019,0.044-0.019s0.03,0.006,0.043,0.02
		c0.013,0.012,0.019,0.035,0.016,0.069s-0.005,0.079-0.007,0.136c-0.003,0.057-0.005,0.117-0.006,0.182
		C23.046,170.023,23.045,170.155,23.045,170.291z"/>
</g>
<g>
	<path class="st8" d="M5.206,160.139c0.026,0.739,0.047,1.381,0.063,1.924c0.003,0.111-0.024,0.193-0.083,0.247
		s-0.121,0.08-0.188,0.08c-0.066,0-0.125-0.025-0.176-0.075c-0.05-0.051-0.075-0.126-0.075-0.228v-3.672
		c0-1.27-0.031-2.408-0.093-3.418c-0.01-0.143,0.029-0.242,0.117-0.298c0.036-0.022,0.073-0.036,0.112-0.041
		s0.125-0.027,0.259-0.066c0.335-0.094,0.668-0.142,0.998-0.142c0.331,0,0.604,0.037,0.82,0.11c0.217,0.073,0.401,0.185,0.555,0.334
		c0.325,0.319,0.488,0.79,0.488,1.411c0,0.801-0.315,1.574-0.947,2.319c-0.101,0.121-0.208,0.239-0.322,0.356
		c0.319,0.977,0.693,1.973,1.123,2.988c0.078,0.176,0.039,0.305-0.117,0.386c-0.039,0.02-0.085,0.029-0.137,0.029
		c-0.117,0-0.2-0.066-0.249-0.2c-0.104-0.303-0.198-0.593-0.283-0.871s-0.168-0.55-0.249-0.813
		c-0.144-0.475-0.278-0.882-0.405-1.221C6.058,159.596,5.655,159.883,5.206,160.139z M5.191,159.676
		c0.515-0.299,0.996-0.706,1.445-1.221c0.603-0.699,0.903-1.401,0.903-2.104c0-0.729-0.256-1.199-0.767-1.411
		c-0.28-0.117-0.637-0.133-1.069-0.049c-0.205,0.039-0.373,0.092-0.503,0.156c-0.042,0.98-0.063,1.802-0.063,2.466
		c0,0.707,0.001,1.087,0.003,1.141c0.001,0.054,0.003,0.103,0.004,0.146c0.002,0.044,0.005,0.089,0.008,0.137
		c0.003,0.047,0.008,0.114,0.012,0.202c0.006,0.088,0.011,0.202,0.018,0.342C5.184,159.539,5.188,159.604,5.191,159.676z"/>
	<path class="st8" d="M11.301,162.517c-0.681,0-1.181-0.352-1.501-1.055c-0.321-0.703-0.481-1.741-0.481-3.115
		c0-1.084,0.184-1.993,0.552-2.729c0.183-0.357,0.403-0.644,0.664-0.856c0.261-0.214,0.561-0.32,0.9-0.32
		c0.341,0,0.638,0.089,0.892,0.267c0.254,0.177,0.464,0.434,0.63,0.769c0.325,0.658,0.491,1.615,0.498,2.871
		c0.007,1.322-0.183,2.351-0.566,3.086C12.51,162.156,11.982,162.517,11.301,162.517z M12.359,155.411
		c-0.116-0.168-0.25-0.3-0.403-0.396c-0.153-0.097-0.322-0.145-0.508-0.145s-0.354,0.048-0.503,0.145
		c-0.149,0.096-0.285,0.229-0.408,0.397c-0.121,0.17-0.229,0.369-0.322,0.599c-0.092,0.229-0.171,0.476-0.236,0.739
		c-0.127,0.541-0.19,1.08-0.19,1.619c0,0.538,0.021,0.99,0.062,1.354c0.04,0.365,0.097,0.68,0.168,0.945
		c0.071,0.265,0.157,0.486,0.256,0.664c0.1,0.177,0.206,0.319,0.32,0.427c0.212,0.192,0.464,0.288,0.757,0.288
		c0.866,0,1.392-0.796,1.577-2.388c0.042-0.364,0.063-0.735,0.063-1.113c0-0.377-0.012-0.708-0.034-0.991s-0.06-0.556-0.109-0.817
		c-0.051-0.263-0.116-0.507-0.195-0.735C12.572,155.776,12.474,155.578,12.359,155.411z"/>
	<path class="st8" d="M15.063,160.164c0.114,0,0.186,0.044,0.215,0.132s0.044,0.233,0.044,0.435c0,0.202,0.027,0.391,0.083,0.566
		s0.132,0.324,0.229,0.444c0.198,0.241,0.474,0.361,0.825,0.361s0.632-0.129,0.84-0.388s0.312-0.631,0.312-1.116
		c0-0.647-0.275-1.224-0.825-1.729c-0.156-0.143-0.316-0.284-0.481-0.425c-0.164-0.14-0.324-0.284-0.48-0.435
		c-0.156-0.149-0.296-0.315-0.42-0.498c-0.271-0.4-0.405-0.855-0.405-1.367c0-0.523,0.154-0.947,0.464-1.27
		c0.306-0.318,0.69-0.479,1.152-0.479c0.397,0,0.723,0.134,0.977,0.4c0.283,0.307,0.413,0.729,0.391,1.27
		c-0.003,0.026-0.004,0.054-0.002,0.083c0.001,0.029-0.002,0.085-0.01,0.166c-0.009,0.082-0.043,0.154-0.104,0.218
		c-0.06,0.063-0.125,0.095-0.195,0.095c-0.069,0-0.129-0.031-0.178-0.095s-0.065-0.147-0.049-0.252
		c0.042-0.237,0.063-0.417,0.063-0.539s-0.022-0.238-0.065-0.35c-0.045-0.11-0.107-0.208-0.188-0.293
		c-0.176-0.179-0.403-0.269-0.684-0.269c-0.31,0-0.562,0.106-0.757,0.317c-0.215,0.234-0.322,0.522-0.322,0.864
		s0.037,0.618,0.112,0.828s0.173,0.399,0.296,0.568c0.121,0.17,0.261,0.324,0.417,0.464c0.156,0.141,0.315,0.278,0.476,0.415
		c0.162,0.137,0.32,0.277,0.477,0.423c0.156,0.145,0.296,0.305,0.42,0.48c0.271,0.397,0.405,0.854,0.405,1.372
		c0,0.605-0.156,1.089-0.469,1.45c-0.31,0.358-0.723,0.537-1.24,0.537c-0.481,0-0.874-0.186-1.177-0.557
		c-0.286-0.348-0.43-0.74-0.43-1.177C14.78,160.383,14.874,160.164,15.063,160.164z"/>
	<path class="st8" d="M20.392,159.724l0.01,1.733c0,0.156,0,0.29,0,0.4c0.003,0.049,0.005,0.092,0.005,0.127
		c0.82,0,1.365-0.013,1.636-0.039c0.28-0.029,0.442-0.037,0.488-0.024c0.046,0.014,0.085,0.034,0.117,0.063
		c0.065,0.059,0.098,0.123,0.098,0.193c0,0.069-0.031,0.13-0.093,0.181c-0.062,0.05-0.148,0.072-0.259,0.065
		c-0.534-0.042-1.016-0.05-1.445-0.021c-0.43,0.027-0.671,0.045-0.723,0.054c-0.052,0.008-0.099,0.008-0.139,0
		c-0.041-0.009-0.078-0.025-0.11-0.052c-0.075-0.055-0.109-0.137-0.103-0.244c0.049-0.94,0.073-1.981,0.073-3.122
		c0-1.142,0.001-1.859,0.003-2.153c0.001-0.295,0.002-0.564,0.002-0.809c-0.007-0.523-0.018-0.895-0.034-1.11
		c-0.017-0.217-0.013-0.346,0.013-0.389c0.023-0.042,0.054-0.073,0.09-0.093c0.049-0.022,0.11-0.027,0.186-0.015
		c0.137,0.023,0.317,0.034,0.542,0.034c0.433,0,0.729-0.009,0.886-0.026c0.158-0.019,0.26-0.02,0.306-0.005s0.083,0.035,0.112,0.061
		c0.065,0.053,0.098,0.116,0.098,0.19c0,0.075-0.029,0.137-0.088,0.186s-0.139,0.071-0.239,0.066s-0.208-0.012-0.322-0.02
		c-0.114-0.009-0.236-0.016-0.366-0.022c-0.273-0.01-0.511-0.006-0.713,0.01c0,0.283-0.002,0.565-0.005,0.845
		c-0.003,0.332-0.007,0.669-0.01,1.011c-0.01,0.918-0.015,1.596-0.015,2.031c0.407,0,0.706-0.01,0.898-0.029
		c0.208-0.022,0.34-0.013,0.393,0.029c0.055,0.043,0.081,0.1,0.081,0.171c0,0.18-0.168,0.266-0.503,0.259
		c-0.068-0.003-0.13-0.005-0.186-0.005l-0.396-0.005h-0.288V159.724z M21.029,153.673c0.09-0.054,0.191-0.116,0.306-0.186
		c0.114-0.07,0.242-0.165,0.386-0.283c0.144-0.119,0.264-0.17,0.361-0.151c0.098,0.018,0.166,0.06,0.205,0.124
		c0.081,0.131,0.039,0.254-0.127,0.371c-0.071,0.056-0.222,0.139-0.449,0.249c-0.228,0.111-0.388,0.194-0.479,0.252
		c-0.091,0.057-0.16,0.095-0.207,0.114c-0.048,0.02-0.103,0.024-0.164,0.015c-0.12-0.02-0.173-0.088-0.156-0.205
		c0.01-0.055,0.044-0.105,0.103-0.151C20.866,153.776,20.94,153.726,21.029,153.673z"/>
</g>
<g>
	<path class="st9" d="M35.664,130.435c0.162,0,0.261,0.063,0.297,0.189c0,0.162-0.172,0.27-0.514,0.324
		c-1.746,0.233-3.455,0.99-5.13,2.268c0.99,0.756,1.485,1.755,1.485,2.997c0,1.656-0.833,3.28-2.497,4.873
		c-1.666,1.594-3.776,2.643-6.333,3.146c0.468,0.45,0.968,1.058,1.499,1.823c0.531,0.765,1.017,1.476,1.458,2.133
		c0.44,0.657,0.931,1.301,1.471,1.931c1.188,1.35,2.664,2.024,4.429,2.024c0.575,0,1.03-0.063,1.363-0.188
		c0.333-0.126,0.598-0.234,0.796-0.324c0.469-0.216,0.752-0.324,0.851-0.324s0.148,0.036,0.148,0.108
		c0,0.126-0.161,0.283-0.485,0.473c-0.324,0.188-0.631,0.328-0.918,0.418c-1.044,0.288-1.782,0.433-2.214,0.433
		c-1.782,0-3.304-0.738-4.563-2.215c-0.576-0.665-1.089-1.345-1.539-2.038c-0.451-0.692-0.941-1.444-1.472-2.255
		c-0.531-0.81-1.021-1.439-1.471-1.89c-0.702,0.108-1.432,0.162-2.188,0.162h-0.324c-2.034,2.178-4.067,3.874-6.102,5.09
		c-2.034,1.215-4.257,1.822-6.669,1.822c-1.836,0-3.218-0.374-4.145-1.121c-0.928-0.746-1.391-1.7-1.391-2.861
		s0.513-2.232,1.539-3.213c1.026-0.981,2.312-1.472,3.861-1.472c1.241,0,2.024,0.432,2.349,1.296
		c1.71-1.062,3.501-1.593,5.373-1.593c0.233,0.054,0.351,0.144,0.351,0.27c0,0.054-0.045,0.081-0.135,0.081
		c-1.962,0-3.789,0.54-5.48,1.62c0.018,0.072,0.026,0.198,0.026,0.378c0,0.648-0.198,1.265-0.594,1.85
		c-0.396,0.585-0.855,0.877-1.377,0.877c-0.522,0-0.783-0.197-0.783-0.594c0-0.342,0.202-0.756,0.607-1.242
		c0.405-0.485,0.94-0.953,1.606-1.403c-0.324-0.811-1.066-1.215-2.228-1.215s-2.146,0.445-2.956,1.336
		c-0.811,0.892-1.215,1.868-1.215,2.93c0,1.062,0.409,1.939,1.229,2.633c0.818,0.692,2.159,1.039,4.022,1.039s3.73-0.58,5.603-1.741
		s3.789-2.776,5.751-4.847c-0.882-0.198-1.323-0.521-1.323-0.972c0-0.217,0.148-0.4,0.446-0.554c0.297-0.153,0.67-0.229,1.12-0.229
		c0.449,0,0.854,0.045,1.215,0.135c0.414-0.468,1.305-1.498,2.673-3.092c1.368-1.593,2.502-2.861,3.403-3.807
		c0.899-0.945,1.809-1.786,2.727-2.524c-1.134-0.756-2.65-1.134-4.549-1.134c-1.899,0-3.596,0.27-5.09,0.81
		c0.271,0.433,0.405,0.783,0.405,1.053c0,0.271-0.01,0.441-0.027,0.514c0.072-0.018,0.189-0.027,0.352-0.027
		c1.151,0,1.728,0.352,1.728,1.053c0,0.576-0.36,1.27-1.08,2.079c-0.72,0.811-1.611,1.521-2.673,2.133
		c-1.062,0.612-1.98,0.918-2.754,0.918c-0.774,0-1.341-0.161-1.701-0.485s-0.54-0.756-0.54-1.296c0-0.954,0.509-2.021,1.525-3.2
		c1.017-1.179,2.381-2.128,4.091-2.848c-0.882-1.008-2.241-1.513-4.077-1.513c-1.242,0-2.407,0.194-3.496,0.581
		c-1.09,0.387-1.976,0.859-2.66,1.417c-1.386,1.152-2.321,2.188-2.808,3.105l-0.324,0.594c-0.09,0.145-0.188,0.216-0.297,0.216
		s-0.162-0.099-0.162-0.297c0.252-0.576,0.684-1.242,1.296-1.998s1.26-1.395,1.944-1.917c0.684-0.521,1.624-0.999,2.821-1.431
		c1.197-0.433,2.488-0.648,3.875-0.648c1.961,0,3.41,0.567,4.347,1.701c1.71-0.63,3.577-0.945,5.603-0.945
		c2.024,0,3.631,0.378,4.819,1.135C31.884,131.434,33.81,130.597,35.664,130.435z M7.206,146.77c0,0.198,0.157,0.297,0.473,0.297
		c0.314,0,0.611-0.211,0.891-0.634c0.278-0.423,0.418-0.896,0.418-1.418c0-0.144-0.009-0.252-0.026-0.324
		C7.789,145.555,7.206,146.249,7.206,146.77z M20.219,134.999l-0.189,0.026c-0.126,0.757-0.423,1.387-0.891,1.891
		s-1.044,0.756-1.728,0.756c-0.288,0-0.433-0.166-0.433-0.5c0-0.332,0.266-0.782,0.797-1.35c0.53-0.567,1.156-0.94,1.876-1.12
		v-0.136c0-0.413-0.144-0.854-0.432-1.322c-1.584,0.666-2.845,1.543-3.78,2.632c-0.936,1.09-1.403,2.075-1.403,2.957
		c0,0.99,0.571,1.484,1.714,1.484c1.144,0,2.367-0.553,3.672-1.66c1.306-1.106,1.958-2.056,1.958-2.849
		C21.38,135.268,20.993,134.999,20.219,134.999z M18.235,135.849c-0.388,0.387-0.581,0.671-0.581,0.851s0.055,0.27,0.162,0.27
		c0.45,0,0.837-0.18,1.161-0.54c0.324-0.359,0.531-0.81,0.621-1.35C19.076,135.206,18.622,135.463,18.235,135.849z M20.273,143.098
		c-0.323-0.09-0.599-0.135-0.823-0.135c-0.226,0-0.419,0.059-0.58,0.176c-0.162,0.117-0.243,0.238-0.243,0.364
		c0,0.252,0.261,0.423,0.783,0.513L20.273,143.098z M20.165,144.125h0.54c0.575,0,1.008-0.018,1.296-0.054
		c-0.343-0.324-0.712-0.576-1.107-0.757L20.165,144.125z M26.97,142.303c1.296-0.837,2.295-1.786,2.997-2.849
		s1.053-2.11,1.053-3.146s-0.423-1.913-1.269-2.633c-0.883,0.72-1.76,1.544-2.633,2.471s-1.976,2.183-3.308,3.767
		c-1.332,1.584-2.214,2.619-2.646,3.104c0.558,0.216,1.07,0.531,1.539,0.945C24.251,143.692,25.674,143.139,26.97,142.303z"/>
</g>
<path id="cap" class="st3" d="M26.12,2.32v17.5c0,0.01,0,0.01,0,0.02c-0.01,1.26-1.05,2.29-2.32,2.29h-6.54
	c-1.25,0-2.29-1.01-2.32-2.26V2.32c0-1.27,1.05-2.32,2.32-2.32h6.54C25.08,0,26.12,1.05,26.12,2.32z"/>
<path id="cap_bump_shadow" class="st10" d="M27.091,6.229v1.03c0,0.64-0.42,1.18-1,1.36c-0.14,0.05-0.28,0.07-0.43,0.07h-10.28
	c-0.16,0-0.32-0.03-0.47-0.08c-0.56-0.19-0.97-0.72-0.97-1.35v-1.03c0-0.63,0.41-1.16,0.97-1.35c0.15-0.05,0.31-0.08,0.47-0.08
	h10.28c0.15,0,0.29,0.02,0.43,0.07C26.671,5.049,27.091,5.589,27.091,6.229z"/>
<path id="cap_bump_1_" class="st3" d="M27.12,6.06v1.03c0,0.64-0.42,1.18-1,1.36c-0.14,0.05-0.28,0.07-0.43,0.07H15.41
	c-0.16,0-0.32-0.03-0.47-0.08c-0.56-0.19-0.97-0.72-0.97-1.35V6.06c0-0.63,0.41-1.16,0.97-1.35c0.15-0.05,0.31-0.08,0.47-0.08h10.28
	c0.15,0,0.29,0.02,0.43,0.07C26.7,4.88,27.12,5.42,27.12,6.06z"/>
<line id="cap_bump_highlight" class="st11" x1="18.748" y1="4.806" x2="25.328" y2="4.711"/>
<path id="neck_band" class="st9" d="M26.18,20.88c0-0.36-0.02-0.71-0.06-1.04c-0.43,0.46-1.37,0.94-2.67,1.24
	c-0.83,0.2-1.82,0.32-2.92,0.32c-2.8,0-4.86-0.81-5.58-1.56c0,0-0.01,0-0.01-0.01v0.04c-0.03,0.32-0.05,0.66-0.05,1.01
	c-0.06,0.41-0.11,0.81-0.17,1.22c1.42,0.81,3.46,1.3,5.81,1.3c1.05,0,2.03-0.1,2.93-0.28c1.13-0.22,2.11-0.57,2.9-1.02
	C26.3,21.69,26.24,21.29,26.18,20.88z"/>
<path id="shadow" class="st12" d="M41.09,161.24v5.24c-0.01,2.72-0.01,5.44-0.01,8.16v10.58c0,2.69-2.2,4.89-4.89,4.89h-0.38
	c-0.26-4.23-0.57-9.32-0.91-14.84c-0.02-0.44-0.05-0.88-0.08-1.32c-0.02-0.46-0.05-0.93-0.08-1.39c-1.12-18.66-2.43-41.3-2.91-52.73
	c-0.02-0.44-0.04-0.88-0.06-1.29c-0.01-0.44-0.03-0.85-0.04-1.25c-0.06-1.61-0.09-2.87-0.09-3.69c0-10.35-6.96-67.51-7.81-77.76
	c-0.25-2.99-0.35-7.64-0.37-12.72c-0.01-0.33-0.01-0.66-0.01-0.99v-1.05c0-1.37,0.01-2.77,0.01-4.16c0.02-2.89,0.06-5.76,0.1-8.4
	c0.02-1.37,0.05-2.68,0.07-3.89C23.66,2.87,23.7,1.3,23.73,0h0.07c1.28,0,2.32,1.05,2.32,2.32V4.7c0.58,0.18,1,0.72,1,1.36v1.03
	c0,0.64-0.42,1.18-1,1.36v11.37c0,0.01,0,0.01,0,0.02c0.04,0.33,0.06,0.68,0.06,1.04c0.06,0.41,0.12,0.81,0.18,1.22
	c1.7,11.86,3.4,23.73,5.1,35.59c2.4,16.74,4.92,33.49,7.13,50.25c0.66,5.01,1.15,10,1.51,14.98c0.1,1.48,0.2,2.95,0.28,4.43
	c0.05,0.82,0.1,1.63,0.13,2.45c0.02,0.39,0.04,0.78,0.06,1.17c0.03,0.59,0.06,1.18,0.08,1.77
	C41.07,142.23,41.11,151.71,41.09,161.24z"/>
<path id="bottom_highlight" class="st13" d="M16.931,29.736c0,0-2.508,14.678-2.961,18.775c-0.093,0.845-0.187,1.69-0.281,2.535
	c-0.088,0.792-0.357,1.319,0.265,1.774c0.782,0.573,2.372,0.594,2.977-0.213C17.955,51.241,16.931,29.736,16.931,29.736z"/>
<path id="top_highlight" class="st13" d="M16.3,55.55c0.04,0.2-0.05,0.5-0.07,0.7c-0.16,1.75-0.32,3.5-0.48,5.26
	c-0.27,2.89-0.54,5.79-0.81,8.69c-0.32,3.52-0.64,7.04-0.97,10.56c-0.33,3.61-0.66,7.22-0.99,10.84c-0.29,3.18-0.59,6.36-0.87,9.54
	c-0.21,2.23-0.41,4.45-0.61,6.68c-0.13,1.53-0.29,4.48-0.46,8.4c-0.01,0.38-0.03,0.78-0.05,1.18c-0.01,0.39-0.03,0.79-0.04,1.2
	c-0.59,14.72-1.3,39.85-1.76,56.71c-0.01,0.42-0.02,0.84-0.03,1.25c-0.01,0.4-0.02,0.8-0.03,1.19c-0.12,4.47-0.22,8.23-0.29,10.85
	c-0.01,0.56-0.02,1.06-0.04,1.51H4.89c-0.3,0-0.6-0.03-0.89-0.09c0.03-3.33,0.1-9.5,0.2-16.94c0.01-0.51,0.02-1.03,0.02-1.55
	c0.01-0.55,0.02-1.11,0.03-1.67c0.22-15.14,0.55-34.29,0.97-45.85c0.02-0.57,0.04-1.11,0.06-1.64c0.02-0.53,0.04-1.05,0.06-1.54
	c0.13-2.93,0.27-5.11,0.41-6.23c1.09-8.53,7.77-59.2,7.77-59.2c0.09-0.73,0.77-0.61,1.35-0.56C15.33,54.88,16.18,54.99,16.3,55.55z"
	/>
<g>
</g>
<g>
</g>
<g>
</g>
<g>
</g>
<g>
</g>
</svg>
