<svg xmlns="http://www.w3.org/2000/svg" xmlns:xlink="http://www.w3.org/1999/xlink" viewBox="0 0 41.094 190.11">
  <defs>
    <style>
      .cls-1 {
        isolation: isolate;
      }

      .cls-2 {
        fill: url(#radial-gradient);
      }

      .cls-3 {
        fill: #ff9592;
        opacity: 0.87;
      }

      .cls-4 {
        fill: #fff8f0;
      }

      .cls-5 {
        fill: #c65647;
      }

      .cls-6 {
        fill: #4c0128;
      }

      .cls-6, .cls-9 {
        stroke: #200000;
      }

      .cls-13, .cls-6, .cls-7, .cls-8, .cls-9 {
        stroke-miterlimit: 10;
      }

      .cls-13, .cls-6, .cls-9 {
        stroke-width: 0.25px;
      }

      .cls-13, .cls-7 {
        fill: none;
      }

      .cls-7, .cls-8 {
        stroke: #50832a;
        stroke-width: 0.5px;
      }

      .cls-13, .cls-7, .cls-8 {
        stroke-linecap: round;
      }

      .cls-8 {
        fill: #50832a;
      }

      .cls-11, .cls-9 {
        fill: #8b0043;
      }

      .cls-10, .cls-14 {
        fill: #200000;
      }

      .cls-12 {
        fill: #93372e;
      }

      .cls-13 {
        stroke: #ffcaca;
        opacity: 0.6;
        mix-blend-mode: color-burn;
      }

      .cls-14 {
        opacity: 0.69;
        mix-blend-mode: soft-light;
      }

      .cls-15 {
        fill: #ffcaca;
        opacity: 0.55;
        mix-blend-mode: lighten;
      }
    </style>
    <radialGradient id="radial-gradient" cx="20.355" cy="186.68" fx="8.381652075128931" r="11.973" gradientTransform="translate(-295.492 203.843) rotate(-89.421) scale(1 1.691)" gradientUnits="userSpaceOnUse">
      <stop offset="0.484" stop-color="#fc6363"/>
      <stop offset="0.512" stop-color="#e34d5c"/>
      <stop offset="0.554" stop-color="#c33153"/>
      <stop offset="0.597" stop-color="#aa1c4c"/>
      <stop offset="0.643" stop-color="#990c47"/>
      <stop offset="0.691" stop-color="#8e0344"/>
      <stop offset="0.748" stop-color="#8b0043"/>
    </radialGradient>
  </defs>
  <g class="cls-1">
    <g id="Layer_7" data-name="Layer 7">
      <path id="bump" class="cls-2" d="M33.62,190.11H7.09c.56-.52,1.14-1.02,1.75-1.51,3.67-2.98,8.07-5.35,11.51-5.35C24.36,183.25,29.67,186.46,33.62,190.11Z"/>
      <path id="bottle" class="cls-3" d="M41.09,161.24v5.24q-.015,4.08-.01,8.16v10.58a4.9,4.9,0,0,1-4.89,4.89H4.89a4.406,4.406,0,0,1-.89-.09,4.886,4.886,0,0,1-4-4.8v-47.6c0-1.28.01-2.55.06-3.82,0-.58.02-1.17.05-1.75.01-.44.03-.87.05-1.31.04-.85.08-1.7.13-2.55C1.14,113.01,3.83,97.98,6,82.92Q9.705,57.1,13.4,31.3q.66-4.59,1.32-9.2c.06-.41.11-.81.17-1.22,0-.35.02-.69.05-1.01,0-.01.01-.02.01-.03a6.251,6.251,0,0,1,.27-1.33c.3-.96.78-1.59,1.32-1.59h8c.53,0,1.01.62,1.31,1.58a7.877,7.877,0,0,1,.27,1.32v.02a8.687,8.687,0,0,1,.06,1.04c.06.41.12.81.18,1.22q2.55,17.79,5.1,35.59c2.4,16.74,4.92,33.49,7.13,50.25.66,5.01,1.15,10,1.51,14.98.1,1.48.2,2.95.28,4.43.05.82.1,1.63.13,2.45l.06,1.17c.03.59.06,1.18.08,1.77C41.07,142.23,41.11,151.71,41.09,161.24Z"/>
      <g id="label">
        <path class="cls-4" d="M41.09,161.24v2.85a32.142,32.142,0,0,1-6.27,9.86c-3.96,4.18-8.91,6.66-14.27,6.66-8.78,0-16.45-6.65-20.55-16.54V137.62c0-1.28.01-2.55.06-3.82,0-.58.02-1.17.05-1.75.01-.44.03-.87.05-1.31,4.14-9.66,11.73-16.14,20.39-16.14a18.548,18.548,0,0,1,11.22,3.94,29.154,29.154,0,0,1,8.74,11.26l.06,1.17c.03.59.06,1.18.08,1.77C41.07,142.23,41.11,151.71,41.09,161.24Z"/>
        <path class="cls-5" d="M40.57,130.97l-.06-1.17c-.03-.82-.08-1.63-.13-2.45a28.854,28.854,0,0,0-8.65-10.06,19.332,19.332,0,0,0-11.18-3.69,18.9,18.9,0,0,0-9.51,2.62,24.721,24.721,0,0,0-5.7,4.61,32.335,32.335,0,0,0-5.05,7.36c-.05.85-.09,1.7-.13,2.55-.02.44-.04.87-.05,1.31-.03.58-.05,1.17-.05,1.75a33.735,33.735,0,0,1,5.16-9.79,24.32,24.32,0,0,1,5.73-5.41,17.336,17.336,0,0,1,9.6-3,17.844,17.844,0,0,1,11.28,4.23,29.982,29.982,0,0,1,8.82,12.91C40.63,132.15,40.6,131.56,40.57,130.97Zm-5.83,41.59c-3.88,4.41-8.82,7.05-14.19,7.05a17.812,17.812,0,0,1-11.36-4.3,25.985,25.985,0,0,1-4.94-5.45A34.607,34.607,0,0,1,0,161.22v5.23a33.547,33.547,0,0,0,4.2,6.63,26.091,26.091,0,0,0,4.93,4.67,19.439,19.439,0,0,0,11.42,3.86,20.443,20.443,0,0,0,14.35-6.34,31.717,31.717,0,0,0,6.19-8.79v-5.24A32.805,32.805,0,0,1,34.74,172.56Z"/>
      </g>
      <g id="grapes">
        <ellipse class="cls-6" cx="31.434" cy="157.811" rx="3.541" ry="2.623" transform="translate(-123.302 113.662) rotate(-62.811)"/>
        <ellipse class="cls-6" cx="34.992" cy="159.638" rx="3.541" ry="2.623" transform="translate(-122.995 117.82) rotate(-62.811)"/>
        <g id="vine">
          <path class="cls-7" d="M31.922,159.78a8.51,8.51,0,0,0,2.312-3.829,9.083,9.083,0,0,1,.534-1.693c.522-1.022,1.624-1.094,2.536-1.612a4.761,4.761,0,0,0,1.967-2.378,8.424,8.424,0,0,0-.033-6.345,4.171,4.171,0,0,0-4.319-2.625,3.03,3.03,0,0,0-2.3,3.814,3.211,3.211,0,0,0,1.452,1.67,2.592,2.592,0,0,0,1.8.338c1.318-.292,1.586-1.788,1.529-2.93-.048-.95-.231-1.89-.293-2.84a5.456,5.456,0,0,1,.427-2.79,2.915,2.915,0,0,1,.448-.665s.046-.051.1-.1a6.638,6.638,0,0,1,1.729-.874"/>
          <g id="Layer_12" data-name="Layer 12">
            <path class="cls-8" d="M38.178,151.492c-.165.068-.372-.055-.514-.153-.892-.616-.858-1.747-.922-2.714-.025-.359.492-.24.694-.183a1.838,1.838,0,0,1,1.151.768,1.729,1.729,0,0,1,.085,1.112C38.617,150.635,38.519,151.352,38.178,151.492Z"/>
          </g>
          <path class="cls-8" d="M37.665,138.155c-.165.068-.372-.056-.514-.154-.892-.615-.857-1.746-.922-2.713-.024-.36.492-.24.694-.184a1.841,1.841,0,0,1,1.151.768,1.729,1.729,0,0,1,.085,1.112C38.1,137.3,38.006,138.015,37.665,138.155Z"/>
          <path class="cls-8" d="M32.409,145.306c-.088.155-.327.185-.5.195-1.081.062-1.749-.85-2.395-1.573-.24-.269.24-.492.435-.572a1.845,1.845,0,0,1,1.38-.1,1.734,1.734,0,0,1,.75.825C32.228,144.36,32.592,144.986,32.409,145.306Z"/>
          <path class="cls-8" d="M34.172,141.466c-.178,0-.318-.2-.409-.347-.569-.922-.083-1.944.246-2.856.123-.339.547-.022.71.112a1.837,1.837,0,0,1,.745,1.166,1.724,1.724,0,0,1-.37,1.052C34.919,140.857,34.541,141.475,34.172,141.466Z"/>
          <path class="cls-8" d="M38.459,142.372c-.161-.076-.209-.312-.232-.484-.143-1.074.718-1.808,1.39-2.506.251-.259.509.2.6.391a1.843,1.843,0,0,1,.2,1.369,1.725,1.725,0,0,1-.767.809C39.389,142.121,38.792,142.531,38.459,142.372Z"/>
          <path class="cls-8" d="M34.3,147.017c.151.1.169.336.17.509.01,1.083-.935,1.7-1.689,2.315-.28.226-.479-.265-.549-.463a1.838,1.838,0,0,1-.034-1.384,1.731,1.731,0,0,1,.861-.708C33.341,147.151,33.984,146.818,34.3,147.017Z"/>
          <path class="cls-8" d="M35.316,143.065c-.144-.1-.374-.033-.536.029-1.01.389-1.242,1.5-1.532,2.422-.108.344.422.348.632.341a1.848,1.848,0,0,0,1.3-.477,1.729,1.729,0,0,0,.342-1.061C35.542,144,35.615,143.281,35.316,143.065Z"/>
          <path class="cls-8" d="M37.005,153.113c-.076.161.036.374.126.522.567.923,1.7.95,2.66,1.067.358.044.266-.478.22-.683a1.842,1.842,0,0,0-.7-1.192,1.74,1.74,0,0,0-1.106-.144C37.886,152.721,37.164,152.78,37.005,153.113Z"/>
        </g>
        <ellipse class="cls-9" cx="35.42" cy="162.107" rx="3.541" ry="2.623" transform="translate(-115.233 92.559) rotate(-52.894)"/>
        <ellipse class="cls-9" cx="31.624" cy="161.281" rx="3.541" ry="2.623" transform="translate(-126.285 115.715) rotate(-62.811)"/>
        <ellipse class="cls-9" cx="28.741" cy="158.676" rx="3.541" ry="2.623" transform="translate(-129.586 128.073) rotate(-68.793)"/>
        <ellipse class="cls-9" cx="27.806" cy="162.416" rx="3.541" ry="2.623" transform="translate(-136.634 151.844) rotate(-76.607)"/>
        <ellipse class="cls-9" cx="32.925" cy="165.045" rx="3.541" ry="2.623" transform="translate(-113.757 82.532) rotate(-49.359)"/>
        <ellipse class="cls-9" cx="29.107" cy="166.181" rx="3.541" ry="2.623" transform="translate(-132.011 116.137) rotate(-62.811)"/>
      </g>
      <g>
        <path d="M5.328,166.276l.013-.051c.012-.044.024-.091.037-.142.021-.085.049-.2.083-.356a.078.078,0,0,1,.023-.043.07.07,0,0,1,.034-.012.046.046,0,0,1,.031.014.048.048,0,0,1,.014.034.127.127,0,0,1-.009.043c-.006.014-.014.039-.025.072s-.022.07-.034.111-.024.082-.037.127-.024.085-.036.125c-.018.065-.031.114-.04.148s-.017.052-.028.059a.051.051,0,0,1-.03.01.044.044,0,0,1-.046-.034c-.014-.054-.035-.14-.063-.256-.033-.145-.06-.254-.079-.328,0,.018-.009.038-.014.059-.012.051-.025.106-.041.164q-.056.231-.093.354a.059.059,0,0,1-.022.028.051.051,0,0,1-.031.012.042.042,0,0,1-.045-.033c-.017-.058-.033-.113-.047-.163s-.029-.1-.043-.153c-.029-.1-.061-.2-.095-.287a.151.151,0,0,1-.01-.054.054.054,0,0,1,.013-.039.046.046,0,0,1,.031-.013.061.061,0,0,1,.061.051c.009.036.019.073.028.112s.019.078.028.119.019.08.029.121.019.077.029.113.02.075.029.1l.132-.553c.011-.044.034-.065.067-.065s.057.023.066.069Q5.281,166.117,5.328,166.276Z"/>
        <path d="M5.979,165.38a.072.072,0,0,1,.006.037.106.106,0,0,1-.01.038.087.087,0,0,1-.021.025.072.072,0,0,1-.046.018.122.122,0,0,1-.037,0,.078.078,0,0,1-.024-.016.079.079,0,0,1-.026-.061.068.068,0,0,1,.02-.055.1.1,0,0,1,.064-.028A.074.074,0,0,1,5.979,165.38Zm-.041.567c0,.066,0,.125,0,.178s0,.107,0,.163a.427.427,0,0,1,0,.1.062.062,0,0,1-.012.019.05.05,0,0,1-.073,0,.07.07,0,0,1-.013-.06c.007-.083.011-.166.011-.251s0-.153,0-.205,0-.092,0-.119a.126.126,0,0,1,0-.051.043.043,0,0,1,.013-.019.052.052,0,0,1,.074,0,.058.058,0,0,1,.014.046C5.945,165.814,5.942,165.882,5.938,165.947Z"/>
        <path d="M6.8,165.941l0,.211c0,.069,0,.135.007.2a.057.057,0,0,1-.016.05.061.061,0,0,1-.038.016.051.051,0,0,1-.049-.061.7.7,0,0,0,.006-.071l0-.083c0-.058,0-.1,0-.143s0-.064,0-.081,0-.042,0-.075a.211.211,0,0,0-.026-.095.074.074,0,0,0-.068-.044.14.14,0,0,0-.076.018.231.231,0,0,0-.06.049.343.343,0,0,0-.074.152v.1c0,.118,0,.2,0,.233a.159.159,0,0,1-.007.076.038.038,0,0,1-.038.02.053.053,0,0,1-.042-.018.085.085,0,0,1-.012-.062c.006-.084.01-.17.01-.259,0-.151,0-.263-.007-.334,0-.044.016-.065.055-.065.02,0,.033,0,.038.018a.067.067,0,0,1,.006.039l0,.035v.059a.281.281,0,0,1,.153-.144.217.217,0,0,1,.062-.01.168.168,0,0,1,.064.014.148.148,0,0,1,.058.046A.339.339,0,0,1,6.8,165.941Z"/>
        <path d="M7.187,166.078a.386.386,0,0,0,.049.206.16.16,0,0,0,.143.076.129.129,0,0,0,.124-.084c.016-.036.037-.055.061-.055a.041.041,0,0,1,.028.011.054.054,0,0,1,.01.038.12.12,0,0,1-.019.058.217.217,0,0,1-.05.056.269.269,0,0,1-.169.054.233.233,0,0,1-.184-.091.338.338,0,0,1-.081-.227.845.845,0,0,1,.023-.215.457.457,0,0,1,.061-.137.218.218,0,0,1,.186-.11.206.206,0,0,1,.2.112.539.539,0,0,1,.043.23.08.08,0,0,1-.014.057.086.086,0,0,1-.059.015Zm.335-.085a.3.3,0,0,0-.071-.232.1.1,0,0,0-.072-.027.133.133,0,0,0-.069.016.173.173,0,0,0-.048.042.2.2,0,0,0-.035.06.329.329,0,0,0-.023.069.466.466,0,0,0-.013.073l.134.006A1.947,1.947,0,0,0,7.522,165.993Z"/>
        <path d="M8.828,165.009c0,.048,0,.1,0,.154v.35c0,.179,0,.352.01.519s.012.26.015.274a.284.284,0,0,0,.009.039l.01.025a.059.059,0,0,1,0,.023.033.033,0,0,1-.012.026.04.04,0,0,1-.027.011q-.063,0-.066-.126v0a.207.207,0,0,1-.193.137.212.212,0,0,1-.18-.091.458.458,0,0,1-.073-.277.467.467,0,0,1,.1-.3.264.264,0,0,1,.208-.107.258.258,0,0,1,.116.024c0-.046,0-.095,0-.145s0-.125,0-.188,0-.122,0-.18,0-.113,0-.165c0-.108,0-.18,0-.217s0-.061.015-.07a.053.053,0,0,1,.039-.016.057.057,0,0,1,.04.016.06.06,0,0,1,.015.054c0,.027-.005.061-.007.1S8.829,164.96,8.828,165.009Zm-.08.976v-.206a.2.2,0,0,0-.106-.036.187.187,0,0,0-.088.02.212.212,0,0,0-.068.06.375.375,0,0,0-.069.235.314.314,0,0,0,.095.272.119.119,0,0,0,.071.021.135.135,0,0,0,.069-.016.19.19,0,0,0,.048-.041.275.275,0,0,0,.048-.107C8.748,166.134,8.748,166.066,8.748,165.985Z"/>
        <path d="M9.6,165.711a.055.055,0,0,1-.053.06.292.292,0,0,0-.146.111.39.39,0,0,0-.1.208.815.815,0,0,0,0,.082c0,.059,0,.121.008.186a.059.059,0,0,1-.056.066.049.049,0,0,1-.036-.015.057.057,0,0,1-.013-.047c0-.019,0-.044.005-.07l0-.086c0-.051,0-.108,0-.17,0-.106,0-.184,0-.234a.306.306,0,0,1,0-.089.043.043,0,0,1,.013-.019.048.048,0,0,1,.036-.015.05.05,0,0,1,.036.014.045.045,0,0,1,.015.038l0,.045-.005.054c0,.034-.008.071-.011.11a.647.647,0,0,1,.114-.185.222.222,0,0,1,.145-.093.046.046,0,0,1,.038.015A.05.05,0,0,1,9.6,165.711Z"/>
        <path d="M9.961,165.38a.072.072,0,0,1,.006.037.089.089,0,0,1-.011.038.071.071,0,0,1-.02.025.072.072,0,0,1-.046.018.118.118,0,0,1-.037,0,.078.078,0,0,1-.024-.016.075.075,0,0,1-.026-.061.068.068,0,0,1,.02-.055.1.1,0,0,1,.064-.028A.074.074,0,0,1,9.961,165.38Zm-.041.567c0,.066-.005.125-.005.178s0,.107.005.163a.427.427,0,0,1,0,.1.062.062,0,0,1-.012.019.05.05,0,0,1-.073,0,.07.07,0,0,1-.013-.06c.007-.083.01-.166.01-.251s0-.153,0-.205,0-.092-.005-.119a.126.126,0,0,1,0-.051.043.043,0,0,1,.013-.019.052.052,0,0,1,.037-.016.049.049,0,0,1,.036.015.055.055,0,0,1,.015.046C9.927,165.814,9.924,165.882,9.92,165.947Z"/>
        <path d="M10.78,165.941l0,.211c0,.069,0,.135.007.2a.057.057,0,0,1-.017.05.059.059,0,0,1-.038.016.05.05,0,0,1-.048-.061c0-.021,0-.045,0-.071l.005-.083c0-.058,0-.1,0-.143s0-.064,0-.081,0-.042,0-.075a.225.225,0,0,0-.026-.095.076.076,0,0,0-.069-.044.143.143,0,0,0-.076.018.231.231,0,0,0-.06.049.343.343,0,0,0-.074.152v.1c0,.118,0,.2,0,.233a.136.136,0,0,1-.007.076.037.037,0,0,1-.037.02.052.052,0,0,1-.042-.018.084.084,0,0,1-.013-.062c.007-.084.01-.17.01-.259,0-.151,0-.263-.007-.334,0-.044.016-.065.055-.065.02,0,.033,0,.039.018a.089.089,0,0,1,.006.039l0,.035v.059a.284.284,0,0,1,.153-.144.217.217,0,0,1,.062-.01.168.168,0,0,1,.064.014.141.141,0,0,1,.058.046A.332.332,0,0,1,10.78,165.941Z"/>
        <path d="M11.629,165.7a.051.051,0,0,1,.014.038.109.109,0,0,1-.021.055c-.015.02-.033.043-.054.066s-.044.048-.067.073-.039.04-.055.058a1.08,1.08,0,0,0,.143.27c.019.026.033.048.044.066a.1.1,0,0,1,.015.045.048.048,0,0,1-.017.035.052.052,0,0,1-.036.018.059.059,0,0,1-.059-.039c-.011-.028-.025-.057-.041-.092l-.05-.1c-.028-.054-.052-.1-.072-.133-.018.016-.037.035-.058.053l-.067.063-.012.01v.055l0,.059,0,.056a.059.059,0,0,1-.017.044.057.057,0,0,1-.038.017.053.053,0,0,1-.036-.015.079.079,0,0,1-.013-.061c0-.03,0-.072,0-.122s0-.106,0-.163c0-.173,0-.3,0-.381v-.254c0-.089,0-.174,0-.256,0-.185-.011-.319-.02-.406a.052.052,0,0,1,.015-.047.063.063,0,0,1,.041-.015.066.066,0,0,1,.042.015.061.061,0,0,1,.018.053c0,.024,0,.056,0,.094s0,.08,0,.126c0,.137,0,.239,0,.3v.2l0,.216c0,.147,0,.274,0,.379a2.058,2.058,0,0,0,.217-.243.575.575,0,0,0,.072-.106.08.08,0,0,1,.071-.053A.046.046,0,0,1,11.629,165.7Z"/>
        <path d="M12.168,166.357c.075-.278.125-.484.153-.62.007-.04.027-.06.059-.06a.046.046,0,0,1,.034.012.041.041,0,0,1,.015.032.205.205,0,0,1-.015.07c-.009.026-.022.067-.039.124s-.034.115-.052.179-.036.129-.055.2-.037.138-.056.207a2.66,2.66,0,0,1-.137.431.053.053,0,0,1-.036.013A.065.065,0,0,1,12,166.93a.038.038,0,0,1-.016-.031.111.111,0,0,1,.014-.054.66.66,0,0,0,.032-.065c.011-.027.024-.058.037-.093.022-.061.044-.128.065-.2l-.048-.162c-.019-.063-.038-.128-.058-.192a3.061,3.061,0,0,0-.1-.3.322.322,0,0,1-.033-.1.059.059,0,0,1,.014-.042.045.045,0,0,1,.035-.014c.028,0,.047.018.058.055s.023.075.035.117.023.083.034.125.023.085.034.127l.031.12.027.1Z"/>
        <path d="M13.62,165.009c0,.048,0,.1,0,.154v.35c0,.179,0,.352.01.519s.012.26.015.274a.284.284,0,0,0,.009.039l.01.025a.059.059,0,0,1,0,.023.033.033,0,0,1-.012.026.04.04,0,0,1-.027.011q-.063,0-.066-.126v0a.207.207,0,0,1-.193.137.212.212,0,0,1-.18-.091.458.458,0,0,1-.073-.277.467.467,0,0,1,.1-.3.264.264,0,0,1,.208-.107.258.258,0,0,1,.116.024c0-.046,0-.095,0-.145s0-.125,0-.188,0-.122,0-.18,0-.113,0-.165c0-.108,0-.18,0-.217s0-.061.015-.07a.053.053,0,0,1,.039-.016.057.057,0,0,1,.04.016.06.06,0,0,1,.015.054c0,.027-.005.061-.007.1S13.621,164.96,13.62,165.009Zm-.08.976v-.206a.2.2,0,0,0-.106-.036.187.187,0,0,0-.088.02.212.212,0,0,0-.068.06.375.375,0,0,0-.069.235.314.314,0,0,0,.1.272.119.119,0,0,0,.071.021.135.135,0,0,0,.069-.016.19.19,0,0,0,.048-.041.275.275,0,0,0,.048-.107C13.54,166.134,13.54,166.066,13.54,165.985Z"/>
        <path d="M14.391,165.711a.055.055,0,0,1-.053.06.287.287,0,0,0-.145.111.392.392,0,0,0-.1.208c0,.03,0,.057,0,.082,0,.059,0,.121.008.186a.056.056,0,0,1-.016.049.057.057,0,0,1-.039.017.053.053,0,0,1-.037-.015.057.057,0,0,1-.012-.047c0-.019,0-.044,0-.07l0-.086c0-.051,0-.108,0-.17,0-.106,0-.184,0-.234a.416.416,0,0,1,0-.089.07.07,0,0,1,.013-.019.051.051,0,0,1,.037-.015.051.051,0,0,1,.036.014.045.045,0,0,1,.014.038l0,.045-.006.054c0,.034-.007.071-.011.11a.629.629,0,0,1,.115-.185.22.22,0,0,1,.144-.093.044.044,0,0,1,.038.015A.05.05,0,0,1,14.391,165.711Z"/>
        <path d="M14.753,165.38a.085.085,0,0,1,0,.037.089.089,0,0,1-.01.038.087.087,0,0,1-.021.025.072.072,0,0,1-.045.018.13.13,0,0,1-.038,0,.082.082,0,0,1-.049-.077.068.068,0,0,1,.019-.055.1.1,0,0,1,.065-.028A.074.074,0,0,1,14.753,165.38Zm-.041.567c0,.066,0,.125,0,.178s0,.107,0,.163a.463.463,0,0,1,0,.1.047.047,0,0,1-.012.019.051.051,0,0,1-.036.017.057.057,0,0,1-.037-.015c-.011-.01-.015-.029-.013-.06.008-.083.011-.166.011-.251s0-.153,0-.205,0-.092,0-.119a.159.159,0,0,1,0-.051.045.045,0,0,1,.014-.019.05.05,0,0,1,.037-.016.049.049,0,0,1,.036.015.062.062,0,0,1,.015.046C14.718,165.814,14.715,165.882,14.712,165.947Z"/>
        <path d="M15.572,165.941l0,.211c0,.069,0,.135.007.2a.057.057,0,0,1-.017.05.059.059,0,0,1-.038.016.05.05,0,0,1-.048-.061c0-.021,0-.045,0-.071l.005-.083c0-.058,0-.1,0-.143s0-.064,0-.081,0-.042,0-.075a.225.225,0,0,0-.026-.095.076.076,0,0,0-.069-.044.143.143,0,0,0-.076.018.231.231,0,0,0-.06.049.343.343,0,0,0-.074.152v.1c0,.118,0,.2,0,.233a.136.136,0,0,1-.007.076.037.037,0,0,1-.037.02.052.052,0,0,1-.042-.018.084.084,0,0,1-.013-.062c.007-.084.01-.17.01-.259,0-.151,0-.263-.007-.334,0-.044.016-.065.055-.065.02,0,.033,0,.039.018a.089.089,0,0,1,.006.039l0,.035v.059a.284.284,0,0,1,.153-.144.217.217,0,0,1,.062-.01.168.168,0,0,1,.064.014.141.141,0,0,1,.058.046A.332.332,0,0,1,15.572,165.941Z"/>
        <path d="M16.421,165.7a.051.051,0,0,1,.014.038.109.109,0,0,1-.021.055c-.015.02-.033.043-.054.066s-.044.048-.067.073-.039.04-.055.058a1.08,1.08,0,0,0,.143.27c.019.026.033.048.044.066a.1.1,0,0,1,.015.045.048.048,0,0,1-.017.035.052.052,0,0,1-.036.018.059.059,0,0,1-.059-.039c-.011-.028-.025-.057-.041-.092l-.05-.1c-.028-.054-.052-.1-.072-.133-.018.016-.037.035-.058.053l-.067.063-.012.01v.055l0,.059,0,.056a.059.059,0,0,1-.017.044.057.057,0,0,1-.038.017.053.053,0,0,1-.036-.015.079.079,0,0,1-.013-.061c0-.03,0-.072,0-.122s0-.106,0-.163c0-.173,0-.3,0-.381v-.254c0-.089,0-.174,0-.256,0-.185-.011-.319-.02-.406a.052.052,0,0,1,.015-.047.063.063,0,0,1,.041-.015.068.068,0,0,1,.042.015.061.061,0,0,1,.018.053c0,.024,0,.056,0,.094s0,.08,0,.126c0,.137,0,.239,0,.3v.2l0,.216c0,.147,0,.274,0,.379a2.058,2.058,0,0,0,.217-.243.575.575,0,0,0,.072-.106.08.08,0,0,1,.071-.053A.046.046,0,0,1,16.421,165.7Z"/>
        <path d="M17.544,164.953l.013-.076c0-.058-.018-.094-.058-.108a.127.127,0,0,0-.043-.006.089.089,0,0,0-.052.018.131.131,0,0,0-.043.066,2.5,2.5,0,0,0-.033.6c0,.085,0,.167,0,.246l.157,0c.044,0,.065.017.065.049a.046.046,0,0,1-.033.044.1.1,0,0,1-.037,0c-.052,0-.088,0-.106,0H17.33v.175c0,.188,0,.3.006.34a.246.246,0,0,1,0,.074.071.071,0,0,1-.012.029.05.05,0,0,1-.04.026.043.043,0,0,1-.036-.018.075.075,0,0,1-.013-.05c0-.021,0-.051,0-.09s0-.085,0-.139v-.184c0-.05,0-.1,0-.157l-.053,0a.057.057,0,0,1-.047-.014.046.046,0,0,1-.015-.033.041.041,0,0,1,.007-.027.056.056,0,0,1,.016-.018.066.066,0,0,1,.04-.013l.052,0c0-.141,0-.275,0-.4s0-.244.011-.314a.621.621,0,0,1,.038-.172.187.187,0,0,1,.187-.126.172.172,0,0,1,.17.142.342.342,0,0,1,.015.1.123.123,0,0,1-.018.076.05.05,0,0,1-.041.022Q17.544,165.013,17.544,164.953Z"/>
        <path d="M17.989,166.436a.2.2,0,0,1-.1-.023.218.218,0,0,1-.084-.074.517.517,0,0,1-.077-.306.429.429,0,0,1,.083-.28.25.25,0,0,1,.207-.1.218.218,0,0,1,.18.094.449.449,0,0,1,.073.273.508.508,0,0,1-.085.309A.235.235,0,0,1,17.989,166.436Zm.09-.678a.126.126,0,0,0-.077-.024.132.132,0,0,0-.078.025.183.183,0,0,0-.06.066.476.476,0,0,0-.05.236.4.4,0,0,0,.048.221.145.145,0,0,0,.128.071.157.157,0,0,0,.14-.1.466.466,0,0,0,.047-.221A.323.323,0,0,0,18.079,165.758Z"/>
        <path d="M18.973,165.711a.054.054,0,0,1-.053.06.287.287,0,0,0-.145.111.392.392,0,0,0-.1.208.815.815,0,0,0,0,.082c0,.059,0,.121.008.186a.059.059,0,0,1-.016.049.057.057,0,0,1-.039.017.053.053,0,0,1-.037-.015.057.057,0,0,1-.012-.047.681.681,0,0,0,0-.07c0-.028,0-.056,0-.086,0-.051,0-.108,0-.17,0-.106,0-.184,0-.234a.416.416,0,0,1,0-.089.053.053,0,0,1,.013-.019.051.051,0,0,1,.037-.015.051.051,0,0,1,.051.052c0,.015,0,.03,0,.045s0,.032-.006.054-.008.071-.011.11a.629.629,0,0,1,.115-.185.22.22,0,0,1,.144-.093.044.044,0,0,1,.038.015A.05.05,0,0,1,18.973,165.711Z"/>
        <path d="M19.869,166.357c.074-.278.125-.484.152-.62q.01-.06.06-.06a.049.049,0,0,1,.034.012.043.043,0,0,1,.014.032.227.227,0,0,1-.014.07,1.2,1.2,0,0,0-.039.124c-.018.055-.035.115-.053.179s-.035.129-.055.2-.037.138-.055.207a2.716,2.716,0,0,1-.138.431.052.052,0,0,1-.035.013.059.059,0,0,1-.039-.013.037.037,0,0,1-.017-.031.1.1,0,0,1,.015-.054c.009-.017.02-.04.031-.065s.024-.058.037-.093c.022-.061.044-.128.065-.2-.015-.05-.031-.1-.047-.162s-.038-.128-.059-.192a2.8,2.8,0,0,0-.1-.3.322.322,0,0,1-.033-.1.064.064,0,0,1,.014-.042.043.043,0,0,1,.035-.014c.028,0,.048.018.059.055s.022.075.034.117.023.083.034.125.023.085.034.127.022.081.031.12l.027.1Z"/>
        <path d="M20.623,166.436a.2.2,0,0,1-.1-.023.211.211,0,0,1-.084-.074.517.517,0,0,1-.077-.306.429.429,0,0,1,.083-.28.25.25,0,0,1,.207-.1.218.218,0,0,1,.18.094.456.456,0,0,1,.073.273.514.514,0,0,1-.085.309A.235.235,0,0,1,20.623,166.436Zm.09-.678a.123.123,0,0,0-.076-.024.13.13,0,0,0-.078.025.2.2,0,0,0-.061.066.476.476,0,0,0-.049.236.394.394,0,0,0,.048.221.145.145,0,0,0,.127.071.157.157,0,0,0,.141-.1.478.478,0,0,0,.047-.221A.321.321,0,0,0,20.713,165.758Z"/>
        <path d="M21.287,166.177c0,.116.043.173.129.173a.151.151,0,0,0,.127-.074.312.312,0,0,0,.056-.158c0-.058,0-.11,0-.158,0-.07,0-.139,0-.209a.056.056,0,0,1,.017-.049.057.057,0,0,1,.038-.017.053.053,0,0,1,.036.015.048.048,0,0,1,.012.045q-.018.189-.018.363a1.954,1.954,0,0,0,.005.2.135.135,0,0,0,.012.034.156.156,0,0,1,.015.05.054.054,0,0,1-.011.032.046.046,0,0,1-.035.013c-.049,0-.072-.045-.071-.133a.325.325,0,0,1-.061.084.2.2,0,0,1-.212.038q-.129-.05-.129-.255c0-.072,0-.143,0-.212s0-.138,0-.2a.078.078,0,0,1,.017-.049.06.06,0,0,1,.037-.016.055.055,0,0,1,.038.015.054.054,0,0,1,.011.05c0,.023,0,.054-.006.092s0,.076,0,.116C21.288,166.025,21.287,166.1,21.287,166.177Z"/>
        <path d="M7.982,167.889a.067.067,0,0,1,.016-.05.053.053,0,0,1,.037-.017.047.047,0,0,1,.035.017.059.059,0,0,1,.011.05c0,.061-.009.131-.01.211.053,0,.093,0,.121,0l.058,0c.045,0,.067.014.067.048a.041.041,0,0,1-.034.041.062.062,0,0,1-.028,0H8.07v0c0,.27,0,.422.011.456a.273.273,0,0,0,.026.075.072.072,0,0,0,.062.039.082.082,0,0,0,.083-.061c.006-.032.023-.049.05-.049a.034.034,0,0,1,.026.012.057.057,0,0,1,.011.036.119.119,0,0,1-.014.051.165.165,0,0,1-.039.048.184.184,0,0,1-.121.045A.171.171,0,0,1,8,168.7a.375.375,0,0,1-.016-.12v-.394l-.045,0a.054.054,0,0,1-.045-.015.045.045,0,0,1-.016-.034.047.047,0,0,1,.016-.033.069.069,0,0,1,.047-.014h.043Z"/>
        <path d="M8.807,168.837a.22.22,0,0,1-.187-.1.514.514,0,0,1-.078-.306.434.434,0,0,1,.083-.28.255.255,0,0,1,.207-.1.218.218,0,0,1,.18.094.453.453,0,0,1,.073.274.5.5,0,0,1-.085.308A.232.232,0,0,1,8.807,168.837Zm.09-.679a.124.124,0,0,0-.076-.023.132.132,0,0,0-.079.024.192.192,0,0,0-.06.066.477.477,0,0,0-.05.237.4.4,0,0,0,.048.22.148.148,0,0,0,.128.072.157.157,0,0,0,.141-.1A.475.475,0,0,0,9,168.432.323.323,0,0,0,8.9,168.158Z"/>
        <path d="M9.991,167.78a.09.09,0,0,1,.005.037.081.081,0,0,1-.01.038.092.092,0,0,1-.021.026.077.077,0,0,1-.046.017.127.127,0,0,1-.037,0,.075.075,0,0,1-.024-.015.081.081,0,0,1-.026-.062.066.066,0,0,1,.02-.054.1.1,0,0,1,.064-.029A.076.076,0,0,1,9.991,167.78Zm-.041.567c0,.066,0,.125,0,.178s0,.108,0,.163a.463.463,0,0,1,0,.1.044.044,0,0,1-.012.019.051.051,0,0,1-.036.017.055.055,0,0,1-.037-.015c-.011-.009-.015-.029-.013-.059.007-.083.011-.166.011-.251s0-.153,0-.205,0-.093-.005-.119a.132.132,0,0,1,0-.052.045.045,0,0,1,.014-.019.053.053,0,0,1,.037-.015.054.054,0,0,1,.036.014.059.059,0,0,1,.014.046C9.956,168.215,9.953,168.282,9.95,168.347Z"/>
        <path d="M10.417,168.438v.07c0,.033,0,.114.007.243a.059.059,0,0,1-.038.06.066.066,0,0,1-.025,0,.04.04,0,0,1-.027-.014.1.1,0,0,1-.013-.06c0-.03,0-.061,0-.094s0-.064,0-.093c0-.07,0-.124,0-.165,0-.063,0-.142-.008-.236a.071.071,0,0,1,.014-.049.049.049,0,0,1,.037-.018.055.055,0,0,1,.04.018.049.049,0,0,1,.017.038l0,.037,0,.031v.014a.27.27,0,0,1,.136-.134.177.177,0,0,1,.06-.011.135.135,0,0,1,.107.054.2.2,0,0,1,.042.09.231.231,0,0,1,.2-.144c.077,0,.129.048.154.144a.51.51,0,0,1,.014.126v.12q0,.171.009.282a.059.059,0,0,1-.016.048.051.051,0,0,1-.032.016.062.062,0,0,1-.025,0,.054.054,0,0,1-.018-.011.052.052,0,0,1-.017-.045c0-.02,0-.04,0-.065s0-.048,0-.074c0-.061,0-.109,0-.144s0-.059,0-.079,0-.046,0-.083a.2.2,0,0,0-.026-.1.074.074,0,0,0-.064-.042.132.132,0,0,0-.068.017.16.16,0,0,0-.049.048.329.329,0,0,0-.053.158v.069c0,.112,0,.208.007.289a.06.06,0,0,1-.018.048.061.061,0,0,1-.038.016.059.059,0,0,1-.037-.014.054.054,0,0,1-.014-.045c0-.021,0-.043.005-.068s0-.05,0-.078c0-.062,0-.11,0-.144v-.08a.444.444,0,0,0,0-.053.241.241,0,0,0-.028-.122.077.077,0,0,0-.067-.041.125.125,0,0,0-.07.02.217.217,0,0,0-.053.052.412.412,0,0,0-.06.155Z"/>
        <path d="M11.467,168.779l.009-.845v-.127c0-.041,0-.081,0-.12l0-.117c0-.039,0-.079,0-.121,0-.091-.007-.163-.011-.218a.357.357,0,0,1,0-.1.049.049,0,0,1,.014-.022.056.056,0,0,1,.041-.014c.032,0,.048.028.048.081l-.005.41v.322c0,.044,0,.089,0,.133,0,.093,0,.161,0,.205a.354.354,0,0,1,.087-.13.212.212,0,0,1,.149-.069.19.19,0,0,1,.2.151.441.441,0,0,1,.014.117.5.5,0,0,1-.02.138.526.526,0,0,1-.054.126.494.494,0,0,1-.08.1.542.542,0,0,1-.1.079.4.4,0,0,1-.238.073A.049.049,0,0,1,11.467,168.779Zm.168-.537a.373.373,0,0,0-.052.085.269.269,0,0,0-.023.086c0,.025,0,.049,0,.068v.1c0,.016,0,.074,0,.173a.182.182,0,0,0,.1-.026.671.671,0,0,0,.106-.068.447.447,0,0,0,.076-.085.44.44,0,0,0,.078-.259.2.2,0,0,0-.033-.127.1.1,0,0,0-.082-.041.172.172,0,0,0-.091.026A.282.282,0,0,0,11.635,168.242Z"/>
        <path d="M12.446,167.78a.09.09,0,0,1,.005.037.081.081,0,0,1-.01.038.092.092,0,0,1-.021.026.077.077,0,0,1-.046.017.127.127,0,0,1-.037,0,.075.075,0,0,1-.024-.015.08.08,0,0,1-.025-.062.066.066,0,0,1,.019-.054.1.1,0,0,1,.065-.029A.075.075,0,0,1,12.446,167.78Zm-.041.567c0,.066,0,.125,0,.178s0,.108,0,.163a.463.463,0,0,1,0,.1.044.044,0,0,1-.012.019.051.051,0,0,1-.036.017.055.055,0,0,1-.037-.015c-.011-.009-.015-.029-.013-.059.007-.083.011-.166.011-.251s0-.153,0-.205,0-.093,0-.119a.166.166,0,0,1,0-.052.045.045,0,0,1,.014-.019.053.053,0,0,1,.037-.015.054.054,0,0,1,.036.014.059.059,0,0,1,.014.046C12.411,168.215,12.408,168.282,12.405,168.347Z"/>
        <path d="M12.764,168.779l.008-.845v-.127c0-.041,0-.081,0-.12l0-.117c0-.039,0-.079,0-.121,0-.091-.008-.163-.011-.218a.381.381,0,0,1,0-.1.076.076,0,0,1,.014-.022.058.058,0,0,1,.041-.014c.032,0,.048.028.048.081l-.005.41v.322c0,.044,0,.089,0,.133,0,.093,0,.161,0,.205a.367.367,0,0,1,.087-.13.214.214,0,0,1,.15-.069.189.189,0,0,1,.194.151.4.4,0,0,1,.015.117.5.5,0,0,1-.02.138.57.57,0,0,1-.054.126.5.5,0,0,1-.081.1.537.537,0,0,1-.1.079.4.4,0,0,1-.239.073C12.78,168.833,12.764,168.814,12.764,168.779Zm.167-.537a.412.412,0,0,0-.052.085.243.243,0,0,0-.022.086c0,.025,0,.049,0,.068v.1c0,.016,0,.074,0,.173a.18.18,0,0,0,.095-.026.59.59,0,0,0,.106-.068.44.44,0,0,0,.155-.344.2.2,0,0,0-.033-.127.1.1,0,0,0-.083-.041.172.172,0,0,0-.091.026A.3.3,0,0,0,12.931,168.242Z"/>
        <path d="M13.641,168.478a.393.393,0,0,0,.049.206.162.162,0,0,0,.143.077.13.13,0,0,0,.124-.084c.017-.037.037-.055.061-.055a.039.039,0,0,1,.028.011.047.047,0,0,1,.01.038.117.117,0,0,1-.019.057.2.2,0,0,1-.05.056.27.27,0,0,1-.169.055.236.236,0,0,1-.184-.091.342.342,0,0,1-.081-.228.845.845,0,0,1,.023-.215.45.45,0,0,1,.061-.136.22.22,0,0,1,.186-.111.207.207,0,0,1,.2.113.534.534,0,0,1,.043.229.083.083,0,0,1-.014.058.086.086,0,0,1-.059.014Zm.335-.085a.292.292,0,0,0-.071-.232.1.1,0,0,0-.072-.026.133.133,0,0,0-.069.015.191.191,0,0,0-.048.042.226.226,0,0,0-.035.061.389.389,0,0,0-.023.068.488.488,0,0,0-.013.073l.134.006A1.934,1.934,0,0,0,13.976,168.393Z"/>
        <path d="M14.526,168.7a.074.074,0,0,1,.021.025.092.092,0,0,1,.008.038.078.078,0,0,1-.009.039.072.072,0,0,1-.023.026.105.105,0,0,1-.062.018.076.076,0,0,1-.074-.047.086.086,0,0,1-.007-.036.077.077,0,0,1,.056-.079.115.115,0,0,1,.031,0,.11.11,0,0,1,.031,0A.066.066,0,0,1,14.526,168.7Z"/>
        <path d="M15.869,168.342l0,.211q0,.1.006.195a.056.056,0,0,1-.016.05.065.065,0,0,1-.038.015.053.053,0,0,1-.036-.015.051.051,0,0,1-.013-.045.721.721,0,0,0,.006-.072l.005-.083c0-.057,0-.1,0-.142s0-.065,0-.081,0-.042,0-.075a.226.226,0,0,0-.027-.1.075.075,0,0,0-.068-.044.143.143,0,0,0-.076.019.227.227,0,0,0-.06.048.342.342,0,0,0-.074.153v.1c0,.118,0,.2,0,.234a.161.161,0,0,1-.007.076.038.038,0,0,1-.037.019.053.053,0,0,1-.042-.017.084.084,0,0,1-.013-.063c.007-.084.01-.17.01-.259,0-.151,0-.262-.007-.334,0-.044.016-.065.055-.065a.038.038,0,0,1,.039.019.073.073,0,0,1,.005.039l0,.035v.058a.278.278,0,0,1,.153-.143.188.188,0,0,1,.062-.011.153.153,0,0,1,.064.015.134.134,0,0,1,.058.046A.332.332,0,0,1,15.869,168.342Z"/>
        <path d="M16.428,168.837a.207.207,0,0,1-.1-.024.21.21,0,0,1-.084-.074.522.522,0,0,1-.077-.306.434.434,0,0,1,.083-.28.252.252,0,0,1,.207-.1.22.22,0,0,1,.18.094.453.453,0,0,1,.073.274.5.5,0,0,1-.085.308A.234.234,0,0,1,16.428,168.837Zm.09-.679a.124.124,0,0,0-.076-.023.132.132,0,0,0-.079.024.192.192,0,0,0-.06.066.467.467,0,0,0-.05.237.4.4,0,0,0,.048.22.145.145,0,0,0,.128.072.157.157,0,0,0,.14-.1.463.463,0,0,0,.047-.221A.326.326,0,0,0,16.518,168.158Z"/>
        <path d="M17.024,167.889a.067.067,0,0,1,.016-.05.053.053,0,0,1,.037-.017.047.047,0,0,1,.035.017.059.059,0,0,1,.011.05c-.005.061-.009.131-.01.211.053,0,.093,0,.121,0l.058,0c.045,0,.067.014.067.048a.041.041,0,0,1-.034.041.062.062,0,0,1-.028,0h-.185v0c0,.27,0,.422.011.456a.273.273,0,0,0,.026.075.072.072,0,0,0,.062.039.082.082,0,0,0,.083-.061c.006-.032.023-.049.05-.049a.034.034,0,0,1,.026.012.057.057,0,0,1,.011.036.119.119,0,0,1-.014.051.165.165,0,0,1-.039.048.184.184,0,0,1-.121.045.171.171,0,0,1-.167-.134.375.375,0,0,1-.016-.12v-.394l-.045,0a.054.054,0,0,1-.045-.015.045.045,0,0,1-.016-.034.047.047,0,0,1,.016-.033.069.069,0,0,1,.047-.014h.043Z"/>
        <path d="M18.105,167.889a.067.067,0,0,1,.017-.05.049.049,0,0,1,.036-.017.051.051,0,0,1,.035.017.059.059,0,0,1,.012.05c-.006.061-.01.131-.011.211.053,0,.094,0,.121,0l.058,0c.044,0,.067.014.067.048a.042.042,0,0,1-.034.041.062.062,0,0,1-.028,0h-.185v0a4.153,4.153,0,0,0,.012.456.247.247,0,0,0,.025.075.073.073,0,0,0,.062.039.082.082,0,0,0,.083-.061c.006-.032.023-.049.05-.049a.037.037,0,0,1,.027.012.064.064,0,0,1,.01.036.119.119,0,0,1-.014.051.165.165,0,0,1-.039.048.187.187,0,0,1-.12.045.169.169,0,0,1-.167-.134.372.372,0,0,1-.017-.12v-.394l-.045,0a.056.056,0,0,1-.046-.015.048.048,0,0,1-.015-.034.044.044,0,0,1,.016-.033.071.071,0,0,1,.047-.014h.043Z"/>
        <path d="M18.93,168.837a.2.2,0,0,1-.1-.024.2.2,0,0,1-.084-.074.514.514,0,0,1-.078-.306.434.434,0,0,1,.083-.28.254.254,0,0,1,.208-.1.219.219,0,0,1,.179.094.453.453,0,0,1,.073.274.5.5,0,0,1-.085.308A.232.232,0,0,1,18.93,168.837Zm.09-.679a.124.124,0,0,0-.076-.023.127.127,0,0,0-.078.024.2.2,0,0,0-.061.066.477.477,0,0,0-.05.237.4.4,0,0,0,.048.22.146.146,0,0,0,.128.072.157.157,0,0,0,.141-.1.475.475,0,0,0,.047-.221A.326.326,0,0,0,19.02,168.158Z"/>
        <path d="M19.727,168.837a.207.207,0,0,1-.1-.024.21.21,0,0,1-.084-.074.522.522,0,0,1-.077-.306.434.434,0,0,1,.083-.28.252.252,0,0,1,.207-.1.219.219,0,0,1,.18.094.453.453,0,0,1,.073.274.5.5,0,0,1-.085.308A.232.232,0,0,1,19.727,168.837Zm.09-.679a.124.124,0,0,0-.076-.023.127.127,0,0,0-.078.024.2.2,0,0,0-.061.066.477.477,0,0,0-.05.237.4.4,0,0,0,.048.22.146.146,0,0,0,.128.072.158.158,0,0,0,.141-.1.476.476,0,0,0,.046-.221A.326.326,0,0,0,19.817,168.158Z"/>
        <path d="M21.166,168.111a.055.055,0,0,1-.052.061.285.285,0,0,0-.146.11.393.393,0,0,0-.1.208c0,.03,0,.058,0,.082,0,.06,0,.121.007.187a.056.056,0,0,1-.015.048.061.061,0,0,1-.039.017.05.05,0,0,1-.037-.015.052.052,0,0,1-.013-.046c0-.02,0-.044,0-.071s0-.055,0-.086c0-.051,0-.107,0-.17,0-.105,0-.183,0-.234a.353.353,0,0,1,0-.089.051.051,0,0,1,.012-.018.052.052,0,0,1,.038-.016.05.05,0,0,1,.035.015.046.046,0,0,1,.015.038c0,.014,0,.029,0,.045s0,.032,0,.053-.008.072-.011.111a.61.61,0,0,1,.114-.186c.056-.061.1-.093.145-.093a.046.046,0,0,1,.038.015A.051.051,0,0,1,21.166,168.111Z"/>
        <path d="M21.427,168.478a.384.384,0,0,0,.049.206.164.164,0,0,0,.144.077.132.132,0,0,0,.124-.084c.016-.037.036-.055.06-.055a.035.035,0,0,1,.027.011.043.043,0,0,1,.011.038.139.139,0,0,1-.018.057.224.224,0,0,1-.051.056.272.272,0,0,1-.169.055.237.237,0,0,1-.184-.091.347.347,0,0,1-.081-.228.8.8,0,0,1,.024-.215.427.427,0,0,1,.06-.136.222.222,0,0,1,.186-.111.206.206,0,0,1,.2.113.55.55,0,0,1,.043.229.078.078,0,0,1-.014.058.083.083,0,0,1-.059.014Zm.335-.085a.292.292,0,0,0-.071-.232.1.1,0,0,0-.071-.026.135.135,0,0,0-.07.015.214.214,0,0,0-.049.042.3.3,0,0,0-.035.061.491.491,0,0,0-.022.068.66.66,0,0,0-.013.073l.134.006A1.934,1.934,0,0,0,21.762,168.393Z"/>
        <path d="M22.612,167.409c0,.049,0,.1,0,.154v.35c0,.18,0,.352.01.519s.011.26.015.275a.191.191,0,0,0,.01.038.1.1,0,0,0,.01.025.086.086,0,0,1,0,.024.035.035,0,0,1-.012.025.045.045,0,0,1-.027.011c-.042,0-.065-.042-.067-.126v0a.206.206,0,0,1-.193.138.216.216,0,0,1-.18-.092.453.453,0,0,1-.073-.276.46.46,0,0,1,.1-.3.262.262,0,0,1,.208-.108.244.244,0,0,1,.115.025c0-.047,0-.1,0-.146s0-.125,0-.187,0-.122,0-.181,0-.113,0-.165c0-.107,0-.18,0-.217s0-.06.015-.07a.054.054,0,0,1,.04-.016.058.058,0,0,1,.039.016c.013.01.017.028.015.055s0,.06-.006.1S22.614,167.36,22.612,167.409Zm-.079.977v-.206a.2.2,0,0,0-.108-.037.193.193,0,0,0-.088.02.234.234,0,0,0-.067.06.376.376,0,0,0-.068.236.313.313,0,0,0,.094.271.12.12,0,0,0,.072.022.134.134,0,0,0,.068-.017.159.159,0,0,0,.048-.041.264.264,0,0,0,.048-.106C22.532,168.534,22.533,168.467,22.533,168.386Z"/>
        <path d="M23.167,168.768a.314.314,0,0,1-.074.205q-.057.069-.087.039a.026.026,0,0,1-.007-.019.075.075,0,0,1,.021-.045.225.225,0,0,0,.054-.135.047.047,0,0,1-.047,0,.075.075,0,0,1-.045-.065.085.085,0,0,1,.025-.062.082.082,0,0,1,.056-.023.1.1,0,0,1,.046.009.093.093,0,0,1,.03.023A.115.115,0,0,1,23.167,168.768Z"/>
        <path d="M10.281,170.741l0,.211c0,.069,0,.135.007.195a.058.058,0,0,1-.016.05.061.061,0,0,1-.038.016.048.048,0,0,1-.036-.016.05.05,0,0,1-.013-.045c0-.021,0-.045.006-.071l0-.083c0-.058,0-.1,0-.143s0-.064,0-.081,0-.042,0-.075a.219.219,0,0,0-.026-.1.075.075,0,0,0-.068-.044.147.147,0,0,0-.077.019.244.244,0,0,0-.059.049.338.338,0,0,0-.074.152v.1c0,.118,0,.2,0,.233a.161.161,0,0,1-.007.076.039.039,0,0,1-.038.02A.052.052,0,0,1,9.8,171.2a.086.086,0,0,1-.012-.062c.006-.084.01-.17.01-.259,0-.152,0-.263-.007-.334,0-.044.016-.066.055-.066.02,0,.033.006.038.019a.075.075,0,0,1,.006.039l0,.035v.059a.281.281,0,0,1,.153-.144.183.183,0,0,1,.061-.011.157.157,0,0,1,.065.015.148.148,0,0,1,.058.046A.339.339,0,0,1,10.281,170.741Z"/>
        <path d="M10.84,171.236a.217.217,0,0,1-.1-.023.211.211,0,0,1-.083-.075.518.518,0,0,1-.077-.305.429.429,0,0,1,.083-.28.25.25,0,0,1,.207-.1.215.215,0,0,1,.179.094.449.449,0,0,1,.074.273.514.514,0,0,1-.085.309A.237.237,0,0,1,10.84,171.236Zm.09-.679a.129.129,0,0,0-.076-.023.141.141,0,0,0-.079.024.187.187,0,0,0-.06.067.473.473,0,0,0-.05.236.412.412,0,0,0,.048.221.147.147,0,0,0,.128.071.157.157,0,0,0,.141-.1.478.478,0,0,0,.047-.221A.324.324,0,0,0,10.93,170.557Z"/>
        <path d="M11.436,170.289a.066.066,0,0,1,.017-.051.051.051,0,0,1,.036-.017.047.047,0,0,1,.035.017.065.065,0,0,1,.012.051c-.006.06-.01.131-.011.211a1.171,1.171,0,0,0,.121,0c.027,0,.047,0,.059,0,.044,0,.066.015.066.049a.043.043,0,0,1-.034.041.062.062,0,0,1-.028,0h-.185v0a4.167,4.167,0,0,0,.012.456.249.249,0,0,0,.025.074.072.072,0,0,0,.062.039.082.082,0,0,0,.083-.06c.006-.033.023-.049.05-.049a.036.036,0,0,1,.026.011.058.058,0,0,1,.011.037.1.1,0,0,1-.014.05.153.153,0,0,1-.039.048.183.183,0,0,1-.12.045.169.169,0,0,1-.167-.134.347.347,0,0,1-.017-.12v-.393l-.045,0a.051.051,0,0,1-.045-.016.044.044,0,0,1,0-.066.069.069,0,0,1,.047-.014h.043Z"/>
        <path d="M12.517,170.289a.066.066,0,0,1,.017-.051.051.051,0,0,1,.036-.017.047.047,0,0,1,.035.017.065.065,0,0,1,.012.051c-.006.06-.01.131-.011.211a1.171,1.171,0,0,0,.121,0c.027,0,.047,0,.059,0,.044,0,.066.015.066.049a.043.043,0,0,1-.034.041.062.062,0,0,1-.028,0h-.185v0a4.167,4.167,0,0,0,.012.456.249.249,0,0,0,.025.074.072.072,0,0,0,.063.039.082.082,0,0,0,.083-.06c0-.033.022-.049.049-.049a.036.036,0,0,1,.026.011.053.053,0,0,1,.011.037.1.1,0,0,1-.014.05.153.153,0,0,1-.039.048.183.183,0,0,1-.12.045.169.169,0,0,1-.167-.134.347.347,0,0,1-.017-.12v-.393l-.045,0a.051.051,0,0,1-.045-.016.044.044,0,0,1,0-.066.069.069,0,0,1,.047-.014h.043Z"/>
        <path d="M13.343,171.236a.217.217,0,0,1-.1-.023.213.213,0,0,1-.084-.075.518.518,0,0,1-.077-.305.434.434,0,0,1,.083-.28.25.25,0,0,1,.207-.1.218.218,0,0,1,.18.094.449.449,0,0,1,.073.273.508.508,0,0,1-.085.309A.235.235,0,0,1,13.343,171.236Zm.09-.679a.131.131,0,0,0-.076-.023.139.139,0,0,0-.079.024.187.187,0,0,0-.06.067.473.473,0,0,0-.05.236.4.4,0,0,0,.048.221.144.144,0,0,0,.128.071.157.157,0,0,0,.14-.1.466.466,0,0,0,.047-.221A.327.327,0,0,0,13.433,170.557Z"/>
        <path d="M14.139,171.236a.217.217,0,0,1-.1-.023.211.211,0,0,1-.083-.075.511.511,0,0,1-.078-.305.434.434,0,0,1,.083-.28.252.252,0,0,1,.207-.1.215.215,0,0,1,.18.094.449.449,0,0,1,.073.273.508.508,0,0,1-.085.309A.234.234,0,0,1,14.139,171.236Zm.09-.679a.131.131,0,0,0-.076-.023.139.139,0,0,0-.079.024.187.187,0,0,0-.06.067.473.473,0,0,0-.05.236.4.4,0,0,0,.048.221.147.147,0,0,0,.128.071.157.157,0,0,0,.141-.1.478.478,0,0,0,.047-.221A.324.324,0,0,0,14.229,170.557Z"/>
        <path d="M15.725,171.076l.013-.051c.012-.044.024-.092.037-.142.021-.085.049-.2.083-.356a.078.078,0,0,1,.023-.043.063.063,0,0,1,.034-.013.043.043,0,0,1,.031.015.047.047,0,0,1,.014.033.118.118,0,0,1-.009.043c-.006.015-.014.039-.025.073s-.022.07-.034.111-.024.082-.037.127-.024.085-.036.125c-.018.065-.031.114-.04.147s-.017.053-.028.06a.051.051,0,0,1-.03.01.044.044,0,0,1-.046-.035c-.014-.053-.035-.139-.063-.255-.033-.145-.06-.254-.079-.329,0,.019-.009.039-.014.06-.012.051-.025.106-.041.164-.037.153-.068.272-.093.354a.072.072,0,0,1-.022.028.051.051,0,0,1-.031.012.042.042,0,0,1-.045-.034c-.017-.057-.033-.112-.047-.163s-.029-.1-.043-.152c-.029-.1-.061-.2-.095-.287a.155.155,0,0,1-.01-.054.054.054,0,0,1,.013-.039.043.043,0,0,1,.031-.014.061.061,0,0,1,.061.052c.009.035.019.073.028.112s.019.078.028.119.019.08.029.121.019.077.028.113.021.074.03.1l.132-.553c.011-.044.034-.066.067-.066s.057.024.066.07Q15.679,170.917,15.725,171.076Z"/>
        <path d="M16.323,170.636c.058-.117.132-.175.223-.175a.169.169,0,0,1,.166.144.445.445,0,0,1,.015.125v.158c0,.118,0,.2.008.262a.058.058,0,0,1-.017.048.064.064,0,0,1-.041.017.051.051,0,0,1-.037-.015c-.01-.01-.014-.032-.01-.068a1.73,1.73,0,0,0,.008-.182c0-.065,0-.112,0-.14s0-.059,0-.1a.285.285,0,0,0-.024-.11.071.071,0,0,0-.067-.049.133.133,0,0,0-.079.023.274.274,0,0,0-.063.06.364.364,0,0,0-.072.173q0,.234.012.342a.057.057,0,0,1-.014.048.061.061,0,0,1-.043.017c-.034,0-.05-.021-.05-.061l.014-1.084c0-.139,0-.311-.011-.519a.05.05,0,0,1,.017-.047.064.064,0,0,1,.04-.015.05.05,0,0,1,.037.015.07.07,0,0,1,.014.053c0,.026,0,.063,0,.111s0,.1,0,.165,0,.127,0,.2,0,.143,0,.216,0,.147,0,.221C16.324,170.524,16.323,170.581,16.323,170.636Z"/>
        <path d="M17.221,170.18a.085.085,0,0,1,0,.037.089.089,0,0,1-.01.038.1.1,0,0,1-.021.025.072.072,0,0,1-.046.018.127.127,0,0,1-.037,0,.078.078,0,0,1-.024-.016.079.079,0,0,1-.026-.061.068.068,0,0,1,.02-.055.1.1,0,0,1,.064-.028A.075.075,0,0,1,17.221,170.18Zm-.041.567c0,.065,0,.125,0,.178s0,.107,0,.163a.452.452,0,0,1,0,.1.056.056,0,0,1-.012.02.05.05,0,0,1-.036.016.054.054,0,0,1-.037-.014c-.011-.01-.015-.029-.013-.06.007-.083.011-.166.011-.251s0-.153,0-.2,0-.093,0-.119a.135.135,0,0,1,0-.052.049.049,0,0,1,.014-.018.05.05,0,0,1,.037-.016.053.053,0,0,1,.036.015.058.058,0,0,1,.014.046Z"/>
        <path d="M17.562,170.289a.07.07,0,0,1,.017-.051.046.046,0,0,1,.071,0,.065.065,0,0,1,.012.051c-.006.06-.01.131-.011.211a1.157,1.157,0,0,0,.121,0c.027,0,.047,0,.059,0,.043,0,.066.015.066.049a.043.043,0,0,1-.034.041.064.064,0,0,1-.028,0H17.65v0a4.167,4.167,0,0,0,.012.456.224.224,0,0,0,.025.074.072.072,0,0,0,.062.039.082.082,0,0,0,.083-.06c.006-.033.023-.049.05-.049a.036.036,0,0,1,.026.011.058.058,0,0,1,.011.037.115.115,0,0,1-.014.05.153.153,0,0,1-.039.048.183.183,0,0,1-.12.045.169.169,0,0,1-.167-.134.372.372,0,0,1-.017-.12v-.393l-.045,0a.051.051,0,0,1-.045-.016.042.042,0,0,1,0-.066.068.068,0,0,1,.047-.014h.043Z"/>
        <path d="M18.217,170.878a.386.386,0,0,0,.049.206.163.163,0,0,0,.144.076.131.131,0,0,0,.124-.084c.016-.036.036-.055.06-.055a.039.039,0,0,1,.028.011.05.05,0,0,1,.01.038.143.143,0,0,1-.018.058.22.22,0,0,1-.051.055.266.266,0,0,1-.169.055.234.234,0,0,1-.184-.091.343.343,0,0,1-.081-.227.8.8,0,0,1,.024-.215.423.423,0,0,1,.06-.137.221.221,0,0,1,.186-.11.2.2,0,0,1,.2.112.555.555,0,0,1,.043.23.077.077,0,0,1-.014.057.082.082,0,0,1-.059.015Zm.335-.085a.294.294,0,0,0-.071-.233.105.105,0,0,0-.071-.026.134.134,0,0,0-.07.016.174.174,0,0,0-.049.042.287.287,0,0,0-.035.06.505.505,0,0,0-.022.069.586.586,0,0,0-.013.073l.134.006A1.934,1.934,0,0,0,18.552,170.793Z"/>
        <path d="M19.1,171.1a.052.052,0,0,1,.02.026.089.089,0,0,1,.008.038.074.074,0,0,1-.009.038.057.057,0,0,1-.022.026.108.108,0,0,1-.062.018.078.078,0,0,1-.075-.047.083.083,0,0,1-.007-.036.075.075,0,0,1,.057-.078.117.117,0,0,1,.03,0,.119.119,0,0,1,.032,0A.085.085,0,0,1,19.1,171.1Z"/>
        <path d="M20.356,170.511a.055.055,0,0,1-.053.06.285.285,0,0,0-.145.11.4.4,0,0,0-.1.208c0,.031,0,.058,0,.082,0,.06,0,.122.008.187a.059.059,0,0,1-.016.049.056.056,0,0,1-.039.016.052.052,0,0,1-.037-.014.055.055,0,0,1-.013-.047c0-.02,0-.044,0-.07s0-.056,0-.086c0-.051,0-.108,0-.17,0-.106,0-.184,0-.235a.343.343,0,0,1,0-.088.053.053,0,0,1,.013-.019.05.05,0,0,1,.037-.016.049.049,0,0,1,.035.015.045.045,0,0,1,.016.038c0,.015,0,.029,0,.045s0,.032-.006.054-.008.071-.011.11a.629.629,0,0,1,.115-.185.22.22,0,0,1,.144-.093.048.048,0,0,1,.038.014A.055.055,0,0,1,20.356,170.511Z"/>
        <path d="M20.787,171.236a.212.212,0,0,1-.1-.023.207.207,0,0,1-.084-.075.511.511,0,0,1-.077-.305.429.429,0,0,1,.083-.28.25.25,0,0,1,.207-.1.218.218,0,0,1,.18.094.456.456,0,0,1,.073.273.508.508,0,0,1-.085.309A.235.235,0,0,1,20.787,171.236Zm.089-.679a.127.127,0,0,0-.076-.023.138.138,0,0,0-.078.024.187.187,0,0,0-.06.067.463.463,0,0,0-.05.236.394.394,0,0,0,.048.221.145.145,0,0,0,.128.071.157.157,0,0,0,.14-.1.478.478,0,0,0,.047-.221A.324.324,0,0,0,20.876,170.557Z"/>
        <path d="M21.4,170.968c.03,0,.043.027.04.081a.093.093,0,0,0,.037.082.152.152,0,0,0,.1.033.146.146,0,0,0,.1-.034.109.109,0,0,0,.038-.085.113.113,0,0,0-.025-.08.262.262,0,0,0-.064-.053.891.891,0,0,0-.082-.043.613.613,0,0,1-.082-.049.2.2,0,0,1-.088-.161.181.181,0,0,1,.056-.138.213.213,0,0,1,.157-.059.2.2,0,0,1,.139.048.165.165,0,0,1,.06.131.075.075,0,0,1-.011.06.052.052,0,0,1-.038.019.038.038,0,0,1-.035-.02.061.061,0,0,1-.012-.046.175.175,0,0,0,0-.047.079.079,0,0,0-.017-.036.108.108,0,0,0-.091-.037.1.1,0,0,0-.075.024.133.133,0,0,0-.04.088.113.113,0,0,0,.026.076.236.236,0,0,0,.063.053.918.918,0,0,0,.082.046.508.508,0,0,1,.082.049.188.188,0,0,1,.089.159.2.2,0,0,1-.06.149.248.248,0,0,1-.177.059.238.238,0,0,1-.163-.057.168.168,0,0,1-.062-.145C21.342,170.99,21.361,170.968,21.4,170.968Z"/>
        <path d="M22.162,170.878a.387.387,0,0,0,.048.206.164.164,0,0,0,.144.076.129.129,0,0,0,.124-.084c.017-.036.036-.055.061-.055a.039.039,0,0,1,.027.011.046.046,0,0,1,.011.038.131.131,0,0,1-.019.058.2.2,0,0,1-.051.055.264.264,0,0,1-.169.055.231.231,0,0,1-.183-.091.338.338,0,0,1-.081-.227.8.8,0,0,1,.023-.215.423.423,0,0,1,.061-.137.218.218,0,0,1,.185-.11.2.2,0,0,1,.2.112.539.539,0,0,1,.043.23.082.082,0,0,1-.013.057.087.087,0,0,1-.06.015Zm.335-.085a.3.3,0,0,0-.072-.233.1.1,0,0,0-.071-.026.131.131,0,0,0-.069.016.151.151,0,0,0-.049.042.22.22,0,0,0-.035.06.508.508,0,0,0-.023.069.586.586,0,0,0-.013.073l.134.006A1.957,1.957,0,0,0,22.5,170.793Zm-.2-.5c.06-.064.1-.111.123-.14.04-.055.075-.074.1-.057s.028.043,0,.077a.7.7,0,0,1-.058.063c-.047.046-.078.077-.093.094a.318.318,0,0,1-.037.037.044.044,0,0,1-.03.013.041.041,0,0,1-.026-.009.032.032,0,0,1-.013-.027A.09.09,0,0,1,22.3,170.293Z"/>
        <path d="M23.057,171.092a.067.067,0,0,1,.021.026.107.107,0,0,1,.007.038.1.1,0,0,1-.008.039.085.085,0,0,1-.024.026.107.107,0,0,1-.061.017.076.076,0,0,1-.074-.047.1.1,0,0,1-.007-.036.074.074,0,0,1,.056-.077.089.089,0,0,1,.031-.006.118.118,0,0,1,.031,0A.108.108,0,0,1,23.057,171.092Zm-.012-.8v.277c0,.124,0,.214.008.27a.058.058,0,0,1-.014.048A.052.052,0,0,1,23,170.9a.047.047,0,0,1-.033-.014.107.107,0,0,1-.011-.071c0-.053,0-.14,0-.262s0-.227,0-.31l0-.245c0-.167-.008-.313-.017-.437a.063.063,0,0,1,.018-.056.064.064,0,0,1,.044-.019.055.055,0,0,1,.043.02.081.081,0,0,1,.016.069c0,.034-.005.079-.007.136s0,.117-.006.181C23.046,170.023,23.045,170.155,23.045,170.291Z"/>
      </g>
      <g>
        <path class="cls-10" d="M5.206,160.139q.039,1.11.063,1.924a.3.3,0,0,1-.083.247.273.273,0,0,1-.189.08.241.241,0,0,1-.175-.075.311.311,0,0,1-.075-.227v-3.672q0-1.905-.093-3.418a.3.3,0,0,1,.117-.3.282.282,0,0,1,.112-.041,2.312,2.312,0,0,0,.259-.066,3.684,3.684,0,0,1,1-.142,2.593,2.593,0,0,1,.82.11,1.456,1.456,0,0,1,.555.334A1.9,1.9,0,0,1,8,156.306a3.556,3.556,0,0,1-.947,2.32c-.1.121-.208.239-.322.356q.479,1.465,1.123,2.989a.262.262,0,0,1-.117.385.3.3,0,0,1-.137.03.259.259,0,0,1-.249-.2c-.105-.3-.2-.592-.283-.871s-.168-.55-.249-.813q-.216-.713-.406-1.221A7.24,7.24,0,0,1,5.206,160.139Zm-.015-.463a5.779,5.779,0,0,0,1.445-1.221,3.232,3.232,0,0,0,.9-2.105,1.357,1.357,0,0,0-.766-1.411A1.859,1.859,0,0,0,5.7,154.89a1.982,1.982,0,0,0-.5.157q-.063,1.47-.064,2.466c0,.707,0,1.086,0,1.14s0,.1,0,.147,0,.088.008.136.008.115.012.2.01.2.017.342C5.184,159.539,5.188,159.6,5.191,159.676Z"/>
        <path class="cls-10" d="M11.3,162.517a1.579,1.579,0,0,1-1.5-1.054,7.81,7.81,0,0,1-.481-3.116,6.05,6.05,0,0,1,.552-2.729,2.609,2.609,0,0,1,.664-.856,1.375,1.375,0,0,1,.9-.321,1.514,1.514,0,0,1,.892.267,1.98,1.98,0,0,1,.629.768,8.6,8.6,0,0,1-.068,5.957A1.742,1.742,0,0,1,11.3,162.517Zm1.058-7.106a1.39,1.39,0,0,0-.4-.4.941.941,0,0,0-.508-.144.91.91,0,0,0-.5.144,1.534,1.534,0,0,0-.408.4,2.911,2.911,0,0,0-.323.6,5.52,5.52,0,0,0-.236.739,7.058,7.058,0,0,0-.19,1.619,12.446,12.446,0,0,0,.061,1.354,6.385,6.385,0,0,0,.168.946,2.953,2.953,0,0,0,.256.664,1.781,1.781,0,0,0,.32.427,1.089,1.089,0,0,0,.757.288q1.3,0,1.577-2.388a9.7,9.7,0,0,0,.064-1.113q0-.566-.035-.992a7.421,7.421,0,0,0-.109-.817,5.351,5.351,0,0,0-.2-.735A2.5,2.5,0,0,0,12.359,155.411Z"/>
        <path class="cls-10" d="M15.063,160.164a.2.2,0,0,1,.215.132,1.528,1.528,0,0,1,.044.434,1.86,1.86,0,0,0,.083.567,1.339,1.339,0,0,0,.229.444,1.01,1.01,0,0,0,.825.361,1.023,1.023,0,0,0,.84-.387,1.746,1.746,0,0,0,.313-1.117,2.3,2.3,0,0,0-.825-1.728c-.157-.143-.317-.284-.482-.425s-.324-.284-.48-.434a3.094,3.094,0,0,1-.42-.5A2.384,2.384,0,0,1,15,156.145a1.758,1.758,0,0,1,.464-1.269,1.532,1.532,0,0,1,1.153-.479,1.288,1.288,0,0,1,.976.4,1.69,1.69,0,0,1,.391,1.269.456.456,0,0,0,0,.083,1.475,1.475,0,0,1-.01.166.367.367,0,0,1-.1.218.268.268,0,0,1-.2.095.217.217,0,0,1-.177-.095.313.313,0,0,1-.049-.252,3.373,3.373,0,0,0,.063-.539.966.966,0,0,0-.065-.35.933.933,0,0,0-.189-.293.917.917,0,0,0-.683-.268.984.984,0,0,0-.757.317,1.233,1.233,0,0,0-.322.864,2.523,2.523,0,0,0,.112.829,2.234,2.234,0,0,0,.3.568,2.824,2.824,0,0,0,.417.464c.156.14.315.278.475.415s.321.277.477.423a3.011,3.011,0,0,1,.42.48,2.385,2.385,0,0,1,.4,1.372,2.136,2.136,0,0,1-.469,1.45,1.553,1.553,0,0,1-1.24.538A1.451,1.451,0,0,1,15.209,162a1.8,1.8,0,0,1-.429-1.177C14.78,160.383,14.874,160.164,15.063,160.164Z"/>
        <path class="cls-10" d="M20.392,159.724l.01,1.734v.4c0,.049,0,.092,0,.127q1.23,0,1.635-.039a2.288,2.288,0,0,1,.489-.024.288.288,0,0,1,.117.063.259.259,0,0,1,.1.194.23.23,0,0,1-.093.18.37.37,0,0,1-.259.066,10.161,10.161,0,0,0-1.445-.022q-.645.041-.723.054a.4.4,0,0,1-.139,0,.26.26,0,0,1-.11-.052.264.264,0,0,1-.1-.244q.073-1.41.074-3.122t0-2.153q0-.442,0-.809c-.007-.523-.018-.9-.035-1.11a.971.971,0,0,1,.013-.389.237.237,0,0,1,.09-.093.316.316,0,0,1,.185-.014,3.419,3.419,0,0,0,.542.034c.433,0,.729-.009.886-.027a.963.963,0,0,1,.306,0,.323.323,0,0,1,.112.061.236.236,0,0,1,.1.19.23.23,0,0,1-.088.186.336.336,0,0,1-.239.066c-.1,0-.208-.011-.323-.019s-.236-.016-.366-.023a6.749,6.749,0,0,0-.713.01c0,.283,0,.566,0,.845,0,.332-.006.669-.009,1.011q-.015,1.377-.015,2.031.61,0,.9-.029a.641.641,0,0,1,.393.029.2.2,0,0,1,.081.171q0,.269-.5.259c-.068,0-.13,0-.185,0l-.4,0h-.288Zm.637-6.051.3-.186a3.429,3.429,0,0,0,.386-.283.473.473,0,0,1,.361-.151.283.283,0,0,1,.206.124c.081.13.039.253-.127.371a3.14,3.14,0,0,1-.45.249c-.227.111-.387.194-.478.252a1.751,1.751,0,0,1-.207.114.316.316,0,0,1-.164.015.164.164,0,0,1-.156-.206.248.248,0,0,1,.1-.151A2.362,2.362,0,0,1,21.029,153.673Z"/>
      </g>
      <path class="cls-11" d="M35.664,130.435a.27.27,0,0,1,.3.19c0,.162-.172.269-.514.324a10.813,10.813,0,0,0-5.13,2.268,3.584,3.584,0,0,1,1.486,3,6.847,6.847,0,0,1-2.5,4.873,12.391,12.391,0,0,1-6.333,3.145,12.193,12.193,0,0,1,1.5,1.823q.8,1.147,1.459,2.133a20.354,20.354,0,0,0,1.47,1.931,5.662,5.662,0,0,0,4.429,2.024,3.993,3.993,0,0,0,1.363-.188q.5-.189.8-.324a3.5,3.5,0,0,1,.851-.325c.1,0,.148.037.148.109,0,.126-.161.283-.485.473a4.528,4.528,0,0,1-.918.417,9.758,9.758,0,0,1-2.214.433,5.8,5.8,0,0,1-4.563-2.215,18.448,18.448,0,0,1-1.54-2.038q-.675-1.038-1.472-2.255a12.156,12.156,0,0,0-1.47-1.889,14.393,14.393,0,0,1-2.188.162h-.324a28.54,28.54,0,0,1-6.1,5.09,12.773,12.773,0,0,1-6.669,1.822A6.5,6.5,0,0,1,2.9,150.294a3.511,3.511,0,0,1-1.391-2.862,4.389,4.389,0,0,1,1.539-3.212,5.364,5.364,0,0,1,3.862-1.472,2.205,2.205,0,0,1,2.348,1.3,10.033,10.033,0,0,1,5.373-1.593q.351.081.351.27c0,.053-.045.081-.135.081a9.992,9.992,0,0,0-5.48,1.62,1.881,1.881,0,0,1,.026.378,3.245,3.245,0,0,1-.594,1.849,1.676,1.676,0,0,1-1.377.877c-.522,0-.783-.2-.783-.594a2.121,2.121,0,0,1,.608-1.242,7.662,7.662,0,0,1,1.606-1.4,2.121,2.121,0,0,0-2.228-1.215,3.846,3.846,0,0,0-2.956,1.336,4.27,4.27,0,0,0-1.214,2.93,3.3,3.3,0,0,0,1.228,2.633,6.218,6.218,0,0,0,4.023,1.039,10.551,10.551,0,0,0,5.6-1.742,29.584,29.584,0,0,0,5.751-4.846q-1.323-.3-1.323-.972c0-.217.148-.4.446-.554a2.432,2.432,0,0,1,1.12-.229,5.025,5.025,0,0,1,1.215.135q.621-.7,2.673-3.092t3.4-3.807a27.929,27.929,0,0,1,2.726-2.524,8.085,8.085,0,0,0-4.549-1.134,14.891,14.891,0,0,0-5.09.81,2.158,2.158,0,0,1,.405,1.052,2.856,2.856,0,0,1-.027.514,1.619,1.619,0,0,1,.352-.027q1.727,0,1.727,1.052a3.445,3.445,0,0,1-1.08,2.079,10.6,10.6,0,0,1-2.673,2.133,5.739,5.739,0,0,1-2.754.918,2.5,2.5,0,0,1-1.7-.485,1.658,1.658,0,0,1-.54-1.3,5.168,5.168,0,0,1,1.526-3.2A10.83,10.83,0,0,1,19,132.947a5.137,5.137,0,0,0-4.077-1.513,10.388,10.388,0,0,0-3.5.581,8.916,8.916,0,0,0-2.66,1.417,11.352,11.352,0,0,0-2.808,3.106l-.324.594c-.09.144-.188.215-.3.215s-.162-.1-.162-.3a9.145,9.145,0,0,1,1.3-2,11.471,11.471,0,0,1,1.944-1.917,10.626,10.626,0,0,1,2.822-1.431,11.3,11.3,0,0,1,3.875-.649,5.313,5.313,0,0,1,4.346,1.7,16.088,16.088,0,0,1,5.6-.946,8.9,8.9,0,0,1,4.82,1.135A11.352,11.352,0,0,1,35.664,130.435ZM7.206,146.77c0,.2.157.3.472.3a1.139,1.139,0,0,0,.891-.634,2.523,2.523,0,0,0,.418-1.418,1.445,1.445,0,0,0-.027-.324Q7.2,145.987,7.206,146.77ZM20.219,135l-.189.026a3.566,3.566,0,0,1-.891,1.891,2.265,2.265,0,0,1-1.727.756c-.289,0-.433-.166-.433-.5a2.371,2.371,0,0,1,.8-1.35,3.783,3.783,0,0,1,1.876-1.12v-.136a2.546,2.546,0,0,0-.432-1.322,9.963,9.963,0,0,0-3.78,2.632,4.781,4.781,0,0,0-1.4,2.957q0,1.485,1.713,1.484a5.851,5.851,0,0,0,3.672-1.66q1.959-1.659,1.958-2.849Q21.38,135,20.219,135Zm-1.984.85q-.582.581-.581.851t.162.27a1.51,1.51,0,0,0,1.161-.54,2.609,2.609,0,0,0,.621-1.35A2.843,2.843,0,0,0,18.235,135.849Zm2.038,7.249a3.2,3.2,0,0,0-.823-.134.959.959,0,0,0-.58.175.477.477,0,0,0-.244.365q0,.378.784.512Zm-.108,1.027h.541a11.375,11.375,0,0,0,1.3-.054,4.078,4.078,0,0,0-1.107-.757ZM26.97,142.3a10.042,10.042,0,0,0,3-2.849,5.688,5.688,0,0,0,1.052-3.146,3.331,3.331,0,0,0-1.268-2.632,27.538,27.538,0,0,0-2.633,2.47q-1.309,1.391-3.308,3.767t-2.646,3.1a5.1,5.1,0,0,1,1.54.946A11.426,11.426,0,0,0,26.97,142.3Z"/>
      <path id="cap" class="cls-5" d="M26.12,2.32V19.84a2.322,2.322,0,0,1-2.32,2.29H17.26a2.329,2.329,0,0,1-2.32-2.26V2.32A2.335,2.335,0,0,1,17.26,0H23.8A2.328,2.328,0,0,1,26.12,2.32Z"/>
      <path id="cap_bump_shadow" data-name="cap bump shadow" class="cls-12" d="M27.091,6.229v1.03a1.423,1.423,0,0,1-1,1.36,1.251,1.251,0,0,1-.43.07H15.381a1.5,1.5,0,0,1-.47-.08,1.429,1.429,0,0,1-.97-1.35V6.229a1.428,1.428,0,0,1,.97-1.35,1.468,1.468,0,0,1,.47-.08h10.28a1.251,1.251,0,0,1,.43.07A1.423,1.423,0,0,1,27.091,6.229Z"/>
      <path id="cap_bump" data-name="cap bump" class="cls-5" d="M27.12,6.06V7.09a1.423,1.423,0,0,1-1,1.36,1.251,1.251,0,0,1-.43.07H15.41a1.5,1.5,0,0,1-.47-.08,1.428,1.428,0,0,1-.97-1.35V6.06a1.428,1.428,0,0,1,.97-1.35,1.5,1.5,0,0,1,.47-.08H25.69a1.251,1.251,0,0,1,.43.07A1.423,1.423,0,0,1,27.12,6.06Z"/>
      <line id="cap_bump_highlight" data-name="cap bump highlight" class="cls-13" x1="18.748" y1="4.806" x2="25.328" y2="4.711"/>
      <path id="neck_band" data-name="neck band" class="cls-11" d="M26.18,20.88a8.687,8.687,0,0,0-.06-1.04,5.559,5.559,0,0,1-2.67,1.24,12.6,12.6,0,0,1-2.92.32c-2.8,0-4.86-.81-5.58-1.56a.01.01,0,0,1-.01-.01v.04c-.03.32-.05.66-.05,1.01-.06.41-.11.81-.17,1.22a11.981,11.981,0,0,0,5.81,1.3,14.947,14.947,0,0,0,2.93-.28,9.58,9.58,0,0,0,2.9-1.02C26.3,21.69,26.24,21.29,26.18,20.88Z"/>
      <path id="shadow" class="cls-14" d="M41.09,161.24v5.24q-.015,4.08-.01,8.16v10.58a4.9,4.9,0,0,1-4.89,4.89h-.38c-.26-4.23-.57-9.32-.91-14.84-.02-.44-.05-.88-.08-1.32-.02-.46-.05-.93-.08-1.39-1.12-18.66-2.43-41.3-2.91-52.73-.02-.44-.04-.88-.06-1.29-.01-.44-.03-.85-.04-1.25-.06-1.61-.09-2.87-.09-3.69,0-10.35-6.96-67.51-7.81-77.76-.25-2.99-.35-7.64-.37-12.72-.01-.33-.01-.66-.01-.99V21.08c0-1.37.01-2.77.01-4.16.02-2.89.06-5.76.1-8.4.02-1.37.05-2.68.07-3.89.03-1.76.07-3.33.1-4.63h.07a2.328,2.328,0,0,1,2.32,2.32V4.7a1.423,1.423,0,0,1,1,1.36V7.09a1.423,1.423,0,0,1-1,1.36V19.84a8.687,8.687,0,0,1,.06,1.04c.06.41.12.81.18,1.22q2.55,17.79,5.1,35.59c2.4,16.74,4.92,33.49,7.13,50.25.66,5.01,1.15,10,1.51,14.98.1,1.48.2,2.95.28,4.43.05.82.1,1.63.13,2.45l.06,1.17c.03.59.06,1.18.08,1.77C41.07,142.23,41.11,151.71,41.09,161.24Z"/>
      <path id="bottom_highlight" data-name="bottom highlight" class="cls-15" d="M16.931,29.736S14.423,44.414,13.97,48.511q-.139,1.267-.281,2.534c-.089.792-.357,1.319.264,1.774a2.4,2.4,0,0,0,2.978-.212C17.955,51.241,16.931,29.736,16.931,29.736Z"/>
      <path id="top_highlight" data-name="top highlight" class="cls-15" d="M16.3,55.55a2.774,2.774,0,0,1-.07.7c-.16,1.75-.32,3.5-.48,5.26q-.4,4.335-.81,8.69-.48,5.28-.97,10.56-.495,5.415-.99,10.84c-.29,3.18-.59,6.36-.87,9.54-.21,2.23-.41,4.45-.61,6.68-.13,1.53-.29,4.48-.46,8.4-.01.38-.03.78-.05,1.18s-.03.79-.04,1.2c-.59,14.72-1.3,39.85-1.76,56.71-.01.42-.02.84-.03,1.25s-.02.8-.03,1.19c-.12,4.47-.22,8.23-.29,10.85-.01.56-.02,1.06-.04,1.51H4.89a4.406,4.406,0,0,1-.89-.09c.03-3.33.1-9.5.2-16.94.01-.51.02-1.03.02-1.55.01-.55.02-1.11.03-1.67.22-15.14.55-34.29.97-45.85.02-.57.04-1.11.06-1.64s.04-1.05.06-1.54c.13-2.93.27-5.11.41-6.23,1.09-8.53,7.77-59.2,7.77-59.2.09-.73.77-.61,1.35-.56C15.33,54.88,16.18,54.99,16.3,55.55Z"/>
    </g>
  </g>
</svg>
